<svg xmlns="http://www.w3.org/2000/svg" width="96.762" height="96.762" viewBox="0 0 96.762 96.762">
  <g id="_113" data-name="113" transform="translate(-862.559 -1952)">
    <g id="Grupo_1099174" data-name="Grupo 1099174" transform="translate(862.559 1952)">
      <g id="Grupo_1099167" data-name="Grupo 1099167" transform="translate(0 0)">
        <path id="Trazado_873000" data-name="Trazado 873000" d="M48.381,0h0V22.476a25.9,25.9,0,1,0,25.905,25.9H96.762A48.381,48.381,0,1,1,48.381,0" transform="translate(0 96.762) rotate(-90)" fill="#201144"/>
      </g>
      <rect id="Rectángulo_401249" data-name="Rectángulo 401249" width="66.409" height="66.409" rx="33.204" transform="translate(15.157 15.157)" fill="#e8faf9"/>
    </g>
    <g id="Grupo_1100616" data-name="Grupo 1100616" transform="translate(888.179 1976.698)">
      <path id="Trazado_876380" data-name="Trazado 876380" d="M31.143,48.256h15.73l-.4-3.992a5.918,5.918,0,0,0-5.131-5.3v-.309A4.186,4.186,0,0,0,43.579,35.8h.877a2.334,2.334,0,0,0,1.224-4.323l.087-.261a4.79,4.79,0,0,0-1.311-5.05V5.448a2.338,2.338,0,0,0-2.335-2.335h-.778V1.557A1.558,1.558,0,0,0,39.786,0H38.229a1.558,1.558,0,0,0-1.557,1.557V3.113H33.559V1.557A1.558,1.558,0,0,0,32,0H30.446a1.558,1.558,0,0,0-1.557,1.557V3.113H25.776V1.557A1.558,1.558,0,0,0,24.219,0H22.663a1.558,1.558,0,0,0-1.557,1.557V3.113H17.993V1.557A1.558,1.558,0,0,0,16.436,0H14.879a1.558,1.558,0,0,0-1.557,1.557V3.113H10.21V1.557A1.558,1.558,0,0,0,8.653,0H7.1A1.558,1.558,0,0,0,5.54,1.557V3.113H4.761A2.338,2.338,0,0,0,2.426,5.448V26.277A6.216,6.216,0,0,0,.091,31.133v7.646a5.238,5.238,0,0,0,.963,3.026,4.941,4.941,0,0,0-.53,1.74L0,48.256H15.749l-.519-4.67H31.65a6.054,6.054,0,0,0-.108.678ZM39.1,42.029l.584,4.67h-1.35l.584-4.67ZM36.982,40.5l.445.89L36.764,46.7h-3.9l.228-2.281A4.366,4.366,0,0,1,36.982,40.5Zm7.942,3.921.228,2.281h-3.9l-.664-5.311.445-.89A4.366,4.366,0,0,1,44.924,44.419Zm-2.8-13.286V34.9a2.633,2.633,0,0,1-1.8,2.5l-.532.177v1.934l-.481.962H38.71l-.481-.962V37.577L37.7,37.4a2.633,2.633,0,0,1-1.8-2.5V31.911a.779.779,0,0,1,.778-.778h.481l.577-1.153a.73.73,0,0,1,1.169-.19l.014.014a4.5,4.5,0,0,0,3.2,1.328h0Zm0-1.557a2.96,2.96,0,0,1-2.107-.873L40,28.689a2.286,2.286,0,0,0-3.662.594l-.174.349a2.344,2.344,0,0,0-1.692,1.5h-.611l-.135-.406A3.24,3.24,0,0,1,36.8,26.463h4.417a3.239,3.239,0,0,1,3.073,4.264l-.135.406h-.477A1.558,1.558,0,0,0,42.121,29.576Zm-7.783,4.67h-.778a.778.778,0,0,1,0-1.557h.778Zm10.118,0h-.778V32.69h.778a.778.778,0,0,1,0,1.557ZM38.229,1.557h1.557v4.67H38.229Zm-7.783,0H32v4.67H30.446Zm-7.783,0h1.557v4.67H22.663Zm-7.783,0h1.557v4.67H14.879Zm-7.783,0H8.653v4.67H7.1ZM4.761,4.67h.778V6.227A1.558,1.558,0,0,0,7.1,7.783H8.653a1.558,1.558,0,0,0,1.557-1.557V4.67h3.113V6.227a1.558,1.558,0,0,0,1.557,1.557h1.557a1.558,1.558,0,0,0,1.557-1.557V4.67h3.113V6.227a1.558,1.558,0,0,0,1.557,1.557h1.557a1.558,1.558,0,0,0,1.557-1.557V4.67h3.113V6.227a1.558,1.558,0,0,0,1.557,1.557H32a1.558,1.558,0,0,0,1.557-1.557V4.67h3.113V6.227a1.558,1.558,0,0,0,1.557,1.557h1.557a1.558,1.558,0,0,0,1.557-1.557V4.67h.778a.779.779,0,0,1,.778.778V9.34H3.983V5.448A.779.779,0,0,1,4.761,4.67ZM6.318,26.463H9.431a4.675,4.675,0,0,1,4.67,4.67v.134a2.324,2.324,0,0,0-.778-.134h-.778a1.57,1.57,0,0,0-1.5-1.555l-.153-.006a3.037,3.037,0,0,1-2.037-.891,2.247,2.247,0,0,0-1.6-.661h-.03a2.239,2.239,0,0,0-2.016,1.249l-.181.364a2.343,2.343,0,0,0-1.691,1.5H2.426a2.324,2.324,0,0,0-.778.134v-.134a4.675,4.675,0,0,1,4.67-4.67Zm7.369,14.012a4.966,4.966,0,0,0-2.593-1.292,1.056,1.056,0,0,1-.778-.58,4.185,4.185,0,0,0,2.129-2.8h.878a2.324,2.324,0,0,0,.778-.134v3.11a3.685,3.685,0,0,1-.414,1.7Zm-11.626,0a3.684,3.684,0,0,1-.414-1.7v-3.11a2.324,2.324,0,0,0,.778.134H3.3a4.185,4.185,0,0,0,2.129,2.8,1.056,1.056,0,0,1-.778.58A4.966,4.966,0,0,0,2.062,40.475ZM3.2,34.246H2.426a.778.778,0,0,1,0-1.557H3.2ZM6.564,37.4a2.633,2.633,0,0,1-1.8-2.5V31.911a.779.779,0,0,1,.778-.778h.482L6.6,29.962a.691.691,0,0,1,.622-.386h.03a.7.7,0,0,1,.5.2,4.589,4.589,0,0,0,3.078,1.347l.146,0,.007.006V34.9a2.633,2.633,0,0,1-1.8,2.5l-.532.177v.561A2.606,2.606,0,0,0,10,40.426a2.21,2.21,0,0,1-4.25,0A2.606,2.606,0,0,0,7.1,38.138v-.561Zm5.98-4.71h.778a.778.778,0,0,1,0,1.557h-.778ZM1.739,46.7l.331-2.982a3.439,3.439,0,0,1,2.192-2.823,3.769,3.769,0,0,0,7.224,0,3.439,3.439,0,0,1,2.192,2.823L14.01,46.7ZM14.8,42.029c-.035-.076-.071-.151-.109-.225a5.238,5.238,0,0,0,.963-3.026V31.133a6.234,6.234,0,0,0-6.227-6.227H6.318a6.19,6.19,0,0,0-2.335.456V10.9H42.9V25.212a4.772,4.772,0,0,0-1.683-.306H36.8a4.8,4.8,0,0,0-4.55,6.313l.087.261A2.334,2.334,0,0,0,33.559,35.8h.877a4.187,4.187,0,0,0,2.236,2.855v.309a5.914,5.914,0,0,0-4.449,3.063Z" fill="#201144"/>
      <path id="Trazado_876381" data-name="Trazado 876381" d="M382.166,354.571a1.1,1.1,0,0,1-1.557,0l-.228-.228-1.1,1.1.228.228a2.657,2.657,0,0,0,3.758,0l.228-.228-1.1-1.1Z" transform="translate(-342.381 -319.869)" fill="#201144"/>
      <path id="Trazado_876382" data-name="Trazado 876382" d="M63.268,355.672l.228-.228-1.1-1.1-.228.228a1.1,1.1,0,0,1-1.557,0l-.228-.228-1.1,1.1.228.228a2.658,2.658,0,0,0,3.758,0Z" transform="translate(-53.514 -319.869)" fill="#201144"/>
      <path id="Trazado_876383" data-name="Trazado 876383" d="M184.938,384h1.557v1.557h-1.557Z" transform="translate(-166.945 -346.641)" fill="#201144"/>
      <path id="Trazado_876384" data-name="Trazado 876384" d="M232.938,384h1.557v1.557h-1.557Z" transform="translate(-210.275 -346.641)" fill="#201144"/>
      <path id="Trazado_876385" data-name="Trazado 876385" d="M280.938,384h1.557v1.557h-1.557Z" transform="translate(-253.605 -346.641)" fill="#201144"/>
      <path id="Trazado_876386" data-name="Trazado 876386" d="M147.056,128a10.118,10.118,0,1,0,10.118,10.118A10.13,10.13,0,0,0,147.056,128Zm0,18.68a8.562,8.562,0,1,1,8.562-8.562A8.571,8.571,0,0,1,147.056,146.68Z" transform="translate(-123.615 -115.547)" fill="#201144"/>
      <path id="Trazado_876387" data-name="Trazado 876387" d="M205.608,163.113a1.558,1.558,0,0,1,1.557,1.557h1.557a3.117,3.117,0,0,0-3.113-3.113V160h-1.557v1.557h-3.113v3.113a3.117,3.117,0,0,0,3.113,3.113h1.557a1.558,1.558,0,0,1,1.557,1.557V170.9h-3.113a1.558,1.558,0,0,1-1.557-1.557h-1.557a3.117,3.117,0,0,0,3.113,3.113v1.557h1.557v-1.557h3.113V169.34a3.117,3.117,0,0,0-3.113-3.113h-1.557a1.558,1.558,0,0,1-1.557-1.557v-1.557Z" transform="translate(-181.389 -144.434)" fill="#201144"/>
    </g>
  </g>
</svg>
