<svg xmlns="http://www.w3.org/2000/svg" width="190" height="190" viewBox="0 0 190 190">
  <g id="_12" data-name="12" transform="translate(16111 9150)">
    <circle id="Elipse_11493" data-name="Elipse 11493" cx="95" cy="95" r="95" transform="translate(-16111 -9150)" fill="#22cac5"/>
    <g id="riesgo-financiero" transform="translate(-16083.646 -9109)">
      <g id="Grupo_1099896" data-name="Grupo 1099896" transform="translate(18.224 1.587)">
        <g id="Grupo_1099892" data-name="Grupo 1099892" transform="translate(0 16.165)">
          <path id="Trazado_873637" data-name="Trazado 873637" d="M83.818,148.388l-1.976-7.905A56.14,56.14,0,0,0,70.51,118.165l-2.308-2.77-.526-7.017h0a50.6,50.6,0,0,0,7.234-14.21l.228-.705a1.644,1.644,0,0,0-.792-1.968,15.008,15.008,0,0,0-8.6-1.573h0q.224-.854.409-1.715l.26-1.212a1.638,1.638,0,0,0-1.4-1.809h0a43.7,43.7,0,0,0-21.7,0,1.638,1.638,0,0,0-1.4,1.809l.26,1.212q.185.861.41,1.715h0a15.008,15.008,0,0,0-8.6,1.573,1.644,1.644,0,0,0-.792,1.968l.228.705a50.6,50.6,0,0,0,7.234,14.21h0l-.526,7.017-2.308,2.77a56.14,56.14,0,0,0-11.332,22.319l-1.976,7.905a14.032,14.032,0,0,0,3.7,13.33l.126.126a11.575,11.575,0,0,0,7.3,3.353l.45.035A234.883,234.883,0,0,0,72.5,165.2l.339-.027A11.255,11.255,0,0,0,79.9,161.92l.213-.212A14.009,14.009,0,0,0,83.818,148.388Z" transform="translate(-24.098 -83.817)" fill="#ea9b58"/>
          <path id="Trazado_873638" data-name="Trazado 873638" d="M100.522,301.531l3.511-.633,8.359-5.6,4.057-14.13-5.806-9.758-8.759-4.552H98.351a17.541,17.541,0,0,0,0,34.742Z" transform="translate(-70.717 -228.096)" fill="#ffe177"/>
          <path id="Trazado_873639" data-name="Trazado 873639" d="M227.873,170.749l-1.976-7.905a56.141,56.141,0,0,0-11.332-22.319l-2.308-2.77-.526-7.017a50.6,50.6,0,0,0,7.234-14.21l.228-.705a1.644,1.644,0,0,0-.792-1.968,15.009,15.009,0,0,0-8.272-1.6,15.092,15.092,0,0,1,3.538,1.292,1.644,1.644,0,0,1,.792,1.968l-.228.705a52.774,52.774,0,0,1-7.371,14.523l.526,7.017,2.308,2.77a56.14,56.14,0,0,1,11.332,22.319l2.046,8.232a14.009,14.009,0,0,1-3.7,13.319l-.213.212a11.255,11.255,0,0,1-7.062,3.251l-.337.026q2.4-.139,4.8-.326l.339-.027a11.255,11.255,0,0,0,7.062-3.251l.213-.212A14.009,14.009,0,0,0,227.873,170.749Z" transform="translate(-168.153 -106.178)" fill="#d88a55"/>
          <path id="Trazado_873640" data-name="Trazado 873640" d="M157.012,266.05a17.668,17.668,0,0,0-2.436.172,17.541,17.541,0,0,1,0,34.742,17.542,17.542,0,1,0,2.436-34.914Z" transform="translate(-126.942 -227.455)" fill="#ffd15b"/>
          <g id="Grupo_1099887" data-name="Grupo 1099887" transform="translate(12.526 24.56)">
            <g id="Grupo_1099886" data-name="Grupo 1099886">
              <path id="Trazado_873641" data-name="Trazado 873641" d="M114.185,206.8H86.751a3.509,3.509,0,1,1,0-7.017h27.434a3.509,3.509,0,0,1,0,7.017Z" transform="translate(-83.242 -199.782)" fill="#ffe177"/>
            </g>
          </g>
          <path id="Trazado_873642" data-name="Trazado 873642" d="M214.214,199.783h-4.871a3.509,3.509,0,1,1,0,7.017h4.871a3.509,3.509,0,1,0,0-7.017Z" transform="translate(-170.11 -175.223)" fill="#ffd15b"/>
          <g id="Grupo_1099891" data-name="Grupo 1099891" transform="translate(15.208 6.006)">
            <g id="Grupo_1099890" data-name="Grupo 1099890">
              <g id="Grupo_1099888" data-name="Grupo 1099888" transform="translate(0 0)">
                <path id="Trazado_873643" data-name="Trazado 873643" d="M102.493,124.807a1.587,1.587,0,0,0,.933-2.321,41.179,41.179,0,0,1-4.244-10.215v.005h0a14.954,14.954,0,0,0-3.279-.016,44.114,44.114,0,0,0,4.774,11.821,1.591,1.591,0,0,0,1.815.727Z" transform="translate(-95.904 -112.178)" fill="#d88a55"/>
              </g>
              <g id="Grupo_1099889" data-name="Grupo 1099889" transform="translate(21.986)">
                <path id="Trazado_873644" data-name="Trazado 873644" d="M202.677,124.079a44.114,44.114,0,0,0,4.774-11.821,14.938,14.938,0,0,0-3.278.016h0l.006-.026a41.169,41.169,0,0,1-4.249,10.236,1.587,1.587,0,0,0,.933,2.321h0A1.59,1.59,0,0,0,202.677,124.079Z" transform="translate(-199.714 -112.176)" fill="#d88a55"/>
              </g>
            </g>
          </g>
        </g>
        <g id="Grupo_1099893" data-name="Grupo 1099893" transform="translate(57.888)">
          <path id="Trazado_873645" data-name="Trazado 873645" d="M312.339,31.177V21.82a.877.877,0,0,1,.877-.877h2.631a.877.877,0,0,0,.7-1.4l-8.772-11.7a.877.877,0,0,0-1.4,0L297.6,19.54a.877.877,0,0,0,.7,1.4h2.631a.877.877,0,0,1,.877.877v9.356a.877.877,0,0,0,.877.877h8.772A.878.878,0,0,0,312.339,31.177Z" transform="translate(-297.425 -7.493)" fill="#6fd7a3"/>
          <path id="Trazado_873646" data-name="Trazado 873646" d="M343.4,19.54l-8.771-11.7a.877.877,0,0,0-1.4,0l-1.734,2.312,7.038,9.384a.877.877,0,0,1-.7,1.4H335.2a.877.877,0,0,0-.877.877v9.356a.877.877,0,0,1-.877.877h4.871a.877.877,0,0,0,.877-.877V21.82a.877.877,0,0,1,.877-.877H342.7A.877.877,0,0,0,343.4,19.54Z" transform="translate(-324.277 -7.493)" fill="#3ec3a4"/>
        </g>
        <g id="Grupo_1099894" data-name="Grupo 1099894" transform="translate(75.357 21.049)">
          <path id="Trazado_873647" data-name="Trazado 873647" d="M394.822,107.759v9.356a.877.877,0,0,0,.877.877h2.631a.877.877,0,0,1,.7,1.4l-8.772,11.7a.877.877,0,0,1-1.4,0l-8.772-11.7a.877.877,0,0,1,.7-1.4h2.632a.877.877,0,0,0,.877-.877v-9.356a.877.877,0,0,1,.877-.877h8.772A.877.877,0,0,1,394.822,107.759Z" transform="translate(-379.908 -106.882)" fill="#fd8087"/>
          <path id="Trazado_873648" data-name="Trazado 873648" d="M425.884,119.395l-8.772,11.7a.877.877,0,0,1-1.4,0l-1.734-2.312,7.038-9.384a.877.877,0,0,0-.7-1.4H417.68a.877.877,0,0,1-.877-.877v-9.356a.877.877,0,0,0-.877-.877H420.8a.877.877,0,0,1,.877.877v9.356a.877.877,0,0,0,.877.877h2.632A.878.878,0,0,1,425.884,119.395Z" transform="translate(-406.76 -106.88)" fill="#fe646f"/>
        </g>
        <g id="Grupo_1099895" data-name="Grupo 1099895" transform="translate(49.123 56.197)">
          <path id="Trazado_873649" data-name="Trazado 873649" d="M298.008,321.9H263.182a7.128,7.128,0,0,1-6.378-10.315l17.413-34.811a7.132,7.132,0,0,1,12.756,0l17.413,34.811A7.128,7.128,0,0,1,298.008,321.9Z" transform="translate(-256.042 -272.836)" fill="#ffe177"/>
          <path id="Trazado_873650" data-name="Trazado 873650" d="M386.7,311.6l-17.413-34.811a7.12,7.12,0,0,0-8.813-3.518,7.006,7.006,0,0,1,3.942,3.518L381.827,311.6a7.128,7.128,0,0,1-6.378,10.315h4.871A7.128,7.128,0,0,0,386.7,311.6Z" transform="translate(-338.355 -272.845)" fill="#ffd15b"/>
        </g>
      </g>
      <g id="Grupo_1099906" data-name="Grupo 1099906" transform="translate(16.646 0)">
        <g id="Grupo_1099905" data-name="Grupo 1099905" transform="translate(0 0)">
          <g id="Grupo_1099900" data-name="Grupo 1099900" transform="translate(49.117 56.198)">
            <g id="Grupo_1099899" data-name="Grupo 1099899" transform="translate(24.474 9.681)">
              <path id="Trazado_873651" data-name="Trazado 873651" d="M367.445,444.749a1.663,1.663,0,1,1-1.663-1.663A1.663,1.663,0,0,1,367.445,444.749Z" transform="translate(-364.118 -415.125)"/>
              <g id="Grupo_1099898" data-name="Grupo 1099898" transform="translate(0.099)">
                <g id="Grupo_1099897" data-name="Grupo 1099897">
                  <path id="Línea_572" data-name="Línea 572" d="M-5.912,16.964A1.588,1.588,0,0,1-7.5,15.376V-5.912A1.588,1.588,0,0,1-5.912-7.5,1.588,1.588,0,0,1-4.323-5.912V15.376A1.588,1.588,0,0,1-5.912,16.964Z" transform="translate(7.5 7.5)"/>
                </g>
              </g>
            </g>
            <path id="Trazado_873652" data-name="Trazado 873652" d="M292.109,317.587H268.561a1.588,1.588,0,1,1,0-3.177h23.549a5.539,5.539,0,0,0,4.957-8.015l-17.411-34.807a5.543,5.543,0,0,0-9.913,0L252.331,306.4a5.539,5.539,0,0,0,4.957,8.015h3.873a1.588,1.588,0,0,1,0,3.177h-3.873a8.715,8.715,0,0,1-7.8-12.613L266.9,270.167a8.72,8.72,0,0,1,15.6,0l17.411,34.807a8.715,8.715,0,0,1-7.8,12.613Z" transform="translate(-248.561 -265.349)"/>
          </g>
          <g id="Grupo_1099904" data-name="Grupo 1099904" transform="translate(0 16.145)">
            <g id="Grupo_1099901" data-name="Grupo 1099901" transform="translate(12.518 24.548)">
              <path id="Trazado_873653" data-name="Trazado 873653" d="M108.913,202.333H80.847a5.1,5.1,0,1,1,0-10.193h28.066a5.1,5.1,0,1,1,0,10.193Zm-28.066-7.017a1.92,1.92,0,1,0,0,3.84h28.066a1.92,1.92,0,0,0,0-3.84Z" transform="translate(-75.75 -192.14)"/>
            </g>
            <g id="Grupo_1099902" data-name="Grupo 1099902" transform="translate(9.006 5.995)">
              <path id="Trazado_873654" data-name="Trazado 873654" d="M68.307,126.27a1.586,1.586,0,0,1-1.285-.653,52.085,52.085,0,0,1-7.46-14.654l-.228-.7a3.214,3.214,0,0,1,1.576-3.869,16.557,16.557,0,0,1,9.5-1.739,1.588,1.588,0,1,1-.364,3.156,13.39,13.39,0,0,0-7.686,1.408l.221.77a48.913,48.913,0,0,0,7.005,13.762,1.589,1.589,0,0,1-1.282,2.524Z" transform="translate(-59.172 -104.54)"/>
              <path id="Trazado_873655" data-name="Trazado 873655" d="M216.772,126.27a1.589,1.589,0,0,1-1.282-2.524,48.916,48.916,0,0,0,7.005-13.762l.228-.7a12.955,12.955,0,0,0-7.693-1.473,1.588,1.588,0,1,1-.364-3.156,16.556,16.556,0,0,1,9.5,1.739,3.214,3.214,0,0,1,1.576,3.869l-.228.7a52.088,52.088,0,0,1-7.46,14.654A1.586,1.586,0,0,1,216.772,126.27Z" transform="translate(-180.625 -104.54)"/>
            </g>
            <path id="Trazado_873656" data-name="Trazado 873656" d="M120.734,97.458A1.589,1.589,0,0,1,119.4,95.01a39.629,39.629,0,0,0,5.5-13.142l.237-1.105c-.036.025-.111-.016-.223-.045a42.355,42.355,0,0,0-20.9,0,.549.549,0,0,0-.273.139l.286,1.011a39.63,39.63,0,0,0,5.5,13.142,1.588,1.588,0,0,1-2.672,1.719,42.794,42.794,0,0,1-5.936-14.195l-.26-1.212a3.2,3.2,0,0,1,2.556-3.679,45.584,45.584,0,0,1,22.5,0,3.2,3.2,0,0,1,2.556,3.68l-.26,1.212a42.793,42.793,0,0,1-5.936,14.195A1.587,1.587,0,0,1,120.734,97.458Z" transform="translate(-82.816 -76.233)"/>
            <path id="Trazado_873657" data-name="Trazado 873657" d="M48.2,327.033c-6.048,0-12.1-.231-18.1-.692l-.211-.016-.238-.018a13.173,13.173,0,0,1-8.3-3.813,15.771,15.771,0,0,1-4.24-14.963l1.976-7.9a57.8,57.8,0,0,1,4.727-12.515,1.588,1.588,0,1,1,2.822,1.459A54.616,54.616,0,0,0,22.163,300.4l-1.976,7.9a12.5,12.5,0,0,0,3.277,11.819,10.118,10.118,0,0,0,6.421,3.019l.24.018a234.681,234.681,0,0,0,36.378-.019l.7-.064a1.588,1.588,0,0,1,.371,3.155l-.821.075C60.6,326.79,54.4,327.033,48.2,327.033Z" transform="translate(-16.646 -241.773)"/>
            <path id="Trazado_873658" data-name="Trazado 873658" d="M117.561,257.835a1.589,1.589,0,0,1-1.54-1.2l-1.075-4.3a54.868,54.868,0,0,0-11.01-21.684l-1.832-2.2H75.527l-1.832,2.2c-.963,1.155-1.888,2.364-2.75,3.594a1.588,1.588,0,0,1-2.6-1.824c.912-1.3,1.891-2.58,2.91-3.8l2.308-2.77a1.588,1.588,0,0,1,1.22-.572h28.066a1.588,1.588,0,0,1,1.22.572l2.308,2.77a58.063,58.063,0,0,1,11.651,22.947l1.075,4.3a1.59,1.59,0,0,1-1.542,1.974Z" transform="translate(-57.168 -193.706)"/>
            <g id="Grupo_1099903" data-name="Grupo 1099903" transform="translate(25.627 45.597)">
              <path id="Trazado_873659" data-name="Trazado 873659" d="M143.379,321.606a7.753,7.753,0,0,1-5.009-1.425,1.588,1.588,0,0,1,1.739-2.659,4.8,4.8,0,0,0,3.447.906,2.941,2.941,0,0,0,2.918-2.481,2.268,2.268,0,0,0-1.639-2.66,17.741,17.741,0,0,1-5.092-2.445,4.584,4.584,0,0,1-1.518-4.514,5.149,5.149,0,0,1,3.532-4.036A6.615,6.615,0,0,1,148,303.5a1.588,1.588,0,0,1-2.138,2.349,3.466,3.466,0,0,0-3.192-.51,2,2,0,0,0-1.327,1.582,1.475,1.475,0,0,0,.356,1.426,16.45,16.45,0,0,0,4.19,1.949,5.463,5.463,0,0,1,3.713,6.182,6.15,6.15,0,0,1-6.03,5.131Z" transform="translate(-137.651 -299.771)"/>
              <path id="Línea_573" data-name="Línea 573" d="M-5.912,16.726A1.588,1.588,0,0,1-7.5,15.138V-5.912A1.588,1.588,0,0,1-5.912-7.5,1.588,1.588,0,0,1-4.323-5.912V15.138A1.588,1.588,0,0,1-5.912,16.726Z" transform="translate(11.828 7.5)"/>
            </g>
            <path id="Elipse_11501" data-name="Elipse 11501" d="M19.13,0A19.13,19.13,0,1,1,0,19.13,19.151,19.151,0,0,1,19.13,0Zm0,35.082A15.953,15.953,0,1,0,3.177,19.13,15.971,15.971,0,0,0,19.13,35.082Z" transform="translate(4.594 57.71) rotate(-45)"/>
          </g>
          <path id="Trazado_873660" data-name="Trazado 873660" d="M379.265,99.389h8.771a2.468,2.468,0,0,1,2.465,2.465V110.5h1.92a2.465,2.465,0,0,1,1.973,3.945l-8.771,11.694a2.445,2.445,0,0,1-1.972.986h0a2.445,2.445,0,0,1-1.972-.986l-8.771-11.694a2.465,2.465,0,0,1,1.972-3.945h1.92v-8.644A2.468,2.468,0,0,1,379.265,99.389Zm8.059,3.177h-7.348v8.644a2.468,2.468,0,0,1-2.465,2.465H376.3l7.348,9.8,7.348-9.8h-1.209a2.468,2.468,0,0,1-2.465-2.465Z" transform="translate(-297.065 -78.34)"/>
          <path id="Trazado_873661" data-name="Trazado 873661" d="M305.551,27.735H296.78a2.468,2.468,0,0,1-2.465-2.465V16.625h-1.92a2.466,2.466,0,0,1-1.973-3.945L299.193.987A2.445,2.445,0,0,1,301.166,0h0a2.444,2.444,0,0,1,1.973.987l8.77,11.694a2.465,2.465,0,0,1-1.972,3.945h-1.92v8.644A2.468,2.468,0,0,1,305.551,27.735Zm-8.059-3.177h7.348V15.914a2.468,2.468,0,0,1,2.465-2.465h1.208l-7.348-9.8-7.348,9.8h1.209a2.468,2.468,0,0,1,2.465,2.465Z" transform="translate(-232.049 0)"/>
        </g>
      </g>
    </g>
  </g>
</svg>
