<svg xmlns="http://www.w3.org/2000/svg" width="85" height="85" viewBox="0 0 85 85">
  <g id="_123" data-name="123" transform="translate(-599.66 -1296)">
    <ellipse id="Elipse_11496" data-name="Elipse 11496" cx="42.5" cy="42.5" rx="42.5" ry="42.5" transform="translate(599.66 1296)" fill="#b15815"/>
    <g id="cheque-de-pago_1_" data-name="cheque-de-pago (1)" transform="translate(616.66 1313)">
      <g id="Grupo_1100706" data-name="Grupo 1100706" transform="translate(0.931 0.833)">
        <g id="Grupo_1100684" data-name="Grupo 1100684" transform="translate(2.499 9.996)">
          <path id="Trazado_876692" data-name="Trazado 876692" d="M76.256,104v17.563a4.28,4.28,0,0,0-2.634-.9H68.894a4.3,4.3,0,0,0-4.08,5.66l.342,1.026a1.666,1.666,0,0,0,.271,3.31H67.1a3.656,3.656,0,0,0,2.5,3.332v1.666a5.524,5.524,0,0,0-5.071,3.332H44.787a4.469,4.469,0,0,0-.556-1.142,4.778,4.778,0,0,0,1.2-3.17v-8.184a5.831,5.831,0,0,0-5.831-5.831H36.27a5.8,5.8,0,0,0-3.332,1.045V104Z" transform="translate(-32.938 -104)" fill="#e6e9ed"/>
        </g>
        <g id="Grupo_1100685" data-name="Grupo 1100685" transform="translate(2.499 3.332)">
          <path id="Trazado_876693" data-name="Trazado 876693" d="M74.59,40H34.6a1.666,1.666,0,0,0-1.666,1.666v5H76.256v-5A1.666,1.666,0,0,0,74.59,40Z" transform="translate(-32.938 -40)" fill="#ff826e"/>
        </g>
        <g id="Grupo_1100686" data-name="Grupo 1100686" transform="translate(5.831)">
          <path id="Trazado_876694" data-name="Trazado 876694" d="M68.27,11.332v2.5a.833.833,0,0,1-.833.833H65.771a.833.833,0,0,1-.833-.833v-5A.833.833,0,0,1,65.771,8h1.666a.833.833,0,0,1,.833.833Z" transform="translate(-64.938 -8)" fill="#aab2bd"/>
        </g>
        <g id="Grupo_1100687" data-name="Grupo 1100687" transform="translate(30.822)">
          <path id="Trazado_876695" data-name="Trazado 876695" d="M308.27,11.332v2.5a.833.833,0,0,1-.833.833h-1.666a.833.833,0,0,1-.833-.833v-5A.833.833,0,0,1,305.771,8h1.666a.833.833,0,0,1,.833.833Z" transform="translate(-304.938 -8)" fill="#aab2bd"/>
        </g>
        <g id="Grupo_1100688" data-name="Grupo 1100688" transform="translate(14.162)">
          <path id="Trazado_876696" data-name="Trazado 876696" d="M148.27,11.332v2.5a.833.833,0,0,1-.833.833h-1.666a.833.833,0,0,1-.833-.833v-5A.833.833,0,0,1,145.771,8h1.666a.833.833,0,0,1,.833.833Z" transform="translate(-144.938 -8)" fill="#aab2bd"/>
        </g>
        <g id="Grupo_1100689" data-name="Grupo 1100689" transform="translate(39.153)">
          <path id="Trazado_876697" data-name="Trazado 876697" d="M388.27,11.332v2.5a.833.833,0,0,1-.833.833h-1.666a.833.833,0,0,1-.833-.833v-5A.833.833,0,0,1,385.771,8h1.666a.833.833,0,0,1,.833.833Z" transform="translate(-384.938 -8)" fill="#aab2bd"/>
        </g>
        <g id="Grupo_1100690" data-name="Grupo 1100690" transform="translate(22.492)">
          <path id="Trazado_876698" data-name="Trazado 876698" d="M228.27,11.332v2.5a.833.833,0,0,1-.833.833h-1.666a.833.833,0,0,1-.833-.833v-5A.833.833,0,0,1,225.771,8h1.666a.833.833,0,0,1,.833.833Z" transform="translate(-224.938 -8)" fill="#aab2bd"/>
        </g>
        <g id="Grupo_1100691" data-name="Grupo 1100691" transform="translate(14.162 13.329)">
          <circle id="Elipse_11573" data-name="Elipse 11573" cx="9.996" cy="9.996" r="9.996" fill="#fcd770"/>
        </g>
        <g id="Grupo_1100692" data-name="Grupo 1100692" transform="translate(34.155 26.657)">
          <path id="Trazado_876699" data-name="Trazado 876699" d="M348.6,264.9a4.3,4.3,0,0,1,1.445,4.759l-.342,1.026a1.669,1.669,0,0,0-.271-.022h-1.666v-.833a.832.832,0,0,0-.833-.833,4.023,4.023,0,0,1-2.844-1.178l-.016-.016a1.614,1.614,0,0,0-2.585.42L341.1,269a1.666,1.666,0,0,0-1.666,1.666h-1.666a1.669,1.669,0,0,0-.271.022l-.342-1.026a4.3,4.3,0,0,1,4.08-5.66h4.728A4.28,4.28,0,0,1,348.6,264.9Z" transform="translate(-336.938 -264)" fill="#656d78"/>
        </g>
        <g id="Grupo_1100693" data-name="Grupo 1100693" transform="translate(39.153 43.318)">
          <path id="Trazado_876700" data-name="Trazado 876700" d="M387.437,424l.833,6.664h-3.332l.833-6.664Z" transform="translate(-384.938 -424)" fill="#ffeaa7"/>
        </g>
        <g id="Grupo_1100694" data-name="Grupo 1100694" transform="translate(41.652 41.652)">
          <path id="Trazado_876701" data-name="Trazado 876701" d="M415.267,412.973l.335,3.357h-5.831l-.833-6.664.833-1.666a5.523,5.523,0,0,1,5.5,4.973Z" transform="translate(-408.938 -408)" fill="#b4dd7f"/>
        </g>
        <g id="Grupo_1100695" data-name="Grupo 1100695" transform="translate(33.322 41.652)">
          <path id="Trazado_876702" data-name="Trazado 876702" d="M334.769,408l.833,1.666-.833,6.664h-5.831l.335-3.357a5.52,5.52,0,0,1,5.5-4.973Z" transform="translate(-328.938 -408)" fill="#b4dd7f"/>
        </g>
        <g id="Grupo_1100696" data-name="Grupo 1100696" transform="translate(0 41.917)">
          <path id="Trazado_876703" data-name="Trazado 876703" d="M23.476,414.5l.457,4.117H8.938L9.4,414.5a4.5,4.5,0,0,1,3.731-3.939l.044-.008.16.642a3.2,3.2,0,0,0,6.21,0l.16-.642.044.008a4.5,4.5,0,0,1,3.731,3.939Z" transform="translate(-8.938 -410.55)" fill="#fcd770"/>
        </g>
        <g id="Grupo_1100697" data-name="Grupo 1100697" transform="translate(9.163 34.988)">
          <path id="Trazado_876704" data-name="Trazado 876704" d="M102.769,344v5.684a4.778,4.778,0,0,1-1.2,3.17,4.5,4.5,0,0,0-2.985-1.916l-.044-.008a1.966,1.966,0,0,1-1.6-1.932,3.653,3.653,0,0,0,2.5-3.332H101.1A1.664,1.664,0,0,0,102.769,344Z" transform="translate(-96.938 -344)" fill="#b27946"/>
        </g>
        <g id="Grupo_1100698" data-name="Grupo 1100698" transform="translate(0 34.988)">
          <path id="Trazado_876705" data-name="Trazado 876705" d="M14.769,349a1.966,1.966,0,0,1-1.6,1.932l-.044.008a4.5,4.5,0,0,0-2.985,1.916,4.778,4.778,0,0,1-1.2-3.17V344a1.664,1.664,0,0,0,1.666,1.666h1.669a3.656,3.656,0,0,0,2.5,3.332Z" transform="translate(-8.938 -344)" fill="#b27946"/>
        </g>
        <g id="Grupo_1100699" data-name="Grupo 1100699" transform="translate(0 26.657)">
          <path id="Trazado_876706" data-name="Trazado 876706" d="M23.933,269.831v2.5a1.666,1.666,0,0,0-1.666-1.666H20.6v-.833a.842.842,0,0,0-.8-.832l-.165-.006a4.082,4.082,0,0,1-2.737-1.2,1.585,1.585,0,0,0-1.126-.463h-.032a1.577,1.577,0,0,0-1.412.875l-.394.791a1.666,1.666,0,0,0-1.666,1.666H10.6a1.666,1.666,0,0,0-1.666,1.666v-2.5A5.831,5.831,0,0,1,14.769,264H18.1A5.831,5.831,0,0,1,23.933,269.831Z" transform="translate(-8.938 -264)" fill="#b27946"/>
        </g>
        <g id="Grupo_1100700" data-name="Grupo 1100700" transform="translate(44.981 33.322)">
          <path id="Trazado_876707" data-name="Trazado 876707" d="M440.911,331.332h0c0-.045,0-.09,0-.135V328h1.666a1.666,1.666,0,1,1,0,3.332Z" transform="translate(-440.908 -328)" fill="#f0d0b4"/>
        </g>
        <g id="Grupo_1100701" data-name="Grupo 1100701" transform="translate(36.654 29.989)">
          <path id="Trazado_876708" data-name="Trazado 876708" d="M369.268,299.332v3.2c0,.046,0,.091,0,.135a3.653,3.653,0,0,1-2.5,3.332v1.666l-.833,1.666H364.27l-.833-1.666V306a3.656,3.656,0,0,1-2.5-3.332c0-.045,0-.09,0-.135v-3.2a1.666,1.666,0,0,1,1.666-1.666l.387-.774a1.614,1.614,0,0,1,2.585-.42l.016.016a4.023,4.023,0,0,0,2.844,1.178.832.832,0,0,1,.833.833Z" transform="translate(-360.938 -296)" fill="#f0d0b4"/>
        </g>
        <g id="Grupo_1100702" data-name="Grupo 1100702" transform="translate(33.322 33.322)">
          <path id="Trazado_876709" data-name="Trazado 876709" d="M332.27,331.332H330.6a1.666,1.666,0,1,1,0-3.332h1.666v3.2c0,.046,0,.091,0,.135Z" transform="translate(-328.938 -328)" fill="#f0d0b4"/>
        </g>
        <g id="Grupo_1100703" data-name="Grupo 1100703" transform="translate(11.659 33.322)">
          <path id="Trazado_876710" data-name="Trazado 876710" d="M120.911,331.2V328h1.666a1.666,1.666,0,1,1,0,3.332h-1.669C120.91,331.287,120.911,331.243,120.911,331.2Z" transform="translate(-120.908 -328)" fill="#f0d0b4"/>
        </g>
        <g id="Grupo_1100704" data-name="Grupo 1100704" transform="translate(3.332 29.989)">
          <path id="Trazado_876711" data-name="Trazado 876711" d="M49.268,299.332v3.2c0,.046,0,.091,0,.135a3.653,3.653,0,0,1-2.5,3.332,1.966,1.966,0,0,0,1.6,1.932l-.16.642a3.2,3.2,0,0,1-6.21,0l-.16-.642a1.966,1.966,0,0,0,1.6-1.932,3.656,3.656,0,0,1-2.5-3.332c0-.045,0-.09,0-.135v-3.2a1.666,1.666,0,0,1,1.666-1.666l.394-.791A1.577,1.577,0,0,1,44.41,296h.032a1.585,1.585,0,0,1,1.126.463,4.082,4.082,0,0,0,2.737,1.2l.165.006a.842.842,0,0,1,.8.832Z" transform="translate(-40.938 -296)" fill="#f0d0b4"/>
        </g>
        <g id="Grupo_1100705" data-name="Grupo 1100705" transform="translate(0 33.322)">
          <path id="Trazado_876712" data-name="Trazado 876712" d="M12.27,331.2c0,.046,0,.091,0,.135H10.6a1.666,1.666,0,1,1,0-3.332H12.27Z" transform="translate(-8.938 -328)" fill="#f0d0b4"/>
        </g>
      </g>
      <g id="Grupo_1100707" data-name="Grupo 1100707" transform="translate(0 0)">
        <path id="Trazado_876713" data-name="Trazado 876713" d="M33.332,51.648H50.167l-.427-4.273a6.334,6.334,0,0,0-5.491-5.67v-.33a4.481,4.481,0,0,0,2.394-3.055h.939a2.5,2.5,0,0,0,1.31-4.626l.093-.279a5.127,5.127,0,0,0-1.4-5.4V5.831a2.5,2.5,0,0,0-2.5-2.5h-.833V1.666A1.668,1.668,0,0,0,42.583,0H40.917a1.668,1.668,0,0,0-1.666,1.666V3.332H35.918V1.666A1.668,1.668,0,0,0,34.252,0H32.586A1.668,1.668,0,0,0,30.92,1.666V3.332H27.588V1.666A1.668,1.668,0,0,0,25.922,0H24.256A1.668,1.668,0,0,0,22.59,1.666V3.332H19.258V1.666A1.668,1.668,0,0,0,17.592,0H15.925a1.668,1.668,0,0,0-1.666,1.666V3.332H10.927V1.666A1.668,1.668,0,0,0,9.261,0H7.6A1.668,1.668,0,0,0,5.929,1.666V3.332H5.1a2.5,2.5,0,0,0-2.5,2.5V28.125a6.653,6.653,0,0,0-2.5,5.2v8.184a5.606,5.606,0,0,0,1.03,3.239A5.288,5.288,0,0,0,.56,46.606L0,51.648H16.856l-.555-5H33.875a6.478,6.478,0,0,0-.116.725Zm8.515-6.664.625,5H41.027l.625-5Zm-2.265-1.639.476.953-.711,5.684H35.173l.244-2.441A4.673,4.673,0,0,1,39.582,43.345Zm8.5,4.2.244,2.441H44.151L43.44,44.3l.476-.953A4.673,4.673,0,0,1,48.082,47.541Zm-3-14.22v4.03a2.818,2.818,0,0,1-1.929,2.677l-.57.19v2.07l-.515,1.03h-.636l-.515-1.03v-2.07l-.57-.19a2.818,2.818,0,0,1-1.929-2.677v-3.2a.834.834,0,0,1,.833-.833h.515l.617-1.234a.781.781,0,0,1,1.251-.2l.015.015a4.818,4.818,0,0,0,3.429,1.421h0s0,0,0,0Zm0-1.666a3.168,3.168,0,0,1-2.255-.934l-.015-.015a2.447,2.447,0,0,0-3.919.636l-.187.373a2.508,2.508,0,0,0-1.811,1.606h-.654l-.145-.434a3.467,3.467,0,0,1,3.289-4.564h4.728A3.467,3.467,0,0,1,47.4,32.887l-.145.435h-.51A1.668,1.668,0,0,0,45.082,31.655Zm-8.33,5h-.833a.833.833,0,1,1,0-1.666h.833Zm10.829,0h-.833V34.988h.833a.833.833,0,1,1,0,1.666ZM40.916,1.666h1.666v5H40.916Zm-8.33,0h1.666v5H32.586Zm-8.33,0h1.666v5H24.256Zm-8.33,0h1.666v5H15.925Zm-8.33,0H9.261v5H7.595ZM5.1,5h.833V6.664A1.668,1.668,0,0,0,7.595,8.33H9.261a1.668,1.668,0,0,0,1.666-1.666V5h3.332V6.664A1.668,1.668,0,0,0,15.925,8.33h1.666a1.668,1.668,0,0,0,1.666-1.666V5H22.59V6.664A1.668,1.668,0,0,0,24.256,8.33h1.666a1.668,1.668,0,0,0,1.666-1.666V5H30.92V6.664A1.668,1.668,0,0,0,32.586,8.33h1.666a1.668,1.668,0,0,0,1.666-1.666V5H39.25V6.664A1.668,1.668,0,0,0,40.916,8.33h1.666a1.668,1.668,0,0,0,1.666-1.666V5h.833a.834.834,0,0,1,.833.833V10H4.263V5.831A.834.834,0,0,1,5.1,5ZM6.762,28.323h3.332a5,5,0,0,1,5,5v.143a2.488,2.488,0,0,0-.833-.143h-.833a1.68,1.68,0,0,0-1.6-1.664l-.164-.006a3.25,3.25,0,0,1-2.18-.954,2.4,2.4,0,0,0-1.714-.708H7.735a2.4,2.4,0,0,0-2.158,1.336l-.194.39a2.508,2.508,0,0,0-1.81,1.606H2.6a2.488,2.488,0,0,0-.833.143v-.143a5,5,0,0,1,5-5Zm7.888,15a5.315,5.315,0,0,0-2.775-1.383,1.131,1.131,0,0,1-.833-.62,4.48,4.48,0,0,0,2.279-3h.939a2.488,2.488,0,0,0,.833-.143v3.329a3.944,3.944,0,0,1-.443,1.815Zm-12.443,0a3.943,3.943,0,0,1-.443-1.815V38.176a2.488,2.488,0,0,0,.833.143h.939a4.48,4.48,0,0,0,2.279,3,1.13,1.13,0,0,1-.833.62A5.315,5.315,0,0,0,2.207,43.32ZM3.43,36.654H2.6a.833.833,0,0,1,0-1.666H3.43Zm3.6,3.375A2.818,2.818,0,0,1,5.1,37.352v-3.2a.834.834,0,0,1,.833-.833h.516l.624-1.253a.74.74,0,0,1,.666-.413h.032a.75.75,0,0,1,.535.219A4.912,4.912,0,0,0,11.6,33.316l.156,0a.022.022,0,0,1,.007.007v4.024a2.818,2.818,0,0,1-1.929,2.677l-.57.19v.6A2.789,2.789,0,0,0,10.7,43.267a2.365,2.365,0,0,1-4.549,0,2.789,2.789,0,0,0,1.441-2.448v-.6Zm6.4-5.041h.833a.833.833,0,0,1,0,1.666h-.833ZM1.861,49.982l.355-3.192a3.681,3.681,0,0,1,2.346-3.022,4.034,4.034,0,0,0,7.731,0A3.681,3.681,0,0,1,14.64,46.79l.355,3.192Zm13.983-5c-.037-.081-.076-.161-.117-.24a5.606,5.606,0,0,0,1.03-3.239V33.322a6.672,6.672,0,0,0-6.664-6.664H6.762a6.625,6.625,0,0,0-2.5.488V11.663H45.915V26.984a5.107,5.107,0,0,0-1.8-.327H39.386a5.134,5.134,0,0,0-4.87,6.757l.093.279a2.5,2.5,0,0,0,1.31,4.626h.939a4.481,4.481,0,0,0,2.394,3.055v.33a6.33,6.33,0,0,0-4.762,3.279Z" transform="translate(0 0)"/>
        <path id="Trazado_876714" data-name="Trazado 876714" d="M382.369,354.587a1.178,1.178,0,0,1-1.666,0l-.244-.244-1.178,1.178.244.244a2.844,2.844,0,0,0,4.022,0l.244-.244-1.178-1.178Z" transform="translate(-339.787 -317.445)"/>
        <path id="Trazado_876715" data-name="Trazado 876715" d="M63.548,355.765l.244-.244-1.178-1.178-.244.244a1.178,1.178,0,0,1-1.666,0l-.244-.244-1.178,1.178.244.244a2.844,2.844,0,0,0,4.022,0Z" transform="translate(-53.109 -317.445)"/>
        <path id="Trazado_876716" data-name="Trazado 876716" d="M184.938,384H186.6v1.666h-1.666Z" transform="translate(-165.68 -344.014)"/>
        <path id="Trazado_876717" data-name="Trazado 876717" d="M232.938,384H234.6v1.666h-1.666Z" transform="translate(-208.682 -344.014)"/>
        <path id="Trazado_876718" data-name="Trazado 876718" d="M280.938,384H282.6v1.666h-1.666Z" transform="translate(-251.684 -344.014)"/>
        <path id="Trazado_876719" data-name="Trazado 876719" d="M147.768,128A10.829,10.829,0,1,0,158.6,138.829,10.842,10.842,0,0,0,147.768,128Zm0,19.993a9.163,9.163,0,1,1,9.163-9.163,9.174,9.174,0,0,1-9.163,9.163Z" transform="translate(-122.679 -114.671)"/>
        <path id="Trazado_876720" data-name="Trazado 876720" d="M205.936,163.332A1.668,1.668,0,0,1,207.6,165h1.666a3.336,3.336,0,0,0-3.332-3.332V160H204.27v1.666h-3.332V165a3.336,3.336,0,0,0,3.332,3.332h1.666A1.668,1.668,0,0,1,207.6,170v1.666H204.27A1.668,1.668,0,0,1,202.6,170h-1.666a3.336,3.336,0,0,0,3.332,3.332v1.666h1.666v-1.666h3.332V170a3.336,3.336,0,0,0-3.332-3.332H204.27A1.668,1.668,0,0,1,202.6,165v-1.666Z" transform="translate(-180.014 -143.339)"/>
      </g>
    </g>
  </g>
</svg>
