<svg xmlns="http://www.w3.org/2000/svg" width="85" height="85" viewBox="0 0 85 85">
  <g id="_124" data-name="124" transform="translate(-914.66 -1296)">
    <ellipse id="Elipse_11496" data-name="Elipse 11496" cx="42.5" cy="42.5" rx="42.5" ry="42.5" transform="translate(914.66 1296)" fill="#b15815"/>
    <g id="dinero_3_" data-name="dinero (3)" transform="translate(925.66 1307)">
      <g id="Grupo_1100723" data-name="Grupo 1100723" transform="translate(1.019 1.019)">
        <g id="Grupo_1100709" data-name="Grupo 1100709" transform="translate(4.075)">
          <path id="Trazado_876721" data-name="Trazado 876721" d="M97.044,33.466v6.112l-2.314.772a26.345,26.345,0,0,1-4.97,12l1.09,2.181-4.322,4.322-2.181-1.09a27.8,27.8,0,0,1-3.681,2.311h0a35.357,35.357,0,0,0-.562-4.361A22.407,22.407,0,0,0,90.841,38.559q.092-1.007.092-2.037t-.092-2.037A22.415,22.415,0,0,0,70.559,14.2q-1.007-.092-2.037-.092t-2.037.092A22.412,22.412,0,0,0,46.112,36.522H40V33.466l2.314-.772a26.345,26.345,0,0,1,4.97-12l-1.09-2.181,4.322-4.322,2.181,1.09a26.345,26.345,0,0,1,12-4.97L65.466,8h6.112l.772,2.314a26.345,26.345,0,0,1,12,4.97l2.181-1.09,4.322,4.322L89.761,20.7a26.345,26.345,0,0,1,4.97,12Z" transform="translate(-40 -8)" fill="#fcd770"/>
        </g>
        <g id="Grupo_1100710" data-name="Grupo 1100710" transform="translate(10.186 6.204)">
          <path id="Trazado_876722" data-name="Trazado 876722" d="M132.729,77h-3.983a2.037,2.037,0,1,0,0,4.075h3.983a22.407,22.407,0,0,1-10.737,17.152,35.843,35.843,0,0,0-1.679-5.926h0a2.036,2.036,0,0,0-1.753-3.075,2.037,2.037,0,1,0,0-4.075,2.037,2.037,0,1,0,0-4.075h-5.093a3.057,3.057,0,0,0,3.056-3.056,1.027,1.027,0,0,0-.085-.41l2.6-3.038a2.23,2.23,0,0,0-1.694-3.682h-.3a2.226,2.226,0,0,0-1,.236l-1.566.783-.052-.157a4.24,4.24,0,0,0-8.045,0l-.052.157-1.548-.774a2.322,2.322,0,0,0-1.035-.244h-.195a2.313,2.313,0,0,0-2.2,3.02,2.283,2.283,0,0,0,.321.639L103.425,77h-3.8a6.1,6.1,0,0,0-2.733.646l-2.785,1.392H88A22.319,22.319,0,0,1,93.189,64.7L96,67.514a2.038,2.038,0,1,0,2.882-2.882L96.07,61.817a22.305,22.305,0,0,1,12.3-5.1h0V60.7a2.037,2.037,0,1,0,4.075,0V56.721h0a22.305,22.305,0,0,1,12.3,5.1l-2.815,2.815a2.038,2.038,0,1,0,2.882,2.882l2.815-2.815A22.305,22.305,0,0,1,132.729,77Z" transform="translate(-88 -56.72)" fill="#e6e9ed"/>
        </g>
        <g id="Grupo_1100711" data-name="Grupo 1100711" transform="translate(23.429 18.336)">
          <path id="Trazado_876723" data-name="Trazado 876723" d="M210.336,156.268a2.231,2.231,0,0,1-.537,1.452l-2.6,3.038a1.07,1.07,0,0,0-.213-.311,1.02,1.02,0,0,0-.721-.3H194.182l-1.751-2.452a2.283,2.283,0,0,1-.321-.639,2.313,2.313,0,0,1,2.2-3.02h.195a2.322,2.322,0,0,1,1.035.244l1.548.774.052-.157a4.24,4.24,0,0,1,8.045,0l.052.157,1.566-.783a2.226,2.226,0,0,1,1-.236h.3a2.23,2.23,0,0,1,2.231,2.231Z" transform="translate(-192 -152)" fill="#48cfad"/>
        </g>
        <g id="Grupo_1100712" data-name="Grupo 1100712" transform="translate(20.373 30.559)">
          <path id="Trazado_876724" data-name="Trazado 876724" d="M169.576,260.224a35.7,35.7,0,0,1,3.8-8.363h0A4.078,4.078,0,0,0,176.149,248h6.112a2.037,2.037,0,1,0,0,4.075H184.3a2.037,2.037,0,1,0,0,4.075h1.019a2.037,2.037,0,1,0,0,4.075h3.056a2.038,2.038,0,0,0,1.753-1,35.843,35.843,0,0,1,1.68,5.926,35.359,35.359,0,0,1,.562,4.361q.08,1.184.08,2.379v.556a6.112,6.112,0,0,1-6.112,6.112H174.112A6.112,6.112,0,0,1,168,272.448v-1.733A35.693,35.693,0,0,1,169.576,260.224Z" transform="translate(-168 -248)" fill="#5cd6b3"/>
        </g>
        <g id="Grupo_1100713" data-name="Grupo 1100713" transform="translate(48.895 26.485)">
          <path id="Trazado_876725" data-name="Trazado 876725" d="M398.112,218.037q0,1.029-.092,2.037h-3.983a2.037,2.037,0,0,1,0-4.075h3.983Q398.112,217.007,398.112,218.037Z" transform="translate(-392 -216)" fill="#ff826e"/>
        </g>
        <g id="Grupo_1100714" data-name="Grupo 1100714" transform="translate(43.525 11.301)">
          <path id="Trazado_876726" data-name="Trazado 876726" d="M356.116,99.631l-2.815,2.815a2.038,2.038,0,0,1-2.882-2.882l2.815-2.815A22.48,22.48,0,0,1,356.116,99.631Z" transform="translate(-349.823 -96.75)" fill="#ff826e"/>
        </g>
        <g id="Grupo_1100715" data-name="Grupo 1100715" transform="translate(30.559 6.112)">
          <path id="Trazado_876727" data-name="Trazado 876727" d="M252.075,56.093v3.982a2.037,2.037,0,1,1-4.075,0V56.093h0Q249.007,56,250.037,56t2.037.092Z" transform="translate(-248 -56)" fill="#ff826e"/>
        </g>
        <g id="Grupo_1100716" data-name="Grupo 1100716" transform="translate(15.375 11.301)">
          <path id="Trazado_876728" data-name="Trazado 876728" d="M134.447,99.565a2.038,2.038,0,1,1-2.882,2.882l-2.815-2.815a22.483,22.483,0,0,1,2.882-2.882Z" transform="translate(-128.75 -96.75)" fill="#ff826e"/>
        </g>
        <g id="Grupo_1100717" data-name="Grupo 1100717" transform="translate(0 28.522)">
          <path id="Trazado_876729" data-name="Trazado 876729" d="M18.186,237.093l-2.037,2.037v5.093H8V232h8.149v3.056Z" transform="translate(-8 -232)" fill="#ff826e"/>
        </g>
        <g id="Grupo_1100718" data-name="Grupo 1100718" transform="translate(8.149 28.522)">
          <path id="Trazado_876730" data-name="Trazado 876730" d="M80.149,232v12.224H72v-5.093l2.037-2.037L72,235.056V232h8.149Z" transform="translate(-72 -232)" fill="#fc6e51"/>
        </g>
        <g id="Grupo_1100719" data-name="Grupo 1100719" transform="translate(35.653 38.709)">
          <path id="Trazado_876731" data-name="Trazado 876731" d="M293.093,312a2.037,2.037,0,0,1,1.753,3.075h0a2.038,2.038,0,0,1-1.753,1h-3.056a2.037,2.037,0,0,1,0-4.075Z" transform="translate(-288 -312)" fill="#f0d0b4"/>
        </g>
        <g id="Grupo_1100720" data-name="Grupo 1100720" transform="translate(34.634 34.634)">
          <path id="Trazado_876732" data-name="Trazado 876732" d="M286.112,280a2.037,2.037,0,0,1,0,4.075h-4.075a2.037,2.037,0,0,1,0-4.075Z" transform="translate(-280 -280)" fill="#f0d0b4"/>
        </g>
        <g id="Grupo_1100721" data-name="Grupo 1100721" transform="translate(32.597 30.559)">
          <path id="Trazado_876733" data-name="Trazado 876733" d="M273.591,248.6a2.038,2.038,0,0,1-1.441,3.479h-6.112a2.037,2.037,0,0,1,0-4.075h6.112A2.036,2.036,0,0,1,273.591,248.6Z" transform="translate(-264 -248)" fill="#f0d0b4"/>
        </g>
        <g id="Grupo_1100722" data-name="Grupo 1100722" transform="translate(16.298 26.485)">
          <path id="Trazado_876734" data-name="Trazado 876734" d="M145.456,223.935a35.7,35.7,0,0,0-3.8,8.363h-.134a6.1,6.1,0,0,1-2.733-.646L136,230.261V218.037l2.785-1.392a6.1,6.1,0,0,1,2.733-.646h15.874a1.021,1.021,0,0,1,.721.3,1.07,1.07,0,0,1,.213.311,1.027,1.027,0,0,1,.085.41,3.057,3.057,0,0,1-3.056,3.056h-7.131a4.078,4.078,0,0,1-2.767,3.861Z" transform="translate(-136 -216)" fill="#f0d0b4"/>
        </g>
      </g>
      <g id="Grupo_1100724" data-name="Grupo 1100724" transform="translate(0 0)">
        <path id="Trazado_876735" data-name="Trazado 876735" d="M235.056,356.075h2.037a1.02,1.02,0,0,1,1.019,1.019h2.037a3.06,3.06,0,0,0-3.056-3.056V352h-2.037v2.037a3.056,3.056,0,1,0,0,6.112h2.037a1.019,1.019,0,1,1,0,2.037h-2.037a1.02,1.02,0,0,1-1.019-1.019H232a3.06,3.06,0,0,0,3.056,3.056v2.037h2.037v-2.037a3.056,3.056,0,1,0,0-6.112h-2.037a1.019,1.019,0,1,1,0-2.037Z" transform="translate(-202.459 -307.179)"/>
        <path id="Trazado_876736" data-name="Trazado 876736" d="M60.734,24.943a27.5,27.5,0,0,0-4.692-11.327l1.142-2.284-5.36-5.36L49.54,7.114A27.494,27.494,0,0,0,38.213,2.422L37.406,0h-7.58l-.807,2.422A27.5,27.5,0,0,0,17.691,7.114L15.407,5.972l-5.36,5.36,1.142,2.284A27.5,27.5,0,0,0,6.5,24.943l-2.422.807v2.771H0V42.783H17.076l2.569,1.285a7.154,7.154,0,0,0,2,.65,36.726,36.726,0,0,0-1.269,9.574v1.733A7.139,7.139,0,0,0,27.5,63.156H39.727a7.139,7.139,0,0,0,7.131-7.131v-.557q0-.9-.044-1.789a28.805,28.805,0,0,0,2.726-1.713l2.284,1.142,5.36-5.36-1.142-2.284a27.5,27.5,0,0,0,4.692-11.327l2.422-.807v-7.58Zm-58.7,5.616H8.149v2.459l1.615,1.615L8.149,36.25v4.5H2.037Zm17.2-16.841,2.137,2.137A1.019,1.019,0,0,1,19.93,17.3l-2.137-2.137q.686-.754,1.44-1.44Zm-2.744,3.018,2,2a3.056,3.056,0,1,0,4.322-4.322l-2-2a21.285,21.285,0,0,1,9.748-4.046v2.837a3.056,3.056,0,1,0,6.112,0V8.368a21.285,21.285,0,0,1,9.748,4.046l-2,2a3.056,3.056,0,0,0,4.322,4.322l2-2a21.285,21.285,0,0,1,4.046,9.748H51.951a3.056,3.056,0,1,0,0,6.112h2.839a21.193,21.193,0,0,1-8.906,14.471,36.79,36.79,0,0,0-1.264-4.217,3.049,3.049,0,0,0-.58-3.124,3.049,3.049,0,0,0,0-4.075,3.054,3.054,0,0,0-2.275-5.093H40.2a4.049,4.049,0,0,0,.548-2.037c0-.042,0-.084-.006-.125l2.28-2.66a3.249,3.249,0,0,0-2.467-5.364h-.3a3.266,3.266,0,0,0-1.453.343l-.6.3a5.26,5.26,0,0,0-9.168,0l-.583-.292a3.348,3.348,0,0,0-1.491-.352h-.2a3.333,3.333,0,0,0-2.712,5.27l.6.842H22.834a7.167,7.167,0,0,0-3.189.753l-2.569,1.285H12.249a21.275,21.275,0,0,1,4.241-11.786ZM32.6,8.174c.338-.016.677-.025,1.019-.025s.681.009,1.019.025v3.031a1.019,1.019,0,1,1-2.037,0Zm16.841,6.985L47.3,17.3a1.019,1.019,0,1,1-1.441-1.44L48,13.719Q48.751,14.4,49.438,15.159Zm5.569,14.382c0,.341-.011.68-.026,1.019h-3.03a1.019,1.019,0,1,1,0-2.037h3.031C55,28.86,55.007,29.2,55.007,29.541ZM35.653,32.6h6.112a1.019,1.019,0,0,1,0,2.037H35.653a1.019,1.019,0,0,1,0-2.037Zm-8.5-6.112-1.447-2.026a1.3,1.3,0,0,1,1.054-2.049h.2a1.3,1.3,0,0,1,.579.137l2.6,1.3.424-1.271a3.221,3.221,0,0,1,6.112,0l.424,1.271,2.617-1.308a1.217,1.217,0,0,1,.542-.128h.3a1.212,1.212,0,0,1,.92,2l-1.931,2.253a2.022,2.022,0,0,0-.833-.18Zm14.61,10.186a1.019,1.019,0,0,1,0,2.037H37.69a1.019,1.019,0,0,1,0-2.037Zm-3.056,4.075h3.056a1.019,1.019,0,0,1,0,2.037H38.709a1.019,1.019,0,1,1,0-2.037ZM10.186,32.175V30.559H16.3V40.746H10.186V37.093l2.459-2.459Zm10.37,10.071-2.221-1.11V30.17l2.221-1.111a5.119,5.119,0,0,1,2.278-.538H38.709a2.04,2.04,0,0,1-2.037,2.037H28.522v1.019a3.059,3.059,0,0,1-3.056,3.056H22.41v2.037h2.466a36.706,36.706,0,0,0-2.642,6.076A5.121,5.121,0,0,1,20.557,42.246Zm24.264,13.78a5.1,5.1,0,0,1-5.093,5.093H27.5a5.1,5.1,0,0,1-5.093-5.093V54.292a34.662,34.662,0,0,1,5.054-18.03A5.112,5.112,0,0,0,30.457,32.6h2.315a3.054,3.054,0,0,0,2.078,3.967,3.05,3.05,0,0,0,1.2,3.7,3.054,3.054,0,0,0,2.661,4.556h3.056a3.038,3.038,0,0,0,1.287-.285,34.552,34.552,0,0,1,1.769,10.934Zm16.3-24.163-2.213.738-.09.622a25.439,25.439,0,0,1-4.778,11.535l-.376.5,1.043,2.087L51.422,50.63l-2.087-1.043-.5.375c-.694.518-1.437,1.015-2.2,1.47q-.122-1.109-.312-2.207a23.43,23.43,0,1,0-36.113-20.7h-4.1v-1.3l2.213-.738.09-.622a25.44,25.44,0,0,1,4.778-11.535l.376-.5-1.043-2.087,3.283-3.283L17.9,9.494l.5-.375A25.439,25.439,0,0,1,29.934,4.34l.622-.09.738-2.213h4.644l.738,2.213.622.09A25.439,25.439,0,0,1,48.832,9.119l.5.375,2.087-1.043,3.283,3.283-1.043,2.087.376.5A25.441,25.441,0,0,1,58.816,25.86l.09.622,2.213.738Z" transform="translate(0 0)"/>
      </g>
    </g>
  </g>
</svg>
