<svg xmlns="http://www.w3.org/2000/svg" xmlns:xlink="http://www.w3.org/1999/xlink" width="295" height="221.534" viewBox="0 0 295 221.534">
  <defs>
    <clipPath id="clip-path">
      <rect id="Rectángulo_402039" data-name="Rectángulo 402039" width="270.732" height="219.534" fill="none"/>
    </clipPath>
  </defs>
  <g id="_129" data-name="129" transform="translate(-179.66 -2277)">
    <rect id="Rectángulo_401518" data-name="Rectángulo 401518" width="295" height="221.534" rx="12" transform="translate(179.66 2277)" fill="#b15815"/>
    <g id="Grupo_1100787" data-name="Grupo 1100787" transform="translate(191.66 2279)">
      <g id="Grupo_1100786" data-name="Grupo 1100786" clip-path="url(#clip-path)">
        <path id="Trazado_876813" data-name="Trazado 876813" d="M270.732,278.645V220.066s-1.134-35.952-27.713-35.952-22.228,37.363-43.865,37.278-16.489-91.51-46.147-91.51-32.1,105.724-55.941,105.724-19.407-57.475-40.4-57S40.6,221.408,23.886,221.408s-9-49.532-23.886-48.472V278.645Z" transform="translate(0 -59.555)" fill="#dfbba0"/>
        <path id="Trazado_876814" data-name="Trazado 876814" d="M268.725,133.743c-1.844-1.568-39.929,3.225-40.9,5.606s8.506,11.492,8.506,11.492-36.582,25.953-39.367,27.378-36.884-2.2-43.141,0-32.877,31.565-32.877,31.565-32.356-1.518-35.523,0c-2.406,1.153-20.133,17.482-28.511,26.136-5.689-.255-30.616-1.291-33.419.053-3.166,1.518-2.779,16.413-.087,16.832s35.625,2.28,41.137-.006c2.211-.293,26.656-25.108,28.454-26.118s29.465,1.923,34.976-.363,32.877-31.565,32.877-31.565,40.787,1.29,43.141,0,44.336-32.221,44.336-32.221,10.026,9.941,11.589,9.752,10.655-36.975,8.811-38.543" transform="translate(-9.744 -61.184)" fill="#e8615b"/>
        <rect id="Rectángulo_401822" data-name="Rectángulo 401822" width="0.541" height="16.787" transform="translate(226.384 89.812) rotate(-45.668)" fill="#c63939"/>
        <path id="Trazado_876815" data-name="Trazado 876815" d="M193.805,109.677c-6-7.939-21.649-23.607-30.5-27.957-8.767-5.11-17.226,6.393-9.78,14.777,6.454,7.247,21.969,19.491,30.828,24.055,6.988,4.258,14.789-3.2,9.447-10.875" transform="translate(-69.088 -36.892)" fill="#fff"/>
        <path id="Trazado_876816" data-name="Trazado 876816" d="M221.127,116.855c5.7-8.406,13.208-31.493,13.208-31.493,1.667-5.225-4.839-9.093-8.294-3.443,0,0-15.251,19.394-17.568,28.5-1.875,8.125,7.429,13.184,12.653,6.432" transform="translate(-95.48 -36.286)" fill="#b2694d"/>
        <path id="Trazado_876817" data-name="Trazado 876817" d="M241.9,80.74c2.172,3.646,7.124,1.653,7.763,1.516a6.287,6.287,0,0,0,3.948-2.029c.639-.4,2.808-1.859,1.831-3.55a1.461,1.461,0,0,0-.476-2.447c.376-.583-.185-2.073-.977-1.934.067-1.324-.978-1.426-.978-1.426a1.982,1.982,0,0,0,.815-2.446l-1.72.178c-6.1-.229-8.04,3.349-9.411,5.84-1.048,1.625-2.1,4.1-.8,6.3" transform="translate(-110.642 -31.375)" fill="#b2694d"/>
        <rect id="Rectángulo_401823" data-name="Rectángulo 401823" width="1.712" height="0.542" transform="translate(136.385 51.216) rotate(-11.367)" fill="#8c4731"/>
        <path id="Trazado_876818" data-name="Trazado 876818" d="M135.138,5.078A16.763,16.763,0,0,0,125.053.114c-12.479-1.3-26.346,8.642-24.009,22.489,2.041,12.088,15,19.672,25.963,15,6.028-2.57,11.61-7.615,13.393-14.219,1.755-6.5-.6-13.653-5.261-18.306" transform="translate(-46.213 0)" fill="#162e4c"/>
        <path id="Trazado_876819" data-name="Trazado 876819" d="M156.643,395.991a7.338,7.338,0,0,0-4.2-5.1c-2.548-1.325-10.754-2.781-13.161-5.1-2.578.828-5.677.91-10.647,0-2.525,4.378-1.761,10.194-1.761,10.194Z" transform="translate(-58.124 -176.902)" fill="#162e4c"/>
        <path id="Trazado_876820" data-name="Trazado 876820" d="M41.284,395.991a7.337,7.337,0,0,1,4.2-5.1c2.548-1.325,10.753-2.781,13.161-5.1,2.578.828,5.677.91,10.647,0,2.525,4.378,1.761,10.194,1.761,10.194Z" transform="translate(-18.93 -176.902)" fill="#162e4c"/>
        <path id="Trazado_876821" data-name="Trazado 876821" d="M83.2,182.489c-14.049,26.425-19.812,108.89-17.025,111.574s12.99,1.831,15.212.363,20.643-88.339,20.643-88.339-4.944,86.021-3.051,87.679,12.977,1.5,14.684-.158,18.645-79.478,8.368-111.12Z" transform="translate(-30.029 -83.678)" fill="#7db6f9"/>
        <rect id="Rectángulo_401824" data-name="Rectángulo 401824" width="8.677" height="0.542" transform="matrix(0.863, -0.506, 0.506, 0.863, 71.861, 122.179)" fill="#3e7edb"/>
        <path id="Trazado_876822" data-name="Trazado 876822" d="M62.158,128.1c6.926-7.145,18.745-23.08,21.689-32.488,3.707-9.447-5.733-16.694-12.053-11.762s-18.676,27.127-21.83,36.58c-3.137,7.557,5.433,14.123,12.193,7.67" transform="translate(-22.604 -37.717)" fill="#fff"/>
        <path id="Trazado_876823" data-name="Trazado 876823" d="M124.366,56.912l-1.434,15.913c8.513,6.214,15.065,11.17,13.719.036l-1.02-9.986Z" transform="translate(-56.369 -26.096)" fill="#b2694d"/>
        <path id="Trazado_876824" data-name="Trazado 876824" d="M124.962,56.912l-.73,8.1c4.2,3.676,8.937,2.865,12.2-.1l-.208-2.036Z" transform="translate(-56.965 -26.096)" fill="#96513c"/>
        <path id="Trazado_876825" data-name="Trazado 876825" d="M90.4,81.9c5.3-4.032,18.015-3.889,18.015-3.889,4.747,3.423,11.562,3.735,12.8.169,4.477.388,13.264.18,16.776,4.4,2.365,2.839-3.1,16.919-2.97,29.334.142,13.383,2.038,26.187-.574,27.23-3.133,2.789-36.142,2.524-41.664-.811-2.1-1.047.617-13.2.959-26.545C94.044,99.819,88.113,84.65,90.4,81.9" transform="translate(-41.21 -35.772)" fill="#fff"/>
        <path id="Trazado_876826" data-name="Trazado 876826" d="M94.723,124.05a89.106,89.106,0,0,0-2.1-14.95l.528-.12a89.629,89.629,0,0,1,2.116,15.041Z" transform="translate(-42.469 -49.971)" fill="#dae9f7"/>
        <path id="Trazado_876827" data-name="Trazado 876827" d="M174.127,117.506l-.538-.054a82.645,82.645,0,0,1,1.946-11.361l.525.129a82.39,82.39,0,0,0-1.933,11.286" transform="translate(-79.597 -48.646)" fill="#dae9f7"/>
        <path id="Trazado_876828" data-name="Trazado 876828" d="M122.538,71.874l-2,3.325s2.214,5.9,4.816,7.752l4.75-5.05,4.463,4.612a11.874,11.874,0,0,0,1.872-7.059l-1.648-3.2A8.115,8.115,0,0,1,130.1,77.9a13.443,13.443,0,0,1-7.565-6.027" transform="translate(-55.271 -32.957)" fill="#fff"/>
        <path id="Trazado_876829" data-name="Trazado 876829" d="M125.139,85.955a.266.266,0,0,1-.157-.05c-2.639-1.881-4.821-7.632-4.912-7.877l.506-.19c.022.057,2.11,5.561,4.537,7.488l4.586-4.635a.27.27,0,0,1,.382,0l4.211,4.121a11.308,11.308,0,0,0,1.662-6.6l.539-.042a12.011,12.011,0,0,1-1.908,7.217.271.271,0,0,1-.423.056l-4.268-4.177-4.563,4.612a.268.268,0,0,1-.192.08" transform="translate(-55.056 -35.691)" fill="#dae9f7"/>
        <path id="Trazado_876830" data-name="Trazado 876830" d="M137.444,143.749l-2.007-.814c4.58-11.291,3.261-24.773,1.865-39.047-.661-6.764-1.328-12.788-1.432-19.9L136.935,83l1.1,1c.1,7.021.763,12.955,1.421,19.675,1.423,14.546,2.766,28.286-2.013,40.071" transform="translate(-62.103 -38.06)" fill="#dae9f7"/>
        <path id="Trazado_876831" data-name="Trazado 876831" d="M116.263,122.306c-.381.357-10.854.433-11.287,0a4.645,4.645,0,0,1,0-3.364c.408-.484,11-.357,11.287,0s.38,3.007,0,3.364" transform="translate(-47.991 -54.394)" fill="#dae9f7"/>
        <path id="Trazado_876832" data-name="Trazado 876832" d="M160.483,122.306c-.3.357-8.451.433-8.788,0a5.883,5.883,0,0,1,0-3.364c.318-.484,8.568-.357,8.788,0a7.405,7.405,0,0,1,0,3.364" transform="translate(-69.445 -54.394)" fill="#dae9f7"/>
        <path id="Trazado_876833" data-name="Trazado 876833" d="M148.767,204.236a15.821,15.821,0,0,0-.414-10.6c-4.534-10.941-19.016-17.984-29.459-9.819-9.117,7.128-9.586,21.295-.78,28.293,4.843,3.849,11.54,6.214,17.823,4.725a18.277,18.277,0,0,0,12.829-12.6" transform="translate(-51.253 -82.658)" fill="#efac37"/>
        <path id="Trazado_876834" data-name="Trazado 876834" d="M148.278,206.357a12.631,12.631,0,0,0-.33-8.463c-3.619-8.733-15.179-14.355-23.515-7.838-7.277,5.689-7.651,17-.622,22.584,3.866,3.072,9.211,4.96,14.227,3.771a14.589,14.589,0,0,0,10.241-10.054" transform="translate(-54.451 -85.849)" fill="#e5931c"/>
        <path id="Trazado_876835" data-name="Trazado 876835" d="M134.673,217.485a18.4,18.4,0,0,1-11.262-4.188,13.936,13.936,0,0,1-5.162-11.084,15.1,15.1,0,0,1,5.787-11.926,13.679,13.679,0,0,1,3.742-2.092l.185.508a13.169,13.169,0,0,0-3.593,2.01,14.562,14.562,0,0,0-5.579,11.5,13.4,13.4,0,0,0,4.958,10.658c4.271,3.394,9.5,4.784,14,3.72a14.074,14.074,0,0,0,9.346-8l.493.224a14.616,14.616,0,0,1-9.714,8.3,13.843,13.843,0,0,1-3.2.365" transform="translate(-54.221 -86.295)" fill="#d16d00"/>
        <path id="Trazado_876836" data-name="Trazado 876836" d="M129.424,212.545l1.807-2.519a12.194,12.194,0,0,1-.861-1.215,4.395,4.395,0,0,1-.482-.972l2.005-1.619a13.37,13.37,0,0,0,1.078,1.7,6.806,6.806,0,0,0,1.53,1.563,4.157,4.157,0,0,0,2.021.9,1.444,1.444,0,0,0,1.344-.637,1.755,1.755,0,0,0,.056-1.722,22.991,22.991,0,0,0-1.011-2.224,22.249,22.249,0,0,1-1.451-3.56,3.9,3.9,0,0,1,.665-3.585,3.832,3.832,0,0,1,1.87-1.41,4.322,4.322,0,0,1,2.476-.1l1.862-2.6,1.637,1.29-1.517,2.115c.112.061.227.129.348.206s.231.151.333.225.165.123.224.175.123.113.191.181l1.572-2.192,1.712,1.228-1.82,2.538a7.766,7.766,0,0,1,.608.858q.267.439.5.841l-2.261,1.407q-.389-.716-.895-1.472a5.354,5.354,0,0,0-1.353-1.363,3.384,3.384,0,0,0-1.628-.673,1.325,1.325,0,0,0-1.284.592,1.737,1.737,0,0,0-.153,1.7,19.546,19.546,0,0,0,1.028,2.281,22.213,22.213,0,0,1,1.456,3.593,4.066,4.066,0,0,1-2.568,5,4.794,4.794,0,0,1-2.652.063l-1.89,2.635-1.587-1.4,1.489-2.077q-.205-.119-.434-.268c-.152-.1-.3-.2-.439-.3l-.25-.179-1.586,2.211Z" transform="translate(-59.345 -89.208)" fill="#d16d00"/>
        <path id="Trazado_876837" data-name="Trazado 876837" d="M56.513,159.582c10.828,4.509,33.17,9.23,33.17,9.23,7.534.354,8.148-7.136,1.982-9.555,0,0-21.579-12.852-31.019-13.255-8.327-.433-11.69,9.609-4.133,13.579" transform="translate(-23.982 -66.942)" fill="#b2694d"/>
        <path id="Trazado_876838" data-name="Trazado 876838" d="M117.977,173.134c-2.732,3.165.672,7.174,1,7.728,1.687,2.862,8.477,7.04,8.477,7.04,1.665,1.192,2.686-.124,2.264-.559-.223-.193.9.668,1.134.838,2.136,1.422,2.87-.473,2.191-1.245,1.456,1.374,3.066-.122,2.2-1.08,1.15.867,2.565-.565,1.12-2.13-.727-.936-7.609-7.2-7.609-7.2a20.984,20.984,0,0,1,2.9-.238,13.656,13.656,0,0,0-7.545-4.373c-1.845-.473-4.49-.688-6.134,1.217" transform="translate(-53.613 -78.681)" fill="#b2694d"/>
        <rect id="Rectángulo_401825" data-name="Rectángulo 401825" width="0.542" height="5.837" transform="matrix(0.675, -0.738, 0.738, 0.675, 71.49, 104.916)" fill="#8c4731"/>
        <path id="Trazado_876839" data-name="Trazado 876839" d="M141.278,195.74l-5.9-5.013.35-.413,5.9,5.013Z" transform="translate(-62.074 -87.265)" fill="#8c4731"/>
        <rect id="Rectángulo_401826" data-name="Rectángulo 401826" width="0.541" height="8.572" transform="matrix(0.665, -0.747, 0.747, 0.665, 75.033, 101.641)" fill="#8c4731"/>
        <path id="Trazado_876840" data-name="Trazado 876840" d="M118.492,185.671a5.948,5.948,0,0,1-1.524-2.9l.528-.118a5.429,5.429,0,0,0,1.383,2.646Z" transform="translate(-53.634 -83.751)" fill="#8c4731"/>
        <rect id="Rectángulo_401827" data-name="Rectángulo 401827" width="0.541" height="2.191" transform="matrix(0.692, -0.722, 0.722, 0.692, 73.463, 96.525)" fill="#8c4731"/>
        <path id="Trazado_876841" data-name="Trazado 876841" d="M140.335,21.512S139.651,11.3,127.685,11.3s-12.657,10.213-12.657,10.213l.007,8.512c.441,3.186,1.543,6.5,2.866,8.027s5.929,4.935,9.784,4.935,8.461-3.4,9.784-4.935,2.425-4.841,2.865-8.027Z" transform="translate(-52.744 -5.181)" fill="#162e4c"/>
        <path id="Trazado_876842" data-name="Trazado 876842" d="M114.954,42.414a1.955,1.955,0,0,0-2.622.454c-1.083,1.432-.392,7.207,4.04,6.3,4.842-.988-.67-7.377-1.418-6.757" transform="translate(-51.302 -19.299)" fill="#b2694d"/>
        <path id="Trazado_876843" data-name="Trazado 876843" d="M113.858,47.5a2.731,2.731,0,0,1,.006-2.342,1.539,1.539,0,0,1,1.036-.7l.07.537-.035-.269.037.268a.987.987,0,0,0-.652.452,2.3,2.3,0,0,0,.05,1.873Z" transform="translate(-52.091 -20.388)" fill="#8c4731"/>
        <path id="Trazado_876844" data-name="Trazado 876844" d="M115.161,48.548a1.524,1.524,0,0,0-1.1-.777l.047-.539a2.046,2.046,0,0,1,1.536,1.072l-.484.244.242-.122Z" transform="translate(-52.301 -21.658)" fill="#8c4731"/>
        <path id="Trazado_876845" data-name="Trazado 876845" d="M156.394,42.414a1.955,1.955,0,0,1,2.622.454c1.083,1.432.426,7.018-4.04,6.3-4.568-.732,1.032-6.959,1.418-6.757" transform="translate(-70.244 -19.299)" fill="#b2694d"/>
        <path id="Trazado_876846" data-name="Trazado 876846" d="M161.729,47.5l-.512-.176a2.3,2.3,0,0,0,.049-1.873.989.989,0,0,0-.652-.452l.072-.536a1.539,1.539,0,0,1,1.036.7,2.733,2.733,0,0,1,.007,2.342" transform="translate(-73.647 -20.388)" fill="#8c4731"/>
        <path id="Trazado_876847" data-name="Trazado 876847" d="M160.246,48.547l-.484-.243a2.047,2.047,0,0,1,1.535-1.072l.047.539a1.5,1.5,0,0,0-1.1.776" transform="translate(-73.257 -21.658)" fill="#8c4731"/>
        <path id="Trazado_876848" data-name="Trazado 876848" d="M140.094,24.76s-.6-8.953-11.074-8.953-11.081,8.953-11.081,8.953l.006,8.822c.386,3.3,1.35,6.733,2.509,8.319s5.19,5.114,8.565,5.114,7.407-3.528,8.565-5.114,2.123-5.017,2.509-8.319Z" transform="translate(-54.079 -7.248)" fill="#b2694d"/>
        <rect id="Rectángulo_401828" data-name="Rectángulo 401828" width="0.541" height="2.42" transform="matrix(0.992, -0.125, 0.125, 0.992, 63.894, 27.562)" fill="#8c4731"/>
        <rect id="Rectángulo_401829" data-name="Rectángulo 401829" width="2.313" height="0.541" transform="matrix(0.109, -0.994, 0.994, 0.109, 85.149, 29.9)" fill="#8c4731"/>
        <path id="Trazado_876849" data-name="Trazado 876849" d="M117.375,29.89a4.358,4.358,0,0,1,1.24,1.806s-.427-8.615,1.694-9.872c4.646,1.646,12.521,1.538,16.973,0,1.858,2.01,1.492,9.522,1.492,9.522a2.562,2.562,0,0,1,1.1-1.456l.352-6.526-2.464-5.441-4.62-2.43-4.341-.719-4.487.559-3.353,1.7-2.5,2.567-1.3,3.935v4.654Z" transform="translate(-53.722 -6.775)" fill="#162e4c"/>
        <path id="Trazado_876850" data-name="Trazado 876850" d="M135.45,56.837a9.268,9.268,0,0,1-3.965-.945l.231-.49a7.888,7.888,0,0,0,7.325,0l.244.484a8.418,8.418,0,0,1-3.835.948" transform="translate(-60.291 -25.404)" fill="#8c4731"/>
        <path id="Trazado_876851" data-name="Trazado 876851" d="M137.166,60.1a4.342,4.342,0,0,1-1.856-.442l.231-.489a3.427,3.427,0,0,0,3.182,0l.244.483a3.947,3.947,0,0,1-1.8.446" transform="translate(-62.044 -27.132)" fill="#8c4731"/>
        <path id="Trazado_876852" data-name="Trazado 876852" d="M137.938,48.527l-.465-.278c.2-.341.653-.412,1.128-.487.8-.126,1.18-.246,1.18-.793a3.6,3.6,0,0,0-.918-1.781,3.264,3.264,0,0,1-1-2.426l.53.113c-.13.609.371,1.279.9,1.989a3.909,3.909,0,0,1,1.026,2.105c0,1.07-.985,1.225-1.637,1.328-.3.048-.674.106-.748.23" transform="translate(-63.036 -19.608)" fill="#8c4731"/>
        <path id="Trazado_876853" data-name="Trazado 876853" d="M129.446,46.552a.665.665,0,1,1-.665-.665.665.665,0,0,1,.665.665" transform="translate(-58.746 -21.041)" fill="#162e4c"/>
        <path id="Trazado_876854" data-name="Trazado 876854" d="M126.385,46.075l-.214-.5a3.787,3.787,0,0,1,3.405.009l-.254.479a3.232,3.232,0,0,0-2.937.009" transform="translate(-57.854 -20.716)" fill="#162e4c"/>
        <path id="Trazado_876855" data-name="Trazado 876855" d="M147.329,46.552a.665.665,0,1,1-.665-.665.665.665,0,0,1,.665.665" transform="translate(-66.946 -21.041)" fill="#162e4c"/>
        <path id="Trazado_876856" data-name="Trazado 876856" d="M147.218,46.075a3.232,3.232,0,0,0-2.937-.009l-.254-.479a3.787,3.787,0,0,1,3.405-.009Z" transform="translate(-66.041 -20.716)" fill="#162e4c"/>
        <path id="Trazado_876857" data-name="Trazado 876857" d="M124.026,40.5c.158.277,5.71.251,6.054-.158s-3.4-1.6-4.418-1.24-1.793,1.121-1.635,1.4" transform="translate(-56.861 -17.901)" fill="#162e4c"/>
        <path id="Trazado_876858" data-name="Trazado 876858" d="M147.637,40.5c-.158.277-5.71.251-6.054-.158s3.4-1.6,4.418-1.24,1.793,1.121,1.635,1.4" transform="translate(-64.911 -17.901)" fill="#162e4c"/>
        <path id="Trazado_876859" data-name="Trazado 876859" d="M262.872,90.308c-.624-.839-1.264-1.765-2.014-2.915a53.607,53.607,0,0,1-4.456-8.122c-1.1-2.562-2.223-5.546-1.654-8.554a6.674,6.674,0,0,1,3.76-4.889,8.521,8.521,0,0,1,8.5,1.053l-1.328,1.71A6.305,6.305,0,0,0,259.4,67.8a4.451,4.451,0,0,0-2.519,3.316c-.455,2.409.5,4.927,1.517,7.3a51.541,51.541,0,0,0,4.28,7.792c.725,1.112,1.341,2,1.937,2.806Z" transform="translate(-116.741 -29.868)" fill="#e5931c"/>
        <path id="Trazado_876860" data-name="Trazado 876860" d="M295.917,89.217c-1.374,4.34-26.944,3.938-28.284,0-1.024-.745,2.5-29.19,2.763-30.114.661-2.3,22.106-2.231,22.758,0,.252.864,3.306,28.4,2.763,30.114" transform="translate(-122.634 -26.321)" fill="#efac37"/>
        <path id="Trazado_876861" data-name="Trazado 876861" d="M292.145,83.262l10.014-16.975c.89-.536,3.479-.4,3.654,1.035l-6.478,18.91c-1.7,8.151-11.471,5.388-7.191-2.97" transform="translate(-133.466 -30.262)" fill="#e5931c"/>
        <path id="Trazado_876862" data-name="Trazado 876862" d="M294.4,94.341a3.688,3.688,0,0,1-2.931-1.419c-1.263-1.617-1.187-4.108.21-6.835l8.057-13.658.466.275-8.049,13.644c-1.289,2.517-1.385,4.8-.257,6.241a3.2,3.2,0,0,0,3.291,1.119c1.78-.415,3.148-2.128,3.658-4.582l.53.11c-.554,2.666-2.074,4.535-4.065,5a4.012,4.012,0,0,1-.91.106" transform="translate(-133.236 -33.212)" fill="#d16d00"/>
        <path id="Trazado_876863" data-name="Trazado 876863" d="M295.9,59.907c0,.534-3.315.968-7.405.968s-7.4-.434-7.4-.968,3.315-.968,7.4-.968,7.405.434,7.405.968" transform="translate(-128.892 -27.026)" fill="#d16d00"/>
        <path id="Trazado_876864" data-name="Trazado 876864" d="M284.173,62.926c-5.044,0-10.131-.557-11.419-1.614a.847.847,0,0,1-.366-.89l.526.132c-.011.043-.039.157.184.34,2.247,1.841,17.6,2.032,21.329.264.459-.218.713-.455.713-.67h.541c0,.449-.344.839-1.023,1.16-1.826.865-6.14,1.278-10.484,1.278" transform="translate(-124.889 -27.706)" fill="#d16d00"/>
        <path id="Trazado_876865" data-name="Trazado 876865" d="M294.737,57.32c0-.029-.626-3.559-8.481-3.559-7.949,0-8.476,3.523-8.481,3.559l-1.075-.133c.023-.184.66-4.508,9.556-4.508s9.533,4.324,9.555,4.508Z" transform="translate(-126.877 -24.155)" fill="#e5931c"/>
        <path id="Trazado_876866" data-name="Trazado 876866" d="M315.942,64.692a5.574,5.574,0,0,0,1.518-3.346c.282-4-3.153-8.105-7.689-6.957-3.959,1-6.307,5.337-4.64,8.678a6.4,6.4,0,0,0,10.811,1.625" transform="translate(-139.664 -24.85)" fill="#efac37"/>
        <path id="Trazado_876867" data-name="Trazado 876867" d="M310.678,68.738a5.936,5.936,0,0,1-.981-.081,7.128,7.128,0,0,1-5.037-3.978,6.261,6.261,0,0,1,1.552-7.233l.377.389a5.723,5.723,0,0,0-1.445,6.6,6.588,6.588,0,0,0,4.644,3.685,5.867,5.867,0,0,0,2.778-.233l.167.515a6.7,6.7,0,0,1-2.055.332" transform="translate(-139.435 -26.341)" fill="#d16d00"/>
        <path id="Trazado_876868" data-name="Trazado 876868" d="M307.643,64.373a.34.34,0,0,0,.074.008.364.364,0,0,0,.356-.29l.007-.029a.363.363,0,1,0-.7-.186l-.017.068a.364.364,0,0,0,.283.429" transform="translate(-140.932 -29.165)" fill="#d16d00"/>
        <path id="Trazado_876869" data-name="Trazado 876869" d="M312.625,73.108l-.041-.02a.363.363,0,1,0-.325.65l.048.024a.363.363,0,1,0,.317-.654" transform="translate(-143.09 -33.496)" fill="#d16d00"/>
        <path id="Trazado_876870" data-name="Trazado 876870" d="M308.634,61.722a.363.363,0,0,0,.5-.109l.027-.042a.364.364,0,0,0-.611-.394l-.027.042a.364.364,0,0,0,.109.5" transform="translate(-141.443 -27.975)" fill="#d16d00"/>
        <path id="Trazado_876871" data-name="Trazado 876871" d="M324.078,63.3l.017.055a.337.337,0,0,0,.328.233.406.406,0,0,0,.125-.021.382.382,0,0,0,.226-.479.363.363,0,1,0-.7.211" transform="translate(-148.594 -28.812)" fill="#d16d00"/>
        <path id="Trazado_876872" data-name="Trazado 876872" d="M310.688,59.644a.36.36,0,0,0,.236-.087l.036-.03a.364.364,0,1,0-.466-.559l-.042.035a.363.363,0,0,0,.236.64" transform="translate(-142.295 -27)" fill="#d16d00"/>
        <path id="Trazado_876873" data-name="Trazado 876873" d="M313.094,58.154a.364.364,0,0,0,.142-.028l.045-.019a.364.364,0,1,0-.283-.67l-.046.019a.363.363,0,0,0,.142.7" transform="translate(-143.398 -26.324)" fill="#d16d00"/>
        <path id="Trazado_876874" data-name="Trazado 876874" d="M315.838,57.453l.032,0,.049,0a.364.364,0,1,0-.063-.724l-.05,0a.364.364,0,0,0,.032.726" transform="translate(-144.656 -26.009)" fill="#d16d00"/>
        <path id="Trazado_876875" data-name="Trazado 876875" d="M307.909,66.779l0-.03a.367.367,0,0,0-.4-.319.363.363,0,0,0-.319.4l.009.069a.364.364,0,0,0,.358.3.406.406,0,0,0,.062,0,.364.364,0,0,0,.3-.42" transform="translate(-140.853 -30.46)" fill="#d16d00"/>
        <path id="Trazado_876876" data-name="Trazado 876876" d="M317.927,73.731l-.043.01a.363.363,0,0,0,.077.719.353.353,0,0,0,.079-.009l.054-.012a.364.364,0,1,0-.167-.708" transform="translate(-145.63 -33.804)" fill="#d16d00"/>
        <path id="Trazado_876877" data-name="Trazado 876877" d="M320.449,72.7l-.043.026a.363.363,0,0,0,.187.675.36.36,0,0,0,.187-.051l.043-.025a.364.364,0,1,0-.374-.624" transform="translate(-146.837 -33.311)" fill="#d16d00"/>
        <path id="Trazado_876878" data-name="Trazado 876878" d="M320.956,58.878a.3.3,0,0,0,.056.049l-.006.009.007-.008.013.011-.006.008a.3.3,0,0,0,.037.02.342.342,0,0,0,.4,0,.363.363,0,0,0,.093-.505l-.03-.043a.364.364,0,0,0-.6.417Z" transform="translate(-147.127 -26.717)" fill="#d16d00"/>
        <path id="Trazado_876879" data-name="Trazado 876879" d="M324.493,68.439a.363.363,0,0,0-.466.218l-.014.036a.364.364,0,0,0,.675.27l.022-.057a.364.364,0,0,0-.218-.466" transform="translate(-148.559 -31.372)" fill="#d16d00"/>
        <path id="Trazado_876880" data-name="Trazado 876880" d="M324.884,65.637a.366.366,0,0,0-.364.365v.045a.364.364,0,0,0,.727,0V66a.361.361,0,0,0-.363-.361" transform="translate(-148.804 -30.097)" fill="#d16d00"/>
        <path id="Trazado_876881" data-name="Trazado 876881" d="M313.509,59.659l-.053.025a.364.364,0,0,0,.325.651l.037-.018a.364.364,0,0,0-.309-.658" transform="translate(-143.638 -27.34)" fill="#d16d00"/>
        <path id="Trazado_876882" data-name="Trazado 876882" d="M316.064,71.678h-.04a.345.345,0,0,0-.374.353A.364.364,0,0,0,316,72.4h.06a.364.364,0,1,0,0-.727" transform="translate(-144.737 -32.866)" fill="#d16d00"/>
        <path id="Trazado_876883" data-name="Trazado 876883" d="M320.962,62.115a.363.363,0,1,0,.585-.431l-.032-.043a.364.364,0,1,0-.582.437Z" transform="translate(-147.126 -28.198)" fill="#d16d00"/>
        <path id="Trazado_876884" data-name="Trazado 876884" d="M318.914,59.666a.364.364,0,0,0-.073.509l.028.038a.35.35,0,0,0,.1.084l-.007.016.009-.014c.006,0,.01.01.017.014l-.006.011a.425.425,0,0,0,.316.007.333.333,0,0,0,.06-.031.21.21,0,0,0,.019-.01.363.363,0,0,0,.1-.11h0a.364.364,0,0,0-.021-.4l-.032-.043a.364.364,0,0,0-.509-.073" transform="translate(-146.167 -27.326)" fill="#d16d00"/>
        <path id="Trazado_876885" data-name="Trazado 876885" d="M316.35,58.977a.363.363,0,0,0,.01.727h.05a.364.364,0,1,0,0-.727Z" transform="translate(-144.896 -27.043)" fill="#d16d00"/>
        <path id="Trazado_876886" data-name="Trazado 876886" d="M322.441,67.657a.364.364,0,0,0,.354-.28l.011-.048a.364.364,0,0,0-.708-.167l-.011.049a.363.363,0,0,0,.271.437.37.37,0,0,0,.084.01" transform="translate(-147.684 -30.668)" fill="#d16d00"/>
        <path id="Trazado_876887" data-name="Trazado 876887" d="M313.494,71.027l-.04-.021a.363.363,0,0,0-.342.642l.048.025a.367.367,0,0,0,.166.04.364.364,0,0,0,.167-.687" transform="translate(-143.485 -32.54)" fill="#d16d00"/>
        <path id="Trazado_876888" data-name="Trazado 876888" d="M309.684,64.042l-.015.049a.364.364,0,0,0,.246.452.374.374,0,0,0,.1.015.365.365,0,0,0,.349-.261l.014-.047a.364.364,0,1,0-.7-.208" transform="translate(-141.988 -29.246)" fill="#d16d00"/>
        <path id="Trazado_876889" data-name="Trazado 876889" d="M318.68,71.12l-.045.021a.363.363,0,0,0,.15.695.36.36,0,0,0,.15-.032l.046-.021a.363.363,0,1,0-.3-.662" transform="translate(-146.007 -32.596)" fill="#d16d00"/>
        <path id="Trazado_876890" data-name="Trazado 876890" d="M322.071,64.5l.011.05a.364.364,0,0,0,.354.28.369.369,0,0,0,.084-.009.364.364,0,0,0,.271-.437l-.011-.047a.363.363,0,1,0-.708.164" transform="translate(-147.676 -29.373)" fill="#d16d00"/>
        <path id="Trazado_876891" data-name="Trazado 876891" d="M311.137,61.448l-.032.038a.363.363,0,0,0,.549.476l.033-.038a.363.363,0,0,0-.549-.476" transform="translate(-142.611 -28.119)" fill="#d16d00"/>
        <path id="Trazado_876892" data-name="Trazado 876892" d="M320.847,69.485l-.036.039-.018.02a.361.361,0,0,0,.278.593.374.374,0,0,0,.272-.116l.034-.036a.364.364,0,1,0-.529-.5" transform="translate(-147.056 -31.809)" fill="#d16d00"/>
        <path id="Trazado_876893" data-name="Trazado 876893" d="M320.068,65.322a.366.366,0,0,0-.074.019.345.345,0,0,0-.043.019.283.283,0,0,0-.045.019.4.4,0,0,0,.224.706h.011c.012,0,.023-.007.035-.008a.376.376,0,0,0,.1-.023l.015-.007a.345.345,0,0,0,.06-.03.321.321,0,0,0,.044-.045h0a.354.354,0,0,0,.074-.4.366.366,0,0,0-.284-.253l-.018,0a.287.287,0,0,0-.06-.008.291.291,0,0,0-.037.01" transform="translate(-146.619 -29.948)" fill="#d16d00"/>
        <path id="Trazado_876894" data-name="Trazado 876894" d="M319.437,62.959a.363.363,0,1,0-.565.457l.03.037a.324.324,0,0,0,.257.125.373.373,0,0,0,.279-.618" transform="translate(-146.177 -28.807)" fill="#d16d00"/>
        <path id="Trazado_876895" data-name="Trazado 876895" d="M319.477,67.912a.356.356,0,0,0-.308-.087.353.353,0,0,0-.187.058.384.384,0,0,0,.2.706c.01,0,.02-.005.029-.006l.008,0a.364.364,0,0,0,.206-.064.427.427,0,0,0,.051-.609" transform="translate(-146.192 -31.098)" fill="#d16d00"/>
        <path id="Trazado_876896" data-name="Trazado 876896" d="M317.254,69.466a.358.358,0,0,0-.2-.253.372.372,0,0,0-.072-.031s-.009,0-.014-.005a.343.343,0,0,0-.453.225.35.35,0,0,0-.029.2.363.363,0,0,0,.23.279h0l.016,0a.362.362,0,0,0,.151.036.358.358,0,0,0,.206-.064.453.453,0,0,0,.161-.389" transform="translate(-145.12 -31.71)" fill="#d16d00"/>
        <path id="Trazado_876897" data-name="Trazado 876897" d="M314.386,62.029a.358.358,0,0,0-.321.042.365.365,0,0,0-.148.232.36.36,0,0,0,.038.3.365.365,0,0,0,.306.167l.018,0c.008,0,.015.006.023.006a.356.356,0,0,0,.356-.386.354.354,0,0,0-.043-.19.35.35,0,0,0-.139-.128.3.3,0,0,0-.056-.028c-.012,0-.023-.01-.035-.013" transform="translate(-143.935 -28.433)" fill="#d16d00"/>
        <path id="Trazado_876898" data-name="Trazado 876898" d="M312.882,67.074a.345.345,0,0,0-.025-.121s0-.008,0-.011h0a.4.4,0,0,0-.018-.042h0s0-.006-.007-.009,0-.01-.006-.015l-.03-.043s-.007,0-.009-.008a.36.36,0,0,0-.083-.079l-.026-.017a.348.348,0,0,0-.092-.035.421.421,0,0,0-.046-.009.36.36,0,0,0-.08,0,.327.327,0,0,0-.068.014c-.01,0-.021,0-.03.006s-.019.015-.03.02a.434.434,0,0,0-.043.019.286.286,0,0,0-.028.03.339.339,0,0,0-.034.035.366.366,0,0,0-.055.084c0,.009-.007.017-.01.025a.352.352,0,0,0-.023.113v.018a.345.345,0,0,0,.024.123.056.056,0,0,0,0,.009l.019.045c0,.006.007.01.01.017l0,.007.011.016a.357.357,0,0,0,.149.139h0a.354.354,0,0,0,.161.042l.01,0a.34.34,0,0,0,.121-.025l.011,0c.006,0,.01-.008.016-.01a.4.4,0,0,0,.053-.026.356.356,0,0,0,.031-.032.369.369,0,0,0,.032-.033.334.334,0,0,0,.056-.087c0-.008.006-.016.01-.024a.356.356,0,0,0,.022-.114c0-.006,0-.012,0-.018" transform="translate(-143.127 -30.577)" fill="#d16d00"/>
        <path id="Trazado_876899" data-name="Trazado 876899" d="M315,64.8l.017-.019a.364.364,0,0,0-.519-.51l-.052.057A.364.364,0,0,0,315,64.8" transform="translate(-144.147 -29.421)" fill="#d16d00"/>
        <path id="Trazado_876900" data-name="Trazado 876900" d="M317.93,66.624a.344.344,0,0,0-.191-.077l-.032,0a.411.411,0,0,0-.063,0,.359.359,0,0,0-.187.059.364.364,0,0,0-.089.506l.027.038a.363.363,0,0,0,.506.093.42.42,0,0,0,.03-.617" transform="translate(-145.494 -30.512)" fill="#d16d00"/>
        <path id="Trazado_876901" data-name="Trazado 876901" d="M314.8,67.473a.362.362,0,0,0,.511-.05.364.364,0,0,0-.05-.512l-.026-.022a.363.363,0,1,0-.488.538Z" transform="translate(-144.268 -30.628)" fill="#d16d00"/>
        <path id="Trazado_876902" data-name="Trazado 876902" d="M317.081,64.017a.363.363,0,0,0,.059.511l.021.018a.364.364,0,0,0,.488-.539c-.018-.017-.037-.034-.058-.049a.363.363,0,0,0-.511.059" transform="translate(-145.357 -29.291)" fill="#d16d00"/>
        <path id="Trazado_876903" data-name="Trazado 876903" d="M322.88,60.913a.363.363,0,0,0,.3.157.359.359,0,0,0,.206-.064.363.363,0,0,0,.093-.505l-.03-.043a.364.364,0,0,0-.6.417Z" transform="translate(-148.01 -27.651)" fill="#d16d00"/>
        <path id="Trazado_876904" data-name="Trazado 876904" d="M318.418,57.593a.363.363,0,0,0,.3.157.354.354,0,0,0,.356-.373.354.354,0,0,0-.163-.312.358.358,0,0,0-.431-.017.364.364,0,0,0-.089.506Z" transform="translate(-145.964 -26.129)" fill="#d16d00"/>
        <path id="Trazado_876905" data-name="Trazado 876905" d="M316.686,61.542a.364.364,0,0,0-.089.506l.027.038a.364.364,0,0,0,.3.157.358.358,0,0,0,.206-.064.364.364,0,0,0,.093-.506l-.03-.043a.364.364,0,0,0-.507-.089" transform="translate(-145.141 -28.189)" fill="#d16d00"/>
        <path id="Trazado_876906" data-name="Trazado 876906" d="M312.916,64.231l-.03-.043a.408.408,0,0,0-.674.067l-.022.054a.364.364,0,0,0,.339.495.356.356,0,0,0,.059-.009c.01,0,.019.007.029.007a.364.364,0,0,0,.3-.57" transform="translate(-143.139 -29.363)" fill="#d16d00"/>
        <path id="Trazado_876907" data-name="Trazado 876907" d="M314.45,69.389h0a.3.3,0,0,0,.048-.023.363.363,0,0,0,.093-.505l-.03-.043a.363.363,0,0,0-.506-.089c-.007,0-.009.011-.016.016a.354.354,0,0,0-.124.121.364.364,0,0,0,.13.5l.045.026a.368.368,0,0,0,.18.048c.01,0,.019-.007.03-.008a.356.356,0,0,0,.15-.04" transform="translate(-143.919 -31.484)" fill="#d16d00"/>
        <path id="Trazado_876908" data-name="Trazado 876908" d="M311.453,69.344l-.025-.037,0,0,0,0,0-.007s-.008-.006-.011-.01l0,0a.364.364,0,0,0-.509-.073.357.357,0,0,0-.131.208c0,.009-.007.017-.009.025a.346.346,0,0,0,0,.067.355.355,0,0,0,0,.076c0,.006.007.012.008.019a.365.365,0,0,0,.047.108l.027.038a.363.363,0,1,0,.6-.413" transform="translate(-142.497 -31.704)" fill="#d16d00"/>
        <path id="Trazado_876909" data-name="Trazado 876909" d="M310.1,67.3a.359.359,0,0,0,.133-.413h0a.362.362,0,0,0-.3-.283.367.367,0,0,0-.1,0,.265.265,0,0,0-.029,0h0a.351.351,0,0,0-.148.058.364.364,0,0,0-.089.506l.027.038a.363.363,0,0,0,.506.093" transform="translate(-141.918 -30.541)" fill="#d16d00"/>
        <path id="Trazado_876910" data-name="Trazado 876910" d="M308.781,69.3a.357.357,0,0,0-.057-.054.329.329,0,0,0-.313-.093l-.016.005a.421.421,0,0,0-.093.03c-.009,0-.014.014-.023.02l-.005,0s-.007.009-.012.012a.331.331,0,0,0-.08.085.322.322,0,0,0-.023.048.384.384,0,0,0-.028.073.346.346,0,0,0,0,.071.4.4,0,0,0,0,.077c0,.008,0,.015.006.023a.378.378,0,0,0,.03.1l.011-.006c0,.008.005.016.01.023l.027.038a.363.363,0,0,0,.6-.413Z" transform="translate(-141.286 -31.707)" fill="#d16d00"/>
        <path id="Trazado_876911" data-name="Trazado 876911" d="M310.475,71.563a.353.353,0,0,0-.17-.125l-.031-.011a.326.326,0,0,0-.076-.012.3.3,0,0,0-.066,0,.331.331,0,0,0-.067.017.353.353,0,0,0-.059.025.371.371,0,0,0-.037.016c-.011.008-.017.02-.027.029s-.02.011-.028.019-.011.021-.019.03a.338.338,0,0,0-.037.059.317.317,0,0,0-.027.069.348.348,0,0,0-.01.067.353.353,0,0,0,0,.072.337.337,0,0,0,.012.056.39.39,0,0,0,.093.178l.009-.009a.36.36,0,0,0,.57-.438Z" transform="translate(-142.063 -32.746)" fill="#d16d00"/>
        <path id="Trazado_876912" data-name="Trazado 876912" d="M323.2,70.859a.364.364,0,0,0-.6.417l.027.038a.363.363,0,0,0,.6-.413Z" transform="translate(-147.896 -32.42)" fill="#d16d00"/>
        <path id="Trazado_876913" data-name="Trazado 876913" d="M315.432,73.99a.363.363,0,0,0-.506-.089.357.357,0,0,0-.149.262s0,.005,0,.009a.432.432,0,0,0,0,.059.4.4,0,0,0,0,.051.38.38,0,0,0,.587.257.363.363,0,0,0,.093-.505Z" transform="translate(-144.335 -33.856)" fill="#d16d00"/>
        <path id="Trazado_876914" data-name="Trazado 876914" d="M257.254,72.753s-3.835,1.694-4.6,3.25c-.568,1.591,1.117,4.941,3.1,5.763,1.587,1.016,3.337,1.173,4.656-2.249,1.109-2.242-3.159-6.765-3.159-6.765" transform="translate(-115.8 -33.36)" fill="#b2694d"/>
        <path id="Trazado_876915" data-name="Trazado 876915" d="M257.365,82.588a2.778,2.778,0,0,1-.951-.159,1.686,1.686,0,0,1-.929-.753A1.47,1.47,0,0,1,253.811,80a1.492,1.492,0,0,1-1.285-.677,1.763,1.763,0,0,1,.095-1.923,1.154,1.154,0,0,1-.487-.709,2.122,2.122,0,0,1,.711-1.915c.939-.925,4.868-2.25,5.035-2.306l.172.513c-1.1.37-4.122,1.484-4.827,2.178a1.618,1.618,0,0,0-.566,1.4.638.638,0,0,0,.451.474l.379.12-.25.309a1.325,1.325,0,0,0-.257,1.563.983.983,0,0,0,1.115.389l.5-.129-.174.482a1.046,1.046,0,0,0,.154,1.074.991.991,0,0,0,1.008.266l.235-.056.082.227a1.12,1.12,0,0,0,.7.639,2.553,2.553,0,0,0,2-.184l.269.47a3.087,3.087,0,0,1-1.506.382" transform="translate(-115.594 -33.229)" fill="#8c4731"/>
        <rect id="Rectángulo_401830" data-name="Rectángulo 401830" width="6.754" height="0.542" transform="matrix(0.883, -0.469, 0.469, 0.883, 137.254, 43.845)" fill="#8c4731"/>
        <rect id="Rectángulo_401831" data-name="Rectángulo 401831" width="6.875" height="0.541" transform="translate(138.35 46.264) rotate(-31.927)" fill="#8c4731"/>
        <rect id="Rectángulo_401832" data-name="Rectángulo 401832" width="5.738" height="0.541" transform="translate(139.736 48.019) rotate(-30.954)" fill="#8c4731"/>
        <rect id="Rectángulo_401833" data-name="Rectángulo 401833" width="248.577" height="0.541" transform="translate(11.077 218.993)" fill="#162e4c"/>
        <path id="Trazado_876916" data-name="Trazado 876916" d="M316.7,275.232c-6.183-11.859-3.242-19.037-.4-25.977,2.516-6.141,4.894-11.941,1.8-21.249l2.055-.683c3.351,10.07.708,16.518-1.848,22.754-2.779,6.781-5.4,13.187.314,24.154Z" transform="translate(-143.545 -104.235)" fill="#68b57f"/>
        <path id="Trazado_876917" data-name="Trazado 876917" d="M287.717,260.806c.275-19.743-11.945-26.38-32.254-24.839,5.078,18.255,13.124,30.14,32.254,24.839" transform="translate(-117.139 -108.101)" fill="#68b47e"/>
        <path id="Trazado_876918" data-name="Trazado 876918" d="M291.579,264.177a68.993,68.993,0,0,0-18.572-16.828,39.786,39.786,0,0,0-8.654-4.085l.146-.521c.142.04,14.317,4.154,27.508,21.1Z" transform="translate(-121.215 -111.306)" fill="#419356"/>
        <path id="Trazado_876919" data-name="Trazado 876919" d="M272.82,255.355a8.194,8.194,0,0,1-3.286-.6l.231-.49c.035.016,3.511,1.592,8.3-.749l.238.487a12.436,12.436,0,0,1-5.482,1.351" transform="translate(-123.591 -116.246)" fill="#419356"/>
        <path id="Trazado_876920" data-name="Trazado 876920" d="M303.051,262.889l-.5-.2a7.54,7.54,0,0,0-1.085-7.309l.41-.353a8.113,8.113,0,0,1,1.18,7.859" transform="translate(-138.23 -116.94)" fill="#419356"/>
        <path id="Trazado_876921" data-name="Trazado 876921" d="M301.938,277.326a11.742,11.742,0,0,1-2.506-.262l.126-.527a10.416,10.416,0,0,0,5.8-.406l.221.494a9.025,9.025,0,0,1-3.645.7" transform="translate(-137.3 -126.616)" fill="#419356"/>
        <path id="Trazado_876922" data-name="Trazado 876922" d="M325.018,249.509q7.681-20.964,32.225-14.438c-9.077,13.355-19.449,20.067-32.225,14.438" transform="translate(-149.032 -107.078)" fill="#68b47e"/>
        <path id="Trazado_876923" data-name="Trazado 876923" d="M325.043,252.705l-.338-.423c14.561-11.639,27.361-12.247,27.488-12.252l.02.541c-.126,0-12.759.615-27.17,12.134" transform="translate(-148.889 -110.062)" fill="#419356"/>
        <path id="Trazado_876924" data-name="Trazado 876924" d="M361.572,247.87a9.933,9.933,0,0,1-6.3-2.491l.345-.418c3.553,2.929,6.787,2.308,6.819,2.3l.11.53a5.031,5.031,0,0,1-.974.079" transform="translate(-162.904 -112.323)" fill="#419356"/>
        <path id="Trazado_876925" data-name="Trazado 876925" d="M342.493,245.556a6.949,6.949,0,0,1,2.6-6.426l.317.439a6.523,6.523,0,0,0-2.378,5.912Z" transform="translate(-157.013 -109.65)" fill="#419356"/>
        <path id="Trazado_876926" data-name="Trazado 876926" d="M341.947,256.407a9.386,9.386,0,0,1-5.122-1.62l.33-.429a9,9,0,0,0,4.793,1.507Z" transform="translate(-154.446 -116.632)" fill="#419356"/>
        <path id="Trazado_876927" data-name="Trazado 876927" d="M314.872,207.688c8.323-10.261,2.77-20.492-10.461-26.395-3.21,13.2-2.041,22.847,10.461,26.395" transform="translate(-138.887 -83.129)" fill="#68b47e"/>
        <path id="Trazado_876928" data-name="Trazado 876928" d="M317.046,210.984c-1.836-14.7-8.758-22.129-8.827-22.2l.393-.373c.071.074,7.114,7.619,8.972,22.508Z" transform="translate(-141.329 -86.392)" fill="#419356"/>
        <path id="Trazado_876929" data-name="Trazado 876929" d="M312.572,200.636c-3.935-.326-5.518-2.617-5.583-2.715l.449-.3a7.035,7.035,0,0,0,5.179,2.478Z" transform="translate(-140.765 -90.615)" fill="#419356"/>
        <path id="Trazado_876930" data-name="Trazado 876930" d="M321.458,208.928l-.332-.428a5.1,5.1,0,0,0,1.928-4.688l.533-.094a5.641,5.641,0,0,1-2.129,5.209" transform="translate(-147.248 -93.412)" fill="#419356"/>
        <path id="Trazado_876931" data-name="Trazado 876931" d="M319.342,216.98a7.6,7.6,0,0,1-3.889-1.956l.378-.388a7.179,7.179,0,0,0,3.575,1.806Z" transform="translate(-144.646 -98.419)" fill="#419356"/>
        <path id="Trazado_876932" data-name="Trazado 876932" d="M378.711,195.955a1.351,1.351,0,0,1-1-.444,36.112,36.112,0,0,0-3.568-3.424,1.354,1.354,0,0,1,1.738-2.077,38.975,38.975,0,0,1,3.836,3.681,1.354,1.354,0,0,1-1,2.263" transform="translate(-171.333 -86.982)" fill="#fff"/>
        <path id="Trazado_876933" data-name="Trazado 876933" d="M393.559,224.878a1.353,1.353,0,0,1-1.354-1.354v-1.49a26.414,26.414,0,0,0-3.811-13.279,1.354,1.354,0,1,1,2.335-1.37,29.119,29.119,0,0,1,4.184,14.65v1.49a1.353,1.353,0,0,1-1.354,1.354" transform="translate(-178.007 -94.786)" fill="#fff"/>
        <path id="Trazado_876934" data-name="Trazado 876934" d="M396.945,280.836a1.353,1.353,0,0,1-1.354-1.354v-30.5a1.354,1.354,0,1,1,2.707,0v30.5a1.353,1.353,0,0,1-1.354,1.354" transform="translate(-181.392 -113.548)" fill="#fff"/>
        <path id="Trazado_876935" data-name="Trazado 876935" d="M321.764,170.863a45.161,45.161,0,0,0-14.355-13.55,1.292,1.292,0,0,1-.631-1.106v-1.875a1.294,1.294,0,0,1,1.294-1.294h1.049a1.294,1.294,0,0,0,1.294-1.294V140.391a1.294,1.294,0,0,0-1.294-1.294H247.713a1.294,1.294,0,0,0-1.294,1.294v11.353a1.294,1.294,0,0,0,1.294,1.294h1.049a1.294,1.294,0,0,1,1.294,1.294v1.875a1.292,1.292,0,0,1-.631,1.106,45.166,45.166,0,0,0-14.355,13.55,34.669,34.669,0,0,0-6.094,19.118v80.47a12.42,12.42,0,0,0,12.42,12.42h74.04a12.42,12.42,0,0,0,12.421-12.42V189.98a34.67,34.67,0,0,0-6.094-19.118m3.506,99.451a9.968,9.968,0,0,1-9.968,9.968H241.533a9.968,9.968,0,0,1-9.968-9.968V189.98c0-12.154,8.071-24.5,21.08-31.525V158.4H288a1.294,1.294,0,0,0,0-2.588H253.939a1.294,1.294,0,0,1-1.294-1.294v-.183a1.294,1.294,0,0,1,1.294-1.294h36.987a1.294,1.294,0,1,0,0-2.588H252.644v0H250.3a1.294,1.294,0,0,1-1.294-1.294v-6.177a1.294,1.294,0,0,1,1.294-1.294h56.232a1.294,1.294,0,0,1,1.294,1.294v6.177a1.294,1.294,0,0,1-1.294,1.294c-1.485.036-2.434.708-2.343,2.615v3.019s-.1,2.408,1.747,3.364c11.98,7.158,19.332,18.931,19.332,30.532Z" transform="translate(-104.994 -63.781)" fill="#7db6f9"/>
        <path id="Trazado_876936" data-name="Trazado 876936" d="M291.36,393.189H248.489a1.29,1.29,0,0,1-1.291-1.29v-5.277a1.29,1.29,0,0,1,1.291-1.29H291.36a1.29,1.29,0,0,1,1.29,1.29V391.9a1.29,1.29,0,0,1-1.29,1.29" transform="translate(-113.349 -176.688)" fill="#e5931c"/>
        <rect id="Rectángulo_401834" data-name="Rectángulo 401834" width="0.541" height="5.432" transform="translate(135.362 209.857)" fill="#d16d00"/>
        <rect id="Rectángulo_401835" data-name="Rectángulo 401835" width="0.541" height="5.432" transform="translate(137.826 209.857)" fill="#d16d00"/>
        <rect id="Rectángulo_401836" data-name="Rectángulo 401836" width="0.541" height="5.432" transform="translate(140.29 209.857)" fill="#d16d00"/>
        <rect id="Rectángulo_401837" data-name="Rectángulo 401837" width="0.541" height="5.432" transform="translate(142.754 209.857)" fill="#d16d00"/>
        <rect id="Rectángulo_401838" data-name="Rectángulo 401838" width="0.541" height="5.432" transform="translate(145.218 209.857)" fill="#d16d00"/>
        <rect id="Rectángulo_401839" data-name="Rectángulo 401839" width="0.541" height="5.432" transform="translate(147.681 209.857)" fill="#d16d00"/>
        <rect id="Rectángulo_401840" data-name="Rectángulo 401840" width="0.541" height="5.432" transform="translate(150.145 209.857)" fill="#d16d00"/>
        <rect id="Rectángulo_401841" data-name="Rectángulo 401841" width="0.541" height="5.432" transform="translate(152.609 209.857)" fill="#d16d00"/>
        <rect id="Rectángulo_401842" data-name="Rectángulo 401842" width="0.541" height="5.432" transform="translate(155.073 209.857)" fill="#d16d00"/>
        <rect id="Rectángulo_401843" data-name="Rectángulo 401843" width="0.541" height="5.432" transform="translate(157.537 209.857)" fill="#d16d00"/>
        <rect id="Rectángulo_401844" data-name="Rectángulo 401844" width="0.541" height="5.432" transform="translate(160 209.857)" fill="#d16d00"/>
        <rect id="Rectángulo_401845" data-name="Rectángulo 401845" width="0.541" height="5.432" transform="translate(162.464 209.857)" fill="#d16d00"/>
        <rect id="Rectángulo_401846" data-name="Rectángulo 401846" width="0.541" height="5.432" transform="translate(164.928 209.857)" fill="#d16d00"/>
        <rect id="Rectángulo_401847" data-name="Rectángulo 401847" width="0.541" height="5.432" transform="translate(167.392 209.857)" fill="#d16d00"/>
        <rect id="Rectángulo_401848" data-name="Rectángulo 401848" width="0.541" height="5.432" transform="translate(169.856 209.857)" fill="#d16d00"/>
        <rect id="Rectángulo_401849" data-name="Rectángulo 401849" width="0.541" height="5.432" transform="translate(172.319 209.857)" fill="#d16d00"/>
        <rect id="Rectángulo_401850" data-name="Rectángulo 401850" width="0.541" height="5.432" transform="translate(174.783 209.857)" fill="#d16d00"/>
        <rect id="Rectángulo_401851" data-name="Rectángulo 401851" width="0.541" height="5.432" transform="translate(177.247 209.857)" fill="#d16d00"/>
        <path id="Trazado_876937" data-name="Trazado 876937" d="M361.652,378.766H318.781a1.29,1.29,0,0,1-1.291-1.29V372.2a1.291,1.291,0,0,1,1.291-1.29h42.871a1.29,1.29,0,0,1,1.29,1.29v5.277a1.29,1.29,0,0,1-1.29,1.29" transform="translate(-145.58 -170.075)" fill="#e5931c"/>
        <rect id="Rectángulo_401852" data-name="Rectángulo 401852" width="0.541" height="5.432" transform="translate(173.423 202.047)" fill="#d16d00"/>
        <rect id="Rectángulo_401853" data-name="Rectángulo 401853" width="0.541" height="5.432" transform="translate(175.887 202.047)" fill="#d16d00"/>
        <rect id="Rectángulo_401854" data-name="Rectángulo 401854" width="0.541" height="5.432" transform="translate(178.35 202.047)" fill="#d16d00"/>
        <rect id="Rectángulo_401855" data-name="Rectángulo 401855" width="0.541" height="5.432" transform="translate(180.815 202.047)" fill="#d16d00"/>
        <rect id="Rectángulo_401856" data-name="Rectángulo 401856" width="0.541" height="5.432" transform="translate(183.278 202.047)" fill="#d16d00"/>
        <rect id="Rectángulo_401857" data-name="Rectángulo 401857" width="0.541" height="5.432" transform="translate(185.742 202.047)" fill="#d16d00"/>
        <rect id="Rectángulo_401858" data-name="Rectángulo 401858" width="0.541" height="5.432" transform="translate(188.206 202.047)" fill="#d16d00"/>
        <rect id="Rectángulo_401859" data-name="Rectángulo 401859" width="0.541" height="5.432" transform="translate(190.67 202.047)" fill="#d16d00"/>
        <rect id="Rectángulo_401860" data-name="Rectángulo 401860" width="0.541" height="5.432" transform="translate(193.133 202.047)" fill="#d16d00"/>
        <rect id="Rectángulo_401861" data-name="Rectángulo 401861" width="0.541" height="5.432" transform="translate(195.598 202.047)" fill="#d16d00"/>
        <rect id="Rectángulo_401862" data-name="Rectángulo 401862" width="0.541" height="5.432" transform="translate(198.061 202.047)" fill="#d16d00"/>
        <rect id="Rectángulo_401863" data-name="Rectángulo 401863" width="0.541" height="5.432" transform="translate(200.525 202.047)" fill="#d16d00"/>
        <rect id="Rectángulo_401864" data-name="Rectángulo 401864" width="0.541" height="5.432" transform="translate(202.989 202.047)" fill="#d16d00"/>
        <rect id="Rectángulo_401865" data-name="Rectángulo 401865" width="0.541" height="5.432" transform="translate(205.453 202.047)" fill="#d16d00"/>
        <rect id="Rectángulo_401866" data-name="Rectángulo 401866" width="0.541" height="5.432" transform="translate(207.917 202.047)" fill="#d16d00"/>
        <rect id="Rectángulo_401867" data-name="Rectángulo 401867" width="0.541" height="5.432" transform="translate(210.38 202.047)" fill="#d16d00"/>
        <rect id="Rectángulo_401868" data-name="Rectángulo 401868" width="0.541" height="5.432" transform="translate(212.844 202.047)" fill="#d16d00"/>
        <rect id="Rectángulo_401869" data-name="Rectángulo 401869" width="0.541" height="5.432" transform="translate(215.307 202.047)" fill="#d16d00"/>
        <path id="Trazado_876938" data-name="Trazado 876938" d="M298.185,364.212H255.314a1.29,1.29,0,0,1-1.291-1.29v-5.277a1.291,1.291,0,0,1,1.291-1.29h42.871a1.29,1.29,0,0,1,1.29,1.29v5.277a1.29,1.29,0,0,1-1.29,1.29" transform="translate(-116.479 -163.401)" fill="#e5931c"/>
        <rect id="Rectángulo_401870" data-name="Rectángulo 401870" width="0.541" height="5.432" transform="translate(139.058 194.166)" fill="#d16d00"/>
        <rect id="Rectángulo_401871" data-name="Rectángulo 401871" width="0.541" height="5.432" transform="translate(141.522 194.166)" fill="#d16d00"/>
        <rect id="Rectángulo_401872" data-name="Rectángulo 401872" width="0.541" height="5.432" transform="translate(143.985 194.166)" fill="#d16d00"/>
        <rect id="Rectángulo_401873" data-name="Rectángulo 401873" width="0.541" height="5.432" transform="translate(146.449 194.166)" fill="#d16d00"/>
        <rect id="Rectángulo_401874" data-name="Rectángulo 401874" width="0.541" height="5.432" transform="translate(148.913 194.166)" fill="#d16d00"/>
        <rect id="Rectángulo_401875" data-name="Rectángulo 401875" width="0.541" height="5.432" transform="translate(151.377 194.166)" fill="#d16d00"/>
        <rect id="Rectángulo_401876" data-name="Rectángulo 401876" width="0.541" height="5.432" transform="translate(153.84 194.166)" fill="#d16d00"/>
        <rect id="Rectángulo_401877" data-name="Rectángulo 401877" width="0.541" height="5.432" transform="translate(156.305 194.166)" fill="#d16d00"/>
        <rect id="Rectángulo_401878" data-name="Rectángulo 401878" width="0.541" height="5.432" transform="translate(158.768 194.166)" fill="#d16d00"/>
        <rect id="Rectángulo_401879" data-name="Rectángulo 401879" width="0.541" height="5.432" transform="translate(161.232 194.166)" fill="#d16d00"/>
        <rect id="Rectángulo_401880" data-name="Rectángulo 401880" width="0.541" height="5.432" transform="translate(163.696 194.166)" fill="#d16d00"/>
        <rect id="Rectángulo_401881" data-name="Rectángulo 401881" width="0.541" height="5.432" transform="translate(166.16 194.166)" fill="#d16d00"/>
        <rect id="Rectángulo_401882" data-name="Rectángulo 401882" width="0.541" height="5.432" transform="translate(168.623 194.166)" fill="#d16d00"/>
        <rect id="Rectángulo_401883" data-name="Rectángulo 401883" width="0.541" height="5.432" transform="translate(171.088 194.166)" fill="#d16d00"/>
        <rect id="Rectángulo_401884" data-name="Rectángulo 401884" width="0.541" height="5.432" transform="translate(173.551 194.166)" fill="#d16d00"/>
        <rect id="Rectángulo_401885" data-name="Rectángulo 401885" width="0.541" height="5.432" transform="translate(176.016 194.166)" fill="#d16d00"/>
        <rect id="Rectángulo_401886" data-name="Rectángulo 401886" width="0.541" height="5.432" transform="translate(178.479 194.166)" fill="#d16d00"/>
        <rect id="Rectángulo_401887" data-name="Rectángulo 401887" width="0.541" height="5.432" transform="translate(180.943 194.166)" fill="#d16d00"/>
        <path id="Trazado_876939" data-name="Trazado 876939" d="M332.076,349.745H289.2a1.29,1.29,0,0,1-1.29-1.29v-5.277a1.29,1.29,0,0,1,1.29-1.29h42.872a1.291,1.291,0,0,1,1.29,1.29v5.277a1.291,1.291,0,0,1-1.29,1.29" transform="translate(-132.019 -156.768)" fill="#e5931c"/>
        <rect id="Rectángulo_401888" data-name="Rectángulo 401888" width="0.541" height="5.432" transform="translate(157.408 186.333)" fill="#d16d00"/>
        <rect id="Rectángulo_401889" data-name="Rectángulo 401889" width="0.541" height="5.432" transform="translate(159.872 186.333)" fill="#d16d00"/>
        <rect id="Rectángulo_401890" data-name="Rectángulo 401890" width="0.541" height="5.432" transform="translate(162.336 186.333)" fill="#d16d00"/>
        <rect id="Rectángulo_401891" data-name="Rectángulo 401891" width="0.541" height="5.432" transform="translate(164.8 186.333)" fill="#d16d00"/>
        <rect id="Rectángulo_401892" data-name="Rectángulo 401892" width="0.541" height="5.432" transform="translate(167.263 186.333)" fill="#d16d00"/>
        <rect id="Rectángulo_401893" data-name="Rectángulo 401893" width="0.541" height="5.432" transform="translate(169.727 186.333)" fill="#d16d00"/>
        <rect id="Rectángulo_401894" data-name="Rectángulo 401894" width="0.541" height="5.432" transform="translate(172.191 186.333)" fill="#d16d00"/>
        <rect id="Rectángulo_401895" data-name="Rectángulo 401895" width="0.541" height="5.432" transform="translate(174.655 186.333)" fill="#d16d00"/>
        <rect id="Rectángulo_401896" data-name="Rectángulo 401896" width="0.541" height="5.432" transform="translate(177.119 186.333)" fill="#d16d00"/>
        <rect id="Rectángulo_401897" data-name="Rectángulo 401897" width="0.541" height="5.432" transform="translate(179.582 186.333)" fill="#d16d00"/>
        <rect id="Rectángulo_401898" data-name="Rectángulo 401898" width="0.541" height="5.432" transform="translate(182.046 186.333)" fill="#d16d00"/>
        <rect id="Rectángulo_401899" data-name="Rectángulo 401899" width="0.541" height="5.432" transform="translate(184.51 186.333)" fill="#d16d00"/>
        <rect id="Rectángulo_401900" data-name="Rectángulo 401900" width="0.541" height="5.432" transform="translate(186.974 186.333)" fill="#d16d00"/>
        <rect id="Rectángulo_401901" data-name="Rectángulo 401901" width="0.541" height="5.432" transform="translate(189.438 186.333)" fill="#d16d00"/>
        <rect id="Rectángulo_401902" data-name="Rectángulo 401902" width="0.541" height="5.432" transform="translate(191.901 186.333)" fill="#d16d00"/>
        <rect id="Rectángulo_401903" data-name="Rectángulo 401903" width="0.541" height="5.432" transform="translate(194.365 186.333)" fill="#d16d00"/>
        <rect id="Rectángulo_401904" data-name="Rectángulo 401904" width="0.541" height="5.432" transform="translate(196.829 186.333)" fill="#d16d00"/>
        <rect id="Rectángulo_401905" data-name="Rectángulo 401905" width="0.541" height="5.432" transform="translate(199.293 186.333)" fill="#d16d00"/>
        <path id="Trazado_876940" data-name="Trazado 876940" d="M310.816,335.231H267.945a1.29,1.29,0,0,1-1.291-1.29v-5.276a1.291,1.291,0,0,1,1.291-1.291h42.871a1.29,1.29,0,0,1,1.29,1.291v5.276a1.29,1.29,0,0,1-1.29,1.29" transform="translate(-122.27 -150.113)" fill="#e5931c"/>
        <rect id="Rectángulo_401906" data-name="Rectángulo 401906" width="0.541" height="5.432" transform="translate(145.897 178.474)" fill="#d16d00"/>
        <rect id="Rectángulo_401907" data-name="Rectángulo 401907" width="0.541" height="5.432" transform="translate(148.361 178.474)" fill="#d16d00"/>
        <rect id="Rectángulo_401908" data-name="Rectángulo 401908" width="0.541" height="5.432" transform="translate(150.824 178.474)" fill="#d16d00"/>
        <rect id="Rectángulo_401909" data-name="Rectángulo 401909" width="0.541" height="5.432" transform="translate(153.289 178.474)" fill="#d16d00"/>
        <rect id="Rectángulo_401910" data-name="Rectángulo 401910" width="0.541" height="5.432" transform="translate(155.752 178.474)" fill="#d16d00"/>
        <rect id="Rectángulo_401911" data-name="Rectángulo 401911" width="0.541" height="5.432" transform="translate(158.216 178.474)" fill="#d16d00"/>
        <rect id="Rectángulo_401912" data-name="Rectángulo 401912" width="0.541" height="5.432" transform="translate(160.68 178.474)" fill="#d16d00"/>
        <rect id="Rectángulo_401913" data-name="Rectángulo 401913" width="0.541" height="5.432" transform="translate(163.144 178.474)" fill="#d16d00"/>
        <rect id="Rectángulo_401914" data-name="Rectángulo 401914" width="0.541" height="5.432" transform="translate(165.608 178.474)" fill="#d16d00"/>
        <rect id="Rectángulo_401915" data-name="Rectángulo 401915" width="0.541" height="5.432" transform="translate(168.072 178.474)" fill="#d16d00"/>
        <rect id="Rectángulo_401916" data-name="Rectángulo 401916" width="0.541" height="5.432" transform="translate(170.535 178.474)" fill="#d16d00"/>
        <rect id="Rectángulo_401917" data-name="Rectángulo 401917" width="0.541" height="5.432" transform="translate(172.999 178.474)" fill="#d16d00"/>
        <rect id="Rectángulo_401918" data-name="Rectángulo 401918" width="0.541" height="5.432" transform="translate(175.463 178.474)" fill="#d16d00"/>
        <rect id="Rectángulo_401919" data-name="Rectángulo 401919" width="0.541" height="5.432" transform="translate(177.927 178.474)" fill="#d16d00"/>
        <rect id="Rectángulo_401920" data-name="Rectángulo 401920" width="0.541" height="5.432" transform="translate(180.391 178.474)" fill="#d16d00"/>
        <rect id="Rectángulo_401921" data-name="Rectángulo 401921" width="0.541" height="5.432" transform="translate(182.854 178.474)" fill="#d16d00"/>
        <rect id="Rectángulo_401922" data-name="Rectángulo 401922" width="0.541" height="5.432" transform="translate(185.318 178.474)" fill="#d16d00"/>
        <rect id="Rectángulo_401923" data-name="Rectángulo 401923" width="0.541" height="5.432" transform="translate(187.782 178.474)" fill="#d16d00"/>
        <path id="Trazado_876941" data-name="Trazado 876941" d="M352.552,393.189H309.681a1.29,1.29,0,0,1-1.291-1.29v-5.277a1.29,1.29,0,0,1,1.291-1.29h42.871a1.29,1.29,0,0,1,1.29,1.29V391.9a1.29,1.29,0,0,1-1.29,1.29" transform="translate(-141.408 -176.688)" fill="#efac37"/>
        <rect id="Rectángulo_401924" data-name="Rectángulo 401924" width="0.541" height="5.432" transform="translate(168.495 209.857)" fill="#d16d00"/>
        <rect id="Rectángulo_401925" data-name="Rectángulo 401925" width="0.541" height="5.432" transform="translate(170.959 209.857)" fill="#d16d00"/>
        <rect id="Rectángulo_401926" data-name="Rectángulo 401926" width="0.541" height="5.432" transform="translate(173.423 209.857)" fill="#d16d00"/>
        <rect id="Rectángulo_401927" data-name="Rectángulo 401927" width="0.541" height="5.432" transform="translate(175.887 209.857)" fill="#d16d00"/>
        <rect id="Rectángulo_401928" data-name="Rectángulo 401928" width="0.541" height="5.432" transform="translate(178.35 209.857)" fill="#d16d00"/>
        <rect id="Rectángulo_401929" data-name="Rectángulo 401929" width="0.541" height="5.432" transform="translate(180.815 209.857)" fill="#d16d00"/>
        <rect id="Rectángulo_401930" data-name="Rectángulo 401930" width="0.541" height="5.432" transform="translate(183.278 209.857)" fill="#d16d00"/>
        <rect id="Rectángulo_401931" data-name="Rectángulo 401931" width="0.541" height="5.432" transform="translate(185.742 209.857)" fill="#d16d00"/>
        <rect id="Rectángulo_401932" data-name="Rectángulo 401932" width="0.541" height="5.432" transform="translate(188.206 209.857)" fill="#d16d00"/>
        <rect id="Rectángulo_401933" data-name="Rectángulo 401933" width="0.541" height="5.432" transform="translate(190.67 209.857)" fill="#d16d00"/>
        <rect id="Rectángulo_401934" data-name="Rectángulo 401934" width="0.541" height="5.432" transform="translate(193.133 209.857)" fill="#d16d00"/>
        <rect id="Rectángulo_401935" data-name="Rectángulo 401935" width="0.541" height="5.432" transform="translate(195.598 209.857)" fill="#d16d00"/>
        <rect id="Rectángulo_401936" data-name="Rectángulo 401936" width="0.541" height="5.432" transform="translate(198.061 209.857)" fill="#d16d00"/>
        <rect id="Rectángulo_401937" data-name="Rectángulo 401937" width="0.541" height="5.432" transform="translate(200.525 209.857)" fill="#d16d00"/>
        <rect id="Rectángulo_401938" data-name="Rectángulo 401938" width="0.541" height="5.432" transform="translate(202.989 209.857)" fill="#d16d00"/>
        <rect id="Rectángulo_401939" data-name="Rectángulo 401939" width="0.541" height="5.432" transform="translate(205.453 209.857)" fill="#d16d00"/>
        <rect id="Rectángulo_401940" data-name="Rectángulo 401940" width="0.541" height="5.432" transform="translate(207.917 209.857)" fill="#d16d00"/>
        <rect id="Rectángulo_401941" data-name="Rectángulo 401941" width="0.541" height="5.432" transform="translate(210.38 209.857)" fill="#d16d00"/>
        <path id="Trazado_876942" data-name="Trazado 876942" d="M306.03,378.7H263.159a1.29,1.29,0,0,1-1.291-1.29v-5.276a1.291,1.291,0,0,1,1.291-1.291H306.03a1.29,1.29,0,0,1,1.29,1.291v5.276a1.29,1.29,0,0,1-1.29,1.29" transform="translate(-120.076 -170.045)" fill="#efac37"/>
        <rect id="Rectángulo_401942" data-name="Rectángulo 401942" width="0.541" height="5.432" transform="translate(143.305 202.012)" fill="#d16d00"/>
        <rect id="Rectángulo_401943" data-name="Rectángulo 401943" width="0.541" height="5.432" transform="translate(145.769 202.012)" fill="#d16d00"/>
        <rect id="Rectángulo_401944" data-name="Rectángulo 401944" width="0.541" height="5.432" transform="translate(148.233 202.012)" fill="#d16d00"/>
        <rect id="Rectángulo_401945" data-name="Rectángulo 401945" width="0.541" height="5.432" transform="translate(150.697 202.012)" fill="#d16d00"/>
        <rect id="Rectángulo_401946" data-name="Rectángulo 401946" width="0.541" height="5.432" transform="translate(153.161 202.012)" fill="#d16d00"/>
        <rect id="Rectángulo_401947" data-name="Rectángulo 401947" width="0.541" height="5.432" transform="translate(155.625 202.012)" fill="#d16d00"/>
        <rect id="Rectángulo_401948" data-name="Rectángulo 401948" width="0.541" height="5.432" transform="translate(158.088 202.012)" fill="#d16d00"/>
        <rect id="Rectángulo_401949" data-name="Rectángulo 401949" width="0.541" height="5.432" transform="translate(160.552 202.012)" fill="#d16d00"/>
        <rect id="Rectángulo_401950" data-name="Rectángulo 401950" width="0.541" height="5.432" transform="translate(163.016 202.012)" fill="#d16d00"/>
        <rect id="Rectángulo_401951" data-name="Rectángulo 401951" width="0.541" height="5.432" transform="translate(165.48 202.012)" fill="#d16d00"/>
        <rect id="Rectángulo_401952" data-name="Rectángulo 401952" width="0.541" height="5.432" transform="translate(167.943 202.012)" fill="#d16d00"/>
        <rect id="Rectángulo_401953" data-name="Rectángulo 401953" width="0.541" height="5.432" transform="translate(170.407 202.012)" fill="#d16d00"/>
        <rect id="Rectángulo_401954" data-name="Rectángulo 401954" width="0.541" height="5.432" transform="translate(172.871 202.012)" fill="#d16d00"/>
        <rect id="Rectángulo_401955" data-name="Rectángulo 401955" width="0.541" height="5.432" transform="translate(175.335 202.012)" fill="#d16d00"/>
        <rect id="Rectángulo_401956" data-name="Rectángulo 401956" width="0.541" height="5.432" transform="translate(177.799 202.012)" fill="#d16d00"/>
        <rect id="Rectángulo_401957" data-name="Rectángulo 401957" width="0.541" height="5.432" transform="translate(180.262 202.012)" fill="#d16d00"/>
        <rect id="Rectángulo_401958" data-name="Rectángulo 401958" width="0.541" height="5.432" transform="translate(182.726 202.012)" fill="#d16d00"/>
        <rect id="Rectángulo_401959" data-name="Rectángulo 401959" width="0.541" height="5.432" transform="translate(185.19 202.012)" fill="#d16d00"/>
        <path id="Trazado_876943" data-name="Trazado 876943" d="M293.4,349.745H250.527a1.29,1.29,0,0,1-1.291-1.29v-5.277a1.29,1.29,0,0,1,1.291-1.29H293.4a1.29,1.29,0,0,1,1.29,1.29v5.277a1.29,1.29,0,0,1-1.29,1.29" transform="translate(-114.283 -156.768)" fill="#efac37"/>
        <rect id="Rectángulo_401960" data-name="Rectángulo 401960" width="0.541" height="5.432" transform="translate(136.466 186.333)" fill="#d16d00"/>
        <rect id="Rectángulo_401961" data-name="Rectángulo 401961" width="0.541" height="5.432" transform="translate(138.93 186.333)" fill="#d16d00"/>
        <rect id="Rectángulo_401962" data-name="Rectángulo 401962" width="0.541" height="5.432" transform="translate(141.393 186.333)" fill="#d16d00"/>
        <rect id="Rectángulo_401963" data-name="Rectángulo 401963" width="0.541" height="5.432" transform="translate(143.857 186.333)" fill="#d16d00"/>
        <rect id="Rectángulo_401964" data-name="Rectángulo 401964" width="0.541" height="5.432" transform="translate(146.321 186.333)" fill="#d16d00"/>
        <rect id="Rectángulo_401965" data-name="Rectángulo 401965" width="0.541" height="5.432" transform="translate(148.785 186.333)" fill="#d16d00"/>
        <rect id="Rectángulo_401966" data-name="Rectángulo 401966" width="0.541" height="5.432" transform="translate(151.248 186.333)" fill="#d16d00"/>
        <rect id="Rectángulo_401967" data-name="Rectángulo 401967" width="0.541" height="5.432" transform="translate(153.713 186.333)" fill="#d16d00"/>
        <rect id="Rectángulo_401968" data-name="Rectángulo 401968" width="0.541" height="5.432" transform="translate(156.176 186.333)" fill="#d16d00"/>
        <rect id="Rectángulo_401969" data-name="Rectángulo 401969" width="0.541" height="5.432" transform="translate(158.64 186.333)" fill="#d16d00"/>
        <rect id="Rectángulo_401970" data-name="Rectángulo 401970" width="0.541" height="5.432" transform="translate(161.104 186.333)" fill="#d16d00"/>
        <rect id="Rectángulo_401971" data-name="Rectángulo 401971" width="0.541" height="5.432" transform="translate(163.567 186.333)" fill="#d16d00"/>
        <rect id="Rectángulo_401972" data-name="Rectángulo 401972" width="0.541" height="5.432" transform="translate(166.031 186.333)" fill="#d16d00"/>
        <rect id="Rectángulo_401973" data-name="Rectángulo 401973" width="0.541" height="5.432" transform="translate(168.495 186.333)" fill="#d16d00"/>
        <rect id="Rectángulo_401974" data-name="Rectángulo 401974" width="0.541" height="5.432" transform="translate(170.959 186.333)" fill="#d16d00"/>
        <rect id="Rectángulo_401975" data-name="Rectángulo 401975" width="0.541" height="5.432" transform="translate(173.423 186.333)" fill="#d16d00"/>
        <rect id="Rectángulo_401976" data-name="Rectángulo 401976" width="0.541" height="5.432" transform="translate(175.887 186.333)" fill="#d16d00"/>
        <rect id="Rectángulo_401977" data-name="Rectángulo 401977" width="0.541" height="5.432" transform="translate(178.35 186.333)" fill="#d16d00"/>
        <path id="Trazado_876944" data-name="Trazado 876944" d="M345.726,364.255H302.855a1.29,1.29,0,0,1-1.291-1.29v-5.277a1.29,1.29,0,0,1,1.291-1.29h42.871a1.29,1.29,0,0,1,1.29,1.29v5.277a1.29,1.29,0,0,1-1.29,1.29" transform="translate(-138.278 -163.421)" fill="#efac37"/>
        <rect id="Rectángulo_401978" data-name="Rectángulo 401978" width="0.541" height="5.432" transform="translate(164.8 194.19)" fill="#d16d00"/>
        <rect id="Rectángulo_401979" data-name="Rectángulo 401979" width="0.541" height="5.432" transform="translate(167.263 194.19)" fill="#d16d00"/>
        <rect id="Rectángulo_401980" data-name="Rectángulo 401980" width="0.541" height="5.432" transform="translate(169.727 194.19)" fill="#d16d00"/>
        <rect id="Rectángulo_401981" data-name="Rectángulo 401981" width="0.541" height="5.432" transform="translate(172.191 194.19)" fill="#d16d00"/>
        <rect id="Rectángulo_401982" data-name="Rectángulo 401982" width="0.541" height="5.432" transform="translate(174.655 194.19)" fill="#d16d00"/>
        <rect id="Rectángulo_401983" data-name="Rectángulo 401983" width="0.541" height="5.432" transform="translate(177.119 194.19)" fill="#d16d00"/>
        <rect id="Rectángulo_401984" data-name="Rectángulo 401984" width="0.541" height="5.432" transform="translate(179.582 194.19)" fill="#d16d00"/>
        <rect id="Rectángulo_401985" data-name="Rectángulo 401985" width="0.541" height="5.432" transform="translate(182.046 194.19)" fill="#d16d00"/>
        <rect id="Rectángulo_401986" data-name="Rectángulo 401986" width="0.541" height="5.432" transform="translate(184.51 194.19)" fill="#d16d00"/>
        <rect id="Rectángulo_401987" data-name="Rectángulo 401987" width="0.541" height="5.432" transform="translate(186.974 194.19)" fill="#d16d00"/>
        <rect id="Rectángulo_401988" data-name="Rectángulo 401988" width="0.541" height="5.432" transform="translate(189.438 194.19)" fill="#d16d00"/>
        <rect id="Rectángulo_401989" data-name="Rectángulo 401989" width="0.541" height="5.432" transform="translate(191.901 194.19)" fill="#d16d00"/>
        <rect id="Rectángulo_401990" data-name="Rectángulo 401990" width="0.541" height="5.432" transform="translate(194.365 194.19)" fill="#d16d00"/>
        <rect id="Rectángulo_401991" data-name="Rectángulo 401991" width="0.541" height="5.432" transform="translate(196.829 194.19)" fill="#d16d00"/>
        <rect id="Rectángulo_401992" data-name="Rectángulo 401992" width="0.541" height="5.432" transform="translate(199.293 194.19)" fill="#d16d00"/>
        <rect id="Rectángulo_401993" data-name="Rectángulo 401993" width="0.541" height="5.432" transform="translate(201.757 194.19)" fill="#d16d00"/>
        <rect id="Rectángulo_401994" data-name="Rectángulo 401994" width="0.541" height="5.432" transform="translate(204.22 194.19)" fill="#d16d00"/>
        <rect id="Rectángulo_401995" data-name="Rectángulo 401995" width="0.541" height="5.432" transform="translate(206.684 194.19)" fill="#d16d00"/>
        <path id="Trazado_876945" data-name="Trazado 876945" d="M326.742,320.723H283.871a1.291,1.291,0,0,1-1.291-1.29v-5.277a1.291,1.291,0,0,1,1.291-1.29h42.871a1.29,1.29,0,0,1,1.29,1.29v5.277a1.29,1.29,0,0,1-1.29,1.29" transform="translate(-129.573 -143.46)" fill="#efac37"/>
        <rect id="Rectángulo_401996" data-name="Rectángulo 401996" width="0.541" height="5.432" transform="translate(154.521 170.619)" fill="#d16d00"/>
        <rect id="Rectángulo_401997" data-name="Rectángulo 401997" width="0.541" height="5.432" transform="translate(156.984 170.619)" fill="#d16d00"/>
        <rect id="Rectángulo_401998" data-name="Rectángulo 401998" width="0.541" height="5.432" transform="translate(159.448 170.619)" fill="#d16d00"/>
        <rect id="Rectángulo_401999" data-name="Rectángulo 401999" width="0.541" height="5.432" transform="translate(161.912 170.619)" fill="#d16d00"/>
        <rect id="Rectángulo_402000" data-name="Rectángulo 402000" width="0.541" height="5.432" transform="translate(164.376 170.619)" fill="#d16d00"/>
        <rect id="Rectángulo_402001" data-name="Rectángulo 402001" width="0.541" height="5.432" transform="translate(166.839 170.619)" fill="#d16d00"/>
        <rect id="Rectángulo_402002" data-name="Rectángulo 402002" width="0.541" height="5.432" transform="translate(169.303 170.619)" fill="#d16d00"/>
        <rect id="Rectángulo_402003" data-name="Rectángulo 402003" width="0.541" height="5.432" transform="translate(171.767 170.619)" fill="#d16d00"/>
        <rect id="Rectángulo_402004" data-name="Rectángulo 402004" width="0.541" height="5.432" transform="translate(174.231 170.619)" fill="#d16d00"/>
        <rect id="Rectángulo_402005" data-name="Rectángulo 402005" width="0.541" height="5.432" transform="translate(176.695 170.619)" fill="#d16d00"/>
        <rect id="Rectángulo_402006" data-name="Rectángulo 402006" width="0.541" height="5.432" transform="translate(179.158 170.619)" fill="#d16d00"/>
        <rect id="Rectángulo_402007" data-name="Rectángulo 402007" width="0.541" height="5.432" transform="translate(181.622 170.619)" fill="#d16d00"/>
        <rect id="Rectángulo_402008" data-name="Rectángulo 402008" width="0.541" height="5.432" transform="translate(184.086 170.619)" fill="#d16d00"/>
        <rect id="Rectángulo_402009" data-name="Rectángulo 402009" width="0.541" height="5.432" transform="translate(186.55 170.619)" fill="#d16d00"/>
        <rect id="Rectángulo_402010" data-name="Rectángulo 402010" width="0.541" height="5.432" transform="translate(189.013 170.619)" fill="#d16d00"/>
        <rect id="Rectángulo_402011" data-name="Rectángulo 402011" width="0.541" height="5.432" transform="translate(191.478 170.619)" fill="#d16d00"/>
        <rect id="Rectángulo_402012" data-name="Rectángulo 402012" width="0.541" height="5.432" transform="translate(193.941 170.619)" fill="#d16d00"/>
        <rect id="Rectángulo_402013" data-name="Rectángulo 402013" width="0.541" height="5.432" transform="translate(196.406 170.619)" fill="#d16d00"/>
        <path id="Trazado_876946" data-name="Trazado 876946" d="M335.607,335.234H292.736a1.29,1.29,0,0,1-1.291-1.29v-5.276a1.291,1.291,0,0,1,1.291-1.291h42.871a1.29,1.29,0,0,1,1.29,1.291v5.276a1.29,1.29,0,0,1-1.29,1.29" transform="translate(-133.638 -150.114)" fill="#efac37"/>
        <rect id="Rectángulo_402014" data-name="Rectángulo 402014" width="0.541" height="5.432" transform="translate(159.321 178.476)" fill="#d16d00"/>
        <rect id="Rectángulo_402015" data-name="Rectángulo 402015" width="0.541" height="5.432" transform="translate(161.784 178.476)" fill="#d16d00"/>
        <rect id="Rectángulo_402016" data-name="Rectángulo 402016" width="0.541" height="5.432" transform="translate(164.248 178.476)" fill="#d16d00"/>
        <rect id="Rectángulo_402017" data-name="Rectángulo 402017" width="0.541" height="5.432" transform="translate(166.712 178.476)" fill="#d16d00"/>
        <rect id="Rectángulo_402018" data-name="Rectángulo 402018" width="0.541" height="5.432" transform="translate(169.176 178.476)" fill="#d16d00"/>
        <rect id="Rectángulo_402019" data-name="Rectángulo 402019" width="0.541" height="5.432" transform="translate(171.639 178.476)" fill="#d16d00"/>
        <rect id="Rectángulo_402020" data-name="Rectángulo 402020" width="0.541" height="5.432" transform="translate(174.103 178.476)" fill="#d16d00"/>
        <rect id="Rectángulo_402021" data-name="Rectángulo 402021" width="0.541" height="5.432" transform="translate(176.567 178.476)" fill="#d16d00"/>
        <rect id="Rectángulo_402022" data-name="Rectángulo 402022" width="0.541" height="5.432" transform="translate(179.031 178.476)" fill="#d16d00"/>
        <rect id="Rectángulo_402023" data-name="Rectángulo 402023" width="0.541" height="5.432" transform="translate(181.495 178.476)" fill="#d16d00"/>
        <rect id="Rectángulo_402024" data-name="Rectángulo 402024" width="0.541" height="5.432" transform="translate(183.958 178.476)" fill="#d16d00"/>
        <rect id="Rectángulo_402025" data-name="Rectángulo 402025" width="0.541" height="5.432" transform="translate(186.422 178.476)" fill="#d16d00"/>
        <rect id="Rectángulo_402026" data-name="Rectángulo 402026" width="0.541" height="5.432" transform="translate(188.886 178.476)" fill="#d16d00"/>
        <rect id="Rectángulo_402027" data-name="Rectángulo 402027" width="0.541" height="5.432" transform="translate(191.35 178.476)" fill="#d16d00"/>
        <rect id="Rectángulo_402028" data-name="Rectángulo 402028" width="0.541" height="5.432" transform="translate(193.814 178.476)" fill="#d16d00"/>
        <rect id="Rectángulo_402029" data-name="Rectángulo 402029" width="0.541" height="5.432" transform="translate(196.277 178.476)" fill="#d16d00"/>
        <rect id="Rectángulo_402030" data-name="Rectángulo 402030" width="0.541" height="5.432" transform="translate(198.741 178.476)" fill="#d16d00"/>
        <rect id="Rectángulo_402031" data-name="Rectángulo 402031" width="0.541" height="5.432" transform="translate(201.205 178.476)" fill="#d16d00"/>
        <rect id="Rectángulo_402032" data-name="Rectángulo 402032" width="38.071" height="0.541" transform="translate(159.098 176.992)" fill="#d16d00"/>
        <rect id="Rectángulo_402033" data-name="Rectángulo 402033" width="20.017" height="0.541" transform="translate(159.098 184.85)" fill="#d16d00"/>
        <rect id="Rectángulo_402034" data-name="Rectángulo 402034" width="14.538" height="0.541" transform="translate(164.577 192.707)" fill="#d16d00"/>
        <rect id="Rectángulo_402035" data-name="Rectángulo 402035" width="21.378" height="0.541" transform="translate(164.577 200.563)" fill="#d16d00"/>
        <rect id="Rectángulo_402036" data-name="Rectángulo 402036" width="17.681" height="0.541" transform="translate(168.273 208.374)" fill="#d16d00"/>
        <rect id="Rectángulo_402037" data-name="Rectángulo 402037" width="61.35" height="0.541" transform="translate(143.143 80.528)" fill="#7db6f9"/>
        <rect id="Rectángulo_402038" data-name="Rectángulo 402038" width="61.35" height="0.541" transform="translate(143.143 83.226)" fill="#7db6f9"/>
        <path id="Trazado_876947" data-name="Trazado 876947" d="M211.107,356.388a15.821,15.821,0,0,0-2.943-10.194c-7.025-9.535-22.773-12.9-30.954-2.47-7.142,9.105-4.2,22.972,6.026,27.655,5.624,2.575,12.693,3.266,18.436.314a18.277,18.277,0,0,0,9.436-15.3" transform="translate(-79.455 -154.671)" fill="#efac37"/>
        <path id="Trazado_876948" data-name="Trazado 876948" d="M210.485,359.363a12.631,12.631,0,0,0-2.349-8.137c-5.607-7.611-18.178-10.3-24.709-1.972-5.7,7.268-3.353,18.337,4.81,22.075,4.489,2.056,10.132,2.607,14.716.251a14.59,14.59,0,0,0,7.532-12.217" transform="translate(-82.67 -157.8)" fill="#e5931c"/>
        <path id="Trazado_876949" data-name="Trazado 876949" d="M195.972,375.108a19.529,19.529,0,0,1-8.084-1.822,13.936,13.936,0,0,1-7.669-9.523,15.1,15.1,0,0,1,2.759-12.965,13.7,13.7,0,0,1,3.131-2.928l.3.449a13.136,13.136,0,0,0-3.007,2.813,14.561,14.561,0,0,0-2.659,12.5,13.4,13.4,0,0,0,7.368,9.159c4.96,2.271,10.373,2.367,14.48.256a14.072,14.072,0,0,0,7.155-10.007l.532.1a14.615,14.615,0,0,1-7.44,10.39,15,15,0,0,1-6.869,1.577" transform="translate(-82.433 -159.511)" fill="#d16d00"/>
        <path id="Trazado_876950" data-name="Trazado 876950" d="M194.153,370.427l1.15-2.878a12.231,12.231,0,0,1-1.127-.973,4.371,4.371,0,0,1-.7-.828l1.558-2.053a13.331,13.331,0,0,0,1.455,1.4,6.827,6.827,0,0,0,1.859,1.151,4.157,4.157,0,0,0,2.177.385,1.443,1.443,0,0,0,1.153-.941A1.755,1.755,0,0,0,201.32,364a22.993,22.993,0,0,0-1.515-1.917,22.268,22.268,0,0,1-2.262-3.109,3.9,3.9,0,0,1-.214-3.64,3.831,3.831,0,0,1,1.478-1.818,4.321,4.321,0,0,1,2.379-.693l1.185-2.966,1.9.86-.965,2.417c.123.032.252.071.387.116s.26.092.377.138.189.08.259.116.147.08.228.13l1-2.505,1.956.782-1.159,2.9a7.761,7.761,0,0,1,.8.688c.243.241.473.474.69.7l-1.858,1.908q-.549-.6-1.222-1.215a5.371,5.371,0,0,0-1.64-1,3.385,3.385,0,0,0-1.742-.263,1.327,1.327,0,0,0-1.105.883,1.737,1.737,0,0,0,.258,1.683,19.478,19.478,0,0,0,1.545,1.968,22.221,22.221,0,0,1,2.275,3.139,4.067,4.067,0,0,1-1.294,5.471,4.8,4.8,0,0,1-2.559.7l-1.2,3.011-1.877-.979.949-2.373c-.152-.044-.314-.1-.486-.156s-.338-.122-.5-.186l-.285-.114-1.01,2.527Z" transform="translate(-88.715 -160.424)" fill="#d16d00"/>
      </g>
    </g>
  </g>
</svg>
