<svg xmlns="http://www.w3.org/2000/svg" xmlns:xlink="http://www.w3.org/1999/xlink" width="315" height="256" viewBox="0 0 315 256">
  <defs>
    <clipPath id="clip-path">
      <rect id="Rectángulo_401435" data-name="Rectángulo 401435" width="236.388" height="240.466" fill="none"/>
    </clipPath>
  </defs>
  <g id="_21" data-name="21" transform="translate(-600.102 -1872)">
    <rect id="Rectángulo_401343" data-name="Rectángulo 401343" width="315" height="256" transform="translate(600.102 1872)" fill="#116562"/>
    <g id="Grupo_1099932" data-name="Grupo 1099932" transform="translate(639.102 1880)">
      <g id="Grupo_1099925" data-name="Grupo 1099925">
        <g id="Grupo_1099924" data-name="Grupo 1099924" clip-path="url(#clip-path)">
          <path id="Trazado_873727" data-name="Trazado 873727" d="M181.823,78.494A78.493,78.493,0,1,1,103.33,0a78.493,78.493,0,0,1,78.493,78.493" fill="#0e3b26"/>
        </g>
      </g>
      <text id="_" data-name="$" transform="translate(70.571 115.391)" fill="#186340" font-size="104.22" font-family="SegoeUI, Segoe UI"><tspan x="0" y="0">$</tspan></text>
      <g id="Grupo_1099927" data-name="Grupo 1099927">
        <g id="Grupo_1099926" data-name="Grupo 1099926" clip-path="url(#clip-path)">
          <path id="Trazado_873728" data-name="Trazado 873728" d="M3.974,13.19l18,33.887,21.009-9.941,20.451,45.5" fill="none" stroke="#e34b50" stroke-miterlimit="10" stroke-width="9"/>
          <path id="Trazado_873729" data-name="Trazado 873729" d="M67.876,69.488l-4.329,13.29-13.29-4.329" fill="none" stroke="#e34b50" stroke-miterlimit="10" stroke-width="9"/>
          <path id="Trazado_873730" data-name="Trazado 873730" d="M139.428,203.709c0,5.7-26.687,10.328-59.608,10.328s-59.606-4.624-59.606-10.328S46.9,193.381,79.82,193.381s59.608,4.624,59.608,10.328" fill="#11472e"/>
        </g>
      </g>
      <text id="_2" data-name="$" transform="translate(176.126 121.071)" fill="#4f4f4f" font-size="14.883" font-family="SegoeUI, Segoe UI"><tspan x="0" y="0">$</tspan></text>
      <g id="Grupo_1099929" data-name="Grupo 1099929">
        <g id="Grupo_1099928" data-name="Grupo 1099928" clip-path="url(#clip-path)">
          <path id="Trazado_873731" data-name="Trazado 873731" d="M217.664,28.885l-8.506-4.329L201.863,30l-8.5-4.329-7.3,5.441-8.506-4.329-7.295,5.44-8.505-4.329-7.295,5.441L145.956,29l-7.295,5.44-9.292-4.729-.229.016L139.95,183.4l.367-.026,7.822-5.834,8.506,4.33,7.3-5.441,8.5,4.329,7.295-5.441,8.506,4.33,7.295-5.441,8.5,4.329,7.295-5.441,8.506,4.33,7.295-5.441,9.12,4.642.127-.009L225.581,22.98Z" fill="#ccc"/>
          <path id="Trazado_873732" data-name="Trazado 873732" d="M218.05,29.465l-8.111-4.873-7.593,4.873-8.11-4.873-7.593,4.873-8.111-4.873-7.593,4.873-8.11-4.873-7.593,4.873-8.111-4.873-7.593,4.873-8.86-5.324h-.228V176.866h.365l8.141-5.225,8.111,4.873,7.593-4.873,8.111,4.873,7.593-4.873,8.11,4.873,7.593-4.873,8.111,4.873,7.593-4.873,8.11,4.873,7.593-4.873,8.7,5.225h.126V24.176Z" fill="#f2f2f2"/>
          <rect id="Rectángulo_401437" data-name="Rectángulo 401437" width="48.036" height="16.475" transform="translate(164.281 145.687) rotate(-13.943)" fill="none" stroke="#e34b50" stroke-miterlimit="10" stroke-width="3"/>
        </g>
      </g>
      <text id="_3" data-name="$" transform="translate(175.722 128.483)" fill="#4f4f4f" font-size="13.193" font-family="SegoeUI, Segoe UI"><tspan x="0" y="0">$</tspan></text>
      <g id="Grupo_1099931" data-name="Grupo 1099931">
        <g id="Grupo_1099930" data-name="Grupo 1099930" clip-path="url(#clip-path)">
          <line id="Línea_592" data-name="Línea 592" x2="26.951" transform="translate(187.151 124.461)" fill="none" stroke="#4f4f4f" stroke-miterlimit="10" stroke-width="2"/>
          <line id="Línea_593" data-name="Línea 593" x2="26.951" transform="translate(145.559 47.433)" fill="none" stroke="#4f4f4f" stroke-miterlimit="10" stroke-width="2"/>
          <line id="Línea_594" data-name="Línea 594" x2="60.225" transform="translate(145.559 56.084)" fill="none" stroke="#4f4f4f" stroke-miterlimit="10" stroke-width="2"/>
          <line id="Línea_595" data-name="Línea 595" x2="60.225" transform="translate(145.559 65.068)" fill="none" stroke="#4f4f4f" stroke-miterlimit="10" stroke-width="2"/>
          <line id="Línea_596" data-name="Línea 596" x2="60.225" transform="translate(145.559 74.051)" fill="none" stroke="#4f4f4f" stroke-miterlimit="10" stroke-width="2"/>
          <line id="Línea_597" data-name="Línea 597" x2="60.225" transform="translate(145.559 83.035)" fill="none" stroke="#4f4f4f" stroke-miterlimit="10" stroke-width="2"/>
          <line id="Línea_598" data-name="Línea 598" x2="60.225" transform="translate(145.559 92.019)" fill="none" stroke="#4f4f4f" stroke-miterlimit="10" stroke-width="2"/>
          <line id="Línea_599" data-name="Línea 599" x2="60.225" transform="translate(145.559 101.003)" fill="none" stroke="#4f4f4f" stroke-miterlimit="10" stroke-width="2"/>
          <line id="Línea_600" data-name="Línea 600" x2="60.225" transform="translate(145.559 109.987)" fill="none" stroke="#4f4f4f" stroke-miterlimit="10" stroke-width="2"/>
          <path id="Trazado_873733" data-name="Trazado 873733" d="M201.827,27.338a7.357,7.357,0,0,0-5.713-2.458h-.392a.788.788,0,0,0-.562.236l2.544,1.529,2.688,1.614.084-.054a3.851,3.851,0,0,1,.968,2.612v5.965c0,4.676-1.468,4.992-2.153,5.088h-.8c-2.2,0-3.188-1.892-3.188-3.767V33.232a1.34,1.34,0,1,1,2.681,0v5.207a.789.789,0,0,0,1.578,0V33.232a2.918,2.918,0,1,0-5.837,0V38.1c0,3.147,1.96,5.345,4.766,5.345h.9l.053-.007c3.2-.432,3.572-4.007,3.572-6.659V30.817a5.405,5.405,0,0,0-1.2-3.479" fill="#f7b0bf"/>
          <path id="Trazado_873734" data-name="Trazado 873734" d="M69.854,179.47l-26.918-2.23,4.506,29.783h.013c-.029.687,2.829,1.49,6.413,1.8,3.6.31,6.569,0,6.629-.688,0-.01-.005-.019-.005-.029h.016Z" fill="#b58192"/>
          <path id="Trazado_873735" data-name="Trazado 873735" d="M129.875,177.418l-26.913,2.288,9.407,28.615h.013c.086.682,3.038,1,6.622.7,3.6-.295,6.479-1.094,6.422-1.783a.229.229,0,0,0-.01-.028l.017,0Z" fill="#b58192"/>
          <path id="Trazado_873736" data-name="Trazado 873736" d="M16.147,145.127a9.08,9.08,0,0,1-4.813-1.374c-3.323-2.1-4-6.024-3.526-8.991a11.693,11.693,0,0,1,3.133-5.972,23.552,23.552,0,0,0-7.305.1l-.693-4.856c6.048-.865,10.118-.207,13,1.213a14.723,14.723,0,0,1,20.121,9.234l-4.721,1.33a9.783,9.783,0,0,0-8.824-6.925,9.524,9.524,0,0,0-2.074.108,19.529,19.529,0,0,1,1.2,1.767,12.47,12.47,0,0,1,1.554,8.988,6.8,6.8,0,0,1-3.081,4.345,7.761,7.761,0,0,1-3.971,1.03M15.7,131.044a7.55,7.55,0,0,0-3.052,4.492c-.079.492-.385,3,1.306,4.073a3.919,3.919,0,0,0,3.643.278,1.878,1.878,0,0,0,.837-1.314,7.676,7.676,0,0,0-.984-5.26,10.93,10.93,0,0,0-1.75-2.269" fill="#f7b0bf"/>
          <path id="Trazado_873737" data-name="Trazado 873737" d="M137.8,164.758l-7.83-.343,1.378-31.465,7.829.342a12.08,12.08,0,0,1,11.54,12.6l-.321,7.33a12.079,12.079,0,0,1-12.6,11.54" fill="#f7b0bf"/>
          <path id="Trazado_873738" data-name="Trazado 873738" d="M108,114.518s12.12-19.875,28.936-22.35c0,0,5.141,20.122-4.723,31.242,0,0-16.358,7.152-24.213-8.892" fill="#f7b0bf"/>
          <path id="Trazado_873739" data-name="Trazado 873739" d="M90.436,94.593,79.591,111.661l8,17.1L69.108,151.935l10.758-24.55L64.695,107.248,67.35,96.625c-23.544,6.645-40.659,26.759-40.659,50.542,0,29.2,25.8,52.871,57.621,52.871s57.621-23.671,57.621-52.871c0-27.3-22.553-49.768-51.5-52.574" fill="#f7b0bf"/>
          <path id="Trazado_873740" data-name="Trazado 873740" d="M89.245,126.281l-8-17.1L90.508,94.6l-.072-.008L79.59,111.661l7.88,16.846Z" fill="#bd8692"/>
          <path id="Trazado_873741" data-name="Trazado 873741" d="M85.967,197.555c-31.823,0-57.621-23.671-57.621-52.871a49.328,49.328,0,0,1,7.6-26.252,49.537,49.537,0,0,0-9.255,28.734c0,29.2,25.8,52.872,57.621,52.872,21.4,0,40.081-10.709,50.018-26.606-10.271,14.518-28.094,24.123-48.363,24.123" fill="#bd8692"/>
          <path id="Trazado_873742" data-name="Trazado 873742" d="M90.541,189.119c-31.823,0-57.621-23.671-57.621-52.871A48.906,48.906,0,0,1,36.7,117.381a49.643,49.643,0,0,0-10.011,29.786c0,29.2,25.8,52.871,57.621,52.871,24.578,0,45.559-14.122,53.839-34-10.376,13.937-27.828,23.086-47.61,23.086" fill="#db9baa"/>
          <line id="Línea_601" data-name="Línea 601" x1="9.02" y2="9.02" transform="translate(120.499 135.26)" fill="none" stroke="#4f4f4f" stroke-miterlimit="10" stroke-width="5"/>
          <line id="Línea_602" data-name="Línea 602" x1="9.02" y1="9.02" transform="translate(120.499 135.26)" fill="none" stroke="#4f4f4f" stroke-miterlimit="10" stroke-width="5"/>
          <path id="Trazado_873743" data-name="Trazado 873743" d="M88.45,197.28c-31.823,0-57.621-23.671-57.621-52.871,0-16.774,8.521-31.715,21.8-41.4-15.624,9.457-25.937,25.7-25.937,44.159,0,29.2,25.8,52.871,57.621,52.871a60.681,60.681,0,0,0,35.874-11.5A61.089,61.089,0,0,1,88.45,197.28" fill="#f7b0bf"/>
          <path id="Trazado_873744" data-name="Trazado 873744" d="M118.4,118.8c-2.458,4.041-10.546,3.611-18.065-.962s-11.622-11.556-9.164-15.6,10.546-3.611,18.065.962,11.622,11.556,9.164,15.6" fill="#ffbfcd"/>
          <path id="Trazado_873745" data-name="Trazado 873745" d="M112.857,112.245c-1.139,1.873-4.887,1.673-8.371-.446s-5.385-5.354-4.246-7.227,4.886-1.673,8.371.446,5.385,5.354,4.246,7.227" fill="#ffcfd9"/>
          <path id="Trazado_873746" data-name="Trazado 873746" d="M108.6,226.554c0,3.1-15.325,5.607-34.23,5.607s-34.23-2.51-34.23-5.607,15.325-5.607,34.23-5.607,34.23,2.51,34.23,5.607" fill="#11472e"/>
          <path id="Trazado_873747" data-name="Trazado 873747" d="M100.182,229.972,95,228.523a.725.725,0,0,0-.923.678c-.056,2.17-.537,7.541-3.835,9.962a.728.728,0,0,0,.485,1.3c3.425-.167,8.677-1.758,9.98-9.664a.733.733,0,0,0-.522-.829" fill="#b3b3b3"/>
          <path id="Trazado_873748" data-name="Trazado 873748" d="M66.352,218.365l.267-1.178a1.988,1.988,0,0,1,2.378-1.5l38.945,8.828a1.989,1.989,0,0,1,1.5,2.379l-.267,1.177a1.99,1.99,0,0,1-2.379,1.5l-38.945-8.829a1.987,1.987,0,0,1-1.5-2.378" fill="#b3b3b3"/>
          <path id="Trazado_873749" data-name="Trazado 873749" d="M109.211,227.916l.323-1.425a1.574,1.574,0,0,0-1.187-1.883L68.594,215.6a1.574,1.574,0,0,0-1.883,1.187l-.323,1.425Z" fill="#ccc"/>
          <path id="Trazado_873750" data-name="Trazado 873750" d="M107.528,217.139h0a3.073,3.073,0,0,1-2.318-3.677l.216-.954-8.721-1.977-.216.954a3.075,3.075,0,0,1-3.678,2.318l-3.948,17.419a1.839,1.839,0,0,0,1.387,2.2l11.128,2.523a1.84,1.84,0,0,0,2.2-1.388Z" fill="#ccc"/>
          <path id="Trazado_873751" data-name="Trazado 873751" d="M96.489,211.485a3.053,3.053,0,0,1-.269.729l8.918,2.022a3.1,3.1,0,0,1,.072-.774l.216-.954-8.721-1.977Z" fill="#b3b3b3"/>
          <path id="Trazado_873752" data-name="Trazado 873752" d="M94.553,206.753l.265-1.169,14.444,3.274L109,210.027A3.947,3.947,0,0,1,104.276,213l-6.747-1.53a3.946,3.946,0,0,1-2.976-4.721" fill="#ccc"/>
          <path id="Trazado_873753" data-name="Trazado 873753" d="M42.2,214.37l.957-4.222a3.961,3.961,0,0,1,4.738-2.987L70.6,212.309a3.961,3.961,0,0,1,2.987,4.738l-.957,4.222a3.96,3.96,0,0,1-4.738,2.986l-22.708-5.147A3.961,3.961,0,0,1,42.2,214.37" fill="#e34b50"/>
          <path id="Trazado_873754" data-name="Trazado 873754" d="M42.2,214.37l.957-4.222a3.961,3.961,0,0,1,4.738-2.987L70.6,212.309a3.961,3.961,0,0,1,2.987,4.738l-.957,4.222a3.96,3.96,0,0,1-4.738,2.986l-22.708-5.147A3.961,3.961,0,0,1,42.2,214.37" fill="#e34b50"/>
          <path id="Trazado_873755" data-name="Trazado 873755" d="M42.535,212.9l-.73,3.222a2.164,2.164,0,0,0,1.632,2.589l26.212,5.942a2.165,2.165,0,0,0,2.589-1.633l.73-3.221Z" fill="#b33b3f"/>
          <path id="Trazado_873756" data-name="Trazado 873756" d="M72.488,215.13c-.185.9-1.935,1.312-3.909.909s-3.425-1.462-3.241-2.367,1.935-1.312,3.909-.91,3.426,1.463,3.241,2.368" fill="#ff545a"/>
          <path id="Trazado_873757" data-name="Trazado 873757" d="M109.266,208.862c-.235,1.087-3.671,1.266-7.676.4s-7.06-2.448-6.825-3.535,3.672-1.266,7.676-.4,7.06,2.448,6.825,3.535" fill="#e6e6e6"/>
          <path id="Trazado_873758" data-name="Trazado 873758" d="M91.236,220.732l-1.14,5.079-2.128-1.658Z" fill="#b3b3b3"/>
          <path id="Trazado_873759" data-name="Trazado 873759" d="M104.494,224.018c-.6,3.315-1.836,5.866-2.772,5.7s-1.212-2.991-.617-6.306,1.836-5.867,2.772-5.7,1.212,2.992.617,6.307" fill="#e6e6e6"/>
        </g>
      </g>
    </g>
  </g>
</svg>
