<svg xmlns="http://www.w3.org/2000/svg" width="85" height="85" viewBox="0 0 85 85">
  <g id="_26" data-name="26" transform="translate(-835.102 -3210)">
    <ellipse id="Elipse_11506" data-name="Elipse 11506" cx="42.5" cy="42.5" rx="42.5" ry="42.5" transform="translate(835.102 3210)" fill="#b15815"/>
    <g id="sin-dinero" transform="translate(845.102 3213.545)">
      <g id="Grupo_1099998" data-name="Grupo 1099998" transform="translate(0.927 9.382)">
        <g id="Grupo_1099993" data-name="Grupo 1099993" transform="translate(0 6.414)">
          <g id="Grupo_1099979" data-name="Grupo 1099979" transform="translate(0 41.238)">
            <ellipse id="Elipse_11521" data-name="Elipse 11521" cx="30.727" cy="5.855" rx="30.727" ry="5.855" transform="translate(0 0)" fill="#444"/>
            <path id="Trazado_873842" data-name="Trazado 873842" d="M68.953,407.191c0,1.094-1.573,2.117-4.312,2.994-1.392-2.546-12.686-4.53-26.415-4.53s-25.023,1.985-26.415,4.53c-2.739-.877-4.312-1.9-4.312-2.994,0-3.233,13.757-5.855,30.727-5.855S68.953,403.957,68.953,407.191Z" transform="translate(-7.5 -401.336)" fill="#5a5a5a"/>
          </g>
          <g id="Grupo_1099992" data-name="Grupo 1099992">
            <g id="Grupo_1099991" data-name="Grupo 1099991">
              <g id="Grupo_1099989" data-name="Grupo 1099989">
                <g id="Grupo_1099983" data-name="Grupo 1099983">
                  <path id="Trazado_873843" data-name="Trazado 873843" d="M107.529,133.323,81.154,159.7q-1.944.048-3.958.048a143.743,143.743,0,0,1-14.95-.738l-9.886-9.886a1.343,1.343,0,0,1,0-1.9L86.9,112.69a1.34,1.34,0,0,1,1.9,0l18.736,18.736A1.34,1.34,0,0,1,107.529,133.323Z" transform="translate(-46.469 -106.798)" fill="#138b80"/>
                  <path id="Trazado_873844" data-name="Trazado 873844" d="M316.289,112.689l18.736,18.736a1.341,1.341,0,0,1,0,1.9l-2.83,2.83a1.341,1.341,0,0,0,0-1.9L313.457,115.52a1.341,1.341,0,0,0-1.9,0l2.83-2.83A1.341,1.341,0,0,1,316.289,112.689Z" transform="translate(-273.964 -106.797)" fill="#127e73"/>
                  <path id="Trazado_873845" data-name="Trazado 873845" d="M63.063,88.86,31.29,120.633c-2.841-.125-5.533-.325-8.012-.589L7.893,104.66a1.34,1.34,0,0,1,0-1.9L42.429,68.227a1.341,1.341,0,0,1,1.9,0L63.063,86.963A1.343,1.343,0,0,1,63.063,88.86Z" transform="translate(-7.5 -67.834)" fill="#27d1b3"/>
                  <path id="Trazado_873846" data-name="Trazado 873846" d="M30.217,262.22h1.527l1.149,1.418a1.236,1.236,0,0,0,1.921,0l1.149-1.418H37.49a2.473,2.473,0,0,0,2.473-2.473v-7.273a2.472,2.472,0,0,0-1.866-2.395L27.822,260.354a2.472,2.472,0,0,0,2.395,1.866Z" transform="translate(-25.309 -227.544)" fill="#20b69f"/>
                  <path id="Trazado_873847" data-name="Trazado 873847" d="M271.822,68.221l18.737,18.737a1.341,1.341,0,0,1,0,1.9l-2.83,2.83a1.341,1.341,0,0,0,0-1.9L268.99,71.052a1.341,1.341,0,0,0-1.9,0l2.83-2.83a1.341,1.341,0,0,1,1.9,0Z" transform="translate(-234.996 -67.828)" fill="#20b69f"/>
                  <path id="Trazado_873848" data-name="Trazado 873848" d="M72.333,162.649,60.045,150.361a1.341,1.341,0,0,1,0-1.9l28.088-28.088a1.341,1.341,0,0,1,1.9,0l12.288,12.288a1.341,1.341,0,0,1,0,1.9L74.23,162.649a1.341,1.341,0,0,1-1.9,0Z" transform="translate(-53.203 -113.535)" fill="#138b80"/>
                  <path id="Trazado_873849" data-name="Trazado 873849" d="M62.086,294.952a1.336,1.336,0,0,0-.1.119l.847,1.045a1.236,1.236,0,0,0,1.922,0L65.9,294.7h1.527a2.473,2.473,0,0,0,2.473-2.473V287.14Z" transform="translate(-55.245 -260.022)" fill="#127e73"/>
                  <g id="Grupo_1099980" data-name="Grupo 1099980" transform="translate(14.419 14.426)">
                    <ellipse id="Elipse_11522" data-name="Elipse 11522" cx="9.137" cy="10.03" rx="9.137" ry="10.03" transform="translate(0 12.92) rotate(-45)" fill="#fee7c9"/>
                  </g>
                  <g id="Grupo_1099981" data-name="Grupo 1099981" transform="translate(15.035 42.931)">
                    <path id="Trazado_873850" data-name="Trazado 873850" d="M129.092,417.115a7.132,7.132,0,0,1,10.086,0l-4.095,4.095a1.341,1.341,0,0,1-1.9,0Z" transform="translate(-129.092 -415.026)" fill="#fee7c9"/>
                  </g>
                  <g id="Grupo_1099982" data-name="Grupo 1099982" transform="translate(30.834 6.449)">
                    <path id="Trazado_873851" data-name="Trazado 873851" d="M266.956,124.473a7.132,7.132,0,0,1-10.086,0l4.095-4.095a1.341,1.341,0,0,1,1.9,0Z" transform="translate(-256.87 -119.985)" fill="#fee7c9"/>
                  </g>
                </g>
                <g id="Grupo_1099985" data-name="Grupo 1099985" transform="translate(19.051 19.058)">
                  <g id="Grupo_1099984" data-name="Grupo 1099984" transform="translate(0 0)">
                    <ellipse id="Elipse_11523" data-name="Elipse 11523" cx="5.802" cy="6.815" rx="5.802" ry="6.815" transform="translate(0 8.203) rotate(-45)" fill="#27d1b3"/>
                  </g>
                </g>
                <g id="Grupo_1099988" data-name="Grupo 1099988" transform="translate(12.515 17.5)">
                  <g id="Grupo_1099986" data-name="Grupo 1099986" transform="translate(26.648 0)">
                    <circle id="Elipse_11524" data-name="Elipse 11524" cx="2.139" cy="2.139" r="2.139" fill="#27d1b3"/>
                  </g>
                  <g id="Grupo_1099987" data-name="Grupo 1099987" transform="translate(0 16.679)">
                    <circle id="Elipse_11525" data-name="Elipse 11525" cx="2.139" cy="2.139" r="2.139" fill="#27d1b3"/>
                  </g>
                </g>
              </g>
              <path id="Trazado_873852" data-name="Trazado 873852" d="M0,0H8.32V36.956H0Z" transform="translate(24.116 11.203) rotate(-45)" fill="#f8f3f1"/>
              <path id="Trazado_873853" data-name="Trazado 873853" d="M0,0H3.532V36.955H0Z" transform="translate(27.502 7.819) rotate(-45)" fill="#e2e2e2"/>
              <g id="Grupo_1099990" data-name="Grupo 1099990" transform="translate(29.38 10.583)">
                <path id="Trazado_873854" data-name="Trazado 873854" d="M0,0H8.32V9.693H0Z" transform="translate(0 5.882) rotate(-45)" fill="#fb4a59"/>
                <path id="Trazado_873855" data-name="Trazado 873855" d="M0,0H3.532V9.693H0Z" transform="translate(3.385 2.497) rotate(-45)" fill="#f82f40"/>
              </g>
              <path id="Trazado_873856" data-name="Trazado 873856" d="M0,0H8.32V7.775H0Z" transform="translate(44.746 31.835) rotate(-45)" fill="#cecece"/>
              <path id="Trazado_873857" data-name="Trazado 873857" d="M0,0H3.532V7.775H0Z" transform="translate(48.131 28.45) rotate(-45)" fill="#bfbfbf"/>
            </g>
          </g>
        </g>
        <g id="Grupo_1099996" data-name="Grupo 1099996" transform="translate(5.968 0)">
          <g id="Grupo_1099994" data-name="Grupo 1099994" transform="translate(0 5.777)">
            <path id="Trazado_873858" data-name="Trazado 873858" d="M67.222,69.318,65.1,71.477v-8.12a.683.683,0,0,0-.683-.683H61.686a.683.683,0,0,0-.683.683v8.12l-2.121-2.158a.683.683,0,0,0-.966-.008l-1.948,1.915a.683.683,0,0,0-.008.966l6.119,6.226a1.366,1.366,0,0,0,1.948,0l6.119-6.226a.683.683,0,0,0-.008-.966l-1.948-1.915A.683.683,0,0,0,67.222,69.318Z" transform="translate(-55.763 -62.673)" fill="#fb4a59"/>
          </g>
          <g id="Grupo_1099995" data-name="Grupo 1099995" transform="translate(31.746)">
            <path id="Trazado_873859" data-name="Trazado 873859" d="M323.964,22.6l-2.122,2.159v-8.12a.683.683,0,0,0-.683-.683h-2.732a.683.683,0,0,0-.683.683v8.12L315.624,22.6a.683.683,0,0,0-.966-.008l-1.948,1.915a.683.683,0,0,0-.008.966L318.82,31.7a1.366,1.366,0,0,0,1.948,0l6.119-6.226a.683.683,0,0,0-.008-.966L324.93,22.59A.683.683,0,0,0,323.964,22.6Z" transform="translate(-312.505 -15.954)" fill="#fb4a59"/>
          </g>
        </g>
        <g id="Grupo_1099997" data-name="Grupo 1099997" transform="translate(2.435 25.841)">
          <path id="Trazado_873860" data-name="Trazado 873860" d="M36.936,224.941H29.663a2.473,2.473,0,0,0-2.473,2.473v7.273a2.473,2.473,0,0,0,2.473,2.473H31.19l1.149,1.419a1.236,1.236,0,0,0,1.921,0l1.149-1.418h1.527a2.473,2.473,0,0,0,2.473-2.473v-7.273A2.473,2.473,0,0,0,36.936,224.941Z" transform="translate(-27.19 -224.941)" fill="#fb4a59"/>
          <path id="Trazado_873861" data-name="Trazado 873861" d="M70.43,227.412v7.273a2.472,2.472,0,0,1-2.473,2.473H66.43l-1.149,1.418a1.236,1.236,0,0,1-1.921,0l-.772-.953.377-.465h1.526a2.472,2.472,0,0,0,2.473-2.473v-7.273a2.473,2.473,0,0,0-2.473-2.473h3.466A2.473,2.473,0,0,1,70.43,227.412Z" transform="translate(-58.211 -224.939)" fill="#f82f40"/>
        </g>
      </g>
      <g id="Grupo_1099999" data-name="Grupo 1099999" transform="translate(0 8.455)">
        <path id="Trazado_873862" data-name="Trazado 873862" d="M183.4,249.966a6.221,6.221,0,0,0,4.46-1.775c2.624-2.624,2.3-7.214-.716-10.233s-7.609-3.34-10.232-.716-2.3,7.214.716,10.233A8.258,8.258,0,0,0,183.4,249.966Zm-5.178-11.413a4.381,4.381,0,0,1,3.15-1.239,6.418,6.418,0,0,1,4.459,1.956c2.3,2.3,2.617,5.709.716,7.609s-5.314,1.579-7.609-.716-2.617-5.709-.716-7.609Z" transform="translate(-153.478 -207.396)"/>
        <path id="Trazado_873863" data-name="Trazado 873863" d="M204.27,267.294a2.306,2.306,0,0,0,3.261,0l.393-.393a.451.451,0,0,1,.638.638l-1.385,1.385a.927.927,0,0,0,1.311,1.312l.524-.524.235.235a.927.927,0,0,0,1.311-1.312l-.3-.3a2.305,2.305,0,0,0-3.647-2.746l-.393.393a.451.451,0,0,1-.638-.638l.186-.186h0l1.023-1.023a.927.927,0,1,0-1.311-1.311l-.368.368-.235-.235a.927.927,0,1,0-1.312,1.311l.3.3a2.308,2.308,0,0,0,.4,2.725Z" transform="translate(-178.158 -231.131)"/>
        <path id="Trazado_873864" data-name="Trazado 873864" d="M106.447,337.644a3.066,3.066,0,1,0,.9,2.168,3.046,3.046,0,0,0-.9-2.168Zm-1.312,3.024a1.211,1.211,0,1,1,0-1.713h0a1.211,1.211,0,0,1,0,1.713Z" transform="translate(-88.698 -296.153)"/>
        <path id="Trazado_873865" data-name="Trazado 873865" d="M338.047,256.644a.927.927,0,0,0,0-1.312l-3.553-3.553a.927.927,0,1,0-1.311,1.312l3.553,3.553a.928.928,0,0,0,1.311,0Z" transform="translate(-291.746 -221.455)"/>
        <path id="Trazado_873866" data-name="Trazado 873866" d="M58.319,59a56.838,56.838,0,0,0-9.764-1.939L62.643,42.977a2.268,2.268,0,0,0,0-3.208l-9.691-9.692a.927.927,0,0,0-1.312,1.312l4.2,4.2a.415.415,0,0,1,0,.579l-4.269,4.269-1.913-1.913L50.7,37.479a2.269,2.269,0,0,0,0-3.208L38.408,21.982a2.271,2.271,0,0,0-3.208,0l-1.044,1.044-1.913-1.913,4.269-4.269a.413.413,0,0,1,.584,0l.81.81a1.612,1.612,0,0,0,.269,1.894l6.119,6.226a2.277,2.277,0,0,0,1.636.686,2.3,2.3,0,0,0,.681-.1l1.968,1.967a.927.927,0,0,0,1.311-1.312L48.1,25.228l5.581-5.678a1.612,1.612,0,0,0-.02-2.277l-1.948-1.915a1.621,1.621,0,0,0-1.143-.462,1.6,1.6,0,0,0-1.135.482l-.533.542V10.065a1.612,1.612,0,0,0-1.61-1.61H44.563a1.612,1.612,0,0,0-1.61,1.61v5.853l-.532-.542a1.612,1.612,0,0,0-2.277-.02l-.964.948-.771-.771a2.271,2.271,0,0,0-3.207,0L15.476,35.259a3.388,3.388,0,0,0-2.368-.963h-1.39a.927.927,0,0,0,0,1.855h1.39A1.547,1.547,0,0,1,14.653,37.7v7.273a1.547,1.547,0,0,1-1.546,1.546H11.581a.927.927,0,0,0-.721.344L9.712,48.277a.309.309,0,0,1-.48,0L8.082,46.858a.927.927,0,0,0-.721-.344H5.835a1.547,1.547,0,0,1-1.546-1.546V37.7a1.547,1.547,0,0,1,1.546-1.546H7.386a.927.927,0,0,0,0-1.855H5.835a3.4,3.4,0,0,0-3.4,3.4v7.273A3.388,3.388,0,0,0,3.4,47.337L.665,50.07a2.268,2.268,0,0,0,0,3.208l5.4,5.4C1.989,59.812,0,61.194,0,62.889c0,2.148,3.19,3.8,9.753,5.051a123,123,0,0,0,21.9,1.731,123,123,0,0,0,21.9-1.731c6.563-1.251,9.753-2.9,9.753-5.051,0-1.546-1.632-2.818-4.989-3.886ZM41.269,16.851l1.95,1.984a.927.927,0,0,0,1.589-.65V10.31h2.243v7.876a.927.927,0,0,0,1.589.65l1.95-1.984,1.6,1.572-5.947,6.051a.439.439,0,0,1-.626,0l-5.947-6.051ZM32.307,67.816,48.432,51.691l1.437,1.437-14.65,14.65Q33.777,67.81,32.307,67.816Zm-5.43-.069L45.682,48.942l1.438,1.438L29.694,67.805Q28.272,67.788,26.877,67.747Zm-4.41-30.408h0a7.748,7.748,0,0,1,5.54-2.227,9.545,9.545,0,0,1,6.7,2.857l0,0c3.547,3.549,3.831,9.04.63,12.24a7.772,7.772,0,0,1-5.947,2.221,9.809,9.809,0,0,1-9.147-9.147A7.771,7.771,0,0,1,22.468,37.338Zm-5.96,3.337V37.7a3.391,3.391,0,0,0-.087-.76l8.628-8.628,1.913,1.913Zm11.765-9.142L30.237,33.5a10.608,10.608,0,0,0-3.811-.115Zm13.465,1.7L37.167,37.8,31.624,32.26,36.2,27.689Zm-2.555,9.211,1.963,1.963L39.3,46.254a10.608,10.608,0,0,0-.115-3.812Zm-.705-3.328,4.572-4.572,7.2,7.2-4.572,4.572Zm17.274,8.131L51.18,51.817,46.994,47.63l4.572-4.572Zm1.394-9.767a2.256,2.256,0,0,0,.264-.32l3.923,3.923a.413.413,0,0,1,0,.584l-4.268,4.268L55.626,44.5l1.9-1.9a.927.927,0,0,0-1.311-1.312l-1.9,1.9-1.437-1.437Zm-7.639-1.6a.412.412,0,0,1-.121.293l-1.044,1.044-8.19-8.19a8.067,8.067,0,0,0,1.658-1.016l7.576,7.576A.412.412,0,0,1,49.506,35.875ZM36.512,23.294a.414.414,0,0,1,.585,0l3.388,3.388a6.186,6.186,0,0,1-1.764.91l-3.254-3.254Zm-1.628,3.083-4.572,4.572L26.361,27l4.572-4.572ZM1.855,51.675a.413.413,0,0,1,.122-.293l3.1-3.1a3.4,3.4,0,0,0,.76.087H6.919l.848,1.047-.654.654a2.271,2.271,0,0,0,0,3.208L19.4,65.566a2.271,2.271,0,0,0,3.208,0l6.016-6.016a.927.927,0,0,0-1.311-1.312l-1.3,1.3a8.055,8.055,0,0,0-10.009,0L8.424,51.967a.414.414,0,0,1,0-.585l1.141-1.141a2.152,2.152,0,0,0,1.587-.8l.871-1.075h1.084a3.4,3.4,0,0,0,3.4-3.4V43.3L18.5,41.3a10.416,10.416,0,0,0-.107,2.067A11.663,11.663,0,0,0,29.308,54.284q.252.012.5.012a10.3,10.3,0,0,0,1.568-.121l-1,1a.927.927,0,0,0,1.311,1.312l10.77-10.77,1.913,1.913L24.35,67.651c-2.523-.117-4.946-.3-7.22-.531L1.976,51.966a.409.409,0,0,1-.121-.291ZM21.3,64.255a.414.414,0,0,1-.585,0l-3.391-3.391a6.212,6.212,0,0,1,7.366,0ZM1.855,62.889c0-.361,1.042-1.533,5.735-2.686l6.566,6.566c-1.434-.192-2.791-.409-4.055-.65C3.336,64.83,1.855,63.351,1.855,62.889Zm51.353,3.229A106.927,106.927,0,0,1,37.925,67.7l8.958-8.958A59.26,59.26,0,0,1,57.757,60.77c2.924.931,3.7,1.793,3.7,2.119,0,.461-1.481,1.94-8.246,3.229Z" transform="translate(0 -8.455)"/>
        <path id="Trazado_873867" data-name="Trazado 873867" d="M54.852,72.494a2.294,2.294,0,0,0,3.271,0l6.119-6.226a1.612,1.612,0,0,0-.02-2.277l-1.948-1.915a1.6,1.6,0,0,0-1.128-.462h-.014A1.6,1.6,0,0,0,60,62.1l-.533.542V56.784a1.612,1.612,0,0,0-1.61-1.61H55.122a1.612,1.612,0,0,0-1.61,1.61v5.853l-.532-.542a1.6,1.6,0,0,0-1.135-.482,1.623,1.623,0,0,0-1.143.462l-1.948,1.915a1.612,1.612,0,0,0-.02,2.277ZM51.828,63.57l1.95,1.984a.927.927,0,0,0,1.589-.65V57.029h2.243V64.9a.927.927,0,0,0,1.589.65l1.95-1.984,1.6,1.572L56.8,71.194a.439.439,0,0,1-.626,0l-5.947-6.051Z" transform="translate(-42.304 -49.397)"/>
        <path id="Trazado_873868" data-name="Trazado 873868" d="M61.274,254.622a.928.928,0,0,0-1.311,0l-.89.89-.89-.89a.927.927,0,1,0-1.311,1.312l.89.89-.89.89a.927.927,0,0,0,1.311,1.312l.89-.89.89.89a.927.927,0,0,0,1.311-1.312l-.89-.89.89-.89A.927.927,0,0,0,61.274,254.622Z" transform="translate(-49.601 -223.945)"/>
      </g>
    </g>
  </g>
</svg>
