<svg xmlns="http://www.w3.org/2000/svg" width="85" height="85" viewBox="0 0 85 85">
  <g id="_30" data-name="30" transform="translate(-835.102 -3357)">
    <ellipse id="Elipse_11510" data-name="Elipse 11510" cx="42.5" cy="42.5" rx="42.5" ry="42.5" transform="translate(835.102 3357)" fill="#b15815"/>
    <g id="Artboard_01" data-name="Artboard 01" transform="translate(852.104 3374.406)">
      <path id="Trazado_873817" data-name="Trazado 873817" d="M6.942,52.768A17.556,17.556,0,0,1,29.408,26.022l3.765,3.452a17.551,17.551,0,0,1,2.2,3.446l-1.311,17.53a17.623,17.623,0,0,1-1.891,2.317Z" transform="translate(-0.236 -5.065)" fill="#2d9739"/>
      <path id="Trazado_873818" data-name="Trazado 873818" d="M36.792,33.143A17.551,17.551,0,0,0,34.6,29.7l-3.765-3.453-.066-.045a13.5,13.5,0,0,0-14.984,0A17.556,17.556,0,0,0,12.945,52.99H33.589a17.623,17.623,0,0,0,1.891-2.317Z" transform="translate(-1.658 -5.287)" fill="#44bc59"/>
      <path id="Trazado_873819" data-name="Trazado 873819" d="M41.521,32.743a17.617,17.617,0,0,0-1.245-1.737l-1.685-1.545a11.351,11.351,0,0,1-2.616,1.327l-3.337,1.137a.953.953,0,0,0-.638.907v5.244a.933.933,0,0,0,1.42.814l3.353-2.1a22.046,22.046,0,0,0,4.748-4.052Z" transform="translate(-7.338 -6.596)" fill="#2d9739"/>
      <rect id="Rectángulo_401440" data-name="Rectángulo 401440" width="10.686" height="3.053" rx="1.527" transform="translate(13.976 14.88)" fill="#ffc239"/>
      <circle id="Elipse_11520" data-name="Elipse 11520" cx="9.16" cy="9.16" r="9.16" transform="translate(10.159 24.04)" fill="#abe4a3"/>
      <path id="Trazado_873820" data-name="Trazado 873820" d="M22.987,31a9.1,9.1,0,0,0-5,1.49A9.153,9.153,0,0,0,30.66,45.161,9.153,9.153,0,0,0,22.987,31Z" transform="translate(-3.668 -6.96)" fill="#cdf8c8"/>
      <path id="Trazado_873821" data-name="Trazado 873821" d="M19.288,16.87l-2.122-3.817c-.523-1.269.19-3.053,1.359-3.053h9.16c1.169,0,1.882,1.785,1.359,3.053L26.921,16.87Z" transform="translate(-3.786 -1.99)" fill="#2d9739"/>
      <path id="Trazado_873822" data-name="Trazado 873822" d="M24.053,40.343a1.527,1.527,0,1,1,1.527-1.527h1.527a3.053,3.053,0,0,0-2.29-2.945V35H23.29v.872a3.047,3.047,0,0,0,.763,6A1.527,1.527,0,1,1,22.527,43.4H21a3.053,3.053,0,0,0,2.29,2.945v.872h1.527v-.872a3.047,3.047,0,0,0-.763-6Z" transform="translate(-4.734 -7.907)" fill="#2d9739"/>
      <path id="Trazado_873823" data-name="Trazado 873823" d="M37,43h3.053V55.213H37Z" transform="translate(-8.521 -9.8)" fill="#ffc239"/>
      <path id="Trazado_873824" data-name="Trazado 873824" d="M44,36h3.053V53.556H44Z" transform="translate(-10.178 -8.144)" fill="#ffc239"/>
      <path id="Trazado_873825" data-name="Trazado 873825" d="M51,29h3.053V51.9H51Z" transform="translate(-11.835 -6.487)" fill="#ffc239"/>
      <path id="Trazado_873826" data-name="Trazado 873826" d="M35.533,38.493A9.152,9.152,0,0,0,32.1,33.36a.951.951,0,0,0-.1.4V39a.933.933,0,0,0,1.42.814Z" transform="translate(-7.338 -7.519)" fill="#abe4a3"/>
      <path id="Trazado_873827" data-name="Trazado 873827" d="M58,23h3.053V50.48H58Z" transform="translate(-13.491 -5.067)" fill="#ffc239"/>
      <path id="Trazado_873828" data-name="Trazado 873828" d="M30,47h3.053v9.16H30Z" transform="translate(-6.864 -10.747)" fill="#ffc239"/>
      <path id="Trazado_873829" data-name="Trazado 873829" d="M19.769,19a1.511,1.511,0,0,0-.743.2,1.527,1.527,0,0,0,1.507,1.326h7.633a1.511,1.511,0,0,0,.743-.2A1.527,1.527,0,0,0,27.4,19Z" transform="translate(-4.267 -4.12)" fill="#ffd55d"/>
      <path id="Trazado_873830" data-name="Trazado 873830" d="M29.546,13.053c.523-1.269-.19-3.053-1.359-3.053h-7.91a1.137,1.137,0,0,0-1.1,1.512l.006.015,1.13,2.033a3.469,3.469,0,0,0,3.035,1.783h4.921Z" transform="translate(-4.288 -1.99)" fill="#44bc59"/>
      <g id="Grupo_1099977" data-name="Grupo 1099977" transform="translate(24.662 17.933)">
        <path id="Trazado_873831" data-name="Trazado 873831" d="M32,47v6.87A1.527,1.527,0,0,0,33.527,55.4V47Z" transform="translate(-32 -28.68)" fill="#ffd55d"/>
        <path id="Trazado_873832" data-name="Trazado 873832" d="M39,43v9.923a1.527,1.527,0,0,0,1.527,1.527V43Z" transform="translate(-33.657 -27.734)" fill="#ffd55d"/>
        <path id="Trazado_873833" data-name="Trazado 873833" d="M46,36V51.266a1.527,1.527,0,0,0,1.527,1.527V36Z" transform="translate(-35.314 -26.077)" fill="#ffd55d"/>
        <path id="Trazado_873834" data-name="Trazado 873834" d="M53,29V49.61a1.527,1.527,0,0,0,1.527,1.527V29Z" transform="translate(-36.97 -24.42)" fill="#ffd55d"/>
        <path id="Trazado_873835" data-name="Trazado 873835" d="M60,23V48.19a1.527,1.527,0,0,0,1.527,1.527V23Z" transform="translate(-38.627 -23)" fill="#ffd55d"/>
      </g>
      <path id="Trazado_873836" data-name="Trazado 873836" d="M53,11.505a.763.763,0,0,1-.943.943L48.03,11.3c-1.924,6.394-5.675,12.612-11.257,16.1L33.42,29.5A.933.933,0,0,1,32,28.682V23.437a.953.953,0,0,1,.638-.905l3.337-1.137c4.465-1.521,8.842-6.137,9.764-10.857l-3.4-1.7a.763.763,0,0,1-.082-1.318l7.194-4.8a.763.763,0,0,1,1.157.425Z" transform="translate(-7.338 -0.237)" fill="#f3a606"/>
      <path id="Trazado_873837" data-name="Trazado 873837" d="M33.42,27.517l3.353-2.1c5.185-3.24,8.79-8.836,10.819-14.741a1.516,1.516,0,0,1,1.854-.954l2.605.744a.75.75,0,0,0,.621-.095l-2.067-7.23a.763.763,0,0,0-1.157-.425l-7.194,4.8a.763.763,0,0,0,.082,1.318l3.4,1.7c-.923,4.72-5.3,9.336-9.764,10.858l-3.337,1.137a.953.953,0,0,0-.638.9V26.7a.933.933,0,0,0,1.42.814Z" transform="translate(-7.338 -0.237)" fill="#ffc239"/>
      <path id="Trazado_873838" data-name="Trazado 873838" d="M24.053,37.29a1.527,1.527,0,0,1,1.527,1.527h1.527a3.053,3.053,0,0,0-2.29-2.945V35H23.29v.872a3.047,3.047,0,0,0,.763,6A1.527,1.527,0,1,1,22.527,43.4H21a3.053,3.053,0,0,0,2.29,2.945v.872h1.527v-.872a3.047,3.047,0,0,0-.763-6,1.527,1.527,0,1,1,0-3.053Z" transform="translate(-4.734 -7.907)"/>
      <path id="Trazado_873839" data-name="Trazado 873839" d="M50.763,28a.763.763,0,0,0-.763.763v22.9a.763.763,0,0,0,.763.763h3.053a.763.763,0,0,0,.763-.763v-22.9A.763.763,0,0,0,53.817,28Zm2.29,22.9H51.527V29.527h1.527Z" transform="translate(-11.598 -6.25)"/>
      <path id="Trazado_873840" data-name="Trazado 873840" d="M60.817,22H57.763a.763.763,0,0,0-.763.763v27.48a.763.763,0,0,0,.763.763h3.053a.763.763,0,0,0,.763-.763V22.763A.763.763,0,0,0,60.817,22Zm-.763,27.48H58.527V23.527h1.527Z" transform="translate(-13.255 -4.83)"/>
      <path id="Trazado_873841" data-name="Trazado 873841" d="M34.184,46.176h2.691a.763.763,0,0,0,.763-.763V27.856a.763.763,0,0,0-.763-.763H35.6a18.385,18.385,0,0,0-1.646-2.617A31.5,31.5,0,0,0,41.2,12l3.307.946a1.527,1.527,0,0,0,1.883-1.884L44,2.7a1.527,1.527,0,0,0-2.314-.851l-7.2,4.8a1.527,1.527,0,0,0,.164,2.636l2.869,1.434A15.34,15.34,0,0,1,29.244,20.1,18.21,18.21,0,0,0,24.776,18a2.272,2.272,0,0,0-.514-3.574l1.663-2.991a.776.776,0,0,0,.039-.08,3.435,3.435,0,0,0-.32-3.1A2.117,2.117,0,0,0,23.9,7.247h-9.16a2.117,2.117,0,0,0-1.745,1.012,3.435,3.435,0,0,0-.32,3.1.776.776,0,0,0,.039.08l1.663,2.988A2.272,2.272,0,0,0,13.863,18,18.32,18.32,0,0,0,5.02,46.939H1.763v1.527h45.8V46.939H33.613c.2-.248.385-.505.571-.763Zm1.928-1.527H34.585V28.62h1.527Zm3.039-34.2a.763.763,0,0,0-.408-.829l-3.4-1.7,7.194-4.8,2.389,8.36L40.9,10.329a.763.763,0,0,0-.94.514c-2.113,7.023-6,12.588-10.93,15.673l-3.354,2.1a.143.143,0,0,1-.153,0,.186.186,0,0,1-.1-.172V23.2a.192.192,0,0,1,.121-.183l3.337-1.137c4.907-1.672,9.32-6.587,10.267-11.434ZM30.769,33.963V44.649H29.242V33.963ZM27.716,33.2a8.384,8.384,0,0,1-.763,3.484v-.431a.763.763,0,0,0-.763-.763H23.136a.763.763,0,0,0-.763.763v4.759A8.4,8.4,0,1,1,23.9,26.168v2.277a1.72,1.72,0,0,0,.882,1.507,1.663,1.663,0,0,0,1.706-.045l.423-.265A8.392,8.392,0,0,1,27.716,33.2Zm-2.29,3.817v7.633H23.9V37.016ZM14.263,9.109a.659.659,0,0,1,.476-.335H23.9a.659.659,0,0,1,.476.335,1.908,1.908,0,0,1,.192,1.627l-1.88,3.381H15.951l-1.88-3.381a1.908,1.908,0,0,1,.192-1.627ZM15.5,17.17a.763.763,0,0,1,0-1.527h7.633a.763.763,0,1,1,0,1.527ZM2.526,35.49A16.784,16.784,0,0,1,27.4,20.774l-2.344.8A1.713,1.713,0,0,0,23.9,23.2v1.2a9.923,9.923,0,1,0-1.527,18.243v2.771a.763.763,0,0,0,.763.763h3.053a.763.763,0,0,0,.763-.763V39.527a9.9,9.9,0,0,0,.763-1.05v6.936a.763.763,0,0,0,.763.763h3.053a.763.763,0,0,0,.763-.763V33.2a.763.763,0,0,0-.763-.763H29.21a9.923,9.923,0,0,0-.987-3.615l1.617-1.011a21.894,21.894,0,0,0,3-2.273,16.9,16.9,0,0,1,1.017,1.556h-.037a.763.763,0,0,0-.763.763V45.133a16.892,16.892,0,0,1-1.469,1.807H7.051A16.694,16.694,0,0,1,2.526,35.49Z"/>
    </g>
  </g>
</svg>
