<svg xmlns="http://www.w3.org/2000/svg" width="85" height="85" viewBox="0 0 85 85">
  <g id="_32" data-name="32" transform="translate(-298.152 -398)">
    <ellipse id="Elipse_11496" data-name="Elipse 11496" cx="42.5" cy="42.5" rx="42.5" ry="42.5" transform="translate(298.152 398)" fill="#b15815"/>
    <g id="inclusion" transform="translate(283.43 394.991)">
      <path id="Trazado_873991" data-name="Trazado 873991" d="M100.764,103.835V94.407a.8.8,0,0,1,.795-.795h8.306a.8.8,0,0,1,.795.794v9.429h3.359v0a.8.8,0,0,1,.615,1.291l-8.3,10.211a.794.794,0,0,1-1.239.012L96.83,105.178a.794.794,0,0,1,.575-1.343Z" transform="translate(-58.567 -67.95)" fill-rule="evenodd"/>
      <path id="Trazado_873992" data-name="Trazado 873992" d="M74.225,20.116l2.625.406a.795.795,0,0,1,.574,1.161c-.937,1.755-1.907,3.5-2.865,5.25a2.609,2.609,0,0,1,.514,3.417c3.336,1.22,6.048,4.083,6.048,7.718,0,1.3-.083,2.575-.164,3.805-.255,3.908-.48,7.348,2.366,10.519a2.379,2.379,0,0,1-.35,3.556,4.014,4.014,0,0,1-1.135.69,3.366,3.366,0,0,1-3.6-.522c-1.193-1.107-2.879-.96-4.431-.751A5.274,5.274,0,0,1,71.127,58.4a.79.79,0,0,1-.183.086,24.847,24.847,0,0,1-4.414,1.02c1.139.379,4.373,1.432,4.708,1.471a27.086,27.086,0,0,0,6.822-.889c.919-.211,1.919-.442,3.191-.677a4.654,4.654,0,0,1,3.917.622,2.247,2.247,0,0,1,.571,2.85c-.557,1.123-2.073,2.32-4.851,3.147l-.024.008a99.366,99.366,0,0,1-9.928,2.84,14.21,14.21,0,0,1-5.644.428,57.284,57.284,0,0,1-7.6-2.068c-4.276-1.412-6.434-2.124-10.587,1.552l.842,1.413a.792.792,0,0,1-.274,1.086L40.446,75.6a.792.792,0,0,1-1.086-.273L29.835,59.352a.792.792,0,0,1,.274-1.086l7.233-4.312a.792.792,0,0,1,1.086.273l.9,1.507c3.629-2.412,6.541-3.992,9.164-4.712a10.592,10.592,0,0,1,7.954.736l.343.067c2.644-3.392,2.037-7.22,1.808-11.3l-.08-2.46c0-3.716,2.786-6.562,6.174-7.757a2.612,2.612,0,0,1,.49-3.339L63.84,22.8a.792.792,0,0,1,.333-.913l2.366-1.651-1.049-2.632a.795.795,0,0,1,.686-1.082h0l8.049-.511a.793.793,0,0,1,.809,1.02Z" transform="translate(0)" fill-rule="evenodd"/>
      <path id="Trazado_873993" data-name="Trazado 873993" d="M119.682,106.386v9.429a.8.8,0,0,1-.795.795H116.4l6.64,8.173,6.64-8.173h-2.487a.8.8,0,0,1-.795-.795v-9.429Z" transform="translate(-75.896 -79.135)" fill="#d63e3e" fill-rule="evenodd"/>
      <path id="Trazado_873994" data-name="Trazado 873994" d="M164.264,166.73l.686.845,6.64-8.173H169.1a.8.8,0,0,1-.795-.795v-3.349a23.356,23.356,0,0,0-4.045,11.472Z" transform="translate(-117.806 -121.927)" fill="#e83838" fill-rule="evenodd"/>
      <path id="Trazado_873995" data-name="Trazado 873995" d="M325.035,38.133l2.494-4.569-1.674-.259-.639,2.434a.793.793,0,1,1-1.533-.4l1.582-6.021-5.863.372.878,2.2h0l1.184,3.036a.793.793,0,1,1-1.477.577l-.819-2.1-1.607,1.121,1.159,3.61Z" transform="translate(-252.035 -11.65)" fill="#6a8a6a" fill-rule="evenodd"/>
      <g id="Grupo_1100158" data-name="Grupo 1100158" transform="translate(58.547 23.12)">
        <path id="Trazado_873996" data-name="Trazado 873996" d="M326.425,76.538l1.58-2.893q-.6-.122-1.211-.212l-.187.711a.793.793,0,1,1-1.533-.4l.129-.489q-.938-.075-1.9-.076c-.17,0-.339,0-.508.006l.058.149a.793.793,0,1,1-1.477.577l-.246-.632q-1,.092-1.983.266l.962,3Z" transform="translate(-311.972 -73.175)" fill="#8ab28a" fill-rule="evenodd"/>
        <path id="Trazado_873997" data-name="Trazado 873997" d="M327.662,114.748c.221-.088.371-.007.588-.283.434-.552.11-1.472-.412-1.472h-6.79c-.513,0-.839.894-.427,1.454a.582.582,0,0,0,.355.242.8.8,0,0,1,.169.049,11.7,11.7,0,0,1,1.953-.164h2.539A11.834,11.834,0,0,1,327.662,114.748Z" transform="translate(-313.096 -108.04)" fill="#8ab28a" fill-rule="evenodd"/>
        <path id="Trazado_873998" data-name="Trazado 873998" d="M276.737,160.994c1.968-.25,3.915-.26,5.481,1.194a2.107,2.107,0,0,0,2.994-.691.728.728,0,0,0-.173-.817c-3.292-3.669-3.048-7.416-2.769-11.674.077-1.183.157-2.408.157-3.706a6.221,6.221,0,0,0-2.422-4.77,9.48,9.48,0,0,0-6.022-2.055h-2.539a9.557,9.557,0,0,0-6.042,2.072A6.169,6.169,0,0,0,263,145.3c0,1.319.071,2.383.157,3.706.244,3.735.462,7.078-1.715,10.325a34.78,34.78,0,0,0,9.715-.374c.521-.075,1.027-.147,1.686-.231a3.309,3.309,0,0,1,2.858.637,3.068,3.068,0,0,1,1.037,1.631Zm-7.3-8.68a.795.795,0,1,1,1.589,0c0,1.234,1.959,1.874,3.063.934a1.236,1.236,0,0,0,.467-.934c0-2.393-5.12-.316-5.12-4.383a3.071,3.071,0,0,1,2.56-2.888v-.958a.795.795,0,0,1,1.589,0v.958a3.071,3.071,0,0,1,2.56,2.888.795.795,0,0,1-1.589,0c0-1.234-1.959-1.874-3.063-.934a1.237,1.237,0,0,0-.467.934c0,2.351,5.12.291,5.12,4.383a3.071,3.071,0,0,1-2.56,2.887v.958a.795.795,0,1,1-1.589,0V155.2A3.07,3.07,0,0,1,269.435,152.313Z" transform="translate(-261.442 -130.352)" fill="#8ab28a" fill-rule="evenodd"/>
      </g>
      <path id="Trazado_873999" data-name="Trazado 873999" d="M118.352,439.221a.792.792,0,1,1-1.1-1.136l.123-.12a.792.792,0,1,1,1.1,1.136Z" transform="translate(-76.427 -369.271)" fill="#6babff" fill-rule="evenodd"/>
      <path id="Trazado_874000" data-name="Trazado 874000" d="M44.82,338.741l8.714,14.616,5.873-3.5-7.681-12.884c-.187-.234-.092-.066-.222-.372l-.811-1.36Z" transform="translate(-13.22 -279.521)" fill="#60a2d1" fill-rule="evenodd"/>
      <path id="Trazado_874001" data-name="Trazado 874001" d="M113.47,311.56l6.144,10.306c4.676-4.062,7.123-3.255,11.91-1.674a55.952,55.952,0,0,0,7.423,2.023l.043.01c2.587.648,10.742-1.922,14.708-3.233.023-.007.045-.014.068-.019,2.3-.684,3.5-1.555,3.883-2.33a.678.678,0,0,0-.155-.925,3.153,3.153,0,0,0-2.579-.3l-.046.008c-1.2.222-2.2.453-3.124.665a28.376,28.376,0,0,1-7.264.927A.8.8,0,0,1,144.3,317q-.833-.189-3.35-1.006-2.554-.83-6.7-2.253a.794.794,0,0,1,.508-1.505,11.67,11.67,0,0,0,3.976.254,22.564,22.564,0,0,0,4.97-1.029,3.583,3.583,0,0,0,1.935-2.175A1.581,1.581,0,0,0,143.6,307.5l-1.786.252a33.5,33.5,0,0,1-12.455-.005.789.789,0,0,1-.227-.084,9.12,9.12,0,0,0-6.9-.658C119.791,307.681,117,309.209,113.47,311.56Z" transform="translate(-73.33 -254.461)" fill="#d69e8b" fill-rule="evenodd"/>
      <path id="Trazado_874002" data-name="Trazado 874002" d="M178.656,319.211c.981.234,2.037.583,3.241.981a55.942,55.942,0,0,0,7.423,2.023l.043.01c2.587.648,10.742-1.922,14.708-3.233.023-.007.045-.014.068-.019,2.3-.684,3.5-1.555,3.883-2.33a.678.678,0,0,0-.155-.925,3.153,3.153,0,0,0-2.579-.3l-.046.008c-1.2.222-2.2.453-3.124.665a28.375,28.375,0,0,1-7.264.927.8.8,0,0,1-.177-.019q-.833-.189-3.35-1.006-2.554-.83-6.7-2.253a.794.794,0,0,1,.508-1.505,11.672,11.672,0,0,0,3.976.254,22.566,22.566,0,0,0,4.97-1.029,3.583,3.583,0,0,0,1.935-2.175,1.581,1.581,0,0,0-2.043-1.783l-1.786.252a33.5,33.5,0,0,1-12.455-.005.791.791,0,0,1-.227-.084,9.12,9.12,0,0,0-6.9-.658,15.555,15.555,0,0,0-1.61.545A23.51,23.51,0,0,0,178.656,319.211Z" transform="translate(-123.704 -254.461)" fill="#f6bfac" fill-rule="evenodd"/>
    </g>
  </g>
</svg>
