<svg xmlns="http://www.w3.org/2000/svg" width="85" height="85" viewBox="0 0 85 85">
  <g id="_39" data-name="39" transform="translate(-320.203 -428)">
    <ellipse id="Elipse_11496" data-name="Elipse 11496" cx="42.5" cy="42.5" rx="42.5" ry="42.5" transform="translate(320.203 428)" fill="#b15815"/>
    <g id="billetera" transform="translate(337.203 440)">
      <path id="Trazado_874134" data-name="Trazado 874134" d="M27.723,21.056v30.9a.47.47,0,0,0,.47.47H49.28a.47.47,0,0,0,.47-.47v-30.9a.47.47,0,0,0-.47-.47H28.192A.47.47,0,0,0,27.723,21.056Zm0,0" transform="translate(-24.473 -18.173)" fill="#8cbafa"/>
      <path id="Trazado_874135" data-name="Trazado 874135" d="M64.445,20.59h4.217V52.424H64.445Zm0,0" transform="translate(-56.891 -18.176)" fill="#575b7a"/>
      <path id="Trazado_874136" data-name="Trazado 874136" d="M149.78,7.7,134.7,29.242a.47.47,0,0,0,.115.654l17.743,12.424a.47.47,0,0,0,.654-.115l15.081-21.538a.469.469,0,0,0-.115-.654L150.435,7.588A.47.47,0,0,0,149.78,7.7Zm0,0" transform="translate(-118.833 -6.624)" fill="#aed559"/>
      <path id="Trazado_874137" data-name="Trazado 874137" d="M286.879,102.714l-2.181-1.527a.444.444,0,0,1,.069.622l-15.081,21.538a.444.444,0,0,1-.608.147l2.181,1.527a.47.47,0,0,0,.654-.115l15.081-21.538A.47.47,0,0,0,286.879,102.714Zm0,0" transform="translate(-237.535 -89.326)" fill="#7fab38"/>
      <path id="Trazado_874138" data-name="Trazado 874138" d="M224.747,119.543c-2.352-1.647-6.113-.334-8.4,2.933s-2.235,7.25.117,8.9,6.113.334,8.4-2.933S227.1,121.189,224.747,119.543Zm0,0" transform="translate(-189.5 -104.902)" fill="#ffeb96"/>
      <path id="Trazado_874139" data-name="Trazado 874139" d="M7.5,177.222v26.47a3.457,3.457,0,0,0,3.457,3.457h38.2a3.457,3.457,0,0,0,3.457-3.457v-26.47a3.457,3.457,0,0,0-3.457-3.457h-38.2A3.457,3.457,0,0,0,7.5,177.222Zm0,0" transform="translate(-6.621 -153.396)" fill="#f28f88"/>
      <path id="Trazado_874140" data-name="Trazado 874140" d="M340.868,173.766h-2.918a3.457,3.457,0,0,1,3.457,3.457v26.47a3.457,3.457,0,0,1-3.457,3.457h2.918a3.457,3.457,0,0,0,3.457-3.457v-26.47A3.457,3.457,0,0,0,340.868,173.766Zm0,0" transform="translate(-298.332 -153.396)" fill="#ce675d"/>
      <path id="Trazado_874141" data-name="Trazado 874141" d="M297.222,280.656h-7.009a5.436,5.436,0,0,1,0-10.871h7.009a3.637,3.637,0,0,1,3.637,3.637v3.6A3.637,3.637,0,0,1,297.222,280.656Zm0,0" transform="translate(-251.393 -238.159)" fill="#ffd2c0"/>
      <path id="Trazado_874142" data-name="Trazado 874142" d="M297.222,309.124h-7.009A5.437,5.437,0,0,1,284.937,305a5.437,5.437,0,0,0,5.276,6.743h7.009a3.637,3.637,0,0,0,3.637-3.637v-2.616A3.637,3.637,0,0,1,297.222,309.124Zm0,0" transform="translate(-251.393 -269.242)" fill="#edaa9d"/>
      <path id="Trazado_874143" data-name="Trazado 874143" d="M317.512,298.225a2.381,2.381,0,1,1-2.381-2.381A2.381,2.381,0,0,1,317.512,298.225Zm0,0" transform="translate(-276.087 -261.163)" fill="#ce675d"/>
      <path id="Trazado_874144" data-name="Trazado 874144" d="M136.291,348.024a9.743,9.743,0,1,1-9.743-9.743A9.743,9.743,0,0,1,136.291,348.024Zm0,0" transform="translate(-103.112 -298.625)" fill="#ffcd34"/>
      <path id="Trazado_874145" data-name="Trazado 874145" d="M153.574,346.781a9.742,9.742,0,0,1-11.019,15.792,9.742,9.742,0,1,0,11.019-15.792Zm0,0" transform="translate(-125.843 -306.129)" fill="#e69012"/>
      <path id="Trazado_874146" data-name="Trazado 874146" d="M250.81,39.17a.878.878,0,0,0-1.267.283c-.006.011-.013.02-.02.03a.893.893,0,0,1-1.242.219.879.879,0,0,0-1.224.216l-1.281,1.83a.879.879,0,1,0,1.44,1.009l.863-1.233a2.663,2.663,0,0,0,2.355-.471l1.3.908a.879.879,0,1,0,1.008-1.44Zm0,0" transform="translate(-216.823 -34.438)"/>
      <path id="Trazado_874147" data-name="Trazado 874147" d="M357.543,98.084l-.863,1.233a.879.879,0,1,0,1.44,1.008l1.282-1.83a.879.879,0,0,0-.216-1.224.893.893,0,0,1-.219-1.243.326.326,0,0,1,.021-.028.88.88,0,0,0-.167-1.288l-1.929-1.35a.879.879,0,0,0-1.009,1.441l1.3.908A2.662,2.662,0,0,0,357.543,98.084Zm0,0" transform="translate(-313.833 -82.277)"/>
      <path id="Trazado_874148" data-name="Trazado 874148" d="M308.514,290.1a1.487,1.487,0,0,1,1.092.471.879.879,0,0,0,1.279-1.208,3.26,3.26,0,1,0-2.371,5.5,3.237,3.237,0,0,0,2.305-.955.879.879,0,0,0-1.243-1.243,1.5,1.5,0,1,1-1.062-2.564Zm0,0" transform="translate(-269.47 -254.539)"/>
      <path id="Trazado_874149" data-name="Trazado 874149" d="M46.873,30.868V23.826a4.341,4.341,0,0,0-4.336-4.336H37.871a5.76,5.76,0,0,0-2.121-5.568,5.43,5.43,0,0,0-5.019-.486,9.661,9.661,0,0,0-4.606,3.634,10.549,10.549,0,0,0-1.273,2.421H19.129l12.3-17.571L48.505,13.873l-2.6,3.715a.879.879,0,1,0,1.44,1.008l2.835-4.049a1.351,1.351,0,0,0-.33-1.879L32.106.245a1.349,1.349,0,0,0-1.879.33l-4.07,5.812v-3.5a1.351,1.351,0,0,0-1.349-1.349H3.72A1.351,1.351,0,0,0,2.37,2.882V7.7a.879.879,0,1,0,1.758,0v-4.4H6.676v16.2H4.336c-.069,0-.138,0-.207.005V11.212a.879.879,0,0,0-1.758,0v8.75A4.341,4.341,0,0,0,0,23.826V50.3a4.341,4.341,0,0,0,4.336,4.336H10.9a.879.879,0,1,0,0-1.758H4.336A2.58,2.58,0,0,1,1.758,50.3V23.826A2.582,2.582,0,0,1,3.493,21.39c.022-.006.045-.014.066-.022a2.566,2.566,0,0,1,.777-.12h38.2a2.581,2.581,0,0,1,2.578,2.578v6.92H38.82a6.315,6.315,0,1,0,0,12.63h6.295V50.3a2.581,2.581,0,0,1-2.578,2.578H35.818a.879.879,0,1,0,0,1.758h6.718A4.342,4.342,0,0,0,46.873,50.3V43.255a4.524,4.524,0,0,0,3.473-4.395v-3.6A4.526,4.526,0,0,0,46.873,30.868ZM27.566,18.079c2.005-2.864,5.224-4.082,7.176-2.716A4.131,4.131,0,0,1,36.1,19.49H26.753A8.984,8.984,0,0,1,27.566,18.079ZM24.4,8.9,16.983,19.49H12.65V3.291H24.4ZM8.434,3.291h2.457v16.2H8.434ZM48.587,38.859a2.761,2.761,0,0,1-2.759,2.759H38.82a4.557,4.557,0,1,1,0-9.113h7.009a2.761,2.761,0,0,1,2.759,2.759Zm0,0" transform="translate(0 0)"/>
      <path id="Trazado_874150" data-name="Trazado 874150" d="M119.931,330.777A10.622,10.622,0,1,0,130.553,341.4,10.634,10.634,0,0,0,119.931,330.777Zm0,19.486a8.864,8.864,0,1,1,8.864-8.864A8.874,8.874,0,0,1,119.931,350.263Zm0,0" transform="translate(-96.495 -292.001)"/>
      <path id="Trazado_874151" data-name="Trazado 874151" d="M175.747,376.362h-1.5a.8.8,0,1,1,0-1.6h2.87a.879.879,0,0,0,0-1.758h-1.079v-.743a.879.879,0,1,0-1.758,0V373h-.032a2.56,2.56,0,1,0,0,5.12h1.5a.8.8,0,0,1,0,1.6h-2.87a.879.879,0,0,0,0,1.758h1.4v.743a.879.879,0,1,0,1.758,0v-.76a2.56,2.56,0,0,0-.291-5.1Zm0,0" transform="translate(-151.561 -327.843)"/>
    </g>
  </g>
</svg>
