<svg xmlns="http://www.w3.org/2000/svg" width="83" height="83" viewBox="0 0 83 83">
  <g id="_46" data-name="46" transform="translate(-764.781 -2278.536)">
    <rect id="Rectángulo_401243" data-name="Rectángulo 401243" width="83" height="83" transform="translate(764.781 2278.536)" fill="none"/>
    <g id="certificado" transform="translate(720.282 2284.536)">
      <path id="Trazado_874400" data-name="Trazado 874400" d="M59.547,26.349A1.047,1.047,0,0,0,60.594,25.3V2.444a.35.35,0,0,1,.349-.349H91.5a1.048,1.048,0,1,0,0-2.1H60.944A2.447,2.447,0,0,0,58.5,2.444V25.3A1.047,1.047,0,0,0,59.547,26.349Z" transform="translate(0)" fill="#201144"/>
      <path id="Trazado_874401" data-name="Trazado 874401" d="M113.675,51.413a10.109,10.109,0,0,0-.532-3.247,1.048,1.048,0,1,0-1.985.672,8.039,8.039,0,1,1-2.4-3.54,1.048,1.048,0,1,0,1.359-1.595,10.127,10.127,0,0,0-5.519-2.361V2.444A2.447,2.447,0,0,0,102.151,0H96.383a1.048,1.048,0,0,0,0,2.1h5.767a.35.35,0,0,1,.349.349v38.9a10.056,10.056,0,0,0-4.306,1.482H79.77a1.048,1.048,0,0,0,0,2.1H95.785a10.151,10.151,0,0,0-1.322,2.025H79.77a1.048,1.048,0,0,0,0,2.1H93.7a10.092,10.092,0,0,0,2.2,9.01H86.754a1.048,1.048,0,1,0,0,2.1H96.4v3.413H60.943a.35.35,0,0,1-.349-.349v-33a1.048,1.048,0,0,0-2.1,0v33a2.447,2.447,0,0,0,2.444,2.444H96.4v4.117a1.748,1.748,0,0,0,2.737,1.443l4.411-3.019,4.411,3.019a1.749,1.749,0,0,0,2.737-1.443V58.581A10.1,10.1,0,0,0,113.675,51.413Zm-5.075,17.7-4.065-2.782a1.739,1.739,0,0,0-1.975,0L98.5,69.112V60.184a10.09,10.09,0,0,0,10.1,0v8.928Z" transform="translate(0)" fill="#201144"/>
      <path id="Trazado_874402" data-name="Trazado 874402" d="M344.435,335.341a3.83,3.83,0,0,1-2.051-.592,1.048,1.048,0,0,0-1.121,1.77A5.937,5.937,0,1,0,338.5,331.5a1.048,1.048,0,0,0,2.1,0,3.841,3.841,0,1,1,3.841,3.841Z" transform="translate(-240.887 -280.087)" fill="#201144"/>
      <path id="Trazado_874403" data-name="Trazado 874403" d="M93.025,287.195h5.322a1.863,1.863,0,0,0,1.61-.93l2.662-4.616a1.864,1.864,0,0,0,0-1.857l-2.662-4.616a1.863,1.863,0,0,0-1.61-.93H93.025a1.864,1.864,0,0,0-1.61.93l-2.662,4.616a1.864,1.864,0,0,0,0,1.857l2.662,4.617A1.864,1.864,0,0,0,93.025,287.195Zm.137-10.854h5.048l2.525,4.38-2.525,4.38H93.161l-2.525-4.38Z" transform="translate(-25.815 -235.937)" fill="#201144"/>
      <path id="Trazado_874404" data-name="Trazado 874404" d="M89.547,417.658h13.1a1.048,1.048,0,1,0,0-2.1h-13.1a1.048,1.048,0,1,0,0,2.1Z" transform="translate(-25.809 -357.515)" fill="#201144"/>
      <path id="Trazado_874405" data-name="Trazado 874405" d="M212.007,368.158a1.048,1.048,0,0,0,0-2.1h-7.683a1.048,1.048,0,1,0,0,2.1Z" transform="translate(-124.554 -314.929)" fill="#201144"/>
      <path id="Trazado_874406" data-name="Trazado 874406" d="M98.482,144.451H92.339a1.5,1.5,0,0,0-1.071.444l-2.327,2.326a1.515,1.515,0,0,0,.029,2.17l5.4,5.121a1.515,1.515,0,0,0,2.085,0l5.4-5.121a1.515,1.515,0,0,0,.029-2.17l-2.326-2.327a1.506,1.506,0,0,0-1.071-.443Zm-3.072,8.162-4.566-4.332,1.735-1.735h5.662l1.735,1.735Z" transform="translate(-25.809 -124.273)" fill="#201144"/>
      <path id="Trazado_874407" data-name="Trazado 874407" d="M250.2,144.5H234.877a1.048,1.048,0,1,0,0,2.1H250.2a1.048,1.048,0,1,0,0-2.1Z" transform="translate(-150.839 -124.315)" fill="#201144"/>
      <path id="Trazado_874408" data-name="Trazado 874408" d="M224.958,175.5a1.047,1.047,0,0,0-1.048-1.048H204.324a1.048,1.048,0,1,0,0,2.1h19.587A1.048,1.048,0,0,0,224.958,175.5Z" transform="translate(-124.554 -150.083)" fill="#201144"/>
      <path id="Trazado_874409" data-name="Trazado 874409" d="M105.657,234.451H89.547a1.048,1.048,0,0,0,0,2.1h16.11a1.048,1.048,0,1,0,0-2.1Z" transform="translate(-25.809 -201.702)" fill="#201144"/>
      <path id="Trazado_874410" data-name="Trazado 874410" d="M234.877,278.658h11.775a1.048,1.048,0,0,0,0-2.1H234.877a1.048,1.048,0,0,0,0,2.1Z" transform="translate(-150.839 -237.931)" fill="#201144"/>
      <path id="Trazado_874411" data-name="Trazado 874411" d="M218.224,205.5a1.047,1.047,0,0,0-1.048-1.048H204.323a1.048,1.048,0,1,0,0,2.1h12.853A1.047,1.047,0,0,0,218.224,205.5Z" transform="translate(-124.553 -175.892)" fill="#201144"/>
      <path id="Trazado_874412" data-name="Trazado 874412" d="M90.943,39.411H95a2.447,2.447,0,0,0,2.444-2.444V32.912A2.447,2.447,0,0,0,95,30.468H90.943A2.447,2.447,0,0,0,88.5,32.912v4.054A2.447,2.447,0,0,0,90.943,39.411Zm-.349-6.5a.35.35,0,0,1,.349-.349H95a.35.35,0,0,1,.349.349v4.054a.35.35,0,0,1-.349.349H90.943a.35.35,0,0,1-.349-.349Z" transform="translate(-25.809 -26.212)" fill="#201144"/>
      <path id="Trazado_874413" data-name="Trazado 874413" d="M195.489,30.468h-24.2a1.048,1.048,0,0,0,0,2.1h24.2a1.048,1.048,0,0,0,0-2.1Z" transform="translate(-96.132 -26.212)" fill="#201144"/>
      <path id="Trazado_874414" data-name="Trazado 874414" d="M178.956,61.516a1.047,1.047,0,0,0-1.048-1.048h-6.62a1.048,1.048,0,0,0,0,2.1h6.621A1.048,1.048,0,0,0,178.956,61.516Z" transform="translate(-96.132 -52.022)" fill="#201144"/>
      <path id="Trazado_874415" data-name="Trazado 874415" d="M89.547,111.467h16.033a1.048,1.048,0,1,0,0-2.1H89.547a1.048,1.048,0,1,0,0,2.1Z" transform="translate(-25.809 -94.094)" fill="#201144"/>
      <path id="Trazado_874416" data-name="Trazado 874416" d="M294.822,60.468h-8.074a1.048,1.048,0,0,0,0,2.1h8.074a1.048,1.048,0,0,0,0-2.1Z" transform="translate(-195.465 -52.022)" fill="#201144"/>
      <circle id="Elipse_11536" data-name="Elipse 11536" cx="1.048" cy="1.048" r="1.048" transform="translate(78.799 20.185)" fill="#201144"/>
      <circle id="Elipse_11537" data-name="Elipse 11537" cx="1.048" cy="1.048" r="1.048" transform="translate(78.799 38.632)" fill="#201144"/>
    </g>
  </g>
</svg>
