<svg xmlns="http://www.w3.org/2000/svg" width="295" height="413.77" viewBox="0 0 295 413.77">
  <g id="_5" data-name="5" transform="translate(-168.051 -459.83)">
    <g id="Grupo_1099796" data-name="Grupo 1099796">
      <rect id="_46999web" data-name="46999web" width="295" height="383.637" rx="11" transform="translate(168.051 489.5)" fill="#0f0721"/>
      <g id="Grupo_1099794" data-name="Grupo 1099794" transform="translate(199.051 459.83)">
        <g id="Grupo_1099795" data-name="Grupo 1099795">
          <path id="Trazado_873426" data-name="Trazado 873426" d="M225.4,177.774a1.015,1.015,0,0,1-.966-.623,37.681,37.681,0,0,0,4.547-19.388,25.318,25.318,0,0,0-7.1-16.75,33.6,33.6,0,0,0-5.346-4.438q-4.174-2.862-7.69-4.859-2.792-1.585-5.25-3.239a23.5,23.5,0,0,1-8.844-10.376q-.469-1.111-.25.075c1.115,6.044,6.549,9.775,11.917,12.747q3.626,2.01,7.242,4.266a27.725,27.725,0,0,1,6.334,5.215,26.632,26.632,0,0,1,6.4,14.357,39.131,39.131,0,0,1-3.244,21.3,84.769,84.769,0,0,0-8.226-4.078q-7.751-3.292-22.359-9.327-.821-.338-3.037-1.4-1.479-.711-3.094-1.3-.716,0-.746.215c-.584-1.317-1.927-1.519-3.094-2.063q-9.248-4.3-18.944-8.37l-1.563-16.842-.663-13.33a38.842,38.842,0,0,0,14.406-21.5q.795-2.954,1.295-5.8a.228.228,0,0,1,.272-.211,11.341,11.341,0,0,0,10.052-4.117c3.827-4.481,5.5-9.538,3.639-15.424-1.26-4-5.386-6.4-9.3-4.227a15.819,15.819,0,0,0-2.515,1.743.22.22,0,0,1-.356-.136c-.628-3.819-1.58-7.835-4.991-9.867a33.328,33.328,0,0,1-8.015-6,51.147,51.147,0,0,1-11.952-22.206,2.151,2.151,0,0,1-.031-.483.977.977,0,0,0-.105-.47.259.259,0,0,0-.325-.145l-2.98.755a7.912,7.912,0,0,0-3.257.373,85.285,85.285,0,0,0-12.123,1.681,15.388,15.388,0,0,0-3.665,1.225,1.512,1.512,0,0,0-1.321.711,2.185,2.185,0,0,1-.667.6,1.255,1.255,0,0,0-1.659-.031.709.709,0,0,1-.377.167,2.827,2.827,0,0,0-1.045.351,17.834,17.834,0,0,0-7.651,9.06c-1.5,3.863-2.827,7.791-4.473,11.592a8.1,8.1,0,0,0-.645,2.383,1.388,1.388,0,0,0-.25,1.3.241.241,0,0,1-.123.312,3.9,3.9,0,0,0-1.11.966q-.268-.281-.522.119A73.107,73.107,0,0,1,98.775,77.614q-.176.158.053.1a3.3,3.3,0,0,0,1.146-.549,35.61,35.61,0,0,0,6-5.522l.922,1.593a36.839,36.839,0,0,1-8.362,7.637l-4.666,2.5-2.8.992a.451.451,0,0,0-.273.575c0,.012.009.024.014.035q3.226,7.242,10.881,7.264a.34.34,0,0,1,.334.277A51.155,51.155,0,0,0,105.859,105a40.95,40.95,0,0,0,8.937,12.1q1.22,1.141,2.282,2.072l-.443,13.537q-.5,6.356-1.646,15.424-.123.992-.456,1.185a29.458,29.458,0,0,0-5.342,1.918q-8.537,4.034-17.162,7.879a2.2,2.2,0,0,0-1.383,1.378q-.053-.329-.764-.149a1.384,1.384,0,0,0-.917.211q-.627.338-.816.413Q74.69,166.3,60.267,172.989a36.966,36.966,0,0,0-8.528,5.4Q50.2,175.1,48.749,171.7a49.012,49.012,0,0,1-3.942-20.661A21.568,21.568,0,0,1,48.828,138.8c3.968-5.579,9.288-10,14.906-13.949,3.806-2.673,6.76-5.535,8.6-9.648q.259-.571-.215-.154a26,26,0,0,1-2.414,2.12C62.971,121.8,57.985,124.94,53.5,129.939a39.54,39.54,0,0,0-7.874,40.035c1.286,3.419,3.582,5.991,5.583,8.88a.586.586,0,0,1-.531.619,26.374,26.374,0,0,1-7.172-12.163c-1.751-7.036-1.971-15.227.193-22.267a41.052,41.052,0,0,1,9.823-16.728,56.045,56.045,0,0,1,9.055-7.55q3.134-2.107,6.365-4.306c2.067-1.4,4.038-2.77,4.53-5.307,1.119-5.759-.132-11.2-1.664-16.934a50.548,50.548,0,0,1-1.672-17.987c.167-1.751.3-3.529.61-5.25A68.623,68.623,0,0,1,80.77,45.515q5.3-8.186,9.525-15.248c1.282-2.142,2.708-4.275,4.13-6.365C105.073,8.236,122.5-2.1,141.746.362c5.768.737,11.342,2.923,15.227,7.163a.4.4,0,0,0,.413.123c11.087-2.792,21.74,5.961,26.871,14.959,3.915,6.869,5.9,14.643,8.928,21.916,1.4,3.349,2.893,6.8,4,10.135a113.5,113.5,0,0,1,4.4,17.676,49.483,49.483,0,0,1,.25,9.613,44.812,44.812,0,0,1-3.051,15.02q-1.62,3.929-2.8,7.6a28.781,28.781,0,0,0-.786,3.41c-1.655,9.095,2.958,15.85,10.495,20.595,2.774,1.743,7.91,4.543,11.763,7.185,8.5,5.838,13.238,15.033,12.518,25.309a46.74,46.74,0,0,1-4.582,16.706m-25-106.537a11.137,11.137,0,0,0-.5-2.383q-.281-.838-.2.039c1,10.188-1.128,20.415-3.094,29.988q-.079.39.145.057a9.152,9.152,0,0,0,.917-1.8,47.33,47.33,0,0,0,3.173-16.42,79.209,79.209,0,0,0-.443-9.485" transform="translate(-23.642 0)" fill="#304352"/>
          <path id="Trazado_873427" data-name="Trazado 873427" d="M223.586,158.813a40.476,40.476,0,0,1-5.693,3.819q-14.358,7.809-29.6,1.475a41.213,41.213,0,0,1-9.046-5.689q-1.062-.93-2.282-2.072a40.95,40.95,0,0,1-8.937-12.1,51.155,51.155,0,0,1-3.832-12.479.34.34,0,0,0-.334-.277q-7.655-.022-10.881-7.264a.449.449,0,0,1,.223-.6l.036-.014,2.8-.992a4.916,4.916,0,0,0,1.339,2.392,4.59,4.59,0,0,0,3.959,1.369,1.17,1.17,0,0,0,1.154-1.374,16.481,16.481,0,0,0-1.786-4.89,36.839,36.839,0,0,0,8.362-7.637l1.159-1.418q.149-.184.294,0a4.827,4.827,0,0,0,4.165,2.1,13.2,13.2,0,0,0,7.378,4.762,4.367,4.367,0,0,0,2.181-.035,19.093,19.093,0,0,0,7.58-3.867,1.568,1.568,0,0,0-.184-1.444c-3.419-5.421-9.354-6.307-15.389-5.614-.711.083-1.154.61-1.914.79a1.4,1.4,0,0,0-.421.176l-1.326.812a.217.217,0,0,1-.36-.11l-.329-.72a.491.491,0,0,1,.039-.509,62.509,62.509,0,0,0,3.52-6.035q.321-.623.259.075a1.775,1.775,0,0,1-.176.623,35.044,35.044,0,0,1-3.331,5.46.306.306,0,0,0,.061.428l.031.02.136.083a.417.417,0,0,0,.54-.105,44.6,44.6,0,0,0,3.889-5.847.5.5,0,0,1,.3-.246,3.223,3.223,0,0,1,1.04-.119,38.006,38.006,0,0,1,8.8,1.163q2.5.685,4.841,1.444c.645.211,1.839.206,2.111-.6,1.295-3.8-8.871-5.1-10.815-5.223q-2.129-.145-4.315-.1a.158.158,0,0,1-.158-.206c2.7-8.493,4.986-17.417,12.909-22.71q5.86-.856,11.64-1.879a30.291,30.291,0,0,0,9.463-2.919l2.98-.755a.259.259,0,0,1,.325.145.977.977,0,0,1,.105.47,2.151,2.151,0,0,0,.031.483,51.147,51.147,0,0,0,11.952,22.206,33.327,33.327,0,0,0,8.015,6c3.411,2.032,4.363,6.048,4.991,9.867a.219.219,0,0,0,.356.136,15.819,15.819,0,0,1,2.515-1.743c3.911-2.173,8.037.228,9.3,4.227,1.857,5.886.189,10.943-3.639,15.424a11.341,11.341,0,0,1-10.052,4.117.228.228,0,0,0-.272.211q-.5,2.844-1.295,5.8a38.842,38.842,0,0,1-14.406,21.5m10.635-57.105c-5.653-4.429-14.647-3.683-21.042-1.576a6.286,6.286,0,0,0-2.2,1.269c-.838.733-1.273,2.208-.285,2.989a1.291,1.291,0,0,0,1.194.193c2.081-.549,4.828-1.571,7.242-2.037a40.438,40.438,0,0,1,11.856-.4c1.194.123,2.274.6,3.468.715a.224.224,0,0,0,.245-.2.261.261,0,0,0,0-.032,1.185,1.185,0,0,0-.478-.922M213.2,114.3a5.049,5.049,0,0,0,2.111,1.712q2.094.878,3.849,1.611a5.066,5.066,0,0,0,2.726.43,6.541,6.541,0,0,0,2.353-.869q.887-.531,1.848-1a17.51,17.51,0,0,0,3.7-2.66.228.228,0,0,0,.021-.322.226.226,0,0,0-.073-.055.289.289,0,0,0-.171-.013,5.712,5.712,0,0,0,5.254-3.924.539.539,0,0,0-.43-.816,6.885,6.885,0,0,0-2.629.465.314.314,0,0,1-.347-.119,2.074,2.074,0,0,0-.882-.663,16.077,16.077,0,0,0-12.58.053,9.925,9.925,0,0,0-5.473,5.285.614.614,0,0,0,.305.811.605.605,0,0,0,.177.049Zm32.556.65q-.843-.426-.04-.913,1.769-1.075,3.63-2.155a1.123,1.123,0,0,0,.6-.8.636.636,0,0,0-.532-.726.629.629,0,0,0-.1-.007c-4.429.022-7.308,2.638-6.961,7.234a2.089,2.089,0,0,0,1.273,1.8.786.786,0,0,1,.149,1.312,20.906,20.906,0,0,0-1.585,1.435c-.7.7-1.448,2.629-.724,3.643a.534.534,0,0,0,.347.228c2.95.588,6.29-3.244,7.585-5.443a2.174,2.174,0,0,0-.119-2.642,10.292,10.292,0,0,0-3.529-2.972m-48.52,20.072q1.567.706,3.011,1.33c2.506,1.084,4.376-.145,6.593-1.154a.36.36,0,0,0,.179-.477.341.341,0,0,0-.034-.059,19.316,19.316,0,0,1-3.384-8.111q-.733-4.3-1.685-9.02a6.39,6.39,0,0,0-1-2.392.4.4,0,0,0-.707.07,2.79,2.79,0,0,0-.2.773,154.5,154.5,0,0,1-3.108,18.361.6.6,0,0,0,.334.68m-17.527.882q5.206-.3,6.5-4.429c1.229-3.9-1.756-6.751-5.144-7.91-3.428-1.168-7.2,1.141-8.809,4.108-1.87,3.463.838,6.918,4.179,7.874a9.8,9.8,0,0,0,3.274.356m40.14-10.534a6.288,6.288,0,0,0-2.076,3.5,5.659,5.659,0,0,0,2.1,5.074,8.349,8.349,0,0,0,5.153,1.87,7.943,7.943,0,0,0,4.486-.9c2.686-1.466,3.713-3.946,2.533-6.724a6.836,6.836,0,0,0-2.085-2.735q-5.338-4.2-10.113-.083m-27.473,19.546a8.513,8.513,0,0,0,5.144,3.792,15.957,15.957,0,0,0,10.06-.527,5.644,5.644,0,0,0,2.976-2.91q2-.785,2.884-1.251a10.676,10.676,0,0,0,2.515-1.944.773.773,0,0,0-.048-1.282l-.206-.18a.736.736,0,0,0-1.038.068c-.012.014-.023.027-.033.041a4.373,4.373,0,0,1-3.024,1.734,64.519,64.519,0,0,1-16.877.25,13.021,13.021,0,0,1-5.724-2.111.742.742,0,0,0-1.128.68,2.253,2.253,0,0,0,1.255,1.9q1.589.887,3.244,1.734" transform="translate(-85.809 -39.25)" fill="#f7bc9e"/>
          <path id="Trazado_873428" data-name="Trazado 873428" d="M262.076,71.672a30.29,30.29,0,0,1-9.463,2.919q-5.781,1.022-11.64,1.879,0-.167.07-.206a2.185,2.185,0,0,0,.667-.6,1.512,1.512,0,0,1,1.321-.711q4.534-.452,8.893-1.229.048-.009,2.493-.36a15.445,15.445,0,0,0,4.4-1.317,7.912,7.912,0,0,1,3.257-.373" transform="translate(-135.202 -40.198)" fill="#e27364"/>
          <path id="Trazado_873429" data-name="Trazado 873429" d="M261.45,72.555a15.446,15.446,0,0,1-4.4,1.317q-2.445.351-2.493.36-4.359.777-8.893,1.229a15.387,15.387,0,0,1,3.665-1.225,85.285,85.285,0,0,1,12.123-1.681" transform="translate(-137.833 -40.708)" fill="#f7bc9e"/>
          <path id="Trazado_873430" data-name="Trazado 873430" d="M211.081,81.746q-.07.04-.07.206c-7.923,5.294-10.205,14.217-12.909,22.71a.162.162,0,0,0,.158.206q2.186-.043,4.315.1c1.944.127,12.11,1.427,10.815,5.223-.272.808-1.466.812-2.111.6q-2.344-.759-4.841-1.444a38.006,38.006,0,0,0-8.8-1.163,3.247,3.247,0,0,0-1.04.119.5.5,0,0,0-.3.246,44.6,44.6,0,0,1-3.889,5.847.417.417,0,0,1-.54.105l-.136-.083a.3.3,0,0,1-.113-.416.3.3,0,0,1,.021-.032,35.022,35.022,0,0,0,3.331-5.46,1.773,1.773,0,0,0,.176-.623q.061-.7-.259-.075a62.511,62.511,0,0,1-3.52,6.035.491.491,0,0,0-.04.509l.329.72a.217.217,0,0,0,.36.11l1.326-.812a1.407,1.407,0,0,1,.421-.176c.759-.18,1.2-.707,1.914-.79,6.035-.694,11.97.193,15.389,5.614a1.568,1.568,0,0,1,.184,1.444q-.584.329-.847-.018a13.138,13.138,0,0,0-3.674-3.292q-.228-.136-.127.11c1.11,2.739.255,5.912-2.84,6.6a4.38,4.38,0,0,1-4.1-.9,4.577,4.577,0,0,1-1.225-4.859q.153-.386.277-.759.1-.285-.2-.268a13.832,13.832,0,0,1-4.49-.158q-.742-.224-.224.356a2.051,2.051,0,0,1,.307,2.331,4.827,4.827,0,0,1-4.165-2.1q-.145-.188-.294,0l-1.159,1.418-.922-1.593q3-3.933,4.833-6.8a18.746,18.746,0,0,0,1.343-2.677,3.9,3.9,0,0,1,1.111-.966.241.241,0,0,0,.123-.312,1.388,1.388,0,0,1,.25-1.3q.957-.048,1.176-.7,1.672-5.012,3.915-10.934a32.5,32.5,0,0,1,3.849-6.909,20.434,20.434,0,0,1,1.887-2.252q.983-1.031,1.94-2.239a2.835,2.835,0,0,1,1.045-.351.706.706,0,0,0,.377-.167,1.256,1.256,0,0,1,1.659.031m-11.54,32.416a8.123,8.123,0,0,0-2.12-.137h0a8.117,8.117,0,0,0-2.12.144,8.114,8.114,0,0,0,2.12.137h0a8.107,8.107,0,0,0,2.12-.144" transform="translate(-105.241 -45.681)" fill="#253038"/>
          <path id="Trazado_873431" data-name="Trazado 873431" d="M217.791,83.275q-.957,1.207-1.94,2.239a20.433,20.433,0,0,0-1.887,2.252,32.489,32.489,0,0,0-3.849,6.909q-2.243,5.921-3.915,10.934-.219.654-1.176.7a8.1,8.1,0,0,1,.645-2.383c1.646-3.8,2.972-7.73,4.473-11.592a17.834,17.834,0,0,1,7.651-9.06" transform="translate(-115.031 -46.723)" fill="#f7bc9e"/>
          <path id="Trazado_873432" data-name="Trazado 873432" d="M286.281,136.566c6.4-2.107,15.389-2.853,21.042,1.576a1.185,1.185,0,0,1,.478.922.224.224,0,0,1-.214.234h-.032c-1.194-.114-2.274-.593-3.468-.715a40.438,40.438,0,0,0-11.856.4c-2.414.465-5.162,1.488-7.242,2.037a1.291,1.291,0,0,1-1.194-.193c-.988-.781-.553-2.256.285-2.989a6.286,6.286,0,0,1,2.2-1.269" transform="translate(-158.911 -75.684)" fill="#253038"/>
          <path id="Trazado_873433" data-name="Trazado 873433" d="M184.449,141.477a18.745,18.745,0,0,1-1.343,2.677q-1.83,2.871-4.833,6.8a35.609,35.609,0,0,1-6,5.522,3.3,3.3,0,0,1-1.146.549q-.228.057-.053-.1A73.107,73.107,0,0,0,183.926,141.6q.255-.4.522-.119" transform="translate(-95.941 -79.313)" fill="#f9c3b8"/>
          <path id="Trazado_873434" data-name="Trazado 873434" d="M305.591,160.247a2,2,0,0,1,.5-1.993.176.176,0,0,0-.132-.294,36.727,36.727,0,0,1-4.688-.316.141.141,0,0,0-.149.2c3.187,7.124-7.659,9.687-8.265,2.84a5.066,5.066,0,0,1,.439-2.7q.114-.228-.114-.11a10.85,10.85,0,0,0-3.955,3.538l-.246-.026a.614.614,0,0,1-.483-.86,9.925,9.925,0,0,1,5.473-5.285,16.077,16.077,0,0,1,12.58-.053,2.074,2.074,0,0,1,.882.663.314.314,0,0,0,.347.119,6.885,6.885,0,0,1,2.629-.465.539.539,0,0,1,.43.816,5.712,5.712,0,0,1-5.254,3.924" transform="translate(-161.839 -86.368)" fill="#253038"/>
          <path id="Trazado_873435" data-name="Trazado 873435" d="M207.3,155.7a8.105,8.105,0,0,1,2.12.137,16.071,16.071,0,0,1-4.24.007,8.145,8.145,0,0,1,2.12-.144" transform="translate(-115.121 -87.361)" fill="#d4c6c2"/>
          <path id="Trazado_873436" data-name="Trazado 873436" d="M397.818,158.725a79.209,79.209,0,0,1,.443,9.485,47.329,47.329,0,0,1-3.173,16.42,9.151,9.151,0,0,1-.917,1.8q-.224.334-.145-.057c1.966-9.573,4.1-19.8,3.094-29.988q-.084-.878.2-.04a11.135,11.135,0,0,1,.5,2.383" transform="translate(-221.064 -87.489)" fill="#b15815"/>
          <path id="Trazado_873437" data-name="Trazado 873437" d="M358.548,166.575a10.292,10.292,0,0,1,3.529,2.972,2.174,2.174,0,0,1,.118,2.642c-1.295,2.2-4.635,6.031-7.585,5.443a.534.534,0,0,1-.347-.228c-.724-1.014.022-2.941.724-3.643a20.9,20.9,0,0,1,1.585-1.435.786.786,0,0,0-.149-1.312,2.089,2.089,0,0,1-1.273-1.8c-.347-4.6,2.533-7.212,6.961-7.234a.636.636,0,0,1,.635.638.629.629,0,0,1-.007.1,1.123,1.123,0,0,1-.6.8q-1.861,1.08-3.63,2.155-.8.487.04.913" transform="translate(-198.6 -90.879)" fill="#e27364"/>
          <path id="Trazado_873438" data-name="Trazado 873438" d="M218.947,165.772a19.093,19.093,0,0,1-7.58,3.867,4.367,4.367,0,0,1-2.181.035,13.2,13.2,0,0,1-7.378-4.762,2.051,2.051,0,0,0-.307-2.331q-.518-.579.224-.356a13.832,13.832,0,0,0,4.49.158q.3-.018.2.268-.123.373-.277.759a4.577,4.577,0,0,0,1.225,4.859,4.381,4.381,0,0,0,4.1.9c3.094-.685,3.95-3.858,2.84-6.6q-.1-.246.127-.11a13.138,13.138,0,0,1,3.674,3.292q.263.347.847.018" transform="translate(-112.936 -90.984)" fill="#fff"/>
          <path id="Trazado_873439" data-name="Trazado 873439" d="M306.591,164.986a.289.289,0,0,1,.171.013.228.228,0,0,1,.108.3.226.226,0,0,1-.055.073,17.509,17.509,0,0,1-3.7,2.66q-.961.469-1.848,1a6.541,6.541,0,0,1-2.353.869,5.066,5.066,0,0,1-2.726-.43q-1.756-.733-3.849-1.611a5.049,5.049,0,0,1-2.111-1.712,10.85,10.85,0,0,1,3.955-3.538q.228-.118.114.11a5.066,5.066,0,0,0-.439,2.7c.606,6.847,11.452,4.284,8.265-2.84a.14.14,0,0,1,.149-.2,36.73,36.73,0,0,0,4.688.316.176.176,0,0,1,.132.294,2,2,0,0,0-.5,1.993" transform="translate(-162.84 -91.107)" fill="#fff"/>
          <path id="Trazado_873440" data-name="Trazado 873440" d="M253.415,192.542a.6.6,0,0,1-.334-.68,154.493,154.493,0,0,0,3.108-18.361,2.792,2.792,0,0,1,.2-.773.4.4,0,0,1,.707-.07,6.389,6.389,0,0,1,1,2.392q.953,4.723,1.686,9.02a19.315,19.315,0,0,0,3.384,8.111.36.36,0,0,1-.086.5.34.34,0,0,1-.059.034c-2.217,1.01-4.086,2.239-6.593,1.154q-1.444-.623-3.011-1.33" transform="translate(-141.987 -96.774)" fill="#e27364"/>
          <path id="Trazado_873441" data-name="Trazado 873441" d="M164.658,184.255a16.482,16.482,0,0,1,1.786,4.89,1.17,1.17,0,0,1-1.154,1.374,4.59,4.59,0,0,1-3.959-1.369,4.916,4.916,0,0,1-1.339-2.392Z" transform="translate(-89.766 -103.38)" fill="#e27364"/>
          <path id="Trazado_873442" data-name="Trazado 873442" d="M203.623,204.028a9.8,9.8,0,0,1-3.274-.356c-3.34-.957-6.048-4.411-4.179-7.874,1.607-2.967,5.381-5.276,8.809-4.108,3.389,1.159,6.373,4.007,5.144,7.91q-1.3,4.126-6.5,4.429" transform="translate(-109.721 -107.378)" fill="#ee9c91"/>
          <path id="Trazado_873443" data-name="Trazado 873443" d="M300.63,197.1a6.288,6.288,0,0,1,2.076-3.5q4.775-4.113,10.113.083a6.836,6.836,0,0,1,2.085,2.735c1.181,2.778.154,5.258-2.533,6.724a7.943,7.943,0,0,1-4.486.9,8.349,8.349,0,0,1-5.153-1.87,5.659,5.659,0,0,1-2.1-5.074" transform="translate(-168.664 -107.477)" fill="#ee9c91"/>
          <path id="Trazado_873444" data-name="Trazado 873444" d="M255.22,235.349q-3.292.356-6.571.746a11.8,11.8,0,0,1-2.177,0q-.869-.057-2.2-.075a49.291,49.291,0,0,1-7.229-1.031q-1.655-.847-3.244-1.734a2.253,2.253,0,0,1-1.255-1.9.742.742,0,0,1,1.128-.68,13.021,13.021,0,0,0,5.724,2.111,64.519,64.519,0,0,0,16.877-.25,4.373,4.373,0,0,0,3.024-1.734.735.735,0,0,1,1.03-.143l.041.033.206.18a.773.773,0,0,1,.048,1.282A10.677,10.677,0,0,1,258.1,234.1q-.887.465-2.884,1.251" transform="translate(-130.47 -129.332)" fill="#dd5d44"/>
          <path id="Trazado_873445" data-name="Trazado 873445" d="M242.792,240.725a49.287,49.287,0,0,0,7.229,1.031q1.335.018,2.2.075a11.8,11.8,0,0,0,2.177,0q3.279-.39,6.571-.746a5.644,5.644,0,0,1-2.976,2.91,15.957,15.957,0,0,1-10.06.527,8.513,8.513,0,0,1-5.144-3.792" transform="translate(-136.223 -135.063)" fill="#e27364"/>
          <path id="Trazado_873446" data-name="Trazado 873446" d="M53.168,325.222q-.158.588-.527.465c-2-2.888-4.3-5.46-5.583-8.88a39.539,39.539,0,0,1,7.874-40.035c4.481-5,9.468-8.142,16.205-12.773a26,26,0,0,0,2.414-2.12q.474-.417.215.154c-1.844,4.113-4.8,6.975-8.6,9.648-5.618,3.95-10.938,8.37-14.906,13.949a21.568,21.568,0,0,0-4.021,12.246,49.012,49.012,0,0,0,3.942,20.661q1.448,3.393,2.989,6.685" transform="translate(-25.071 -146.834)" fill="#b15815"/>
          <path id="Trazado_873447" data-name="Trazado 873447" d="M419.1,327.428a1.371,1.371,0,0,1-1.286-1.089,39.131,39.131,0,0,0,3.244-21.3,26.632,26.632,0,0,0-6.4-14.357,27.725,27.725,0,0,0-6.334-5.214q-3.617-2.256-7.242-4.266c-5.368-2.972-10.8-6.7-11.917-12.747q-.219-1.185.25-.075a23.5,23.5,0,0,0,8.844,10.376q2.458,1.655,5.25,3.239,3.516,2,7.69,4.859a33.6,33.6,0,0,1,5.346,4.438,25.318,25.318,0,0,1,7.1,16.75,37.681,37.681,0,0,1-4.547,19.388" transform="translate(-218.308 -150.277)" fill="#b15815"/>
          <path id="Trazado_873448" data-name="Trazado 873448" d="M212.305,271.495a41.211,41.211,0,0,0,9.046,5.689q15.244,6.334,29.6-1.475a40.472,40.472,0,0,0,5.693-3.819l.663,13.33a34.494,34.494,0,0,1-13.229,7.835,31.128,31.128,0,0,1-19.089.36,28.381,28.381,0,0,1-10.727-5.851,30.228,30.228,0,0,1-2.4-2.533Z" transform="translate(-118.869 -152.327)" fill="#dd5d44"/>
          <path id="Trazado_873449" data-name="Trazado 873449" d="M203.85,302.335a30.228,30.228,0,0,0,2.4,2.533,28.381,28.381,0,0,0,10.727,5.851,31.128,31.128,0,0,0,19.089-.36,34.494,34.494,0,0,0,13.229-7.835l1.563,16.842q.553,2.441,1.211,4.6a35.338,35.338,0,0,1,1.132,4.6q.751,4.723,1.343,9.459a31.1,31.1,0,0,1-3.889,1.83,60.025,60.025,0,0,1-14.647,4.007,84.5,84.5,0,0,1-11.605.5,62.312,62.312,0,0,1-23.127-5.232,24.4,24.4,0,0,1-3.7-2.006q.93-6.843,2.111-11.755a24.788,24.788,0,0,1,1.9-5,3.838,3.838,0,0,0,.149-1.435q.334-.193.456-1.185,1.15-9.068,1.646-15.424" transform="translate(-110.857 -169.631)" fill="#f7bc9e"/>
          <path id="Trazado_873450" data-name="Trazado 873450" d="M156.32,340.175a3.838,3.838,0,0,1-.149,1.435,24.787,24.787,0,0,0-1.9,5q-1.181,4.912-2.111,11.755-.79,4.644-1.137,7.493-.922,7.611-1.694,17.527-1.918,24.527-2.98,41.181a210.211,210.211,0,0,0-.246,26.555q.522,8.379,1.343,16.894,1.251,12.926,2.616,26.116-1.809-.878-6.347-2.906c-5.017-2.239-8.985-5.864-13.322-10.262q.153.044.211-.035a.187.187,0,0,0,0-.167q-.68-2.164-1.2-4.416-2.95-12.712-5.631-24.435-3.086-13.5-5.355-29.145c-.939-6.509-1.466-12.826-1.8-19.274a1.9,1.9,0,0,1,.812-1.672q2.836-2.168,3.8-2.77,4.319-2.695,8.906-5.689a2.251,2.251,0,0,0,.654-.737.367.367,0,0,1,.386-.184.732.732,0,0,1,.448.246.305.305,0,0,0,.431.021l0,0,.083-.079a.2.2,0,0,0,.018-.272,10.133,10.133,0,0,0-1.984-1.738q-5.588-3.8-10.451-7.73a1.158,1.158,0,0,1-.351-1.317c3.95-10.179,7.133-17.259,13.058-30.216a2.2,2.2,0,0,1,1.383-1.378q8.625-3.845,17.162-7.879a29.458,29.458,0,0,1,5.342-1.918" transform="translate(-65.43 -190.861)" fill="#e98a7f"/>
          <path id="Trazado_873451" data-name="Trazado 873451" d="M318.962,341.135q9.7,4.069,18.944,8.37c1.168.544,2.511.746,3.094,2.063q7,14.59,12.839,29.663a6.884,6.884,0,0,1,.439,1.9.394.394,0,0,1-.145.36,27.659,27.659,0,0,1-2.217,1.817,109.233,109.233,0,0,0-9.929,7.374q-.351.294.1.342a3.729,3.729,0,0,1,1.585.487q6.242,3.735,12.321,7.725c.939.615.68,1.6.562,2.792q-1.321,13.2-3.871,26.169a30.242,30.242,0,0,1-4.06-1.33q-6.25-2.537-12.611-4.762a28.046,28.046,0,0,0-6.035-1.479,13.839,13.839,0,0,0-1.9.11,2.179,2.179,0,0,0-1.391.926q-.079-.206-.2-.127a1.162,1.162,0,0,0,.636-1.282,10.818,10.818,0,0,1-.158-1.409q-.755-17.215-1.808-34.636-.68-11.245-2.133-23.926-.14-1.251-.373-2.476-.593-4.736-1.343-9.459a35.347,35.347,0,0,0-1.132-4.6q-.658-2.164-1.211-4.6" transform="translate(-178.959 -191.4)" fill="#e98a7f"/>
          <path id="Trazado_873452" data-name="Trazado 873452" d="M369.918,364.415q6.944,14.52,12.558,29.193c.281.729,1.141,2.748.206,3.494-3.511,2.8-7.637,5.351-11.158,8.331a.167.167,0,0,0-.022.235.162.162,0,0,0,.044.037q5.878,3.494,11.654,7.155a12.95,12.95,0,0,1,1.769,1.326c.821.737.518,2.414.439,3.362a197.609,197.609,0,0,1-3.331,23.25q-.228,1.106-.417,2.414a.232.232,0,0,1-.149.189.664.664,0,0,0-.127.079,1.173,1.173,0,0,0-.527-.224q2.55-12.97,3.871-26.169c.119-1.19.378-2.177-.562-2.792q-6.079-3.99-12.321-7.725a3.728,3.728,0,0,0-1.585-.487q-.452-.048-.1-.342a109.233,109.233,0,0,1,9.929-7.374,27.664,27.664,0,0,0,2.217-1.817.394.394,0,0,0,.145-.36,6.884,6.884,0,0,0-.439-1.9q-5.842-15.073-12.839-29.663.031-.219.746-.215" transform="translate(-207.131 -204.462)" fill="#27110d"/>
          <path id="Trazado_873453" data-name="Trazado 873453" d="M199.5,380.524a1.371,1.371,0,0,0,1.286,1.089,1.015,1.015,0,0,0,.966.623,38.137,38.137,0,0,1,10.719,12.681,62.057,62.057,0,0,1,3.81,8.792A138.312,138.312,0,0,1,221,420.6q.785,3.753,1.971,10.78,2.234,16.017,4.433,32.042,2.555,18.575,4.578,37.213.466,4.288.992,8.722,1.027,8.612,1.655,17.491a105.657,105.657,0,0,1-.14,18.426,39.339,39.339,0,0,1-9.178,21.407,18.188,18.188,0,0,1-8.546,5.869,6.755,6.755,0,0,1-1.589.307,102.452,102.452,0,0,1-16.6-.145q-.325-.026-1.646-.241a9.551,9.551,0,0,0-1.672-.123,1.111,1.111,0,0,0-.7-.351q-3.511-.724-7.071-1.686a1.534,1.534,0,0,1,.145-1.163,2.6,2.6,0,0,0,1.242-1.966.218.218,0,0,0-.189-.268q-10.39-2.4-21-3.814l1.879.035c.035,0,.045-.013.031-.048s-.035-.075-.053-.11a.238.238,0,0,0-.277-.118.118.118,0,0,1-.123-.053q-.07-.114.066-.127c1.295-.114,2.6.057,3.792-.149a58.622,58.622,0,0,0,13.611-3.665,1.3,1.3,0,0,0,.672-1.83,3.554,3.554,0,0,0-2.664-1.6,41.847,41.847,0,0,1,4.5-1.791,28.161,28.161,0,0,0,6.206-3.349.236.236,0,0,0,.083-.1c.018-.038.034-.076.048-.114.047-.12.006-.186-.123-.2l-.25-.026q.672-.4,1.282-.812c1.435-.97.571-2.467-.931-2.476a68.007,68.007,0,0,0-7.269.329,1.132,1.132,0,0,0,.465-.2q.215-.189-.066-.246a4.056,4.056,0,0,0-1.361-.237,15.958,15.958,0,0,1-5.035-.035.1.1,0,0,1-.088-.1.086.086,0,0,1,.088-.11q.983-.07,1.931-.193a1.093,1.093,0,0,0,.658-.316.659.659,0,0,1,.369-.189,11.585,11.585,0,0,0,2.954-.948,21.722,21.722,0,0,1,2.7-1.01,5.541,5.541,0,0,0,1.58-.733,11.232,11.232,0,0,0,1.356-1.1.152.152,0,0,0,.006-.218.16.16,0,0,0-.1-.05l-.373-.039c.838-.32,2.462-1.036,2.9-1.98a.485.485,0,0,0,.013-.408,2.2,2.2,0,0,0-2.045-1.435q-1.18-.1-5.614-.667,1.628-1.576,3.2-2.866.373-.307-.105-.241a.5.5,0,0,1-.233-.07l1.664-.733a.586.586,0,0,0,.325-.338q.79-1.957-.755-2.432a21.011,21.011,0,0,0-3.1-.654q-5.658-.838-11-1.6-1.383-.193-4.113-.312a29.323,29.323,0,0,1-4.117-.456,13.07,13.07,0,0,0,2.006-2.195.351.351,0,0,0-.334-.553.4.4,0,0,1-.233-.092q.566.053.606-.136a.726.726,0,0,0-.421-.812,20.279,20.279,0,0,0-4.811-1.453c-6.07-.988-11.921-1.339-17.6.935a86.714,86.714,0,0,0-8.032,3.836A29.919,29.919,0,0,1,137.8,528.2c-1.822.676-3.744,1.2-5.517,1.984q-.838.373-1.685.729c.012-.108.019-.168.022-.18a.251.251,0,0,0-.194-.3.256.256,0,0,0-.078,0,19.082,19.082,0,0,1-3.674.031.332.332,0,0,1-.307-.259l-.2-.737q-.074-.281-.334-.141a.517.517,0,0,0-.228.465q-.294,4.732-.25,8.046a56.227,56.227,0,0,0,1.264,16.447,2.135,2.135,0,0,1-.342,1.62q-.377-.189-.439.224a11.683,11.683,0,0,0,.132,2.954l-.171,3.683a.811.811,0,0,1-.891.869c-1.923.044-3.985-.162-5.741-.092q-2.445.1-4.885.29a.463.463,0,0,1-.3-.048.307.307,0,0,1-.118-.334,98.6,98.6,0,0,1-1.312-36.712.19.19,0,0,0-.16-.217.177.177,0,0,0-.038,0l-.11.009a.34.34,0,0,0-.351.32,98.006,98.006,0,0,0,.483,32.573,22.244,22.244,0,0,0,1.207,3.959l.11.233a.325.325,0,0,1-.3.465c-1.128-.026-2.186.281-3.266.193a26.253,26.253,0,0,0-3.718-.2q-1.058.061-.145.6l1.953,1.15q.044.448-.035.461a3.917,3.917,0,0,1-1.857-.36,45.63,45.63,0,0,1-5-1.725,6.133,6.133,0,0,0-2.458-.465q-3.507.079-6.918.018-10.495-.193-19.756-.413-4.258-.1-8.77-.149-14.322-.163-28.645-.575a1.4,1.4,0,0,0-.948-.211q-.751.031-.957.018a124.268,124.268,0,0,1-14.774-1.352,14.678,14.678,0,0,0-3.156.013q.7-.079.913-.119,1.361-.255.009-.522a9.383,9.383,0,0,1-1.44-.693,20.04,20.04,0,0,0-2.234-.729q.619-.07-.316-.544a2.282,2.282,0,0,1-.483-.316,53.619,53.619,0,0,1-4.253-4.236c-.676-.751-1.023-1.83-1.773-2.7a3.21,3.21,0,0,1-.619-1.071,4.8,4.8,0,0,0-.606-1.172,7.092,7.092,0,0,1-.922-1.646q-.821-2.414-1.532-4.815a1.384,1.384,0,0,0-.25-.369.167.167,0,0,1-.035-.136c.023-.029.045-.058.066-.088a.047.047,0,0,0,0-.022l-1.3-9.165-.114-4.705A33.11,33.11,0,0,1,.04,524.3q.4-8.011.856-16.012a.829.829,0,0,0,.32-.557q.119-5.368.645-10.662Q4.127,474.3,7.041,451.863q.558-4.28,1.053-8.331l.255-2.278q1.782-14.037,4.525-26.468a116.974,116.974,0,0,1,3.792-13.142,58.074,58.074,0,0,1,5.869-12.391,31.518,31.518,0,0,1,4.5-5.32.586.586,0,0,0,.531-.619q.369.123.527-.465a36.965,36.965,0,0,1,8.528-5.4q14.424-6.685,27.881-12.027.189-.074.816-.413a1.384,1.384,0,0,1,.917-.211q-5.21,10.934-9.8,21.973-1.725,4.148-3.283,8.357c-.43,1.159.391,1.646,1.163,2.256q5.3,4.187,10.6,7.874a.408.408,0,0,1,.1.568l-.008.011a1.931,1.931,0,0,1-.5.461c-4.424,2.884-9.055,5.443-13.036,8.787a2.28,2.28,0,0,0-.869,1.558,19.013,19.013,0,0,0,0,2.875q.689,10.763,2.344,21.35Q54.994,454,58,467.235q2.625,11.544,5.289,23.083c.277,1.194.685,2.326.935,3.533a26.05,26.05,0,0,1-2.783-1.545,23.027,23.027,0,0,0-2.752-1.554q-8.063-3.639-16.131-7.264.132-.088.132-.171.255-23.207-.246-46.584-.193-9.156-.909-15.459a121.976,121.976,0,0,0-9.038-33.78.188.188,0,0,0-.248-.1l-.011,0-.123.061a.317.317,0,0,0-.162.452,118.334,118.334,0,0,1,9,34.193q.785,8.116.9,16.6.277,22.109.053,44.437a93.787,93.787,0,0,0-8.862-3.077,51.125,51.125,0,0,0-13.717-1.532c-1.365.013-3.779.176-4.719,1.334q-.8.988.32,2.089a9.661,9.661,0,0,0,3.077,2.7,43.477,43.477,0,0,0,5.917,2.783q5.952,2.16,11.873,4.451a15.835,15.835,0,0,1-3.305.4q-2.594.035-3.3.123A56.269,56.269,0,0,0,8.27,499.07c-1.194.685-3.116,1.984-2.326,3.283A2.43,2.43,0,0,0,8.4,503.359a1.036,1.036,0,0,1,.79.1,22.5,22.5,0,0,0,5.627,1.892,14.143,14.143,0,0,0-4.688,2.634,4.609,4.609,0,0,0-1.08,1.887q-.334,1.141.821,1.326.637.1,2.989.246l-.8.119q-1.014.153-.061.535a14,14,0,0,0,4.9.944q2.441.057,4.824.2c-1.005.461-4.306,2.322-4.315,3.586a.512.512,0,0,0,.456.562l3.863.759a1.006,1.006,0,0,0-.821.123.154.154,0,0,0,.075.272l6.18.9q-.074.123.114.312a6.917,6.917,0,0,0,4.618,1.887q-.663.07-1.29.1a5.043,5.043,0,0,0-1.269.211,44.48,44.48,0,0,0-8.59,3.893,59.472,59.472,0,0,0-5.82,3.713.33.33,0,0,0-.1.483l.07.114a.2.2,0,0,0,.27.073l.011-.007a75.067,75.067,0,0,1,14.884-7.861,3.183,3.183,0,0,1,1.993-.075,8.369,8.369,0,0,0,1.606.255,12.6,12.6,0,0,1,1.9.281,5.361,5.361,0,0,0,3.02-.259q1.98.184,4.337.272,9.981.373,19.967.615c6.444.158,12.5.733,18.773,1.031,6.865.32,13.668.909,20.323,1.554a.281.281,0,0,0,.306-.253.336.336,0,0,0,0-.036l-.439-12.4-.439-3.49a.619.619,0,0,1,.538-.691.627.627,0,0,1,.165,0l12.624,1.887.211,15.49a.281.281,0,0,0,.342.316l.136-.009a.217.217,0,0,0,.224-.25l-.294-15.244q-.119-.127-.018-.224a.3.3,0,0,1,.334-.075,9.613,9.613,0,0,0,1.971.483c4.692.544,9.477,1.242,14.055,1.707q10.816,1.1,22.258,2.34,8.823.957,16.969,1.782,3.919.4,7.536.874,3.84.514,7.532,1.014,8.142,1.1,16.254,2.107,2.155.812,4.266,1.637a51.736,51.736,0,0,1,15.617,9.525.145.145,0,0,0,.2,0l.1-.105a.213.213,0,0,0,0-.3,34.475,34.475,0,0,0-4.46-3.678,54.509,54.509,0,0,0-12.861-6.58,16.25,16.25,0,0,0-2.634-.737q2.563-5.693,4.6-11.619,2.111-6.154,2.884-8.291,1.536-4.227,2.945-8.5c.843-2.568,1.861-5.144,2.7-7.637q1.194-3.568,2.563-7.076c.694-1.764,1.269-3.59,1.879-5.377,1.075-3.178.966-5.983-1.835-8.212a11.051,11.051,0,0,0-3.542-2.01q-10.727-3.274-21.332-6.944a5.868,5.868,0,0,0-3.564-6.259l-1.484-.869q.706-10.131,1.075-20.244.079-2.234.259-4.4c.307-3.687.544-7.681,1.045-10.956a96.667,96.667,0,0,1,7.3-25.743.407.407,0,0,0,.009-.325q-.219-.553-.847.105a.585.585,0,0,0-.1.149,79.34,79.34,0,0,0-4.885,14.274,116.811,116.811,0,0,0-3.239,20.3q-.382,5.842-.571,11.689-.237,7.466-.742,14.976a82.865,82.865,0,0,1-13.322-4.661.661.661,0,0,1,.127-.079.232.232,0,0,0,.149-.189q.189-1.308.417-2.414a197.6,197.6,0,0,0,3.331-23.25c.079-.948.382-2.625-.439-3.362a12.953,12.953,0,0,0-1.769-1.326q-5.776-3.661-11.654-7.155a.167.167,0,0,1-.059-.228.161.161,0,0,1,.037-.044c3.52-2.98,7.646-5.535,11.158-8.331.935-.746.075-2.765-.206-3.494q-5.614-14.674-12.558-29.193,1.615.588,3.094,1.3,2.217,1.067,3.037,1.4,14.608,6.036,22.359,9.327a84.759,84.759,0,0,1,8.226,4.078" transform="translate(0 -204.462)" fill="#e98a7f"/>
          <path id="Trazado_873454" data-name="Trazado 873454" d="M131.619,365.363c-5.926,12.957-9.108,20.037-13.058,30.216a1.158,1.158,0,0,0,.351,1.317q4.864,3.929,10.451,7.73a10.135,10.135,0,0,1,1.984,1.738.2.2,0,0,1-.018.272l-.083.079a.3.3,0,0,1-.431-.014l0,0a.732.732,0,0,0-.448-.246.367.367,0,0,0-.386.184,2.251,2.251,0,0,1-.654.737q-4.587,2.994-8.906,5.689-.966.6-3.8,2.77a1.9,1.9,0,0,0-.812,1.672c.329,6.448.856,12.764,1.8,19.273q2.27,15.648,5.355,29.145,2.682,11.724,5.632,24.435.522,2.252,1.2,4.416a.187.187,0,0,1,0,.167q-.057.079-.211.035a2.157,2.157,0,0,1-.733-.711c-.25-1.207-.658-2.339-.935-3.533q-2.665-11.54-5.289-23.083-3.007-13.238-5.056-26.362-1.655-10.587-2.344-21.35a19.015,19.015,0,0,1,0-2.875,2.28,2.28,0,0,1,.869-1.558c3.981-3.345,8.612-5.9,13.036-8.787a1.931,1.931,0,0,0,.5-.461.409.409,0,0,0-.081-.572l-.011-.008q-5.294-3.687-10.6-7.874c-.773-.61-1.593-1.1-1.163-2.256q1.558-4.209,3.283-8.357,4.587-11.039,9.8-21.973.711-.18.764.149" transform="translate(-64.615 -204.874)" fill="#27110d"/>
          <path id="Trazado_873455" data-name="Trazado 873455" d="M189.435,381.615a24.439,24.439,0,0,0,3.7,2.006,62.32,62.32,0,0,0,23.127,5.232,84.641,84.641,0,0,0,11.605-.5,60.027,60.027,0,0,0,14.647-4.007,31.233,31.233,0,0,0,3.889-1.83q.232,1.225.373,2.476,1.453,12.681,2.133,23.926,1.053,17.421,1.808,34.636a10.816,10.816,0,0,0,.158,1.409,1.162,1.162,0,0,1-.636,1.282,4.962,4.962,0,0,0-2.6,2.893q-5.531-2.265-8.5-3.226-7.089-2.3-14.634-4.723a5.257,5.257,0,0,0-2.893-.009c-4.332,1.075-4.912,4.126-6.185,8.068q-10.548,32.608-20.674,63.355-1.049,3.187-2.006,6.4l-5.4-1.62q-1.365-13.19-2.616-26.116-.821-8.516-1.343-16.895a210.211,210.211,0,0,1,.246-26.555q1.062-16.654,2.98-41.181.772-9.915,1.694-17.527.347-2.849,1.137-7.493m4.408,7.957a.417.417,0,0,0-.189-.558l-3.132-1.548a.416.416,0,0,0-.558.189l-.012.024a.417.417,0,0,0,.189.559l3.132,1.548a.417.417,0,0,0,.558-.189Zm52.483-1.52c-.119-.255-1.086-.055-2.16.445s-1.849,1.114-1.73,1.369,1.086.055,2.16-.446,1.849-1.114,1.73-1.369m-50.531,1.8-.18.518a.18.18,0,0,0,.11.228l1.229.426c1.562.544,2.88.846,2.95.676l.075-.224c.066-.173-1.152-.755-2.72-1.3l-.006,0-1.229-.43a.179.179,0,0,0-.228.11m45.178.431a.408.408,0,0,0-.509-.273L237.17,391a.409.409,0,0,0-.273.509l.023.076a.408.408,0,0,0,.509.273l3.294-.995a.408.408,0,0,0,.273-.509Zm-39.165,1.4a.162.162,0,0,0-.149.276l.715.68a.164.164,0,0,0,.083.044l3.353.61a.163.163,0,0,0,.187-.133.161.161,0,0,0-.043-.139l-.465-.483a.158.158,0,0,0-.083-.044Zm33.441.435a.355.355,0,0,0-.431-.26l-3.392.839a.355.355,0,0,0-.259.431l.019.077a.355.355,0,0,0,.431.259l3.392-.839a.355.355,0,0,0,.259-.431Zm-23.291,1.626a.281.281,0,0,0-.241-.316l-3.619-.483a.28.28,0,0,0-.316.241l-.034.252a.28.28,0,0,0,.241.316l3.62.483a.281.281,0,0,0,.316-.241Zm17.439-.377a.386.386,0,0,0-.437-.327l-3.328.479a.387.387,0,0,0-.327.438l.005.035a.386.386,0,0,0,.437.327l3.328-.48a.386.386,0,0,0,.327-.438Zm-11.7.612a.272.272,0,0,0-.268-.276l-3.52-.055a.272.272,0,0,0-.276.268l0,.237a.273.273,0,0,0,.268.277h0l3.519.055a.272.272,0,0,0,.277-.268Zm5.961-.015a.333.333,0,0,0-.352-.314l-3.6.2a.334.334,0,0,0-.315.352l.007.131a.334.334,0,0,0,.352.315l3.6-.2a.334.334,0,0,0,.315-.352Z" transform="translate(-102.71 -214.112)" fill="#fff"/>
          <path id="Trazado_873456" data-name="Trazado 873456" d="M199.274,394.888l3.132,1.548a.417.417,0,0,1,.189.558l-.012.024a.417.417,0,0,1-.558.189l-3.132-1.548a.416.416,0,0,1-.189-.558l.011-.024a.417.417,0,0,1,.559-.189" transform="translate(-111.462 -221.535)" fill="#e98a7f"/>
          <path id="Trazado_873457" data-name="Trazado 873457" d="M320.045,396.583c1.075-.5,2.042-.7,2.16-.446s-.656.867-1.73,1.369-2.041.7-2.16.445.656-.868,1.73-1.369" transform="translate(-178.59 -222.198)" fill="#e98a7f"/>
          <path id="Trazado_873458" data-name="Trazado 873458" d="M211.829,400.222a.18.18,0,0,1,.228-.11l1.229.43c1.568.546,2.789,1.13,2.726,1.3h0l-.075.224c-.069.17-1.387-.132-2.95-.676l-1.229-.426a.18.18,0,0,1-.11-.228Z" transform="translate(-118.744 -224.485)" fill="#dd5d44"/>
          <path id="Trazado_873459" data-name="Trazado 873459" d="M305.963,401.708l3.294-.995a.409.409,0,0,1,.509.273l.023.076a.408.408,0,0,1-.273.509l-3.294.995a.408.408,0,0,1-.509-.273l-.023-.076a.408.408,0,0,1,.273-.509" transform="translate(-171.503 -224.818)" fill="#dd5d44"/>
          <path id="Trazado_873460" data-name="Trazado 873460" d="M225.515,404.539l3.6.812a.164.164,0,0,1,.083.044l.465.483a.162.162,0,0,1-.145.272l-3.353-.61a.164.164,0,0,1-.083-.044l-.715-.68a.162.162,0,0,1,.149-.277" transform="translate(-126.417 -226.971)" fill="#dd5d44"/>
          <path id="Trazado_873461" data-name="Trazado 873461" d="M292.907,405.771l3.392-.839a.356.356,0,0,1,.431.259l.019.077a.356.356,0,0,1-.26.431l-3.392.839a.354.354,0,0,1-.43-.259l-.019-.076a.357.357,0,0,1,.26-.431" transform="translate(-164.189 -227.188)" fill="#e27364"/>
          <path id="Trazado_873462" data-name="Trazado 873462" d="M239.651,407.42l3.62.483a.281.281,0,0,1,.241.316l-.034.252a.281.281,0,0,1-.316.241l-3.62-.483a.281.281,0,0,1-.241-.316l.034-.252a.281.281,0,0,1,.316-.241" transform="translate(-134.263 -228.589)" fill="#dd5d44"/>
          <path id="Trazado_873463" data-name="Trazado 873463" d="M279.627,408.113l3.328-.48a.386.386,0,0,1,.437.327l.005.035a.387.387,0,0,1-.327.438l-3.328.479a.386.386,0,0,1-.437-.327l0-.035a.386.386,0,0,1,.327-.438" transform="translate(-156.704 -228.708)" fill="#dd5d44"/>
          <path id="Trazado_873464" data-name="Trazado 873464" d="M252.978,409.022l3.52.055a.272.272,0,0,1,.268.277l0,.237a.273.273,0,0,1-.277.268l-3.52-.055a.272.272,0,0,1-.268-.277l0-.237a.273.273,0,0,1,.277-.268" transform="translate(-141.781 -229.489)" fill="#dd5d44"/>
          <path id="Trazado_873465" data-name="Trazado 873465" d="M266.135,409.228l3.6-.2a.334.334,0,0,1,.352.315l.007.131a.333.333,0,0,1-.315.352l-3.6.2a.334.334,0,0,1-.352-.314l-.007-.132a.333.333,0,0,1,.314-.352" transform="translate(-149.144 -229.491)" fill="#dd5d44"/>
          <path id="Trazado_873466" data-name="Trazado 873466" d="M428.044,476.412l-.7-.176q.5-7.51.742-14.976.189-5.847.571-11.689a116.812,116.812,0,0,1,3.239-20.3A79.34,79.34,0,0,1,436.779,415a.585.585,0,0,1,.1-.149q.627-.658.847-.105a.407.407,0,0,1-.009.325,96.666,96.666,0,0,0-7.3,25.743c-.5,3.274-.737,7.269-1.045,10.956q-.18,2.168-.259,4.4-.369,10.113-1.075,20.244" transform="translate(-239.768 -232.557)" fill="#4a2112"/>
          <path id="Trazado_873467" data-name="Trazado 873467" d="M83.357,512.845,82.7,512.5q.224-22.328-.053-44.437-.11-8.485-.9-16.6a118.335,118.335,0,0,0-9-34.193.317.317,0,0,1,.162-.452l.123-.061a.189.189,0,0,1,.254.082l0,.011a121.975,121.975,0,0,1,9.038,33.78q.716,6.3.909,15.459.5,23.378.246,46.584,0,.084-.132.171" transform="translate(-40.797 -233.818)" fill="#27110d"/>
          <path id="Trazado_873468" data-name="Trazado 873468" d="M260,525.02a8.091,8.091,0,0,1-.29,1.747q-1.387,4.749-2.893,9.858c-1.124,3.8-.351,6.786,3.6,8.085q10.016,3.3,21.631,7.2,8.212,2.761,16.657,5.522c1.87.61,2.524-.276,3.683-1.238a.159.159,0,0,0,.024-.223.168.168,0,0,0-.05-.041.784.784,0,0,0-.413-.026,2.831,2.831,0,0,0,2.392-1.668,75.966,75.966,0,0,0,2.594-8.866,27.732,27.732,0,0,1,1.466-4.394q10.6,3.669,21.332,6.944a11.044,11.044,0,0,1,3.542,2.01c2.8,2.23,2.91,5.035,1.835,8.212-.61,1.786-1.185,3.612-1.879,5.377q-1.369,3.507-2.563,7.076c-.838,2.493-1.857,5.07-2.7,7.637q-1.409,4.275-2.945,8.5-.772,2.137-2.884,8.291-2.033,5.926-4.6,11.619l-.224.241q-8.111-1.005-16.254-2.107-3.692-.5-7.532-1.014-3.617-.479-7.536-.873-8.146-.826-16.969-1.782-11.443-1.242-22.258-2.34c-4.578-.465-9.362-1.163-14.055-1.707a9.639,9.639,0,0,1-1.971-.483.3.3,0,0,0-.334.075q-.1.1.018.224l-.127-.246a.229.229,0,0,0-.316-.123l-.176.066-12.624-1.887a.619.619,0,0,0-.7.524.629.629,0,0,0,0,.165l.439,3.49c-3.889-1.211-7.787-2.23-11.544-3.661a.383.383,0,0,1-.18-.118.429.429,0,0,1-.092-.206q.957-3.213,2.006-6.4,10.126-30.747,20.674-63.355c1.273-3.942,1.852-6.992,6.185-8.068a5.256,5.256,0,0,1,2.893.009q7.545,2.427,14.634,4.723,2.971.961,8.5,3.226m25.06,59.964a.773.773,0,0,0-.493-.975L245.61,571.2a.773.773,0,0,0-.975.492l-.287.876a.772.772,0,0,0,.492.975l38.962,12.81a.772.772,0,0,0,.975-.492Zm8.3-3.859a.558.558,0,0,0-.354-.7l-25.654-8.484a.557.557,0,0,0-.7.354l-.43,1.3a.558.558,0,0,0,.354.7l25.654,8.484a.557.557,0,0,0,.7-.354Z" transform="translate(-115.082 -289.997)" fill="#6b9aa2"/>
          <path id="Trazado_873469" data-name="Trazado 873469" d="M332.88,526.784q-.048.861.443.931a2.865,2.865,0,0,0-1.8.4,5.19,5.19,0,0,0-1.571,2.59q-1.848,5.706-3.323,11.548a4.5,4.5,0,0,0-.233,1.826c.347,1.185,1.738,1.567,2.752,1.914q11.465,3.929,23.347,7.826,6.128,2.01,11.425,3.828,1.993.68,3.942,1.141a.7.7,0,0,0,.43-.083,1.2,1.2,0,0,0,.9-.509,14.557,14.557,0,0,0,1.4-3.147q1.448-4.841,2.625-9.455a4.073,4.073,0,0,0,.162-1.519c-.228-1.466-1.769-2.511-3.108-3.046l.944.083a.44.44,0,0,0,.369-.127.592.592,0,0,0,.167-.281.233.233,0,0,0-.312-.281q-.123.053.189-.132a5.868,5.868,0,0,1,3.564,6.259,27.745,27.745,0,0,0-1.466,4.394,75.971,75.971,0,0,1-2.594,8.866,2.83,2.83,0,0,1-2.392,1.668c-1.962.509-4.315-.373-6.228-1.005l-35.115-11.6a4.492,4.492,0,0,1-3.178-3.45,9.046,9.046,0,0,1,.553-4.161q1.549-5.127,3.244-11.232a5.255,5.255,0,0,1,1.58-2.2,2.179,2.179,0,0,1,1.391-.926,13.849,13.849,0,0,1,1.9-.11" transform="translate(-181.86 -295.562)" fill="#b0cdd3"/>
          <path id="Trazado_873470" data-name="Trazado 873470" d="M344.057,526.785a28.051,28.051,0,0,1,6.035,1.479q6.36,2.225,12.61,4.762a30.251,30.251,0,0,0,4.06,1.33,1.173,1.173,0,0,1,.527.224,82.861,82.861,0,0,0,13.322,4.661l.7.176,1.484.869q-.311.184-.189.132a.233.233,0,0,1,.312.281.592.592,0,0,1-.167.281.44.44,0,0,1-.369.127l-.944-.083q-5.627-2.054-11.307-4.007c-1.128-.391-2.318-1.018-3.384-1.391-3.766-1.308-7.076-2.467-11.215-4.1q-5.447-2.142-11.035-3.814-.492-.07-.443-.931" transform="translate(-193.037 -295.562)" fill="#cddfe2"/>
          <path id="Trazado_873471" data-name="Trazado 873471" d="M328.106,528.827q.123-.079.2.127a5.255,5.255,0,0,0-1.58,2.2q-1.694,6.105-3.244,11.232a9.047,9.047,0,0,0-.553,4.161,4.492,4.492,0,0,0,3.178,3.45l35.115,11.6c1.914.632,4.266,1.514,6.228,1.005a.794.794,0,0,1,.413.026.158.158,0,0,1,.068.213.153.153,0,0,1-.041.05c-1.159.961-1.813,1.848-3.683,1.238q-8.445-2.761-16.657-5.522-11.614-3.906-21.631-7.2c-3.95-1.3-4.723-4.288-3.6-8.085q1.506-5.109,2.893-9.858a8.086,8.086,0,0,0,.29-1.747,4.963,4.963,0,0,1,2.6-2.893" transform="translate(-180.58 -296.696)" fill="#304352"/>
          <path id="Trazado_873472" data-name="Trazado 873472" d="M342.772,528.88q5.588,1.672,11.035,3.814c4.139,1.628,7.449,2.787,11.215,4.1,1.067.373,2.256,1,3.384,1.391q5.68,1.954,11.307,4.007c1.339.536,2.879,1.58,3.108,3.046a4.073,4.073,0,0,1-.162,1.519q-1.177,4.613-2.625,9.455a14.555,14.555,0,0,1-1.4,3.147,1.2,1.2,0,0,1-.9.509.78.78,0,0,1-.127-.022c-.1-.023-.129-.082-.079-.176a15.346,15.346,0,0,0,1.308-3.34q1.141-4.38,2.265-8.779a.394.394,0,0,0-.088-.373,1.1,1.1,0,0,1-.307-.773l1.023.048a.507.507,0,0,0,.527-.456q.219-2.3-2.269-2.774a.461.461,0,0,0-.623.474,2.589,2.589,0,0,1-.514,1.233.892.892,0,0,0-.351-.083,3.518,3.518,0,0,1-.114-1.686.513.513,0,0,0-.386-.575q-1.159-.281-2.2-.623-6-1.984-11-3.652a.854.854,0,0,0-1.229.579.256.256,0,0,1-.347.184,65.977,65.977,0,0,1-7.045-2.282c-.5-.193-1.062-.4-1.225-.983a3.013,3.013,0,0,0-2-1.918q-4.056-1.624-8.129-3.108a.989.989,0,0,0-.97.075q-.224.163-.224-.119c.018-1.172-.566-1.44-1.628-1.418a9.341,9.341,0,0,1-1.036-.044,2.865,2.865,0,0,1,1.8-.4" transform="translate(-191.309 -296.727)" fill="#406474"/>
          <path id="Trazado_873473" data-name="Trazado 873473" d="M338.963,529.8a9.324,9.324,0,0,0,1.036.044c1.062-.022,1.646.246,1.628,1.418q0,.281.224.119a.989.989,0,0,1,.97-.075q4.074,1.483,8.129,3.108a3.013,3.013,0,0,1,2,1.918c.162.579.724.79,1.225.983a65.975,65.975,0,0,0,7.045,2.282.256.256,0,0,0,.347-.184.854.854,0,0,1,1.229-.579q5,1.668,11,3.652,1.045.342,2.2.623a.513.513,0,0,1,.386.575,3.517,3.517,0,0,0,.114,1.686,6.409,6.409,0,0,1-1.87-.237l-12.154-4.148c-1.154-.4-2.12-1.089-3.27-1.418q-1.361-.39-2.524-.838-1.8-.689-3.652-1.247-2.774-.834-3.683-1.141-5.1-1.712-10.253-3.3-.637-.2-1.7-.654a5.19,5.19,0,0,1,1.571-2.59" transform="translate(-189.3 -297.257)" fill="#ee9c91"/>
          <path id="Trazado_873474" data-name="Trazado 873474" d="M332.807,535.705q1.062.456,1.7.654,5.149,1.585,10.253,3.3.909.307,3.683,1.141,1.848.558,3.652,1.247,1.163.448,2.524.838c1.15.329,2.116,1.023,3.27,1.418l12.154,4.148a6.409,6.409,0,0,0,1.87.237.894.894,0,0,1,.351.083.67.67,0,0,0,.413.693q.733.426,1.444.781a1.1,1.1,0,0,0,.307.773.394.394,0,0,1,.088.373q-1.124,4.4-2.265,8.779a15.347,15.347,0,0,1-1.308,3.34c-.05.094-.023.152.079.176a.781.781,0,0,0,.127.022.7.7,0,0,1-.43.083q-1.949-.461-3.942-1.141-5.3-1.817-11.425-3.827-11.882-3.9-23.347-7.826c-1.014-.347-2.405-.729-2.752-1.914a4.5,4.5,0,0,1,.233-1.826q1.475-5.842,3.323-11.548" transform="translate(-184.715 -300.567)" fill="#6b9aa2"/>
          <path id="Trazado_873475" data-name="Trazado 873475" d="M429.13,564.735q-.711-.355-1.444-.781a.67.67,0,0,1-.413-.694,2.589,2.589,0,0,0,.514-1.233.461.461,0,0,1,.623-.474q2.489.474,2.269,2.774a.507.507,0,0,1-.527.456Z" transform="translate(-239.725 -315.06)" fill="#ee9c91"/>
          <path id="Trazado_873476" data-name="Trazado 873476" d="M49.263,629.02l.658.342q8.067,3.626,16.131,7.264a23,23,0,0,1,2.752,1.554,26.04,26.04,0,0,0,2.783,1.545,2.156,2.156,0,0,0,.733.711c4.337,4.4,8.3,8.024,13.322,10.262q4.538,2.028,6.347,2.906l5.4,1.62a.429.429,0,0,0,.092.206.382.382,0,0,0,.18.118c3.757,1.431,7.655,2.449,11.544,3.661l.439,12.4a.281.281,0,0,1-.271.291.25.25,0,0,1-.036,0c-6.654-.645-13.458-1.233-20.323-1.554-6.277-.3-12.33-.873-18.773-1.032q-9.986-.242-19.967-.615-2.357-.088-4.337-.272l-6.685-.917a6.918,6.918,0,0,1-4.618-1.887c-.126-.126-.164-.23-.114-.312a1.657,1.657,0,0,1,1.04-.544,115.732,115.732,0,0,0,15.7-3.152.253.253,0,0,0,.177-.31c0-.007,0-.013-.006-.019l-.048-.141a.176.176,0,0,0-.206-.114q-4.991,1.111-9.793,2.111a45.632,45.632,0,0,1-12.294.874l-3.863-.759a.512.512,0,0,1-.456-.562c.009-1.264,3.31-3.125,4.315-3.586a180.7,180.7,0,0,1,19.186-4.446.193.193,0,0,0,.119-.312l-.075-.1a.734.734,0,0,0-.663-.285q-6.329.5-12.365,1.1-3.042.307-7.532,1.089-3.771.658-7.532,1.15-2.352-.145-2.989-.246-1.154-.184-.821-1.326a4.61,4.61,0,0,1,1.08-1.887,14.142,14.142,0,0,1,4.688-2.634,70.594,70.594,0,0,1,15.586-3.353q4.7-.465,9.582-.97a.557.557,0,0,0,.461-.312q.158-.3-.307-.6a.513.513,0,0,0-.255-.079q-7.168-.044-13.559.514c-5.4.474-11.425,1.813-17.136,2.91a1.036,1.036,0,0,0-.79-.1,2.43,2.43,0,0,1-2.458-1.005c-.79-1.3,1.132-2.6,2.326-3.283A56.269,56.269,0,0,1,36.551,638.3q.7-.088,3.3-.123a15.831,15.831,0,0,0,3.305-.4l3.112.391a3.386,3.386,0,0,1,2.967,1.189.485.485,0,0,0,.36.184.656.656,0,0,0,.593-.237.461.461,0,0,0-.088-.646.468.468,0,0,0-.087-.052l-1.545-.715c-1.3-.693-2.577-1.247-3.792-2a36.59,36.59,0,0,0-10.978-4.53q-4.2-.983-7.888-2.107a23.528,23.528,0,0,1-3.52-1.413q-1.119-1.1-.32-2.089c.939-1.159,3.353-1.321,4.719-1.334A51.127,51.127,0,0,1,40.4,625.944a93.758,93.758,0,0,1,8.862,3.077" transform="translate(-7.361 -350.336)" fill="#f7bc9e"/>
          <path id="Trazado_873477" data-name="Trazado 873477" d="M34,632.215a23.536,23.536,0,0,0,3.52,1.413q3.692,1.124,7.888,2.107a36.593,36.593,0,0,1,10.978,4.53c1.216.755,2.493,1.308,3.792,2q-.259.562-2.2.277l-3.112-.391Q48.948,639.861,43,637.7a43.484,43.484,0,0,1-5.917-2.783,9.662,9.662,0,0,1-3.077-2.7" transform="translate(-19.077 -354.716)" fill="#ce5546"/>
          <path id="Trazado_873478" data-name="Trazado 873478" d="M295.713,640.6l38.962,12.81a.772.772,0,0,1,.493.975l-.288.876a.772.772,0,0,1-.975.492l-38.962-12.81a.773.773,0,0,1-.493-.975l.288-.876a.773.773,0,0,1,.975-.492" transform="translate(-165.185 -359.4)" fill="#c7e9e9"/>
          <path id="Trazado_873479" data-name="Trazado 873479" d="M345.431,642.3l25.654,8.484a.558.558,0,0,1,.354.7l-.43,1.3a.558.558,0,0,1-.7.354l-25.654-8.484a.558.558,0,0,1-.354-.7l.43-1.3a.558.558,0,0,1,.7-.354" transform="translate(-193.158 -360.356)" fill="#c7e9e9"/>
          <path id="Trazado_873480" data-name="Trazado 873480" d="M90.831,655.115l1.545.715a.461.461,0,0,1,.228.611.452.452,0,0,1-.052.087.656.656,0,0,1-.593.237.485.485,0,0,1-.36-.184,3.386,3.386,0,0,0-2.967-1.19q1.94.285,2.2-.276" transform="translate(-49.729 -367.564)" fill="#dd5d44"/>
          <path id="Trazado_873481" data-name="Trazado 873481" d="M26.569,678.7a22.5,22.5,0,0,1-5.627-1.892c5.711-1.1,11.737-2.436,17.136-2.91q6.391-.558,13.559-.514a.512.512,0,0,1,.255.079q.465.3.307.6a.557.557,0,0,1-.461.312q-4.881.5-9.582.97A70.594,70.594,0,0,0,26.569,678.7" transform="translate(-11.75 -377.811)" fill="#ce5546"/>
          <path id="Trazado_873482" data-name="Trazado 873482" d="M36.475,696.9q-2.383-.145-4.824-.2a14,14,0,0,1-4.9-.944q-.953-.382.061-.536l.8-.118q3.761-.492,7.532-1.15,4.49-.781,7.532-1.089,6.036-.606,12.365-1.1a.734.734,0,0,1,.663.285l.075.1a.193.193,0,0,1-.119.312A180.73,180.73,0,0,0,36.475,696.9" transform="translate(-14.751 -388.124)" fill="#ce5546"/>
          <path id="Trazado_873483" data-name="Trazado 873483" d="M262.011,698.665l.294,15.244a.218.218,0,0,1-.224.25l-.136.009a.281.281,0,0,1-.342-.316l-.211-15.49.176-.066a.229.229,0,0,1,.316.123Z" transform="translate(-146.659 -391.78)" fill="#253038"/>
          <path id="Trazado_873484" data-name="Trazado 873484" d="M53.813,712.129l-6.18-.9a.154.154,0,0,1-.075-.272,1.006,1.006,0,0,1,.821-.123,45.632,45.632,0,0,0,12.294-.873q4.8-1,9.793-2.111a.176.176,0,0,1,.206.114l.048.141a.252.252,0,0,1-.151.323l-.02.007a115.713,115.713,0,0,1-15.7,3.152,1.656,1.656,0,0,0-1.04.544" transform="translate(-26.651 -397.149)" fill="#ce5546"/>
          <path id="Trazado_873485" data-name="Trazado 873485" d="M331.778,724.287c-5.438-.689-11.386-1-16.535,1.018q-5.583,2.181-9.007,3.31a.194.194,0,0,0-.145.255l.031.132a.138.138,0,0,0,.167.1,15.8,15.8,0,0,1,3.02-.417,139.563,139.563,0,0,0,21.029-1.558,29.324,29.324,0,0,0,4.117.457q2.73.118,4.113.312,5.346.759,11,1.6a21,21,0,0,1,3.1.654q1.545.474.755,2.432a.586.586,0,0,1-.325.338l-1.664.733a23.646,23.646,0,0,1-4.6.6c-4.1.132-8.41.193-12.435.7q-2.734.342-5.276.711a.586.586,0,0,0-.544.65.334.334,0,0,0,.241.325,8.9,8.9,0,0,0,1.611.3,85.048,85.048,0,0,0,18.145-.105q4.433.571,5.614.667a2.2,2.2,0,0,1,2.045,1.435.485.485,0,0,1-.013.408c-.439.944-2.063,1.659-2.9,1.98q-5.833,1.73-7.361,2.05-8.765,1.835-17.105,2.774-.518.061-.535.689a.373.373,0,0,0,.272.391,6.619,6.619,0,0,0,2,.364c5.855.1,11.781.347,17.641-.549a68.007,68.007,0,0,1,7.269-.329c1.5.009,2.366,1.506.93,2.476q-.61.408-1.282.812a36.007,36.007,0,0,1-6.237,2.282,61.512,61.512,0,0,1-12.242,2.19q-2.076.136-8.221.162a.6.6,0,0,0-.593.588v.136a.726.726,0,0,0,.724.786,57.954,57.954,0,0,0,16.1-.571,3.555,3.555,0,0,1,2.664,1.6,1.3,1.3,0,0,1-.672,1.83,58.621,58.621,0,0,1-13.611,3.665c-1.194.206-2.5.035-3.792.149q-.136.013-.066.127a.118.118,0,0,0,.123.053.238.238,0,0,1,.277.119c.018.035.035.072.053.11s0,.051-.031.048l-1.879-.035q-7.4-1-14.827-1.927-4.359-.548-12.628-2.471c-2.348-.544-5.465-1.427-8.226-2.045-1.8-.4-3.8-.47-5.724-.755a2.135,2.135,0,0,0,.342-1.62,56.226,56.226,0,0,1-1.264-16.447c1.479-2.989,2.735-5.043,5.241-6.922q.847-.355,1.685-.729c1.773-.786,3.7-1.308,5.517-1.984a29.928,29.928,0,0,0,3.656-1.677,86.685,86.685,0,0,1,8.032-3.836c5.675-2.274,11.526-1.922,17.6-.935a20.287,20.287,0,0,1,4.811,1.453.726.726,0,0,1,.421.812q-.039.189-.606.136" transform="translate(-160.063 -404.598)" fill="#f7bc9e"/>
          <path id="Trazado_873486" data-name="Trazado 873486" d="M460.986,721.415a16.255,16.255,0,0,1,2.634.737,54.512,54.512,0,0,1,12.861,6.58,34.479,34.479,0,0,1,4.46,3.678.213.213,0,0,1,0,.3l-.1.105a.145.145,0,0,1-.2,0,51.735,51.735,0,0,0-15.617-9.525q-2.111-.825-4.266-1.637Z" transform="translate(-258.519 -404.763)" fill="#27110d"/>
          <path id="Trazado_873487" data-name="Trazado 873487" d="M50.76,722.615l6.685.917a5.361,5.361,0,0,1-3.02.259,12.6,12.6,0,0,0-1.9-.281,8.364,8.364,0,0,1-1.606-.255,3.183,3.183,0,0,0-1.993.075,75.071,75.071,0,0,0-14.884,7.861.2.2,0,0,1-.274-.054l-.007-.011-.07-.114a.33.33,0,0,1,.1-.483,59.471,59.471,0,0,1,5.82-3.713,44.484,44.484,0,0,1,8.59-3.893,5.04,5.04,0,0,1,1.269-.211q.627-.026,1.29-.1" transform="translate(-18.867 -405.436)" fill="#4a2112"/>
          <path id="Trazado_873488" data-name="Trazado 873488" d="M358.368,727.667a.4.4,0,0,0,.233.092.351.351,0,0,1,.334.553,13.071,13.071,0,0,1-2.006,2.195,139.572,139.572,0,0,1-21.029,1.558,15.8,15.8,0,0,0-3.02.417.138.138,0,0,1-.167-.1l-.031-.132a.194.194,0,0,1,.145-.255q3.424-1.128,9.007-3.31c5.149-2.015,11.1-1.707,16.535-1.018" transform="translate(-186.652 -407.977)" fill="#dd5d44"/>
          <path id="Trazado_873489" data-name="Trazado 873489" d="M255.456,770.647c-.018.038-.111.014-.281-.07a22.243,22.243,0,0,1-1.207-3.959,98.006,98.006,0,0,1-.483-32.573.34.34,0,0,1,.351-.32l.11-.009a.191.191,0,0,1,.2.183.15.15,0,0,1,0,.037,98.6,98.6,0,0,0,1.312,36.712" transform="translate(-141.587 -411.664)" fill="#27110d"/>
          <path id="Trazado_873490" data-name="Trazado 873490" d="M290.835,741.644c-2.506,1.879-3.762,3.933-5.241,6.922q-.044-3.314.25-8.046a.517.517,0,0,1,.228-.465q.259-.14.334.14l.2.737a.332.332,0,0,0,.307.259,19.077,19.077,0,0,0,3.674-.031.254.254,0,0,1,.277.227.245.245,0,0,1,0,.076c0,.012-.01.072-.022.18" transform="translate(-160.235 -415.195)" fill="#dd5d44"/>
          <path id="Trazado_873491" data-name="Trazado 873491" d="M406.782,749.665a.5.5,0,0,0,.233.07q.479-.066.105.241-1.572,1.291-3.2,2.866a85.044,85.044,0,0,1-18.145.105,8.9,8.9,0,0,1-1.611-.3.334.334,0,0,1-.241-.325.586.586,0,0,1,.544-.65q2.541-.369,5.276-.711c4.025-.509,8.331-.571,12.435-.7a23.646,23.646,0,0,0,4.6-.6" transform="translate(-215.406 -420.613)" fill="#ce5546"/>
          <path id="Trazado_873492" data-name="Trazado 873492" d="M408.333,767.135l.373.04a.159.159,0,0,1,.14.172.152.152,0,0,1-.048.1,11.208,11.208,0,0,1-1.356,1.1,5.541,5.541,0,0,1-1.58.733,21.721,21.721,0,0,0-2.7,1.01,11.582,11.582,0,0,1-2.954.948.659.659,0,0,0-.369.189,1.092,1.092,0,0,1-.658.316q-.948.123-1.931.193a.086.086,0,0,0-.088.11.1.1,0,0,0,.088.1,15.952,15.952,0,0,0,5.035.035,4.057,4.057,0,0,1,1.361.237q.281.057.066.246a1.134,1.134,0,0,1-.465.2c-5.86.9-11.785.65-17.641.549a6.615,6.615,0,0,1-2-.364.373.373,0,0,1-.272-.391q.018-.628.535-.689,8.34-.94,17.105-2.774,1.528-.321,7.361-2.05" transform="translate(-215.075 -430.415)" fill="#ce5546"/>
          <path id="Trazado_873493" data-name="Trazado 873493" d="M409.575,786.905l.25.026c.129.012.17.078.123.2-.014.038-.031.076-.048.114a.236.236,0,0,1-.083.1,28.158,28.158,0,0,1-6.206,3.349,41.894,41.894,0,0,0-4.5,1.791,57.951,57.951,0,0,1-16.1.571.726.726,0,0,1-.724-.786v-.136a.6.6,0,0,1,.593-.588q6.145-.026,8.221-.162a61.507,61.507,0,0,0,12.242-2.19,36.013,36.013,0,0,0,6.237-2.282" transform="translate(-214.486 -441.507)" fill="#ce5546"/>
          <path id="Trazado_873494" data-name="Trazado 873494" d="M287.08,800.589c1.927.285,3.928.351,5.724.755,2.761.619,5.877,1.5,8.226,2.045q8.27,1.923,12.628,2.471,7.431.93,14.827,1.927,10.609,1.418,21,3.814a.218.218,0,0,1,.189.268,2.6,2.6,0,0,1-1.242,1.966,19.724,19.724,0,0,0-2.282-.356q-3.31-.092-6.452-.443-12.444-1.4-23.07-3.336-7.721-1.4-15.31-2.862-3.244-.623-7.286-1.541-3.59-.816-7.256-1.532a11.686,11.686,0,0,1-.132-2.954q.061-.413.439-.224" transform="translate(-160.798 -449.152)" fill="#406474"/>
          <path id="Trazado_873495" data-name="Trazado 873495" d="M261.275,807.905q3.665.716,7.256,1.532,4.043.917,7.286,1.541,7.589,1.457,15.31,2.862,10.627,1.936,23.07,3.336,3.143.351,6.452.443a19.688,19.688,0,0,1,2.282.355,1.534,1.534,0,0,0-.145,1.163l-1.2,3.49a33.794,33.794,0,0,1-3.125,8.265,4.994,4.994,0,0,1-1.527,1.62q-.492.36-.176.711a.561.561,0,0,0,.013.312,23.207,23.207,0,0,1-2.282,1.352c-2.506,1.291-4.85.68-7.343-.009q-6.5-1.791-12.286-3.573-10.139-3.129-20.292-6.246-9.406-3.112-18.892-6.035-5.768-1.773-11.645-3.38a2.19,2.19,0,0,1-.509-1l-1.953-1.15q-.913-.54.145-.6a26.218,26.218,0,0,1,3.718.2c1.08.088,2.138-.219,3.266-.193a.325.325,0,0,0,.3-.465l-.11-.233c.17.085.263.108.281.07a.307.307,0,0,0,.118.334.462.462,0,0,0,.3.048q2.441-.193,4.885-.29c1.756-.07,3.819.136,5.741.092a.811.811,0,0,0,.891-.869Z" transform="translate(-135.301 -453.29)" fill="#6b9aa2"/>
          <path id="Trazado_873496" data-name="Trazado 873496" d="M149.867,819.154a2.19,2.19,0,0,0,.509,1,11.945,11.945,0,0,1-1.958.465q-9.7.913-19.186,1.9a15.009,15.009,0,0,1-2.322.391q-6.536.544-12.053.8-19.836.909-39.653,1.374a1.086,1.086,0,0,0-.5.127q-.5.268-.487-.2l2.212-9.073q14.322.413,28.645.575,4.512.048,8.77.149,9.262.219,19.756.413,3.411.061,6.918-.018a6.133,6.133,0,0,1,2.458.465,45.63,45.63,0,0,0,5,1.725,3.916,3.916,0,0,0,1.857.36q.079-.013.035-.461" transform="translate(-41.643 -457.801)" fill="#ce5546"/>
          <path id="Trazado_873497" data-name="Trazado 873497" d="M219.242,825.535q5.878,1.606,11.645,3.38,9.486,2.923,18.892,6.035-.013.8-.531.777l-52.286-.162,1.137-7.659q9.486-.992,19.186-1.9a11.949,11.949,0,0,0,1.958-.465" transform="translate(-110.509 -463.182)" fill="#fff"/>
          <path id="Trazado_873498" data-name="Trazado 873498" d="M113.838,830.935l-1.137,7.659a.4.4,0,0,0-.237.347q-3.551,20.516-7.444,41.04H46.782L49.609,868.5q2.431-9.744,5.324-20.388.145-.545-.1-.755a1.175,1.175,0,0,0-.931-.167,1.025,1.025,0,0,1,.36-.127.167.167,0,0,0,.136-.193.176.176,0,0,0-.022-.057.523.523,0,0,0-.246-.18,2.4,2.4,0,0,1,.913.114.678.678,0,0,0,.154.623.487.487,0,0,0,.377.149q8.946-.272,18.83-.413a.193.193,0,0,0,.189-.2v-.119a.27.27,0,0,0-.307-.3l-19.146.2,3.244-11.627.443-1.637q-.018.466.487.2a1.086,1.086,0,0,1,.5-.127q19.818-.466,39.653-1.374,5.517-.255,12.053-.8a15.016,15.016,0,0,0,2.322-.391" transform="translate(-26.248 -466.211)" fill="#e98a7f"/>
          <path id="Trazado_873499" data-name="Trazado 873499" d="M425.61,833.495q3.56.961,7.071,1.685a1.111,1.111,0,0,1,.7.351,3.648,3.648,0,0,0,.535,1.128.8.8,0,0,1-.026.492.31.31,0,0,1-.32.2l-9.161-.369Z" transform="translate(-238.124 -467.648)" fill="#ce5546"/>
          <path id="Trazado_873500" data-name="Trazado 873500" d="M427.589,840.7c.091-.014.123.014.1.088l2.98,10.376q-8.318-.18-16.6.14a1.138,1.138,0,0,0-.812.316q-.316-.351.176-.711a5,5,0,0,0,1.527-1.62,33.793,33.793,0,0,0,3.125-8.265l9.161.369a.31.31,0,0,0,.32-.2.8.8,0,0,0,.026-.492" transform="translate(-231.794 -471.688)" fill="#e98a7f"/>
          <path id="Trazado_873501" data-name="Trazado 873501" d="M316.613,846.985q10.152,3.116,20.292,6.246,5.781,1.782,12.286,3.573c2.493.689,4.837,1.3,7.343.009a23.189,23.189,0,0,0,2.282-1.352q8.643-.219,17.259-.158.272,0,.382-.369l.18.408a.337.337,0,0,0,.312.215l2.12.145a5.4,5.4,0,0,0-1.743.092q-.232.053-.031.18a.567.567,0,1,1-.255.518.215.215,0,0,0-.123.307q2.383,6.092,2.932,7.8,3,9.292,4.288,12.7l3.446,11.68H324.215l-8.133-41.224q.518.026.531-.777" transform="translate(-177.344 -475.216)" fill="#e98a7f"/>
          <path id="Trazado_873502" data-name="Trazado 873502" d="M187.143,848.385l52.286.162,8.133,41.224h-68.1q3.893-20.524,7.444-41.04a.4.4,0,0,1,.237-.347" transform="translate(-100.69 -476.002)" fill="#304352"/>
          <path id="Trazado_873503" data-name="Trazado 873503" d="M430.808,864.462a.366.366,0,0,0,.241.241q-.11.369-.382.369-8.616-.061-17.259.158a.56.56,0,0,1-.013-.312,1.137,1.137,0,0,1,.812-.316q8.283-.321,16.6-.141" transform="translate(-231.936 -484.986)" fill="#4a2112"/>
          <path id="Trazado_873504" data-name="Trazado 873504" d="M65.583,866.634c.032-.018.065-.036.1-.057l19.146-.2a.27.27,0,0,1,.307.3v.119a.193.193,0,0,1-.189.2q-9.885.14-18.83.413a.486.486,0,0,1-.377-.149.678.678,0,0,1-.154-.623" transform="translate(-36.788 -486.095)" fill="#4a2112"/>
        </g>
      </g>
    </g>
    <path id="Trazado_873505" data-name="Trazado 873505" d="M42.5,85h0V65.256A22.756,22.756,0,1,1,65.256,42.5H85A42.5,42.5,0,1,0,42.5,85" transform="translate(184.967 621.5) rotate(-90)" fill="#22cac5"/>
    <path id="Trazado_873506" data-name="Trazado 873506" d="M31.976,68.829a36.854,36.854,0,0,1,73.708,0H137.66A68.83,68.83,0,0,0,0,68.829Z" transform="translate(307.441 804.771)" fill="#fdb641"/>
  </g>
</svg>
