<svg xmlns="http://www.w3.org/2000/svg" width="83" height="83" viewBox="0 0 83 83">
  <g id="_53" data-name="53" transform="translate(-764.504 -2279.08)">
    <rect id="Rectángulo_401243" data-name="Rectángulo 401243" width="83" height="83" transform="translate(764.504 2279.08)" fill="none"/>
    <g id="proteccion-de-datos" transform="translate(772.964 2287.55)">
      <path id="Trazado_874431" data-name="Trazado 874431" d="M13.91,8.49h29.4a1,1,0,0,0,0-2H13.91a1,1,0,0,0,0,2Z" fill="#201144"/>
      <path id="Trazado_874432" data-name="Trazado 874432" d="M13.91,13.72H26.19a1,1,0,0,0,0-2H13.91a1,1,0,0,0,0,2Z" fill="#201144"/>
      <path id="Trazado_874433" data-name="Trazado 874433" d="M22.96,25.47a1,1,0,0,0-1-1H11.05a1,1,0,0,0,0,2H21.96A1,1,0,0,0,22.96,25.47Z" fill="#201144"/>
      <path id="Trazado_874434" data-name="Trazado 874434" d="M11.05,28.06a1,1,0,0,0,0,2h5.99a1,1,0,0,0,0-2Z" fill="#201144"/>
      <path id="Trazado_874435" data-name="Trazado 874435" d="M63.46,57.28a1,1,0,0,0,1-1V47.14a2.9,2.9,0,0,0-2.89-2.9h-.42V40.09a8.74,8.74,0,0,0-8.73-8.73,8.745,8.745,0,0,0-8.73,8.73v4.15h-.42a2.9,2.9,0,0,0-2.9,2.9v3.14H3.69L7.78,20.82a1.322,1.322,0,0,1,1.3-1.13h43.8a1.311,1.311,0,0,1,1.3,1.49l-1.07,7.75a1,1,0,1,0,1.98.28l1.07-7.75a3.345,3.345,0,0,0-.78-2.63,3.274,3.274,0,0,0-2.36-1.12V13.67A2.676,2.676,0,0,0,50.35,11H49.01V4.54A4.016,4.016,0,0,0,45,.53H12.25A4.016,4.016,0,0,0,8.24,4.54V5.85H4.21A2.676,2.676,0,0,0,1.54,8.52V51.27a.9.9,0,0,0,.03.16.858.858,0,0,0,.03.17,1.545,1.545,0,0,0,.12.22.53.53,0,0,0,.06.1c.01.01.02.01.02.02a1.077,1.077,0,0,0,.24.18.7.7,0,0,0,.09.06,1.064,1.064,0,0,0,.4.09H40.37v10.3a2.9,2.9,0,0,0,2.9,2.9h18.3a2.9,2.9,0,0,0,2.89-2.9V60.74a1,1,0,1,0-2,0v1.83a.888.888,0,0,1-.89.9H43.27a.9.9,0,0,1-.9-.9V47.14a.9.9,0,0,1,.9-.9h18.3a.882.882,0,0,1,.89.9v9.14a1,1,0,0,0,1,1ZM50.33,12.99a.67.67,0,0,1,.67.67v4.02H48.98v-4.7h1.35ZM10.23,4.54a2.01,2.01,0,0,1,2.01-2.01H44.96a2.01,2.01,0,0,1,2.01,2.01V17.69H10.23ZM4.21,7.85H8.23v9.96a3.327,3.327,0,0,0-2.44,2.73L3.54,36.8V8.52a.67.67,0,0,1,.67-.67ZM45.69,40.09a6.739,6.739,0,0,1,6.73-6.73,6.743,6.743,0,0,1,6.73,6.73v4.15H57.26V40.09a4.77,4.77,0,0,0-1.41-3.41,4.844,4.844,0,0,0-8.27,3.42v4.15H45.69Zm9.57,4.15H49.58V40.09a2.843,2.843,0,0,1,4.86-2,2.814,2.814,0,0,1,.83,2v4.15Z" fill="#201144"/>
      <path id="Trazado_874436" data-name="Trazado 874436" d="M52.42,60.57a1,1,0,0,0,1-1V56.9a3.415,3.415,0,1,0-1.99,0v2.67a.982.982,0,0,0,.99,1Zm-1.41-6.91a1.415,1.415,0,1,1,1.41,1.41A1.417,1.417,0,0,1,51.01,53.66Z" fill="#201144"/>
    </g>
  </g>
</svg>
