<svg xmlns="http://www.w3.org/2000/svg" width="96.762" height="96.762" viewBox="0 0 96.762 96.762">
  <g id="_62" data-name="62" transform="translate(-594.254 -2817)">
    <g id="Grupo_1099174" data-name="Grupo 1099174" transform="translate(594.254 2817)">
      <g id="Grupo_1099167" data-name="Grupo 1099167" transform="translate(0 0)">
        <path id="Trazado_873000" data-name="Trazado 873000" d="M48.381,0h0V22.476a25.9,25.9,0,1,0,25.905,25.9H96.762A48.381,48.381,0,1,1,48.381,0" transform="translate(0 96.762) rotate(-90)" fill="#201144"/>
      </g>
      <rect id="Rectángulo_401249" data-name="Rectángulo 401249" width="66.409" height="66.409" rx="33.204" transform="translate(15.157 15.157)" fill="#e8faf9"/>
    </g>
    <g id="pregunta-y-respuesta" transform="translate(616.254 2839.566)">
      <path id="Trazado_874512" data-name="Trazado 874512" d="M49.56,2.434H19.2A3.2,3.2,0,0,0,16,5.63V24.113a1.6,1.6,0,0,0,2.485,1.33l3.351-2.234H49.56a3.2,3.2,0,0,0,3.2-3.2V5.63a3.2,3.2,0,0,0-3.2-3.2Zm1.6,17.579a1.6,1.6,0,0,1-1.6,1.6H21.593a.8.8,0,0,0-.443.134L17.6,24.113V5.63a1.6,1.6,0,0,1,1.6-1.6H49.56a1.6,1.6,0,0,1,1.6,1.6Z" transform="translate(-2.813)" fill="#201144"/>
      <path id="Trazado_874513" data-name="Trazado 874513" d="M45.691,6.434A7.2,7.2,0,0,0,38.5,13.625c.378,9.533,14.007,9.531,14.383,0a7.2,7.2,0,0,0-7.191-7.191Zm0,12.785A5.6,5.6,0,0,1,40.1,13.625c.263-7.4,10.925-7.4,11.187,0a5.6,5.6,0,0,1-5.593,5.593Z" transform="translate(-7.335 -0.804)" fill="#201144"/>
      <path id="Trazado_874514" data-name="Trazado 874514" d="M47.009,9.422a2.995,2.995,0,0,0-3.511,3.2.8.8,0,1,0,1.6,0,1.347,1.347,0,0,1,1.283-1.6h.63A1.284,1.284,0,0,1,48.292,12.3c.044.713-.637,1.14-1.167,1.465-.922.506-2.045,2.858-.431,3.1a.8.8,0,0,0,.8-.8,1.162,1.162,0,0,1,.519-.969c2.933-1.454,2.288-5.5-1-5.675Z" transform="translate(-8.337 -1.395)" fill="#201144"/>
      <path id="Trazado_874515" data-name="Trazado 874515" d="M47.3,19.43a.8.8,0,1,0,.8.8.8.8,0,0,0-.8-.8Z" transform="translate(-8.943 -3.415)" fill="#201144"/>
      <path id="Trazado_874516" data-name="Trazado 874516" d="M30.388,8.434H20.8a.8.8,0,1,0,0,1.6h9.588a.8.8,0,1,0,0-1.6Z" transform="translate(-3.617 -1.206)" fill="#201144"/>
      <path id="Trazado_874517" data-name="Trazado 874517" d="M30.388,13.434H20.8a.8.8,0,1,0,0,1.6h9.588a.8.8,0,1,0,0-1.6Z" transform="translate(-3.617 -2.21)" fill="#201144"/>
      <path id="Trazado_874518" data-name="Trazado 874518" d="M30.388,18.434H20.8a.8.8,0,1,0,0,1.6h9.588a.8.8,0,1,0,0-1.6Z" transform="translate(-3.617 -3.215)" fill="#201144"/>
      <path id="Trazado_874519" data-name="Trazado 874519" d="M35.56,32.434H5.2A3.2,3.2,0,0,0,2,35.63V50.013a3.2,3.2,0,0,0,3.2,3.2H32.921l3.351,2.234a1.609,1.609,0,0,0,2.485-1.33V35.63a3.2,3.2,0,0,0-3.2-3.2Zm1.6,21.679-3.552-2.368a.8.8,0,0,0-.443-.134H5.2a1.6,1.6,0,0,1-1.6-1.6V35.63a1.6,1.6,0,0,1,1.6-1.6H35.56a1.6,1.6,0,0,1,1.6,1.6S37.162,54.115,37.158,54.113Z" transform="translate(0 -6.029)" fill="#201144"/>
      <path id="Trazado_874520" data-name="Trazado 874520" d="M33.191,36.434A7.2,7.2,0,0,0,26,43.625c.378,9.533,14.007,9.531,14.383,0A7.2,7.2,0,0,0,33.191,36.434Zm0,12.785A5.6,5.6,0,0,1,27.6,43.625c.263-7.4,10.925-7.4,11.187,0A5.6,5.6,0,0,1,33.191,49.218Z" transform="translate(-4.823 -6.833)" fill="#201144"/>
      <path id="Trazado_874521" data-name="Trazado 874521" d="M17.888,38.434H8.3a.8.8,0,1,0,0,1.6h9.588a.8.8,0,1,0,0-1.6Z" transform="translate(-1.105 -7.234)" fill="#201144"/>
      <path id="Trazado_874522" data-name="Trazado 874522" d="M17.888,43.434H8.3a.8.8,0,1,0,0,1.6h9.588a.8.8,0,1,0,0-1.6Z" transform="translate(-1.105 -8.239)" fill="#201144"/>
      <path id="Trazado_874523" data-name="Trazado 874523" d="M17.888,48.434H8.3a.8.8,0,1,0,0,1.6h9.588a.8.8,0,1,0,0-1.6Z" transform="translate(-1.105 -9.244)" fill="#201144"/>
      <path id="Trazado_874524" data-name="Trazado 874524" d="M36.028,42.668,33.4,45.3l-1.033-1.033a.8.8,0,1,0-1.13,1.13l1.6,1.6a.8.8,0,0,0,1.13,0l3.2-3.2a.8.8,0,1,0-1.13-1.13Z" transform="translate(-5.828 -8.038)" fill="#201144"/>
    </g>
  </g>
</svg>
