<svg xmlns="http://www.w3.org/2000/svg" width="92" height="92" viewBox="0 0 92 92">
  <g id="_66" data-name="66" transform="translate(-308.254 -3832)">
    <circle id="Elipse_11527" data-name="Elipse 11527" cx="46" cy="46" r="46" transform="translate(308.254 3832)" fill="#b15815"/>
    <g id="person-protection-insurance-health-hands" transform="translate(322.254 3846)">
      <path id="Trazado_874646" data-name="Trazado 874646" d="M52,34A16.013,16.013,0,0,1,38,49.88a16.727,16.727,0,0,1-4,0,16,16,0,0,1,0-31.75,15.45,15.45,0,0,1,4,0A16,16,0,0,1,52,34Z" fill="#bdfdff"/>
      <path id="Trazado_874647" data-name="Trazado 874647" d="M52,34A16.013,16.013,0,0,1,38,49.88a16.727,16.727,0,0,1-4,0,16,16,0,0,0,0-31.75,15.45,15.45,0,0,1,4,0A16,16,0,0,1,52,34Z" fill="#46f8ff"/>
      <path id="Trazado_874648" data-name="Trazado 874648" d="M38.12,22.88A3,3,0,0,0,33,25v4a3,3,0,0,0,6,0V25a2.993,2.993,0,0,0-.88-2.12Z" fill="#ffc477"/>
      <path id="Trazado_874649" data-name="Trazado 874649" d="M39,25v4a3,3,0,0,1-3,3,2.772,2.772,0,0,1-1-.18A2.968,2.968,0,0,0,37,29V25a2.993,2.993,0,0,0-.88-2.12,2.838,2.838,0,0,0-1.12-.7A2.772,2.772,0,0,1,36,22a3,3,0,0,1,3,3Z" fill="#ffa733"/>
      <path id="Trazado_874650" data-name="Trazado 874650" d="M55,8h6V20H55Z" fill="#2488ff"/>
      <path id="Trazado_874651" data-name="Trazado 874651" d="M31.92,9H12a3,3,0,0,1,0-6H45.52a3.976,3.976,0,0,1,2.6.96l3.59,3.08a4,4,0,0,0,2.6.96H55V20H45.07a3.925,3.925,0,0,1-2-.54L32.74,13.5a3.014,3.014,0,0,1-1.1-4.1,2.858,2.858,0,0,1,.28-.4Z" fill="#ffc477"/>
      <path id="Trazado_874652" data-name="Trazado 874652" d="M55,8v3h-.69a4,4,0,0,1-2.6-.96L48.12,6.96A3.976,3.976,0,0,0,45.52,6H12a2.993,2.993,0,0,0-2.12.88,3.3,3.3,0,0,0-.48.62A3,3,0,0,1,12,3H45.52a3.976,3.976,0,0,1,2.6.96l3.59,3.08a4,4,0,0,0,2.6.96Z" fill="#ffa733"/>
      <path id="Trazado_874653" data-name="Trazado 874653" d="M32.08,55H52a3,3,0,0,1,0,6H18.48a3.976,3.976,0,0,1-2.6-.96l-3.59-3.08A4,4,0,0,0,9.69,56H9V44h9.93a3.925,3.925,0,0,1,2,.54L31.26,50.5a3.006,3.006,0,0,1,1.1,4.1A2.858,2.858,0,0,1,32.08,55Z" fill="#ffc477"/>
      <path id="Trazado_874654" data-name="Trazado 874654" d="M32.36,54.6a3.131,3.131,0,0,0-1.1-1.1L20.93,47.54a3.925,3.925,0,0,0-2-.54H9V44h9.93a3.925,3.925,0,0,1,2,.54L31.26,50.5a3.006,3.006,0,0,1,1.1,4.1Z" fill="#ffa733"/>
      <path id="Trazado_874655" data-name="Trazado 874655" d="M55,58a3.026,3.026,0,0,1-.4,1.5,3.3,3.3,0,0,0-.48-.62A2.993,2.993,0,0,0,52,58H32.08a2.858,2.858,0,0,0,.28-.4,3,3,0,0,0,.4-1.49A3.038,3.038,0,0,0,32.55,55H52a3,3,0,0,1,3,3Z" fill="#ffa733"/>
      <path id="Trazado_874656" data-name="Trazado 874656" d="M42,36v8H38V32A4,4,0,0,1,42,36Z" fill="#7ed63e"/>
      <path id="Trazado_874657" data-name="Trazado 874657" d="M42,36v8H40V36a3.98,3.98,0,0,0-2-3.46V32A4,4,0,0,1,42,36Z" fill="#5eac24"/>
      <path id="Trazado_874658" data-name="Trazado 874658" d="M39,25v2H37.21a3.993,3.993,0,0,1-2.22-.67L33,25a3,3,0,0,1,6,0Z" fill="#a78966"/>
      <path id="Trazado_874659" data-name="Trazado 874659" d="M39,25v2H37.21a1.477,1.477,0,0,1-.21-.01V25a2.993,2.993,0,0,0-.88-2.12,2.838,2.838,0,0,0-1.12-.7A2.772,2.772,0,0,1,36,22a3,3,0,0,1,3,3Z" fill="#957856"/>
      <path id="Trazado_874660" data-name="Trazado 874660" d="M38,32V44H34V32h4Z" fill="#ffd422"/>
      <path id="Trazado_874661" data-name="Trazado 874661" d="M34,32V44H30V36A4,4,0,0,1,34,32Z" fill="#7ed63e"/>
      <path id="Trazado_874662" data-name="Trazado 874662" d="M3,44H9V56H3Z" fill="#2488ff"/>
      <path id="Trazado_874663" data-name="Trazado 874663" d="M61,7H54.31a2.956,2.956,0,0,1-1.95-.72L48.77,3.2A5,5,0,0,0,45.52,2H12a4,4,0,0,0,0,8H30.35a4.027,4.027,0,0,0,1.89,4.37l4.61,2.66a16.2,16.2,0,0,0-2.97.11,16.973,16.973,0,0,0-11.4,27.14l-1.04-.6A4.875,4.875,0,0,0,18.93,43H3a1,1,0,0,0-1,1V56a1,1,0,0,0,1,1H9.69a2.956,2.956,0,0,1,1.95.72l3.59,3.08A5,5,0,0,0,18.48,62H52a4,4,0,0,0,0-8H33.66a3.8,3.8,0,0,0,.1-.89,4.047,4.047,0,0,0-.8-2.4c.31.06.61.12.92.16a17.351,17.351,0,0,0,4.24,0A16.987,16.987,0,0,0,46.93,21H61a1,1,0,0,0,1-1V8a1,1,0,0,0-1-1ZM8,55H4V45H8Zm44,1a2,2,0,1,1,0,4H18.48a2.956,2.956,0,0,1-1.95-.72L12.94,56.2A4.961,4.961,0,0,0,10,55.03V45h8.93a2.916,2.916,0,0,1,1.5.41l10.33,5.95a2.036,2.036,0,0,1,1,1.75,1.94,1.94,0,0,1-.27.99,1.51,1.51,0,0,1-.18.26v.01a2.013,2.013,0,0,1-2.55.46L17.5,48.33l-1,1.74,11.26,6.5A4,4,0,0,0,32.51,56ZM51,34A15.023,15.023,0,0,1,37.88,48.89a15.765,15.765,0,0,1-3.76,0,15,15,0,0,1,.01-29.77A14,14,0,0,1,36,19a14.259,14.259,0,0,1,1.88.12A15.006,15.006,0,0,1,51,34Zm3-15H45.07a2.916,2.916,0,0,1-1.5-.41L33.24,12.64a2.02,2.02,0,0,1-.73-2.74,1.51,1.51,0,0,1,.18-.26V9.63a2.061,2.061,0,0,1,2.55-.46l11.26,6.5,1-1.74L36.24,7.43A4.11,4.11,0,0,0,31.49,8H12a2,2,0,1,1,0-4H45.52a2.956,2.956,0,0,1,1.95.72L51.06,7.8A4.961,4.961,0,0,0,54,8.97Zm6,0H56V9h4Z"/>
      <path id="Trazado_874664" data-name="Trazado 874664" d="M39.33,31.2A3.965,3.965,0,0,0,40,29V25a4,4,0,0,0-8,0v4a3.965,3.965,0,0,0,.67,2.2A5,5,0,0,0,29,36v8a1,1,0,0,0,1,1H42a1,1,0,0,0,1-1V36a5,5,0,0,0-3.67-4.8ZM33,43H31V36a3.01,3.01,0,0,1,2-2.82Zm4,0H35V33h2Zm1-14a2,2,0,0,1-4,0V26.87l.44.29a4.959,4.959,0,0,0,2.77.84H38Zm0-3h-.79a2.97,2.97,0,0,1-1.66-.5l-1.48-.99A2,2,0,0,1,38,25Zm3,17H39V33.18A3.01,3.01,0,0,1,41,36Z"/>
    </g>
  </g>
</svg>
