<svg xmlns="http://www.w3.org/2000/svg" xmlns:xlink="http://www.w3.org/1999/xlink" width="610" height="274.35" viewBox="0 0 610 274.35">
  <defs>
    <clipPath id="clip-path">
      <rect id="Rectángulo_401738" data-name="Rectángulo 401738" width="445.94" height="262.167" fill="none"/>
    </clipPath>
    <clipPath id="clip-path-2">
      <rect id="Rectángulo_401739" data-name="Rectángulo 401739" width="43.404" height="7.7" fill="none"/>
    </clipPath>
    <clipPath id="clip-path-3">
      <rect id="Rectángulo_401740" data-name="Rectángulo 401740" width="32.992" height="33.075" fill="none"/>
    </clipPath>
    <clipPath id="clip-path-4">
      <rect id="Rectángulo_401741" data-name="Rectángulo 401741" width="36.632" height="25.757" fill="none"/>
    </clipPath>
    <clipPath id="clip-path-5">
      <rect id="Rectángulo_401743" data-name="Rectángulo 401743" width="21.112" height="21.823" fill="none"/>
    </clipPath>
  </defs>
  <g id="_70" data-name="70" transform="translate(-180 -1862.833)">
    <rect id="Rectángulo_401339" data-name="Rectángulo 401339" width="610" height="239.712" rx="16" transform="translate(180 1883)" fill="#a6eae8"/>
    <path id="Trazado_873608" data-name="Trazado 873608" d="M29.253,0A33.754,33.754,0,0,0,62.969,33.715,33.754,33.754,0,0,0,96.685,0h29.253a63.04,63.04,0,0,1-62.97,62.969A63.04,63.04,0,0,1,0,0Z" transform="translate(559.062 1864)" fill="#c6c5c5"/>
    <path id="Trazado_873609" data-name="Trazado 873609" d="M17.251,0h0V8.014a9.237,9.237,0,1,0,9.237,9.237H34.5A17.251,17.251,0,1,1,17.251,0" transform="translate(202.509 1972.563) rotate(-90)" fill="#201144"/>
    <path id="Trazado_873611" data-name="Trazado 873611" d="M34.305,64.07A34.344,34.344,0,0,0,0,29.765V0A64.143,64.143,0,0,1,64.07,64.07Z" transform="translate(588.339 2068.851)" fill="#fff"/>
    <g id="Grupo_1100395" data-name="Grupo 1100395" transform="translate(180 1862.833)">
      <g id="Grupo_1100394" data-name="Grupo 1100394" clip-path="url(#clip-path)">
        <path id="Trazado_874760" data-name="Trazado 874760" d="M45.538,204.239S33.9,134.654,8.714,147.38s26.535,50.9,36.824,56.859" transform="translate(-0.321 -24.925)" fill="#f66"/>
        <path id="Trazado_874761" data-name="Trazado 874761" d="M68.077,210.248S36.4,173.154,56.435,164.489s11.643,45.758,11.643,45.758" transform="translate(-8.511 -27.955)" fill="#f66"/>
        <path id="Trazado_874762" data-name="Trazado 874762" d="M73.6,244.767S45,213.788,34.484,228.355,73.6,244.767,73.6,244.767" transform="translate(-5.644 -38.365)" fill="#f66"/>
        <path id="Trazado_874763" data-name="Trazado 874763" d="M15.676,160.437s43.051,82.04,104.784,92.6" transform="translate(-2.679 -27.422)" fill="none" stroke="#ff5640" stroke-miterlimit="10" stroke-width="1.959"/>
        <path id="Trazado_874764" data-name="Trazado 874764" d="M62.05,180.032s7.311,13.538,9.476,45.487" transform="translate(-10.606 -30.772)" fill="none" stroke="#ff5640" stroke-miterlimit="10" stroke-width="1.959"/>
        <path id="Trazado_874765" data-name="Trazado 874765" d="M47.859,234.933s11.033,7.928,39.179,14.648" transform="translate(-8.18 -40.156)" fill="none" stroke="#ff5640" stroke-miterlimit="10" stroke-width="1.771"/>
        <path id="Trazado_874766" data-name="Trazado 874766" d="M25.462,240.042s22.2,47.765,81.685,25.306" transform="translate(-4.352 -41.029)" fill="none" stroke="#ff5640" stroke-miterlimit="10" stroke-width="1.959"/>
        <path id="Trazado_874767" data-name="Trazado 874767" d="M30.826,249.4S36.8,240.881,20.5,231.869c0,0-5.331,14.443,10.327,17.527" transform="translate(-3.354 -39.632)" fill="#ff5640"/>
        <path id="Trazado_874768" data-name="Trazado 874768" d="M44.138,260.174s-7.417-5.773-1.155-14.035c0,0,7.2,6.6,1.155,14.035" transform="translate(-6.917 -42.071)" fill="#ff5640"/>
        <path id="Trazado_874769" data-name="Trazado 874769" d="M40.53,263.091s-6.951,7.357-15.164-.206c0,0,7.816-7.037,15.164.206" transform="translate(-4.336 -44.409)" fill="#ff5640"/>
        <path id="Trazado_874770" data-name="Trazado 874770" d="M61.019,269.835s-8.1-4.767-2.956-13.769c0,0,7.99,5.616,2.956,13.769" transform="translate(-9.632 -43.768)" fill="#ff5640"/>
        <path id="Trazado_874771" data-name="Trazado 874771" d="M57.739,273.038s-5.944,8.193-15.064,1.753c0,0,6.842-7.987,15.064-1.753" transform="translate(-7.294 -46.262)" fill="#ff5640"/>
        <path id="Trazado_874772" data-name="Trazado 874772" d="M79.777,274.217s-9.246-1.687-7.516-11.909c0,0,9.435,2.523,7.516,11.909" transform="translate(-12.314 -44.835)" fill="#ff5640"/>
        <path id="Trazado_874773" data-name="Trazado 874773" d="M77.8,277.747s-2.76,9.738-13.539,6.832c0,0,3.674-9.855,13.539-6.832" transform="translate(-10.984 -47.375)" fill="#ff5640"/>
        <path id="Trazado_874774" data-name="Trazado 874774" d="M100.906,274.26s-9.364.806-10.385-9.51c0,0,9.766-.051,10.385,9.51" transform="translate(-15.472 -45.252)" fill="#ff5640"/>
        <path id="Trazado_874775" data-name="Trazado 874775" d="M100.292,277.574s-.1,10.121-11.263,10.155c0,0,.951-10.474,11.263-10.155" transform="translate(-15.217 -47.443)" fill="#ff5640"/>
        <path id="Trazado_874776" data-name="Trazado 874776" d="M77.906,106.552s-16.989,49.857,41.512,74.764" transform="translate(-12.924 -18.212)" fill="none" stroke="#ff5640" stroke-miterlimit="10" stroke-width="1.959"/>
        <path id="Trazado_874777" data-name="Trazado 874777" d="M74.308,117.142s10.2-2.02,4.659-19.8c0,0-13.837,6.748-4.659,19.8" transform="translate(-12.163 -16.638)" fill="#ff5640"/>
        <path id="Trazado_874778" data-name="Trazado 874778" d="M76.483,134.367s-1.366-9.3,8.87-10.937c0,0,.636,9.746-8.87,10.937" transform="translate(-13.062 -21.097)" fill="#ff5640"/>
        <path id="Trazado_874779" data-name="Trazado 874779" d="M72.888,134.079s-10.109.508-10.812-10.634c0,0,10.512.321,10.812,10.634" transform="translate(-10.61 -21.1)" fill="#ff5640"/>
        <path id="Trazado_874780" data-name="Trazado 874780" d="M82.135,152.906s-2.555-9.045,7.384-11.991c0,0,1.889,9.582-7.384,11.991" transform="translate(-13.988 -24.086)" fill="#ff5640"/>
        <path id="Trazado_874781" data-name="Trazado 874781" d="M78.291,153.315s-9.959,1.809-12.095-9.148c0,0,10.465-1.04,12.095,9.148" transform="translate(-11.314 -24.636)" fill="#ff5640"/>
        <path id="Trazado_874782" data-name="Trazado 874782" d="M93.069,168.828s-5.513-7.613,2.8-13.8c0,0,5.071,8.346-2.8,13.8" transform="translate(-15.601 -26.498)" fill="#ff5640"/>
        <path id="Trazado_874783" data-name="Trazado 874783" d="M89.064,170.847s-8.728,5.127-14.5-4.426c0,0,9.468-4.578,14.5,4.426" transform="translate(-12.744 -28.246)" fill="#ff5640"/>
        <path id="Trazado_874784" data-name="Trazado 874784" d="M108.679,183.438s-7.322-5.893-.926-14.051c0,0,7.089,6.716.926,14.051" transform="translate(-17.969 -28.952)" fill="#ff5640"/>
        <path id="Trazado_874785" data-name="Trazado 874785" d="M105.035,186.314s-7.07,7.243-15.159-.453c0,0,7.93-6.909,15.159.453" transform="translate(-15.362 -31.265)" fill="#ff5640"/>
        <path id="Trazado_874786" data-name="Trazado 874786" d="M87.668,203.988s10.138,51.688,73.266,44.1" transform="translate(-14.984 -34.866)" fill="none" stroke="#ff5640" stroke-miterlimit="10" stroke-width="1.959"/>
        <path id="Trazado_874787" data-name="Trazado 874787" d="M90.288,214.4s7.837-6.839-5.838-19.487c0,0-8.629,12.75,5.838,19.487" transform="translate(-13.998 -33.314)" fill="#ff5640"/>
        <path id="Trazado_874788" data-name="Trazado 874788" d="M100.612,228.125s-5.822-7.379,2.234-13.9c0,0,5.411,8.13-2.234,13.9" transform="translate(-16.849 -36.615)" fill="#ff5640"/>
        <path id="Trazado_874789" data-name="Trazado 874789" d="M96.636,230.3s-8.509,5.482-14.675-3.825c0,0,9.272-4.965,14.675,3.825" transform="translate(-14.009 -38.471)" fill="#ff5640"/>
        <path id="Trazado_874790" data-name="Trazado 874790" d="M114.734,241.5s-6.725-6.565.42-14.076c0,0,6.415,7.364-.42,14.076" transform="translate(-19.12 -38.873)" fill="#ff5640"/>
        <path id="Trazado_874791" data-name="Trazado 874791" d="M110.915,244.11s-7.731,6.535-15.047-1.9c0,0,8.554-6.12,15.047,1.9" transform="translate(-16.386 -41.018)" fill="#ff5640"/>
        <path id="Trazado_874792" data-name="Trazado 874792" d="M132.047,250.169s-8.574-3.849-4.451-13.361c0,0,8.558,4.705,4.451,13.361" transform="translate(-21.617 -40.476)" fill="#ff5640"/>
        <path id="Trazado_874793" data-name="Trazado 874793" d="M129.112,253.545s-5.008,8.8-14.78,3.4c0,0,5.924-8.69,14.78-3.4" transform="translate(-19.542 -43.044)" fill="#ff5640"/>
        <path id="Trazado_874794" data-name="Trazado 874794" d="M152.709,255.251s-9.286-1.457-7.81-11.718c0,0,9.495,2.287,7.81,11.718" transform="translate(-24.739 -41.625)" fill="#ff5640"/>
        <path id="Trazado_874795" data-name="Trazado 874795" d="M150.853,258.778s-2.516,9.8-13.365,7.167c0,0,3.427-9.943,13.365-7.167" transform="translate(-23.5 -44.148)" fill="#ff5640"/>
        <path id="Trazado_874796" data-name="Trazado 874796" d="M265.764,168.82s14.26,50.706-45.506,72.4" transform="translate(-37.647 -28.855)" fill="none" stroke="#ff5640" stroke-miterlimit="10" stroke-width="1.959"/>
        <path id="Trazado_874797" data-name="Trazado 874797" d="M276.579,179.529S266.5,176.959,273,159.5c0,0,13.451,7.489,3.578,20.026" transform="translate(-46.288 -27.263)" fill="#ff5640"/>
        <path id="Trazado_874798" data-name="Trazado 874798" d="M273.682,196.6s1.868-9.211-8.265-11.4c0,0-1.163,9.7,8.265,11.4" transform="translate(-45.358 -31.654)" fill="#ff5640"/>
        <path id="Trazado_874799" data-name="Trazado 874799" d="M276.79,196.6s10.067,1.056,11.373-10.032c0,0-10.514-.25-11.373,10.032" transform="translate(-47.309 -31.89)" fill="#ff5640"/>
        <path id="Trazado_874800" data-name="Trazado 874800" d="M267.24,214.816s3.042-8.893-6.723-12.374c0,0-2.405,9.466,6.723,12.374" transform="translate(-44.479 -34.602)" fill="#ff5640"/>
        <path id="Trazado_874801" data-name="Trazado 874801" d="M270.1,215.507s9.846,2.346,12.573-8.48c0,0-10.394-1.605-12.573,8.48" transform="translate(-46.167 -35.37)" fill="#ff5640"/>
        <path id="Trazado_874802" data-name="Trazado 874802" d="M255.752,230.157s5.918-7.3-2.053-13.932c0,0-5.517,8.059,2.053,13.932" transform="translate(-43.031 -36.958)" fill="#ff5640"/>
        <path id="Trazado_874803" data-name="Trazado 874803" d="M257.94,232.377s8.437,5.593,14.724-3.633c0,0-9.206-5.086-14.724,3.633" transform="translate(-44.088 -38.846)" fill="#ff5640"/>
        <path id="Trazado_874804" data-name="Trazado 874804" d="M239.382,243.921s7.631-5.487,1.687-13.981c0,0-7.443,6.323-1.687,13.981" transform="translate(-40.542 -39.302)" fill="#ff5640"/>
        <path id="Trazado_874805" data-name="Trazado 874805" d="M241.043,246.931s6.667,7.616,15.161.371c0,0-7.543-7.329-15.161-.371" transform="translate(-41.2 -41.693)" fill="#ff5640"/>
        <path id="Trazado_874806" data-name="Trazado 874806" d="M158.062,279.281a8.122,8.122,0,0,1-6.836,9.232l-23.3,3.475a8.123,8.123,0,0,1-9.232-6.836l-12.1-81.143a8.122,8.122,0,0,1,6.836-9.232l23.3-3.475a8.123,8.123,0,0,1,9.233,6.836Z" transform="translate(-18.204 -32.683)" fill="#001433"/>
        <path id="Trazado_874807" data-name="Trazado 874807" d="M189.089,10.411S219.814-8.777,237.7,19.588s24.5,100.948-2.723,105.954S188.7,126.793,192.2,85.5a302.005,302.005,0,0,0-3.112-75.084" transform="translate(-32.319 -0.695)" fill="#000a19"/>
        <path id="Trazado_874808" data-name="Trazado 874808" d="M197.867,103.274s-6.9,19.495,5.28,22.744,25.181-4.062,26.4,22.337-87.726,2.437-86.508-8.935,29.242-2.843,30.46-28.024S175.123,85,175.123,85Z" transform="translate(-24.446 -14.528)" fill="#ffb199"/>
        <path id="Trazado_874809" data-name="Trazado 874809" d="M202.6,116.709c-.681-6.342,1.826-13.436,1.826-13.436L181.681,85s0,3.749-.29,12.588c3.795,9.035,11.777,15.673,21.208,19.124" transform="translate(-31.004 -14.528)" fill="#e2887d"/>
        <path id="Trazado_874810" data-name="Trazado 874810" d="M194.912,23.514s38.583-11.247,38.583,36.955-46.705,43.382-57.672,6.828c-11.439-38.132,19.089-43.784,19.089-43.784" transform="translate(-29.614 -3.825)" fill="#ffb199"/>
        <path id="Trazado_874811" data-name="Trazado 874811" d="M194.967,52.876a5.762,5.762,0,0,1,.331-.983,10.084,10.084,0,0,1,1.4-2.373,10.225,10.225,0,0,1,3.017-2.635,9.32,9.32,0,0,1,2.144-.914,10.288,10.288,0,0,1,2.392-.395,11.151,11.151,0,0,1,2.393.2,7.922,7.922,0,0,1,1.128.276,8.044,8.044,0,0,1,1.059.369,13.19,13.19,0,0,1,3.389,1.977A10.776,10.776,0,0,1,213.39,49.4a8.423,8.423,0,0,1,.821.851c.433.493.657.793.657.793s-.357-.135-.944-.4-1.422-.636-2.405-1.042c-.488-.213-1.033-.393-1.591-.6-.565-.185-1.155-.387-1.77-.531a13.888,13.888,0,0,0-1.885-.364,12.482,12.482,0,0,0-1.926-.1,10.851,10.851,0,0,0-1.889.245,10.6,10.6,0,0,0-1.779.559,14.618,14.618,0,0,0-3,1.7,22.414,22.414,0,0,0-1.983,1.651c-.467.437-.728.711-.728.711" transform="translate(-33.324 -7.79)" fill="#000a19"/>
        <path id="Trazado_874812" data-name="Trazado 874812" d="M226.809,51.189a4.811,4.811,0,0,1,.085-.787,8.831,8.831,0,0,1,.607-1.993,8.3,8.3,0,0,1,1.7-2.52,6.431,6.431,0,0,1,1.452-1.11,5.823,5.823,0,0,1,1.855-.673,5.961,5.961,0,0,1,1.986,0,6.622,6.622,0,0,1,1.748.589,7.985,7.985,0,0,1,1.383.885,8.926,8.926,0,0,1,1.025.982,7.576,7.576,0,0,1,.727.928,5.62,5.62,0,0,1,.478.764c.242.438.354.7.354.7s-.27-.122-.7-.358-1.028-.571-1.732-.921c-.345-.19-.729-.354-1.12-.534a11.855,11.855,0,0,0-1.228-.444,7.609,7.609,0,0,0-1.265-.251,5.052,5.052,0,0,0-1.239.058,5.8,5.8,0,0,0-2.329,1.021,14.364,14.364,0,0,0-1.935,1.664c-.556.555-1.016,1.06-1.341,1.42l-.519.578" transform="translate(-38.767 -7.524)" fill="#000a19"/>
        <path id="Trazado_874813" data-name="Trazado 874813" d="M229.748,59.035l.367.666.956,1.714c.2.346.423.716.662,1.094s.51.764.8,1.133a5.961,5.961,0,0,0,.948.991,1.922,1.922,0,0,0,1.013.469l.121.025.007,0c-.05,0,.117-.007-.11.009h.006l.026,0,.051-.007.1-.014a2.672,2.672,0,0,0,.376-.061c.084-.083.187-.07.358-.219a3.6,3.6,0,0,0,.864-.93,15.034,15.034,0,0,0,1.2-2.338c.306-.736.551-1.371.721-1.82l.272-.71a10.262,10.262,0,0,1-.1,2.781,9.23,9.23,0,0,1-.862,2.811,4.459,4.459,0,0,1-1.138,1.456,2.188,2.188,0,0,1-.449.311,5.024,5.024,0,0,1-.6.245,3.849,3.849,0,0,1-.422.075l-.1.016-.051.007-.025,0h-.006c-.232.017-.07,0-.124.007l-.017,0-.282-.031a3.3,3.3,0,0,1-1.863-.89,6.2,6.2,0,0,1-1.1-1.375,8.177,8.177,0,0,1-.695-1.39,9.892,9.892,0,0,1-.444-1.288,12.323,12.323,0,0,1-.405-1.976c-.057-.484-.061-.764-.061-.764" transform="translate(-39.269 -10.09)" fill="#000a19"/>
        <path id="Trazado_874814" data-name="Trazado 874814" d="M202.8,59.035l.367.666.955,1.714c.2.346.424.716.663,1.094s.51.764.8,1.133a5.964,5.964,0,0,0,.948.991,1.923,1.923,0,0,0,1.012.469l.122.025.007,0c-.05,0,.117-.007-.11.009h.006l.026,0,.051-.007.1-.014a2.7,2.7,0,0,0,.376-.061c.084-.083.187-.07.358-.219a3.6,3.6,0,0,0,.864-.93,15.033,15.033,0,0,0,1.2-2.338c.306-.736.551-1.371.721-1.82l.272-.71a10.26,10.26,0,0,1-.1,2.781,9.229,9.229,0,0,1-.862,2.811,4.459,4.459,0,0,1-1.137,1.456,2.213,2.213,0,0,1-.449.311,5.081,5.081,0,0,1-.6.245,3.846,3.846,0,0,1-.422.075l-.1.016-.051.007-.025,0h-.006c-.232.017-.07,0-.124.007l-.017,0-.282-.031a3.3,3.3,0,0,1-1.863-.89,6.206,6.206,0,0,1-1.1-1.375,8.173,8.173,0,0,1-.695-1.39,9.9,9.9,0,0,1-.444-1.288,12.331,12.331,0,0,1-.405-1.976c-.057-.484-.061-.764-.061-.764" transform="translate(-34.664 -10.09)" fill="#000a19"/>
        <path id="Trazado_874815" data-name="Trazado 874815" d="M224.484,58.545c.129.683.27,1.343.424,1.994.065.326.163.647.243.965s.173.633.259.946.206.617.3.924.212.6.322.9.221.592.355.876.234.581.388.85l.423.822.483.776a6.536,6.536,0,0,0,.521.741,6.253,6.253,0,0,0,.561.706c.2.222.408.439.6.671l.674.6c.111.1.217.211.334.308l.371.261.739.547,1.434,1.062-1.366.739c-.993.538-2.006,1.045-3.045,1.513-.51.248-1.049.452-1.573.678-.537.206-1.074.414-1.633.584.387-.439.8-.841,1.21-1.243.423-.384.832-.788,1.269-1.15.857-.751,1.739-1.462,2.641-2.142l.069,1.8-.968-.526-.482-.275c-.153-.1-.3-.219-.447-.328l-.875-.691c-.264-.261-.516-.535-.773-.8a5.914,5.914,0,0,1-.7-.866,8.414,8.414,0,0,1-.616-.921l-.522-.971c-.146-.335-.274-.677-.41-1.014a8.623,8.623,0,0,1-.325-1.034,7.2,7.2,0,0,1-.239-1.049,8.822,8.822,0,0,1-.155-1.056,9.455,9.455,0,0,1-.066-1.06,12.663,12.663,0,0,1,.105-2.1,9.355,9.355,0,0,1,.469-2.035" transform="translate(-38.27 -10.007)" fill="#ff8255"/>
        <path id="Trazado_874816" data-name="Trazado 874816" d="M209.173,85.977l20.713.406s-6.7,14.011-20.713-.406" transform="translate(-35.752 -14.695)" fill="#ff553c"/>
        <path id="Trazado_874817" data-name="Trazado 874817" d="M209.173,85.977c.488.5.963.961,1.433,1.395,4.043-.538,8.061-.132,10.954,3.071a21.335,21.335,0,0,1,1.453,1.79c4.619-1.152,6.874-5.849,6.874-5.849Z" transform="translate(-35.752 -14.695)" fill="#b2382b"/>
        <path id="Trazado_874818" data-name="Trazado 874818" d="M246.029,179.182s-.812,47.924,1.219,47.924,50.767,13,52.8,21.525,3.655,25.587-3.655,2.843c0,0,6.092,31.679-5.28-.405,0,0-4.467,30.46-4.467-.406,0,0-4.062,27.617-4.468.406,0,0-51.986-.812-66.606-12.59s10.154-65.795,10.154-65.795Z" transform="translate(-36.056 -29.516)" fill="#e2887d"/>
        <path id="Trazado_874819" data-name="Trazado 874819" d="M232.758,177.512s11.372,1.219,18.682-1.625c0,0-.349-36.151-17.87-38.989-16.613-2.69-.813,40.614-.813,40.614" transform="translate(-38.623 -23.378)" fill="#ffa94d"/>
        <path id="Trazado_874820" data-name="Trazado 874820" d="M231.15,173.437c1.349,4.531,2.493,7.668,2.493,7.668s11.372,1.219,18.682-1.624A89.354,89.354,0,0,0,249.08,157.8a67.712,67.712,0,0,1-17.93,15.639" transform="translate(-39.509 -26.971)" fill="#dd8d45"/>
        <path id="Trazado_874821" data-name="Trazado 874821" d="M152.335,255.838s-22.158,13.809-23.01,34.928H233.3s-.852-21.932-22.158-36.553-58.8,1.625-58.8,1.625" transform="translate(-22.104 -42.408)" fill="#dd8d45"/>
        <path id="Trazado_874822" data-name="Trazado 874822" d="M151.168,236.557s-25.993-40.614-21.932-72.292,19.495-28.024,25.993-28.024c0,0,9.747,21.119,30.46,18.276,22.363-3.069,24.368-19.089,24.368-19.089s13-2.03,16.651,10.56,9.747,47.924-11.778,54.016l-4.873,24.774s-19.9,19.494-58.89,11.778" transform="translate(-22.016 -23.127)" fill="#ffa94d"/>
        <path id="Trazado_874823" data-name="Trazado 874823" d="M169.3,189.093c-9.2-4.737-17.518-10.98-25.458-17.583a141.617,141.617,0,0,1-13.025-11.718,75.993,75.993,0,0,0-1.586,8.658c-4.061,31.678,21.932,72.292,21.932,72.292,38.989,7.716,58.89-11.778,58.89-11.778l4.873-24.774a18.071,18.071,0,0,0,10.08-7.109c-18.537,1.248-38.973.625-55.707-7.987" transform="translate(-22.016 -27.312)" fill="#dd8d45"/>
        <path id="Trazado_874824" data-name="Trazado 874824" d="M167.631,3.084s23.556-4.873,25.587,15.433-19.9,20.713-19.089,41.832,8.122,46.3-8.123,55.235S134.328,103.4,127.83,143.608c0,0-14.215-22.743-2.843-37.771s17.057-32.491,16.651-63.763S159.509,5.927,167.631,3.084" transform="translate(-20.609 -0.44)" fill="#001433"/>
        <path id="Trazado_874825" data-name="Trazado 874825" d="M176.352,76.559s11.372,13.9,26.4,14.713" transform="translate(-30.142 -13.086)" fill="none" stroke="#001433" stroke-miterlimit="10" stroke-width="0.98"/>
        <path id="Trazado_874826" data-name="Trazado 874826" d="M212.716,94.451a2.672,2.672,0,0,1-3.087,2.18l-6.254-1.078a2.672,2.672,0,1,1,.908-5.266l6.253,1.078a2.672,2.672,0,0,1,2.18,3.087" transform="translate(-34.382 -15.425)" fill="#22689e"/>
        <path id="Trazado_874827" data-name="Trazado 874827" d="M151.369,59.878c0,10.206,7.546,18.479,16.854,18.479s16.855-8.273,16.855-18.479S177.532,41.4,168.223,41.4s-16.854,8.273-16.854,18.479" transform="translate(-25.872 -7.076)" fill="#dd8d45"/>
        <path id="Trazado_874828" data-name="Trazado 874828" d="M145,59.878c0,10.206,7.546,18.479,16.854,18.479s16.855-8.273,16.855-18.479S171.164,41.4,161.855,41.4,145,49.672,145,59.878" transform="translate(-24.784 -7.076)" fill="#ffa94d"/>
        <path id="Trazado_874829" data-name="Trazado 874829" d="M154.311,61.876c0,5.511,4.075,9.978,9.1,9.978s9.1-4.467,9.1-9.978-4.074-9.978-9.1-9.978-9.1,4.467-9.1,9.978" transform="translate(-26.375 -8.871)" fill="#dd8d45"/>
        <path id="Trazado_874830" data-name="Trazado 874830" d="M162.145,52.6s-.812-34.116,17.464-46.3c20.528-13.685,37.365-.812,37.365-.812s-22.338-4.467-34.927,8.936-14.215,35.334-14.215,35.334Z" transform="translate(-27.713 0)" fill="#dd8d45"/>
        <path id="Trazado_874831" data-name="Trazado 874831" d="M166.694,181.058s-2.03,45.081-2.843,55.641c0,0,55.235-10.56,62.545-6.5s26.806,41.02,7.311,15.84c0,0,17.057,30.866-4.467,1.624,0,0,10.559,26.4-4.874,0,0,0,10.154,22.744-5.686-2.03,0,0-66.2,27.617-75.948,21.525s-16.652-52.8-11.778-91.381,35.74,5.28,35.74,5.28" transform="translate(-22.109 -27.331)" fill="#ffb199"/>
        <path id="Trazado_874832" data-name="Trazado 874832" d="M153.051,199.808a59.309,59.309,0,0,0,12.857-1.249c.465-9.789.813-17.5.813-17.5s-30.867-43.862-35.741-5.28c-.79,6.259-1.269,12.73-1.478,19.209,7.567,2.7,15.316,4.675,23.55,4.82" transform="translate(-22.135 -27.331)" fill="#e2887d"/>
        <path id="Trazado_874833" data-name="Trazado 874833" d="M126.372,187.614s-2.437-48.736,21.932-46.3,19.089,48.33,19.089,48.33-22.338,5.687-41.02-2.03" transform="translate(-21.588 -24.139)" fill="#ffa94d"/>
        <path id="Trazado_874834" data-name="Trazado 874834" d="M445.94,307.323c0,2.692-1.818,4.873-4.062,4.873H4.061C1.818,312.2,0,310.015,0,307.323v-9.747c0-2.691,1.818-4.873,4.061-4.873H441.878c2.243,0,4.062,2.182,4.062,4.873Z" transform="translate(0 -50.03)" fill="#22689e"/>
        <rect id="Rectángulo_401732" data-name="Rectángulo 401732" width="157.582" height="124.279" rx="4.899" transform="translate(245.344 81.029)" fill="#003154"/>
        <path id="Rectángulo_401733" data-name="Rectángulo 401733" d="M4.9,0H152.683a4.9,4.9,0,0,1,4.9,4.9V119.38a4.9,4.9,0,0,1-4.9,4.9H4.9a4.9,4.9,0,0,1-4.9-4.9V4.9A4.9,4.9,0,0,1,4.9,0Z" transform="translate(256.715 81.029)" fill="#001433"/>
        <path id="Rectángulo_401734" data-name="Rectángulo 401734" d="M4.9,0H24.343a4.9,4.9,0,0,1,4.9,4.9V90.138a4.9,4.9,0,0,1-4.9,4.9H4.9a4.9,4.9,0,0,1-4.9-4.9V4.9A4.9,4.9,0,0,1,4.9,0Z" transform="translate(318.245 146.824)" fill="#003154"/>
        <path id="Rectángulo_401735" data-name="Rectángulo 401735" d="M4.467,0H93.818a4.467,4.467,0,0,1,4.467,4.467v0a4.467,4.467,0,0,1-4.467,4.467H4.467A4.467,4.467,0,0,1,0,4.467v0A4.467,4.467,0,0,1,4.467,0Z" transform="translate(283.723 233.737)" fill="#003154"/>
        <path id="Rectángulo_401736" data-name="Rectángulo 401736" d="M4.9,0H24.343a4.9,4.9,0,0,1,4.9,4.9V90.138a4.9,4.9,0,0,1-4.9,4.9H4.9a4.9,4.9,0,0,1-4.9-4.9V4.9A4.9,4.9,0,0,1,4.9,0Z" transform="translate(318.245 146.824)" fill="#003154"/>
        <path id="Rectángulo_401737" data-name="Rectángulo 401737" d="M4.467,0H93.818a4.467,4.467,0,0,1,4.467,4.467v0a4.467,4.467,0,0,1-4.467,4.467H4.467A4.467,4.467,0,0,1,0,4.467v0A4.467,4.467,0,0,1,4.467,0Z" transform="translate(169.157 233.737)" fill="#003154"/>
      </g>
    </g>
    <g id="Grupo_1099864" data-name="Grupo 1099864" transform="translate(192.296 2072.712)">
      <path id="Trazado_873607" data-name="Trazado 873607" d="M29.951,64.471a34.52,34.52,0,0,1,69.041,0h29.951A64.472,64.472,0,0,0,0,64.471Z" fill="#b15815"/>
      <path id="Trazado_873610" data-name="Trazado 873610" d="M30.657,0A30.692,30.692,0,0,1,0,30.657v26.6A57.322,57.322,0,0,0,57.257,0Z" transform="translate(60.894 6.787)" fill="#201144"/>
    </g>
    <g id="Grupo_1100414" data-name="Grupo 1100414" transform="translate(432.859 1915.119)">
      <g id="Grupo_1100415" data-name="Grupo 1100415">
        <g id="Grupo_1100412" data-name="Grupo 1100412">
          <g id="Grupo_1100416" data-name="Grupo 1100416">
            <path id="Trazado_874835" data-name="Trazado 874835" d="M341.752,64.371H282.774a5.864,5.864,0,0,0-5.864,5.864V93.073a5.864,5.864,0,0,0,5.864,5.864h8.138v15.4l8.634-15.4h42.206a5.864,5.864,0,0,0,5.864-5.864V70.235a5.864,5.864,0,0,0-5.864-5.864" transform="translate(-128.514 -29.875)" fill="#ff5640"/>
            <g id="Grupo_1100398" data-name="Grupo 1100398" transform="translate(163.097 48.411)" opacity="0.25" style="mix-blend-mode: multiply;isolation: isolate">
              <g id="Grupo_1100397" data-name="Grupo 1100397">
                <g id="Grupo_1100396" data-name="Grupo 1100396" clip-path="url(#clip-path-2)">
                  <path id="Trazado_874836" data-name="Trazado 874836" d="M304.342,94.186a3.85,3.85,0,1,0,3.85-3.85,3.851,3.851,0,0,0-3.85,3.85" transform="translate(-304.342 -90.336)"/>
                  <path id="Trazado_874837" data-name="Trazado 874837" d="M337.654,94.186a3.85,3.85,0,1,0,3.85-3.85,3.85,3.85,0,0,0-3.85,3.85" transform="translate(-319.802 -90.336)"/>
                  <path id="Trazado_874838" data-name="Trazado 874838" d="M370.965,94.186a3.85,3.85,0,1,0,3.85-3.85,3.85,3.85,0,0,0-3.85,3.85" transform="translate(-335.262 -90.336)"/>
                </g>
              </g>
            </g>
            <path id="Trazado_874839" data-name="Trazado 874839" d="M302.383,92.226a3.85,3.85,0,1,0,3.85-3.85,3.851,3.851,0,0,0-3.85,3.85" transform="translate(-140.336 -41.015)" fill="#fff"/>
            <path id="Trazado_874840" data-name="Trazado 874840" d="M335.694,92.226a3.85,3.85,0,1,0,3.85-3.85,3.851,3.851,0,0,0-3.85,3.85" transform="translate(-155.796 -41.015)" fill="#fff"/>
            <path id="Trazado_874841" data-name="Trazado 874841" d="M369.005,92.226a3.85,3.85,0,1,0,3.85-3.85,3.851,3.851,0,0,0-3.85,3.85" transform="translate(-171.255 -41.015)" fill="#fff"/>
            <path id="Trazado_874842" data-name="Trazado 874842" d="M161.762,35.044l-3.178,2.471a23.145,23.145,0,0,0,6.8,5.942l2.009-3.492a19.275,19.275,0,0,0,7.112,2.4l-.522,3.992a23.185,23.185,0,0,0,9.056-.6L182,41.875a19.188,19.188,0,0,0,6.764-3.354l2.475,3.175a23.153,23.153,0,0,0,5.93-6.782l-3.49-2.012a19.287,19.287,0,0,0,2.409-7.109l3.992.525a23.183,23.183,0,0,0-.587-9.056L195.6,18.3a19.185,19.185,0,0,0-3.327-6.74L195.459,9.1l-.042-.055a23.152,23.152,0,0,0-6.845-5.966l-2,3.5a19.27,19.27,0,0,0-7.116-2.388l.513-3.993a23.172,23.172,0,0,0-9.055.615L171.966,4.7a19.178,19.178,0,0,0-6.734,3.349l-2.466-3.182a23.147,23.147,0,0,0-5.954,6.823l3.493,2.005a19.285,19.285,0,0,0-2.395,7.114l-3.992-.518a23.17,23.17,0,0,0,.605,9.055l3.889-1.047a19.183,19.183,0,0,0,3.351,6.749M184.224,17.7a9.129,9.129,0,1,1-12.806-1.64,9.14,9.14,0,0,1,12.806,1.64" transform="translate(-71.342 0)" fill="#22689e"/>
            <path id="Trazado_874843" data-name="Trazado 874843" d="M113.849,69.969l-1.414,2.573a16.878,16.878,0,0,0,6.272,2.013l.336-2.919a14.059,14.059,0,0,0,5.457-.446l.8,2.824A16.909,16.909,0,0,0,131.2,71l-1.823-2.3a14,14,0,0,0,3.56-4.2l2.575,1.41a16.882,16.882,0,0,0,2.011-6.255l-2.918-.339a14.057,14.057,0,0,0-.441-5.457l2.825-.8a16.909,16.909,0,0,0-3.011-5.894l-2.3,1.82a13.986,13.986,0,0,0-4.176-3.551l1.422-2.57-.044-.025a16.883,16.883,0,0,0-6.307-2.017l-.33,2.919a14.056,14.056,0,0,0-5.455.457l-.81-2.822a16.907,16.907,0,0,0-5.886,3.028l1.828,2.3a13.987,13.987,0,0,0-3.542,4.189L105.8,49.469a16.883,16.883,0,0,0-2.016,6.289l2.919.333a14.058,14.058,0,0,0,.452,5.456l-2.823.807a16.9,16.9,0,0,0,3.022,5.888l2.3-1.825a14,14,0,0,0,4.194,3.551m10.028-18.107a6.658,6.658,0,1,1-9.05,2.6,6.666,6.666,0,0,1,9.05-2.6" transform="translate(-48.166 -18.943)" fill="#f66"/>
            <path id="Trazado_874844" data-name="Trazado 874844" d="M0,135.01a29.052,29.052,0,1,0,29.052-29.052A29.052,29.052,0,0,0,0,135.01" transform="translate(0 -49.175)" fill="#22689e"/>
            <g id="Grupo_1100401" data-name="Grupo 1100401" transform="translate(13.606 70.347)" opacity="0.25" style="mix-blend-mode: multiply;isolation: isolate">
              <g id="Grupo_1100400" data-name="Grupo 1100400">
                <g id="Grupo_1100399" data-name="Grupo 1100399" clip-path="url(#clip-path-3)">
                  <path id="Trazado_874845" data-name="Trazado 874845" d="M56.968,147.125a2.746,2.746,0,0,1,3.179.5l1.114-1.113a7.843,7.843,0,0,0,10.34-8.663.715.715,0,0,0-1.21-.391l-1.654,1.653a3.448,3.448,0,1,1-4.876-4.876l1.653-1.653a.714.714,0,0,0-.391-1.211,7.841,7.841,0,0,0-8.616,10.462l-2.415,2.415Z" transform="translate(-38.71 -131.27)"/>
                  <path id="Trazado_874846" data-name="Trazado 874846" d="M39.247,166.541l-2.864-2.864L26.367,173.693a3.335,3.335,0,0,0,4.716,4.716l8.634-8.634a2.746,2.746,0,0,1-.47-3.233" transform="translate(-25.39 -146.31)"/>
                  <path id="Trazado_874847" data-name="Trazado 874847" d="M45.661,150.571a1.049,1.049,0,0,0-1.484,0l-.6.6-10.651-10.65.5-.5a1.05,1.05,0,0,0-.12-1.586l-4.346-3.2a1.048,1.048,0,0,0-1.363.1l-1.845,1.845a1.049,1.049,0,0,0-.1,1.364l3.2,4.345a1.048,1.048,0,0,0,1.586.12l.5-.5,10.65,10.65-.64.64a1.048,1.048,0,0,0,0,1.483l9.826,9.826a3.335,3.335,0,0,0,4.716-4.716Z" transform="translate(-25.416 -133.015)"/>
                </g>
              </g>
            </g>
            <path id="Trazado_874848" data-name="Trazado 874848" d="M55.009,145.165a2.746,2.746,0,0,1,3.179.5l1.114-1.113a7.843,7.843,0,0,0,10.34-8.663.715.715,0,0,0-1.21-.391l-1.653,1.653a3.448,3.448,0,1,1-4.876-4.876l1.653-1.653a.714.714,0,0,0-.391-1.211,7.841,7.841,0,0,0-8.616,10.462l-2.415,2.415Z" transform="translate(-24.194 -60.013)" fill="#fff"/>
            <path id="Trazado_874849" data-name="Trazado 874849" d="M37.287,164.581l-2.864-2.864L24.407,171.733a3.335,3.335,0,1,0,4.716,4.716l8.634-8.634a2.747,2.747,0,0,1-.47-3.233" transform="translate(-10.874 -75.053)" fill="#fff"/>
            <path id="Trazado_874850" data-name="Trazado 874850" d="M43.7,148.612a1.049,1.049,0,0,0-1.484,0l-.6.6-10.651-10.65.5-.5a1.05,1.05,0,0,0-.12-1.586L27,133.275a1.048,1.048,0,0,0-1.363.1l-1.845,1.845a1.048,1.048,0,0,0-.1,1.363l3.2,4.346a1.048,1.048,0,0,0,1.586.12l.5-.5,10.65,10.65-.64.64a1.048,1.048,0,0,0,0,1.483l9.826,9.826a3.335,3.335,0,0,0,4.716-4.716Z" transform="translate(-10.899 -61.758)" fill="#fff"/>
            <path id="Trazado_874851" data-name="Trazado 874851" d="M416.28,120.055a28,28,0,1,0,28-28,28,28,0,0,0-28,28" transform="translate(-193.195 -42.722)" fill="#ffa94d"/>
            <g id="Grupo_1100404" data-name="Grupo 1100404" transform="translate(233.821 65.504)" opacity="0.25" style="mix-blend-mode: multiply;isolation: isolate">
              <g id="Grupo_1100403" data-name="Grupo 1100403">
                <g id="Grupo_1100402" data-name="Grupo 1100402" clip-path="url(#clip-path-4)">
                  <path id="Trazado_874852" data-name="Trazado 874852" d="M494.447,125.667l-11.11,11.038,11.11,11.038a3.18,3.18,0,0,0,.323-1.379V127.046a3.18,3.18,0,0,0-.323-1.379" transform="translate(-458.137 -123.827)"/>
                  <path id="Trazado_874853" data-name="Trazado 874853" d="M458.5,136.684l14.2-14.128a3.182,3.182,0,0,0-1.379-.323H441.127a3.18,3.18,0,0,0-1.379.323l14.2,14.128a3.222,3.222,0,0,0,4.553,0" transform="translate(-437.908 -122.233)"/>
                  <path id="Trazado_874854" data-name="Trazado 874854" d="M436.637,125.667a3.179,3.179,0,0,0-.323,1.379v19.318a3.179,3.179,0,0,0,.323,1.379l11.11-11.038Z" transform="translate(-436.314 -123.827)"/>
                  <path id="Trazado_874855" data-name="Trazado 874855" d="M460.018,150.668a5.371,5.371,0,0,1-7.588,0l-1.572-1.572-11.11,11.038a3.18,3.18,0,0,0,1.379.323h30.193a3.18,3.18,0,0,0,1.379-.323L461.59,149.1Z" transform="translate(-437.908 -134.7)"/>
                </g>
              </g>
            </g>
            <path id="Trazado_874856" data-name="Trazado 874856" d="M492.488,123.707l-11.11,11.038,11.11,11.038a3.179,3.179,0,0,0,.323-1.379V125.086a3.179,3.179,0,0,0-.323-1.379" transform="translate(-223.407 -57.413)" fill="#fff"/>
            <path id="Trazado_874857" data-name="Trazado 874857" d="M456.54,134.725l14.2-14.128a3.182,3.182,0,0,0-1.379-.323H439.167a3.18,3.18,0,0,0-1.379.323l14.2,14.128a3.222,3.222,0,0,0,4.553,0" transform="translate(-203.177 -55.819)" fill="#fff"/>
            <path id="Trazado_874858" data-name="Trazado 874858" d="M434.677,123.707a3.179,3.179,0,0,0-.323,1.379V144.4a3.179,3.179,0,0,0,.323,1.379l11.11-11.038Z" transform="translate(-201.584 -57.413)" fill="#fff"/>
            <path id="Trazado_874859" data-name="Trazado 874859" d="M458.058,148.709a5.371,5.371,0,0,1-7.588,0l-1.572-1.572-11.11,11.038a3.18,3.18,0,0,0,1.379.323h30.193a3.18,3.18,0,0,0,1.379-.323l-11.11-11.038Z" transform="translate(-203.177 -68.287)" fill="#fff"/>
            <path id="Trazado_874860" data-name="Trazado 874860" d="M474.4,26.157A20.127,20.127,0,1,0,494.531,6.03,20.127,20.127,0,0,0,474.4,26.157" transform="translate(-220.171 -2.799)" fill="#22689e"/>
            <path id="Trazado_874862" data-name="Trazado 874862" d="M504.625,37.739l4.747-.382v-5.8a3.553,3.553,0,0,1-.908.249,6.8,6.8,0,0,1-1.231.132,3.411,3.411,0,0,1-2.066-.631,1.956,1.956,0,0,1-.864-1.655,2.262,2.262,0,0,1,.631-1.626,2.372,2.372,0,0,1,1.8-.66,2.24,2.24,0,0,1,1.759.688,3.561,3.561,0,0,1,.82,1.686l3.6-1.465a6.1,6.1,0,0,0-1.144-3.062A7.189,7.189,0,0,0,509.2,23a7.284,7.284,0,0,0-3.4-.82,6.6,6.6,0,0,0-3.722,1.084,7.468,7.468,0,0,0-2.551,2.843,7.951,7.951,0,0,0-.907,3.693,5.962,5.962,0,0,0,1.054,3.575,6.576,6.576,0,0,0,2.491,2.153,5.613,5.613,0,0,0,2.521.66Zm4.572,6.432a3.2,3.2,0,0,0,.879-2.242,2.958,2.958,0,0,0-.953-2.228,3.112,3.112,0,0,0-2.212-.909,2.763,2.763,0,0,0-2.008.822,2.94,2.94,0,0,0-.835,2.2,3.463,3.463,0,0,0,.835,2.344,2.683,2.683,0,0,0,2.125.967,2.838,2.838,0,0,0,2.169-.953" transform="translate(-231.408 -10.293)" fill="#fff"/>
            <path id="Trazado_874863" data-name="Trazado 874863" d="M543.58,107.5a20.127,20.127,0,1,0,20.126-20.126A20.126,20.126,0,0,0,543.58,107.5" transform="translate(-252.275 -40.55)" fill="#ff5640"/>
            <g id="Grupo_1100410" data-name="Grupo 1100410" transform="translate(301.925 57.088)" opacity="0.25" style="mix-blend-mode: multiply;isolation: isolate">
              <g id="Grupo_1100409" data-name="Grupo 1100409">
                <g id="Grupo_1100408" data-name="Grupo 1100408" clip-path="url(#clip-path-5)">
                  <path id="Trazado_874864" data-name="Trazado 874864" d="M576.833,137.622a2.58,2.58,0,1,0,2.58,2.58,2.58,2.58,0,0,0-2.58-2.58" transform="translate(-568.436 -120.959)"/>
                  <path id="Trazado_874865" data-name="Trazado 874865" d="M590.882,137.622a2.58,2.58,0,1,0,2.58,2.58,2.58,2.58,0,0,0-2.58-2.58" transform="translate(-574.956 -120.959)"/>
                  <path id="Trazado_874866" data-name="Trazado 874866" d="M583.72,120.559H570.268L570,119.032h11.056a.789.789,0,0,0,.737-.5l2.633-6.634a.79.79,0,0,0-.737-1.079H568.635L568,107.186a.789.789,0,0,0-.789-.658h-3.028a.79.79,0,1,0,0,1.58h2.369l2.264,13.372a.79.79,0,0,0,.79.658h14.11a.79.79,0,1,0,0-1.579" transform="translate(-563.397 -106.528)"/>
                </g>
              </g>
            </g>
            <path id="Trazado_874867" data-name="Trazado 874867" d="M574.874,135.663a2.58,2.58,0,1,0,2.58,2.58,2.58,2.58,0,0,0-2.58-2.58" transform="translate(-265.602 -62.961)" fill="#fff"/>
            <path id="Trazado_874868" data-name="Trazado 874868" d="M588.923,135.663a2.58,2.58,0,1,0,2.58,2.58,2.58,2.58,0,0,0-2.58-2.58" transform="translate(-272.122 -62.961)" fill="#fff"/>
            <path id="Trazado_874869" data-name="Trazado 874869" d="M581.76,118.6H568.309l-.263-1.527H579.1a.789.789,0,0,0,.737-.5l2.632-6.634a.79.79,0,0,0-.737-1.079H566.676l-.632-3.633a.79.79,0,0,0-.789-.658h-3.027a.79.79,0,1,0,0,1.58H564.6l2.264,13.372a.79.79,0,0,0,.79.658h14.11a.79.79,0,1,0,0-1.579" transform="translate(-260.563 -48.531)" fill="#fff"/>
          </g>
        </g>
      </g>
    </g>
  </g>
</svg>
