<svg xmlns="http://www.w3.org/2000/svg" xmlns:xlink="http://www.w3.org/1999/xlink" width="85" height="85" viewBox="0 0 85 85">
  <defs>
    <clipPath id="clip-path">
      <path id="path9616" d="M0-682.665H61.14v61.14H0Z" transform="translate(0 682.665)"/>
    </clipPath>
  </defs>
  <g id="_79" data-name="79" transform="translate(-298.41 -405)">
    <path id="Trazado_873918" data-name="Trazado 873918" d="M42.5,0A42.5,42.5,0,1,1,0,42.5,42.5,42.5,0,0,1,42.5,0Z" transform="translate(298.41 405)" fill="#fdb641"/>
    <g id="g9594" transform="translate(310.41 1099.664)">
      <g id="g9596" transform="translate(17.869 -632.934)">
        <path id="path9598" d="M-24.278,0l-2.388,6.833H-15.7L-18.088,0Z" transform="translate(26.667)" fill="#ddebfd"/>
      </g>
      <g id="g9600" transform="translate(19.063 -632.934)">
        <path id="path9602" d="M-87.209-34.733-88.4-38.149h-6.191l-1.194,3.417Z" transform="translate(95.788 38.149)" fill="#bed9fd"/>
      </g>
      <g id="g9604" transform="translate(25.552 -633.83)">
        <path id="path9606" d="M-33.385-77.677a.9.9,0,0,1-.845-.6l-2.388-6.833a.9.9,0,0,1,.55-1.141.9.9,0,0,1,1.141.55l2.388,6.833a.9.9,0,0,1-.55,1.141A.894.894,0,0,1-33.385-77.677Z" transform="translate(36.669 86.302)" fill="#201144"/>
      </g>
      <g id="g9608" transform="translate(16.973 -633.83)">
        <path id="path9610" d="M-35.773-1.378a.894.894,0,0,1-.3-.05.9.9,0,0,1-.55-1.141L-34.231-9.4a.9.9,0,0,1,1.141-.55.9.9,0,0,1,.55,1.141l-2.388,6.833A.9.9,0,0,1-35.773-1.378Z" transform="translate(36.669 10.003)" fill="#201144"/>
      </g>
      <g id="g9612" transform="translate(0 -682.665)">
        <g id="g9614" clip-path="url(#clip-path)">
          <g id="g9620" transform="translate(13.474 56.565)">
            <path id="path9622" d="M0-18.614v1.266a.433.433,0,0,0,.433.433H19.324a.433.433,0,0,0,.433-.433v-1.266a1.831,1.831,0,0,0-1.831-1.831H1.831A1.831,1.831,0,0,0,0-18.614" transform="translate(0 20.445)" fill="#bed9fd"/>
          </g>
          <g id="g9624" transform="translate(12.578 55.669)">
            <path id="path9626" d="M10.22-25.124H-8.672A1.33,1.33,0,0,1-10-26.452v-1.266a2.73,2.73,0,0,1,2.727-2.727H8.821a2.73,2.73,0,0,1,2.727,2.727v1.266A1.33,1.33,0,0,1,10.22-25.124ZM-8.209-26.915H9.757v-.8a.937.937,0,0,0-.936-.935H-7.273a.937.937,0,0,0-.935.935Z" transform="translate(10 30.445)" fill="#201144"/>
          </g>
          <g id="g9628" transform="translate(43.543 31.789)">
            <path id="path9630" d="M-130.319-147.041a.9.9,0,0,1-.9-.9v-11.091a1.672,1.672,0,0,0-1.67-1.671,1.672,1.672,0,0,0-1.671,1.671v5.828a3.466,3.466,0,0,1-3.462,3.462h-4.225a.9.9,0,0,1-.9-.9.9.9,0,0,1,.9-.9h4.225a1.672,1.672,0,0,0,1.671-1.671v-5.828a3.466,3.466,0,0,1,3.462-3.462,3.466,3.466,0,0,1,3.462,3.462v11.091A.9.9,0,0,1-130.319-147.041Z" transform="translate(143.138 162.489)" fill="#201144"/>
          </g>
          <g id="g9632" transform="translate(0.896 15.604)">
            <path id="path9634" d="M0-334.787v-31.739a1.194,1.194,0,0,1,1.194-1.194H43.72a1.194,1.194,0,0,1,1.194,1.194v31.739a1.194,1.194,0,0,1-1.194,1.194H1.194A1.194,1.194,0,0,1,0-334.787" transform="translate(0 367.72)" fill="#ddebfd"/>
          </g>
          <g id="g9636" transform="translate(0.896 15.604)">
            <path id="path9638" d="M-444.44-302.01h-42.526a1.194,1.194,0,0,1-1.194-1.194v-27.321a1.194,1.194,0,0,1,1.194-1.194h42.526a1.194,1.194,0,0,1,1.194,1.194V-303.2a1.194,1.194,0,0,1-1.194,1.194" transform="translate(488.16 331.719)" fill="#655e67"/>
          </g>
          <g id="g9640" transform="translate(0 26.409)">
            <path id="path9642" d="M-466.878-177.94H-509.4a2.092,2.092,0,0,1-2.09-2.09v-16.814a.9.9,0,0,1,.9-.9.9.9,0,0,1,.9.9v16.814a.3.3,0,0,0,.3.3h42.526a.3.3,0,0,0,.3-.3.9.9,0,0,1,.9-.9.9.9,0,0,1,.9.9A2.092,2.092,0,0,1-466.878-177.94Z" transform="translate(511.493 197.739)" fill="#201144"/>
          </g>
          <g id="g9644" transform="translate(0 14.708)">
            <path id="path9646" d="M-9.1-84.667a.9.9,0,0,1-.9-.9V-91.89a2.092,2.092,0,0,1,2.09-2.09.9.9,0,0,1,.9.9.9.9,0,0,1-.9.9.3.3,0,0,0-.3.3v6.327A.9.9,0,0,1-9.1-84.667Z" transform="translate(10 93.98)" fill="#201144"/>
          </g>
          <g id="g9648" transform="translate(4.239 18.947)">
            <path id="path9650" d="M0-4.856V17.211a.478.478,0,0,0,.478.478H37.749a.478.478,0,0,0,.478-.478V-4.856a.478.478,0,0,0-.478-.478H.478A.478.478,0,0,0,0-4.856" transform="translate(0 5.333)" fill="#80b6fc"/>
          </g>
          <g id="g9652" transform="translate(3.344 18.052)">
            <path id="path9654" d="M-146.436,14.813h-37.272a1.375,1.375,0,0,1-1.373-1.373V-8.627A1.375,1.375,0,0,1-183.708-10h15.2a.9.9,0,0,1,.9.9.9.9,0,0,1-.9.9H-183.29V13.022h36.436V-8.209h-14.785a.9.9,0,0,1-.9-.9.9.9,0,0,1,.9-.9h15.2a1.375,1.375,0,0,1,1.373,1.373V13.44A1.375,1.375,0,0,1-146.436,14.813Z" transform="translate(185.081 10)" fill="#201144"/>
          </g>
          <g id="g9656" transform="translate(0 36.891)">
            <path id="path9658" d="M-384.472-129.63h-35.742a2.081,2.081,0,0,1-2.079-2.079v-10.761a.9.9,0,0,1,.9-.9.9.9,0,0,1,.9.9v10.761a.288.288,0,0,0,.287.287h35.742a.9.9,0,0,1,.9.9A.9.9,0,0,1-384.472-129.63Z" transform="translate(422.292 143.365)" fill="#201144"/>
          </g>
          <g id="g9660" transform="translate(25.89 14.708)">
            <path id="path9662" d="M8.725,25.919H6.11a.9.9,0,0,1,0-1.791H8.725a.3.3,0,0,0,.3-.3V-7.91a.3.3,0,0,0-.3-.3H-9.1a.9.9,0,0,1-.9-.9.9.9,0,0,1,.9-.9H8.725a2.092,2.092,0,0,1,2.09,2.09V23.829A2.092,2.092,0,0,1,8.725,25.919Z" transform="translate(10 10)" fill="#201144"/>
          </g>
          <g id="g9664" transform="translate(0 14.708)">
            <path id="path9666" d="M-9.1-53.3a.9.9,0,0,1-.9-.9v-3.242a2.092,2.092,0,0,1,2.09-2.09H9.92a.9.9,0,0,1,.9.9.9.9,0,0,1-.9.9H-7.91a.3.3,0,0,0-.3.3V-54.2A.9.9,0,0,1-9.1-53.3Z" transform="translate(10 59.528)" fill="#201144"/>
          </g>
          <g id="g9668" transform="translate(52.48 46.341)">
            <path id="path9670" d="M-46.52,0h-1.389A3.188,3.188,0,0,0-51.1,3.188V9.372a3.188,3.188,0,0,0,3.188,3.188h1.389a3.188,3.188,0,0,0,3.188-3.188V3.188A3.188,3.188,0,0,0-46.52,0" transform="translate(51.096)" fill="#ddebfd"/>
          </g>
          <g id="g9672" transform="translate(55.143 46.341)">
            <path id="path9674" d="M-19.451,0h-1.389a3.22,3.22,0,0,0-.525.044A3.188,3.188,0,0,1-18.7,3.188V9.372a3.188,3.188,0,0,1-2.663,3.144,3.22,3.22,0,0,0,.525.044h1.389a3.188,3.188,0,0,0,3.188-3.188V3.188A3.188,3.188,0,0,0-19.451,0" transform="translate(21.364)" fill="#bed9fd"/>
          </g>
          <g id="g9676" transform="translate(51.585 45.446)">
            <path id="path9678" d="M-57.013-10h1.389a4.088,4.088,0,0,1,4.083,4.083V.267a4.088,4.088,0,0,1-4.083,4.083h-1.389A4.088,4.088,0,0,1-61.1.267V-5.917A4.088,4.088,0,0,1-57.013-10Zm1.389,12.559A2.3,2.3,0,0,0-53.332.267V-5.917a2.3,2.3,0,0,0-2.292-2.292h-1.389A2.3,2.3,0,0,0-59.3-5.917V.267a2.3,2.3,0,0,0,2.292,2.292Z" transform="translate(61.096 10)" fill="#201144"/>
          </g>
          <g id="g9680" transform="translate(55.467 48.554)">
            <path id="path9682" d="M-9.1-7.258a.9.9,0,0,1-.9-.9V-9.1a.9.9,0,0,1,.9-.9.9.9,0,0,1,.9.9v.951A.9.9,0,0,1-9.1-7.258Z" transform="translate(10 10)" fill="#201144"/>
          </g>
          <g id="g9684" transform="translate(36.777 11.535)">
            <path id="path9686" d="M-11.7,0H9.46a1.151,1.151,0,0,1,1.151,1.151V9.169A1.151,1.151,0,0,1,9.46,10.32H-4.189a1.075,1.075,0,0,0-.678.241l-4.051,3.292a.614.614,0,0,1-.992-.37l-.493-2.793a.447.447,0,0,0-.44-.369H-11.7a1.151,1.151,0,0,1-1.151-1.151V1.151A1.151,1.151,0,0,1-11.7,0" transform="translate(12.856)" fill="#e27c48"/>
          </g>
          <g id="g9688" transform="translate(53.882 14.525)">
            <path id="path9690" d="M-9.1-6.8a.9.9,0,0,1-.9-.9V-9.1a.9.9,0,0,1,.9-.9.9.9,0,0,1,.9.9V-7.7A.9.9,0,0,1-9.1-6.8Z" transform="translate(10 10)" fill="#201144"/>
          </g>
          <g id="g9692" transform="translate(53.882 15.498)">
            <path id="path9694" d="M-24.068-7.776a.9.9,0,0,1-.852-.619.9.9,0,0,1,.575-1.129L-23-9.959a.9.9,0,0,1,1.129.575.9.9,0,0,1-.575,1.129l-1.34.435A.9.9,0,0,1-24.068-7.776Z" transform="translate(24.964 10.003)" fill="#201144"/>
          </g>
          <g id="g9696" transform="translate(53.882 15.934)">
            <path id="path9698" d="M-17.523-19.8a.894.894,0,0,1-.725-.369l-.828-1.14a.9.9,0,0,1,.2-1.251.9.9,0,0,1,1.251.2l.828,1.14a.9.9,0,0,1-.2,1.251A.892.892,0,0,1-17.523-19.8Z" transform="translate(19.247 22.727)" fill="#201144"/>
          </g>
          <g id="g9700" transform="translate(53.054 15.934)">
            <path id="path9702" d="M-9.106-19.8a.892.892,0,0,1-.526-.171.9.9,0,0,1-.2-1.251L-9-22.358a.9.9,0,0,1,1.251-.2.9.9,0,0,1,.2,1.251l-.828,1.14A.894.894,0,0,1-9.106-19.8Z" transform="translate(10.001 22.727)" fill="#201144"/>
          </g>
          <g id="g9704" transform="translate(52.542 15.498)">
            <path id="path9706" d="M-7.767-7.776a.9.9,0,0,1-.277-.044l-1.34-.435a.9.9,0,0,1-.575-1.129A.9.9,0,0,1-8.83-9.959l1.34.435a.9.9,0,0,1,.575,1.129A.9.9,0,0,1-7.767-7.776Z" transform="translate(10.003 10.003)" fill="#201144"/>
          </g>
          <g id="g9708" transform="translate(47.615 14.525)">
            <path id="path9710" d="M-9.1-6.8a.9.9,0,0,1-.9-.9V-9.1a.9.9,0,0,1,.9-.9.9.9,0,0,1,.9.9V-7.7A.9.9,0,0,1-9.1-6.8Z" transform="translate(10 10)" fill="#201144"/>
          </g>
          <g id="g9712" transform="translate(47.614 15.498)">
            <path id="path9714" d="M-24.067-7.776a.9.9,0,0,1-.852-.619.9.9,0,0,1,.575-1.129L-23-9.959a.9.9,0,0,1,1.129.575.9.9,0,0,1-.575,1.129l-1.34.435A.9.9,0,0,1-24.067-7.776Z" transform="translate(24.963 10.003)" fill="#201144"/>
          </g>
          <g id="g9716" transform="translate(47.615 15.934)">
            <path id="path9718" d="M-17.523-19.8a.894.894,0,0,1-.725-.369l-.828-1.14a.9.9,0,0,1,.2-1.251.9.9,0,0,1,1.251.2l.828,1.14a.9.9,0,0,1-.2,1.251A.892.892,0,0,1-17.523-19.8Z" transform="translate(19.247 22.727)" fill="#201144"/>
          </g>
          <g id="g9720" transform="translate(46.787 15.934)">
            <path id="path9722" d="M-9.106-19.8a.892.892,0,0,1-.526-.171.9.9,0,0,1-.2-1.251L-9-22.358a.9.9,0,0,1,1.251-.2.9.9,0,0,1,.2,1.251l-.828,1.14A.894.894,0,0,1-9.106-19.8Z" transform="translate(10.001 22.727)" fill="#201144"/>
          </g>
          <g id="g9724" transform="translate(46.275 15.498)">
            <path id="path9726" d="M-7.767-7.776a.9.9,0,0,1-.277-.044l-1.34-.435a.9.9,0,0,1-.575-1.129A.9.9,0,0,1-8.83-9.959l1.34.435a.9.9,0,0,1,.575,1.129A.9.9,0,0,1-7.767-7.776Z" transform="translate(10.003 10.003)" fill="#201144"/>
          </g>
          <g id="g9728" transform="translate(41.347 14.525)">
            <path id="path9730" d="M-9.1-6.8a.9.9,0,0,1-.9-.9V-9.1a.9.9,0,0,1,.9-.9.9.9,0,0,1,.9.9V-7.7A.9.9,0,0,1-9.1-6.8Z" transform="translate(10 10)" fill="#201144"/>
          </g>
          <g id="g9732" transform="translate(41.347 15.498)">
            <path id="path9734" d="M-24.068-7.776a.9.9,0,0,1-.852-.619.9.9,0,0,1,.575-1.129L-23-9.959a.9.9,0,0,1,1.129.575.9.9,0,0,1-.575,1.129l-1.34.435A.9.9,0,0,1-24.068-7.776Z" transform="translate(24.964 10.003)" fill="#201144"/>
          </g>
          <g id="g9736" transform="translate(41.347 15.934)">
            <path id="path9738" d="M-17.523-19.8a.894.894,0,0,1-.725-.369l-.828-1.14a.9.9,0,0,1,.2-1.251.9.9,0,0,1,1.251.2l.828,1.14a.9.9,0,0,1-.2,1.251A.892.892,0,0,1-17.523-19.8Z" transform="translate(19.247 22.727)" fill="#201144"/>
          </g>
          <g id="g9740" transform="translate(40.519 15.934)">
            <path id="path9742" d="M-9.106-19.8a.892.892,0,0,1-.526-.171.9.9,0,0,1-.2-1.251L-9-22.358a.9.9,0,0,1,1.251-.2.9.9,0,0,1,.2,1.251l-.828,1.14A.894.894,0,0,1-9.106-19.8Z" transform="translate(10.001 22.727)" fill="#201144"/>
          </g>
          <g id="g9744" transform="translate(40.007 15.498)">
            <path id="path9746" d="M-7.767-7.776a.9.9,0,0,1-.277-.044l-1.34-.435a.9.9,0,0,1-.575-1.129A.9.9,0,0,1-8.83-9.959l1.34.435a.9.9,0,0,1,.575,1.129A.9.9,0,0,1-7.767-7.776Z" transform="translate(10.003 10.003)" fill="#201144"/>
          </g>
          <g id="g9748" transform="translate(35.881 10.639)">
            <path id="path9750" d="M-20.809-10H.356A2.049,2.049,0,0,1,2.4-7.953V.064A2.049,2.049,0,0,1,.356,2.111h-13.65a.181.181,0,0,0-.114.04l-4.051,3.292a1.511,1.511,0,0,1-.95.339A1.509,1.509,0,0,1-19.9,4.534l-.427-2.422h-.484A2.049,2.049,0,0,1-22.856.064V-7.953A2.049,2.049,0,0,1-20.809-10ZM.356.32A.256.256,0,0,0,.612.064V-7.953a.256.256,0,0,0-.256-.256H-20.809a.256.256,0,0,0-.256.256V.064a.256.256,0,0,0,.256.256h.861a1.341,1.341,0,0,1,1.322,1.109l.41,2.322,3.68-2.99A1.977,1.977,0,0,1-13.294.32Z" transform="translate(22.856 10)" fill="#201144"/>
          </g>
          <g id="g9752" transform="translate(14.954 1.045)">
            <path id="path9754" d="M-164.713-52.309a2.017,2.017,0,0,0-1.433-.594h-.781a4.552,4.552,0,0,0-4.553-4.551A4.551,4.551,0,0,0-175.521-55c-.052,0-.1-.006-.158-.006a2.1,2.1,0,0,0-2.1,2.1h-1.109a2.027,2.027,0,0,0-2.026,2.027,2.02,2.02,0,0,0,.593,1.433,2.017,2.017,0,0,0,1.433.594h12.744a2.028,2.028,0,0,0,2.027-2.027,2.021,2.021,0,0,0-.594-1.433" transform="translate(180.916 57.455)" fill="#ddebfd"/>
          </g>
          <g id="g9756" transform="translate(14.058 0.149)">
            <path id="path9758" d="M-159.249-95.693h-12.743a2.9,2.9,0,0,1-2.067-.857,2.9,2.9,0,0,1-.855-2.066,2.926,2.926,0,0,1,2.922-2.923h.351a3.005,3.005,0,0,1,2.5-2.079,5.429,5.429,0,0,1,4.564-2.473,5.457,5.457,0,0,1,5.374,4.552,2.9,2.9,0,0,1,2.026.857,2.9,2.9,0,0,1,.856,2.066A2.926,2.926,0,0,1-159.249-95.693Zm-12.743-4.054a1.132,1.132,0,0,0-1.131,1.132,1.123,1.123,0,0,0,.331.8,1.122,1.122,0,0,0,.8.332h12.743a1.133,1.133,0,0,0,1.132-1.132,1.124,1.124,0,0,0-.332-.8,1.121,1.121,0,0,0-.8-.332h-.781a.9.9,0,0,1-.9-.9,3.66,3.66,0,0,0-3.657-3.656,3.647,3.647,0,0,0-3.246,1.974.9.9,0,0,1-.86.48l-.093,0a1.207,1.207,0,0,0-1.206,1.206.9.9,0,0,1-.9.9Z" transform="translate(174.914 106.09)" fill="#201144"/>
          </g>
          <g id="g9760" transform="translate(23.353 20.539)">
            <path id="path9762" transform="translate(0 0)" fill="#201144"/>
          </g>
          <g id="g9764" transform="translate(22.457 15.986)">
            <path id="path9766" d="M-9.1-9.21a.9.9,0,0,1-.9-.9v-.1a.9.9,0,0,1,.9-.9.9.9,0,0,1,.9.9v.1A.9.9,0,0,1-9.1-9.21Z" transform="translate(10 11.1)" fill="#201144"/>
          </g>
          <g id="g9768" transform="translate(23.353 13.421)">
            <path id="path9770" transform="translate(0 0)" fill="#201144"/>
          </g>
          <g id="g9772" transform="translate(15.839 26.733)">
            <path id="path9774" d="M-127.471-50.585h-10.051a2.488,2.488,0,0,1-2.488-2.488,2.488,2.488,0,0,1,2.488-2.488h10.051a2.488,2.488,0,0,1,2.488,2.488,2.488,2.488,0,0,1-2.488,2.488" transform="translate(140.01 55.561)" fill="#fbf490"/>
          </g>
          <g id="g9776" transform="translate(14.943 25.838)">
            <path id="path9778" d="M-136.575-58.794h-10.051a3.387,3.387,0,0,1-3.384-3.384,3.387,3.387,0,0,1,3.384-3.384h10.051a3.387,3.387,0,0,1,3.384,3.384A3.387,3.387,0,0,1-136.575-58.794Zm-10.051-4.976a1.594,1.594,0,0,0-1.592,1.592,1.594,1.594,0,0,0,1.592,1.592h10.051a1.594,1.594,0,0,0,1.592-1.592,1.594,1.594,0,0,0-1.592-1.592Z" transform="translate(150.01 65.561)" fill="#201144"/>
          </g>
          <g id="g9780" transform="translate(18.65 35.22)">
            <path id="path9782" d="M-1.491-8.209H-9.1a.9.9,0,0,1-.9-.9.9.9,0,0,1,.9-.9h7.613a.9.9,0,0,1,.9.9A.9.9,0,0,1-1.491-8.209Z" transform="translate(10 10)" fill="#201144"/>
          </g>
        </g>
      </g>
    </g>
  </g>
</svg>
