<svg xmlns="http://www.w3.org/2000/svg" width="161" height="161" viewBox="0 0 161 161">
  <g id="_90" data-name="90" transform="translate(-8169 10502)">
    <circle id="Elipse_11531" data-name="Elipse 11531" cx="80.5" cy="80.5" r="80.5" transform="translate(8169 -10502)" fill="#fff"/>
    <g id="objetivo_3_" data-name="objetivo (3)" transform="translate(8192 -10479)">
      <g id="Grupo_1100541" data-name="Grupo 1100541" transform="translate(5.605 1.868)">
        <g id="Grupo_1100526" data-name="Grupo 1100526" transform="translate(71.835 7.921)">
          <path id="Trazado_875229" data-name="Trazado 875229" d="M58.918,16.375,51,24.3l-.019.019A40.924,40.924,0,0,0,41.45,17.2l.28-.841a14.076,14.076,0,0,0,.747-4.577V5.24A52.539,52.539,0,0,1,58.918,16.375Z" transform="translate(-41.45 -5.24)" fill="#ef7385"/>
        </g>
        <g id="Grupo_1100527" data-name="Grupo 1100527" transform="translate(73.665 85.099)">
          <path id="Trazado_875230" data-name="Trazado 875230" d="M50.146,46.569l7.921,7.921A52.543,52.543,0,0,1,42.43,65.27l1.513-1.513a11.2,11.2,0,0,0,3.288-7.94V49.2a32.256,32.256,0,0,0,2.9-2.653Z" transform="translate(-42.43 -46.55)" fill="#ef7385"/>
        </g>
        <g id="Grupo_1100528" data-name="Grupo 1100528" transform="translate(81.363 19.056)">
          <path id="Trazado_875231" data-name="Trazado 875231" d="M69.81,48.192H58.6A40.912,40.912,0,0,0,46.55,19.14l.019-.019L54.49,11.2A52.143,52.143,0,0,1,69.81,48.192Z" transform="translate(-46.55 -11.2)" fill="#ef7385"/>
        </g>
        <g id="Grupo_1100529" data-name="Grupo 1100529" transform="translate(81.363 56.048)">
          <path id="Trazado_875232" data-name="Trazado 875232" d="M58.6,31H69.81A52.221,52.221,0,0,1,54.49,67.992L46.569,60.07l-.019-.019A40.835,40.835,0,0,0,58.6,31Z" transform="translate(-46.55 -31)" fill="#ef7385"/>
        </g>
        <g id="Grupo_1100530" data-name="Grupo 1100530" transform="translate(0 56.048)">
          <path id="Trazado_875233" data-name="Trazado 875233" d="M26.26,60.051l-.019.019L18.32,67.992A52.143,52.143,0,0,1,3,31H14.21A40.835,40.835,0,0,0,26.26,60.051Z" transform="translate(-3 -31)" fill="#ef7385"/>
        </g>
        <g id="Grupo_1100531" data-name="Grupo 1100531" transform="translate(15.32 85.099)">
          <path id="Trazado_875234" data-name="Trazado 875234" d="M42.587,66.073v3.438A52.279,52.279,0,0,1,11.2,54.49l7.921-7.921.019-.019A40.855,40.855,0,0,0,37.057,57.068a11.187,11.187,0,0,0,3.213,6.688Z" transform="translate(-11.2 -46.55)" fill="#ef7385"/>
        </g>
        <g id="Grupo_1100532" data-name="Grupo 1100532" transform="translate(0 19.056)">
          <path id="Trazado_875235" data-name="Trazado 875235" d="M26.241,19.121l.019.019A40.945,40.945,0,0,0,14.21,48.192H3A52.221,52.221,0,0,1,18.32,11.2Z" transform="translate(-3 -11.2)" fill="#ef7385"/>
        </g>
        <g id="Grupo_1100533" data-name="Grupo 1100533" transform="translate(15.32 7.118)">
          <path id="Trazado_875236" data-name="Trazado 875236" d="M28.388,16.729l.28.859-.075.019a40.363,40.363,0,0,0-9.453,7.081l-.019-.019L11.2,16.748A52.6,52.6,0,0,1,29.64,4.81a14.36,14.36,0,0,0-2,7.342A14.075,14.075,0,0,0,28.388,16.729Z" transform="translate(-11.2 -4.81)" fill="#ef7385"/>
        </g>
        <g id="Grupo_1100534" data-name="Grupo 1100534" transform="translate(46.706 104.622)">
          <path id="Trazado_875237" data-name="Trazado 875237" d="M54.156,57v7.473H28V57Z" transform="translate(-28 -57)" fill="#b4dd7f"/>
        </g>
        <g id="Grupo_1100535" data-name="Grupo 1100535" transform="translate(37.365 48.575)">
          <path id="Trazado_875238" data-name="Trazado 875238" d="M41.683,47.551a3.748,3.748,0,0,1,3.737-3.737,3.764,3.764,0,0,1,3.737,3.737v1.868a3.748,3.748,0,0,1,3.737-3.737,3.764,3.764,0,0,1,3.737,3.737v1.868a3.664,3.664,0,0,1,1.1-2.653A3.739,3.739,0,0,1,64.1,51.287v21.5a11.2,11.2,0,0,1-3.288,7.94L59.3,82.244l-.8.8H32.341l-2.317-2.317a11.187,11.187,0,0,1-3.213-6.688,9.378,9.378,0,0,1-.075-1.252V68.27a32.479,32.479,0,0,0-3.419-14.479,3.023,3.023,0,0,1,2.709-4.372A8.181,8.181,0,0,1,34.21,57.6V30.737A3.747,3.747,0,0,1,37.946,27a3.764,3.764,0,0,1,3.737,3.737V47.551Z" transform="translate(-23 -27)" fill="#f0d0b4"/>
        </g>
        <g id="Grupo_1100536" data-name="Grupo 1100536" transform="translate(37.365 41.102)">
          <path id="Trazado_875239" data-name="Trazado 875239" d="M52.892,37.946H41.683V34.21a3.764,3.764,0,0,0-3.737-3.737A3.748,3.748,0,0,0,34.21,34.21v3.737H23a14.946,14.946,0,1,1,29.892,0Z" transform="translate(-23 -23)" fill="#b4dd7f"/>
        </g>
        <g id="Grupo_1100537" data-name="Grupo 1100537" transform="translate(31.76)">
          <path id="Trazado_875240" data-name="Trazado 875240" d="M21.289,21.7l-.262-.8-.28-.859A14.075,14.075,0,0,1,20,15.46a14.36,14.36,0,0,1,2-7.342,15.259,15.259,0,0,1,2.242-2.877A14.4,14.4,0,0,1,34.46,1H61.1V15.46a14.075,14.075,0,0,1-.747,4.577l-.28.841-.262.822A5.6,5.6,0,0,0,55.5,19.683H53.629a3.748,3.748,0,0,0-3.737-3.737H42.1a12.77,12.77,0,0,1-9.024-3.737,8.214,8.214,0,0,0-5.6,7.473H25.6A5.6,5.6,0,0,0,21.289,21.7Z" transform="translate(-20 -1)" fill="#fcd770"/>
        </g>
        <g id="Grupo_1100538" data-name="Grupo 1100538" transform="translate(65.389 18.683)">
          <path id="Trazado_875241" data-name="Trazado 875241" d="M44.184,13.018a5.613,5.613,0,0,1-4.316,9.192H38V11h1.868a5.6,5.6,0,0,1,4.316,2.018Z" transform="translate(-38 -11)" fill="#f0d0b4"/>
        </g>
        <g id="Grupo_1100539" data-name="Grupo 1100539" transform="translate(39.233 11.21)">
          <path id="Trazado_875242" data-name="Trazado 875242" d="M24,14.473A8.214,8.214,0,0,1,29.6,7a12.77,12.77,0,0,0,9.024,3.737h7.791a3.748,3.748,0,0,1,3.737,3.737v11.21a11.218,11.218,0,0,1-11.21,11.21H35.21A11.218,11.218,0,0,1,24,25.683V14.473Z" transform="translate(-24 -7)" fill="#f0d0b4"/>
        </g>
        <g id="Grupo_1100540" data-name="Grupo 1100540" transform="translate(31.76 18.683)">
          <path id="Trazado_875243" data-name="Trazado 875243" d="M27.473,11V22.21H25.6A5.6,5.6,0,1,1,25.6,11Z" transform="translate(-20 -11)" fill="#f0d0b4"/>
        </g>
      </g>
      <g id="Grupo_1100542" data-name="Grupo 1100542" transform="translate(0 0)">
        <circle id="Elipse_11563" data-name="Elipse 11563" cx="2" cy="2" r="2" transform="translate(50 22)"/>
        <ellipse id="Elipse_11564" data-name="Elipse 11564" cx="1.5" cy="2" rx="1.5" ry="2" transform="translate(62 22)"/>
        <path id="Trazado_875244" data-name="Trazado 875244" d="M38.118,16.948a4.178,4.178,0,0,1-7.473,0l-.2-.394-3.342,1.672.2.394a7.915,7.915,0,0,0,14.158,0l.2-.394-3.342-1.672Z" transform="translate(23.535 14.371)"/>
        <path id="Trazado_875245" data-name="Trazado 875245" d="M115.832,59.784V56.048h-3.806a54.075,54.075,0,0,0-14.511-35.09l2.675-2.675-2.642-2.642-2.673,2.673a54.211,54.211,0,0,0-14.541-9.7V0h-28.5A16.322,16.322,0,0,0,38.12,7.492,53.722,53.722,0,0,0,20.986,18.344l-2.7-2.7-2.642,2.642,2.7,2.7A54.409,54.409,0,0,0,3.809,56.048H0v3.737H3.779a54.035,54.035,0,0,0,14.5,35.125l-2.638,2.638,2.642,2.642,2.631-2.631a53.9,53.9,0,0,0,29.53,14.01v4.263H80.337v-8.568l.045-.045A53.985,53.985,0,0,0,94.859,97.5l2.69,2.69,2.642-2.642L97.5,94.855a54.206,54.206,0,0,0,14.529-35.071Zm-7.542-3.737h-7.467a42.912,42.912,0,0,0-11.23-27.166L94.874,23.6A50.346,50.346,0,0,1,108.29,56.048Zm-56.98,46.8a9.394,9.394,0,0,1-2.737-6.608V91.715A34.436,34.436,0,0,0,44.96,76.4a1.156,1.156,0,0,1,1.033-1.672,6.327,6.327,0,0,1,6.318,6.32V85.94h3.737V54.18a1.868,1.868,0,0,1,3.737,0V85.94h3.737V70.994a1.868,1.868,0,0,1,3.737,0V85.94h3.737V72.862a1.868,1.868,0,1,1,3.737,0V85.94h3.737V74.728a1.868,1.868,0,0,1,3.737,0V96.243a9.288,9.288,0,0,1-2.735,6.606l-1.775,1.773H53.085ZM18.683,57.916A39.215,39.215,0,0,1,35.542,25.707c-.009.151-.045.3-.045.448a7.481,7.481,0,0,0,7.473,7.473h.149a13.1,13.1,0,0,0,6.644,9.594A16.822,16.822,0,0,0,41.1,57.916v1.868h11.21V73.292a9.951,9.951,0,0,0-6.318-2.3,4.893,4.893,0,0,0-4.375,7.079,30.648,30.648,0,0,1,3.221,13.642v3.178A39.364,39.364,0,0,1,18.683,57.916ZM42.97,29.892a3.737,3.737,0,0,1,0-7.473ZM57.916,48.575a5.612,5.612,0,0,0-5.6,5.6v1.868h-7.34a13.08,13.08,0,0,1,25.89,0h-7.34V54.18A5.612,5.612,0,0,0,57.916,48.575ZM56.048,41.1a9.352,9.352,0,0,1-9.341-9.341V20.854a6.321,6.321,0,0,1,3.359-5.59,14.507,14.507,0,0,0,9.4,3.419h7.793a1.871,1.871,0,0,1,1.868,1.868V31.76A9.352,9.352,0,0,1,59.784,41.1ZM85.94,85.368V74.732a5.614,5.614,0,0,0-5.6-5.607,5.543,5.543,0,0,0-2.748.749,5.521,5.521,0,0,0-7.473-1.868,5.492,5.492,0,0,0-6.593-2.274V59.784H74.73V57.916a16.822,16.822,0,0,0-8.661-14.694,13.1,13.1,0,0,0,6.644-9.594h.149a7.481,7.481,0,0,0,7.473-7.473c0-.153-.035-.3-.045-.45a39.209,39.209,0,0,1,5.65,59.663ZM72.862,22.419a3.737,3.737,0,0,1,0,7.473ZM92.23,20.96l-5.291,5.291a42.974,42.974,0,0,0-7.286-5.381,16.364,16.364,0,0,0,.682-4.534V12.743A50.359,50.359,0,0,1,92.23,20.96ZM51.833,3.737H76.6v12.6a12.548,12.548,0,0,1-.441,3.148,7.361,7.361,0,0,0-3.3-.8h-.344a5.6,5.6,0,0,0-5.261-3.737H59.465a10.819,10.819,0,0,1-7.7-3.189l-.816-.816-1.095.364a10.03,10.03,0,0,0-6.617,7.378H42.97a7.39,7.39,0,0,0-3.3.8,12.522,12.522,0,0,1-.441-3.146,12.613,12.613,0,0,1,12.6-12.6ZM35.97,12.506a16.191,16.191,0,0,0-.473,3.83,16.207,16.207,0,0,0,.684,4.534,43.01,43.01,0,0,0-7.286,5.382l-5.272-5.272A50.2,50.2,0,0,1,35.97,12.506ZM20.986,23.628l5.255,5.255A42.932,42.932,0,0,0,15.01,56.048H7.546A50.673,50.673,0,0,1,20.986,23.628ZM7.516,59.784h7.507A43.041,43.041,0,0,0,26.27,86.921l-5.345,5.345A50.333,50.333,0,0,1,7.516,59.784ZM23.559,94.915l5.354-5.353a42.666,42.666,0,0,0,16.209,9.353,13.155,13.155,0,0,0,3.546,6.576l1.775,1.773v.538A50.174,50.174,0,0,1,23.559,94.915ZM76.6,112.1H54.18v-3.737H76.6Zm8.7-11.822a13.051,13.051,0,0,0,.641-4.03V90.472c.338-.291.68-.579,1.009-.88l5.268,5.267a50.371,50.371,0,0,1-6.918,5.414Zm9.556-8.06-5.272-5.272a42.789,42.789,0,0,0,11.251-27.157h7.456A50.473,50.473,0,0,1,94.855,92.214Z" transform="translate(0 0)"/>
      </g>
    </g>
  </g>
</svg>
