<svg xmlns="http://www.w3.org/2000/svg" width="96.762" height="96.762" viewBox="0 0 96.762 96.762">
  <g id="_95" data-name="95" transform="translate(-1118.457 -547)">
    <g id="Grupo_1099174" data-name="Grupo 1099174" transform="translate(1118.457 547)">
      <g id="Grupo_1099167" data-name="Grupo 1099167" transform="translate(0 0)">
        <path id="Trazado_873000" data-name="Trazado 873000" d="M48.381,0h0V22.476a25.9,25.9,0,1,0,25.905,25.9H96.762A48.381,48.381,0,1,1,48.381,0" transform="translate(0 96.762) rotate(-90)" fill="#201144"/>
      </g>
      <rect id="Rectángulo_401249" data-name="Rectángulo 401249" width="66.409" height="66.409" rx="33.204" transform="translate(15.157 15.157)" fill="#e8faf9"/>
    </g>
    <g id="Fill_out_line" data-name="Fill out line" transform="translate(1123.185 550.731)">
      <path id="Trazado_875303" data-name="Trazado 875303" d="M229.429,292a1.429,1.429,0,1,0,1.429,1.429A1.429,1.429,0,0,0,229.429,292Zm0,1.905a.476.476,0,1,1,.476-.476A.476.476,0,0,1,229.429,293.905Z" transform="translate(-186.76 -243.14)" fill="#201144"/>
      <path id="Trazado_875304" data-name="Trazado 875304" d="M417.149,324.966l-2.714-.938a1.9,1.9,0,0,0-2.354,1.007,21.961,21.961,0,0,1-1.2,2.233,1.911,1.911,0,0,0,.437,2.5l2.256,1.785a1.907,1.907,0,0,0,2.8-.482,28.546,28.546,0,0,0,1.888-3.514,1.908,1.908,0,0,0-1.112-2.589Zm-.191,2a27.115,27.115,0,0,1-1.793,3.338.485.485,0,0,1-.328.22.477.477,0,0,1-.374-.1l-2.256-1.785a.481.481,0,0,1-.106-.629,23.4,23.4,0,0,0,1.276-2.379.484.484,0,0,1,.437-.284.471.471,0,0,1,.154.026l2.713.938a.475.475,0,0,1,.28.26A.487.487,0,0,1,416.959,326.968Z" transform="translate(-347.619 -271.262)" fill="#201144"/>
      <path id="Trazado_875305" data-name="Trazado 875305" d="M439.911,266.58l-2.869-.094a1.9,1.9,0,0,0-1.951,1.662c-.095.715-.227,1.433-.392,2.134a1.9,1.9,0,0,0,1.23,2.247l2.714.938a1.906,1.906,0,0,0,2.473-1.345,28.424,28.424,0,0,0,.625-3.405,1.907,1.907,0,0,0-1.829-2.137Zm.411,1.965a27.025,27.025,0,0,1-.594,3.233.477.477,0,0,1-.619.338l-2.714-.938a.48.48,0,0,1-.306-.568c.176-.747.317-1.513.418-2.275a.474.474,0,0,1,.472-.422H437l2.868.094a.476.476,0,0,1,.346.166A.483.483,0,0,1,440.322,268.546Z" transform="translate(-368.801 -220.663)" fill="#201144"/>
      <path id="Trazado_875306" data-name="Trazado 875306" d="M439.658,228.864a1.676,1.676,0,0,0,1.627,1.587l3.066.1h.064a1.906,1.906,0,0,0,1.9-2.015l0-.076a1.906,1.906,0,0,0-2.152-1.778l-3.043.4a1.688,1.688,0,0,0-1.462,1.757Zm1.648-.364,3.045-.4a.456.456,0,0,1,.062,0,.478.478,0,0,1,.476.449l0,.074a.477.477,0,0,1-.477.505l-3.084-.1a.25.25,0,0,1-.246-.233v-.023A.259.259,0,0,1,441.306,228.5Z" transform="translate(-373.214 -185.584)" fill="#201144"/>
      <path id="Trazado_875307" data-name="Trazado 875307" d="M64.773,61.778l-2.255-1.785A1.9,1.9,0,0,0,60,60.129a21.767,21.767,0,0,1-15.423,6.353l-.358,0A21.908,21.908,0,1,1,56.267,26.045a2.387,2.387,0,0,0,1.763,3.3l4.979.894a2.382,2.382,0,0,0,2.8-2.412l-.144-5.056a2.381,2.381,0,0,0-3.934-1.737l-.43.371A28.316,28.316,0,0,0,44.564,16h-.216a28.575,28.575,0,1,0,20.6,48.611,1.907,1.907,0,0,0-.174-2.833Zm-.845,1.831A27.159,27.159,0,1,1,44.359,17.428h.205A26.912,26.912,0,0,1,60.906,22.89a.714.714,0,0,0,.9-.029l.863-.743a.952.952,0,0,1,1.574.695l.144,5.056a.953.953,0,0,1-1.12.965l-4.978-.894a.953.953,0,0,1-.516-1.6.715.715,0,0,0-.11-1.091,23.338,23.338,0,1,0,3.348,35.895.472.472,0,0,1,.625-.029L63.886,62.9a.477.477,0,0,1,.18.343A.482.482,0,0,1,63.928,63.609Z" transform="translate(0 0)" fill="#201144"/>
      <path id="Trazado_875308" data-name="Trazado 875308" d="M102.281,100.008l5.356,1.236a5.683,5.683,0,0,0,5.326-1.528l3.32-3.32a2.3,2.3,0,0,0,2.433-3.78l-15.24-15.24a2.3,2.3,0,0,0-3.78,2.433l-3.32,3.32a5.682,5.682,0,0,0-1.528,5.326l1.236,5.356A1.9,1.9,0,0,1,93.8,96.1l-5.356-1.236a5.685,5.685,0,0,0-5.326,1.528l-3.32,3.32a2.3,2.3,0,0,0-2.433,3.78l15.24,15.24a2.3,2.3,0,0,0,3.78-2.433l3.32-3.32a5.682,5.682,0,0,0,1.528-5.326L100,102.292a1.9,1.9,0,0,1,2.285-2.284ZM98.6,102.614l1.236,5.355a4.262,4.262,0,0,1-1.146,3.995l-3.512,3.512-.674-.674,3.512-3.512a3.3,3.3,0,0,0,.943-2.829.476.476,0,0,0-.863-.2,1.159,1.159,0,0,1-1.3.4c-.53-.213-.74-.929-.575-1.964a.476.476,0,0,0-.807-.411c-2.331,2.33-5.273,4.153-9.427,0l-5.378-5.378L84.129,97.4a4.263,4.263,0,0,1,3.995-1.146l5.355,1.236a3.334,3.334,0,0,0,4-4l-1.236-5.355a4.262,4.262,0,0,1,1.146-3.995l3.512-3.512,5.4,5.4c-2.9-.149-6.093.416-7.593,2.1a3.5,3.5,0,0,0-.722,3.325l.419,1.817a4.258,4.258,0,0,1-.8,3.607,3.692,3.692,0,0,0-.861,4.206.476.476,0,0,0,.441.3l.044,0a.476.476,0,0,0,.423-.379,4.3,4.3,0,0,1,4.191-3.429,4.344,4.344,0,0,1,.976.112l5.356,1.236a3.333,3.333,0,0,0,3.107-.891l3.512-3.512.674.674-3.512,3.512a4.261,4.261,0,0,1-3.995,1.146L102.6,98.616a3.334,3.334,0,0,0-4,4Zm-3.758,15.1a.871.871,0,0,1-1.232,0l-15.24-15.24a.871.871,0,0,1,1.232-1.232l15.24,15.24A.871.871,0,0,1,94.847,117.717Zm-5.675-8.254a5.413,5.413,0,0,0,2.707.127,7.635,7.635,0,0,0,3.364-1.828,2.011,2.011,0,0,0,1.207,1.785,2.054,2.054,0,0,0,1.527-.031,2.373,2.373,0,0,1-.628,1.1l-3.512,3.512Zm28.535-14.606a.871.871,0,0,1-1.232,0l-15.24-15.24a.871.871,0,0,1,1.232-1.232l15.24,15.24a.871.871,0,0,1,0,1.232Zm-18.374-1.8-.422-1.827a2.533,2.533,0,0,1,.509-2.468c1.033-1.163,3.946-2.176,7.926-1.691l3.351,3.351c-4.355,4.1-7.743,2.406-9.586,1.484a.476.476,0,1,0-.426.852,9.609,9.609,0,0,0,4.388,1.246c1.8,0,3.938-.68,6.3-2.909l2.747,2.747-3.512,3.512a2.38,2.38,0,0,1-2.219.637l-5.355-1.236a5.224,5.224,0,0,0-5.6,2.293,2.922,2.922,0,0,1,.862-1.514.482.482,0,0,0,.038-.042A5.206,5.206,0,0,0,99.333,93.061Z" transform="translate(-53.467 -53.478)" fill="#201144"/>
      <path id="Trazado_875309" data-name="Trazado 875309" d="M185.515,253.794a5.3,5.3,0,0,1-1.19-.136l-3.653-.843a.476.476,0,0,1,.214-.928l3.653.843a4.343,4.343,0,0,0,.976.112.476.476,0,0,1,0,.952Z" transform="translate(-144.741 -207.792)" fill="#201144"/>
      <path id="Trazado_875310" data-name="Trazado 875310" d="M144.112,249.749a.476.476,0,0,1-.337-.813,3.333,3.333,0,0,1,3.107-.891.476.476,0,0,1-.214.928,2.381,2.381,0,0,0-2.219.637A.475.475,0,0,1,144.112,249.749Z" transform="translate(-112.44 -204.343)" fill="#201144"/>
    </g>
  </g>
</svg>
