<svg xmlns="http://www.w3.org/2000/svg" width="83.73" height="83.731" viewBox="0 0 83.73 83.731">
  <g id="_96" data-name="96" transform="translate(-176.457 -399)">
    <rect id="Rectángulo_401249" data-name="Rectángulo 401249" width="83.73" height="83.731" rx="41.865" transform="translate(176.457 399)" fill="#b15815"/>
    <g id="obediente" transform="translate(171.379 407)">
      <g id="Grupo_1100547" data-name="Grupo 1100547" transform="translate(28.289 0.979)">
        <path id="Trazado_875246" data-name="Trazado 875246" d="M158.524,7.5H116.967a.653.653,0,0,0-.652.652V26.243h4.279a3.2,3.2,0,0,1,.223,6.388V36.6h0a1.3,1.3,0,0,1,1.106,1.288v8.1a1.3,1.3,0,0,1-1.106,1.288h0v3.967a3.2,3.2,0,0,1-.223,6.388h-4.279v5.355h9.006a1.3,1.3,0,0,1,1.3,1.3v2.6s0,0,0,0h.994a1.3,1.3,0,0,1,1.3,1.3v4.162h30.252V8.152A.653.653,0,0,0,158.524,7.5Z" transform="translate(-116.315 -7.5)" fill="#fff3de"/>
      </g>
      <g id="Grupo_1100548" data-name="Grupo 1100548" transform="translate(28.289 0.979)">
        <path id="Trazado_875247" data-name="Trazado 875247" d="M120.594,26.243c.039,0,.078,0,.116,0V8.152a.653.653,0,0,1,.652-.652h-4.4a.653.653,0,0,0-.652.652V26.243Z" transform="translate(-116.315 -7.5)" fill="#ffe5c2"/>
        <path id="Trazado_875248" data-name="Trazado 875248" d="M120.594,391.63h-4.279v5.355h4.4v-5.358Z" transform="translate(-116.315 -341.5)" fill="#ffe5c2"/>
      </g>
      <g id="Grupo_1100566" data-name="Grupo 1100566" transform="translate(16.057 19.722)">
        <g id="Grupo_1100549" data-name="Grupo 1100549" transform="translate(17.841 13.462)">
          <path id="Trazado_875249" data-name="Trazado 875249" d="M159.3,254.29h6.041v4.463H159.3Z" transform="translate(-159.296 -254.29)" fill="#883f2e"/>
          <path id="Trazado_875250" data-name="Trazado 875250" d="M237.5,254.29h8.628v4.463H237.5Z" transform="translate(-227.296 -254.29)" fill="#883f2e"/>
        </g>
        <g id="Grupo_1100550" data-name="Grupo 1100550" transform="translate(17.841 15.773)">
          <path id="Trazado_875251" data-name="Trazado 875251" d="M159.3,272h6.041v2.152H159.3Z" transform="translate(-159.296 -272)" fill="#6d3326"/>
          <path id="Trazado_875252" data-name="Trazado 875252" d="M237.5,272h8.628v2.152H237.5Z" transform="translate(-227.296 -272)" fill="#6d3326"/>
        </g>
        <g id="Grupo_1100551" data-name="Grupo 1100551" transform="translate(36.675 12.421)">
          <path id="Trazado_875253" data-name="Trazado 875253" d="M327.863,249.583a3.273,3.273,0,0,1-3.273,3.273H304.36a.744.744,0,0,1-.744-.744v-5.058a.744.744,0,0,1,.744-.744H324.59A3.273,3.273,0,0,1,327.863,249.583Z" transform="translate(-303.616 -246.31)" fill="#ca6e59"/>
        </g>
        <g id="Grupo_1100552" data-name="Grupo 1100552" transform="translate(36.675 12.421)">
          <path id="Trazado_875254" data-name="Trazado 875254" d="M308.064,250.054a.744.744,0,0,1-.744-.744v-3h-2.96a.744.744,0,0,0-.744.744v5.058a.744.744,0,0,0,.744.744H324.59a3.273,3.273,0,0,0,3.238-2.8Z" transform="translate(-303.616 -246.31)" fill="#bb5d4c"/>
        </g>
        <g id="Grupo_1100553" data-name="Grupo 1100553" transform="translate(23.882 12.421)">
          <path id="Trazado_875255" data-name="Trazado 875255" d="M209.75,246.963v5.24a.653.653,0,0,1-.652.652h-2.86a.653.653,0,0,1-.652-.652v-5.24a.653.653,0,0,1,.652-.652h2.86A.652.652,0,0,1,209.75,246.963Z" transform="translate(-205.585 -246.311)" fill="#ca6e59"/>
        </g>
        <g id="Grupo_1100554" data-name="Grupo 1100554" transform="translate(23.882 12.421)">
          <path id="Trazado_875256" data-name="Trazado 875256" d="M207.477,252.2v-5.24a.653.653,0,0,1,.652-.652h-1.892a.653.653,0,0,0-.652.652v5.24a.653.653,0,0,0,.652.652h1.892A.652.652,0,0,1,207.477,252.2Z" transform="translate(-205.585 -246.311)" fill="#bb5d4c"/>
        </g>
        <g id="Grupo_1100555" data-name="Grupo 1100555" transform="translate(8.107 6.388)">
          <path id="Trazado_875257" data-name="Trazado 875257" d="M93.132,312.314H84.9a1.307,1.307,0,0,1-.2-.017v3.967c.074-.005.148-.009.223-.009h8.182c.075,0,.149,0,.223.009V312.3A1.292,1.292,0,0,1,93.132,312.314Z" transform="translate(-84.703 -297.653)" fill="#883f2e"/>
          <path id="Trazado_875258" data-name="Trazado 875258" d="M84.9,312.314a1.307,1.307,0,0,1-.2-.017v3.967c.074-.005.148-.009.223-.009h3.063v-3.942H84.9Z" transform="translate(-84.703 -297.653)" fill="#6d3326"/>
          <path id="Trazado_875259" data-name="Trazado 875259" d="M84.9,204.03h8.231a1.311,1.311,0,0,1,.2.017v-3.967c-.074.005-.148.009-.223.009H84.926c-.075,0-.149,0-.223-.009v3.967A1.311,1.311,0,0,1,84.9,204.03Z" transform="translate(-84.703 -200.079)" fill="#883f2e"/>
          <path id="Trazado_875260" data-name="Trazado 875260" d="M84.9,204.029h3.088v-3.942H84.926c-.075,0-.149,0-.223-.009v3.967A1.329,1.329,0,0,1,84.9,204.029Z" transform="translate(-84.703 -200.078)" fill="#6d3326"/>
        </g>
        <g id="Grupo_1100556" data-name="Grupo 1100556" transform="translate(7.001 10.338)">
          <path id="Trazado_875261" data-name="Trazado 875261" d="M87.066,231.657v8.1a1.3,1.3,0,0,1-1.3,1.3H77.53a1.3,1.3,0,0,1-1.3-1.3v-8.1a1.3,1.3,0,0,1,1.3-1.3h8.231A1.3,1.3,0,0,1,87.066,231.657Z" transform="translate(-76.225 -230.352)" fill="#ca6e59"/>
        </g>
        <g id="Grupo_1100557" data-name="Grupo 1100557" transform="translate(7.001 10.338)">
          <path id="Trazado_875262" data-name="Trazado 875262" d="M80.633,239.757v-8.1a1.3,1.3,0,0,1,1.3-1.3H77.53a1.3,1.3,0,0,0-1.3,1.3v8.1a1.3,1.3,0,0,0,1.3,1.3h4.408A1.3,1.3,0,0,1,80.633,239.757Z" transform="translate(-76.225 -230.352)" fill="#bb5d4c"/>
        </g>
        <g id="Grupo_1100560" data-name="Grupo 1100560" transform="translate(0 36.742)">
          <path id="Trazado_875263" data-name="Trazado 875263" d="M60.432,436.72a1.334,1.334,0,0,0,.007-.134v-2.6a1.3,1.3,0,0,0-1.3-1.3H41.5a1.3,1.3,0,0,0-1.3,1.3v2.6a1.334,1.334,0,0,0,.007.134Z" transform="translate(-37.896 -432.685)" fill="#ca6e59"/>
          <path id="Trazado_875264" data-name="Trazado 875264" d="M44.613,436.72a1.334,1.334,0,0,1-.007-.134v-2.6a1.3,1.3,0,0,1,1.3-1.3H41.5a1.3,1.3,0,0,0-1.3,1.3v2.6a1.334,1.334,0,0,0,.007.134Z" transform="translate(-37.896 -432.685)" fill="#bb5d4c"/>
          <g id="Grupo_1100558" data-name="Grupo 1100558" transform="translate(0 3.905)">
            <path id="Trazado_875265" data-name="Trazado 875265" d="M47.42,468.075H23.23a.653.653,0,0,1-.652-.652v-3.509a1.3,1.3,0,0,1,1.3-1.3H46.115a1.3,1.3,0,0,1,1.3,1.3Z" transform="translate(-22.578 -462.608)" fill="#883f2e"/>
          </g>
          <g id="Grupo_1100559" data-name="Grupo 1100559" transform="translate(0 3.905)">
            <path id="Trazado_875266" data-name="Trazado 875266" d="M26.939,467.422v-3.509a1.3,1.3,0,0,1,1.3-1.3H23.883a1.3,1.3,0,0,0-1.3,1.3v3.509a.653.653,0,0,0,.652.652h4.361A.653.653,0,0,1,26.939,467.422Z" transform="translate(-22.578 -462.608)" fill="#6d3326"/>
          </g>
        </g>
        <g id="Grupo_1100565" data-name="Grupo 1100565" transform="translate(5.132)">
          <g id="Grupo_1100561" data-name="Grupo 1100561" transform="translate(0 24.991)">
            <path id="Trazado_875267" data-name="Trazado 875267" d="M76.483,345.831a3.2,3.2,0,0,1-3.2,3.2H65.1a3.2,3.2,0,1,1,0-6.4h8.182A3.2,3.2,0,0,1,76.483,345.831Z" transform="translate(-61.905 -342.633)" fill="#ca6e59"/>
          </g>
          <g id="Grupo_1100562" data-name="Grupo 1100562" transform="translate(0 24.991)">
            <path id="Trazado_875268" data-name="Trazado 875268" d="M66.262,345.831a3.2,3.2,0,0,1,3.2-3.2H65.1a3.2,3.2,0,1,0,0,6.4H69.46A3.2,3.2,0,0,1,66.262,345.831Z" transform="translate(-61.905 -342.633)" fill="#bb5d4c"/>
          </g>
          <g id="Grupo_1100563" data-name="Grupo 1100563" transform="translate(0)">
            <path id="Trazado_875269" data-name="Trazado 875269" d="M76.483,154.326a3.2,3.2,0,0,1-3.2,3.2H65.1a3.2,3.2,0,1,1,0-6.4h8.182A3.2,3.2,0,0,1,76.483,154.326Z" transform="translate(-61.905 -151.128)" fill="#ca6e59"/>
          </g>
          <g id="Grupo_1100564" data-name="Grupo 1100564">
            <path id="Trazado_875270" data-name="Trazado 875270" d="M66.262,154.326a3.2,3.2,0,0,1,3.2-3.2H65.1a3.2,3.2,0,0,0,0,6.4H69.46A3.2,3.2,0,0,1,66.262,154.326Z" transform="translate(-61.905 -151.128)" fill="#bb5d4c"/>
          </g>
        </g>
      </g>
      <g id="Grupo_1100569" data-name="Grupo 1100569" transform="translate(40.563 7.061)">
        <g id="Grupo_1100567" data-name="Grupo 1100567" transform="translate(0)">
          <circle id="Elipse_11565" data-name="Elipse 11565" cx="9.157" cy="9.157" r="9.157" fill="#4fc123"/>
        </g>
        <g id="Grupo_1100568" data-name="Grupo 1100568" transform="translate(0)">
          <path id="Trazado_875271" data-name="Trazado 875271" d="M214.76,63.264a9.159,9.159,0,0,1,6.963-8.89,9.157,9.157,0,1,0,0,17.781A9.159,9.159,0,0,1,214.76,63.264Z" transform="translate(-210.372 -54.107)" fill="#47a920"/>
        </g>
      </g>
      <g id="Grupo_1100570" data-name="Grupo 1100570" transform="translate(15.078 0)">
        <path id="Trazado_875272" data-name="Trazado 875272" d="M73.706,31.164H72.13V14.224a.979.979,0,0,0-1.009-.978,1.006,1.006,0,0,0-.949,1.019v16.9h-6.56a.979.979,0,1,0,0,1.957H73.706a2.294,2.294,0,0,1,0,4.588h-20V33.121h5.335a.979.979,0,0,0,0-1.957h-5.57a1.725,1.725,0,0,0-1.581,1.041H44.97a1.633,1.633,0,0,0-1.519-1.041h-2.86a1.633,1.633,0,0,0-1.519,1.041h-4.2v-.84a2.282,2.282,0,0,0-1.106-1.953V26.92a4.177,4.177,0,0,0-1.2-8.177h-3.3V1.957h40.9v7.7a.979.979,0,0,0,1.009.978,1.006,1.006,0,0,0,.949-1.019V1.631A1.631,1.631,0,0,0,70.5,0H28.941A1.631,1.631,0,0,0,27.31,1.631V18.743H24.387a4.177,4.177,0,0,0-1.2,8.177v2.492a2.282,2.282,0,0,0-1.106,1.953v8.1a2.282,2.282,0,0,0,1.106,1.953v2.492a4.177,4.177,0,0,0,1.2,8.177H27.31v3.4h-7.65a2.286,2.286,0,0,0-2.284,2.284V59.39h-.015a2.286,2.286,0,0,0-2.284,2.284v3.509a1.633,1.633,0,0,0,1.631,1.631H70.5a1.631,1.631,0,0,0,1.631-1.631V39.667h1.576a4.251,4.251,0,0,0,0-8.5Zm-28.623,3h6.67v2.505h-6.67Zm-4.165-1.041h2.208v4.588H40.917Zm-6.041,1.041H38.96v2.505H34.877ZM22.168,22.92A2.222,2.222,0,0,1,24.387,20.7h8.182a2.219,2.219,0,1,1,0,4.439H24.387A2.222,2.222,0,0,1,22.168,22.92Zm2.195,16.872a.327.327,0,0,1-.326-.326v-8.1a.327.327,0,0,1,.326-.326h8.231a.327.327,0,0,1,.326.326v8.1a.327.327,0,0,1-.326.326Zm7.45,1.957v1.985h-6.67V41.749Zm-6.67-12.668V27.1h6.67v1.985ZM24.387,50.13a2.219,2.219,0,1,1,0-4.439h8.182a2.219,2.219,0,1,1,0,4.439ZM39.92,64.857H17.035V61.674a.327.327,0,0,1,.326-.326H23.42a.979.979,0,1,0,0-1.957H19.334V57.769a.327.327,0,0,1,.326-.326H37.295a.327.327,0,0,1,.326.326V59.39H27.987a.979.979,0,1,0,0,1.957H39.594a.327.327,0,0,1,.326.326Zm30.252,0H41.878V61.674a2.286,2.286,0,0,0-2.284-2.284h-.015V57.769a2.286,2.286,0,0,0-2.284-2.284H29.268v-3.4h3.3a4.177,4.177,0,0,0,1.2-8.177V41.419a2.282,2.282,0,0,0,1.106-1.953v-.84h4.2a1.633,1.633,0,0,0,1.519,1.041h2.86a1.633,1.633,0,0,0,1.519-1.041h6.924a1.725,1.725,0,0,0,1.581,1.041h16.7v25.19Z" transform="translate(-15.078 0)"/>
        <path id="Trazado_875273" data-name="Trazado 875273" d="M202.872,56.743a10.136,10.136,0,1,0,10.136-10.136A10.147,10.147,0,0,0,202.872,56.743Zm18.314,0a8.178,8.178,0,1,1-8.178-8.178A8.187,8.187,0,0,1,221.186,56.743Z" transform="translate(-178.365 -40.525)"/>
        <path id="Trazado_875274" data-name="Trazado 875274" d="M248.014,103.1a.979.979,0,1,0-1.384,1.384l3.01,3.01a.979.979,0,0,0,1.384,0l4.666-4.666a.979.979,0,1,0-1.384-1.384l-3.974,3.974Z" transform="translate(-216.164 -87.958)"/>
        <path id="Trazado_875275" data-name="Trazado 875275" d="M243.681,328.048a.979.979,0,0,0,.979.979h18a.979.979,0,0,0,0-1.957h-18A.979.979,0,0,0,243.681,328.048Z" transform="translate(-213.849 -284.387)"/>
        <path id="Trazado_875276" data-name="Trazado 875276" d="M320.758,363.546h-9.28a.979.979,0,1,0,0,1.957h9.28a.979.979,0,1,0,0-1.957Z" transform="translate(-271.948 -316.104)"/>
        <path id="Trazado_875277" data-name="Trazado 875277" d="M244.66,365.5h5.327a.979.979,0,1,0,0-1.957H244.66a.979.979,0,1,0,0,1.957Z" transform="translate(-213.849 -316.104)"/>
        <path id="Trazado_875278" data-name="Trazado 875278" d="M262.658,400.023h-18a.979.979,0,1,0,0,1.957h18a.979.979,0,1,0,0-1.957Z" transform="translate(-213.848 -347.821)"/>
        <path id="Trazado_875279" data-name="Trazado 875279" d="M351.191,436.5h-4.712a.979.979,0,1,0,0,1.957h4.712a.979.979,0,0,0,0-1.957Z" transform="translate(-302.381 -379.538)"/>
        <path id="Trazado_875280" data-name="Trazado 875280" d="M254.945,436.5H244.66a.979.979,0,1,0,0,1.957h10.286a.979.979,0,0,0,0-1.957Z" transform="translate(-213.849 -379.538)"/>
      </g>
    </g>
  </g>
</svg>
