<svg xmlns="http://www.w3.org/2000/svg" xmlns:xlink="http://www.w3.org/1999/xlink" width="295" height="218.534" viewBox="0 0 295 218.534">
  <defs>
    <clipPath id="clip-path">
      <rect id="Rectángulo_401334" data-name="Rectángulo 401334" width="94.216" height="152.64" fill="#d2f5f4"/>
    </clipPath>
    <clipPath id="clip-path-2">
      <rect id="Rectángulo_401333" data-name="Rectángulo 401333" width="94.217" height="152.64" fill="#d2f5f4"/>
    </clipPath>
    <clipPath id="clip-path-3">
      <rect id="Rectángulo_401329" data-name="Rectángulo 401329" width="78.161" height="90.528" fill="#d2f5f4"/>
    </clipPath>
    <clipPath id="clip-path-4">
      <rect id="Rectángulo_401330" data-name="Rectángulo 401330" width="94.216" height="104.297" fill="#d2f5f4"/>
    </clipPath>
    <clipPath id="clip-path-5">
      <rect id="Rectángulo_401331" data-name="Rectángulo 401331" width="44.957" height="44.042" fill="#d2f5f4"/>
    </clipPath>
    <clipPath id="clip-path-6">
      <rect id="Rectángulo_401332" data-name="Rectángulo 401332" width="31.159" height="30.244" fill="#d2f5f4"/>
    </clipPath>
  </defs>
  <g id="card-pregunta" transform="translate(-810.34 -2278)">
    <rect id="Rectángulo_401327" data-name="Rectángulo 401327" width="295" height="218.534" transform="translate(810.34 2278)" fill="#e8faf9"/>
    <g id="Grupo_1099759" data-name="Grupo 1099759" transform="translate(1000.289 2311)" clip-path="url(#clip-path)">
      <g id="Grupo_1099758" data-name="Grupo 1099758" transform="translate(0 0)">
        <g id="Grupo_1099757" data-name="Grupo 1099757" clip-path="url(#clip-path-2)">
          <g id="Grupo_1099747" data-name="Grupo 1099747" transform="translate(9.117 6.869)" style="mix-blend-mode: multiply;isolation: isolate">
            <g id="Grupo_1099746" data-name="Grupo 1099746">
              <g id="Grupo_1099745" data-name="Grupo 1099745" clip-path="url(#clip-path-3)">
                <path id="Trazado_873297" data-name="Trazado 873297" d="M31.651,94.667H30.2l-.2-1.434c-.357-2.613-.7-4.891-1-6.9-1.373-9.149-2-13.325.974-18S37.057,60.724,41.018,57.9c4.239-3.021,8.243-5.874,11.076-10.8,2.641-4.591,2.521-9.64-.31-13.18-3.418-4.276-9.9-5.454-17.325-3.154a57.085,57.085,0,0,0-9.7,4.028C17.691,38.393,16.866,37.115,9,24.915c-.812-1.258-1.706-2.647-2.7-4.176l-.8-1.232,1.127-.946C23.025,4.815,43.151.574,60.439,7.225,73.163,12.116,81.733,22,83.371,33.674,85.228,46.911,77.9,60.49,62.746,71.909c-9.373,7.067-8.984,11.614-8.7,14.932.146,1.706.3,3.469-1.032,4.916-2.05,2.231-7.039,2.91-21.36,2.91M41.57,26.3c5.355,0,9.889,1.905,12.807,5.555,3.7,4.631,3.93,11.109.594,16.908-3.2,5.554-7.685,8.754-12.029,11.846-3.869,2.757-7.524,5.363-10.161,9.506-2.31,3.628-1.816,6.923-.491,15.727.247,1.645.52,3.469.808,5.507,8.055-.027,16.065-.307,17.466-1.834.327-.355.282-1.1.171-2.388-.309-3.625-.825-9.692,10.014-17.864C74.9,58.6,81.764,46.124,80.084,34.135c-1.467-10.458-9.257-19.36-20.835-23.812-15.76-6.06-34.111-2.369-49.361,9.853q1.021,1.573,1.9,2.938c3.7,5.728,5.733,8.883,7.157,9.858.777.533,1.306.4,4.311-1.132A59.968,59.968,0,0,1,33.477,27.6a27.431,27.431,0,0,1,8.093-1.3" transform="translate(-5.493 -4.139)" fill="#d2f5f4"/>
              </g>
            </g>
          </g>
          <g id="Grupo_1099750" data-name="Grupo 1099750" transform="translate(0 0)" style="mix-blend-mode: multiply;isolation: isolate">
            <g id="Grupo_1099749" data-name="Grupo 1099749" transform="translate(0 0)">
              <g id="Grupo_1099748" data-name="Grupo 1099748" clip-path="url(#clip-path-4)">
                <path id="Trazado_873298" data-name="Trazado 873298" d="M25.5,83.742H18.035l-1.011-7.4c-.349-2.546-.684-4.772-.976-6.737-1.5-9.975-2.4-15.949,1.962-22.8,3.708-5.826,8.566-9.288,12.855-12.342,1.582-1.127,3.074-2.191,4.423-3.306l2.116,2.558C35.965,34.9,34.423,36,32.793,37.163c-4.042,2.878-8.623,6.141-11.98,11.421-3.7,5.806-2.959,10.7-1.494,20.449.309,2.058.644,4.3,1,6.86l.619,4.53H25.5c14.286,0,20.777-.564,23.994-4.068,2.392-2.6,2.123-5.756,1.964-7.64-.284-3.341.073-6.329,7.288-11.77q1.347-1.013,2.614-2.05l2.1,2.571q-1.317,1.078-2.717,2.13c-6.324,4.77-6.158,6.745-5.98,8.837s.554,6.488-2.825,10.168C47.935,82.965,41.53,83.742,25.5,83.742" transform="translate(9.773 20.555)" fill="#d2f5f4"/>
                <path id="Trazado_873299" data-name="Trazado 873299" d="M33.687,29.946,30.5,29a5.39,5.39,0,0,0,.239-1.539,3.516,3.516,0,0,0-.45-1.786L33,23.742c.063.095.121.193.178.292a6.772,6.772,0,0,1,.886,3.431,8.787,8.787,0,0,1-.375,2.481" transform="translate(19.987 15.665)" fill="#d2f5f4"/>
                <path id="Trazado_873300" data-name="Trazado 873300" d="M23.36,46.207c-6.973,0-9.969-4.644-16.535-14.82l-.191-.3c-.757-1.172-1.583-2.455-2.5-3.856L0,20.875,5.813,16C18.308,5.534,32.637,0,47.25,0a56.391,56.391,0,0,1,8.017.571l-.475,3.285A53.166,53.166,0,0,0,47.25,3.32c-13.824,0-27.415,5.267-39.3,15.229l-3.56,2.983,2.533,3.892c.915,1.4,1.746,2.692,2.506,3.869l.189.3c6.661,10.324,8.8,13.3,13.746,13.3,2.383,0,4.359-1,6.646-2.168a53.125,53.125,0,0,1,9.136-3.8,17.98,17.98,0,0,1,8.653-.757l-.656,3.255a14.8,14.8,0,0,0-7.014.672,50.189,50.189,0,0,0-8.614,3.59c-2.443,1.242-4.969,2.526-8.15,2.526" transform="translate(0 0)" fill="#d2f5f4"/>
                <path id="Trazado_873301" data-name="Trazado 873301" d="M55.307,45.274l-2.966-1.489a35.839,35.839,0,0,0,4.022-16.143,32.583,32.583,0,0,0-.846-7.348l3.232-.75a35.845,35.845,0,0,1,.934,8.1,39.1,39.1,0,0,1-4.375,17.632" transform="translate(34.535 12.895)" fill="#d2f5f4"/>
              </g>
            </g>
          </g>
          <g id="Grupo_1099753" data-name="Grupo 1099753" transform="translate(21.514 108.598)" style="mix-blend-mode: multiply;isolation: isolate">
            <g id="Grupo_1099752" data-name="Grupo 1099752">
              <g id="Grupo_1099751" data-name="Grupo 1099751" clip-path="url(#clip-path-5)">
                <path id="Trazado_873302" data-name="Trazado 873302" d="M35.4,109.471c-11.149,0-22.436-7.57-22.436-22.04,0-14.445,11.287-22,22.436-22,10.917,0,22.522,7.711,22.522,22a21.176,21.176,0,0,1-8.405,17.376l-2-2.652A17.651,17.651,0,0,0,54.6,87.43c0-12.135-9.894-18.683-19.2-18.683-9.5,0-19.116,6.417-19.116,18.683,0,12.291,9.617,18.721,19.116,18.721Z" transform="translate(-12.962 -65.428)" fill="#d2f5f4"/>
              </g>
            </g>
          </g>
          <g id="Grupo_1099756" data-name="Grupo 1099756" transform="translate(28.413 115.497)" style="mix-blend-mode: multiply;isolation: isolate">
            <g id="Grupo_1099755" data-name="Grupo 1099755">
              <g id="Grupo_1099754" data-name="Grupo 1099754" clip-path="url(#clip-path-6)">
                <path id="Trazado_873303" data-name="Trazado 873303" d="M32.655,99.83c-7.721,0-15.537-5.2-15.537-15.142,0-9.914,7.816-15.1,15.537-15.1,7.763,0,15.62,5.189,15.62,15.1,0,9.941-7.857,15.142-15.62,15.142m0-26.925c-5.884,0-12.218,3.686-12.218,11.783,0,8.123,6.334,11.823,12.218,11.823,5.924,0,12.3-3.7,12.3-11.823a11.187,11.187,0,0,0-3.784-8.814A13.036,13.036,0,0,0,32.655,72.9" transform="translate(-17.118 -69.585)" fill="#d2f5f4"/>
              </g>
            </g>
          </g>
        </g>
      </g>
    </g>
  </g>
</svg>
