<svg xmlns="http://www.w3.org/2000/svg" xmlns:xlink="http://www.w3.org/1999/xlink" width="1240" height="535" viewBox="0 0 1240 535">
  <defs>
    <clipPath id="clip-path">
      <rect id="Rectángulo_401230" data-name="Rectángulo 401230" width="1240" height="535" rx="20" transform="translate(181.051 12047)" fill="#201144" opacity="0.421"/>
    </clipPath>
    <clipPath id="clip-path-2">
      <rect id="Rectángulo_401202" data-name="Rectángulo 401202" width="128.226" height="128.226" fill="#c6c5c5"/>
    </clipPath>
    <clipPath id="clip-path-3">
      <rect id="Rectángulo_401202-2" data-name="Rectángulo 401202" width="128.226" height="128.226" fill="#22cac5"/>
    </clipPath>
    <clipPath id="clip-path-4">
      <rect id="Rectángulo_401202-3" data-name="Rectángulo 401202" width="128.227" height="128.226" fill="#22cac5"/>
    </clipPath>
    <clipPath id="clip-path-5">
      <rect id="Rectángulo_401203" data-name="Rectángulo 401203" width="256.454" height="128.226" fill="#b15815"/>
    </clipPath>
    <clipPath id="clip-path-7">
      <rect id="Rectángulo_401204" data-name="Rectángulo 401204" width="268.624" height="268.624" fill="#b15815"/>
    </clipPath>
    <clipPath id="clip-path-8">
      <rect id="Rectángulo_401204-2" data-name="Rectángulo 401204" width="268.624" height="268.624" fill="#22cac5"/>
    </clipPath>
    <clipPath id="clip-path-9">
      <rect id="Rectángulo_401202-4" data-name="Rectángulo 401202" width="128.227" height="128.226" fill="#b15815"/>
    </clipPath>
    <clipPath id="clip-path-10">
      <rect id="Rectángulo_401202-5" data-name="Rectángulo 401202" width="128.227" height="128.226" fill="#c6c5c5"/>
    </clipPath>
  </defs>
  <g id="fondo-slyder" transform="translate(-181.051 -12047)">
    <rect id="Rectángulo_401176" data-name="Rectángulo 401176" width="1240" height="535" rx="20" transform="translate(181.051 12047)" fill="#201144"/>
    <g id="Enmascarar_grupo_1098669" data-name="Enmascarar grupo 1098669" clip-path="url(#clip-path)">
      <g id="Grupo_1099112" data-name="Grupo 1099112" transform="translate(19045.143 12244.276)" opacity="0.6">
        <g id="Grupo_1099029" data-name="Grupo 1099029" transform="translate(-19002.791 -384.499)">
          <g id="Grupo_1099018" data-name="Grupo 1099018" transform="translate(1173.672 327.557)">
            <g id="Grupo_1099017" data-name="Grupo 1099017" transform="translate(0 0)" clip-path="url(#clip-path-2)">
              <path id="Trazado_872998" data-name="Trazado 872998" d="M68.656,0A68.735,68.735,0,0,1,0,68.656v59.57A128.371,128.371,0,0,0,128.226,0Z" transform="translate(0 -0.001)" fill="#c6c5c5"/>
            </g>
          </g>
          <g id="Grupo_1099028" data-name="Grupo 1099028" transform="translate(1237.786 677.132)">
            <g id="Grupo_1099017-2" data-name="Grupo 1099017" transform="translate(0 0)" clip-path="url(#clip-path-3)">
              <path id="Trazado_872998-2" data-name="Trazado 872998" d="M68.656,0A68.735,68.735,0,0,1,0,68.656v59.57A128.371,128.371,0,0,0,128.226,0Z" transform="translate(0 -0.001)" fill="#22cac5"/>
            </g>
          </g>
          <g id="Grupo_1099021" data-name="Grupo 1099021" transform="translate(128.227 87.602)">
            <g id="Grupo_1099017-3" data-name="Grupo 1099017" clip-path="url(#clip-path-4)">
              <path id="Trazado_872998-3" data-name="Trazado 872998" d="M68.656,0A68.735,68.735,0,0,1,0,68.656v59.57A128.371,128.371,0,0,0,128.227,0Z" transform="translate(0 -0.001)" fill="#22cac5"/>
            </g>
          </g>
          <g id="Grupo_1099020" data-name="Grupo 1099020" transform="translate(619.141 87.602)">
            <g id="Grupo_1099019" data-name="Grupo 1099019" transform="translate(0 0)" clip-path="url(#clip-path-5)">
              <path id="Trazado_872999" data-name="Trazado 872999" d="M196.884,0a68.735,68.735,0,0,1-68.656,68.656A68.735,68.735,0,0,1,59.57,0H0A128.371,128.371,0,0,0,128.228,128.226,128.371,128.371,0,0,0,256.454,0Z" transform="translate(0 -0.001)" fill="#b15815"/>
            </g>
          </g>
          <g id="Grupo_1099027" data-name="Grupo 1099027" transform="translate(0 592.97)">
            <g id="Grupo_1099019-2" data-name="Grupo 1099019" transform="translate(0 0)" clip-path="url(#clip-path-5)">
              <path id="Trazado_872999-2" data-name="Trazado 872999" d="M196.884,128.226a68.657,68.657,0,0,0-137.314,0H0a128.227,128.227,0,0,1,256.454,0Z" transform="translate(0 0.001)" fill="#b15815"/>
            </g>
          </g>
          <g id="Grupo_1099023" data-name="Grupo 1099023" transform="matrix(0.788, 0.616, -0.616, 0.788, 1290.75, 450.298)">
            <g id="Grupo_1099022" data-name="Grupo 1099022" transform="translate(0 0)" clip-path="url(#clip-path-7)">
              <path id="Trazado_873000" data-name="Trazado 873000" d="M134.311,268.624h0v-62.4a71.915,71.915,0,1,1,71.916-71.914h62.4C268.625,60.252,208.372,0,134.311,0S0,60.252,0,134.313,60.252,268.624,134.311,268.624" transform="translate(0 0)" fill="#b15815"/>
            </g>
          </g>
          <g id="Grupo_1099026" data-name="Grupo 1099026" transform="translate(1389.337 74.262) rotate(65)">
            <g id="Grupo_1099022-2" data-name="Grupo 1099022" transform="translate(0 0)" clip-path="url(#clip-path-8)">
              <path id="Trazado_873000-2" data-name="Trazado 873000" d="M134.311,268.624h0v-62.4a71.915,71.915,0,1,1,71.916-71.914h62.4C268.625,60.252,208.372,0,134.311,0S0,60.252,0,134.313,60.252,268.624,134.311,268.624" transform="translate(0 0)" fill="#22cac5"/>
            </g>
          </g>
          <g id="Grupo_1099025" data-name="Grupo 1099025" transform="translate(1313.898 280.526)">
            <g id="Grupo_1099017-4" data-name="Grupo 1099017" transform="translate(0 0)" clip-path="url(#clip-path-9)">
              <path id="Trazado_872998-4" data-name="Trazado 872998" d="M59.57,0a68.735,68.735,0,0,0,68.656,68.656v59.57A128.371,128.371,0,0,1,0,0Z" transform="translate(0 -0.001)" fill="#b15815"/>
            </g>
          </g>
          <g id="Grupo_1099037" data-name="Grupo 1099037" transform="translate(1145.881 528.857)">
            <g id="Grupo_1099017-5" data-name="Grupo 1099017" transform="translate(0 0)" clip-path="url(#clip-path-10)">
              <path id="Trazado_872998-5" data-name="Trazado 872998" d="M59.57,0a68.735,68.735,0,0,0,68.656,68.656v59.57A128.371,128.371,0,0,1,0,0Z" transform="translate(0 -0.001)" fill="#c6c5c5"/>
            </g>
          </g>
        </g>
      </g>
    </g>
  </g>
</svg>
