<svg xmlns="http://www.w3.org/2000/svg" xmlns:xlink="http://www.w3.org/1999/xlink" width="65.478" height="67.374" viewBox="0 0 65.478 67.374">
  <defs>
    <clipPath id="clip-path">
      <rect id="Rect치ngulo_401263" data-name="Rect치ngulo 401263" width="28.015" height="28.015" fill="#c6c5c5"/>
    </clipPath>
    <clipPath id="clip-path-2">
      <rect id="Rect치ngulo_401202" data-name="Rect치ngulo 401202" width="27.514" height="27.514" fill="#22cac5"/>
    </clipPath>
  </defs>
  <g id="icon" transform="translate(-200.227 -2026.497)">
    <g id="Grupo_1099218" data-name="Grupo 1099218" transform="translate(-235.973 209.309)">
      <g id="Grupo_1099216" data-name="Grupo 1099216" transform="translate(473.662 1856.547)" clip-path="url(#clip-path)">
        <path id="Trazado_873107" data-name="Trazado 873107" d="M15,0A15.017,15.017,0,0,1,0,15V28.015A28.047,28.047,0,0,0,28.015,0Z" transform="translate(0 0)" fill="#c6c5c5"/>
      </g>
      <g id="Grupo_1099217" data-name="Grupo 1099217" transform="translate(436.2 1817.188)">
        <g id="Grupo_1099017" data-name="Grupo 1099017" clip-path="url(#clip-path-2)">
          <path id="Trazado_872998" data-name="Trazado 872998" d="M12.782,27.514A14.749,14.749,0,0,1,27.514,12.782V0A27.545,27.545,0,0,0,0,27.514Z" transform="translate(0 0)" fill="#22cac5"/>
        </g>
      </g>
    </g>
    <g id="Grupo_1099292" data-name="Grupo 1099292" transform="translate(207.17 2032.797)">
      <g id="Grupo_1099293" data-name="Grupo 1099293">
        <path id="Trazado_873190" data-name="Trazado 873190" d="M262.751,193.292l-.674-.389a.522.522,0,0,0-.521.9l.674.389a2.049,2.049,0,0,1,.993,1.417h3.444a5.271,5.271,0,0,0-2.321-5.319q-.113-.073-.23-.141a5.228,5.228,0,0,0-2.621-.707,5.287,5.287,0,0,0-1.37.182,5.259,5.259,0,0,0-3.82,5.986h2.18a.765.765,0,0,1,1.525,0h1.572a.518.518,0,0,0-.116-.092l-.674-.389a2.052,2.052,0,0,1,1.709-3.712l.053-.091a.765.765,0,0,1,1.325.765l-.053.092a2.047,2.047,0,0,1,.7,1.811.765.765,0,0,1-1.519-.188.521.521,0,0,0-.257-.516" transform="translate(-236.617 -174.949)" fill="#fff"/>
        <path id="Trazado_873191" data-name="Trazado 873191" d="M479.367,156.148h-.942l.992.573,1.72.993v-1.237a.329.329,0,0,0-.329-.329Z" transform="translate(-441.815 -144.199)" fill="#fff"/>
        <path id="Trazado_873192" data-name="Trazado 873192" d="M187.389,170.356c-.029-.02-.058-.04-.089-.057l-.062-.033a1.335,1.335,0,0,0-.609-.148,1.354,1.354,0,0,0-1.168.674,1.343,1.343,0,0,0,.434,1.8c.019.013.038.026.058.038a1.345,1.345,0,0,0,1.435-2.274" transform="translate(-171.103 -157.1)" fill="#fff"/>
        <path id="Trazado_873193" data-name="Trazado 873193" d="M82.517,58.426a10.372,10.372,0,0,1,.136-1.674q.066-.4.161-.79h0q.06-.245.132-.486.041-.137.085-.272a10.283,10.283,0,0,1,.494-1.231q.166-.346.356-.678h0q.191-.333.405-.65a10.419,10.419,0,0,1,1.262-1.529q.325-.325.679-.621a10.4,10.4,0,0,1,.985-.73h0a10.3,10.3,0,0,1,3.2-1.389q.488-.119.993-.19h0c.308-.043.62-.074.935-.089q.257-.013.516-.013c.3,0,.6.014.895.039q.392.034.776.1t.754.152a10.265,10.265,0,0,1,2.144.778V41.764a1.11,1.11,0,0,0-1.1-1.1H87.168a.765.765,0,0,1,0-1.53h1.788l-2.265-1.307a.765.765,0,1,1,.765-1.325l3.174,1.832.3.171a.764.764,0,0,1,.381.629H92.47l.363-.628-1.726-1-4.985-2.878L84.8,33.862,83.47,33.1l-1.057-.61-.765-.442-.765-.442-1.756-1.014a.765.765,0,0,1,.765-1.325l1.173.677.666.385.684.4L86.531,33.1l1.248.721.077.045h0l1.325.765,4.572,2.639.084.049.422.244a.765.765,0,0,1,.28,1.045l-.3.526h1.516l.635-1.1a.656.656,0,0,0-.24-.9h0l-.864-.5-.929-.536-.6-.347L91.11,34.224l-.757-.437h0l-1.2-.69-.592-.342-4.053-2.34-1.325-.765-1.111-.641-2.164-1.249-1.35-.78-11.943-6.9a.657.657,0,0,0-.9.24l-5.7,9.867-.884,1.53-3.867,6.7a.656.656,0,0,0,.24.9l2.842,1.641a2.641,2.641,0,0,1,.7-1.11L57.4,38.89a.765.765,0,0,1-.28-1.045l3.535-6.123.884-1.53,4.607-7.98a.765.765,0,0,1,1.045-.28l2.788,1.61h0l2.8,1.617h0l4.164,2.4a.768.768,0,0,1,.28,1.045h0a.767.767,0,0,1-1.045.28l-3.5-2.022L71.171,29.48a1.176,1.176,0,0,1-.719.552,1.177,1.177,0,0,1-.9-.118l-2.074-1.2h0a1.186,1.186,0,0,1-.433-1.618l1.509-2.613-1.464-.845-3.783,6.552-.884,1.53L58.83,37.948l2.047,1.182h1.9l-2.045-1.181a.765.765,0,0,1,.765-1.325l3.47,2a.763.763,0,0,1,.365.5H69.1a6.785,6.785,0,0,1,4.78-7.408c.064-.019.127-.039.191-.056A6.79,6.79,0,0,1,82.56,39.13h1.208a.765.765,0,0,1,0,1.53h-22.9a1.106,1.106,0,0,0-1.1,1.1v21.3a4.361,4.361,0,0,1-1.056,2.85h27.03a10.314,10.314,0,0,1-3.217-7.489M68.979,34.268h0a2.876,2.876,0,1,1-3.637-4.077,2.917,2.917,0,0,1,.4-.14,2.854,2.854,0,0,1,1.889.14,2.928,2.928,0,0,1,.294.148,2.88,2.88,0,0,1,1.053,3.929M63.386,59.66h3.557a.765.765,0,1,1,0,1.53H63.386a.765.765,0,1,1,0-1.53m10.087,4.072H63.386a.765.765,0,1,1,0-1.53H73.473a.765.765,0,1,1,0,1.53" transform="translate(-50.963 -18.466)" fill="#fff"/>
        <path id="Trazado_873194" data-name="Trazado 873194" d="M232.572,89.512h0l-1.474-.851h0l-1.336,2.314,1.474.851Z" transform="translate(-212.18 -81.876)" fill="#fff"/>
        <path id="Trazado_873195" data-name="Trazado 873195" d="M6.77,180.825a2.173,2.173,0,0,1,.219-1.66l3.425-5.933H6.637a1.106,1.106,0,0,0-1.1,1.1V197.03a.765.765,0,0,1-1.2.63v2.14a.765.765,0,0,1,1.2.63v4.147a2.853,2.853,0,0,0,2.85,2.85h.037a2.853,2.853,0,0,0,2.849-2.85V184.162l-3.48-2.009a2.172,2.172,0,0,1-1.019-1.328" transform="translate(-4.002 -159.977)" fill="#fff"/>
        <path id="Trazado_873196" data-name="Trazado 873196" d="M481.347,448.142h0a5.948,5.948,0,0,0-2.909-2.827,5.942,5.942,0,0,0-1.53-.454,5.957,5.957,0,0,0-.8-.065l-.094,0a5.924,5.924,0,1,0,0,11.848l.094,0a5.783,5.783,0,0,0,1.409-.191,5.864,5.864,0,0,0,.922-.328,5.947,5.947,0,0,0,2.909-2.827h0a5.929,5.929,0,0,0,0-5.15m-2.91,4.976a2.208,2.208,0,0,1-.754.894,2.182,2.182,0,0,1-.776.335c-.043.009-.086.018-.129.024v.188a.765.765,0,1,1-1.53,0v-.188a2.19,2.19,0,0,1-1.688-1.314.765.765,0,1,1,1.409-.6.663.663,0,0,0,.611.405h.864a.663.663,0,0,0,0-1.327h-.864a2.194,2.194,0,0,1-.333-4.362v-.3a.765.765,0,1,1,1.53,0v.3q.065.01.129.024a2.193,2.193,0,0,1,1.356.917.765.765,0,0,1-1.268.857.677.677,0,0,0-.55-.293h-.864a.663.663,0,0,0,0,1.327h.864a2.192,2.192,0,0,1,1.993,3.109" transform="translate(-434.117 -410.757)" fill="#fff"/>
        <path id="Trazado_873197" data-name="Trazado 873197" d="M447.259,409.508a8.888,8.888,0,0,0-.765-.655h0a8.772,8.772,0,0,0-2.909-1.463q-.371-.106-.754-.18c-.255-.049-.514-.088-.776-.114a8.86,8.86,0,0,0-.894-.045c-.247,0-.491.011-.733.031s-.489.051-.729.091a8.721,8.721,0,0,0-1.019.234h0a8.745,8.745,0,0,0-1.123.415,8.868,8.868,0,0,0-4.34,4.23,8.756,8.756,0,0,0-.524,1.372q-.11.381-.185.776h0q-.077.4-.117.816c-.027.278-.041.56-.041.845a8.812,8.812,0,0,0,8.077,8.781c.242.02.487.031.735.031a8.808,8.808,0,0,0,6.1-15.166m0,10.635a7.508,7.508,0,0,1-.818.975h0a7.485,7.485,0,0,1-2.689,1.733l-.167.06a7.4,7.4,0,0,1-1.53.351q-.278.033-.561.046c-.111,0-.222.008-.333.008a7.463,7.463,0,0,1-7.455-7.454c0-.149,0-.3.014-.443a7.446,7.446,0,0,1,.086-.772h0a7.416,7.416,0,0,1,2.23-4.194,7.492,7.492,0,0,1,1.53-1.12h0a7.406,7.406,0,0,1,3.594-.926,7.512,7.512,0,0,1,.894.054,7.343,7.343,0,0,1,1.53.351l.167.06a7.48,7.48,0,0,1,2.742,1.788h0a7.518,7.518,0,0,1,.765.92,7.439,7.439,0,0,1,0,8.562" transform="translate(-399.264 -375.902)" fill="#fff"/>
        <path id="Trazado_873198" data-name="Trazado 873198" d="M404.109,110.28a1.861,1.861,0,0,1,1.859,1.859v2.024q0,.048,0,.1l1.941,1.12v-6.138a1.106,1.106,0,0,0-1.1-1.1H395.455c-.028,0-.056,0-.085,0l3.7,2.139Z" transform="translate(-365.117 -99.862)" fill="#fff"/>
        <path id="Trazado_873199" data-name="Trazado 873199" d="M169.592,150.5a2.933,2.933,0,0,0-.294-.148,2.853,2.853,0,0,0-1.889-.14,2.916,2.916,0,0,0-.4.14,2.855,2.855,0,0,0-1.344,1.2,2.914,2.914,0,0,0-.163.33,2.876,2.876,0,0,0,5.145,2.546h0a2.88,2.88,0,0,0-1.053-3.929m-.273,3.164a1.347,1.347,0,0,1-1.838.493c-.02-.012-.039-.025-.058-.037a1.346,1.346,0,0,1,.383-2.428,1.357,1.357,0,0,1,.35-.046,1.335,1.335,0,0,1,.609.148l.062.033c.031.018.06.038.089.057a1.347,1.347,0,0,1,.4,1.781" transform="translate(-152.629 -138.626)" fill="#201144"/>
        <path id="Trazado_873200" data-name="Trazado 873200" d="M153.1,539.871h3.557a.765.765,0,0,0,0-1.53H153.1a.765.765,0,0,0,0,1.53" transform="translate(-140.681 -497.147)" fill="#201144"/>
        <path id="Trazado_873201" data-name="Trazado 873201" d="M163.19,571.553H153.1a.765.765,0,0,0,0,1.53H163.19a.765.765,0,1,0,0-1.53" transform="translate(-140.681 -527.817)" fill="#201144"/>
        <path id="Trazado_873202" data-name="Trazado 873202" d="M47.995,31.613V23.3a2.638,2.638,0,0,0-1.569-2.409l.324-.561a2.187,2.187,0,0,0-.8-2.987h0L44.321,16.4V9.38a2.638,2.638,0,0,0-2.635-2.635H30.339a2.634,2.634,0,0,0-1.686.61L16.421.293a2.19,2.19,0,0,0-2.987.8L7.295,11.726H2.635A2.638,2.638,0,0,0,0,14.361V37.053a.765.765,0,1,0,1.53,0V14.361a1.106,1.106,0,0,1,1.1-1.1H6.411L2.986,19.189a2.187,2.187,0,0,0,.8,2.987l3.48,2.009V44.6a2.853,2.853,0,0,1-2.85,2.85H4.38A2.853,2.853,0,0,1,1.53,44.6V40.453a.765.765,0,1,0-1.53,0V44.6a4.385,4.385,0,0,0,4.38,4.38H36.84A10.339,10.339,0,0,0,47.995,31.613M30.339,8.275H41.686a1.106,1.106,0,0,1,1.1,1.1v6.138L40.85,14.4q0-.047,0-.1V12.278a1.861,1.861,0,0,0-1.859-1.859H33.959l-3.7-2.139c.028,0,.056,0,.085,0m8.983,4v1.237l-1.72-.993-.992-.573h2.383a.329.329,0,0,1,.329.329M7.741,47.45A4.361,4.361,0,0,0,8.8,44.6V23.3a1.106,1.106,0,0,1,1.1-1.1h22.9a.765.765,0,0,0,0-1.53H31.6A6.783,6.783,0,0,0,23.11,13.2c-.064.017-.127.037-.191.056a6.785,6.785,0,0,0-4.78,7.408H14.372a.763.763,0,0,0-.365-.5l-3.47-2a.765.765,0,1,0-.765,1.325l2.045,1.181h-1.9L7.867,19.482l3.594-6.226.884-1.53,3.783-6.552,1.464.845L16.083,8.633a1.186,1.186,0,0,0,.433,1.618h0l2.074,1.2a1.177,1.177,0,0,0,.59.159,1.192,1.192,0,0,0,.308-.041,1.176,1.176,0,0,0,.719-.552L21.717,8.4l3.5,2.022a.767.767,0,0,0,1.045-.28h0a.769.769,0,0,0-.28-1.045l-4.164-2.4h0l-2.8-1.617h0L16.23,3.466a.765.765,0,0,0-1.045.28l-4.607,7.98-.884,1.53L6.159,19.379a.765.765,0,0,0,.28,1.045l1.658.957a2.639,2.639,0,0,0-.7,1.11L4.551,20.851a.656.656,0,0,1-.24-.9l3.867-6.7.884-1.53,5.7-9.867a.657.657,0,0,1,.9-.24L27.6,8.514l1.35.78,2.164,1.249,1.111.641,1.325.765,4.053,2.34.592.342,1.2.69h0l.757.437,2.644,1.526.6.347.929.536.864.5h0a.656.656,0,0,1,.24.9l-.635,1.1H43.273l.3-.526a.765.765,0,0,0-.28-1.045l-.422-.244L42.79,18.8l-4.572-2.639L36.894,15.4h0l-.077-.044-1.248-.721-4.115-2.376-.684-.4-.666-.385L28.929,10.8a.765.765,0,0,0-.765,1.325l1.756,1.014.765.442.765.442,1.057.61,1.325.765,1.325.765,4.985,2.878,1.726,1-.363.628H40.345a.764.764,0,0,0-.381-.629l-.3-.171-3.174-1.832a.765.765,0,0,0-.765,1.325l2.265,1.307H36.205a.765.765,0,1,0,0,1.53H45.36a1.11,1.11,0,0,1,1.1,1.1v7.385a10.27,10.27,0,0,0-2.144-.778q-.372-.09-.754-.152t-.776-.1c-.295-.025-.593-.039-.894-.039q-.26,0-.516.013c-.316.016-.627.046-.935.089h0q-.5.071-.993.19a10.291,10.291,0,0,0-3.2,1.389h0a10.414,10.414,0,0,0-.985.73q-.353.3-.679.621a10.426,10.426,0,0,0-1.262,1.529q-.214.317-.405.65t-.356.678a10.282,10.282,0,0,0-.494,1.231q-.045.135-.085.272-.072.24-.132.486h0q-.1.39-.161.79A10.332,10.332,0,0,0,34.77,47.45ZM27.057,19.713a.765.765,0,0,0,.854-.665,2.047,2.047,0,0,0-.7-1.811l.053-.092a.765.765,0,0,0-1.325-.765l-.053.091a2.052,2.052,0,0,0-1.709,3.712l.674.389a.518.518,0,0,1,.116.092H23.392a.765.765,0,0,0-1.525,0h-2.18a5.259,5.259,0,0,1,3.82-5.986,5.288,5.288,0,0,1,1.37-.182A5.229,5.229,0,0,1,27.5,15.2q.118.068.23.141a5.271,5.271,0,0,1,2.321,5.319H26.606a2.049,2.049,0,0,0-.993-1.417l-.674-.389a.522.522,0,0,1,.521-.9l.674.389a.521.521,0,0,1,.257.516.765.765,0,0,0,.665.854M18.917,6.785h0l1.474.851h0L19.056,9.95,17.582,9.1ZM47.361,46.868a8.768,8.768,0,0,1-5.465,1.9c-.248,0-.492-.011-.735-.031a8.821,8.821,0,0,1-8.077-8.781c0-.285.014-.567.041-.845s.066-.548.117-.816.112-.522.185-.776a8.757,8.757,0,0,1,.524-1.372,8.868,8.868,0,0,1,4.34-4.23,8.744,8.744,0,0,1,1.123-.415h0a8.748,8.748,0,0,1,1.019-.234q.36-.06.729-.091c.242-.02.486-.031.733-.031a8.882,8.882,0,0,1,.894.045q.393.04.776.114t.754.18a8.773,8.773,0,0,1,2.909,1.463h0a8.884,8.884,0,0,1,.765.655,8.8,8.8,0,0,1-.634,13.262" transform="translate(0 0)" fill="#201144"/>
        <path id="Trazado_873203" data-name="Trazado 873203" d="M517.488,466.289a2.188,2.188,0,0,0-1.238-.384h-.864a.663.663,0,0,1,0-1.327h.864a.662.662,0,0,1,.462.189.673.673,0,0,1,.088.1.765.765,0,0,0,1.268-.857,2.192,2.192,0,0,0-1.356-.917q-.064-.014-.129-.024v-.3a.765.765,0,1,0-1.53,0v.3a2.194,2.194,0,0,0,.333,4.362h.864a.663.663,0,0,1,0,1.327h-.864a.663.663,0,0,1-.611-.405.765.765,0,1,0-1.41.6,2.19,2.19,0,0,0,1.688,1.314v.188a.765.765,0,1,0,1.53,0v-.188c.043-.007.086-.015.129-.024a2.183,2.183,0,0,0,.776-.335,2.207,2.207,0,0,0,.754-.894,2.185,2.185,0,0,0,0-1.831,2.207,2.207,0,0,0-.754-.894" transform="translate(-473.922 -426.653)" fill="#201144"/>
        <path id="Trazado_873204" data-name="Trazado 873204" d="M462.877,427.046h0a7.478,7.478,0,0,0-2.742-1.788l-.167-.06a7.349,7.349,0,0,0-1.53-.351,7.415,7.415,0,0,0-4.489.872h0a7.492,7.492,0,0,0-3.571,4.471,7.406,7.406,0,0,0-.189.843h0a7.457,7.457,0,0,0-.086.772c-.009.147-.014.294-.014.443a7.463,7.463,0,0,0,7.455,7.454c.112,0,.223,0,.333-.008q.283-.012.561-.046a7.389,7.389,0,0,0,1.53-.351l.167-.06a7.489,7.489,0,0,0,2.688-1.733h0a7.507,7.507,0,0,0,.818-.975,7.439,7.439,0,0,0,0-8.562,7.519,7.519,0,0,0-.765-.92m.354,6.852a5.893,5.893,0,0,1-.354.924h0a5.954,5.954,0,0,1-3.831,3.155,5.866,5.866,0,0,1-.608.126,5.953,5.953,0,0,1-.8.065l-.094,0a5.924,5.924,0,0,1,0-11.848l.094,0a5.958,5.958,0,0,1,.8.065,5.943,5.943,0,0,1,1.53.454,5.948,5.948,0,0,1,2.909,2.827h0a5.911,5.911,0,0,1,.354,4.226" transform="translate(-415.647 -392.287)" fill="#201144"/>
      </g>
    </g>
  </g>
</svg>
