<svg xmlns="http://www.w3.org/2000/svg" xmlns:xlink="http://www.w3.org/1999/xlink" width="1326" height="523.182" viewBox="0 0 1326 523.182">
  <defs>
    <clipPath id="clip-path">
      <rect id="Rectángulo_401229" data-name="Rectángulo 401229" width="1326" height="523.182" transform="translate(137.059 11347)" fill="#201144"/>
    </clipPath>
    <clipPath id="clip-path-2">
      <rect id="Rectángulo_401202" data-name="Rectángulo 401202" width="128.226" height="128.226" fill="#b15815"/>
    </clipPath>
    <clipPath id="clip-path-3">
      <rect id="Rectángulo_401202-2" data-name="Rectángulo 401202" width="128.226" height="128.226" fill="#201144"/>
    </clipPath>
    <clipPath id="clip-path-4">
      <rect id="Rectángulo_401202-3" data-name="Rectángulo 401202" width="128.227" height="128.226" fill="#22cac5"/>
    </clipPath>
    <clipPath id="clip-path-5">
      <rect id="Rectángulo_401203" data-name="Rectángulo 401203" width="256.454" height="128.226" fill="#b15815"/>
    </clipPath>
    <clipPath id="clip-path-6">
      <rect id="Rectángulo_401202-4" data-name="Rectángulo 401202" width="128.226" height="128.226" fill="#22cac5"/>
    </clipPath>
    <clipPath id="clip-path-7">
      <rect id="Rectángulo_401204" data-name="Rectángulo 401204" width="268.624" height="268.624" fill="#201144"/>
    </clipPath>
    <clipPath id="clip-path-8">
      <rect id="Rectángulo_401204-2" data-name="Rectángulo 401204" width="268.624" height="268.624" fill="#22cac5"/>
    </clipPath>
  </defs>
  <g id="slyder-colors" transform="translate(-137 -2113.678)">
    <g id="Grupo_1099151" data-name="Grupo 1099151" transform="translate(-0.059 -9233.322)">
      <path id="Trazado_873101" data-name="Trazado 873101" d="M0,0H1326V523.182H0Z" transform="translate(137.059 11347)" fill="#c6c5c5"/>
      <g id="Enmascarar_grupo_1098668" data-name="Enmascarar grupo 1098668" clip-path="url(#clip-path)">
        <g id="Grupo_1099111" data-name="Grupo 1099111" transform="translate(19079.232 11624.63)">
          <g id="Grupo_1099029" data-name="Grupo 1099029" transform="translate(-19002.791 -384.499)">
            <g id="Grupo_1099018" data-name="Grupo 1099018" transform="translate(1229.031 163.639)">
              <g id="Grupo_1099017" data-name="Grupo 1099017" transform="translate(0 0)" clip-path="url(#clip-path-2)">
                <path id="Trazado_872998" data-name="Trazado 872998" d="M68.656,0A68.735,68.735,0,0,1,0,68.656v59.57A128.371,128.371,0,0,0,128.226,0Z" transform="translate(0 -0.001)" fill="#b15815"/>
              </g>
            </g>
            <g id="Grupo_1099037" data-name="Grupo 1099037" transform="translate(11.781 608.082)">
              <g id="Grupo_1099017-2" data-name="Grupo 1099017" transform="translate(0 0)" clip-path="url(#clip-path-3)">
                <path id="Trazado_872998-2" data-name="Trazado 872998" d="M68.656,0A68.735,68.735,0,0,1,0,68.656v59.57A128.371,128.371,0,0,0,128.226,0Z" transform="translate(0 -0.001)" fill="#201144"/>
              </g>
            </g>
            <g id="Grupo_1099021" data-name="Grupo 1099021" transform="translate(-10.105 35.414)">
              <g id="Grupo_1099017-3" data-name="Grupo 1099017" clip-path="url(#clip-path-4)">
                <path id="Trazado_872998-3" data-name="Trazado 872998" d="M68.656,0A68.735,68.735,0,0,1,0,68.656v59.57A128.371,128.371,0,0,0,128.227,0Z" transform="translate(0 -0.001)" fill="#22cac5"/>
              </g>
            </g>
            <g id="Grupo_1099020" data-name="Grupo 1099020" transform="translate(610.141 74.602)">
              <g id="Grupo_1099019" data-name="Grupo 1099019" transform="translate(0 0)" clip-path="url(#clip-path-5)">
                <path id="Trazado_872999" data-name="Trazado 872999" d="M196.884,0a68.735,68.735,0,0,1-68.656,68.656A68.735,68.735,0,0,1,59.57,0H0A128.371,128.371,0,0,0,128.228,128.226,128.371,128.371,0,0,0,256.454,0Z" transform="translate(0 -0.001)" fill="#b15815"/>
              </g>
            </g>
            <g id="Grupo_1099161" data-name="Grupo 1099161" transform="translate(677.203 1861.115) rotate(-90)">
              <g id="Grupo_1099028" data-name="Grupo 1099028" transform="translate(1197.785 612.132)">
                <g id="Grupo_1099017-4" data-name="Grupo 1099017" transform="translate(0 0)" clip-path="url(#clip-path-6)">
                  <path id="Trazado_872998-4" data-name="Trazado 872998" d="M68.656,0A68.735,68.735,0,0,1,0,68.656v59.57A128.371,128.371,0,0,0,128.226,0Z" transform="translate(0 -0.001)" fill="#22cac5"/>
                </g>
              </g>
              <g id="Grupo_1099023" data-name="Grupo 1099023" transform="matrix(0.788, 0.616, -0.616, 0.788, 1250.883, 363.299)">
                <g id="Grupo_1099022" data-name="Grupo 1099022" transform="translate(0 0)" clip-path="url(#clip-path-7)">
                  <path id="Trazado_873000" data-name="Trazado 873000" d="M134.311,268.624h0v-62.4a71.915,71.915,0,1,1,71.916-71.914h62.4C268.625,60.252,208.372,0,134.311,0S0,60.252,0,134.313,60.252,268.624,134.311,268.624" transform="translate(0 0)" fill="#201144"/>
                </g>
              </g>
            </g>
            <g id="Grupo_1099026" data-name="Grupo 1099026" transform="translate(1468.914 24.723) rotate(88)">
              <g id="Grupo_1099022-2" data-name="Grupo 1099022" transform="translate(0 0)" clip-path="url(#clip-path-8)">
                <path id="Trazado_873000-2" data-name="Trazado 873000" d="M134.311,268.624h0v-62.4a71.915,71.915,0,1,1,71.916-71.914h62.4C268.625,60.252,208.372,0,134.311,0S0,60.252,0,134.313,60.252,268.624,134.311,268.624" transform="translate(0 0)" fill="#22cac5"/>
              </g>
            </g>
          </g>
        </g>
      </g>
    </g>
  </g>
</svg>
