<svg xmlns="http://www.w3.org/2000/svg" width="190" height="190" viewBox="0 0 190 190">
  <g id="_10" data-name="10" transform="translate(16111 9818)">
    <circle id="Elipse_11491" data-name="Elipse 11491" cx="95" cy="95" r="95" transform="translate(-16111 -9818)" fill="#22cac5"/>
    <g id="riesgo-bajo" transform="translate(-16069 -9779.47)">
      <g id="Grupo_1099873" data-name="Grupo 1099873" transform="translate(1.547 6.017)">
        <g id="Grupo_1099867" data-name="Grupo 1099867">
          <g id="Grupo_1099866" data-name="Grupo 1099866">
            <path id="Trazado_873612" data-name="Trazado 873612" d="M10.581,39.04H42.968a3.081,3.081,0,0,0,3.081-3.081V15.051a3.081,3.081,0,0,0-3.081-3.081H10.581A3.081,3.081,0,0,0,7.5,15.051V35.958A3.081,3.081,0,0,0,10.581,39.04Z" transform="translate(-7.5 -11.97)" fill="#dcf4f7"/>
          </g>
        </g>
        <path id="Trazado_873613" data-name="Trazado 873613" d="M155.59,11.97h-6.2a3.081,3.081,0,0,1,3.081,3.081V35.958a3.081,3.081,0,0,1-3.081,3.081h6.2a3.081,3.081,0,0,0,3.081-3.081V15.051A3.081,3.081,0,0,0,155.59,11.97Z" transform="translate(-120.122 -11.97)" fill="#b9f0f1"/>
        <path id="Trazado_873614" data-name="Trazado 873614" d="M77.083,65.984h0A3.017,3.017,0,0,1,74.067,69H63.341a3.017,3.017,0,0,1-3.017-3.017h0a3.017,3.017,0,0,1,3.017-3.017H74.066A3.017,3.017,0,0,1,77.083,65.984Z" transform="translate(-49.429 -52.449)" fill="#cb97e7"/>
        <path id="Trazado_873615" data-name="Trazado 873615" d="M31.244,227.01,54.42,270.261H7.5A51.212,51.212,0,0,1,31.244,227.01Z" transform="translate(-7.5 -182.658)" fill="#4fc123"/>
        <path id="Trazado_873616" data-name="Trazado 873616" d="M323.93,270.261H277.01l18.775-35.038,4.4-8.213a51.324,51.324,0,0,1,23.744,43.251Z" transform="translate(-221.423 -182.658)" fill="#fe5694"/>
        <g id="Grupo_1099868" data-name="Grupo 1099868" transform="translate(74.362 44.352)">
          <path id="Trazado_873617" data-name="Trazado 873617" d="M380.025,232.909a17.851,17.851,0,0,1-9.189,2.531,18.123,18.123,0,0,1-2.8-.217l4.4-8.213A51.456,51.456,0,0,1,380.025,232.909Z" transform="translate(-368.04 -227.01)" fill="#fd3581"/>
        </g>
        <path id="Trazado_873618" data-name="Trazado 873618" d="M7.5,436.714H110.007V442a3.326,3.326,0,0,1-3.326,3.326H10.826A3.326,3.326,0,0,1,7.5,442Z" transform="translate(-7.5 -349.11)" fill="#678d98"/>
        <path id="Trazado_873619" data-name="Trazado 873619" d="M451.623,436.714V442a3.326,3.326,0,0,1-3.326,3.326h8.266A3.326,3.326,0,0,0,459.889,442v-5.282Z" transform="translate(-357.382 -349.11)" fill="#537983"/>
        <path id="Trazado_873620" data-name="Trazado 873620" d="M177.64,196.213l-4.4,8.213-18.775,35.038H145.8L122.62,196.213a51,51,0,0,1,27.51-8,51.7,51.7,0,0,1,8.1.637A50.907,50.907,0,0,1,177.64,196.213Z" transform="translate(-98.876 -151.86)" fill="#a2e62e"/>
        <g id="Grupo_1099869" data-name="Grupo 1099869" transform="translate(59.357 36.987)">
          <path id="Trazado_873621" data-name="Trazado 873621" d="M314.7,198.665l-4.4,8.213a17.939,17.939,0,0,1-15-15.578A50.906,50.906,0,0,1,314.7,198.665Z" transform="translate(-295.29 -191.3)" fill="#97d729"/>
        </g>
        <path id="Trazado_873622" data-name="Trazado 873622" d="M259.339,196.213a51.452,51.452,0,0,1,5.911,4.395l2.355-4.395a51,51,0,0,0-27.51-8q-2.087,0-4.133.166A50.942,50.942,0,0,1,259.339,196.213Z" transform="translate(-188.841 -151.86)" fill="#97d729"/>
        <path id="Trazado_873623" data-name="Trazado 873623" d="M380.317,227.01l-2.355,4.395a51.133,51.133,0,0,1,17.833,38.856h8.266A51.212,51.212,0,0,0,380.317,227.01Z" transform="translate(-301.554 -182.658)" fill="#fd3581"/>
        <g id="Grupo_1099870" data-name="Grupo 1099870" transform="translate(65.456 16.922)">
          <circle id="Elipse_11498" data-name="Elipse 11498" cx="17.93" cy="17.93" r="17.93" fill="#fee45a"/>
        </g>
        <path id="Trazado_873624" data-name="Trazado 873624" d="M399.811,94.015a18.055,18.055,0,0,0-3.114.27,17.933,17.933,0,0,1,0,35.32,17.931,17.931,0,1,0,3.114-35.59Z" transform="translate(-316.425 -77.093)" fill="#fcd829"/>
        <g id="Grupo_1099872" data-name="Grupo 1099872" transform="translate(28.815 74.594)">
          <g id="Grupo_1099871" data-name="Grupo 1099871">
            <path id="Trazado_873625" data-name="Trazado 873625" d="M175.09,380.2a10.684,10.684,0,1,1-12.062,17.638c-3.822-2.613-12.191-16.3-15.618-22.081a1.4,1.4,0,0,1,1.438-2.1C155.474,374.754,171.268,377.587,175.09,380.2Z" transform="translate(-147.209 -373.636)" fill="#dcf4f7"/>
          </g>
        </g>
        <path id="Trazado_873626" data-name="Trazado 873626" d="M175.1,380.2c-3.822-2.613-19.616-5.446-26.242-6.545a1.4,1.4,0,0,0-1.614,1.619c7.572,1.366,18.553,3.63,21.653,5.75,4.871,3.331,6.119,9.154,2.788,14.025a10.638,10.638,0,0,1-5.725,4.193A10.685,10.685,0,0,0,175.1,380.2Z" transform="translate(-118.408 -299.041)" fill="#b9f0f1"/>
      </g>
      <g id="Grupo_1099878" data-name="Grupo 1099878" transform="translate(0 4.47)">
        <g id="Grupo_1099874" data-name="Grupo 1099874">
          <path id="Trazado_873627" data-name="Trazado 873627" d="M37.015,34.634H4.628A4.633,4.633,0,0,1,0,30.005V9.1A4.633,4.633,0,0,1,4.628,4.47H37.015A4.633,4.633,0,0,1,41.643,9.1V30.006A4.633,4.633,0,0,1,37.015,34.634ZM4.628,7.564A1.536,1.536,0,0,0,3.094,9.1V30.005A1.536,1.536,0,0,0,4.628,31.54H37.015a1.536,1.536,0,0,0,1.534-1.534V9.1a1.536,1.536,0,0,0-1.534-1.534Z" transform="translate(0 -4.47)"/>
          <path id="Línea_572" data-name="Línea 572" d="M.66,1.835A1.542,1.542,0,0,1-.4,1.413L-7.015-4.828a1.547,1.547,0,0,1-.063-2.187,1.547,1.547,0,0,1,2.187-.063L1.722-.837A1.547,1.547,0,0,1,1.786,1.35,1.543,1.543,0,0,1,.66,1.835Z" transform="translate(26.775 34.57)"/>
        </g>
        <path id="Trazado_873628" data-name="Trazado 873628" d="M57.388,55.467H68.113a4.564,4.564,0,1,1,0,9.127H57.388a4.564,4.564,0,1,1,0-9.127ZM68.113,61.5a1.47,1.47,0,1,0,0-2.939H57.388a1.47,1.47,0,0,0,0,2.939Z" transform="translate(-41.929 -44.949)"/>
        <path id="Trazado_873629" data-name="Trazado 873629" d="M37.336,235.057H1.547A1.547,1.547,0,0,1,0,233.51a52.787,52.787,0,0,1,52.8-52.8,1.547,1.547,0,1,1,0,3.094,49.694,49.694,0,0,0-49.683,48.16H37.336a1.547,1.547,0,1,1,0,3.094Z" transform="translate(0 -144.36)"/>
        <path id="Trazado_873630" data-name="Trazado 873630" d="M339.13,295.739H297.707a1.547,1.547,0,0,1,0-3.094H337.56a49.445,49.445,0,0,0-13.82-32.867,1.547,1.547,0,1,1,2.232-2.143,52.54,52.54,0,0,1,14.706,36.557A1.547,1.547,0,0,1,339.13,295.739Z" transform="translate(-235.077 -205.042)"/>
        <path id="Trazado_873631" data-name="Trazado 873631" d="M329.1,440.913h-39.84a1.547,1.547,0,0,1,0-3.094H329.1a1.782,1.782,0,0,0,1.78-1.78V432.3H291a1.547,1.547,0,0,1,0-3.094h41.424a1.547,1.547,0,0,1,1.547,1.547v5.282A4.879,4.879,0,0,1,329.1,440.913Z" transform="translate(-228.369 -341.607)"/>
        <path id="Línea_573" data-name="Línea 573" d="M15.051-4.406h-21A1.547,1.547,0,0,1-7.5-5.953,1.547,1.547,0,0,1-5.953-7.5h21A1.547,1.547,0,0,1,16.6-5.953,1.547,1.547,0,0,1,15.051-4.406Z" transform="translate(28.504 103.712)"/>
        <path id="Trazado_873632" data-name="Trazado 873632" d="M15.329,440.913H4.874A4.879,4.879,0,0,1,0,436.039v-5.282a1.547,1.547,0,0,1,1.547-1.547H37.336a1.547,1.547,0,0,1,0,3.094H3.094v3.735a1.782,1.782,0,0,0,1.78,1.78H15.329a1.547,1.547,0,0,1,0,3.094Z" transform="translate(0 -341.607)"/>
        <path id="Trazado_873633" data-name="Trazado 873633" d="M133.918,224a1.547,1.547,0,0,1-1.365-.817L115.3,190.99a1.547,1.547,0,0,1,.532-2.035,52.623,52.623,0,0,1,28.341-8.245,53.41,53.41,0,0,1,7.526.533,1.547,1.547,0,1,1-.437,3.063,50.307,50.307,0,0,0-7.089-.5,49.543,49.543,0,0,0-25.459,7.007l16.564,30.911A1.547,1.547,0,0,1,133.918,224Z" transform="translate(-91.376 -144.36)"/>
        <path id="Línea_574" data-name="Línea 574" d="M-5.956,27.259a1.54,1.54,0,0,1-.729-.184,1.547,1.547,0,0,1-.633-2.094L9.651-6.685a1.547,1.547,0,0,1,2.094-.633,1.547,1.547,0,0,1,.633,2.094L-4.591,26.442A1.547,1.547,0,0,1-5.956,27.259Z" transform="translate(65.815 58.35)"/>
        <g id="Grupo_1099876" data-name="Grupo 1099876" transform="translate(65.456 16.922)">
          <g id="Grupo_1099875" data-name="Grupo 1099875" transform="translate(14.453 9.671)">
            <path id="Trazado_873634" data-name="Trazado 873634" d="M392.225,157.831a6.332,6.332,0,0,1-4.091-1.167,1.547,1.547,0,1,1,1.694-2.589,3.5,3.5,0,0,0,2.539.662,2.011,2.011,0,0,0,2-1.7,1.48,1.48,0,0,0-1.09-1.754,14.835,14.835,0,0,1-4.081-1.965,3.9,3.9,0,0,1-1.3-3.834,4.34,4.34,0,0,1,2.98-3.4,5.5,5.5,0,0,1,5.192,1.01,1.547,1.547,0,0,1-2.078,2.292,2.4,2.4,0,0,0-2.221-.34,1.279,1.279,0,0,0-.833,1.01.9.9,0,0,0,.17.827,12.7,12.7,0,0,0,3.2,1.483,4.58,4.58,0,0,1,3.11,5.184,5.127,5.127,0,0,1-5.026,4.277Z" transform="translate(-387.434 -140.095)"/>
            <path id="Línea_575" data-name="Línea 575" d="M-5.953-2.529A1.547,1.547,0,0,1-7.5-4.076V-5.953A1.547,1.547,0,0,1-5.953-7.5,1.547,1.547,0,0,1-4.406-5.953v1.877A1.547,1.547,0,0,1-5.953-2.529Z" transform="translate(10.896 22.141)"/>
            <path id="Línea_576" data-name="Línea 576" d="M-5.953-2.665A1.547,1.547,0,0,1-7.5-4.212V-5.953A1.547,1.547,0,0,1-5.953-7.5,1.547,1.547,0,0,1-4.406-5.953v1.742A1.547,1.547,0,0,1-5.953-2.665Z" transform="translate(10.896 7.5)"/>
          </g>
          <path id="Elipse_11499" data-name="Elipse 11499" d="M11.977-7.5A19.477,19.477,0,1,1-7.5,11.977,19.5,19.5,0,0,1,11.977-7.5Zm0,35.86A16.383,16.383,0,1,0-4.406,11.977,16.4,16.4,0,0,0,11.977,28.36Z" transform="translate(7.5 7.5)"/>
        </g>
        <g id="Grupo_1099877" data-name="Grupo 1099877" transform="translate(28.813 74.594)">
          <path id="Trazado_873635" data-name="Trazado 873635" d="M142.645,366.136a3.017,3.017,0,0,1,.494.041c8.345,1.384,22.932,4.106,26.863,6.794a12.231,12.231,0,1,1-13.808,20.192c-3.929-2.687-11.758-15.293-16.076-22.568a2.916,2.916,0,0,1-.029-2.964A2.951,2.951,0,0,1,142.645,366.136ZM163.088,392.2a9.138,9.138,0,0,0,5.167-16.681c-2.462-1.684-11.956-4.022-25.416-6.261,6.992,11.629,12.635,19.659,15.1,21.346A9.086,9.086,0,0,0,163.088,392.2Z" transform="translate(-139.699 -366.136)"/>
          <path id="Línea_577" data-name="Línea 577" d="M-3.777-2.917a1.54,1.54,0,0,1-.872-.27L-6.827-4.677a1.547,1.547,0,0,1-.4-2.15,1.547,1.547,0,0,1,2.15-.4L-2.9-5.741a1.547,1.547,0,0,1,.4,2.15A1.545,1.545,0,0,1-3.777-2.917Z" transform="translate(27.715 21.765)"/>
        </g>
      </g>
    </g>
  </g>
</svg>
