<svg xmlns="http://www.w3.org/2000/svg" xmlns:xlink="http://www.w3.org/1999/xlink" width="295" height="485" viewBox="0 0 295 485">
  <defs>
    <clipPath id="clip-path">
      <rect id="Rectángulo_401789" data-name="Rectángulo 401789" width="295" height="470.529" rx="16" transform="translate(180 464)" fill="#22cac5"/>
    </clipPath>
    <clipPath id="clip-path-2">
      <rect id="Rectángulo_401788" data-name="Rectángulo 401788" width="287.335" height="668" fill="none"/>
    </clipPath>
    <clipPath id="clip-path-4">
      <rect id="Rectángulo_401785" data-name="Rectángulo 401785" width="11.506" height="4.742" fill="none"/>
    </clipPath>
    <clipPath id="clip-path-5">
      <rect id="Rectángulo_401786" data-name="Rectángulo 401786" width="3.831" height="3.358" fill="none"/>
    </clipPath>
  </defs>
  <g id="_107" data-name="107" transform="translate(-180 -464)">
    <g id="Grupo_1100597" data-name="Grupo 1100597" transform="translate(0 -371)">
      <rect id="Rectángulo_401339" data-name="Rectángulo 401339" width="295" height="470.529" rx="16" transform="translate(180 835)" fill="#22cac5"/>
      <path id="Trazado_873608" data-name="Trazado 873608" d="M96.685,0A33.754,33.754,0,0,1,62.97,33.715,33.754,33.754,0,0,1,29.253,0H0A63.04,63.04,0,0,0,62.97,62.969,63.04,63.04,0,0,0,125.938,0Z" transform="translate(190.527 835)" fill="#fdb641"/>
      <path id="Trazado_873609" data-name="Trazado 873609" d="M17.251,34.5h0V26.488a9.237,9.237,0,1,1,9.237-9.237H34.5A17.251,17.251,0,1,0,17.251,34.5" transform="translate(417.989 954.099) rotate(-90)" fill="#201144"/>
      <g id="Grupo_1099864" data-name="Grupo 1099864" transform="translate(333.761 1255.529)">
        <path id="Trazado_873607" data-name="Trazado 873607" d="M98.992,64.471a34.52,34.52,0,0,0-69.041,0H0a64.472,64.472,0,0,1,128.943,0Z" fill="#fdb641"/>
        <path id="Trazado_873610" data-name="Trazado 873610" d="M26.6,0A30.692,30.692,0,0,0,57.257,30.657v26.6A57.322,57.322,0,0,1,0,0Z" transform="translate(10.792 6.787)" fill="#201144"/>
      </g>
      <path id="Trazado_873611" data-name="Trazado 873611" d="M29.765,64.07A34.344,34.344,0,0,1,64.07,29.765V0A64.143,64.143,0,0,0,0,64.07Z" transform="translate(224.533 1251.668)" fill="#fff"/>
    </g>
    <g id="Enmascarar_grupo_1098708" data-name="Enmascarar grupo 1098708" clip-path="url(#clip-path)">
      <g id="Grupo_1100607" data-name="Grupo 1100607" transform="translate(183.559 506.5)">
        <g id="Grupo_1100606" data-name="Grupo 1100606" clip-path="url(#clip-path-2)">
          <path id="Trazado_876213" data-name="Trazado 876213" d="M82.55,324.422l2.62,31.108-23.072.355-5.244-29.89Z" transform="translate(96.965 275.867)" fill="#b96f38"/>
          <g id="Grupo_1100605" data-name="Grupo 1100605">
            <g id="Grupo_1100604" data-name="Grupo 1100604" clip-path="url(#clip-path-2)">
              <path id="Trazado_876214" data-name="Trazado 876214" d="M112.662,380.164l-84.287-.416a11.779,11.779,0,0,1-1.084-4.687c-.492-7.131,1.837-18.5,2.986-25.668.139-.836.259-1.619.352-2.326a24.851,24.851,0,0,0,.266-2.929c.03-5.854,5.207-4.826,5.207-4.826,8.487,8.406,18.205-4.089,23.825.052,0,0,2.42,1.754,9.083,7.807S87.033,357.255,96.7,361.356c12.482,5.29,16,10.53,16.679,14.131a6.579,6.579,0,0,1-.716,4.678" transform="translate(123.452 287.836)" fill="#d5963d"/>
              <path id="Trazado_876215" data-name="Trazado 876215" d="M112.594,363.361l-84.287-.416a11.78,11.78,0,0,1-1.084-4.687l86.087.426a6.579,6.579,0,0,1-.716,4.678" transform="translate(123.52 304.639)" fill="#a36a24"/>
              <path id="Trazado_876216" data-name="Trazado 876216" d="M73.057,375.852l-2.5-.013a18.493,18.493,0,0,0,4.6-13.472c-.365-8.33-5.335-13.97-8.791-16.912.141-.836.259-1.619.352-2.326,3.728,2.877,10,9.17,10.447,19.145a20.464,20.464,0,0,1-4.1,13.578" transform="translate(87.369 291.774)" fill="#a36a24"/>
              <path id="Trazado_876217" data-name="Trazado 876217" d="M49.836,347.734a1.389,1.389,0,0,1-.32-2.738l5.272-1.28a1.388,1.388,0,1,1,.655,2.7l-5.272,1.28a1.381,1.381,0,0,1-.335.041" transform="translate(141.173 292.238)" fill="#fff"/>
              <path id="Trazado_876218" data-name="Trazado 876218" d="M52.97,345.263a1.389,1.389,0,0,1-.32-2.738l5.272-1.282a1.389,1.389,0,1,1,.655,2.7l-5.272,1.28a1.392,1.392,0,0,1-.335.041" transform="translate(132.239 290.136)" fill="#fff"/>
              <path id="Trazado_876219" data-name="Trazado 876219" d="M47,349.4a1.389,1.389,0,0,1-.32-2.738l5.272-1.281a1.388,1.388,0,1,1,.657,2.7l-5.273,1.282A1.376,1.376,0,0,1,47,349.4" transform="translate(149.259 293.657)" fill="#fff"/>
              <path id="Trazado_876220" data-name="Trazado 876220" d="M44.161,351.007a1.389,1.389,0,0,1-.32-2.738l5.272-1.282a1.389,1.389,0,0,1,.657,2.7l-5.272,1.28a1.407,1.407,0,0,1-.337.041" transform="translate(157.348 295.02)" fill="#fff"/>
              <path id="Trazado_876221" data-name="Trazado 876221" d="M41.066,352.493a1.39,1.39,0,0,1-.32-2.74l5.272-1.28a1.389,1.389,0,1,1,.657,2.7l-5.272,1.28a1.407,1.407,0,0,1-.337.041" transform="translate(166.17 296.284)" fill="#fff"/>
              <path id="Trazado_876222" data-name="Trazado 876222" d="M37.7,353.763a1.389,1.389,0,0,1-.318-2.739l5.272-1.282a1.389,1.389,0,0,1,.657,2.7l-5.272,1.28a1.411,1.411,0,0,1-.339.041" transform="translate(175.744 297.364)" fill="#fff"/>
              <path id="Trazado_876223" data-name="Trazado 876223" d="M144.452,300.389c.346,2.748.653,5.244.875,7.427.054.559.109,1.134.174,1.76,2.306,27.35.242,121.745-.464,151.252-.035.986-.046,1.9-.07,2.727-.1,3.936.318,9.855.318,9.855l-28.177,2.4s-.925-5.84-1.675-9.624c-.2-.914-.389-1.917-.609-3-3.142-15.717-9.87-49.437-15.6-79-7.788-40.137-6.125-64-6.125-64s1.591-9.568-4.42-32.829c-4.974-19.281-26.314-78.45-32.314-98.806-1.214-4.108,2.9-8.587,2.9-8.587s39.157-26.995,52.344-14.953c1.025.938,4.52,9.9,5.159,11.226a118.561,118.561,0,0,1,5.582,15.608c8.563,28.343,18.489,81.091,22.1,108.544" transform="translate(36.891 137.683)" fill="#2d4446"/>
              <path id="Trazado_876224" data-name="Trazado 876224" d="M58.369,244.032a23.919,23.919,0,0,0,17.243-1.793,1.359,1.359,0,0,0-1.356-2.355,21.588,21.588,0,0,1-15.739,1.36,1.359,1.359,0,0,0-.8,2.6c.218.067.437.131.653.191" transform="translate(106.022 203.827)" fill="#527676"/>
              <path id="Trazado_876225" data-name="Trazado 876225" d="M123.359,455.16l-.011,0a.913.913,0,0,1-1.034-.772c-.107-.742-10.878-74.5-14.736-96.634-3.253-18.67-4.383-55.306-4.45-57.5C94.307,265.09,71.052,175.434,70.819,174.532a.912.912,0,1,1,1.765-.459c.235.9,23.534,90.727,32.338,125.836a.879.879,0,0,1,.026.2c.011.381,1.11,38.315,4.428,57.336,3.862,22.162,14.634,95.942,14.743,96.686a.913.913,0,0,1-.76,1.032" transform="translate(32.221 147.44)" fill="#527676"/>
              <path id="Trazado_876226" data-name="Trazado 876226" d="M146.7,327.751l-1.11,25.942-26.391.5,1.9-24.384Z" transform="translate(-79.931 278.698)" fill="#b96f38"/>
              <path id="Trazado_876227" data-name="Trazado 876227" d="M109.375,376.016c0,.205.006.405.009.6.02.91.059,1.728.1,2.43.092,1.543.2,2.492.2,2.492h51.23a28.188,28.188,0,0,0,.059-4.922c-.337-5.235-2.074-13.5-9.15-18.966-9.685-7.49-5.945-5.927-7.932-9.34-.224-.379-1.967-6.178-2.152-6.578-1.665-3.545-3.2-5.22-12.377-5.22-12.173,0-13.245,5.906-14.546,9.019a57.909,57.909,0,0,0-2.026,7.231c-.307,1.3-.614,2.677-.916,4.084-.749,3.53-1.451,7.216-1.928,10.158a53.372,53.372,0,0,0-.574,9.013" transform="translate(-76.08 286.147)" fill="#d5963d"/>
              <path id="Trazado_876228" data-name="Trazado 876228" d="M133.783,368.571c0,.205.006.405.009.6.02.91.059,1.728.1,2.43a14.308,14.308,0,0,0,5.322-6.9c3.17-8.634-1.7-19-1.91-19.434l-.1.05c-.307,1.3-.614,2.677-.916,4.084,1.155,3.527,2.485,9.452.638,14.468a11.887,11.887,0,0,1-3.14,4.7" transform="translate(-100.488 293.591)" fill="#a36a24"/>
              <path id="Trazado_876229" data-name="Trazado 876229" d="M109.367,358.185c.068,2.916.3,4.922.3,4.922H160.9a28.188,28.188,0,0,0,.059-4.922Z" transform="translate(-76.063 304.577)" fill="#a36a24"/>
              <path id="Trazado_876230" data-name="Trazado 876230" d="M121.248,346.884a1.471,1.471,0,0,0,.366-.046,25.363,25.363,0,0,1,11.877-.246,1.46,1.46,0,1,0,.779-2.814,28.047,28.047,0,0,0-13.387.231,1.461,1.461,0,0,0,.365,2.875" transform="translate(-69.655 291.742)" fill="#fff"/>
              <path id="Trazado_876231" data-name="Trazado 876231" d="M121.7,343.694a1.489,1.489,0,0,0,.368-.046,25.311,25.311,0,0,1,11.875-.244,1.461,1.461,0,1,0,.779-2.816,28.073,28.073,0,0,0-13.387.231,1.461,1.461,0,0,0,.365,2.875" transform="translate(-70.952 289.029)" fill="#fff"/>
              <path id="Trazado_876232" data-name="Trazado 876232" d="M120.065,349.387a1.386,1.386,0,0,0,.366-.048,25.624,25.624,0,0,1,11.881-.244,1.46,1.46,0,0,0,.775-2.816,28.091,28.091,0,0,0-13.387.233,1.461,1.461,0,0,0,.365,2.875" transform="translate(-66.281 293.869)" fill="#fff"/>
              <path id="Trazado_876233" data-name="Trazado 876233" d="M118.673,352.23a1.474,1.474,0,0,0,.366-.046,25.594,25.594,0,0,1,11.881-.244,1.46,1.46,0,0,0,.775-2.816,28.046,28.046,0,0,0-13.387.231,1.461,1.461,0,0,0,.365,2.875" transform="translate(-62.314 296.287)" fill="#fff"/>
              <path id="Trazado_876234" data-name="Trazado 876234" d="M149.883,211.139q-2.187.486-4.395.934c-18.816,3.8-38.567,5.346-52.389,2.422-6.822-1.441-11.185-8.837-13.963-17.1-.759-2.254-1.275-4.607-1.935-6.859A98.021,98.021,0,0,1,73.98,149.6l109.662-1.808s3.382,5.518,7.135,12.708a140.575,140.575,0,0,1,7.6,16.792l.007.013a39.5,39.5,0,0,1,2.263,8.932c.807,8.18-23.385,18.8-50.766,24.9" transform="translate(-48.638 125.673)" fill="#2d4446"/>
              <path id="Trazado_876235" data-name="Trazado 876235" d="M169.947,305.558c-.085,2.768-.17,5.283-.289,7.472-.035.561-.068,1.138-.1,1.767-1.971,27.376-18.664,120.3-23.945,149.346-.187.968-.34,1.867-.494,2.683-.712,3.871-1.119,6.064-1.119,6.064l-28.208-2.006s-.1-2.191-.255-6.045c-.05-.934-.085-1.954-.135-3.057-.662-16.015-2.072-50.372-3.142-80.464-1.462-40.861,3.889-64.177,3.889-64.177s3.057-9.205.729-33.115c-1.919-19.819-8.728-82.875-11.5-103.918-.561-4.245-.81-7.61-.81-7.61s44.184-11.577,55.342,2.363a11.168,11.168,0,0,1,1.969,3.754,118.747,118.747,0,0,1,3.092,16.285c4.058,29.331,5.671,82.978,4.976,110.659" transform="translate(-76.257 142.844)" fill="#2d4446"/>
              <path id="Trazado_876236" data-name="Trazado 876236" d="M106.18,247.32a23.9,23.9,0,0,0,17.243-1.795,1.358,1.358,0,0,0-1.356-2.354,21.587,21.587,0,0,1-15.739,1.36,1.359,1.359,0,0,0-.8,2.6c.218.067.437.13.653.191" transform="translate(-30.257 206.623)" fill="#527676"/>
              <path id="Trazado_876237" data-name="Trazado 876237" d="M148.011,329.13c-.174.964-.34,1.858-.488,2.674l-29.585-1.985c-.039-.921-.081-1.943-.128-3.051Z" transform="translate(-78.664 277.861)" fill="#527676"/>
              <path id="Trazado_876238" data-name="Trazado 876238" d="M121.121,210.655a.893.893,0,0,1-.113-1.771,28.484,28.484,0,0,0,10.6-4.992c7.222-5.364,11.468-13.335,12.619-23.694a.893.893,0,0,1,1.774.2c-1.51,13.583-8.121,21.081-13.4,24.98a29.726,29.726,0,0,1-11.276,5.266.926.926,0,0,1-.2.013" transform="translate(-81.213 152.554)" fill="#527676"/>
              <path id="Trazado_876239" data-name="Trazado 876239" d="M137.359,459.624h-.011a.911.911,0,0,1-.9-.921c.007-.751.822-75.284.448-97.751-.316-18.947,4.258-55.316,4.533-57.494-3.253-36.109-12.3-128.289-12.4-129.216a.912.912,0,1,1,1.815-.178c.091.929,9.159,93.281,12.407,129.329a.883.883,0,0,1-.006.2c-.048.379-4.852,38.022-4.53,57.329.374,22.493-.44,97.052-.448,97.8a.912.912,0,0,1-.912.9" transform="translate(-94.668 147.312)" fill="#527676"/>
              <path id="Trazado_876240" data-name="Trazado 876240" d="M142.261,209.135c.054,0,.109,0,.163,0a11.512,11.512,0,0,0,8.706-4.1c9.366-10.612,6.511-38.517,6.386-39.7a1.217,1.217,0,1,0-2.42.257c.03.279,2.87,28.021-5.79,37.832a9.063,9.063,0,0,1-6.926,3.283c-2.4.039-4.787-1.29-7.09-3.965-7.523-8.735-12.336-30.418-10.577-40.848a1.216,1.216,0,1,0-2.4-.405c-1.861,11.026,3.007,33.408,11.132,42.841,2.75,3.194,5.714,4.811,8.815,4.811" transform="translate(-96.277 136.452)" fill="#fff"/>
              <path id="Trazado_876241" data-name="Trazado 876241" d="M87.173,323.463c-.022.981-.048,1.889-.068,2.718L57.57,328.812c-.179-.9-.381-1.906-.6-2.994Z" transform="translate(94.748 275.051)" fill="#527676"/>
              <path id="Trazado_876242" data-name="Trazado 876242" d="M97.888,190.248a.912.912,0,0,1-.229-1.756c.146-.059,10.317-4.176,13.5-15.267a.912.912,0,1,1,1.754.5,26.214,26.214,0,0,1-14.6,16.462.9.9,0,0,1-.431.057" transform="translate(-5.242 146.737)" fill="#527676"/>
              <path id="Trazado_876243" data-name="Trazado 876243" d="M39.887,86.706a17.7,17.7,0,0,1,21.061,13.517l.056.253.413,1.9.45,1.989.907,4.013c.624,2.677,1.232,5.366,1.876,8.04s1.288,5.346,1.961,8,1.373,5.3,2.069,7.921,1.436,5.227,2.2,7.792,1.532,5.109,2.352,7.59,1.675,4.907,2.579,7.209q.661,1.743,1.353,3.368c.461,1.088.931,2.126,1.4,3.083s.938,1.848,1.371,2.6c.326.568.638,1.057.862,1.4l.209.085c.2.087.45.178.679.268a69.721,69.721,0,0,0,6.789,2.067c2.483.64,5.075,1.249,7.714,1.815,4.842,1.068,9.831,2.006,14.851,2.931-2.813,4.583-5.259,9.442-8.234,13.874-2.566,3.823-5.262,7.553-8.019,11.239-.929-.072-1.854-.141-2.787-.224-3.012-.283-6.058-.624-9.181-1.092a90.124,90.124,0,0,1-9.868-1.965c-.453-.122-.894-.235-1.366-.381l-.7-.209-.725-.233c-.474-.15-1-.342-1.506-.522l-.8-.311c-.268-.105-.537-.211-.836-.342l-.875-.385-.947-.459-.239-.12-.263-.141-.524-.287c-.179-.1-.339-.185-.533-.3l-.588-.365-.583-.374c-.211-.144-.444-.313-.662-.472l-.659-.494c-.229-.178-.507-.414-.751-.627s-.5-.442-.746-.67l-.348-.337-.683-.668a45.771,45.771,0,0,1-4.282-5.035c-1.186-1.606-2.211-3.155-3.157-4.68s-1.806-3.018-2.611-4.494-1.567-2.944-2.283-4.395c-1.427-2.918-2.7-5.793-3.912-8.66-2.422-5.723-4.493-11.417-6.413-17.1-.971-2.84-1.863-5.69-2.735-8.537s-1.719-5.693-2.5-8.554-1.565-5.716-2.276-8.595c-.357-1.44-.72-2.881-1.055-4.333l-.5-2.191L26.38,107.8l-.007-.037A17.7,17.7,0,0,1,39.887,86.706m39.69,78.071a.937.937,0,0,0,.144.089c.063.033.109.065.185.1.131.061.252.124.4.189-.052-.039-.105-.08-.159-.117-.076-.054-.168-.111-.233-.152-.044-.028-.089-.055-.135-.081-.359-.2-.377-.133-.2-.03" transform="translate(128.258 73.381)" fill="#b96f38"/>
              <path id="Trazado_876244" data-name="Trazado 876244" d="M49.115,129.639q-2.465.233-4.927.464c-.864.083-.686,1.417.174,1.336l4.929-.466c.862-.081.686-1.415-.176-1.334" transform="translate(156.764 110.233)" fill="#6b2d18"/>
              <path id="Trazado_876245" data-name="Trazado 876245" d="M49.052,130.243a11.844,11.844,0,0,0-5.455,6.041.725.725,0,0,1-1.336-.562,13.4,13.4,0,0,1,6.226-6.815c.825-.435,1.384.9.564,1.336" transform="translate(159.794 109.541)" fill="#6b2d18"/>
              <path id="Trazado_876246" data-name="Trazado 876246" d="M87.233,71.2s9.239,32.864,17.9,50c0,0-25.577,21.986-41.781,23.792,0,0-15.043-11.531-15.937-30.2S87.233,71.2,87.233,71.2" transform="translate(94.483 60.542)" fill="#131e07"/>
              <path id="Trazado_876247" data-name="Trazado 876247" d="M203.027,138.8q-.469,1.354-.949,2.748v0c-1.693,4.905-3.429,10.11-5.142,15.643-.107.344-.216.69-.322,1.034s-.2.664-.3,1v0c-2.267,7.89-3.569,18.3-4.391,29.6v0c-.059.755-.115,1.514-.159,2.276-.3,4.356-.527,8.83-.718,13.321-.031.772-.068,1.545-.091,2.317-.031.609-.056,1.221-.078,1.836q-.08,2.123-.154,4.241-.117,3.283-.224,6.3c-.031.755-.057,1.5-.081,2.226-.372,10.042-.709,17.954-1.021,24.683v.006c-.031.7-.063,1.39-.1,2.071v0c-.244,5.137-.476,9.588-.7,13.835-.037.69-.072,1.377-.109,2.058-.068,1.321-.141,2.629-.209,3.938-.609,11.444-32.14,13.515-63.811,11.154q-.885-.067-1.771-.137c-7.209-.575-14.4-1.375-21.2-2.343h0c-.727-.1-1.445-.209-2.161-.318-18.422-2.751-33.654-6.707-38.191-10.673a4.447,4.447,0,0,1-1.168-1.445,1.185,1.185,0,0,1-.059-.131c-2.657-6.667-3.375-15.65-2.894-25.751.05-1,.109-2.021.178-3.048,1.24-17.854,5.858-38.678,10-56.154.187-.79.374-1.571.555-2.343,1.286-5.392,2.5-10.423,3.538-14.9.909-3.936,1.717-8.591,2.489-13.72.113-.757.228-1.525.337-2.306,1.317-9.13,2.542-19.567,3.991-30.031.165-1.162.328-2.326.5-3.482,3.6-25.011,8.678-49.35,19.551-55.423q1.146-.641,2.466-1.227c.527-.241,1.077-.472,1.641-.69a96.055,96.055,0,0,1,16.194-4.5c.59-.118,1.177-.235,1.767-.344h0A266.578,266.578,0,0,1,147.41,46.6l34.163,14.953A170.838,170.838,0,0,1,204.566,76.59c.468.372.927.753,1.377,1.134,4.341,3.671,7.906,7.509,9.211,10.969a8.108,8.108,0,0,1,.494,1.958c.006.028.006.056.009.081,1.153,11.146-5.14,26.606-12.63,48.07" transform="translate(-33.716 39.622)" fill="#131e07"/>
              <path id="Trazado_876248" data-name="Trazado 876248" d="M149.7,76.093a44.611,44.611,0,0,1-20.505,11.2,53.387,53.387,0,0,1-43.67-8.711C75.106,71.1,67.275,60.571,62.209,48.862c.59-.118,1.179-.237,1.769-.346h0a75.033,75.033,0,0,0,7.949,13.957c8.893,12.271,21.951,21.66,37.125,23.966,13.983,2.132,28.971-1.589,39.266-11.479.468.372.927.753,1.377,1.134" transform="translate(22.529 41.255)" fill="#605e4b"/>
              <path id="Trazado_876249" data-name="Trazado 876249" d="M60,94.5a46.95,46.95,0,0,0,.886,24.952q-.472,1.357-.949,2.748A48.5,48.5,0,0,1,73.016,69.347a8.051,8.051,0,0,1,.5,1.958A47.8,47.8,0,0,0,60,94.5" transform="translate(108.42 58.968)" fill="#605e4b"/>
              <path id="Trazado_876250" data-name="Trazado 876250" d="M75.592,86.625a256.62,256.62,0,0,0-16.131,44.882.884.884,0,0,0,1.7.47,254.079,254.079,0,0,1,15.952-44.46c.479-1.023-1.044-1.922-1.525-.892" transform="translate(100.162 73.272)" fill="#605e4b"/>
              <path id="Trazado_876251" data-name="Trazado 876251" d="M90.856,101.611c.331-4.494,2.861-8.443,5.2-12.16l.043-.072c.015-.024.03-.044.048-.07,5.072-7.374,11.94-16.381,22.082-15.136,9.557,1.177,12.954,11.594,11.653,19.9-1.323,8.438-6.012,17.14-13.668,21.379-6.546,3.629-15.31,3.081-20.89-2.143a14.844,14.844,0,0,1-4.467-11.7m3.577,8.214c3.747,5.96,12.2,7.8,18.54,5.434,7.342-2.74,12.2-9.92,14.39-17.167,2.291-7.572,1.885-18.729-7.024-21.849-10.157-3.562-17.982,6.77-22.907,13.931-3.8,6.049-7.313,12.793-3,19.651" transform="translate(-10.857 62.972)" fill="#605e4b"/>
              <path id="Trazado_876252" data-name="Trazado 876252" d="M103.747,120.584c-.109.346-.218.69-.322,1.036s-.2.662-.3,1q-7.277-9.081-15.178-17.645c-3.534-3.832-7.072-7.82-10.969-11.294-2.017-1.8-6.3-3.975-7.84-.328-.925,2.2.087,5.409.509,7.662a88.815,88.815,0,0,0,9.279,25.973A102.423,102.423,0,0,0,98.733,152.23v0q-.089,1.132-.159,2.276a112.063,112.063,0,0,1-9.6-9.923,96.46,96.46,0,0,1-15.2-24.13A89.852,89.852,0,0,1,68.894,105.9a77.557,77.557,0,0,1-1.676-8.852,8.139,8.139,0,0,1,.568-5.064c2.108-3.669,6.922-2.429,9.611-.276,4.637,3.714,8.656,8.574,12.662,12.943q7.1,7.746,13.689,15.928" transform="translate(59.473 76.234)" fill="#605e4b"/>
              <path id="Trazado_876253" data-name="Trazado 876253" d="M187.484,164.021c-.03.609-.054,1.221-.078,1.836a105.486,105.486,0,0,1-14.238-7.868c-12.714-8.315-23.682-18.934-34.651-29.367-5.627-5.355-11.282-10.691-17.217-15.7-5.7-4.805-11.755-9.551-18.781-12.246-11.05-4.232-22.7-1.5-32.209,4.737q.172-1.135.337-2.307c9.7-5.927,21.358-8.328,32.344-4.137,6.548,2.5,12.27,6.682,17.641,11.106,6.219,5.109,12.1,10.614,17.932,16.153,14.573,13.844,30.41,29.158,48.921,37.8" transform="translate(-30.247 82.36)" fill="#605e4b"/>
              <path id="Trazado_876254" data-name="Trazado 876254" d="M154.879,152.925c-6.454,3.893-13.726,6.145-20.368,9.664a68.021,68.021,0,0,0-16.12,11.924,69.806,69.806,0,0,0-5.962,6.748q.075-1.507.176-3.048,1.71-2.057,3.58-3.987a70.765,70.765,0,0,1,13.605-10.972c5.792-3.579,12.159-5.9,18.3-8.771,6.176-2.885,12.177-6.563,15.841-12.493,3.63-5.86,3.765-12.867-.481-18.45-9.015-11.831-26.578-8.874-38.154-2.964q-1.371.7-2.7,1.484c.185-.79.372-1.571.553-2.343a52.844,52.844,0,0,1,5.033-2.417c11.794-4.911,27.912-6.173,36.6,5.074,8.639,11.185.518,24.265-9.9,30.551" transform="translate(-89.119 96.676)" fill="#605e4b"/>
              <path id="Trazado_876255" data-name="Trazado 876255" d="M162.477,176.758c-4.487,5.532-9.27,10.869-14.185,16.068h0c-.727-.1-1.443-.209-2.161-.318,5.037-5.318,9.951-10.767,14.6-16.4,5.551-6.719,11.106-16.355,5.47-24.754-6.032-8.987-18.822-2.048-25.988,1.767a92.087,92.087,0,0,0-32.277,28.717,4.462,4.462,0,0,1-1.168-1.443,93.408,93.408,0,0,1,39.6-32.17c4.409-1.88,9.352-3.819,14.224-2.775a12.06,12.06,0,0,1,8.389,7.359c3.684,8.687-1.068,17.254-6.5,23.953" transform="translate(-80.507 123.429)" fill="#605e4b"/>
              <path id="Trazado_876256" data-name="Trazado 876256" d="M72.478,135.24c1.058,5.745,7.912,9.015,12.281,11.994q22.631,15.432,45.263,30.852v0c-.031.7-.065,1.391-.1,2.072q-11.86-8.088-23.731-16.174-8.557-5.837-17.117-11.672l-8.933-6.086a37.709,37.709,0,0,1-6.176-4.787c-2.92-3.053-4.8-8.056-2.126-11.887,2.794-3.991,8.343-3.251,12.414-2.224a121.783,121.783,0,0,1,46.869,23.843q-.047,1.13-.081,2.226A121.907,121.907,0,0,0,84.5,129.232c-2.581-.686-5.42-1.377-8.077-.705-3.11.781-4.509,3.684-3.95,6.713" transform="translate(25.66 107.585)" fill="#605e4b"/>
              <path id="Trazado_876257" data-name="Trazado 876257" d="M137.483,169.4c-.037.69-.072,1.377-.109,2.058-5.227-3.956-10.342-8.215-16.3-11.05a33.614,33.614,0,0,0-47.724,26.142l-1.771-.135a36.384,36.384,0,0,1,7.8-18.144,35.63,35.63,0,0,1,40.68-10.238c6.413,2.644,11.868,7.131,17.423,11.368" transform="translate(17.4 132.184)" fill="#605e4b"/>
              <path id="Trazado_876258" data-name="Trazado 876258" d="M95.633,68.054c10.219,0,18.407-6.624,18.783-6.931a1.15,1.15,0,0,0-1.46-1.776c-.133.109-9.45,7.6-19.967,6.239-6.015-.777-11.328-4.291-15.791-10.445a1.149,1.149,0,1,0-1.86,1.351c4.852,6.693,10.7,10.521,17.373,11.378a22.777,22.777,0,0,0,2.922.185" transform="translate(33.506 46.485)" fill="#605e4b"/>
              <path id="Trazado_876259" data-name="Trazado 876259" d="M133.729,39.362c-5.051,9.365-15.389,1.961-15.389,1.961L67.133,43.488S54.057,38.339,55.095,32s10.462-4.139,10.462-4.139-10.312-9.748-5.14-14.693c3.932-3.754,9.977-1.58,10.186-1.508-.094-.266-3.338-9.117,4.095-10.3,6.236-1,8.537,7.183,8.537,7.183s2.594-.181,6.58-.329c4.75-4.167,18.99-9.849,24.667-7.758,3.517,1.3,2.455,5.077.929,8.275,5.14.538,15.465.168,18.311,6.117,3.379,7.057-9.237,10.593-9.237,10.593s12.164,8.515,9.244,13.929" transform="translate(51.203 0)" fill="#131e07"/>
              <path id="Trazado_876260" data-name="Trazado 876260" d="M68.2,30.619s3.057.648,3.168,4.663S68.694,45.633,64.8,44.337s3.4-13.718,3.4-13.718" transform="translate(98.169 26.036)" fill="#6b2d18"/>
              <path id="Trazado_876261" data-name="Trazado 876261" d="M75.433,59.363c.488,5.834,8.16,13.768,12.732,15.944a27.443,27.443,0,0,0,21.253,1.23l2.385-11.1.487-2.263.921-4.3L89.941,35.508,88.6,34.159l-.9-.91-.559.9L86.5,35.183l.041.5c-4.228,10.371-5.494,16.757-11.106,23.681" transform="translate(34.547 28.273)" fill="#b96f38"/>
              <path id="Trazado_876262" data-name="Trazado 876262" d="M91.56,65.219C81.276,60.354,77.348,49.624,75.932,43.825c4.422,5.431,10.232,9.585,16.14,10.249a16.094,16.094,0,0,0,1.86.1Z" transform="translate(52.903 37.266)" fill="#131e07"/>
              <path id="Trazado_876263" data-name="Trazado 876263" d="M100.822,85.469a10.1,10.1,0,0,0,1.173.265,10.375,10.375,0,0,0,9.174-2.481c7.005-6.53,5.64-22.792,5.579-23.479a1,1,0,1,0-1.987.176c.015.159,1.343,15.981-4.952,21.843a8.359,8.359,0,0,1-7.5,1.972C89.406,81.683,77.488,47.541,77.369,47.2a1,1,0,1,0-1.884.651c.487,1.412,11.794,33.737,25.337,37.621" transform="translate(30.87 39.562)" fill="#fff"/>
              <path id="Trazado_876264" data-name="Trazado 876264" d="M71.379,21.153s3.623,5.523-3.993,15a18.283,18.283,0,0,1-7.8,5.39l5.9-20.848Z" transform="translate(104.84 17.602)" fill="#131e07"/>
              <path id="Trazado_876265" data-name="Trazado 876265" d="M122.7,44.415c-2.195,5.64-4.065,11.441-5.264,15.384-.05.163-.1.326-.144.481-.337,1.116-.618,2.065-.827,2.788-.059.209-.113.4-.163.568-.2.681-.3,1.057-.3,1.057-.587,9.185-5.891,20.988-17.014,20.988a16.146,16.146,0,0,1-1.861-.105C85.582,84.282,74.4,69.622,73.245,58.191c-.013-.168-.031-.333-.041-.5-.028-.383-.054-.759-.059-1.136-.05-.013-.1-.037-.15-.05l0-.006c-7.235-2.461-13.136-12.307-9.557-18.252,1.935-3.221,4.3-3.812,6.3-3.5a41.8,41.8,0,0,1,.305-9.342c1.861-10.9,13.2-24.421,33.214-15.987s23.29,25.1,19.447,34.994" transform="translate(47.841 5.766)" fill="#b96f38"/>
              <path id="Trazado_876266" data-name="Trazado 876266" d="M90.845,21.279s22.482,19.8,27.566,14.655S110.952,10.4,92.427,6.78,58.5,20.9,62.351,33.734l1.713,1.421a15.665,15.665,0,0,1,7.118,6.028c2.944,4.554-.716,9.97,4.171,9.413S78.2,28.429,78.2,28.429s7.7,2.738,12.642-7.15" transform="translate(53.517 5.36)" fill="#131e07"/>
              <g id="Grupo_1100600" data-name="Grupo 1100600" transform="translate(134.437 59.151)" opacity="0.5">
                <g id="Grupo_1100599" data-name="Grupo 1100599" transform="translate(0)">
                  <g id="Grupo_1100598" data-name="Grupo 1100598" clip-path="url(#clip-path-4)">
                    <path id="Trazado_876267" data-name="Trazado 876267" d="M76.434,32.875c-.265,1.032,2.089,2.524,5.257,3.332s5.945.627,6.21-.405-2.091-2.52-5.257-3.329-5.947-.627-6.21.4" transform="translate(-76.414 -31.969)" fill="#6b2d18"/>
                  </g>
                </g>
              </g>
              <g id="Grupo_1100603" data-name="Grupo 1100603" transform="translate(161.305 66.042)" opacity="0.5">
                <g id="Grupo_1100602" data-name="Grupo 1100602" transform="translate(0)">
                  <g id="Grupo_1100601" data-name="Grupo 1100601" clip-path="url(#clip-path-5)">
                    <path id="Trazado_876268" data-name="Trazado 876268" d="M69.873,35.694c-.337,1.118-.618,2.067-.827,2.788-.059.209-.113.4-.163.568-1.795-.609-2.948-1.436-2.835-2.161.124-.786,1.695-1.232,3.825-1.2" transform="translate(-66.042 -35.692)" fill="#6b2d18"/>
                  </g>
                </g>
              </g>
              <path id="Trazado_876269" data-name="Trazado 876269" d="M70.342,33.07c-.394,1.441-1.319,2.444-2.069,2.241s-1.036-1.539-.644-2.981,1.319-2.444,2.069-2.241,1.038,1.539.644,2.981" transform="translate(92.005 25.563)" fill="#131e07"/>
              <path id="Trazado_876270" data-name="Trazado 876270" d="M66.374,31.118a.39.39,0,0,1-.163-.181.4.4,0,0,1,.2-.522c.167-.074,4.121-1.784,6.813.988a.4.4,0,0,1-.568.551c-2.309-2.38-5.89-.833-5.925-.816a.4.4,0,0,1-.359-.02" transform="translate(91.549 25.362)" fill="#131e07"/>
              <path id="Trazado_876271" data-name="Trazado 876271" d="M77.164,31.332c-.394,1.441-1.319,2.444-2.069,2.241s-1.036-1.539-.644-2.981,1.321-2.444,2.069-2.241,1.038,1.539.644,2.981" transform="translate(72.56 24.086)" fill="#131e07"/>
              <path id="Trazado_876272" data-name="Trazado 876272" d="M73.619,29.775a.4.4,0,0,1-.052-.7c.157-.094,3.864-2.291,6.883.118a.4.4,0,0,1-.492.62c-2.594-2.071-5.947-.081-5.98-.061a.393.393,0,0,1-.359.026" transform="translate(70.962 23.865)" fill="#131e07"/>
              <path id="Trazado_876273" data-name="Trazado 876273" d="M70.422,36.616s-.907,7.244,5.053,8.7,7.679-4.341,7.679-4.341Z" transform="translate(73.967 31.136)" fill="#fff"/>
              <path id="Trazado_876274" data-name="Trazado 876274" d="M75.934,43.693A3.278,3.278,0,0,1,74.3,42.249a.552.552,0,0,1,.986-.494,2.237,2.237,0,0,0,2.263,1.058.552.552,0,1,1,.113,1.1,3.606,3.606,0,0,1-1.726-.218" transform="translate(71.81 35.248)" fill="#6b2d18"/>
              <path id="Trazado_876275" data-name="Trazado 876275" d="M72.009,28a2.2,2.2,0,0,1-.25-3.752c.237-.167,5.86-4,11.2-.316a2.2,2.2,0,1,1-2.5,3.614c-2.861-1.976-6.156.281-6.188.3A2.2,2.2,0,0,1,72.009,28" transform="translate(72.387 18.991)" fill="#131e07"/>
              <path id="Trazado_876276" data-name="Trazado 876276" d="M70.692,32.885a2.193,2.193,0,0,1-1.145-1.506c-.379-1.819-3.318-2.714-4.086-2.855a2.2,2.2,0,0,1,.79-4.321c2.428.444,6.759,2.267,7.6,6.282a2.2,2.2,0,0,1-3.155,2.4" transform="translate(95.649 20.55)" fill="#131e07"/>
              <path id="Trazado_876277" data-name="Trazado 876277" d="M92.448,34.5a5.657,5.657,0,0,1-2.03,1.142,7.225,7.225,0,0,1-3.4.174c-.017-.167-.03-.333-.041-.5-.031-.385-.052-.764-.056-1.14l-.154-.052a7.588,7.588,0,0,0,.847.154,5.8,5.8,0,0,0,1.462.013,4.3,4.3,0,0,0,2.326-1,.8.8,0,0,1,1.049,1.2" transform="translate(34.073 28.142)" fill="#6b2d18"/>
              <path id="Trazado_876278" data-name="Trazado 876278" d="M95.132,36.2a.8.8,0,0,1-.427-.809c.7-5.625-4.877-9.962-4.933-10.007a.8.8,0,0,1,.968-1.269c.261.2,6.365,4.929,5.551,11.472a.8.8,0,0,1-.892.694.758.758,0,0,1-.266-.081" transform="translate(25.443 20.368)" fill="#6b2d18"/>
              <path id="Trazado_876279" data-name="Trazado 876279" d="M90.535,28.95a.789.789,0,0,1-.241-.191.8.8,0,0,1,.087-1.127A5.486,5.486,0,0,1,95.7,26.85a.8.8,0,0,1-.553,1.5,3.88,3.88,0,0,0-3.728.5.8.8,0,0,1-.886.1" transform="translate(24.391 22.522)" fill="#6b2d18"/>
              <path id="Trazado_876280" data-name="Trazado 876280" d="M68.527,43.927a.8.8,0,0,1,.091-1.46l5.013-1.841-3.342-2.2a.8.8,0,0,1-.353-.566l-1.275-10.1a.8.8,0,0,1,1.584-.2l1.23,9.736,4.359,2.866a.791.791,0,0,1,.352.759.8.8,0,0,1-.518.659l-6.5,2.387a.8.8,0,0,1-.642-.039" transform="translate(85.145 22.84)" fill="#6b2d18"/>
              <path id="Trazado_876281" data-name="Trazado 876281" d="M10.246,235.794,116.979,93.709A47.245,47.245,0,0,1,135.86,78.78l.015-.007a47.252,47.252,0,0,1,47.261,5.52l16.622,12.479a47.244,47.244,0,0,1,9.411,66.161l-106.894,142.3Zm160.528-132.53a11.226,11.226,0,1,0,15.726-2.248,11.229,11.229,0,0,0-15.726,2.248" transform="translate(49.736 63.631)" fill="#d5963d"/>
              <path id="Trazado_876282" data-name="Trazado 876282" d="M95.632,293.524l.54-.72,102.566-136.54a40.96,40.96,0,0,0-6.435-55.987l-.037-.03L173.959,86.433a41.221,41.221,0,0,0-24.593-8.2,40.72,40.72,0,0,0-16.327,3.4l-.067.03A41.02,41.02,0,0,0,116.609,94.6L13.644,231.663Zm95.531-191.856a39.168,39.168,0,0,1,6.139,53.517L95.275,291.005l-79.117-59.7L118.047,95.675A39.232,39.232,0,0,1,133.693,83.3l.065-.03a38.92,38.92,0,0,1,15.608-3.245,39.417,39.417,0,0,1,23.516,7.842l2.095,1.573Z" transform="translate(55.137 66.522)" fill="#ecb46b"/>
              <path id="Trazado_876283" data-name="Trazado 876283" d="M60.075,59.531A8.477,8.477,0,0,0,58.1,53.014,5.8,5.8,0,0,0,52.89,51c-12.719,1.181-37.234,34.555-49.419,53.01-1.158-.551-2.32-1.125-3.471-1.687,10.477-15.93,36.994-53.684,52.537-55.127a9.583,9.583,0,0,1,8.4,3.262,12.246,12.246,0,0,1,2.955,9.305C62.51,82.586,14.6,124.54,12.558,126.317a1.91,1.91,0,0,1-2.507-2.883c.487-.424,48.74-42.661,50.024-63.9" transform="translate(223.415 40.087)" fill="#131e07"/>
              <path id="Trazado_876284" data-name="Trazado 876284" d="M21.88,148.409s8.079,2.387,9.983-2.261-4.117-14.867-6.474-18.313-3.027,6.223-1.53,10.323a22.565,22.565,0,0,1,.818,6.423Z" transform="translate(214.621 108.084)" fill="#b96f38"/>
              <path id="Trazado_876285" data-name="Trazado 876285" d="M16.706,144.006s8.46,2.2,10.721-3.316-4.887-17.648-7.684-21.734-3.934,7.523-1.817,12.251.733,7.155.733,7.155Z" transform="translate(228.561 100.424)" fill="#b96f38"/>
              <path id="Trazado_876286" data-name="Trazado 876286" d="M14.792,139.348s7.477,1.945,9.47-2.929-4.313-15.589-6.785-19.2S14,123.864,15.871,128.042s.649,6.319.649,6.319Z" transform="translate(235.318 99.032)" fill="#b96f38"/>
              <path id="Trazado_876287" data-name="Trazado 876287" d="M19.11,148.645s8.462,2.2,10.721-3.318-4.885-17.645-7.683-21.732-3.934,7.523-1.817,12.251.733,7.153.733,7.153Z" transform="translate(221.71 104.368)" fill="#b96f38"/>
              <path id="Trazado_876288" data-name="Trazado 876288" d="M131.446,169.51c7.385-9.918,5.209-20.367-3.275-26.682s-19.108-5.394-26.491,4.524c-7.448,10-5.218,20.367,3.266,26.68s19.055,5.481,26.5-4.522M94.7,119.154,81.17,109.084l-3.447,84.477,13.524,10.068Zm18.346,36.657c3.987-5.357,6.939-5.651,8.7-4.341s2.331,4.226-1.656,9.583-6.948,5.647-8.708,4.339-2.328-4.219,1.665-9.581m-42.3,9.548c7.385-9.921,5.218-20.365-3.266-26.68s-19.108-5.394-26.495,4.528c-7.442,10-5.216,20.365,3.266,26.68s19.051,5.473,26.495-4.528m-18.4-13.694c3.991-5.362,6.941-5.651,8.7-4.343s2.328,4.219-1.665,9.581-6.939,5.649-8.7,4.343-2.328-4.221,1.663-9.581" transform="translate(83.93 92.758)" fill="#fff"/>
              <path id="Trazado_876289" data-name="Trazado 876289" d="M189.1,85.584l-1.651,1.856-1.745,2c-1.171,1.345-2.344,2.7-3.506,4.073-2.32,2.742-4.639,5.5-6.893,8.3-4.537,5.573-8.9,11.254-13.026,16.982A206.91,206.91,0,0,0,151,136.153c-1.645,2.911-3.194,5.793-4.513,8.637a62.22,62.22,0,0,0-3.184,8.2c-.105.326-.178.633-.27.949l-.068.237-.015.054.015-.085.028-.174.035-.32.018-.281c.02-.692-.068-.933-.113-.949a4.417,4.417,0,0,0,.292,1.9,29.834,29.834,0,0,0,1.325,3.627c.57,1.33,1.243,2.726,1.98,4.154,1.46,2.866,3.177,5.827,5.014,8.784q1.379,2.22,2.851,4.445t2.981,4.463c2.024,2.975,4.145,5.928,6.295,8.885s4.345,5.908,6.585,8.835c2.219,2.946,4.494,5.862,6.778,8.776l3.442,4.354,1.719,2.169,1.688,2.1.189.235a11.379,11.379,0,0,1-16.381,15.672l-2.254-1.978-2.189-1.947q-2.165-1.962-4.3-3.947c-2.844-2.65-5.632-5.355-8.413-8.09q-4.135-4.127-8.19-8.393c-2.7-2.853-5.342-5.78-7.964-8.774-1.31-1.5-2.613-3.016-3.9-4.565s-2.55-3.131-3.806-4.746c-2.515-3.231-4.981-6.582-7.368-10.232-1.188-1.83-2.344-3.747-3.473-5.8a63.867,63.867,0,0,1-3.242-6.756,39.773,39.773,0,0,1-2.563-9.063,28.437,28.437,0,0,1-.226-6.609c.022-.307.067-.657.105-.984s.087-.666.15-1.02l.093-.522.072-.379.094-.455c.128-.6.246-1.221.387-1.81a94.928,94.928,0,0,1,4.15-13.259c1.623-4.126,3.39-8.054,5.312-11.816a208.631,208.631,0,0,1,12.521-21.266c4.463-6.733,9.2-13.154,14.105-19.4,2.474-3.109,4.972-6.189,7.555-9.209,1.292-1.508,2.592-3.012,3.921-4.509l2.024-2.237,2.169-2.343A18.22,18.22,0,0,1,189.45,85.193Z" transform="translate(-109.706 46.662)" fill="#b96f38"/>
              <path id="Trazado_876290" data-name="Trazado 876290" d="M144.17,108.41l-4.435-2.2c-.777-.383-1.329.844-.553,1.229q2.218,1.1,4.435,2.2c.777.385,1.329-.842.553-1.227" transform="translate(-114.051 90.253)" fill="#6b2d18"/>
              <path id="Trazado_876291" data-name="Trazado 876291" d="M146.135,108.844a11.853,11.853,0,0,0-7.816,2.267.725.725,0,0,1-.84-1.181,13.389,13.389,0,0,1,8.878-2.518c.933.063.7,1.5-.222,1.432" transform="translate(-113.449 91.307)" fill="#6b2d18"/>
              <path id="Trazado_876292" data-name="Trazado 876292" d="M93.077,147.3c-1.828,5.632,1.539,11.572,7.107,13.589a27.12,27.12,0,0,1,8.149,4.3c5.007,4.322,9.72,10.823,12.865,12.29,4.643,2.169,2.948-3.092,2.648-3.714a76.533,76.533,0,0,0-5.523-9.037s8.563,7.279,10.534,11.244,5.864,4.833,6.138.08-7.488-14.736-10.388-16.919c0,0,6.441,3.127,9.287,8.41s4.574,6.789,6.641,8.069,4.208-3.1.046-10.373-7.585-9.013-11.035-11.2a44.369,44.369,0,0,1,8.269,2.729c5.013,2.124,7.816,8.489,11.065,8.317,3.325-.176-.228-7.366-3.96-10.454s-6.188-5.653-12.1-7.492-11.631-3.394-15.437-3.645-17.219-2.922-21.825.081a6.786,6.786,0,0,0-2.479,3.721" transform="translate(-34.166 120.886)" fill="#b96f38"/>
              <path id="Trazado_876293" data-name="Trazado 876293" d="M102.661,143.49s11.2-3.2,15.014-2.25,10.079.366,9.651,2.979-8.149,3.127-8.149,3.127Z" transform="translate(-29.968 119.95)" fill="#b96f38"/>
              <path id="Trazado_876294" data-name="Trazado 876294" d="M175.55,84.84c-1.691,9.213-13.948,26.249-22.426,37.175q-.55.7-1.075,1.375c-4.113,5.251-7.1,8.784-7.1,8.784-14.718-8.623-26.18-17.732-32.677-27.579-.322-.488-.635-.981-.931-1.473A34.74,34.74,0,0,1,107,92.5a119.607,119.607,0,0,1,29.57-31.374c.514-.376,1.016-.738,1.512-1.088a85.239,85.239,0,0,1,13.21-7.91,39.439,39.439,0,0,1,13.174,6.46c.466.355.918.716,1.356,1.094,7.7,6.513,11.468,15.689,9.727,25.161" transform="translate(-86.621 44.324)" fill="#131e07"/>
              <path id="Trazado_876295" data-name="Trazado 876295" d="M148.511,81.54c-5.214,7.968-12.767,13.922-20.467,19.419-.322-.488-.635-.981-.931-1.473,7.087-5.05,14.038-10.493,19.079-17.637,4.911-6.961,7.825-15.935,6.151-24.36.514-.377,1.016-.738,1.514-1.088,1.947,8.595-.52,17.758-5.346,25.139" transform="translate(-102.394 47.96)" fill="#605e4b"/>
              <path id="Trazado_876296" data-name="Trazado 876296" d="M131.566,56.306c-.335.363-.668.729-.99,1.1-7.5,8.6-11.576,19.625-14.4,30.547-2.6,10.04-5.079,23.142,1.706,31.791q-.55.7-1.073,1.375c-6.926-8.554-5.373-21.157-2.853-31.491,2.9-11.885,7.144-23.962,15.269-33.313q.544-.633,1.116-1.245c.764-.823,2,.413,1.23,1.236" transform="translate(-51.375 46.597)" fill="#605e4b"/>
            </g>
          </g>
        </g>
      </g>
    </g>
  </g>
</svg>
