<svg xmlns="http://www.w3.org/2000/svg" width="96.762" height="96.762" viewBox="0 0 96.762 96.762">
  <g id="_108" data-name="108" transform="translate(-698.559 -609)">
    <g id="Grupo_1099174" data-name="Grupo 1099174" transform="translate(698.559 609)">
      <g id="Grupo_1099167" data-name="Grupo 1099167" transform="translate(0 0)">
        <path id="Trazado_873000" data-name="Trazado 873000" d="M48.381,0h0V22.476a25.9,25.9,0,1,0,25.905,25.9H96.762A48.381,48.381,0,1,1,48.381,0" transform="translate(0 96.762) rotate(-90)" fill="#201144"/>
      </g>
      <rect id="Rectángulo_401249" data-name="Rectángulo 401249" width="66.409" height="66.409" rx="33.204" transform="translate(15.157 15.157)" fill="#e8faf9"/>
    </g>
    <g id="billetera_1_" data-name="billetera (1)" transform="translate(725.559 636)">
      <g id="c">
        <path id="Trazado_876307" data-name="Trazado 876307" d="M41.21,21.446V12.789a2.845,2.845,0,0,0-2.842-2.842H35.526V2.842A2.845,2.845,0,0,0,32.684,0H8.526A2.845,2.845,0,0,0,5.684,2.842V9.947H2.842A2.845,2.845,0,0,0,0,12.789v27a2.845,2.845,0,0,0,2.842,2.842H38.368a2.845,2.845,0,0,0,2.842-2.842V31.132a2.129,2.129,0,0,0,1.421-2V23.447A2.129,2.129,0,0,0,41.21,21.446ZM7.105,4.263h27V5.684h-27ZM8.526,1.421H32.684A1.422,1.422,0,0,1,34.1,2.842h-27A1.422,1.422,0,0,1,8.526,1.421ZM7.105,7.105h27V9.947h-27Zm31.263,34.1H2.842a1.422,1.422,0,0,1-1.421-1.421v-27a1.422,1.422,0,0,1,1.421-1.421H38.368a1.422,1.422,0,0,1,1.421,1.421v8.526H31.263A4.267,4.267,0,0,0,27,25.579V27a4.267,4.267,0,0,0,4.263,4.263h8.526v8.526A1.422,1.422,0,0,1,38.368,41.21ZM41.21,29.131a.711.711,0,0,1-.711.711H31.263A2.845,2.845,0,0,1,28.421,27V25.579a2.845,2.845,0,0,1,2.842-2.842H40.5a.711.711,0,0,1,.711.711Z" fill="#201144"/>
        <path id="Trazado_876308" data-name="Trazado 876308" d="M44.132,34a2.132,2.132,0,1,0,2.132,2.132A2.134,2.134,0,0,0,44.132,34Zm0,2.842a.711.711,0,1,1,.711-.711A.712.712,0,0,1,44.132,36.842Z" transform="translate(-12.158 -9.843)" fill="#201144"/>
        <path id="Trazado_876309" data-name="Trazado 876309" d="M12.816,45H8.553a3.553,3.553,0,1,0,0,7.105h4.263a3.553,3.553,0,1,0,0-7.105Zm0,5.684H8.553a2.132,2.132,0,1,1,0-4.263h4.263a2.132,2.132,0,1,1,0,4.263Z" transform="translate(-1.447 -13.027)" fill="#201144"/>
        <path id="Trazado_876310" data-name="Trazado 876310" d="M51.263,49a.71.71,0,0,0-.711.711v2.132a.711.711,0,0,1-.711.711H47.711a.711.711,0,0,0,0,1.421h2.132a2.134,2.134,0,0,0,2.132-2.132V49.711A.71.71,0,0,0,51.263,49Z" transform="translate(-13.606 -14.185)" fill="#201144"/>
        <path id="Trazado_876311" data-name="Trazado 876311" d="M47.711,19.421h2.132a.711.711,0,0,1,.711.711v2.132a.711.711,0,0,0,1.421,0V20.132A2.134,2.134,0,0,0,49.842,18H47.711a.711.711,0,0,0,0,1.421Z" transform="translate(-13.606 -5.211)" fill="#201144"/>
        <path id="Trazado_876312" data-name="Trazado 876312" d="M5.421,22.263V20.132a.712.712,0,0,1,.711-.711H8.263a.711.711,0,1,0,0-1.421H6.132A2.134,2.134,0,0,0,4,20.132v2.132a.711.711,0,0,0,1.421,0Z" transform="translate(-1.158 -5.211)" fill="#201144"/>
      </g>
    </g>
  </g>
</svg>
