<svg xmlns="http://www.w3.org/2000/svg" width="96.762" height="96.762" viewBox="0 0 96.762 96.762">
  <g id="_109" data-name="109" transform="translate(-1118.559 -609)">
    <g id="Grupo_1099174" data-name="Grupo 1099174" transform="translate(1118.559 609)">
      <g id="Grupo_1099167" data-name="Grupo 1099167" transform="translate(0 0)">
        <path id="Trazado_873000" data-name="Trazado 873000" d="M48.381,0h0V22.476a25.9,25.9,0,1,0,25.905,25.9H96.762A48.381,48.381,0,1,1,48.381,0" transform="translate(0 96.762) rotate(-90)" fill="#201144"/>
      </g>
      <rect id="Rectángulo_401249" data-name="Rectángulo 401249" width="66.409" height="66.409" rx="33.204" transform="translate(15.157 15.157)" fill="#e8faf9"/>
    </g>
    <g id="monedas" transform="translate(1139.56 630)">
      <g id="c" transform="translate(1.999)">
        <path id="Trazado_876324" data-name="Trazado 876324" d="M15.77,27.7A2.773,2.773,0,0,0,13,30.465V52.621a2.773,2.773,0,0,0,2.77,2.77H41.618a2.773,2.773,0,0,0,2.77-2.77V30.465a2.773,2.773,0,0,0-2.77-2.77H35.829a14.771,14.771,0,1,0-14.27,0Zm1.846,11.078a.922.922,0,0,0,.923-.923V36h1.846v.923a.923.923,0,0,0,1.846,0V36H35.156v.923a.923.923,0,0,0,1.846,0V36h1.846V37.85a.923.923,0,1,0,1.846,0V36h1.846V40.62h-27.7V36h1.846V37.85A.922.922,0,0,0,17.616,38.773Zm-2.77,8.309V42.466h1.846v1.846a.923.923,0,0,0,1.846,0V42.466h1.846v.923a.923.923,0,1,0,1.846,0v-.923H35.156v.923a.923.923,0,0,0,1.846,0v-.923h1.846v1.846a.923.923,0,0,0,1.846,0V42.466h1.846v4.616Zm26.772,6.462H15.77a.924.924,0,0,1-.923-.923V48.928h1.846v1.846a.923.923,0,0,0,1.846,0V48.928h1.846v.923a.923.923,0,0,0,1.846,0v-.923H35.156v.923a.923.923,0,1,0,1.846,0v-.923h1.846v1.846a.923.923,0,0,0,1.846,0V48.928h1.846v3.693A.924.924,0,0,1,41.618,53.544ZM15.77,14.771A12.924,12.924,0,1,1,28.694,27.7,12.939,12.939,0,0,1,15.77,14.771ZM35.156,29.542v.923a.923.923,0,1,0,1.846,0v-.923h1.846v1.846a.923.923,0,1,0,1.846,0V29.542h.923a.924.924,0,0,1,.923.923v3.693h-27.7V30.465a.924.924,0,0,1,.923-.923h.923v1.846a.923.923,0,1,0,1.846,0V29.542h1.846v.923a.923.923,0,1,0,1.846,0v-.923Z" transform="translate(-2.844)" fill="#201144"/>
        <path id="Trazado_876325" data-name="Trazado 876325" d="M29.078,4A11.078,11.078,0,1,0,40.156,15.078,11.09,11.09,0,0,0,29.078,4Zm0,20.31a9.232,9.232,0,1,1,9.232-9.232A9.242,9.242,0,0,1,29.078,24.31Z" transform="translate(-3.228 -0.307)" fill="#201144"/>
        <path id="Trazado_876326" data-name="Trazado 876326" d="M31.239,11.693a1.86,1.86,0,0,1,1.305.541l.112.112a.923.923,0,1,0,1.305-1.305l-.112-.112a3.715,3.715,0,0,0-2.611-1.082h-.7V8.923a.923.923,0,0,0-1.846,0v.923h-.462a3.251,3.251,0,0,0-2.286.943,3.219,3.219,0,0,0-.94,2.091,3.121,3.121,0,0,0,.867,2.344,3.454,3.454,0,0,0,2.505,1.084h.314v2.77h-.7a1.86,1.86,0,0,1-1.305-.541l-.112-.112a.923.923,0,1,0-1.305,1.305l.112.112a3.715,3.715,0,0,0,2.611,1.082h.7v.923a.923.923,0,1,0,1.846,0v-.923H31a3.251,3.251,0,0,0,2.286-.943,3.219,3.219,0,0,0,.94-2.091,3.121,3.121,0,0,0-.867-2.344,3.454,3.454,0,0,0-2.505-1.084h-.314v-2.77Zm-.386,4.616a1.6,1.6,0,0,1,1.161.5,1.3,1.3,0,0,1,.368.968,1.374,1.374,0,0,1-.4.9,1.4,1.4,0,0,1-.98.4h-.462v-2.77h.314Zm-2.16-1.846h-.314a1.6,1.6,0,0,1-1.161-.5,1.3,1.3,0,0,1-.368-.968,1.374,1.374,0,0,1,.4-.9,1.4,1.4,0,0,1,.98-.4h.462v2.77Z" transform="translate(-3.766 -0.615)" fill="#201144"/>
        <path id="Trazado_876327" data-name="Trazado 876327" d="M50.924,21.616a.926.926,0,0,0,.412-.1l5.539-2.77a.923.923,0,1,0-.826-1.652l-5.539,2.77a.924.924,0,0,0,.415,1.749Z" transform="translate(-5.687 -1.306)" fill="#201144"/>
        <path id="Trazado_876328" data-name="Trazado 876328" d="M50.923,26.846h3.693a.923.923,0,0,0,0-1.846H50.923a.923.923,0,0,0,0,1.846Z" transform="translate(-5.687 -1.921)" fill="#201144"/>
        <path id="Trazado_876329" data-name="Trazado 876329" d="M8.875,19.866,3.336,17.1a.923.923,0,0,0-.826,1.652l5.539,2.77a.924.924,0,0,0,.826-1.652Z" transform="translate(-1.999 -1.306)" fill="#201144"/>
        <path id="Trazado_876330" data-name="Trazado 876330" d="M8.616,25H4.923a.923.923,0,1,0,0,1.846H8.616a.923.923,0,0,0,0-1.846Z" transform="translate(-2.153 -1.921)" fill="#201144"/>
      </g>
    </g>
  </g>
</svg>
