<svg xmlns="http://www.w3.org/2000/svg" width="190" height="190" viewBox="0 0 190 190">
  <g id="_11" data-name="11" transform="translate(16111 9484)">
    <circle id="Elipse_11492" data-name="Elipse 11492" cx="95" cy="95" r="95" transform="translate(-16111 -9484)" fill="#22cac5"/>
    <g id="gestion-de-riesgos" transform="translate(-16075.491 -9456.32)">
      <g id="Grupo_1099884" data-name="Grupo 1099884" transform="translate(5.159 14.986)">
        <g id="Grupo_1099880" data-name="Grupo 1099880" transform="translate(40.694 45.541)">
          <path id="Trazado_873627" data-name="Trazado 873627" d="M233.047,228.553l28.51,47.841a5.541,5.541,0,0,1-4.767,8.39H199.77a5.541,5.541,0,0,1-4.767-8.39l28.509-47.841a5.556,5.556,0,0,1,9.534,0Z" transform="translate(-194.207 -225.851)" fill="#ff6372" fill-rule="evenodd"/>
          <path id="Trazado_873628" data-name="Trazado 873628" d="M247.554,250.655,219.045,298.5c-.025.042-.014.063.036.063H276.1c.049,0,.061-.021.036-.063l-28.509-47.841A.048.048,0,0,0,247.554,250.655Z" transform="translate(-213.518 -245.133)" fill="#f0f0f0" fill-rule="evenodd"/>
          <path id="Trazado_873629" data-name="Trazado 873629" d="M333.733,335.392a3.391,3.391,0,1,1-3.391,3.391A3.391,3.391,0,0,1,333.733,335.392Zm-2.446-23.786h4.892a1.519,1.519,0,0,1,1.515,1.515l-1.446,18.422a.966.966,0,0,1-.964.964h-3.1a.967.967,0,0,1-.964-.964l-1.446-18.422A1.519,1.519,0,0,1,331.288,311.606Z" transform="translate(-299.661 -292.558)" fill="#ff6372" fill-rule="evenodd"/>
        </g>
        <g id="Grupo_1099881" data-name="Grupo 1099881" transform="translate(19.473 78.52)">
          <path id="Trazado_873630" data-name="Trazado 873630" d="M102.312,400.282h38.7a3.652,3.652,0,0,0,3.642-3.642v-5.694a3.652,3.652,0,0,0-3.642-3.642h-38.7a3.652,3.652,0,0,0-3.642,3.642v5.694a3.652,3.652,0,0,0,3.642,3.642Zm0-25.955h38.7a3.652,3.652,0,0,1,3.642,3.642v5.694a3.652,3.652,0,0,1-3.642,3.642h-38.7a3.652,3.652,0,0,1-3.642-3.642v-5.694a3.652,3.652,0,0,1,3.642-3.642Z" transform="translate(-98.67 -374.327)" fill="#ffc328" fill-rule="evenodd"/>
          <path id="Trazado_873631" data-name="Trazado 873631" d="M102.312,374.327h38.7a3.652,3.652,0,0,1,3.642,3.642v5.694a3.652,3.652,0,0,1-3.642,3.642h-38.7a3.652,3.652,0,0,1-3.642-3.642v-5.694a3.652,3.652,0,0,1,3.642-3.642Z" transform="translate(-98.67 -374.327)" fill="#ffd54f" fill-rule="evenodd"/>
        </g>
        <g id="Grupo_1099882" data-name="Grupo 1099882" transform="translate(0 0)">
          <path id="Trazado_873632" data-name="Trazado 873632" d="M95.927,63.286a42.464,42.464,0,0,0-84.927,0,14.656,14.656,0,0,1,10.616-4.833,14.656,14.656,0,0,1,10.616,4.833,14.656,14.656,0,0,1,10.616-4.833,14.656,14.656,0,0,1,10.616,4.833,14.075,14.075,0,0,1,21.232,0,14.075,14.075,0,0,1,21.232,0Z" transform="translate(-11 -20.822)" fill="#43a2ff" fill-rule="evenodd"/>
          <path id="Trazado_873633" data-name="Trazado 873633" d="M223.408,63.286a14.075,14.075,0,0,1,21.232,0,42.464,42.464,0,0,0-42.464-42.464V63.286a14.075,14.075,0,0,1,21.232,0Z" transform="translate(-159.712 -20.822)" fill="#006edb" fill-rule="evenodd"/>
          <path id="Trazado_873634" data-name="Trazado 873634" d="M149.052,63.286c0-23.452-9.506-42.464-21.232-42.464s-21.232,19.012-21.232,42.464a14.075,14.075,0,0,1,21.232,0,14.075,14.075,0,0,1,21.232,0Z" transform="translate(-85.356 -20.822)" fill="#2891fa" fill-rule="evenodd"/>
          <path id="Trazado_873635" data-name="Trazado 873635" d="M202.176,20.822V63.286a14.075,14.075,0,0,1,21.232,0C223.408,39.834,213.9,20.822,202.176,20.822Z" transform="translate(-159.712 -20.822)" fill="#0e82f5" fill-rule="evenodd"/>
        </g>
        <g id="Grupo_1099883" data-name="Grupo 1099883" transform="translate(18.949 38.477)">
          <circle id="Elipse_11499" data-name="Elipse 11499" cx="22.991" cy="22.991" r="22.991" transform="translate(0 45.982) rotate(-88.625)" fill="#ffc328"/>
          <ellipse id="Elipse_11500" data-name="Elipse 11500" cx="16.671" cy="16.671" rx="16.671" ry="16.671" transform="translate(6.52 7.209) rotate(-1.088)" fill="#ffa200"/>
        </g>
      </g>
      <path id="Trazado_873636" data-name="Trazado 873636" d="M41.539,72.964a5.707,5.707,0,0,1,4.417-5.557v-1.22a1.664,1.664,0,1,1,3.329,0v1.319a5.72,5.72,0,0,1,4.04,5.458,1.664,1.664,0,1,1-3.329,0,2.38,2.38,0,0,0-2.376-2.375h-.377a2.38,2.38,0,0,0-2.376,2.375c0,1.752,1.486,2.374,2.753,2.374,3.527,0,6.081,2.4,6.081,5.706a5.711,5.711,0,0,1-4.417,5.56v1.217a1.664,1.664,0,1,1-3.329,0V86.5a5.722,5.722,0,0,1-4.04-5.46,1.664,1.664,0,1,1,3.329,0,2.378,2.378,0,0,0,2.376,2.375H48a2.378,2.378,0,0,0,2.376-2.375c0-1.752-1.486-2.374-2.753-2.374-3.527,0-6.081-2.4-6.081-5.706ZM47.62,62A15.005,15.005,0,1,0,62.63,77,15.028,15.028,0,0,0,47.62,62Zm0,33.342A18.337,18.337,0,1,0,29.282,77,18.36,18.36,0,0,0,47.62,95.342ZM82.2,81.24l-1.382,17.57h-1.8L77.639,81.24Zm-2.282,27.239a1.726,1.726,0,1,1,1.727-1.726A1.729,1.729,0,0,1,79.921,108.478Zm-4.176-8.887a2.623,2.623,0,0,0,2.188,2.51,5.055,5.055,0,1,0,3.977,0,2.623,2.623,0,0,0,2.188-2.51L85.542,81.22a.558.558,0,0,0,.01-.131,3.19,3.19,0,0,0-3.182-3.181h-4.9a3.19,3.19,0,0,0-3.182,3.181c0,.045.01.087.01.131Zm36.069,16.243a3.849,3.849,0,0,0-.042-3.911L83.26,64.084a3.895,3.895,0,0,0-6.678,0l-4.794,8.047a24.1,24.1,0,0,1,.45,3.5L78.456,65.2a1.713,1.713,0,0,1,2.931,0L109.9,113.038a1.691,1.691,0,0,1,.031,1.721,1.711,1.711,0,0,1-1.5.859H72.28v.2a5.394,5.394,0,0,1-.387,1.977h36.54a3.828,3.828,0,0,0,3.381-1.961ZM28.266,117.8a1.972,1.972,0,0,1-1.968-1.977v-5.693a1.972,1.972,0,0,1,1.968-1.977H66.973a1.972,1.972,0,0,1,1.968,1.977v5.693a1.972,1.972,0,0,1-1.968,1.977ZM26.3,97.148a1.971,1.971,0,0,1,1.968-1.974h2.7a24.616,24.616,0,0,0,33.306,0h2.7a1.971,1.971,0,0,1,1.968,1.974v5.7a1.972,1.972,0,0,1-1.968,1.975H28.266a1.972,1.972,0,0,1-1.968-1.975ZM47.62,55.681A21.325,21.325,0,1,0,68.941,77,21.347,21.347,0,0,0,47.62,55.681ZM37.059,50.952a1.1,1.1,0,0,0-.115,0,15.665,15.665,0,0,0-8.813,2.841c.419-9.7,2.5-18.694,5.966-25.623,3.3-6.6,7.463-10.56,11.859-11.362v35.6q-1.036.066-2.041.219a15.934,15.934,0,0,0-6.856-1.675Zm-21.342,0a1.107,1.107,0,0,1,.115,0,15.641,15.641,0,0,1,8.96,2.948c.419-10.262,2.627-19.822,6.322-27.221a32.038,32.038,0,0,1,6.113-8.685A40.9,40.9,0,0,0,6.987,53.73,15.655,15.655,0,0,1,15.716,50.952ZM88.253,53.73a15.656,15.656,0,0,0-8.73-2.779,1.109,1.109,0,0,0-.115,0,15.64,15.64,0,0,0-8.96,2.948c-.419-10.262-2.627-19.822-6.322-27.221a32.033,32.033,0,0,0-6.113-8.685A40.9,40.9,0,0,1,88.253,53.73ZM58.181,50.952a1.1,1.1,0,0,1,.115,0,15.688,15.688,0,0,1,8.813,2.841c-.419-9.7-2.5-18.694-5.966-25.623-3.3-6.6-7.463-10.56-11.859-11.362v35.6q1.036.066,2.041.219a15.934,15.934,0,0,1,6.856-1.675Zm21.74,18.292-8.53,14.318a24.569,24.569,0,0,1-4.1,8.29,5.316,5.316,0,0,1,4.993,5.3v5.7a5.282,5.282,0,0,1-1.455,3.641,5.284,5.284,0,0,1,1.455,3.643v2.161h33.3Zm34.709,40.974L86.117,62.377a7.218,7.218,0,0,0-12.393,0L70.49,67.8A24.8,24.8,0,0,0,57.333,54.343c.293-.027.6-.049.9-.06a12.942,12.942,0,0,1,9.431,4.338,1.673,1.673,0,0,0,2.376,0,12.42,12.42,0,0,1,18.861,0,1.665,1.665,0,0,0,2.847-1.17,44.129,44.129,0,1,0-88.258,0A1.661,1.661,0,0,0,4.527,58.99a1.633,1.633,0,0,0,.628.126,1.651,1.651,0,0,0,1.183-.5,12.973,12.973,0,0,1,9.431-4.338A12.942,12.942,0,0,1,25.2,58.621a1.673,1.673,0,0,0,2.376,0,12.942,12.942,0,0,1,9.431-4.338c.3.011.607.033.9.06A24.624,24.624,0,0,0,27.952,91.85a5.316,5.316,0,0,0-4.993,5.3v5.7a5.282,5.282,0,0,0,1.455,3.641,5.283,5.283,0,0,0-1.455,3.643v5.693a5.317,5.317,0,0,0,5.307,5.309h80.167a7.207,7.207,0,0,0,6.2-10.91Z" transform="translate(0)" fill-rule="evenodd"/>
    </g>
  </g>
</svg>
