<svg xmlns="http://www.w3.org/2000/svg" width="88" height="88" viewBox="0 0 88 88">
  <g id="_110" data-name="110" transform="translate(-309.559 -1006)">
    <rect id="Rect치ngulo_401500" data-name="Rect치ngulo 401500" width="88" height="88" rx="11" transform="translate(309.559 1006)" fill="#b15815"/>
    <g id="dinero_2_" data-name="dinero (2)" transform="translate(323.559 1020)">
      <g id="b">
        <path id="Trazado_876331" data-name="Trazado 876331" d="M18,27H3a2,2,0,0,0-2,2V49a2,2,0,0,0,2,2H18Z" fill="#60a917"/>
        <path id="Trazado_876332" data-name="Trazado 876332" d="M15,27h3V51H15Z" fill="#549414"/>
        <path id="Trazado_876333" data-name="Trazado 876333" d="M42,51H57a2,2,0,0,0,2-2V29a2,2,0,0,0-2-2H42Z" fill="#60a917"/>
        <path id="Trazado_876334" data-name="Trazado 876334" d="M57,27H54a2,2,0,0,1,2,2V49a2,2,0,0,1-2,2h3a2,2,0,0,0,2-2V29A2,2,0,0,0,57,27Z" fill="#549414"/>
        <rect id="Rect치ngulo_401790" data-name="Rect치ngulo 401790" width="24" height="28" rx="2" transform="translate(18 25)" fill="#ff9801"/>
        <path id="Trazado_876335" data-name="Trazado 876335" d="M40,25H37a2,2,0,0,1,2,2V51a2,2,0,0,1-2,2h3a2,2,0,0,0,2-2V27A2,2,0,0,0,40,25Z" fill="#f57c00"/>
      </g>
      <g id="c">
        <path id="Trazado_876336" data-name="Trazado 876336" d="M57,26H42.816A3,3,0,0,0,40,24H20a3,3,0,0,0-2.816,2H3a3,3,0,0,0-3,3V49a3,3,0,0,0,3,3H17.184A3,3,0,0,0,20,54H40a3,3,0,0,0,2.816-2H57a3,3,0,0,0,3-3V29A3,3,0,0,0,57,26Zm1,3v1H46a1,1,0,0,0,0,2H58v2H50a1,1,0,0,0,0,2h8v2H43V28H57A1,1,0,0,1,58,29ZM3,28H17V38H2V36h8a1,1,0,0,0,0-2H2V32H14a1,1,0,0,0,0-2H2V29A1,1,0,0,1,3,28ZM2,49V48h8a1,1,0,0,0,0-2H2V44H14a1,1,0,0,0,0-2H2V40H17V50H3A1,1,0,0,1,2,49Zm38,3H20a1,1,0,0,1-1-1V27a1,1,0,0,1,1-1H40a1,1,0,0,1,1,1V51A1,1,0,0,1,40,52Zm17-2H43V40H58v2H46a1,1,0,0,0,0,2H58v2H50a1,1,0,0,0,0,2h8v1A1,1,0,0,1,57,50Z"/>
        <path id="Trazado_876337" data-name="Trazado 876337" d="M32,30H31V29a1,1,0,0,0-2,0v1H28a3,3,0,0,0-3,3v3a4,4,0,0,0,4,4v6H28a1,1,0,0,1-1-1V44a1,1,0,0,0-2,0v1a3,3,0,0,0,3,3h1v1a1,1,0,0,0,2,0V48h1a3,3,0,0,0,3-3V42a4,4,0,0,0-4-4V32h1a1,1,0,0,1,1,1v1a1,1,0,0,0,2,0V33A3,3,0,0,0,32,30Zm1,12v3a1,1,0,0,1-1,1H31V40A2,2,0,0,1,33,42Zm-4-4a2,2,0,0,1-2-2V33a1,1,0,0,1,1-1h1Z"/>
        <path id="Trazado_876338" data-name="Trazado 876338" d="M31,21V8a1,1,0,0,0-2,0V21a1,1,0,0,0,2,0Z"/>
        <path id="Trazado_876339" data-name="Trazado 876339" d="M35.707,21.707l6-6a1,1,0,0,0-1.414-1.414l-6,6a1,1,0,1,0,1.414,1.414Z"/>
        <path id="Trazado_876340" data-name="Trazado 876340" d="M25,22a1,1,0,0,0,.707-1.707l-6-6a1,1,0,0,0-1.414,1.414l6,6A1,1,0,0,0,25,22Z"/>
      </g>
    </g>
  </g>
</svg>
