<svg xmlns="http://www.w3.org/2000/svg" width="96.762" height="96.762" viewBox="0 0 96.762 96.762">
  <g id="_112" data-name="112" transform="translate(-247.559 -1952)">
    <g id="Grupo_1099174" data-name="Grupo 1099174" transform="translate(247.559 1952)">
      <g id="Grupo_1099167" data-name="Grupo 1099167" transform="translate(0 0)">
        <path id="Trazado_873000" data-name="Trazado 873000" d="M48.381,0h0V22.476a25.9,25.9,0,1,0,25.905,25.9H96.762A48.381,48.381,0,1,1,48.381,0" transform="translate(0 96.762) rotate(-90)" fill="#201144"/>
      </g>
      <rect id="Rectángulo_401249" data-name="Rectángulo 401249" width="66.409" height="66.409" rx="33.204" transform="translate(15.157 15.157)" fill="#e8faf9"/>
    </g>
    <g id="Grupo_1100614" data-name="Grupo 1100614" transform="translate(273.559 1979)">
      <ellipse id="Elipse_11568" data-name="Elipse 11568" cx="0.712" cy="0.712" rx="0.712" ry="0.712" transform="translate(11.393 9.977)" fill="#201144"/>
      <path id="Trazado_876353" data-name="Trazado 876353" d="M36.7,21.883v-2.6a9.2,9.2,0,0,1-5.7-8.5,9.811,9.811,0,0,1,9.8-9.8c1.544,0,2.746,0,3.035,0a7.888,7.888,0,0,1,6.253,3.14l.854,1.139H49.234a7.794,7.794,0,0,0-1.757.2A7.124,7.124,0,0,1,50.04,8.285l.627,1.253h-4V9.66a4.179,4.179,0,0,0,1.216,2.934l.5.5-1.719,1.72v2.81a3.3,3.3,0,0,1-3.952,3.24l-.32-.064v3.445a9.567,9.567,0,0,1,2.848,6.794v2.7l7.122.011a1.427,1.427,0,0,1,1.422,1.43,2.848,2.848,0,0,1-2.848,2.848h-.007l-1.419,0a1.426,1.426,0,0,1-1.423,1.414H45.242v5.289l-.209.209c-.172.171-.206.207-6.011.207-1.527,0-3.454,0-5.886-.006h-.711V35.39A8.794,8.794,0,0,1,31,30.576a9.536,9.536,0,0,1,5.7-8.693ZM45.645,6.151a7.769,7.769,0,0,0-.72.42l-.79-1.185a9.171,9.171,0,0,1,3.816-1.455,6.457,6.457,0,0,0-4.124-1.52H40.8a8.385,8.385,0,0,0-8.372,8.373A7.773,7.773,0,0,0,36.7,17.717V15.53l-.8-.8a2.12,2.12,0,0,1-.626-1.51V13.1a2.141,2.141,0,0,1,1.476-2.032,3.566,3.566,0,0,1,3.508-2.952h8.015a5.7,5.7,0,0,0-2.628-1.964ZM40.97,20.519l-1.564-.313.28-1.4,3.308.662a1.947,1.947,0,0,0,.37.036,1.879,1.879,0,0,0,1.817-1.424H43.818a2.851,2.851,0,0,1-2.848-2.848h1.424a1.426,1.426,0,0,0,1.424,1.424h1.424V14.229L46.4,13.067a5.622,5.622,0,0,1-1.162-3.406V9.539H40.258a2.139,2.139,0,0,0-2.136,2.136v.712H37.41a.712.712,0,0,0-.712.712v.122a.714.714,0,0,0,.209.5l1.216,1.216V21.8a9.5,9.5,0,0,1,2.848,1.288ZM50.935,36.6h0a1.423,1.423,0,0,0,1.423-1.43l-2.848,0V36.6ZM48.09,35.168l-7.136-.011a5.687,5.687,0,0,1-5.68-5.68H36.7a4.261,4.261,0,0,0,4.257,4.256l2.863,0V31.043A8.169,8.169,0,0,0,37.469,23.1a8.1,8.1,0,0,0-5.044,7.479,7.437,7.437,0,0,0,7.436,7.435h.006l8.224,0V35.168ZM43.818,43.72V39.437H39.86a8.788,8.788,0,0,1-6.011-2.365v6.642C36.692,43.715,41.934,43.718,43.818,43.72Z" transform="translate(-31.001 -0.986)" fill="#201144"/>
      <path id="Trazado_876354" data-name="Trazado 876354" d="M32.362,30.411v8.545a1.426,1.426,0,0,1-1.424,1.424H21.86c-.06,0-.118.009-.179.009s-.119-.007-.179-.009H12.424A1.426,1.426,0,0,1,11,38.956V30.411a1.426,1.426,0,0,1,1.424-1.424H30.938A1.426,1.426,0,0,1,32.362,30.411Zm-1.424,7.252a2.134,2.134,0,0,0-1.293,1.293h1.293Zm-2.776,1.292a3.571,3.571,0,0,1,2.776-2.776V33.188a3.571,3.571,0,0,1-2.776-2.776H25.427a5.673,5.673,0,0,1,.02,8.545Zm-6.659,0h.357a4.272,4.272,0,1,0-.357,0Zm-5.518-4.263a5.681,5.681,0,0,1,1.951-4.282H15.2a3.571,3.571,0,0,1-2.776,2.776V36.18A3.571,3.571,0,0,1,15.2,38.956h2.715A5.678,5.678,0,0,1,15.985,34.693Zm-2.267,4.263a2.134,2.134,0,0,0-1.293-1.293v1.293ZM12.424,31.7a2.134,2.134,0,0,0,1.293-1.293H12.424Zm17.221-1.293A2.134,2.134,0,0,0,30.938,31.7V30.411Z" transform="translate(4.665 -9.048)" fill="#201144"/>
      <path id="Trazado_876355" data-name="Trazado 876355" d="M7.577,8.4v2.558L1,7.67,7.577,4.382V6.977A19.245,19.245,0,0,1,26.091,26.184a19.163,19.163,0,0,1-3.023,10.353l-1.2-.768a17.74,17.74,0,0,0,2.8-9.585A17.821,17.821,0,0,0,7.577,8.4ZM6.153,6.686,4.184,7.67l1.968.984Z" transform="translate(18.058 -1.964)" fill="#201144"/>
      <path id="Trazado_876356" data-name="Trazado 876356" d="M30.346,59.037a17.87,17.87,0,0,0,4.793-.652l.382,1.371a19.282,19.282,0,0,1-14.789-1.868l.713-1.232A17.8,17.8,0,0,0,30.346,59.037Z" transform="translate(-5.423 -17.015)" fill="#201144"/>
      <path id="Trazado_876357" data-name="Trazado 876357" d="M9.136,51A2.136,2.136,0,1,1,7,53.136,2.139,2.139,0,0,1,9.136,51Zm0,2.848a.712.712,0,1,0-.712-.712A.712.712,0,0,0,9.136,53.848Z" transform="translate(28.603 -15.386)" fill="#201144"/>
      <path id="Trazado_876358" data-name="Trazado 876358" d="M15.136,55A2.136,2.136,0,1,1,13,57.136,2.139,2.139,0,0,1,15.136,55Zm0,2.848a.712.712,0,1,0-.712-.712A.712.712,0,0,0,15.136,57.848Z" transform="translate(18.331 -16.538)" fill="#201144"/>
    </g>
  </g>
</svg>
