<svg xmlns="http://www.w3.org/2000/svg" xmlns:xlink="http://www.w3.org/1999/xlink" width="295" height="232" viewBox="0 0 295 232">
  <defs>
    <clipPath id="clip-path">
      <rect id="Rectángulo_401797" data-name="Rectángulo 401797" width="138.891" height="114.433" fill="none"/>
    </clipPath>
    <clipPath id="clip-path-2">
      <rect id="Rectángulo_401798" data-name="Rectángulo 401798" width="105.773" height="84.245" fill="none"/>
    </clipPath>
    <clipPath id="clip-path-3">
      <rect id="Rectángulo_401800" data-name="Rectángulo 401800" width="86.619" height="64.709" fill="none"/>
    </clipPath>
  </defs>
  <g id="_114" data-name="114" transform="translate(-220 -546.947)">
    <rect id="Rectángulo_401503" data-name="Rectángulo 401503" width="295" height="232" rx="11" transform="translate(220 546.947)" fill="#b15815"/>
    <g id="Grupo_1100625" data-name="Grupo 1100625" transform="translate(228.609 558.446)">
      <g id="Grupo_1100624" data-name="Grupo 1100624" clip-path="url(#clip-path)">
        <path id="Trazado_876494" data-name="Trazado 876494" d="M138.891,5.928H0V106.381a5.7,5.7,0,0,0,5.7,5.7H133.187a5.7,5.7,0,0,0,5.7-5.7Z" transform="translate(0 2.348)" fill="#fff"/>
        <path id="Trazado_876495" data-name="Trazado 876495" d="M138.856,5.814V17.762H.088V5.814A5.813,5.813,0,0,1,5.9,0H133.042a5.813,5.813,0,0,1,5.814,5.814" transform="translate(0.035)" fill="#3b0e09"/>
        <path id="Trazado_876496" data-name="Trazado 876496" d="M84.1,6.629a3.1,3.1,0,1,1-3.1-3.1,3.1,3.1,0,0,1,3.1,3.1" transform="translate(30.857 1.396)" fill="#ff4231"/>
        <path id="Trazado_876497" data-name="Trazado 876497" d="M91.3,6.629a3.1,3.1,0,1,1-3.1-3.1,3.1,3.1,0,0,1,3.1,3.1" transform="translate(33.711 1.396)" fill="#eaab2c"/>
        <path id="Trazado_876498" data-name="Trazado 876498" d="M98.2,6.629a3.1,3.1,0,1,1-3.1-3.1,3.1,3.1,0,0,1,3.1,3.1" transform="translate(36.443 1.396)" fill="#1b6bfe"/>
        <rect id="Rectángulo_401795" data-name="Rectángulo 401795" width="7.548" height="7.548" transform="translate(88.464 30.715)" fill="#ff4231"/>
        <rect id="Rectángulo_401796" data-name="Rectángulo 401796" width="7.548" height="7.548" transform="translate(88.464 44.162)" fill="#1b6bfe"/>
        <path id="Trazado_876499" data-name="Trazado 876499" d="M99.737,32.812H74.689a2.134,2.134,0,1,0,0,4.25H99.737a2.134,2.134,0,1,0,0-4.25" transform="translate(28.664 12.999)" fill="#ffdecb"/>
        <path id="Trazado_876500" data-name="Trazado 876500" d="M99.737,23.181H74.689a2.134,2.134,0,1,0,0,4.25H99.737a2.134,2.134,0,1,0,0-4.25" transform="translate(28.664 9.183)" fill="#ffdecb"/>
        <path id="Trazado_876501" data-name="Trazado 876501" d="M63.448,64.808h0a2.125,2.125,0,0,0,2.125,2.125h37.688a2.125,2.125,0,1,0,0-4.25H65.573a2.126,2.126,0,0,0-2.125,2.125" transform="translate(25.135 24.832)" fill="#ffdecb"/>
        <path id="Trazado_876502" data-name="Trazado 876502" d="M63.42,58.692h0a2.124,2.124,0,0,0,2.125,2.125h37.688a2.125,2.125,0,1,0,0-4.25H65.545a2.124,2.124,0,0,0-2.125,2.125" transform="translate(25.124 22.409)" fill="#ffdecb"/>
        <path id="Trazado_876503" data-name="Trazado 876503" d="M63.392,52.576h0A2.124,2.124,0,0,0,65.517,54.7H103.2a2.125,2.125,0,1,0,0-4.25H65.517a2.125,2.125,0,0,0-2.125,2.125" transform="translate(25.113 19.986)" fill="#ffdecb"/>
        <path id="Trazado_876504" data-name="Trazado 876504" d="M63.363,46.46h0a2.126,2.126,0,0,0,2.125,2.125h37.688a2.125,2.125,0,1,0,0-4.25H65.488a2.125,2.125,0,0,0-2.125,2.125" transform="translate(25.101 17.563)" fill="#ffdecb"/>
        <path id="Trazado_876505" data-name="Trazado 876505" d="M67.924,53.575A28.1,28.1,0,1,1,13.9,42.715L39.826,53.575,38.5,25.512c.436-.027.884-.035,1.331-.035a28.1,28.1,0,0,1,28.1,28.1" transform="translate(4.645 10.093)" fill="#1b6bfe"/>
        <path id="Trazado_876506" data-name="Trazado 876506" d="M36.058,22.33a28.125,28.125,0,0,0-24.59,17.2L37.39,50.393Z" transform="translate(4.543 8.846)" fill="#ff4231"/>
      </g>
    </g>
    <g id="Grupo_1100627" data-name="Grupo 1100627" transform="translate(308.609 661.324)">
      <g id="Grupo_1100626" data-name="Grupo 1100626" transform="translate(0 0)" clip-path="url(#clip-path-2)">
        <path id="Trazado_876507" data-name="Trazado 876507" d="M31.637,0,5.394.09A5.413,5.413,0,0,0,0,5.522L.245,75.854a8.4,8.4,0,0,0,8.436,8.379l92.023-.317a5.086,5.086,0,0,0,5.069-5.1l-.227-65.506a4.4,4.4,0,0,0-4.419-4.389L47.449,9.1Z" transform="translate(0 0.001)" fill="#f68407"/>
        <path id="Trazado_876508" data-name="Trazado 876508" d="M105.715,58.822l-.157-45.492L.039,13.695.2,59.187a5.086,5.086,0,0,0,5.1,5.069l95.345-.33a5.086,5.086,0,0,0,5.069-5.1" transform="translate(0.058 19.99)" fill="#eaab2c"/>
        <path id="Trazado_876509" data-name="Trazado 876509" d="M2.379,16.488,2.4,21.557l93.458-.322-.018-5.069a8.121,8.121,0,0,0-8.151-8.094l-77.214.267a8.121,8.121,0,0,0-8.094,8.149" transform="translate(3.567 12.105)" fill="#fff"/>
        <path id="Trazado_876510" data-name="Trazado 876510" d="M39.058,12.036l.022,6.346-4.1.012-.022-6.344a2.05,2.05,0,1,1,4.1-.015" transform="translate(52.423 14.987)" fill="#ffdecb"/>
        <path id="Trazado_876511" data-name="Trazado 876511" d="M35.357,12.048l.023,6.346-4.1.012-.022-6.344a2.05,2.05,0,1,1,4.1-.015" transform="translate(46.873 15.005)" fill="#ffdecb"/>
        <path id="Trazado_876512" data-name="Trazado 876512" d="M31.659,12.061l.02,6.346-4.1.012-.022-6.344a2.051,2.051,0,0,1,4.1-.015" transform="translate(41.323 15.024)" fill="#ffdecb"/>
        <path id="Trazado_876513" data-name="Trazado 876513" d="M27.956,12.074l.022,6.346-4.1.013-.022-6.344a2.05,2.05,0,1,1,4.1-.015" transform="translate(35.775 15.044)" fill="#ffdecb"/>
        <path id="Trazado_876514" data-name="Trazado 876514" d="M24.255,12.087l.022,6.346-4.1.012-.02-6.344a2.05,2.05,0,1,1,4.1-.015" transform="translate(30.225 15.063)" fill="#ffdecb"/>
        <path id="Trazado_876515" data-name="Trazado 876515" d="M20.554,12.1l.022,6.346-4.1.012-.022-6.344a2.05,2.05,0,1,1,4.1-.015" transform="translate(24.675 15.083)" fill="#ffdecb"/>
        <path id="Trazado_876516" data-name="Trazado 876516" d="M16.854,12.112l.022,6.346-4.1.012-.022-6.344a2.05,2.05,0,0,1,4.1-.015" transform="translate(19.127 15.101)" fill="#ffdecb"/>
        <path id="Trazado_876517" data-name="Trazado 876517" d="M13.153,12.125l.022,6.346-4.1.012L9.054,12.14a2.05,2.05,0,0,1,4.1-.015" transform="translate(13.577 15.12)" fill="#ffdecb"/>
        <path id="Trazado_876518" data-name="Trazado 876518" d="M9.452,12.138l.022,6.346-4.1.012-.022-6.344a2.05,2.05,0,1,1,4.1-.015" transform="translate(8.027 15.14)" fill="#ffdecb"/>
      </g>
    </g>
    <g id="Grupo_1100630" data-name="Grupo 1100630" transform="translate(394.609 589.736)">
      <rect id="Rectángulo_401799" data-name="Rectángulo 401799" width="74.038" height="51.144" transform="translate(0 13.566) rotate(-0.083)" fill="#e59f3f"/>
      <path id="Trazado_876519" data-name="Trazado 876519" d="M37.068,40.082,0,7.213l.006,3.278L37.07,43.246,74.042,10.384,74.037,7.1Z" transform="translate(0.001 6.356)" fill="#b56d25"/>
      <path id="Trazado_876520" data-name="Trazado 876520" d="M23.324,21.944,51.1,46.579l2.145,0,0-1.3L24.918,20.15Z" transform="translate(20.865 18.025)" fill="#b56d25"/>
      <path id="Trazado_876521" data-name="Trazado 876521" d="M.038,45.542l0,1.131,2.34,0L30.086,21.953l-1.6-1.79Z" transform="translate(0.034 18.036)" fill="#b56d25"/>
      <path id="Trazado_876522" data-name="Trazado 876522" d="M0,7.212,37.068,40.082,74.04,7.1Z" transform="translate(0.001 6.354)" fill="#e59f3f"/>
      <g id="Grupo_1100629" data-name="Grupo 1100629" transform="translate(0 0)">
        <g id="Grupo_1100628" data-name="Grupo 1100628" clip-path="url(#clip-path-3)">
          <path id="Trazado_876523" data-name="Trazado 876523" d="M60.894,16.07A16.069,16.069,0,1,1,44.825,0a16.07,16.07,0,0,1,16.07,16.07" transform="translate(25.725 -0.001)" fill="#539380"/>
          <path id="Trazado_876524" data-name="Trazado 876524" d="M38.1,19.721h0a1.565,1.565,0,0,1-1.1-.457l-3.937-3.939a1.558,1.558,0,0,1,2.2-2.2L38.1,15.958,49.147,4.907a1.559,1.559,0,1,1,2.2,2.205L39.2,19.264a1.565,1.565,0,0,1-1.1.457" transform="translate(29.163 3.981)" fill="#fff"/>
        </g>
      </g>
    </g>
    <g id="Grupo_1100632" data-name="Grupo 1100632" transform="translate(277.836 722.893)">
      <g id="Grupo_1100633" data-name="Grupo 1100633" transform="translate(0 0)">
        <path id="Trazado_876525" data-name="Trazado 876525" d="M39.549,44.005H4.126A4.127,4.127,0,0,1,0,39.877V4.456A4.127,4.127,0,0,1,4.126.328H39.549a4.129,4.129,0,0,1,4.128,4.128V39.877a4.129,4.129,0,0,1-4.128,4.128" transform="translate(0 0.452)" fill="#dfbba0"/>
        <path id="Trazado_876526" data-name="Trazado 876526" d="M28.775,8.913c-.071-.3-.143-.6-.217-.9a6.744,6.744,0,0,0-1.485-2.822A6.916,6.916,0,0,0,25.3,3.7a2.029,2.029,0,0,0-2.653.519q-1.824,2.2-3.631,4.425a2.1,2.1,0,0,0,.3,2.967c.654.578,1.347,1.118,2.022,1.673a2.76,2.76,0,0,0,.264.174,19.467,19.467,0,0,1-8.284,10.114c-.476-.4-.975-.814-1.475-1.228-.257-.212-.509-.426-.773-.628a2.082,2.082,0,0,0-2.527-.128,3.246,3.246,0,0,0-.676.664c-1.1,1.328-2.184,2.667-3.286,3.995a2.818,2.818,0,0,0-.65,1.423c.019.2.04.395.059.592a4.508,4.508,0,0,0,.585.987,7.56,7.56,0,0,0,2.2,1.594,6.182,6.182,0,0,0,3.1.626A11.911,11.911,0,0,0,12,31.066a16.982,16.982,0,0,0,4.925-2.374,25.891,25.891,0,0,0,4.149-3.514,42.121,42.121,0,0,0,4.589-5.734,20.856,20.856,0,0,0,2.622-5.137,11.714,11.714,0,0,0,.576-2.86c.026-.393.033-.788.05-1.182-.043-.45-.088-.9-.133-1.351" transform="translate(5.419 4.715)" fill="#fff"/>
        <path id="Trazado_876527" data-name="Trazado 876527" d="M67.225,44.339H30.257a3.685,3.685,0,0,1-3.685-3.685V3.685A3.687,3.687,0,0,1,30.257,0H67.225a3.685,3.685,0,0,1,3.685,3.685V40.653a3.684,3.684,0,0,1-3.685,3.685" transform="translate(36.648 0)" fill="#22cac5"/>
        <path id="Trazado_876528" data-name="Trazado 876528" d="M58.271,16.232c0,5.529-3.1,8.394-6.8,8.394a4.664,4.664,0,0,1-4.573-2.52,4.5,4.5,0,0,1-4.4,2.52c-3.126,0-6.136-2.75-6.136-7.207s2.924-7.178,6.136-7.178a4.582,4.582,0,0,1,3.562,1.418V10.5h5.555v8.28c0,1.216.493,1.589,1.13,1.589.811,0,1.475-.811,1.475-4.052,0-5.239-3.907-8.943-9.871-8.943-5.931,0-9.926,4.168-9.926,9.669,0,5.672,3.909,9.724,9.812,9.724a13.972,13.972,0,0,0,5.848-1.273L51.3,29.053a17.622,17.622,0,0,1-7.064,1.389c-8.713,0-14.3-5.817-14.3-13.4C29.935,9.575,35.521,3.7,44.348,3.7c8.337,0,13.923,5.586,13.923,12.534m-12.1,1.187c0-1.737-.9-2.634-2.084-2.634s-2.053.9-2.053,2.634c0,1.765.866,2.66,2.053,2.66s2.084-.895,2.084-2.66" transform="translate(41.286 5.1)" fill="#fff"/>
        <path id="Trazado_876529" data-name="Trazado 876529" d="M92.343,44.339H55.375a3.685,3.685,0,0,1-3.685-3.685V3.685A3.687,3.687,0,0,1,55.375,0H92.343a3.685,3.685,0,0,1,3.685,3.685V40.653a3.684,3.684,0,0,1-3.685,3.685" transform="translate(71.29 0)" fill="#201144"/>
        <path id="Trazado_876530" data-name="Trazado 876530" d="M68.533,27.3l-.026,3.157L64.5,30.421l.024-3.014a16.734,16.734,0,0,1-7.292-2.051l2.2-4.873a13.643,13.643,0,0,0,6.555,1.872c1.906.017,2.591-.376,2.6-1.059.019-2.5-11-.573-10.942-7.994.026-3.214,2.382-5.9,7.05-6.512l.024-3.1,4.011.033L68.7,6.767a14.86,14.86,0,0,1,5.76,1.7L72.4,13.308a12.322,12.322,0,0,0-5.534-1.523c-1.963-.017-2.593.547-2.6,1.23-.019,2.389,11,.488,10.942,7.825-.024,3.069-2.265,5.724-6.678,6.457" transform="translate(78.929 5.091)" fill="#fff"/>
      </g>
    </g>
  </g>
</svg>
