<svg xmlns="http://www.w3.org/2000/svg" xmlns:xlink="http://www.w3.org/1999/xlink" width="399.594" height="405.092" viewBox="0 0 399.594 405.092">
  <defs>
    <clipPath id="clip-path">
      <rect id="Rectángulo_401794" data-name="Rectángulo 401794" width="157.16" height="129.485" fill="none"/>
    </clipPath>
    <clipPath id="clip-path-2">
      <rect id="Rectángulo_401791" data-name="Rectángulo 401791" width="346.597" height="391.277" fill="none"/>
    </clipPath>
  </defs>
  <g id="_115" data-name="115" transform="translate(-1019.609 -399.084)">
    <g id="Grupo_1100143" data-name="Grupo 1100143" transform="translate(1019.609 399.084)">
      <g id="Grupo_1099912" data-name="Grupo 1099912">
        <rect id="Rectángulo_401339" data-name="Rectángulo 401339" width="399.594" height="390.621" rx="16" fill="#22cac5"/>
        <path id="Trazado_873608" data-name="Trazado 873608" d="M29.253,0A33.754,33.754,0,0,0,62.969,33.715,33.754,33.754,0,0,0,96.685,0h29.253a63.04,63.04,0,0,1-62.97,62.969A63.04,63.04,0,0,1,0,0Z" transform="translate(263.128)" fill="#fdb641"/>
        <path id="Trazado_873609" data-name="Trazado 873609" d="M17.251,0h0V8.014a9.237,9.237,0,1,0,9.237,9.237H34.5A17.251,17.251,0,1,1,17.251,0" transform="translate(22.509 104.094) rotate(-90)" fill="#201144"/>
        <g id="Grupo_1099864" data-name="Grupo 1099864" transform="translate(12.296 340.621)">
          <path id="Trazado_873607" data-name="Trazado 873607" d="M29.951,64.471a34.52,34.52,0,0,1,69.041,0h29.951A64.472,64.472,0,0,0,0,64.471Z" fill="#fdb641"/>
          <path id="Trazado_873610" data-name="Trazado 873610" d="M30.657,0A30.692,30.692,0,0,1,0,30.657v26.6A57.322,57.322,0,0,0,57.257,0Z" transform="translate(60.894 6.787)" fill="#201144"/>
        </g>
        <path id="Trazado_873611" data-name="Trazado 873611" d="M34.305,64.07A34.344,34.344,0,0,0,0,29.765V0A64.143,64.143,0,0,1,64.07,64.07Z" transform="translate(270.82 336.76)" fill="#fff"/>
      </g>
    </g>
    <g id="Grupo_1100622" data-name="Grupo 1100622" transform="translate(1036.42 414.461)">
      <g id="Grupo_1100621" data-name="Grupo 1100621" clip-path="url(#clip-path)">
        <path id="Trazado_876481" data-name="Trazado 876481" d="M157.16,5.928H0V119.594a6.454,6.454,0,0,0,6.453,6.453H150.706a6.454,6.454,0,0,0,6.453-6.453Z" transform="translate(0 3.437)" fill="#fff"/>
        <path id="Trazado_876482" data-name="Trazado 876482" d="M157.109,6.578V20.1H.088V6.578A6.578,6.578,0,0,1,6.666,0H150.531a6.578,6.578,0,0,1,6.578,6.578" transform="translate(0.051)" fill="#3b0e09"/>
        <path id="Trazado_876483" data-name="Trazado 876483" d="M84.913,7.037A3.511,3.511,0,1,1,81.4,3.525a3.511,3.511,0,0,1,3.512,3.512" transform="translate(45.161 2.044)" fill="#ff4231"/>
        <path id="Trazado_876484" data-name="Trazado 876484" d="M92.118,7.037a3.511,3.511,0,1,1-3.512-3.512,3.511,3.511,0,0,1,3.512,3.512" transform="translate(49.338 2.044)" fill="#eaab2c"/>
        <path id="Trazado_876485" data-name="Trazado 876485" d="M99.015,7.037A3.511,3.511,0,1,1,95.5,3.525a3.511,3.511,0,0,1,3.512,3.512" transform="translate(53.337 2.044)" fill="#1b6bfe"/>
        <rect id="Rectángulo_401792" data-name="Rectángulo 401792" width="8.54" height="8.54" transform="translate(100.101 34.756)" fill="#ff4231"/>
        <rect id="Rectángulo_401793" data-name="Rectángulo 401793" width="8.54" height="8.54" transform="translate(100.101 49.971)" fill="#1b6bfe"/>
        <path id="Trazado_876486" data-name="Trazado 876486" d="M103.338,32.812H75a2.415,2.415,0,1,0,0,4.809h28.343a2.415,2.415,0,1,0,0-4.809" transform="translate(41.952 19.024)" fill="#ffdecb"/>
        <path id="Trazado_876487" data-name="Trazado 876487" d="M103.338,23.181H75a2.415,2.415,0,1,0,0,4.809h28.343a2.415,2.415,0,1,0,0-4.809" transform="translate(41.952 13.44)" fill="#ffdecb"/>
        <path id="Trazado_876488" data-name="Trazado 876488" d="M63.448,65.087h0a2.4,2.4,0,0,0,2.4,2.4H108.5a2.4,2.4,0,1,0,0-4.809H65.852a2.406,2.406,0,0,0-2.4,2.4" transform="translate(36.787 36.343)" fill="#ffdecb"/>
        <path id="Trazado_876489" data-name="Trazado 876489" d="M63.42,58.971h0a2.4,2.4,0,0,0,2.4,2.4H108.47a2.4,2.4,0,1,0,0-4.809H65.824a2.4,2.4,0,0,0-2.4,2.4" transform="translate(36.771 32.797)" fill="#ffdecb"/>
        <path id="Trazado_876490" data-name="Trazado 876490" d="M63.392,52.855h0a2.4,2.4,0,0,0,2.4,2.4h42.645a2.4,2.4,0,1,0,0-4.809H65.8a2.4,2.4,0,0,0-2.4,2.4" transform="translate(36.755 29.251)" fill="#ffdecb"/>
        <path id="Trazado_876491" data-name="Trazado 876491" d="M63.363,46.739h0a2.406,2.406,0,0,0,2.4,2.4h42.645a2.4,2.4,0,1,0,0-4.809H65.767a2.4,2.4,0,0,0-2.4,2.4" transform="translate(36.738 25.705)" fill="#ffdecb"/>
        <path id="Trazado_876492" data-name="Trazado 876492" d="M75.316,57.27A31.8,31.8,0,1,1,14.189,44.983L43.523,57.27,42.017,25.516c.493-.03,1-.039,1.506-.039A31.8,31.8,0,0,1,75.316,57.27" transform="translate(6.799 14.772)" fill="#1b6bfe"/>
        <path id="Trazado_876493" data-name="Trazado 876493" d="M39.293,22.33A31.824,31.824,0,0,0,11.468,41.8L40.8,54.084Z" transform="translate(6.649 12.947)" fill="#ff4231"/>
      </g>
    </g>
    <g id="Grupo_1100620" data-name="Grupo 1100620" transform="translate(1046.609 412.898)">
      <g id="Grupo_1100619" data-name="Grupo 1100619" clip-path="url(#clip-path-2)">
        <path id="Trazado_876388" data-name="Trazado 876388" d="M192.475,164.008c-32.844-1.585-62.254-12.042-81.277-8.431s-18.71-45.538.37-60.171c14.2-10.887-6.74-32.594-6.571-50.126-1.267-2.519-4.521-20.146,8.811-33.2,14.5-14.2,29.375-14.775,44.342-7.415,9.831,3.521,19.377,13.065,22.307,37.184,5.05,41.541,21.808,35.194,47.171,69.495,14.824,20.047-2.312,54.257-35.153,52.669" transform="translate(63.924 0)" fill="#1b3431"/>
        <path id="Trazado_876389" data-name="Trazado 876389" d="M122.833,67.427l-4.687,6.567-4.615,6.554q-4.595,6.567-9.121,13.192c-6.033,8.844-11.98,17.763-17.768,26.95-2.891,4.6-5.741,9.262-8.522,14.144-1.39,2.451-2.761,4.94-4.111,7.614-.677,1.33-1.347,2.728-2.013,4.211A53.515,53.515,0,0,0,70,151.723l-.061.181-.063.2-.126.411-.244.821-.245.969c-.078.32-.164.677-.206.891-.1.491-.2,1.02-.3,1.6s-.186,1.214-.257,1.98a22.265,22.265,0,0,0-.09,2.9l.027.509.018.259.027.3c.018.2.036.383.065.6s.065.464.1.695a16.442,16.442,0,0,0,1.172,3.939,15.477,15.477,0,0,0,.7,1.4q.219.383.454.755c.073.116.171.264.27.4l.3.421c.209.282.411.541.648.821.255.3.522.59.8.871.138.139.279.277.421.411s.317.287.478.426c.328.28.668.549,1.017.8a15.4,15.4,0,0,0,2.308,1.371c.4.192.814.37,1.231.527s.8.28,1.212.4c.2.058.4.111.609.161s.408.095.587.129q.557.109,1.121.179c.181.022.393.046.546.058l.494.033q.5.027.99.025c.3,0,.567-.015.852-.033l.421-.032.4-.041c.235-.028.471-.06.7-.1s.488-.085.665-.123c.194-.04.39-.085.584-.131s.4-.1.546-.144c.315-.09.662-.2.942-.3a17.406,17.406,0,0,0,2.551-1.123c.337-.181.6-.332.872-.5l.363-.227.34-.219.317-.214.284-.2c.2-.138.352-.255.524-.383.655-.494,1.161-.924,1.624-1.33.91-.806,1.615-1.507,2.265-2.179,1.284-1.337,2.33-2.549,3.33-3.745,1.978-2.38,3.716-4.663,5.406-6.959.842-1.144,1.665-2.289,2.478-3.438l1.212-1.731,1.239-1.813a14.437,14.437,0,0,0-23.756-16.411l-.161.232L87,137.491,85.922,139c-.721,1-1.449,2-2.181,2.983-1.459,1.955-2.947,3.867-4.363,5.542-.7.829-1.4,1.609-1.952,2.174-.27.277-.512.5-.594.567-.035.03-.036.025.09-.071l.124-.093.191-.131.131-.086.154-.095c.133-.081.25-.148.439-.252a11.355,11.355,0,0,1,1.648-.718c.2-.07.469-.156.7-.221l.426-.113q.231-.057.463-.1c.138-.027.357-.07.542-.1s.388-.058.584-.08l.335-.036.358-.028c.244-.015.471-.023.73-.025.287,0,.577,0,.866.018l.431.032.486.051c.333.04.668.095,1,.161l.526.114c.184.045.367.093.549.144.373.106.708.219,1.093.362s.753.3,1.118.478a13.754,13.754,0,0,1,2.1,1.247c.317.226.624.468.92.723.144.126.3.264.43.386s.255.242.38.368c.247.249.486.511.713.779.211.249.39.473.574.721.09.123.177.245.264.371l.235.353q.2.318.391.647c.265.479.42.791.59,1.177a12.368,12.368,0,0,1,.9,2.985c.027.149.048.3.066.449l.04.357.025.307.013.26a7.538,7.538,0,0,1-.013.922c-.01.108-.01.088,0,.015s.035-.192.07-.348c.022-.111.023-.075.023-.075l0,.007c.015-.043.03-.085.041-.128l.018-.065.008-.033.02-.053c.174-.521.516-1.386.935-2.307s.892-1.915,1.418-2.944c1.038-2.045,2.222-4.189,3.446-6.335,2.463-4.305,5.141-8.668,7.887-13.017,5.507-8.7,11.317-17.377,17.224-26q4.435-6.465,8.957-12.891l4.534-6.41,4.544-6.338.1-.136A14.655,14.655,0,1,0,122.851,67.4Z" transform="translate(45.032 40.348)" fill="#f49d8b"/>
        <path id="Trazado_876390" data-name="Trazado 876390" d="M101.946,208.053c-.585,3.64-.559,6.431.527,8.061,1.564,2.345,14.2,4.793,30.141,6.338,1,.1,2.007.192,3.023.282,3.363.292,6.842.546,10.377.75.823.05,1.648.093,2.474.134,26.922,1.368,55.944-.209,57.667-8.514,3.325-16.015-6.2-40.219-4-65.178.884-10.073,9.3-29.911,10.071-42.388,1.176-19,1.507-36.8-1.169-41.3-1.879-3.151-10-5.92-18.755-8.065-2.706-.665-5.478-1.272-8.141-1.811-9.086-1.844-16.944-2.9-16.944-2.9s-23.367,1.217-39.256,5.269a55.629,55.629,0,0,0-7.766,2.512c-.333.141-.652.285-.964.43-1.091.511-2.108.99-3.058,1.449-15.128,7.308-13.056,8.69-11.9,17.667,1.706,13.207,3.1,12.41-.395,23.9-.282.93-.6,1.94-.947,3.045-.862,2.725-1.935,6.028-3.255,10.114a37.285,37.285,0,0,0-1.869,8.789q-.05.709-.055,1.368c-.085,13.7,13.831,12.581,13.831,29.863,0,10.569-2.413,21.37-4.867,30.838-.119.453-.235.9-.353,1.347-1.421,5.4-2.818,10.332-3.736,14.486-.274,1.245-.507,2.425-.682,3.521" transform="translate(64.359 35.197)" fill="#5a918e"/>
        <path id="Trazado_876391" data-name="Trazado 876391" d="M146.176,78.373c.226,5.124,5.5,7.3,9.594,8.221q-.348-.784-.657-1.6c-3.494-.932-7.395-2.837-7.566-6.687-.176-3.939,2.58-6.133,5.093-7.305,0-.491.018-.983.041-1.478-3,1.279-6.725,3.874-6.506,8.844" transform="translate(96.234 45.777)" fill="#285b5c"/>
        <path id="Trazado_876392" data-name="Trazado 876392" d="M144.445,72.938a13.376,13.376,0,0,0,8.08-2.706,6.175,6.175,0,0,0,2.619-4.473c.527-5.136-4.687-11.028-4.909-11.275a.685.685,0,1,0-1.022.914c.05.056,5.033,5.692,4.566,10.224a4.79,4.79,0,0,1-2.068,3.506,12.444,12.444,0,0,1-12.546,1.312.686.686,0,0,0-.619,1.224,14.069,14.069,0,0,0,5.9,1.275" transform="translate(90.969 35.72)" fill="#285b5c"/>
        <path id="Trazado_876393" data-name="Trazado 876393" d="M123.29,76.149a38.389,38.389,0,0,0,4.745-.29.686.686,0,0,0-.187-1.358c-.1.013-9.692,1.277-13.423-1.755a3.521,3.521,0,0,1-1.381-2.6c-.468-6.532,8.2-11.459,8.282-11.509a.685.685,0,1,0-.668-1.2c-.39.217-9.509,5.411-8.983,12.8a4.9,4.9,0,0,0,1.886,3.567c2.35,1.907,6.479,2.338,9.731,2.338" transform="translate(73.509 37.761)" fill="#285b5c"/>
        <path id="Trazado_876394" data-name="Trazado 876394" d="M160.048,179.711a.59.59,0,0,0,.076,0,.684.684,0,0,0,.605-.756c-.033-.3-3.307-29.985-3.6-46.818-.292-16.773,7.435-47.038,7.512-47.342a.686.686,0,1,0-1.328-.342c-.078.305-7.851,30.751-7.554,47.707.294,16.9,3.575,46.647,3.609,46.946a.685.685,0,0,0,.68.61" transform="translate(102.544 55.26)" fill="#285b5c"/>
        <path id="Trazado_876395" data-name="Trazado 876395" d="M123.833,146.923c13.561,0,25.652-5.211,34.29-10.362A99.526,99.526,0,0,0,179,119.914a.686.686,0,1,0-1.02-.917A98.01,98.01,0,0,1,157.389,135.4c-11.441,6.814-29.048,13.74-47.965,8.032a.686.686,0,0,0-.4,1.313,51.059,51.059,0,0,0,14.806,2.174" transform="translate(71.461 78.196)" fill="#285b5c"/>
        <path id="Trazado_876396" data-name="Trazado 876396" d="M127.191,147.147a51.3,51.3,0,0,0,15.62-2.653,66.96,66.96,0,0,0,14.214-6.532.686.686,0,1,0-.748-1.149c-.229.148-23.1,14.775-42.244,6.345a.686.686,0,0,0-.552,1.255,33.83,33.83,0,0,0,13.71,2.735" transform="translate(74.444 90.002)" fill="#285b5c"/>
        <path id="Trazado_876397" data-name="Trazado 876397" d="M128.94,88.5a40.167,40.167,0,0,0,19.416-5.383,57.484,57.484,0,0,0,15.093-12.234.686.686,0,0,0-1.06-.872,57.123,57.123,0,0,1-14.738,11.929c-11.947,6.645-23.695,6.98-34.919.99a.685.685,0,0,0-.645,1.209A35.38,35.38,0,0,0,128.94,88.5" transform="translate(73.557 45.927)" fill="#285b5c"/>
        <path id="Trazado_876398" data-name="Trazado 876398" d="M177.779,105.667c1.176-19,1.507-36.8-1.169-41.3-1.877-3.151-10-5.92-18.753-8.066-19.106,26.31.584,62.418,19.922,49.365" transform="translate(98.802 37.068)" fill="#f49d8b"/>
        <path id="Trazado_876399" data-name="Trazado 876399" d="M101.608,100.847c10.3-11.541,12.106-31.241,12.292-41.562-15.126,7.308-13.056,8.69-11.9,17.667,1.706,13.207,3.1,12.41-.395,23.9" transform="translate(66.63 39.032)" fill="#f49d8b"/>
        <path id="Trazado_876400" data-name="Trazado 876400" d="M115.968,59.658c1.751,9.381,3.282,27,18.051,27,14.378,0,33.262-23.342,38.148-29.363a121.713,121.713,0,0,1-17.745-5.244s-22.567,3.557-38.455,7.609" transform="translate(76.351 34.268)" fill="#f49d8b"/>
        <path id="Trazado_876401" data-name="Trazado 876401" d="M111.848,76.269c1.844,1.443,3.753,3.459,4.209,5.844.408,2.119-.411,4.279-2.43,6.421s-3.829,3.833-5.287,5.2c-4.836,4.536-7.043,6.605-3.756,12.571a3.385,3.385,0,0,1,.119,3.592c-1.032,1.68-3.66,2.735-6.546,2.647-.108,0-.227-.01-.35-.018-.035.474-.051.93-.055,1.368.119.007.239.015.36.017.139.008.28.008.418.008,3.242,0,6.095-1.272,7.342-3.305a4.69,4.69,0,0,0-.085-4.974c-2.774-5.028-1.323-6.39,3.489-10.9,1.474-1.378,3.3-3.1,5.343-5.262,2.342-2.483,3.28-5.045,2.784-7.624-.574-2.975-2.952-5.362-5.1-6.965Z" transform="translate(64.359 49.302)" fill="#285b5c"/>
        <path id="Trazado_876402" data-name="Trazado 876402" d="M162.8,106.742a18.293,18.293,0,0,1-9.793-2.907c-2.718-1.546-5.065-2.879-10.418-1.9-.206.038-.41.071-.612.1a10.263,10.263,0,0,1-11.93-8.6c-.837-4.7,1.3-10.385,7.96-11.763,3.461-.715,6.773.28,9.849,2.96,7.512,6.549,10.594,6.075,14.494,5.474a23.757,23.757,0,0,1,4.677-.383c3.07.1,5.141,3.063,5.037,7.2-.123,4.907-3.282,9.824-9.088,9.823H162.8m-.24-15.284c-4.085.629-7.61,1.171-15.605-5.8-2.733-2.383-5.65-3.275-8.668-2.65-5.8,1.2-7.637,5.975-6.887,10.177.756,4.244,4.325,8.4,10.375,7.488.189-.028.378-.06.569-.095,5.844-1.065,8.514.453,11.343,2.06a16.9,16.9,0,0,0,9.139,2.728c.048,0,.1,0,.146,0,4.93,0,7.617-4.249,7.723-8.488.071-2.819-1.05-5.7-3.713-5.794-.181-.007-.36-.008-.536-.008a24.51,24.51,0,0,0-3.886.376" transform="translate(85.507 53.622)" fill="#285b5c"/>
        <path id="Trazado_876403" data-name="Trazado 876403" d="M106.49,122.544c-3.634-3.566-5.229-7.554-4.612-11.532a.688.688,0,0,1,.451-.544c.065-.022,6.491-2.367,7.627-11.775.728-6.04,5.728-9.849,10.36-10.947,4.829-1.144,9.192.4,11.665,4.138,5.287,7.98,7.151,9.124,22.179,13.6,6.6,1.969,10.479,6.978,10.119,13.075-.367,6.231-5.551,13.357-16.31,15.229a42.663,42.663,0,0,1-7.28.592c-12.594,0-26.984-4.756-34.2-11.839m14.141-33.463c-4.168.987-8.663,4.391-9.313,9.776-1.083,8.969-6.58,12.045-8.136,12.743-.4,3.441,1.036,6.793,4.269,9.965,8.245,8.093,27.07,13.174,40.285,10.874,10.018-1.743,14.841-8.267,15.176-13.959.318-5.426-3.184-9.9-9.143-11.678-14.763-4.4-17.259-5.6-22.93-14.161a8.7,8.7,0,0,0-7.483-3.891,11.857,11.857,0,0,0-2.725.33" transform="translate(66.99 57.527)" fill="#285b5c"/>
        <path id="Trazado_876404" data-name="Trazado 876404" d="M111.652,124.244a.689.689,0,0,1,.431-.668c.867-.345,21.31-8.436,27.892-6.136a.689.689,0,0,1,.458.6c.036.484.816,11.925-4.756,18.124a11.477,11.477,0,0,1-8.494,3.821c-.214.007-.423.01-.63.01-14.032,0-14.894-15.589-14.9-15.748m1.41.423a20.712,20.712,0,0,0,2,6.949c2.443,4.823,6.5,7.177,12.076,7a10.153,10.153,0,0,0,7.517-3.363c4.575-5.09,4.516-14.448,4.433-16.642-6.015-1.5-22.977,4.882-26.027,6.061" transform="translate(73.51 77.05)" fill="#285b5c"/>
        <path id="Trazado_876405" data-name="Trazado 876405" d="M146.217,160.519c-4.2-.3-6.882-2.128-7.347-5.028-.567-3.534,2.367-7.365,7.136-9.317,4.508-1.842,4.529-5.26,4.552-8.879.017-2.607.035-5.3,1.925-7.2a8.667,8.667,0,0,1,10.025-1.192c2.584,1.532,3.511,4.3,2.544,7.584-2.086,7.093,2.648,9.6,2.851,9.707a.686.686,0,0,1,.214,1.056c-.473.556-11.423,13.292-21.146,13.292-.252,0-.5-.008-.755-.027M163.738,136.1c.788-2.677.1-4.814-1.929-6.02a7.225,7.225,0,0,0-8.355.985c-1.494,1.494-1.509,3.8-1.524,6.236-.023,3.726-.051,7.949-5.4,10.139-4.657,1.9-6.695,5.38-6.3,7.829.357,2.217,2.576,3.632,6.09,3.877,8.1.57,17.909-9.635,20.244-12.206-1.516-1.139-4.708-4.416-2.819-10.841" transform="translate(91.384 84.162)" fill="#285b5c"/>
        <path id="Trazado_876406" data-name="Trazado 876406" d="M100.281,154.362a14.073,14.073,0,0,0,2.036,4.315,6.155,6.155,0,0,0,4.813,2.887,4.5,4.5,0,0,0,.7-.055c2.683-.43,5-3.277,6.539-8.015,1.924-5.95,1.68-10.634-.723-13.911-2.416-3.3-6.362-4.28-8.59-4.575-.119.453-.235.9-.353,1.347,1.962.24,5.682,1.09,7.844,4.045,2.124,2.9,2.3,7.168.517,12.67-1.368,4.226-3.305,6.741-5.451,7.085-1.456.234-2.94-.579-4.184-2.285a14.882,14.882,0,0,1-2.463-7.028c-.274,1.245-.507,2.425-.682,3.521" transform="translate(66.023 88.888)" fill="#285b5c"/>
        <path id="Trazado_876407" data-name="Trazado 876407" d="M117.337,158.4a.257.257,0,0,0,.035.041,22.314,22.314,0,0,0,3.441,3.081c.993.1,2,.192,3.023.28a22.155,22.155,0,0,1-5.413-4.239c-.187-.267-2.118-3.116-1.051-5.65.91-2.172,3.743-3.612,8.415-4.277,12.41-1.77,15.357,5.816,15.806,7.28-2.207,3.794-4.678,6.348-7.38,7.637q1.234.072,2.474.134a22.188,22.188,0,0,0,6.236-7.337.681.681,0,0,0,.075-.486c-.023-.106-2.506-10.7-17.406-8.587-5.186.738-8.376,2.458-9.488,5.111-1.413,3.373,1.124,6.862,1.234,7.01" transform="translate(76.16 96.125)" fill="#285b5c"/>
        <path id="Trazado_876408" data-name="Trazado 876408" d="M97.072,179.889c-.57-15.488-3.186-30.761-5.348-46.085,10.322,4.483,20.489,8.557,29.466,13.982h.008c5.549,3.353,10.539,6.308,14.2,8.362,5.579,3.131,12.7,3.439,19.68,2.478,13.6-1.881,26.649-8.582,26.649-8.582s43.8-19.853,52.012-19.189c6.386.511-27.974,36.388-56.395,51.077-2.842,2.04-7.338,4.163-14.066,6.3-27.811,8.849-53.937.864-66.1-4.141q-.022-2.1-.1-4.2" transform="translate(60.39 86.141)" fill="#d76751"/>
        <path id="Trazado_876409" data-name="Trazado 876409" d="M57.081,202.554l-3.713,23.488-21.984,1.531,2.292-28.864Z" transform="translate(20.663 130.827)" fill="#f49d8b"/>
        <path id="Trazado_876410" data-name="Trazado 876410" d="M.778,251.286l78.624-.07a11.02,11.02,0,0,0,1.032-4.368c.484-6.65-1.645-17.262-2.69-23.954-.126-.781-.235-1.512-.32-2.172a22.857,22.857,0,0,1-.235-2.731c0-5.463-4.839-4.522-4.839-4.522-7.949,7.809-16.969-3.884-22.226-.041,0,0-2.264,1.627-8.5,7.249S24.773,230.013,15.738,233.8C4.075,238.689.772,243.565.128,246.92a6.141,6.141,0,0,0,.65,4.366" transform="translate(0 139.991)" fill="#f5bf69"/>
        <path id="Trazado_876411" data-name="Trazado 876411" d="M.778,237.7l78.624-.07a11.02,11.02,0,0,0,1.032-4.368l-80.306.071a6.141,6.141,0,0,0,.65,4.367" transform="translate(0 153.577)" fill="#ed9033"/>
        <path id="Trazado_876412" data-name="Trazado 876412" d="M32.431,216.137s-1.406-3.431-4.526-2.337-2.8,6.244-2.8,6.244,1.876,4.678,7.328-3.907" transform="translate(16.521 140.621)" fill="#fff"/>
        <path id="Trazado_876413" data-name="Trazado 876413" d="M32.465,229.928a1.3,1.3,0,0,0,1.3-1.3,16.539,16.539,0,0,0-5.1-12.207,1.3,1.3,0,0,0-1.677,1.975,13.928,13.928,0,0,1,4.187,10.234,1.3,1.3,0,0,0,1.3,1.3" transform="translate(17.464 142.288)" fill="#fff"/>
        <path id="Trazado_876414" data-name="Trazado 876414" d="M20.764,220.112a1.292,1.292,0,0,0,.859-.327c1.645-1.461,6.476-1.74,9.133-1.569a1.3,1.3,0,0,0,.164-2.587c-.814-.051-8.038-.428-11.018,2.219a1.3,1.3,0,0,0,.862,2.264" transform="translate(12.817 141.936)" fill="#fff"/>
        <path id="Trazado_876415" data-name="Trazado 876415" d="M27.382,218.777l.663.665-.073-.01-.018.08-.536,2.672a3,3,0,0,0,.3.051,18.839,18.839,0,0,0,2.493.133c.164,0,.34,0,.519,0a49.2,49.2,0,0,0,5.746-.484,12.663,12.663,0,0,0,6.189-2.406,5.787,5.787,0,0,0,1.9-2.546c.03-.08.055-.164.076-.245a4.006,4.006,0,0,0-1.023-3.955A5.506,5.506,0,0,0,39.548,211a.714.714,0,0,0-.1,0,11.268,11.268,0,0,0-4.69,1.242,28.307,28.307,0,0,0-5.285,3.423c-.139.109-.274.216-.4.325-.662.542-1.217,1.038-1.627,1.415-.365.337-.619.582-.731.7Zm2.816.784c-.358,0-.67-.007-.937-.018.549-.509,1.265-1.128,2.076-1.765v0a30.892,30.892,0,0,1,3.289-2.275,14.479,14.479,0,0,1,2.988-1.375,6.189,6.189,0,0,1,1.831-.317h.065a2.725,2.725,0,0,1,2.07.859,1.233,1.233,0,0,1,.395,1.086,1.632,1.632,0,0,1-.065.245c-.42,1.2-2.385,2.629-5.816,3.1-.575.076-1.116.144-1.622.2a40.576,40.576,0,0,1-4.274.264" transform="translate(17.585 138.916)" fill="#fff"/>
        <path id="Trazado_876416" data-name="Trazado 876416" d="M28.43,222.257l1.2-2.539c-2.587-1.221-5.061-4.443-4.9-6.385.038-.471.239-1.056,1.456-1.406a1.556,1.556,0,0,1,1.536.172c1.355,1.046,1.783,4.592,1.735,6.58l2.808.071c.018-.67.088-6.62-2.823-8.872a4.337,4.337,0,0,0-4.03-.652,4.309,4.309,0,0,0-3.481,3.881c-.279,3.451,3.2,7.592,6.5,9.149" transform="translate(14.426 137.608)" fill="#fff"/>
        <path id="Trazado_876417" data-name="Trazado 876417" d="M44.552,248.01l2.335,0a17.255,17.255,0,0,1-4.237-12.585c.373-7.77,5.03-13.012,8.265-15.743-.128-.781-.235-1.511-.32-2.171-3.489,2.672-9.367,8.517-9.818,17.821a19.076,19.076,0,0,0,3.774,12.68" transform="translate(26.83 143.204)" fill="#ed9033"/>
        <path id="Trazado_876418" data-name="Trazado 876418" d="M28.37,221.788a1.3,1.3,0,0,0,.308-2.554l-4.912-1.214a1.295,1.295,0,1,0-.622,2.514l4.912,1.216a1.361,1.361,0,0,0,.313.038" transform="translate(14.589 143.515)" fill="#fff"/>
        <path id="Trazado_876419" data-name="Trazado 876419" d="M25.41,223.513a1.3,1.3,0,0,0,.308-2.554l-4.912-1.216a1.3,1.3,0,0,0-.622,2.516l4.912,1.216a1.361,1.361,0,0,0,.313.038" transform="translate(12.64 144.65)" fill="#fff"/>
        <path id="Trazado_876420" data-name="Trazado 876420" d="M22.45,225.171a1.3,1.3,0,0,0,.308-2.554L17.846,221.4a1.3,1.3,0,1,0-.622,2.516l4.912,1.216a1.276,1.276,0,0,0,.313.038" transform="translate(10.691 145.742)" fill="#fff"/>
        <path id="Trazado_876421" data-name="Trazado 876421" d="M19.222,226.7a1.3,1.3,0,0,0,.308-2.554l-4.912-1.214A1.295,1.295,0,1,0,14,225.449l4.912,1.216a1.276,1.276,0,0,0,.313.038" transform="translate(8.566 146.752)" fill="#fff"/>
        <path id="Trazado_876422" data-name="Trazado 876422" d="M15.721,228.011a1.3,1.3,0,0,0,.308-2.554l-4.912-1.214a1.295,1.295,0,1,0-.622,2.514l4.912,1.216a1.372,1.372,0,0,0,.313.038" transform="translate(6.261 147.612)" fill="#fff"/>
        <path id="Trazado_876423" data-name="Trazado 876423" d="M169.249,162.33C142.679,148.272,96,120.221,76.335,116.237c-34.289-6.949-45.448,146.1-45.448,146.1L58.4,265.026s25.736-65.969,27.781-91.4c0,0,35.8,34.4,108.3,35.843Z" transform="translate(20.335 76.377)" fill="#d76751"/>
        <path id="Trazado_876424" data-name="Trazado 876424" d="M62.537,203.108s-.469,5.158-3.978,8.358L30.03,208.637s-.637-6.5.806-9.128Z" transform="translate(19.679 131.353)" fill="#ba4131"/>
        <path id="Trazado_876425" data-name="Trazado 876425" d="M46.168,243.327a.8.8,0,0,0,.766-.569c.07-.226,6.944-22.8,13.41-42.675C66.052,182.539,72.07,150.1,73.48,142.3c6.806,8.121,15.793,15.481,26.738,21.892A170.408,170.408,0,0,0,131.8,178.3a212.864,212.864,0,0,0,36.637,8.91.8.8,0,0,0,.2-1.59,211.467,211.467,0,0,1-36.357-8.849c-18.247-6.161-43.236-17.549-58.657-36.826a.8.8,0,0,0-1.416.363c-.068.391-6.935,39.453-13.386,59.282-6.471,19.891-13.35,42.478-13.42,42.7a.8.8,0,0,0,.534,1,.815.815,0,0,0,.234.035" transform="translate(29.867 91.937)" fill="#ba4131"/>
        <path id="Trazado_876426" data-name="Trazado 876426" d="M123.777,73.781c15.161,20.411,33.41-3.99,33.159-9.435-6.29-12.144-8.051-28.274-8.051-28.274l-29.159,16.3c.226.894.456,1.789.685,2.69A123.278,123.278,0,0,1,123.2,68.038a46.642,46.642,0,0,1,.58,5.743" transform="translate(78.826 23.75)" fill="#f49d8b"/>
        <path id="Trazado_876427" data-name="Trazado 876427" d="M122.925,65.238c15.677-6.352,23.448-24.911,23.448-24.911L120.139,52.262a123.154,123.154,0,0,1,2.786,12.975" transform="translate(79.098 26.551)" fill="#1b3431"/>
        <path id="Trazado_876428" data-name="Trazado 876428" d="M118.274,34.738s-3.652-7.242-9.584-4.5-2.824,23.456,8.9,20.9Z" transform="translate(69.627 19.501)" fill="#d37363"/>
        <path id="Trazado_876429" data-name="Trazado 876429" d="M117.121,60.01a10.462,10.462,0,1,1,10.113-10.8,10.475,10.475,0,0,1-10.113,10.8m-.635-19.353a8.9,8.9,0,1,0,9.187,8.6,8.91,8.91,0,0,0-9.187-8.6" transform="translate(69.996 25.738)" fill="#fff"/>
        <path id="Trazado_876430" data-name="Trazado 876430" d="M158.434,56.719c-1.965,8.763-22,21.658-31.456,18.891-5.735-1.68-11.229-5.962-15.521-16.605-.025-.056-.045-.114-.068-.171-.252-.629-.491-1.249-.718-1.866-.415-1.111-.788-2.2-1.116-3.25-.076-.249-.154-.493-.224-.735-.194-.652-.368-1.287-.519-1.9q-.286-1.134-.471-2.156C106.364,37.9,103.911,25.55,113,17.133S137.555,4.51,148.082,13.09c0,0,8,7.655,10.075,23.7s1.7,13.6.277,19.925" transform="translate(70.103 5.515)" fill="#f49d8b"/>
        <path id="Trazado_876431" data-name="Trazado 876431" d="M126.27,12.087s7.658,16.571,13.178,19.327,8.6-6.287,8.6-6.287S134.142.05,126.27,12.087" transform="translate(83.134 5.805)" fill="#1b3431"/>
        <path id="Trazado_876432" data-name="Trazado 876432" d="M113.316,16.091s11.758,12.922,23.741,7.879,2.207-14.252,2.207-14.252S114.84,3.4,113.316,16.091" transform="translate(74.605 5.363)" fill="#1b3431"/>
        <path id="Trazado_876433" data-name="Trazado 876433" d="M123.628,13.807s-3.655,19.345-16.255,17.828,2.051-22.116,10.285-22.486,5.97,4.658,5.97,4.658" transform="translate(67.457 6.011)" fill="#1b3431"/>
        <path id="Trazado_876434" data-name="Trazado 876434" d="M122.508,43.406a4.537,4.537,0,0,1-.479.05.63.63,0,0,1-.035-1.259,4.031,4.031,0,0,0,3.355-2.184.629.629,0,0,1,1.136.541,5.2,5.2,0,0,1-3.977,2.852" transform="translate(79.917 26.107)" fill="#d37363"/>
        <path id="Trazado_876435" data-name="Trazado 876435" d="M119.655,43.77a9.272,9.272,0,0,1-1.381.121.629.629,0,1,1,.023-1.257c.318,0,7.6.023,8.114-7.6a.629.629,0,0,1,1.255.083c-.446,6.662-5.509,8.267-8.012,8.652" transform="translate(77.463 22.68)" fill="#232323"/>
        <path id="Trazado_876436" data-name="Trazado 876436" d="M120.122,41.781a5.947,5.947,0,0,0,1.194-.209.752.752,0,0,0-.408-1.448,4.49,4.49,0,0,1-3.546-.516c1.773-3.557,1.672-11.652,1.667-12.017a.752.752,0,1,0-1.5.023c.038,2.516-.207,9.537-1.773,11.776a.749.749,0,0,0,.114.99,6.162,6.162,0,0,0,4.255,1.4" transform="translate(76.12 17.678)" fill="#1b3431"/>
        <path id="Trazado_876437" data-name="Trazado 876437" d="M110.255,41.292c-.252-.629-.491-1.249-.718-1.867-.415-1.109-.788-2.2-1.116-3.25-.076-.245-.153-.489-.224-.733.184-.038.366-.078.552-.109,4.138-.776,7.751-.056,8.061,1.609.307,1.615-2.6,3.531-6.556,4.352" transform="translate(71.235 23.056)" fill="#d37363"/>
        <path id="Trazado_876438" data-name="Trazado 876438" d="M138.731,32.892c.313,1.667-2.786,3.65-6.925,4.428s-7.746.06-8.061-1.607,2.788-3.65,6.925-4.43,7.748-.058,8.061,1.609" transform="translate(81.457 20.39)" fill="#d37363"/>
        <path id="Trazado_876439" data-name="Trazado 876439" d="M117.827,33.858A10.195,10.195,0,1,1,128.7,43.33a10.2,10.2,0,0,1-10.871-9.473m1.5-.1A8.691,8.691,0,1,0,127.4,24.49a8.7,8.7,0,0,0-8.073,9.265" transform="translate(77.559 15.119)" fill="#fff"/>
        <path id="Trazado_876440" data-name="Trazado 876440" d="M103.918,36.629A10.2,10.2,0,1,1,114.788,46.1a10.2,10.2,0,0,1-10.871-9.473m1.5-.1a8.69,8.69,0,1,0,8.073-9.265,8.7,8.7,0,0,0-8.073,9.265" transform="translate(68.402 16.944)" fill="#fff"/>
        <path id="Trazado_876441" data-name="Trazado 876441" d="M116.565,32.385a2.519,2.519,0,0,1,3.413-.813l.716-1.323a3.975,3.975,0,0,0-5.4,1.332Z" transform="translate(75.907 19.562)" fill="#fff"/>
        <path id="Trazado_876442" data-name="Trazado 876442" d="M129.8,29.127a1,1,0,0,0,.761-.434c.093-.106,1.577-1.688,8.639-3.337a1.007,1.007,0,0,0-.459-1.962c-8.124,1.9-9.65,3.836-9.872,4.206a1.008,1.008,0,0,0,.932,1.527" transform="translate(84.747 15.383)" fill="#fff"/>
        <path id="Trazado_876443" data-name="Trazado 876443" d="M104.71,33.943a.73.73,0,0,0,.428-.172,9.362,9.362,0,0,1,3.9-1.4.753.753,0,0,0-.2-1.493,11,11,0,0,0-4.663,1.733.752.752,0,0,0,.532,1.328" transform="translate(68.41 20.327)" fill="#fff"/>
        <path id="Trazado_876444" data-name="Trazado 876444" d="M119.222,22.528a8.612,8.612,0,0,1,7.279-3.436c2.592.2,2.668,2.741-.244,3.217a9.4,9.4,0,0,0-4.874,1.942,1.391,1.391,0,0,1-2.161-1.723" transform="translate(78.343 12.555)" fill="#1b3431"/>
        <path id="Trazado_876445" data-name="Trazado 876445" d="M115.963,23.213a8.61,8.61,0,0,0-8.041-.345c-2.312,1.189-1.4,3.562,1.473,2.872a9.381,9.381,0,0,1,5.245-.1,1.391,1.391,0,0,0,1.323-2.428" transform="translate(70.193 14.487)" fill="#1b3431"/>
        <path id="Trazado_876446" data-name="Trazado 876446" d="M135.027,26.9s2.617-7.033,9.607-5.275,7.866,24.828-5.355,24.459Z" transform="translate(88.9 14.052)" fill="#f49d8b"/>
        <path id="Trazado_876447" data-name="Trazado 876447" d="M147.7,32.867c-.3.484-.448.96-.753,1.441a8.906,8.906,0,1,1-5.551,1.232c1.814-.859,1.978-1.685,1.914-2.494a10.461,10.461,0,1,0,13.141,9.766,10.619,10.619,0,0,0-8.751-9.945" transform="translate(89.23 21.639)" fill="#fff"/>
        <path id="Trazado_876448" data-name="Trazado 876448" d="M137.727,34.48a.619.619,0,0,0,.566.67.727.727,0,0,0,.134,0,.624.624,0,0,0,.536-.564,12.7,12.7,0,0,1,1.423-4.469c1.444.91,2.619,1.781,2.635,1.791a.6.6,0,0,0,.451.118.635.635,0,0,0,.418-.244.624.624,0,0,0-.131-.867c-.053-.04-1.227-.91-2.71-1.847a7.561,7.561,0,0,1,3.483-2.7.62.62,0,0,0-.438-1.161c-5.7,2.138-6.342,8.985-6.367,9.274" transform="translate(90.676 16.57)" fill="#1b3431"/>
        <path id="Trazado_876449" data-name="Trazado 876449" d="M124.35,29.789c.3,1.488-.154,2.833-1,3s-1.781-.9-2.076-2.39.153-2.831,1-3,1.781.9,2.076,2.388" transform="translate(79.782 18.029)" fill="#1b3431"/>
        <path id="Trazado_876450" data-name="Trazado 876450" d="M114.346,32.007c.3,1.489-.154,2.834-1,3s-1.781-.9-2.076-2.39.153-2.833,1-3,1.781.9,2.076,2.386" transform="translate(73.196 19.49)" fill="#1b3431"/>
        <path id="Trazado_876451" data-name="Trazado 876451" d="M86.832,148.541l121.667,13.1a.494.494,0,0,0,.546-.438,6.88,6.88,0,0,0-6.1-7.574L87.621,141.211a.5.5,0,0,0-.546.438L86.392,148a.5.5,0,0,0,.439.544" transform="translate(56.877 92.969)" fill="#414f50"/>
        <path id="Trazado_876452" data-name="Trazado 876452" d="M66.536,104.159l8.27,65.864a3.816,3.816,0,0,0,3.378,3.317l93.551,10.071a3.814,3.814,0,0,0,4.194-4.267l-8.27-65.864a3.818,3.818,0,0,0-3.378-3.318L70.73,99.89a3.817,3.817,0,0,0-4.194,4.269" transform="translate(43.786 65.751)" fill="#1b3431"/>
        <path id="Trazado_876453" data-name="Trazado 876453" d="M112.18,128.988c-.741,5.751-11.287,11.919-11.287,11.919s-10.566-8.44-11.323-14.353c-.823-6.41,6.521-7.559,11.3-2.279,4.765-4.252,12.114-1.522,11.31,4.713" transform="translate(58.929 79.623)" fill="#414f50"/>
        <path id="Trazado_876454" data-name="Trazado 876454" d="M123.229,105.714l8.438,73.556,2.723.292a3.815,3.815,0,0,0,4.194-4.267l-8.27-65.864a3.815,3.815,0,0,0-3.378-3.317Z" transform="translate(81.132 69.6)" fill="#414f50"/>
        <path id="Trazado_876455" data-name="Trazado 876455" d="M101.448,180.143s10-1.6,13.1-4.877l6.506,20.789-23.9,4.91s.29-17.539,4.3-20.823" transform="translate(63.964 115.392)" fill="#f49d8b"/>
        <path id="Trazado_876456" data-name="Trazado 876456" d="M64.592,236.057l30.892-68.569a10.5,10.5,0,0,1,4.214.814c5.993,2.184,14.418,8.2,19.846,11.74.632.416,1.226.8,1.768,1.129a21.944,21.944,0,0,0,2.292,1.279c4.763,2.146,2.307,3.693,2.307,3.693-9.929,3.872-3.526,18.629-8.939,21.708,0,0-2.307,1.337-9.657,4.575s-14.755,11.038-21.6,17.433c-8.838,8.26-14.386,9.231-17.567,8.476a5.867,5.867,0,0,1-3.554-2.279" transform="translate(42.526 110.26)" fill="#f5bf69"/>
        <path id="Trazado_876457" data-name="Trazado 876457" d="M99.424,189.49s2.741,1.879,1.2,4.4-6,1.28-6,1.28-3.746-2.524,4.8-5.685" transform="translate(61.76 124.757)" fill="#fff"/>
        <path id="Trazado_876458" data-name="Trazado 876458" d="M89.148,187.584a1.161,1.161,0,0,1,1.38-.891,14.818,14.818,0,0,1,9.735,6.768,1.161,1.161,0,0,1-2.046,1.1,12.48,12.48,0,0,0-8.177-5.594,1.162,1.162,0,0,1-.891-1.38" transform="translate(58.677 122.899)" fill="#fff"/>
        <path id="Trazado_876459" data-name="Trazado 876459" d="M92.665,200.737a1.169,1.169,0,0,1,.448-.692c1.59-1.166,2.743-5.345,3.093-7.707a1.162,1.162,0,0,1,2.3.343c-.108.723-1.138,7.124-4.018,9.236a1.161,1.161,0,0,1-1.821-1.181" transform="translate(60.991 125.981)" fill="#fff"/>
        <path id="Trazado_876460" data-name="Trazado 876460" d="M97.9,198.056c.119-.078.383-.254.746-.511.408-.287.945-.682,1.546-1.159.119-.091.239-.191.362-.292a25.435,25.435,0,0,0,3.993-3.985,10.105,10.105,0,0,0,1.97-3.877.776.776,0,0,0,.015-.09,4.93,4.93,0,0,0-.748-3.886,3.588,3.588,0,0,0-3.272-1.642,2.217,2.217,0,0,0-.231.022,5.18,5.18,0,0,0-2.585,1.182,11.353,11.353,0,0,0-3.274,4.97,44.246,44.246,0,0,0-1.506,4.942c-.036.158-.07.31-.1.456a16.529,16.529,0,0,0-.352,2.207c-.013.166-.012.254-.012.27l2.441.033.075,0,0-.065.459.7Zm.408-7.028c.144-.431.3-.894.479-1.383,1.06-2.919,2.678-4.37,3.811-4.512a1.53,1.53,0,0,1,.227-.01,1.106,1.106,0,0,1,.877.551,2.432,2.432,0,0,1,.363,1.973l-.012.058a5.572,5.572,0,0,1-.622,1.544,12.892,12.892,0,0,1-1.768,2.36,27.181,27.181,0,0,1-2.612,2.451h0c-.711.592-1.388,1.1-1.937,1.488.04-.235.093-.509.161-.824a36.006,36.006,0,0,1,1.035-3.695" transform="translate(62.185 120.225)" fill="#fff"/>
        <path id="Trazado_876461" data-name="Trazado 876461" d="M94.86,193.428l2.451-.572c.582,2.5,2.939,5.269,4.67,5.5.42.055.97-.01,1.507-1.012a1.4,1.4,0,0,0,.136-1.378c-.662-1.383-3.687-2.426-5.439-2.758l.466-2.473c.592.111,5.818,1.169,7.242,4.143a4.352,4.352,0,0,1-4.24,5.972c-3.076-.4-6.05-4.236-6.793-7.42" transform="translate(62.454 125.575)" fill="#fff"/>
        <path id="Trazado_876462" data-name="Trazado 876462" d="M64.592,236.057l30.892-68.569a10.5,10.5,0,0,1,4.214.814L68.146,238.335a5.867,5.867,0,0,1-3.554-2.279" transform="translate(42.526 110.26)" fill="#ed9033"/>
        <path id="Trazado_876463" data-name="Trazado 876463" d="M81.319,172.508l.917-2.036a16.513,16.513,0,0,0,9.32,8.632c6.924,2.721,13.322.715,16.975-1.038.632.418,1.226.8,1.768,1.131-3.7,2-11.1,4.833-19.4,1.575a18.24,18.24,0,0,1-9.582-8.264" transform="translate(53.539 112.236)" fill="#ed9033"/>
        <path id="Trazado_876464" data-name="Trazado 876464" d="M88.617,193.068a1.24,1.24,0,0,1,2.35.733l-.867,4.761a1.239,1.239,0,0,1-2.438-.443l.866-4.763a1.171,1.171,0,0,1,.09-.289" transform="translate(57.702 126.633)" fill="#fff"/>
        <path id="Trazado_876465" data-name="Trazado 876465" d="M91.924,191.471a1.239,1.239,0,0,1,2.348.731l-.866,4.763a1.239,1.239,0,1,1-2.438-.444l.866-4.761a1.272,1.272,0,0,1,.09-.289" transform="translate(59.879 125.581)" fill="#fff"/>
        <path id="Trazado_876466" data-name="Trazado 876466" d="M85.952,194.976a1.239,1.239,0,0,1,2.348.731l-.866,4.763A1.239,1.239,0,1,1,85,200.027l.866-4.763a1.192,1.192,0,0,1,.09-.289" transform="translate(55.947 127.888)" fill="#fff"/>
        <path id="Trazado_876467" data-name="Trazado 876467" d="M83.345,196.907a1.24,1.24,0,0,1,2.35.731l-.867,4.763a1.239,1.239,0,1,1-2.438-.443l.866-4.763a1.217,1.217,0,0,1,.09-.289" transform="translate(54.231 129.161)" fill="#fff"/>
        <path id="Trazado_876468" data-name="Trazado 876468" d="M80.742,199.123a1.239,1.239,0,0,1,2.348.731l-.866,4.763a1.239,1.239,0,0,1-2.438-.444l.866-4.761a1.193,1.193,0,0,1,.09-.289" transform="translate(52.517 130.619)" fill="#fff"/>
        <path id="Trazado_876469" data-name="Trazado 876469" d="M78.227,201.664a1.239,1.239,0,0,1,2.348.731l-.866,4.763a1.239,1.239,0,0,1-2.438-.443l.866-4.763a1.193,1.193,0,0,1,.09-.289" transform="translate(50.861 132.292)" fill="#fff"/>
        <path id="Trazado_876470" data-name="Trazado 876470" d="M224.245,133.937s27.72-14.96,43.776-3.4c29.362,21.144-20.459,61.825-77.451,81.689s-75.5,17.156-75.5,17.156-12.383-3.408-7.99-23.476c0,0,32.853-12.489,49.946-25.574s28.746-29.116,67.216-46.4" transform="translate(69.881 83.058)" fill="#d76751"/>
        <path id="Trazado_876471" data-name="Trazado 876471" d="M115.964,190.888a.794.794,0,0,0,.391-.1c.285-.159,28.582-16.083,40.252-25.66,9.391-7.708,29.977-22.164,30.183-22.309a.8.8,0,1,0-.92-1.313c-.207.146-20.843,14.637-30.28,22.382-11.562,9.489-39.735,25.343-40.018,25.5a.8.8,0,0,0,.393,1.5" transform="translate(75.82 93.067)" fill="#ba4131"/>
        <path id="Trazado_876472" data-name="Trazado 876472" d="M108.207,206.3c11.954-2.872,36.31-14.043,65.156-29.886,21.574-11.847,46.456-26.989,50.106-32.241,1.973-2.836,2.469-5.156,1.478-6.894-1.484-2.6-5.758-2.874-7.707-2.854a.867.867,0,0,0,.007,1.733c1.915-.013,5.249.315,6.2,1.978.786,1.381-.325,3.507-1.4,5.048-2.944,4.234-23.77,17.571-49.518,31.71-22.171,12.178-50.82,26.377-64.727,29.72Z" transform="translate(70.975 88.503)" fill="#ba4131"/>
        <path id="Trazado_876473" data-name="Trazado 876473" d="M112.623,172.822c1.347,10.549,4.08,20.136,10.038,27.489,0,0-5.1,3.675-9.761,1.038-3.559-2.013-10.423-18.488-7.808-27.284,2.978-1.627,5.547-2.194,7.531-1.244" transform="translate(68.809 113.479)" fill="#ba4131"/>
        <line id="Línea_720" data-name="Línea 720" y1="11.083" transform="translate(195.712 217.31)" fill="#f49d8b"/>
        <path id="Trazado_876474" data-name="Trazado 876474" d="M224.012,157.169c-.169-2.468-.454-4.776-.781-7.015-.653-4.473-1.507-8.648-2.466-12.736s-2.01-8.053-3.139-11.962c-1.113-3.914-2.335-7.751-3.572-11.564-2.516-7.609-5.226-15.065-8.131-22.421-1.471-3.67-2.934-7.337-4.5-10.967-.781-1.814-1.561-3.63-2.367-5.441l-1.231-2.716L197.2,70.98l-.667-1.418A17.266,17.266,0,0,0,164.717,82.9l.08.216,3.859,10.431c1.282,3.524,2.607,7.033,3.859,10.564,2.542,7.043,5.037,14.08,7.362,21.09,2.338,6.993,4.511,13.99,6.323,20.776.456,1.7.857,3.373,1.25,5.023s.74,3.274,1.03,4.834c.146.778.277,1.542.393,2.284-1.126.323-2.3.637-3.489.94-3.366.864-6.906,1.653-10.494,2.406s-7.242,1.463-10.917,2.164c-7.357,1.386-14.814,2.683-22.3,3.982l-11.249,1.944-.818.143c1.043,8.741,2.516,17.441,3.234,26.214,3.874-.022,7.746-.1,11.625-.2,7.836-.229,15.682-.637,23.589-1.272,3.957-.31,7.925-.7,11.937-1.156s8.056-1.02,12.226-1.735c2.086-.368,4.2-.776,6.406-1.27s4.479-1.068,7.033-1.91a45.078,45.078,0,0,0,4.236-1.63c.786-.35,1.652-.771,2.627-1.318a25.565,25.565,0,0,0,3.421-2.29c.348-.282.67-.544,1.07-.909l.562-.524c.2-.2.418-.418.62-.63l.305-.327.153-.166.171-.2c.227-.264.449-.534.665-.808.2-.25.464-.61.692-.939l.342-.507c.111-.171.217-.335.345-.551q.366-.609.692-1.244l.161-.322.172-.368q.169-.371.323-.748c.1-.25.2-.5.3-.758s.194-.564.282-.847.172-.58.249-.874l.109-.439.061-.267.287-1.418c.043-.232.095-.486.126-.7l.1-.648c.061-.43.124-.876.174-1.294l.116-1.2.053-.6.033-.564a62.488,62.488,0,0,0-.083-8.113" transform="translate(85.331 39.273)" fill="#f49d8b"/>
        <path id="Trazado_876475" data-name="Trazado 876475" d="M183.984,126.419a.827.827,0,0,1-.567-.224c-6.408-6.008-17-6.09-17.11-6.09a.829.829,0,1,1,0-1.658c.461,0,11.35.075,18.244,6.537a.829.829,0,0,1-.567,1.435" transform="translate(108.948 77.984)" fill="#d37363"/>
        <path id="Trazado_876476" data-name="Trazado 876476" d="M168.22,120.81a.829.829,0,0,1-.411-1.549c4.212-2.4,12.178-1.237,12.514-1.187a.829.829,0,1,1-.245,1.64c-.076-.01-7.735-1.123-11.448.988a.832.832,0,0,1-.41.108" transform="translate(110.206 77.525)" fill="#d37363"/>
        <path id="Trazado_876477" data-name="Trazado 876477" d="M14.7,75.762V105.3a7.076,7.076,0,0,0,7.073,7.073h53.64L91.6,118.187a2.059,2.059,0,0,0,2.617-2.682L88.094,99.686V75.762a7.075,7.075,0,0,0-7.076-7.073H21.769A7.075,7.075,0,0,0,14.7,75.762" transform="translate(9.676 45.224)" fill="#78b1de"/>
        <path id="Trazado_876478" data-name="Trazado 876478" d="M42.8,84.4a5.117,5.117,0,1,0,5.116-5.116A5.117,5.117,0,0,0,42.8,84.4" transform="translate(28.176 52.199)" fill="#4e88af"/>
        <path id="Trazado_876479" data-name="Trazado 876479" d="M33.029,84.4a5.117,5.117,0,1,0,5.116-5.116A5.117,5.117,0,0,0,33.029,84.4" transform="translate(21.746 52.199)" fill="#4e88af"/>
        <path id="Trazado_876480" data-name="Trazado 876480" d="M23.262,84.4a5.117,5.117,0,1,0,5.118-5.116A5.119,5.119,0,0,0,23.262,84.4" transform="translate(15.315 52.199)" fill="#4e88af"/>
      </g>
    </g>
  </g>
</svg>
