<svg xmlns="http://www.w3.org/2000/svg" xmlns:xlink="http://www.w3.org/1999/xlink" width="295" height="358.609" viewBox="0 0 295 358.609">
  <defs>
    <clipPath id="clip-path">
      <rect id="Rectángulo_401801" data-name="Rectángulo 401801" width="4.286" height="3.247" fill="none"/>
    </clipPath>
    <clipPath id="clip-path-2">
      <rect id="Rectángulo_401802" data-name="Rectángulo 401802" width="10.46" height="3.456" fill="none"/>
    </clipPath>
    <clipPath id="clip-path-3">
      <rect id="Rectángulo_401803" data-name="Rectángulo 401803" width="49.207" height="47.504" fill="none"/>
    </clipPath>
  </defs>
  <g id="_117" data-name="117" transform="translate(-168.66 -467)">
    <g id="Grupo_1099796" data-name="Grupo 1099796" transform="translate(168.66 467)">
      <rect id="_46999web" data-name="46999web" width="295" height="358.146" rx="11" fill="#0f0721"/>
    </g>
    <path id="Trazado_873505" data-name="Trazado 873505" d="M49.164,98.328h0V75.488A26.324,26.324,0,1,1,75.488,49.164h22.84A49.164,49.164,0,1,0,49.164,98.328" transform="translate(184.576 575.328) rotate(-90)" fill="#22cac5"/>
    <g id="Grupo_1100635" data-name="Grupo 1100635" transform="translate(149.407 466.999)">
      <g id="Grupo_1100641" data-name="Grupo 1100641" transform="translate(28.051 0.001)">
        <path id="Trazado_876533" data-name="Trazado 876533" d="M102.7,198.35c2.586,1.857,6.679,3.789,12.8,5.736,34.78,11.066,66.67-6.8,66.67-6.8,1.927-9.524.735-20.349-2.474-24.311a3.5,3.5,0,0,0,.341-3.089l32.008-33.228c-18.2,15.086-40.717,20.021-58.246,30.614H153.8c-5.049,3.052-9.591,5.741-12.919,7.609-5.077,2.851-11.56,3.13-17.91,2.256-12.38-1.711-24.254-7.81-24.254-7.81s-39.861-18.068-47.336-17.465c-5.811.466,25.459,33.116,51.326,46.485" transform="translate(-3.623 76.251)" fill="#c04d3a"/>
        <path id="Trazado_876534" data-name="Trazado 876534" d="M130.968,196.38s-10.261-2.948-13.411-6.279l-7.129,16.786,24.27,7.575s.338-14.746-3.73-18.082" transform="translate(29.719 106.069)" fill="#eaad8f"/>
        <path id="Trazado_876535" data-name="Trazado 876535" d="M183.7,250.212l-31.374-69.64a10.686,10.686,0,0,0-4.281.826c-6.087,2.219-14.642,8.332-20.154,11.923-.642.424-1.246.81-1.8,1.148a22.309,22.309,0,0,1-2.326,1.3c-4.839,2.18-2.08,6.089-2.08,6.089,10.085,3.934,3.317,16.581,8.815,19.71,0,0,2.343,1.359,9.807,4.647s14.985,11.211,21.941,17.706c8.975,8.388,14.611,9.374,17.84,8.608a5.965,5.965,0,0,0,3.61-2.315" transform="translate(35.563 100.744)" fill="#fff"/>
        <path id="Trazado_876536" data-name="Trazado 876536" d="M173.978,250.212,142.6,180.573a10.686,10.686,0,0,0-4.281.826l32.046,71.129a5.965,5.965,0,0,0,3.61-2.315" transform="translate(45.283 100.744)" fill="#f0e8e0"/>
        <path id="Trazado_876537" data-name="Trazado 876537" d="M153.665,185.869l-.932-2.069a16.759,16.759,0,0,1-9.465,8.767c-7.033,2.765-13.531.726-17.24-1.053-.642.424-1.245.81-1.8,1.148,3.756,2.027,11.277,4.908,19.7,1.6a18.541,18.541,0,0,0,9.733-8.394" transform="translate(37.421 102.553)" fill="#f0e8e0"/>
        <path id="Trazado_876538" data-name="Trazado 876538" d="M136.515,208.181a1.259,1.259,0,0,0-2.385.743l.879,4.837a1.259,1.259,0,0,0,2.477-.45l-.88-4.837a1.28,1.28,0,0,0-.09-.293" transform="translate(42.932 115.744)" fill="#171612"/>
        <path id="Trazado_876539" data-name="Trazado 876539" d="M132.94,206.454a1.259,1.259,0,0,0-2.385.743l.88,4.836a1.258,1.258,0,1,0,2.476-.45l-.88-4.836a1.305,1.305,0,0,0-.09-.293" transform="translate(40.937 114.781)" fill="#171612"/>
        <path id="Trazado_876540" data-name="Trazado 876540" d="M139.4,210.242a1.259,1.259,0,0,0-2.385.743l.879,4.837a1.259,1.259,0,1,0,2.477-.452l-.88-4.836a1.229,1.229,0,0,0-.09-.293" transform="translate(44.539 116.894)" fill="#171612"/>
        <path id="Trazado_876541" data-name="Trazado 876541" d="M142.214,212.331a1.259,1.259,0,0,0-2.385.743l.879,4.837a1.259,1.259,0,0,0,2.477-.45l-.88-4.837a1.309,1.309,0,0,0-.09-.293" transform="translate(46.112 118.06)" fill="#171612"/>
        <path id="Trazado_876542" data-name="Trazado 876542" d="M145.029,214.726a1.259,1.259,0,0,0-2.387.743l.882,4.837a1.257,1.257,0,1,0,2.474-.452l-.879-4.836a1.392,1.392,0,0,0-.09-.293" transform="translate(47.682 119.396)" fill="#171612"/>
        <path id="Trazado_876543" data-name="Trazado 876543" d="M147.747,217.473a1.259,1.259,0,0,0-2.385.743l.88,4.837a1.258,1.258,0,1,0,2.476-.45l-.88-4.837a1.229,1.229,0,0,0-.09-.293" transform="translate(49.199 120.929)" fill="#171612"/>
        <path id="Trazado_876544" data-name="Trazado 876544" d="M68.228,148.957S43,135.341,28.386,145.866C1.665,165.11,47.005,202.131,98.873,220.21s68.709,15.612,68.709,15.612,11.272-3.1,7.271-21.364c0,0-29.9-11.367-45.455-23.274s-26.161-26.5-61.17-42.227" transform="translate(-20.473 79.16)" fill="#c04d3a"/>
        <path id="Trazado_876545" data-name="Trazado 876545" d="M156.482,215.3c-10.878-2.614-33.046-12.783-59.3-27.2-19.633-10.783-42.279-24.563-45.6-29.341-1.795-2.582-2.247-4.694-1.345-6.277,1.351-2.368,5.241-2.613,7.014-2.6a.789.789,0,0,1-.006,1.578c-1.743-.012-4.777.287-5.638,1.8-.715,1.257.3,3.192,1.27,4.594,2.68,3.854,21.634,15.991,45.067,28.86,20.177,11.08,46.25,24.005,58.908,27.048Z" transform="translate(-4.118 83.63)" fill="#7e231a"/>
        <path id="Trazado_876546" data-name="Trazado 876546" d="M120.227,187.056c-1.225,9.6-3.713,18.326-9.136,25.018,0,0,4.643,3.345,8.884.946,3.241-1.832,9.486-16.826,7.106-24.832-2.709-1.48-5.048-2-6.853-1.131" transform="translate(30.089 104.136)" fill="#7e231a"/>
        <path id="Trazado_876547" data-name="Trazado 876547" d="M75.858,196.526S85.9,192.9,88.82,189.366l8.234,16.271-23.709,9.18s-1.323-14.69,2.513-18.29" transform="translate(8.905 105.659)" fill="#eaad8f"/>
        <path id="Trazado_876548" data-name="Trazado 876548" d="M39.448,253.2,66.1,181.616a10.682,10.682,0,0,1,4.326.539c6.221,1.807,15.165,7.335,20.906,10.549.668.38,1.3.726,1.87,1.027a22.377,22.377,0,0,0,2.409,1.139c4.971,1.851,2.48,5.936,2.48,5.936-9.8,4.6-2.2,16.767-7.478,20.255,0,0-2.247,1.511-9.476,5.292s-14.2,12.186-20.708,19.132c-8.394,8.969-13.952,10.329-17.225,9.781a5.972,5.972,0,0,1-3.756-2.069" transform="translate(-9.886 101.303)" fill="#fff"/>
        <path id="Trazado_876549" data-name="Trazado 876549" d="M39.448,253.2,66.1,181.616a10.682,10.682,0,0,1,4.326.539L43.2,255.265a5.972,5.972,0,0,1-3.756-2.069" transform="translate(-9.886 101.303)" fill="#f0e8e0"/>
        <path id="Trazado_876550" data-name="Trazado 876550" d="M54.809,187.045l.791-2.127a16.759,16.759,0,0,0,10.03,8.115c7.2,2.289,13.548-.179,17.13-2.2.67.38,1.3.724,1.87,1.025-3.613,2.275-10.924,5.651-19.549,2.913a18.534,18.534,0,0,1-10.272-7.724" transform="translate(-1.315 103.177)" fill="#f0e8e0"/>
        <path id="Trazado_876551" data-name="Trazado 876551" d="M64.013,208.814a1.259,1.259,0,0,1,2.43.583l-.555,4.884a1.258,1.258,0,1,1-2.5-.284l.555-4.886a1.238,1.238,0,0,1,.07-.3" transform="translate(3.467 116.054)" fill="#171612"/>
        <path id="Trazado_876552" data-name="Trazado 876552" d="M67.465,206.852a1.259,1.259,0,0,1,2.43.583l-.555,4.884a1.259,1.259,0,1,1-2.5-.284l.555-4.886a1.319,1.319,0,0,1,.072-.3" transform="translate(5.393 114.959)" fill="#171612"/>
        <path id="Trazado_876553" data-name="Trazado 876553" d="M61.277,211.063a1.259,1.259,0,0,1,2.43.583l-.555,4.884a1.259,1.259,0,0,1-2.5-.284l.556-4.886a1.256,1.256,0,0,1,.07-.3" transform="translate(1.94 117.309)" fill="#171612"/>
        <path id="Trazado_876554" data-name="Trazado 876554" d="M58.6,213.336a1.259,1.259,0,0,1,2.43.583L60.48,218.8a1.259,1.259,0,1,1-2.5-.284l.555-4.886a1.241,1.241,0,0,1,.072-.3" transform="translate(0.449 118.577)" fill="#171612"/>
        <path id="Trazado_876555" data-name="Trazado 876555" d="M55.956,215.913a1.259,1.259,0,0,1,2.43.583l-.555,4.884a1.258,1.258,0,1,1-2.5-.283l.555-4.886a1.239,1.239,0,0,1,.07-.3" transform="translate(-1.028 120.015)" fill="#171612"/>
        <path id="Trazado_876556" data-name="Trazado 876556" d="M53.427,218.836a1.259,1.259,0,0,1,2.43.583L55.3,224.3a1.259,1.259,0,1,1-2.5-.284l.556-4.886a1.239,1.239,0,0,1,.07-.3" transform="translate(-2.44 121.646)" fill="#171612"/>
        <path id="Trazado_876557" data-name="Trazado 876557" d="M183.647,142.748s23.873-15.871,39.39-6.734c28.374,16.712-13.381,57.738-63.372,80.5s-66.988,21.85-66.988,21.85-11.506-2.053-9.2-20.607c0,0,28.729-14.062,43.129-27.347s23.619-28.785,57.04-47.66" transform="translate(14.511 74.309)" fill="#c04d3a"/>
        <path id="Trazado_876558" data-name="Trazado 876558" d="M135.4,192.163c-2.751.905-5.551,1.815-8.439,2.725-11.185,3.519-23.954,7.206-35.519,10.046l-.042,1.653c10.443-2.546,22.7-6,36.034-10.2,2.6-.82,5.26-1.681,7.924-2.558Z" transform="translate(19.1 107.22)" fill="#7e231a"/>
        <path id="Trazado_876559" data-name="Trazado 876559" d="M85.152,217.36c10.593-3.6,31.734-15.76,56.554-32.524,18.562-12.537,39.848-28.338,42.718-33.4,1.55-2.736,1.807-4.881.763-6.374-1.563-2.236-5.459-2.122-7.223-1.943a.79.79,0,0,0,.151,1.572c1.734-.173,4.783-.154,5.78,1.276.827,1.186,0,3.2-.844,4.689-2.314,4.083-20.074,17.909-42.229,32.872-19.077,12.886-43.854,28.148-56.179,32.339Z" transform="translate(15.332 79.807)" fill="#7e231a"/>
        <path id="Trazado_876560" data-name="Trazado 876560" d="M88.313,185.769c2.1,9.448,5.378,17.909,11.393,24.075,0,0-4.317,3.755-8.76,1.756-3.395-1.527-10.99-15.885-9.354-24.075,2.563-1.723,4.844-2.451,6.721-1.756" transform="translate(13.502 103.506)" fill="#7e231a"/>
        <path id="Trazado_876561" data-name="Trazado 876561" d="M237.258,61.3A12.54,12.54,0,0,0,219.8,64.471l-.167.235-1.3,1.88-1.362,1.935L214.2,72.4c-1.854,2.558-3.745,5.1-5.651,7.6a.429.429,0,0,1-.033.047c-.386.5-.765,1-1.162,1.508v0c-3.468,4.526-7.02,8.952-10.66,13.2-2.19,2.558-4.418,5.06-6.67,7.444-.285.3-.57.6-.858.9-1.606,1.675-3.228,3.283-4.85,4.794a61.7,61.7,0,0,1-6.109,5.077c-.472.333-.932.639-1.362.907-.8-.474-1.7-1.064-2.635-1.706-1.058-.732-2.162-1.541-3.276-2.4q-.75-.57-1.5-1.17c-.308-.241-.619-.486-.927-.738-3.728-3-7.516-6.36-11.249-9.814q-4.84-4.494-9.6-9.245c-.382-.372-.765-.751-1.142-1.134q-1.386-1.376-2.756-2.776-3.337-3.384-6.618-6.833l-3.256-3.456-1.606-1.729-1.528-1.675-.129-.145c-.28-.3-.57-.6-.871-.882a18.427,18.427,0,0,0-25.393,26.71l1.918,1.82,1.862,1.75,3.731,3.442q3.744,3.419,7.545,6.776c5.077,4.476,10.248,8.882,15.614,13.208,3.314,2.653,6.671,5.275,10.208,7.854q.5.369,1.016.735c1.9,1.369,3.854,2.726,5.886,4.069,1.561,1.025,3.175,2.046,4.89,3.052q1.171.689,2.42,1.369c.349.192.706.383,1.069.572q1,.528,2.094,1.05c1.028.485,2.072.964,3.275,1.435.025.012.053.02.078.033.313.118.6.237.935.354l1,.355c.321.112.72.232,1.081.343l.558.165.382.1.523.134a21.194,21.194,0,0,0,4.069.614c.667.047,1.273.047,1.9.037.591-.02,1.212-.048,1.761-.111a25.936,25.936,0,0,0,5.821-1.276,30.393,30.393,0,0,0,4.143-1.756l.171-.086c1.26-.647,2.382-1.312,3.423-1.983a54.4,54.4,0,0,0,5.426-4.06c1.069-.907,2.081-1.809,3.044-2.72.537-.5,1.053-1,1.561-1.507,1.326-1.312,2.569-2.619,3.777-3.932a192.578,192.578,0,0,0,13.318-16.549c4.052-5.574,7.849-11.2,11.5-16.89q.97-1.512,1.927-3.029c.2-.308.394-.622.589-.93q1.447-2.307,2.862-4.624c.879-1.44,1.748-2.881,2.614-4.337l1.3-2.191,1.318-2.273A12.589,12.589,0,0,0,237.258,61.3m-62.517,53.658c-.212.069-.326.069-.235,0a.342.342,0,0,1,.04-.023.257.257,0,0,1,.069-.034,1.643,1.643,0,0,1,.192-.067,3.24,3.24,0,0,1,.548-.128,4.711,4.711,0,0,1-.614.248" transform="translate(23.133 32.955)" fill="#314fa5"/>
        <path id="Trazado_876562" data-name="Trazado 876562" d="M152.339,98.363a19.8,19.8,0,0,1-4.858,4.49c-4.333,2.7-9.622,2.7-12.931-1.546-3.438-4.425-4.638-10.928-5.113-16.362a44.49,44.49,0,0,1-.02-7.514c.377.383.76.762,1.142,1.136a42,42,0,0,0-.04,4.25c.215,5.4,1.273,11.476,4,16.228,1.5,2.628,3.865,4.627,7.023,4.546a12.119,12.119,0,0,0,7.431-3.381,23.056,23.056,0,0,0,2.443-2.586c.31.252.619.5.927.738" transform="translate(40.231 43.204)" fill="#5880eb"/>
        <path id="Trazado_876563" data-name="Trazado 876563" d="M143.822,117.2c-.361-.187-.72-.379-1.069-.569.991-3.412,1.739-7.48.028-10.39-3-5.107-9.887-.76-13.224,1.9-.341-.243-.678-.488-1.016-.735q.86-.708,1.776-1.346c3.476-2.43,9.342-5.419,12.842-1.39,2.85,3.281,1.771,8.589.662,12.532" transform="translate(39.825 57.296)" fill="#5880eb"/>
        <path id="Trazado_876564" data-name="Trazado 876564" d="M176.4,84.723c-.171,5.353-1.195,11.87-5.663,15.435-4.231,3.375-9.508,1.306-12.609-2.541a15.757,15.757,0,0,1-1.387-2.011q.432-.451.857-.9a14.4,14.4,0,0,0,2.225,3c2.019,2.085,4.939,3.643,7.886,2.731,2.418-.748,4.13-2.874,5.219-5.06,2.5-5.014,2.395-10.928,2.183-16.382-.065-1.647-.139-3.294-.184-4.936v0c.4-.5.777-1,1.164-1.508a.4.4,0,0,0,.033-.044c.048,4.069.4,8.147.276,12.219" transform="translate(55.56 40.454)" fill="#5880eb"/>
        <path id="Trazado_876565" data-name="Trazado 876565" d="M196.5,80.032c-.195.308-.391.622-.589.93-4.2-2.166-9.943,2.273-12.931,5.095A50.708,50.708,0,0,0,173.53,98.43a84.085,84.085,0,0,0-8.147,22.932c-.508.5-1.024,1-1.561,1.508,2.127-10.208,5.241-20.257,11.054-29a43.193,43.193,0,0,1,11.906-12.456c2.89-1.882,6.719-2.842,9.715-1.382" transform="translate(59.511 44.259)" fill="#5880eb"/>
        <path id="Trazado_876566" data-name="Trazado 876566" d="M164.047,113.825a30.585,30.585,0,0,1-4.143,1.757,26.022,26.022,0,0,1-5.821,1.276c-.548.062-1.17.09-1.761.111-.629.008-1.235.008-1.9-.037a21.44,21.44,0,0,1-4.069-.614l-.523-.136-.383-.1-.556-.165c-.361-.111-.76-.231-1.081-.343l-1-.354c-.333-.118-.622-.235-.935-.354-.025-.012-.053-.02-.078-.033a23.5,23.5,0,0,1,12.1-3.432,18.32,18.32,0,0,1,10.155,2.427" transform="translate(47.221 62.152)" fill="#1c2b74"/>
        <path id="Trazado_876567" data-name="Trazado 876567" d="M150.087,94.36a14.807,14.807,0,0,0-5.126,7.017c-.312.891,1.1,1.274,1.41.389a13.093,13.093,0,0,1,4.454-6.143c.742-.561.012-1.834-.738-1.264" transform="translate(48.962 52.569)" fill="#1c2b74"/>
        <path id="Trazado_876568" data-name="Trazado 876568" d="M144.456,96.9a5.164,5.164,0,0,1,4.478-.221c.857.365,1.6-.9.738-1.263a6.747,6.747,0,0,0-5.955.221c-.832.441-.094,1.7.738,1.264" transform="translate(48.09 52.912)" fill="#1c2b74"/>
        <path id="Trazado_876569" data-name="Trazado 876569" d="M170.5,201.922a59.3,59.3,0,0,1-16.829,12.2c-.383.193-.765.379-1.151.555a70.637,70.637,0,0,1-11.641,4.241,90.491,90.491,0,0,1-41.548.994c-.511-.1-1.024-.213-1.531-.327a91.666,91.666,0,0,1-11.18-3.27,78.973,78.973,0,0,1-13.274-6.243q-.874-.509-1.729-1.058a66.468,66.468,0,0,1-6.05-4.281c3.828-17.082,6.025-25.616,6.977-31.814.081-.523.156-1.028.215-1.519.776-6.02.277-10.135-1.067-19.13-1.192-7.977-4.18-19.492-8.218-31.371-.143-.425-.287-.849-.438-1.273-.369-1.075-.746-2.158-1.137-3.233-.193-.533-.386-1.061-.584-1.6-1.444-3.942-3-7.871-4.626-11.654C49.6,86.623,48.458,68.01,65.5,62.32c11.143-3.714,20.822-5.981,20.822-5.981l39.2,3.245a96.7,96.7,0,0,1,15.966,2.8c.436.129.865.263,1.271.4,11.121,3.711,10.8,10.043,13.308,23.295,3.413,18.043,13.291,34.7,10.851,43.48-.092.319-.184.637-.29.952-.122.383-.255.76-.394,1.134-2.371,6.285-7.09,11.716-8.9,13.66-.463.5-.735.763-.735.763l.014.118c.028.294.062.6.1.927.154,1.248.369,2.72.647,4.4.4,2.446.855,4.915,1.351,7.368.106.5.206,1,.316,1.5a281.006,281.006,0,0,0,10.4,36.914q.542,2.323,1.07,4.626" transform="translate(-2.988 31.435)" fill="#314fa5"/>
        <path id="Trazado_876570" data-name="Trazado 876570" d="M117.443,72.9c1.14,8,3.889,15.555,7.05,22.958,3.454,8.089,7.051,16.672,5.56,25.655-.192,1.151,1.572,1.647,1.764.486,1.405-8.468-1.3-16.627-4.577-24.343-3.476-8.195-6.769-16.371-8.033-25.242-.165-1.161-1.927-.667-1.764.486" transform="translate(33.627 40.035)" fill="#1c2b74"/>
        <path id="Trazado_876571" data-name="Trazado 876571" d="M133.047,124.967c-.122.382-.256.76-.394,1.134-7.464-2.357-13.768-8.475-17.029-15.76C109.409,96.447,112.433,81,115.49,66.72c.162-.768,1.341-.439,1.175.326-2.867,13.389-5.768,27.747-.682,40.992,2.963,7.723,9.329,14.5,17.064,16.93" transform="translate(30.596 36.982)" fill="#5880eb"/>
        <path id="Trazado_876572" data-name="Trazado 876572" d="M94.607,117.07c-2.365,14.558-13.472,27.581-26.085,34.573.081-.523.154-1.028.215-1.521a52.807,52.807,0,0,0,16.187-14.478c7.609-10.382,14.5-28.078.776-36.6-8.552-5.317-17.918-3.643-26.252.573-.142-.424-.285-.846-.435-1.268A35.194,35.194,0,0,1,70.53,94.663a23.96,23.96,0,0,1,17.7,4.671c5.512,4.342,7.488,10.91,6.381,17.736" transform="translate(1.031 52.709)" fill="#5880eb"/>
        <path id="Trazado_876573" data-name="Trazado 876573" d="M123.388,125.765a48.492,48.492,0,0,0-7.541,42.009,49.793,49.793,0,0,0,3.823,9.622c-.382.193-.762.379-1.148.555a51.251,51.251,0,0,1-4.719-33.97,49.655,49.655,0,0,1,10.914-21.822c.1.5.206,1,.316,1.5-.572.689-1.119,1.385-1.645,2.108" transform="translate(31.008 68.159)" fill="#5880eb"/>
        <path id="Trazado_876574" data-name="Trazado 876574" d="M91.2,169.206c-.514-.1-1.027-.213-1.535-.327a43.74,43.74,0,0,0-22.891-20.448c-.72-.282-.407-1.457.327-1.176A45.029,45.029,0,0,1,90.93,168.661c.092.181.181.36.274.545" transform="translate(5.137 82.138)" fill="#5880eb"/>
        <path id="Trazado_876575" data-name="Trazado 876575" d="M103.789,122.7c-6.891,4.267-12.9,9.817-16.717,17.043-3.024,5.722-6.679,15.154-.947,20.426,6.506,5.986,15.7.871,21.022-4.032,6.056-5.574,11.585-14.078,11.453-22.594-.061-3.9-1.669-8.108-4.866-10.507-3.046-2.284-6.66-1.852-9.944-.337-.712.329-.094,1.38.615,1.053,3.294-1.521,6.855-1.641,9.543,1.084a13.016,13.016,0,0,1,3.41,9.754c-.351,7.419-4.962,14.707-10.133,19.788-4.936,4.852-14.12,10.833-20.45,4.718-5.124-4.948-1.209-14.064,1.608-19.219,3.73-6.83,9.458-12.062,16.022-16.125.667-.413.055-1.468-.615-1.053" transform="translate(14.475 67.761)" fill="#5880eb"/>
        <path id="Trazado_876576" data-name="Trazado 876576" d="M132.338,87.679c-7.578,13.793-24.577,11.032-36.252,4.635a71.13,71.13,0,0,1-29.955-32c-.333-.7.72-1.326,1.053-.614a70.111,70.111,0,0,0,13.24,19.158c9.074,9.309,22.65,18.678,36.285,17.605,7.5-.589,13.3-5.394,15.935-12.353,2.837-7.5,1.877-15.667.89-23.427.439.129.866.265,1.273.4,1.122,8.9,2.016,18.42-2.468,26.59" transform="translate(4.967 33.136)" fill="#5880eb"/>
        <path id="Trazado_876577" data-name="Trazado 876577" d="M103.037,92.054c-5.3,1.008-12.609,4.605-13.824,10.488-1.144,5.535,5.068,7.852,9.515,7.584,5.261-.315,11.568-3.621,13.126-9.033,1.514-5.255-3.823-9.282-8.655-9.061-.781.036-.785,1.256,0,1.22,4.9-.224,9.527,4.192,6.793,9.1-2.286,4.1-7.321,6.5-11.89,6.579-4.785.084-10.078-3.281-6.663-8.508,2.6-3.97,7.388-6.33,11.923-7.193.77-.146.444-1.323-.324-1.176" transform="translate(17.805 51.345)" fill="#5880eb"/>
        <path id="Trazado_876578" data-name="Trazado 876578" d="M77.837,160.912c-3.431,12.758-6.261,25.569-8.517,38.613q-.876-.509-1.731-1.058c2.242-12.845,5.042-25.473,8.425-38.046,4.791-17.8-16.725-83.281-16.943-83.945a.944.944,0,0,1,1.793-.592c.894,2.717,21.91,66.678,16.972,85.028" transform="translate(1.037 41.979)" fill="#1c2b74"/>
        <path id="Trazado_876579" data-name="Trazado 876579" d="M128.9,155.842a80.716,80.716,0,0,1-26.629,3.471,123.022,123.022,0,0,1-27.1-3.685.965.965,0,1,1,.519-1.859,121.06,121.06,0,0,0,26.661,3.614c13.419.284,31.966-1.933,44.122-14.1a.965.965,0,1,1,1.366,1.363,46.827,46.827,0,0,1-18.943,11.2" transform="translate(9.657 79.787)" fill="#1c2b74"/>
        <path id="Trazado_876580" data-name="Trazado 876580" d="M137.713,114.642c.028.294.065.6.108.93-5.5,1.229-12.588,1.391-20.923-.235a47.59,47.59,0,0,0-29.982,4.446.82.82,0,0,1-.408.111.833.833,0,0,1-.72-.413.825.825,0,0,1,.307-1.126,48.458,48.458,0,0,1,31.12-4.637c8.64,1.684,15.841,1.421,21.221.045-.463.5-.735.765-.735.765,0,.036.008.073.012.114" transform="translate(15.909 62.984)" fill="#1c2b74"/>
        <path id="Trazado_876581" data-name="Trazado 876581" d="M111.137,81.272c-10.055,0-30.572-14.4-31.44-15.014a.826.826,0,0,1,.952-1.349c.209.148,20.955,14.712,30.488,14.712,9.12,0,11.143-9.963,11.163-10.064a.825.825,0,1,1,1.62.312c-.022.114-2.314,11.4-12.783,11.4" transform="translate(12.377 36.131)" fill="#1c2b74"/>
        <path id="Trazado_876582" data-name="Trazado 876582" d="M207.835,75.424S202.351,88.8,194.882,90.217c-6.288,1.192-14.766-10-14.766-10-3.18-5.381-3.336-8.268-3.541-13.871s9.158-9.719,9.158-9.719,10.6-19.711,14.252-20.688-4.171,18.6-4.171,18.6a3.59,3.59,0,0,1,3.438-.114c2.751,1.221,8.743,6.539,11,10.466,2.021,3.515-2.419,10.532-2.419,10.532" transform="translate(66.624 20.032)" fill="#eaad8f"/>
        <path id="Trazado_876583" data-name="Trazado 876583" d="M178.5,61.537c4.292-.913,9.745-1.662,13.149-4.691,1.259-1.12,2.5-3.079,1.612-4.775-.855-1.645-3.177-1.862-4.764-2.208-.763-.167-1.089,1.006-.323,1.173,1.636.357,4.225.48,3.982,2.658-.224,2.005-2.405,3.152-4.073,3.892a49.626,49.626,0,0,1-9.909,2.778c-.765.164-.441,1.335.324,1.173" transform="translate(67.276 27.812)" fill="#b4665e"/>
        <path id="Trazado_876584" data-name="Trazado 876584" d="M186.988,53.763A34.808,34.808,0,0,0,201.2,64.736c.72.3,1.035-.872.324-1.172a33.273,33.273,0,0,1-13.489-10.415c-.471-.612-1.527-.006-1.05.614" transform="translate(72.369 29.513)" fill="#b4665e"/>
        <path id="Trazado_876585" data-name="Trazado 876585" d="M190.824,58.029a14.724,14.724,0,0,0-5.546,13.28c.076.771,1.293.779,1.217,0a13.633,13.633,0,0,1,5.19-12.42c.608-.492-.257-1.349-.86-.86" transform="translate(71.437 32.296)" fill="#b4665e"/>
        <path id="Trazado_876586" data-name="Trazado 876586" d="M189.384,58.021c1.581-2.979,3.273-6.054,5.889-8.256.6-.5-.265-1.362-.86-.86-2.691,2.264-4.453,5.439-6.079,8.5-.366.69.682,1.306,1.05.614" transform="translate(73.145 27.202)" fill="#b4665e"/>
        <path id="Trazado_876587" data-name="Trazado 876587" d="M191.883,60.817a33.186,33.186,0,0,1,5.955-8.528c.539-.569-.319-1.429-.86-.86a34.288,34.288,0,0,0-6.145,8.774c-.335.7.714,1.321,1.05.614" transform="translate(74.546 28.591)" fill="#b4665e"/>
        <path id="Trazado_876588" data-name="Trazado 876588" d="M194.422,61.118l-.17.263L195.3,62a17.631,17.631,0,0,1,4.777-6.707c.592-.514-.271-1.371-.86-.86a18.3,18.3,0,0,0-4.965,6.953A.608.608,0,0,0,195.3,62c.058-.087.114-.176.171-.263.427-.659-.625-1.268-1.05-.614" transform="translate(76.456 30.281)" fill="#b4665e"/>
        <path id="Trazado_876589" data-name="Trazado 876589" d="M189.087,48.131a15.3,15.3,0,0,0-2.3,4.733.608.608,0,0,0,1.172.323,14.327,14.327,0,0,1,2.183-4.442c.449-.643-.6-1.253-1.05-.614" transform="translate(72.309 26.704)" fill="#b4665e"/>
        <path id="Trazado_876590" data-name="Trazado 876590" d="M91.893,64.513A16.7,16.7,0,0,0,69.17,68.179c-.531.706-1.016,1.34-1.5,2.014L66.2,72.175c-.974,1.324-1.926,2.656-2.885,3.987a.163.163,0,0,1-.026.033c-.265.371-.534.745-.8,1.119-.044.059-.083.117-.123.174-1.591,2.225-3.138,4.471-4.7,6.716-1.874,2.688-3.688,5.417-5.517,8.148l-2.722,4.113-2.683,4.15-.055.086q-.4.622-.791,1.242-3.024,4.749-5.958,9.62c-.2.33-.4.664-.6,1q-1.514,2.529-3,5.1c-1.678,2.926-3.343,5.891-4.962,8.977-.805,1.547-1.611,3.119-2.4,4.742-.224.458-.444.919-.668,1.385-.154.324-.305.65-.46.98-.411.886-.819,1.8-1.223,2.748-.382.9-.767,1.838-1.15,2.842s-.763,2.06-1.139,3.275c-.154.508-.313,1.036-.463,1.616-.223.809-.432,1.715-.626,2.807a24.853,24.853,0,0,0-.363,3.535l0,.274,0,.315.012.628c.006.248.016.327.02.467l.033.385.065.774.044.383.047.344c.064.449.136.9.218,1.354.081.413.168.81.256,1.215s.193.759.29,1.123l.148.542.079.271.076.248.322.988c.106.337.221.612.333.921.221.623.45,1.176.682,1.732a52.061,52.061,0,0,0,2.912,5.822c.179.312.358.623.539.93,1.44,2.444,2.92,4.666,4.423,6.783.215.3.43.6.643.9.193.263.382.527.573.785,1.988,2.709,4.032,5.274,6.095,7.762.126.157.256.31.385.466.159.19.319.377.478.567,4.256,5.042,8.655,9.773,13.171,14.361.8.816,1.608,1.62,2.426,2.423q.486.486.989.972c1.226,1.209,2.471,2.4,3.713,3.591q1.82,1.708,3.658,3.4c.617.561,1.24,1.114,1.863,1.669l.947.841.985.858a11.132,11.132,0,0,0,16.265-15.008l-.156-.206L79.839,191.9q-.752-1.007-1.493-2.016c-.232-.315-.463-.629-.695-.941q-1.7-2.325-3.384-4.654c-3.242-4.481-6.422-8.974-9.416-13.458-.234-.351-.467-.706-.7-1.059l-.477-.724c-.748-1.12-1.469-2.242-2.176-3.361-.227-.358-.45-.718-.673-1.078-.645-1.039-1.276-2.077-1.888-3.1-.735-1.24-1.427-2.477-2.074-3.68s-1.237-2.376-1.742-3.485c-.361-.812-.689-1.6-.935-2.276.106-.235.229-.5.363-.791.234-.489.5-1.03.788-1.588.58-1.123,1.228-2.342,1.927-3.571s1.438-2.5,2.2-3.769c.71-1.184,1.443-2.381,2.187-3.577.224-.36.45-.723.678-1.083q.958-1.531,1.947-3.063c1.661-2.6,3.371-5.2,5.1-7.8s3.495-5.21,5.257-7.821l3.47-5.09.676-1,1.195-1.75,5.4-7.833L90.8,95.49l5.361-7.79.014-.02a16.653,16.653,0,0,0-4.278-23.167M53.86,150.77l.006.083.008.17.006.093a22.239,22.239,0,0,1-.125-.492c0-.055-.017-.114-.028-.171l-.008-.044,0-.023v-.044c.006-.028,0-.07.012-.048.012.006.016.006.022.022a.609.609,0,0,1,.05.162l.008.044.017.081c.012.055.02.114.028.168" transform="translate(-19.13 34.363)" fill="#314fa5"/>
        <path id="Trazado_876591" data-name="Trazado 876591" d="M54.349,83.082c-2.477,6.69-9.233,13.4-16.694,13.629q.393-.622.793-1.242c6.7-.67,12.624-6.849,14.841-12.912a19.587,19.587,0,0,0,.835-10.3c.041-.058.079-.115.123-.174.262-.374.531-.748.8-1.119a20.966,20.966,0,0,1-.7,12.119" transform="translate(-10.886 39.594)" fill="#5880eb"/>
        <path id="Trazado_876592" data-name="Trazado 876592" d="M66.269,95.53l-.676,1a10.308,10.308,0,0,0-9.606-2.251c-4.454,1.223-7.651,5.327-8.831,9.653-1.574,5.782-.055,11.3,2.661,16.376-.227.36-.455.723-.678,1.083-3.541-6.427-5.43-13.528-2.083-20.559,1.932-4.06,5.635-7.425,10.212-8a11.492,11.492,0,0,1,9,2.7" transform="translate(-6.615 51.742)" fill="#5880eb"/>
        <path id="Trazado_876593" data-name="Trazado 876593" d="M57.735,128.788c-.989.312-1.976.6-2.945.854-8.111,2.159-18.381,4.222-24.526,10.426-.213-.3-.428-.6-.643-.9,5.006-4.925,12.442-7.475,19.179-9.212,2.6-.668,5.43-1.377,8.262-2.245.223.358.446.72.673,1.077" transform="translate(-15.369 71.258)" fill="#5880eb"/>
        <path id="Trazado_876594" data-name="Trazado 876594" d="M64.527,151.137A15.015,15.015,0,0,1,61.6,152.75c-3.792,1.544-7.89,1-10.438-2.4-3.7-4.925-5.215-14.512-.829-19.323.235.355.469.71.7,1.061-3.957,4.677-2.279,13.959,1.631,18.22,3.088,3.367,7.818,2.18,11.169-.111.232.312.463.628.695.943" transform="translate(-5.31 73.106)" fill="#5880eb"/>
        <path id="Trazado_876595" data-name="Trazado 876595" d="M51.763,160.035q-.5-.486-.989-.972a14.267,14.267,0,0,0-6.17-14.857,13.42,13.42,0,0,0-9.427-1.927c-.159-.19-.318-.377-.478-.567-.129-.156-.259-.31-.383-.466a14.554,14.554,0,0,1,10.946,1.974,15.517,15.517,0,0,1,6.5,16.815" transform="translate(-12.75 78.626)" fill="#5880eb"/>
        <path id="Trazado_876596" data-name="Trazado 876596" d="M40.487,109a12.567,12.567,0,0,1-14.417,6.843c.154-.332.305-.657.46-.98a11,11,0,0,0,4.725.092,11.714,11.714,0,0,0,8.87-8.46c1.137-4.467-.151-8.4-2.564-11.834.2-.333.4-.667.6-1,3.325,4.464,4.982,9.664,2.328,15.337" transform="translate(-17.35 52.261)" fill="#5880eb"/>
        <path id="Trazado_876597" data-name="Trazado 876597" d="M61.932,100.738a.758.758,0,0,0,.575-.329c5-7.285,18.833-25.781,18.971-25.967a.762.762,0,1,0-1.221-.913c-.139.185-13.986,18.707-19.006,26.016a.762.762,0,0,0,.681,1.192" transform="translate(2.205 40.855)" fill="#1c2b74"/>
        <path id="Trazado_876598" data-name="Trazado 876598" d="M22.891,122.186c.006.246.017.327.025.466l.028.385.069.773.041.385.05.343c.064.453.137.905.217,1.355.081.411.168.81.259,1.214s.189.762.288,1.128l.15.542.078.27.076.248.322.985c.106.337.218.615.332.924.223.62.452,1.173.682,1.732a53.163,53.163,0,0,0,2.91,5.822q.271.47.542.93c.759-12.2-2.05-20.146-5.085-25.06-.22.807-.432,1.717-.626,2.8a24.742,24.742,0,0,0-.36,3.537l-.006.274v.315Z" transform="translate(-19.129 63.957)" fill="#1c2b74"/>
        <path id="Trazado_876599" data-name="Trazado 876599" d="M46.52,121.518a.652.652,0,0,0,.355-1.184,24.188,24.188,0,0,0-10.382-4.01.652.652,0,0,0-.117,1.3c4.995.449,9.7,3.742,9.745,3.775a.646.646,0,0,0,.4.12" transform="translate(-11.93 64.903)" fill="#1c2b74"/>
        <path id="Trazado_876600" data-name="Trazado 876600" d="M43.723,121.49a.685.685,0,0,0,.212-.044.652.652,0,0,0,.374-.843,15.861,15.861,0,0,0-3.7-5.082.652.652,0,1,0-.876.967,14.8,14.8,0,0,1,3.357,4.584.653.653,0,0,0,.631.418" transform="translate(-9.845 64.362)" fill="#1c2b74"/>
        <path id="Trazado_876601" data-name="Trazado 876601" d="M68.817,148.109a56.627,56.627,0,0,1,8.622.562c3.46.628,4.476,1.887,4.476,1.887l.372,6.389a25.612,25.612,0,0,1,8.1,1c4.11,1.254,7.04,4.663,8.905,6.011s-1.415,3.3-4.814,2.005a27.5,27.5,0,0,0-7.7-1.824,25.615,25.615,0,0,1,6.584,3.068c2.362,1.795,7.57,4.909,7.067,6.98s-5.419-.427-8.913-1.541-4.959-2.136-8-2.41a19.787,19.787,0,0,1,4.864,3.141c1.528,1.609,4.565,4.432,5.286,5.99s-3.323,1.969-6.526-.05-4.521-4.545-6.874-4.381a45.8,45.8,0,0,1,3.287,3.836c1.212,1.673,2.519,6.713.726,7.252s-5.992-5.44-8.955-6.416a151.006,151.006,0,0,1-15.444-6.261,17.156,17.156,0,0,1-8.416-8.681,3.863,3.863,0,0,1,.064-3.248,24.893,24.893,0,0,1,17.292-13.308" transform="translate(-3.365 82.638)" fill="#eaad8f"/>
        <path id="Trazado_876602" data-name="Trazado 876602" d="M103.736,8.2s-22.108-4.984-30.7,9.123S74.451,53.5,74.451,53.5s-.8,5.74-12.336,10.406-6.173,23.159,5.73,20.562c0,0,4.235,16.979,17,7.4S116.924,85,116.924,85s7.2,6.137,15.548,1.963S134.928,76.4,134.928,76.4s8.653,3.893,13.757-4.409c5.417-8.812-9.061-15.4-10.32-19.9C133.8,35.771,140.186,39.237,146.5,30.22c7.709-11.012-6.949-20.135-13.372-11.956,0,0,9.625-9.631-1.441-16.518-10.111-6.293-27.95,6.45-27.95,6.45" transform="translate(-0.81 0)" fill="#171612"/>
        <path id="Trazado_876603" data-name="Trazado 876603" d="M103.7,27.181s3.124-.048,4.127,3.842-.305,10.689-4.387,10.293.26-14.135.26-14.135" transform="translate(24.841 15.165)" fill="#c6695d"/>
        <path id="Trazado_876604" data-name="Trazado 876604" d="M97.478,42.915a8.688,8.688,0,1,1,8.689,8.687,8.7,8.7,0,0,1-8.689-8.687m1.574,0a7.115,7.115,0,1,0,7.115-7.115,7.124,7.124,0,0,0-7.115,7.115" transform="translate(22.493 19.097)" fill="#fff"/>
        <line id="Línea_721" data-name="Línea 721" y2="0.003" transform="translate(120.758 74.162)" fill="#eaad8f"/>
        <path id="Trazado_876605" data-name="Trazado 876605" d="M77.684,66.663s6.444,9.627,18.185,10.117c14.916.623,15.949-5.883,15.949-5.883a27.939,27.939,0,0,1-1.79-5.972c-.148-.8-.271-1.617-.369-2.469a67.951,67.951,0,0,1-.368-7.855q0-1.045.019-2.166v-.087C98.883,50.973,90.093,47.3,83.628,40.374l-1.62-.756-1.092-.513-.129.614.388,1.871c1.846,8.8.59,16.373-3.49,25.072" transform="translate(11.449 21.819)" fill="#eaad8f"/>
        <path id="Trazado_876606" data-name="Trazado 876606" d="M86.537,44.482c2.645,4.641,8.511,12.725,18.181,14.975a67.953,67.953,0,0,1-.368-7.855c0-.695.006-1.419.019-2.164-.2.044-.4.081-.608.115-5.509.932-11.827-1.315-17.225-5.071" transform="translate(16.388 24.819)" fill="#171612"/>
        <path id="Trazado_876607" data-name="Trazado 876607" d="M76.639,62.138S78,49.523,80.071,49.29s9.373,8.027,18.812,7.488,11.471-7.232,13.515-4.492,2.664,12.093,2.664,12.093-1.293,8.36-11.911,9.011S78.518,65.739,76.639,62.138" transform="translate(10.866 27.499)" fill="#314fa5"/>
        <path id="Trazado_876608" data-name="Trazado 876608" d="M81.164,50.721c-2.48,4.186-3.132,9.136-3.149,13.928a.807.807,0,0,0,1.613,0c.016-4.513.59-9.169,2.929-13.115a.807.807,0,0,0-1.393-.813" transform="translate(11.633 28.084)" fill="#5880eb"/>
        <path id="Trazado_876609" data-name="Trazado 876609" d="M83.954,52.656a36.711,36.711,0,0,0-2.513,14.589.807.807,0,0,0,1.612,0,35.571,35.571,0,0,1,2.455-14.16c.4-.957-1.162-1.374-1.555-.428" transform="translate(13.545 29.082)" fill="#5880eb"/>
        <path id="Trazado_876610" data-name="Trazado 876610" d="M87.217,54.156a90.605,90.605,0,0,0-1.388,14.765.807.807,0,0,0,1.612,0,87.943,87.943,0,0,1,1.331-14.336c.179-1.014-1.374-1.45-1.555-.428" transform="translate(15.993 29.891)" fill="#5880eb"/>
        <path id="Trazado_876611" data-name="Trazado 876611" d="M90.28,55q.028,7.836.055,15.672a.807.807,0,0,0,1.612,0Q91.919,62.837,91.893,55a.807.807,0,0,0-1.613,0" transform="translate(18.477 30.253)" fill="#5880eb"/>
        <path id="Trazado_876612" data-name="Trazado 876612" d="M99.784,70.189q-.5,0-1.011-.02C87.17,69.7,76.9,59.616,76.47,59.188a.811.811,0,0,1,1.144-1.15c.1.1,10.261,10.071,21.226,10.51,12.051.474,15.382-8.148,15.517-8.516a.811.811,0,0,1,1.524.556c-.036.1-3.647,9.6-16.1,9.6" transform="translate(10.638 32.251)" fill="#5880eb"/>
        <path id="Trazado_876613" data-name="Trazado 876613" d="M94.2,54.357a53.3,53.3,0,0,1,2.187,15.128.806.806,0,0,0,1.611,0,54.826,54.826,0,0,0-2.243-15.556.807.807,0,0,0-1.555.428" transform="translate(20.644 29.774)" fill="#5880eb"/>
        <path id="Trazado_876614" data-name="Trazado 876614" d="M97.454,52.5a38.364,38.364,0,0,1,2.792,14.21.807.807,0,0,0,1.613,0,39.609,39.609,0,0,0-2.85-14.639c-.382-.952-1.941-.536-1.555.428" transform="translate(22.446 28.755)" fill="#5880eb"/>
        <path id="Trazado_876615" data-name="Trazado 876615" d="M70.857,42.326C71.07,47.878,76.032,54.5,83.3,54.42H83.5c.129.315.277.622.432.936.065.136.136.274.2.41a.233.233,0,0,0,.022.037C89.041,65.063,102.7,70.1,109.972,70.015a16.583,16.583,0,0,0,4.878-.824c7.642-1.969,8.683-12.437,7.17-20.35a30.6,30.6,0,0,0-.812-3.247c-.022-.069-.045-.139-.067-.207,0,0,2.156-11.231,2.574-16.111.805-9.458-4.961-18.816-25.675-19.9S72.866,21.287,71.678,28.14c-.2,1.142.287,7.88,1.457,8.926-1.919,1.072-2.349,3.393-2.278,5.26" transform="translate(7.635 5.193)" fill="#eaad8f"/>
        <path id="Trazado_876616" data-name="Trazado 876616" d="M91.586,30.529c-.044,1.429.523,2.606,1.267,2.628s1.379-1.119,1.421-2.547-.523-2.6-1.265-2.628-1.38,1.119-1.422,2.547" transform="translate(19.204 15.612)" fill="#171612"/>
        <path id="Trazado_876617" data-name="Trazado 876617" d="M96.49,28.852a.378.378,0,0,0,.022-.675c-.153-.084-3.781-2.039-6.575.379a.378.378,0,1,0,.5.572c2.4-2.077,5.682-.305,5.715-.287a.376.376,0,0,0,.343.011" transform="translate(18.212 15.261)" fill="#171612"/>
        <path id="Trazado_876618" data-name="Trazado 876618" d="M99.576,30.905c-.042,1.429.523,2.606,1.267,2.628s1.379-1.119,1.422-2.547S101.74,28.38,101,28.358s-1.379,1.119-1.422,2.547" transform="translate(23.662 15.822)" fill="#171612"/>
        <path id="Trazado_876619" data-name="Trazado 876619" d="M104.882,29.785a.39.39,0,0,0,.192-.136.38.38,0,0,0-.078-.53c-.142-.1-3.47-2.535-6.567-.516a.379.379,0,1,0,.414.634c2.659-1.734,5.669.467,5.7.489a.382.382,0,0,0,.34.058" transform="translate(22.928 15.513)" fill="#171612"/>
        <path id="Trazado_876620" data-name="Trazado 876620" d="M78.843,39.2h.195c.129.315.277.623.432.938.065.136.136.273.2.408a.337.337,0,0,0,.022.039,6.7,6.7,0,0,0,2.762-1.218A5.3,5.3,0,0,0,83.877,37.7a.751.751,0,0,0-1.315-.724,4.04,4.04,0,0,1-1.728,1.633,5.329,5.329,0,0,1-1.293.46,6.13,6.13,0,0,1-.7.126" transform="translate(12.095 20.416)" fill="#c6695d"/>
        <g id="Grupo_1100637" data-name="Grupo 1100637" transform="translate(125.368 50.787)" opacity="0.5">
          <g id="Grupo_1100636" data-name="Grupo 1100636">
            <g id="Grupo_1100635-2" data-name="Grupo 1100635" clip-path="url(#clip-path)">
              <path id="Trazado_876621" data-name="Trazado 876621" d="M100.943,34.414c.047.824,1.885,1.41,4.284,1.432a30.214,30.214,0,0,0-.812-3.247c-2.057.343-3.516,1.063-3.473,1.815" transform="translate(-100.942 -32.599)" fill="#c6695d"/>
            </g>
          </g>
        </g>
        <path id="Trazado_876622" data-name="Trazado 876622" d="M75.187,36.891c.47.329.938.661,1.418.975a7.111,7.111,0,1,0,4-.823,1.716,1.716,0,0,1-1.038-1.594q.2-.009.407-.009a8.716,8.716,0,1,1-4.786,1.45" transform="translate(7.879 19.774)" fill="#fff"/>
        <path id="Trazado_876623" data-name="Trazado 876623" d="M97.254,41.864a2.589,2.589,0,0,1-1.577-.7.436.436,0,0,1,.623-.609,1.771,1.771,0,0,0,1.96.257.436.436,0,0,1,.347.8,2.851,2.851,0,0,1-1.354.248" transform="translate(21.419 22.557)" fill="#c6695d"/>
        <path id="Trazado_876624" data-name="Trazado 876624" d="M98.65,40.781l-.075-.006A5.513,5.513,0,0,1,94.134,38a.674.674,0,0,1,1.206-.6,4.17,4.17,0,0,0,3.35,2.03l.061,0a4.088,4.088,0,0,0,3.465-1.116.675.675,0,0,1,1.052.846,5.414,5.414,0,0,1-4.616,1.616" transform="translate(20.587 20.66)" fill="#c6695d"/>
        <path id="Trazado_876625" data-name="Trazado 876625" d="M98.841,39.007a.629.629,0,0,0,.338-.1l2.765-1.764a.629.629,0,0,0-.039-1.084,9.062,9.062,0,0,1-4.481-6.213.63.63,0,0,0-1.22.315,10.479,10.479,0,0,0,4.21,6.466L98.5,37.848a.629.629,0,0,0,.34,1.159" transform="translate(21.772 16.39)" fill="#b4665e"/>
        <path id="Trazado_876626" data-name="Trazado 876626" d="M97.029,25.342a1.529,1.529,0,0,0,.936-2.853,4.441,4.441,0,0,0-3.091-.363,11.091,11.091,0,0,0-7.662,6.216s5.165-2.829,8.1-3.043a8.534,8.534,0,0,1,1.714.042" transform="translate(16.765 12.278)" fill="#171612"/>
        <path id="Trazado_876627" data-name="Trazado 876627" d="M99.856,25.517a1.528,1.528,0,0,1-.936-2.851,4.432,4.432,0,0,1,3.091-.365c5.643,1.179,6.009,5.21,6.009,5.21a20.285,20.285,0,0,0-6.45-2.036,8.538,8.538,0,0,0-1.714.042" transform="translate(22.855 12.376)" fill="#171612"/>
        <g id="Grupo_1100640" data-name="Grupo 1100640" transform="translate(102.087 51.769)" opacity="0.5">
          <g id="Grupo_1100639" data-name="Grupo 1100639">
            <g id="Grupo_1100638" data-name="Grupo 1100638" clip-path="url(#clip-path-2)">
              <path id="Trazado_876628" data-name="Trazado 876628" d="M96.458,34.663c.053.941-2.245,1.834-5.133,2S86.052,36.191,86,35.251s2.247-1.834,5.133-2,5.272.467,5.325,1.408" transform="translate(-85.999 -33.229)" fill="#c6695d"/>
            </g>
          </g>
        </g>
        <path id="Trazado_876629" data-name="Trazado 876629" d="M82.31,38.786a.747.747,0,0,1-.637-.575c-1.2-5.186-7.52-7.209-7.584-7.229a.749.749,0,0,1,.442-1.432c.294.09,7.206,2.289,8.6,8.323a.752.752,0,0,1-.824.913" transform="translate(9.148 16.468)" fill="#c6695d"/>
        <path id="Trazado_876630" data-name="Trazado 876630" d="M75.157,35.016A.75.75,0,0,1,74.6,33.9a5.144,5.144,0,0,1,4.439-2.412.75.75,0,0,1,0,1.5,3.648,3.648,0,0,0-3.127,1.644.75.75,0,0,1-.748.379" transform="translate(9.672 17.571)" fill="#c6695d"/>
        <path id="Trazado_876631" data-name="Trazado 876631" d="M97.359,21.172s1.362,5.821-3.46,9.387a28.439,28.439,0,0,1-6.434,3.823s7.413,15.837,1.4,18.409S82.888,37.7,73.5,37.616c0,0-3.407-.57-3.3-6.489S79.686,8.01,95.13,8.325s29.43,7.341,30.407,18.143-1.435,8.778-1.435,8.778.838-6.346-6.794-10.77c-6.332-3.671-19.948-3.3-19.948-3.3" transform="translate(7.27 4.642)" fill="#171612"/>
        <path id="Trazado_876632" data-name="Trazado 876632" d="M70.537,184.009l-7.251-13.791a5.131,5.131,0,0,1,4.6-7.52l113.981,1.229L178.5,181.583Z" transform="translate(3.082 90.779)" fill="#171612"/>
        <path id="Trazado_876633" data-name="Trazado 876633" d="M173.724,199.646h-102a3.916,3.916,0,0,1-3.967-4.457l6.955-63.021a5.107,5.107,0,0,1,4.95-4.457h102a3.914,3.914,0,0,1,3.965,4.457l-6.955,63.021a5.1,5.1,0,0,1-4.948,4.457" transform="translate(5.892 71.257)" fill="#fff"/>
        <path id="Trazado_876634" data-name="Trazado 876634" d="M69.622,200.42a.827.827,0,0,1-.107-.006.861.861,0,0,1-.748-.961l8.468-67.5a.86.86,0,0,1,1.708.213l-8.468,67.5a.86.86,0,0,1-.852.754" transform="translate(6.469 73.202)" fill="#171612"/>
        <path id="Trazado_876635" data-name="Trazado 876635" d="M101.175,154.6a8.98,8.98,0,0,0,8.327,9.742,9.268,9.268,0,0,0,9.74-8.589,8.98,8.98,0,0,0-8.327-9.742,9.268,9.268,0,0,0-9.74,8.589" transform="translate(24.54 81.458)" fill="#171612"/>
        <path id="Trazado_876636" data-name="Trazado 876636" d="M174.456,181.513H71.045a3.753,3.753,0,0,1-3.717-4.259l.985-7.206H179.3l-1.122,8.221a3.752,3.752,0,0,1-3.717,3.244" transform="translate(5.651 94.88)" fill="#171612"/>
      </g>
    </g>
    <g id="Grupo_1100643" data-name="Grupo 1100643" transform="translate(352.66 506.496)">
      <g id="Grupo_1100642" data-name="Grupo 1100642" transform="translate(0 0)" clip-path="url(#clip-path-3)">
        <path id="Trazado_876637" data-name="Trazado 876637" d="M45.438,26.346A22.035,22.035,0,1,1,28.135.429a22.035,22.035,0,0,1,17.3,25.917" transform="translate(0.507 0)" fill="#539380"/>
        <path id="Trazado_876638" data-name="Trazado 876638" d="M14.772,28.882a2.1,2.1,0,0,1-.427-.044,2.131,2.131,0,0,1-1.47-1.117l-2.453-4.8a2.131,2.131,0,1,1,3.794-1.941l1.24,2.423L30.025,11.285a2.131,2.131,0,0,1,2.726,3.276L16.135,28.389a2.136,2.136,0,0,1-1.363.493" transform="translate(2.889 3.06)" fill="#fff"/>
        <path id="Trazado_876639" data-name="Trazado 876639" d="M43.611,22.277a.55.55,0,0,1,.53.689A24.4,24.4,0,0,1,18.319,41.079.564.564,0,0,1,17.8,40.6a.545.545,0,0,1,.589-.612,23.3,23.3,0,0,0,24.69-17.3.547.547,0,0,1,.529-.413" transform="translate(5.048 6.318)" fill="#539380"/>
        <path id="Trazado_876640" data-name="Trazado 876640" d="M5.589,23.148.1,36.843a1.313,1.313,0,0,0,1.66,1.724l14.563-5.193Z" transform="translate(0 6.565)" fill="#539380"/>
      </g>
    </g>
    <path id="Trazado_873506" data-name="Trazado 873506" d="M31.976,68.829a36.854,36.854,0,0,1,73.708,0H137.66A68.83,68.83,0,0,0,0,68.829Z" transform="translate(308.051 756.78)" fill="#fdb641"/>
  </g>
</svg>
