<svg xmlns="http://www.w3.org/2000/svg" width="85" height="85" viewBox="0 0 85 85">
  <g id="_120" data-name="120" transform="translate(-599.66 -1032)">
    <ellipse id="Elipse_11496" data-name="Elipse 11496" cx="42.5" cy="42.5" rx="42.5" ry="42.5" transform="translate(599.66 1032)" fill="#b15815"/>
    <g id="presupuesto_1_" data-name="presupuesto (1)" transform="translate(612.66 1045)">
      <g id="Grupo_1100659" data-name="Grupo 1100659" transform="translate(10.323 0.944)">
        <g id="Grupo_1100647" data-name="Grupo 1100647" transform="translate(19.875 16.042)">
          <path id="Trazado_876641" data-name="Trazado 876641" d="M266.336,154.087h0a4.714,4.714,0,0,1-1.986,3.227A24,24,0,0,0,256,154.38v-1.887a5.867,5.867,0,0,0,4.717-5.662h.945A2.832,2.832,0,0,0,264.493,144v.5a6.829,6.829,0,0,0,3.775,6.108v.485A3.287,3.287,0,0,1,266.336,154.087Z" transform="translate(-256 -144)" fill="#656d78"/>
        </g>
        <g id="Grupo_1100648" data-name="Grupo 1100648" transform="translate(1.945 16.042)">
          <path id="Trazado_876642" data-name="Trazado 876642" d="M105.932,154.087a3.289,3.289,0,0,1-1.932-3v-.485a6.83,6.83,0,0,0,3.775-6.108V144a2.832,2.832,0,0,0,2.831,2.831h.945a5.868,5.868,0,0,0,4.717,5.662v1.887a23.992,23.992,0,0,0-7.814,2.635q-.271.147-.536.3h0a4.714,4.714,0,0,1-1.986-3.227Z" transform="translate(-104 -144)" fill="#656d78"/>
        </g>
        <g id="Grupo_1100649" data-name="Grupo 1100649" transform="translate(5.72)">
          <path id="Trazado_876643" data-name="Trazado 876643" d="M154.874,19.324h-3.913a2.83,2.83,0,0,1-2.531-1.565l-.347-.694a2.743,2.743,0,0,0-4.393-.712l-.14.14-.357-.357a2,2,0,0,0-1.423-.586h-.032a1.965,1.965,0,0,0-1.964,1.964v3.7h-.943A2.831,2.831,0,0,0,136,24.042V16.493A8.494,8.494,0,0,1,144.493,8h5.662a8.494,8.494,0,0,1,8.493,8.493v7.549a2.831,2.831,0,0,0-2.831-2.831h-.944Z" transform="translate(-136 -8)" fill="#656d78"/>
        </g>
        <g id="Grupo_1100650" data-name="Grupo 1100650" transform="translate(0 27.035)">
          <path id="Trazado_876644" data-name="Trazado 876644" d="M123.885,266.775h.486v.944h-36.8l-.058-23.45a24.016,24.016,0,0,1,5.864-4.755q.265-.154.536-.3a23.972,23.972,0,0,1,4.983-2.023v2.019a12.708,12.708,0,0,0,.366,3.03h0a12.706,12.706,0,0,0,5.3,7.549,12.711,12.711,0,0,0,5.3-7.549h0a12.708,12.708,0,0,0,.366-3.03V237.19a24,24,0,0,1,11.807,7.564h0a1.887,1.887,0,0,0,1.4,3.147l-5.2,5.2a8.007,8.007,0,0,0,5.662,13.669Z" transform="translate(-87.51 -237.19)" fill="#ff826e"/>
        </g>
        <g id="Grupo_1100651" data-name="Grupo 1100651" transform="translate(11.749 32.085)">
          <path id="Trazado_876645" data-name="Trazado 876645" d="M187.11,280H197.7a12.711,12.711,0,0,1-5.3,7.549,12.706,12.706,0,0,1-5.3-7.549Z" transform="translate(-187.11 -280)" fill="#e6e9ed"/>
        </g>
        <g id="Grupo_1100652" data-name="Grupo 1100652" transform="translate(32.143 28.31)">
          <path id="Trazado_876646" data-name="Trazado 876646" d="M370.065,248.51a3.416,3.416,0,0,1,1.259,1.378,16.468,16.468,0,0,0-2.928,3.975,1.888,1.888,0,0,0-2.734,1.687,1.888,1.888,0,0,0-2.734-1.687A16.5,16.5,0,0,0,360,249.887l.185-.372a2.743,2.743,0,0,1,4.393-.712l.14.14A3.222,3.222,0,0,1,367,248h1.274A3.418,3.418,0,0,1,370.065,248.51Z" transform="translate(-360 -248)" fill="#a0d468"/>
        </g>
        <g id="Grupo_1100653" data-name="Grupo 1100653" transform="translate(28.368 35.86)">
          <path id="Trazado_876647" data-name="Trazado 876647" d="M335.549,313.887A1.887,1.887,0,0,0,337.437,312v3.775a1.887,1.887,0,1,0,3.775,0l3.317,3.317a8.007,8.007,0,0,1-5.662,13.669h-2.859a8.008,8.008,0,0,1-5.662-13.669Z" transform="translate(-328 -312)" fill="#b4dd7f"/>
        </g>
        <g id="Grupo_1100654" data-name="Grupo 1100654" transform="translate(37.805 33.972)">
          <path id="Trazado_876648" data-name="Trazado 876648" d="M411.775,297.887v3.775a1.887,1.887,0,1,1-3.775,0v-3.775a1.887,1.887,0,1,1,3.775,0Z" transform="translate(-408 -296)" fill="#f0d0b4"/>
        </g>
        <g id="Grupo_1100655" data-name="Grupo 1100655" transform="translate(34.03 33.972)">
          <path id="Trazado_876649" data-name="Trazado 876649" d="M379.775,297.887a1.887,1.887,0,1,1-3.292-1.26h0a1.888,1.888,0,0,1,3.292,1.261Z" transform="translate(-376 -296)" fill="#f0d0b4"/>
        </g>
        <g id="Grupo_1100656" data-name="Grupo 1100656" transform="translate(24.592 13.211)">
          <path id="Trazado_876650" data-name="Trazado 876650" d="M295.991,125.569V120h.944a2.831,2.831,0,0,1,0,5.662h-.945C295.991,125.631,295.991,125.6,295.991,125.569Z" transform="translate(-295.99 -120)" fill="#f0d0b4"/>
        </g>
        <g id="Grupo_1100657" data-name="Grupo 1100657" transform="translate(9.493 7.549)">
          <path id="Trazado_876651" data-name="Trazado 876651" d="M167.99,77.662v-3.7A1.965,1.965,0,0,1,169.954,72h.032a2,2,0,0,1,1.423.586l.357.357.14-.14a2.743,2.743,0,0,1,4.393.712l.347.694a2.83,2.83,0,0,0,2.531,1.565h3.913v7.456c0,.031,0,.063,0,.093a5.868,5.868,0,0,1-4.717,5.662v1.887a23.869,23.869,0,0,1,2.831.612v2.019a12.708,12.708,0,0,1-.366,3.03H170.244a12.707,12.707,0,0,1-.366-3.03V91.486a23.871,23.871,0,0,1,2.831-.612V88.986a5.868,5.868,0,0,1-4.717-5.662c0-.031,0-.063,0-.093Z" transform="translate(-167.99 -72)" fill="#f0d0b4"/>
        </g>
        <g id="Grupo_1100658" data-name="Grupo 1100658" transform="translate(5.72 13.211)">
          <path id="Trazado_876652" data-name="Trazado 876652" d="M139.775,125.662h-.944a2.831,2.831,0,0,1,0-5.662h.943v5.569c0,.031,0,.063,0,.093Z" transform="translate(-136 -120)" fill="#f0d0b4"/>
        </g>
      </g>
      <g id="Grupo_1100660" data-name="Grupo 1100660" transform="translate(0 0)">
        <path id="Trazado_876653" data-name="Trazado 876653" d="M55.886,43.228l-3.04-3.04V36.8a2.82,2.82,0,0,0-.764-1.931,15.479,15.479,0,0,1,2.375-3.063l.481-.481-.3-.608a4.334,4.334,0,0,0-3.9-2.409H49.462a4.138,4.138,0,0,0-2.252.66,3.688,3.688,0,0,0-5.4,1.378l-.366.731q-.649-.483-1.328-.923a5.673,5.673,0,0,0,1.263-2.465,4.235,4.235,0,0,0,2.032-3.615V23.009l-.522-.261a5.853,5.853,0,0,1-3.253-5.263V9.437A9.447,9.447,0,0,0,30.2,0H24.535A9.447,9.447,0,0,0,15.1,9.437v8.048a5.853,5.853,0,0,1-3.253,5.264l-.522.261v1.068a4.235,4.235,0,0,0,2.032,3.615,5.672,5.672,0,0,0,1.265,2.467A24.93,24.93,0,0,0,10,34.014a3.785,3.785,0,0,0-.563-.042H7.549V30.2H5.662v3.775H0v7.549A3.779,3.779,0,0,0,3.775,45.3H9.437a1.89,1.89,0,0,1,1.887,1.887v5.662H3.775a1.89,1.89,0,0,1-1.887-1.887V49.071H0v1.887a3.779,3.779,0,0,0,3.775,3.775H5.662v3.775H7.549V54.733h5.662V47.184a3.779,3.779,0,0,0-3.775-3.775H3.775a1.89,1.89,0,0,1-1.887-1.887V35.86H9.437a1.89,1.89,0,0,1,1.887,1.887v1.887h1.887V37.747a3.769,3.769,0,0,0-1.378-2.914,23.142,23.142,0,0,1,8.927-5.571V30A13.629,13.629,0,0,0,26.423,41.07V58.508H28.31V41.07A13.629,13.629,0,0,0,33.972,30V29.26a23.063,23.063,0,0,1,9.689,6.377,2.825,2.825,0,0,0,.873,3.424l-4.166,4.166A8.951,8.951,0,0,0,46.7,58.508h2.859a8.951,8.951,0,0,0,6.329-15.28ZM46.24,37.747a.944.944,0,1,1,.944-.944A.945.945,0,0,1,46.24,37.747Zm2.831-.944a.944.944,0,1,1,1.887,0v3.775a.944.944,0,0,1-1.887,0ZM45.1,30.2a1.787,1.787,0,0,1,1.272.527l.808.808.667-.667a2.263,2.263,0,0,1,1.611-.667h1.274a2.456,2.456,0,0,1,1.853.834A17.363,17.363,0,0,0,50.4,34a2.818,2.818,0,0,0-2.278.7A2.818,2.818,0,0,0,45.85,34a17.37,17.37,0,0,0-2.231-3.019A1.788,1.788,0,0,1,45.1,30.2ZM41.52,24.15a2.347,2.347,0,0,1-4.572.669l-.194-.581-1.79.6.194.581a4.228,4.228,0,0,0,3.969,2.894,3.8,3.8,0,0,1-.678.859,24.942,24.942,0,0,0-7.309-2.6v-.364a6.842,6.842,0,0,0,4.638-5.446h.081a3.755,3.755,0,0,0,2.294-.78A7.717,7.717,0,0,0,41.52,24.15ZM35.86,18.874V15.1a1.887,1.887,0,1,1,0,3.775ZM24.535,1.887H30.2a7.558,7.558,0,0,1,7.549,7.549v4.283a3.751,3.751,0,0,0-1.887-.508V10.218A7.339,7.339,0,0,0,33.7,4.995L32.361,6.329a5.464,5.464,0,0,1,1.611,3.889v1.106H31a1.877,1.877,0,0,1-1.688-1.043l-.347-.693a3.688,3.688,0,0,0-5.343-1.419,2.936,2.936,0,0,0-1.814-.619H21.78a2.908,2.908,0,0,0-2.908,2.908v2.754a3.75,3.75,0,0,0-1.887.508V9.437a7.558,7.558,0,0,1,7.549-7.549ZM18.873,18.874a1.887,1.887,0,0,1,0-3.775Zm-3.268,9.436a4.228,4.228,0,0,0,3.969-2.894l.194-.581-1.79-.6-.194.581a2.347,2.347,0,0,1-4.572-.669,7.716,7.716,0,0,0,3.367-4.169,3.755,3.755,0,0,0,2.294.78h.08a6.843,6.843,0,0,0,4.638,5.446v.364a24.977,24.977,0,0,0-7.306,2.6,3.8,3.8,0,0,1-.681-.861ZM27.367,39.423a11.744,11.744,0,0,1-4.029-5.451H31.4a11.743,11.743,0,0,1-4.029,5.451ZM32.085,30a11.823,11.823,0,0,1-.185,2.086H22.834A11.825,11.825,0,0,1,22.648,30V28.707q1-.249,2.031-.408l.8-.123V24.706l-.759-.152a4.94,4.94,0,0,1-3.96-4.83V10.457a1.02,1.02,0,0,1,1.02-1.02h.031a1.06,1.06,0,0,1,.756.31l1.024,1.024.808-.808a1.8,1.8,0,0,1,2.881.468l.347.694A3.754,3.754,0,0,0,31,13.211h2.969v6.512a4.939,4.939,0,0,1-3.96,4.83l-.759.152v3.471l.8.123q1.028.158,2.031.407ZM49.557,56.621H46.7A7.064,7.064,0,0,1,41.7,44.562L46.663,39.6a2.8,2.8,0,0,0,.521-.131v1.106a2.83,2.83,0,0,0,5.089,1.705l2.279,2.279a7.064,7.064,0,0,1-4.995,12.058Z" transform="translate(0 0)"/>
        <path id="Trazado_876654" data-name="Trazado 876654" d="M386.831,384H384v2.831a2.834,2.834,0,0,0,2.831,2.831.945.945,0,0,1,.944.944v.944h-.944a.945.945,0,0,1-.944-.944v-.944H384v.944a2.834,2.834,0,0,0,2.831,2.831h2.831v-2.831a2.834,2.834,0,0,0-2.831-2.831.945.945,0,0,1-.944-.944v-.944h.944a.945.945,0,0,1,.944.944v.944h1.887v-.944A2.834,2.834,0,0,0,386.831,384Z" transform="translate(-338.704 -338.704)"/>
        <path id="Trazado_876655" data-name="Trazado 876655" d="M208.095,165.465l.1-.2-1.688-.844-.1.2a2.11,2.11,0,0,1-3.775,0l-.1-.2-1.688.844.1.2a4,4,0,0,0,7.151,0Z" transform="translate(-177.153 -145.026)"/>
        <path id="Trazado_876656" data-name="Trazado 876656" d="M224,128h1.887v3.775H224Z" transform="translate(-197.577 -112.901)"/>
        <circle id="Elipse_11569" data-name="Elipse 11569" cx="1" cy="1" r="1" transform="translate(22 14.508)"/>
        <circle id="Elipse_11570" data-name="Elipse 11570" cx="1" cy="1" r="1" transform="translate(30 14.508)"/>
        <circle id="Elipse_11571" data-name="Elipse 11571" cx="1" cy="1" r="1" transform="translate(30 43.508)"/>
        <circle id="Elipse_11572" data-name="Elipse 11572" cx="1" cy="1" r="1" transform="translate(30 47.508)"/>
      </g>
    </g>
  </g>
</svg>
