<svg xmlns="http://www.w3.org/2000/svg" width="85" height="85" viewBox="0 0 85 85">
  <g id="_122" data-name="122" transform="translate(-1229.66 -1032)">
    <ellipse id="Elipse_11496" data-name="Elipse 11496" cx="42.5" cy="42.5" rx="42.5" ry="42.5" transform="translate(1229.66 1032)" fill="#b15815"/>
    <g id="igual" transform="translate(1240.66 1018.944)">
      <path id="Trazado_876657" data-name="Trazado 876657" d="M188.609,332.026l-10.939,2.687-10.939-2.687,6.061-9.755,7.6-4.288,2.156,4.288Z" transform="translate(-146.3 -254.399)" fill="#fbf7f7"/>
      <path id="Trazado_876658" data-name="Trazado 876658" d="M173.826,343.022l3.844,2.686-10.938-2.686,6.061-9.755,4.877-2.752-1.714,2.752Z" transform="translate(-146.3 -265.394)" fill="#dedbee"/>
      <path id="Trazado_876659" data-name="Trazado 876659" d="M65.649,313.546h-55.4A2.753,2.753,0,0,1,7.5,310.792h0a2.753,2.753,0,0,1,2.753-2.753h55.4a2.753,2.753,0,0,1,2.753,2.753h0A2.753,2.753,0,0,1,65.649,313.546Z" transform="translate(-6.581 -245.673)" fill="#7a6d79"/>
      <path id="Trazado_876660" data-name="Trazado 876660" d="M20.708,313.544H10.254a2.754,2.754,0,1,1,0-5.507H20.708a2.754,2.754,0,0,0,0,5.507Z" transform="translate(-6.581 -245.672)" fill="#685e68"/>
      <path id="Trazado_876661" data-name="Trazado 876661" d="M59.068,307.884H3.672a3.672,3.672,0,1,1,0-7.345h55.4a3.672,3.672,0,1,1,0,7.345Zm-55.4-5.507a1.834,1.834,0,1,0,0,3.668h55.4a1.834,1.834,0,1,0,0-3.668Z" transform="translate(0 -239.093)"/>
      <path id="Trazado_876662" data-name="Trazado 876662" d="M182.031,357.07H160.155a.919.919,0,0,1-.781-1.4l1.815-2.921a.919.919,0,0,1,1.561.97l-.943,1.517h18.57l-4.919-7.917h-8.732l-1.734,2.791a.919.919,0,0,1-1.561-.97l2-3.225a.919.919,0,0,1,.781-.434h9.754a.919.919,0,0,1,.781.434l6.061,9.756a.919.919,0,0,1-.781,1.4Z" transform="translate(-139.723 -278.523)"/>
      <path id="Trazado_876663" data-name="Trazado 876663" d="M154.836,437.958h-26.6a2.687,2.687,0,0,1-2.687-2.687h0a2.687,2.687,0,0,1,2.687-2.687h26.6a2.687,2.687,0,0,1,2.687,2.687h0A2.687,2.687,0,0,1,154.836,437.958Z" transform="translate(-110.168 -354.957)" fill="#7a6d79"/>
      <path id="Trazado_876664" data-name="Trazado 876664" d="M134.81,437.953h-6.568a2.687,2.687,0,1,1,0-5.373h6.568a2.687,2.687,0,0,0,0,5.373Z" transform="translate(-110.168 -354.953)" fill="#685e68"/>
      <path id="Trazado_876665" data-name="Trazado 876665" d="M148.255,432.3h-26.6a3.606,3.606,0,1,1,0-7.212h26.6a3.606,3.606,0,1,1,0,7.212Zm-26.6-5.374a1.768,1.768,0,1,0,0,3.536h26.6a1.768,1.768,0,1,0,0-3.536Z" transform="translate(-103.587 -348.376)"/>
      <path id="Trazado_876666" data-name="Trazado 876666" d="M378.92,47.632a18.869,18.869,0,0,1-4.8-2.235,1.679,1.679,0,0,1-.4-1.621,2.282,2.282,0,0,1,1.512-1.8,3.974,3.974,0,0,1,3.646.58,1.838,1.838,0,0,0,2.351-2.826,7.5,7.5,0,0,0-3.139-1.466v-.864a1.838,1.838,0,1,0-3.676,0v.99c-.08.022-.161.043-.242.067a5.925,5.925,0,0,0-4.064,4.643,5.275,5.275,0,0,0,1.748,5.195,20.379,20.379,0,0,0,5.847,2.808,2.588,2.588,0,0,1,1.871,3.036,3.36,3.36,0,0,1-3.334,2.834,5.5,5.5,0,0,1-3.948-1.037,1.838,1.838,0,0,0-2.013,3.076,8.521,8.521,0,0,0,4.134,1.57v.973a1.838,1.838,0,1,0,3.676,0V60.4a6.841,6.841,0,0,0,2.9-1.59,7.167,7.167,0,0,0,2.207-4.071A6.285,6.285,0,0,0,378.92,47.632Z" transform="translate(-324.168 -6.581)" fill="#fea713"/>
      <path id="Trazado_876667" data-name="Trazado 876667" d="M39.03,47.632a18.869,18.869,0,0,1-4.8-2.235,1.678,1.678,0,0,1-.4-1.621,2.282,2.282,0,0,1,1.512-1.8,3.974,3.974,0,0,1,3.646.58,1.838,1.838,0,0,0,2.351-2.826,7.5,7.5,0,0,0-3.139-1.466v-.864a1.838,1.838,0,1,0-3.676,0v.99c-.08.022-.161.043-.242.067a5.924,5.924,0,0,0-4.064,4.643,5.275,5.275,0,0,0,1.748,5.195A20.379,20.379,0,0,0,37.8,51.1a2.588,2.588,0,0,1,1.871,3.036,3.36,3.36,0,0,1-3.334,2.834,5.5,5.5,0,0,1-3.948-1.037,1.838,1.838,0,1,0-2.013,3.076,8.521,8.521,0,0,0,4.134,1.57v.973a1.838,1.838,0,0,0,3.676,0V60.4a6.841,6.841,0,0,0,2.9-1.59A7.167,7.167,0,0,0,43.3,54.743,6.285,6.285,0,0,0,39.03,47.632Z" transform="translate(-25.929 -6.581)" fill="#fea713"/>
      <path id="Trazado_876668" data-name="Trazado 876668" d="M369.671,57.727a2.76,2.76,0,0,1-2.757-2.757V54.8a9.778,9.778,0,0,1-3.718-1.6,2.758,2.758,0,0,1,3.019-4.616,4.649,4.649,0,0,0,3.439.887,2.452,2.452,0,0,0,2.434-2.068,1.677,1.677,0,0,0-1.271-2.016,21.159,21.159,0,0,1-6.109-2.952,6.19,6.19,0,0,1-2.083-6.088,6.862,6.862,0,0,1,4.29-5.214v-.317a2.757,2.757,0,1,1,5.514,0v.153a8.353,8.353,0,0,1,2.808,1.472,2.757,2.757,0,0,1-3.527,4.239,3.06,3.06,0,0,0-2.793-.406,1.413,1.413,0,0,0-.874,1.1.989.989,0,0,0,.072.731,18.576,18.576,0,0,0,4.539,2.088c.144.051.284.1.422.164a.919.919,0,0,1-.724,1.689c-.1-.044-.2-.083-.31-.12a19.508,19.508,0,0,1-5.065-2.377,2.55,2.55,0,0,1-.74-2.515,3.2,3.2,0,0,1,2.15-2.514,4.908,4.908,0,0,1,4.5.755.919.919,0,0,0,1.174-1.415,6.633,6.633,0,0,0-2.741-1.274.919.919,0,0,1-.729-.9v-.864a.919.919,0,0,0-1.838,0v.99a.919.919,0,0,1-.686.889l-.207.058a5.008,5.008,0,0,0-3.428,3.934,4.365,4.365,0,0,0,1.412,4.3,19.641,19.641,0,0,0,5.587,2.665A3.5,3.5,0,0,1,373.9,47.7a4.269,4.269,0,0,1-4.235,3.6,6.326,6.326,0,0,1-4.457-1.187.92.92,0,1,0-1.006,1.539,7.643,7.643,0,0,0,3.722,1.424.919.919,0,0,1,.828.915v.973a.919.919,0,0,0,1.838,0V53.823a.919.919,0,0,1,.684-.889,5.9,5.9,0,0,0,2.514-1.378,6.231,6.231,0,0,0,1.923-3.545,5.391,5.391,0,0,0-.6-3.611.919.919,0,1,1,1.6-.912,7.209,7.209,0,0,1,.822,4.827,8.077,8.077,0,0,1-2.492,4.595,7.706,7.706,0,0,1-2.6,1.588v.472A2.76,2.76,0,0,1,369.671,57.727Z" transform="translate(-317.595 0)"/>
      <path id="Trazado_876669" data-name="Trazado 876669" d="M29.781,57.727a2.76,2.76,0,0,1-2.757-2.757V54.8a9.778,9.778,0,0,1-3.718-1.6,2.758,2.758,0,0,1,3.019-4.616,4.649,4.649,0,0,0,3.439.887A2.452,2.452,0,0,0,32.2,47.4a1.677,1.677,0,0,0-1.271-2.016,21.16,21.16,0,0,1-6.109-2.952,6.1,6.1,0,0,1-2.149-5.67A.919.919,0,1,1,24.49,37a4.279,4.279,0,0,0,1.461,3.989,19.642,19.642,0,0,0,5.587,2.665A3.5,3.5,0,0,1,34.009,47.7a4.269,4.269,0,0,1-4.235,3.6,6.326,6.326,0,0,1-4.457-1.187.92.92,0,1,0-1.006,1.539,7.643,7.643,0,0,0,3.722,1.424.919.919,0,0,1,.828.915v.973a.919.919,0,1,0,1.838,0V53.823a.919.919,0,0,1,.684-.889A5.9,5.9,0,0,0,33.9,51.556a6.231,6.231,0,0,0,1.923-3.545,5.391,5.391,0,0,0-3.671-6.094,19.506,19.506,0,0,1-5.064-2.377,2.551,2.551,0,0,1-.74-2.515A3.2,3.2,0,0,1,28.5,34.51a4.908,4.908,0,0,1,4.5.755.92.92,0,0,0,1.293-.121.918.918,0,0,0-.119-1.294,6.633,6.633,0,0,0-2.741-1.274.919.919,0,0,1-.729-.9v-.864a.919.919,0,0,0-1.838,0v.99a.919.919,0,0,1-.687.889l-.207.058A4.806,4.806,0,0,0,26.013,33.9a.919.919,0,1,1-1.281-1.318,6.667,6.667,0,0,1,2.291-1.455v-.317a2.757,2.757,0,0,1,5.514,0v.153a8.353,8.353,0,0,1,2.808,1.472,2.757,2.757,0,1,1-3.527,4.239,3.06,3.06,0,0,0-2.793-.406,1.413,1.413,0,0,0-.874,1.1.989.989,0,0,0,.072.731,18.576,18.576,0,0,0,4.539,2.088,7.182,7.182,0,0,1,4.871,8.131,8.077,8.077,0,0,1-2.492,4.594,7.707,7.707,0,0,1-2.6,1.588v.472A2.76,2.76,0,0,1,29.781,57.727Z" transform="translate(-19.355 0)"/>
      <g id="Grupo_1100663" data-name="Grupo 1100663" transform="translate(22.206 41.347)">
        <path id="Trazado_876670" data-name="Trazado 876670" d="M196.552,159.314a2.6,2.6,0,0,1-1.838-.761l-5.257-5.257a2.6,2.6,0,1,1,3.676-3.676l2.99,2.99,4.829-7.414a2.6,2.6,0,1,1,4.356,2.837l-6.578,10.1a2.6,2.6,0,0,1-1.908,1.167A2.666,2.666,0,0,1,196.552,159.314Z" transform="translate(-187.779 -143.096)" fill="#adee54"/>
        <g id="Grupo_1100662" data-name="Grupo 1100662" transform="translate(0.917 0.919)">
          <path id="Trazado_876671" data-name="Trazado 876671" d="M197.614,193.241l-5.257-5.257a2.6,2.6,0,0,1,.388-3.994,2.6,2.6,0,0,0-3.287,3.994l5.257,5.257a2.6,2.6,0,0,0,3.287.319A2.594,2.594,0,0,1,197.614,193.241Z" transform="translate(-188.697 -178.703)" fill="#8de800"/>
          <path id="Trazado_876672" data-name="Trazado 876672" d="M251.061,154.365l5.972-9.17a2.591,2.591,0,0,1,.727-.738l-.029-.021a2.6,2.6,0,0,0-3.6.76l-4.829,7.414Z" transform="translate(-241.878 -144.014)" fill="#8de800"/>
        </g>
        <path id="Trazado_876673" data-name="Trazado 876673" d="M189.983,153.652a3.494,3.494,0,0,1-2.488-1.031l-5.257-5.257a3.518,3.518,0,0,1,2.488-6.006h0a3.5,3.5,0,0,1,2.488,1.03l2.189,2.189,4.21-6.464a3.518,3.518,0,1,1,5.9,3.84l-6.578,10.1a3.5,3.5,0,0,1-2.582,1.579A3.607,3.607,0,0,1,189.983,153.652ZM184.727,143.2a1.68,1.68,0,0,0-1.188,2.868l5.257,5.257a1.68,1.68,0,0,0,2.6-.271l6.578-10.1a1.68,1.68,0,1,0-2.816-1.834l-4.829,7.414a.919.919,0,0,1-1.42.148l-2.99-2.99A1.669,1.669,0,0,0,184.727,143.2Z" transform="translate(-181.21 -136.515)"/>
      </g>
    </g>
  </g>
</svg>
