<svg xmlns="http://www.w3.org/2000/svg" xmlns:xlink="http://www.w3.org/1999/xlink" width="295" height="246" viewBox="0 0 295 246">
  <defs>
    <clipPath id="clip-path">
      <rect id="Rectángulo_401818" data-name="Rectángulo 401818" width="207.876" height="233.819" fill="none"/>
    </clipPath>
    <clipPath id="clip-path-2">
      <rect id="Rectángulo_401804" data-name="Rectángulo 401804" width="1.212" height="0.037" fill="none"/>
    </clipPath>
    <clipPath id="clip-path-3">
      <rect id="Rectángulo_401805" data-name="Rectángulo 401805" width="0.56" height="0.017" fill="none"/>
    </clipPath>
    <clipPath id="clip-path-4">
      <rect id="Rectángulo_401806" data-name="Rectángulo 401806" width="24.587" height="35.359" fill="none"/>
    </clipPath>
    <clipPath id="clip-path-5">
      <path id="Trazado_876742" data-name="Trazado 876742" d="M35.687,163.028h0Z" transform="translate(-35.687 -163.028)" fill="none"/>
    </clipPath>
    <clipPath id="clip-path-6">
      <rect id="Rectángulo_401807" data-name="Rectángulo 401807" width="52.779" height="35.387" fill="none"/>
    </clipPath>
    <clipPath id="clip-path-7">
      <rect id="Rectángulo_401808" data-name="Rectángulo 401808" width="8.219" height="24.565" fill="none"/>
    </clipPath>
    <clipPath id="clip-path-8">
      <rect id="Rectángulo_401809" data-name="Rectángulo 401809" width="40.36" height="18.498" fill="none"/>
    </clipPath>
    <clipPath id="clip-path-9">
      <rect id="Rectángulo_401810" data-name="Rectángulo 401810" width="23.292" height="25.295" fill="none"/>
    </clipPath>
    <clipPath id="clip-path-10">
      <rect id="Rectángulo_401811" data-name="Rectángulo 401811" width="0.069" height="0.346" fill="none"/>
    </clipPath>
    <clipPath id="clip-path-11">
      <rect id="Rectángulo_401812" data-name="Rectángulo 401812" width="0.003" height="0.017" fill="none"/>
    </clipPath>
    <clipPath id="clip-path-12">
      <rect id="Rectángulo_401813" data-name="Rectángulo 401813" width="0.183" height="0.926" fill="none"/>
    </clipPath>
    <clipPath id="clip-path-13">
      <rect id="Rectángulo_401814" data-name="Rectángulo 401814" width="0.092" height="0.464" fill="none"/>
    </clipPath>
    <clipPath id="clip-path-14">
      <rect id="Rectángulo_401815" data-name="Rectángulo 401815" width="48.634" height="25.888" fill="none"/>
    </clipPath>
    <clipPath id="clip-path-15">
      <rect id="Rectángulo_401816" data-name="Rectángulo 401816" width="6.504" height="3.163" fill="none"/>
    </clipPath>
    <clipPath id="clip-path-16">
      <rect id="Rectángulo_401817" data-name="Rectángulo 401817" width="6.503" height="3.163" fill="none"/>
    </clipPath>
    <clipPath id="clip-path-17">
      <rect id="Rectángulo_401821" data-name="Rectángulo 401821" width="127.327" height="110.283" fill="none"/>
    </clipPath>
  </defs>
  <g id="_125" data-name="125" transform="translate(-1124.66 -1274)">
    <rect id="Rectángulo_401520" data-name="Rectángulo 401520" width="295" height="246" rx="8" transform="translate(1124.66 1274)" fill="#b15815"/>
    <g id="Grupo_1100774" data-name="Grupo 1100774" transform="translate(1193.328 1286)">
      <g id="Grupo_1100780" data-name="Grupo 1100780">
        <g id="Grupo_1100772" data-name="Grupo 1100772">
          <g id="Grupo_1100771" data-name="Grupo 1100771" clip-path="url(#clip-path)">
            <path id="Trazado_876737" data-name="Trazado 876737" d="M42.656,108.218l.029-.1L55.239,64.442l-.055-.041a15.7,15.7,0,0,1,5.023-5.565A14.537,14.537,0,0,0,66,49.245c2.764-2.675,5.879-4.958,8.7-7.57a2.013,2.013,0,0,0,.688-.963,1.682,1.682,0,0,0-.357-1.255,4.983,4.983,0,0,0-6.36-1.473,15.492,15.492,0,0,0-3.563,2.328,17.691,17.691,0,0,0-2.825,2.416L72.272,21.4c.886-1.894.306-4.055-1.29-4.8a2.965,2.965,0,0,0-2.523.051,4.014,4.014,0,0,0-1.389,1.106l.049-.248C55.421,7.673,40.99,41.152,40.99,41.152l-4.1,9.665L2.153,115.228a18.715,18.715,0,0,0,8.365,25.529c.137.067.275.126.412.189a18.874,18.874,0,0,0,9.462,2.531H88.76l14.733-35.014Zm19.479-65.17Z" transform="translate(0 -2.085)" fill="#fec29e"/>
            <g id="Grupo_1100728" data-name="Grupo 1100728" transform="translate(29.735 141.337)" opacity="0.17">
              <g id="Grupo_1100727" data-name="Grupo 1100727">
                <g id="Grupo_1100726" data-name="Grupo 1100726" clip-path="url(#clip-path-2)">
                  <path id="Trazado_876738" data-name="Trazado 876738" d="M35.5,163.022h0" transform="translate(-34.289 -162.985)" fill="#ff887c"/>
                </g>
              </g>
            </g>
            <g id="Grupo_1100731" data-name="Grupo 1100731" transform="translate(30.959 141.375)" opacity="0.17">
              <g id="Grupo_1100730" data-name="Grupo 1100730">
                <g id="Grupo_1100729" data-name="Grupo 1100729" clip-path="url(#clip-path-3)">
                  <path id="Trazado_876739" data-name="Trazado 876739" d="M35.7,163.028l.56.017-.56-.017" transform="translate(-35.701 -163.028)" fill="#ff887c"/>
                </g>
              </g>
            </g>
            <g id="Grupo_1100734" data-name="Grupo 1100734" transform="translate(31.519 106.033)" opacity="0.17">
              <g id="Grupo_1100733" data-name="Grupo 1100733">
                <g id="Grupo_1100732" data-name="Grupo 1100732" clip-path="url(#clip-path-4)">
                  <path id="Trazado_876740" data-name="Trazado 876740" d="M47.512,122.273l-1.989,6.92c-.517,1.921-1.114,3.983-1.75,6.088l-2.4,8.363a18.847,18.847,0,0,1-1.246,3.051c-2.069,6.191-3.776,10.938-3.776,10.938l24.587-35.206c-6.116,0-7.519-.147-13.422-.153" transform="translate(-36.346 -122.273)" fill="#ff887c"/>
                </g>
              </g>
            </g>
            <g id="Grupo_1100737" data-name="Grupo 1100737" transform="translate(30.947 141.375)" opacity="0.17">
              <g id="Grupo_1100736" data-name="Grupo 1100736">
                <g id="Grupo_1100735" data-name="Grupo 1100735" clip-path="url(#clip-path-5)">
                  <path id="Trazado_876741" data-name="Trazado 876741" d="M35.687,163.028h0" transform="translate(-35.687 -163.028)" fill="#ff887c"/>
                </g>
              </g>
            </g>
            <path id="Trazado_876743" data-name="Trazado 876743" d="M60.571,48.724a.434.434,0,0,1-.349-.691,7.944,7.944,0,0,1,10.287-2.687.433.433,0,0,1-.424.756c-.213-.119-5.264-2.845-9.166,2.446a.431.431,0,0,1-.349.176" transform="translate(-7.987 -5.904)" fill="#fb8e77"/>
            <path id="Trazado_876744" data-name="Trazado 876744" d="M76.29,17.912a66.263,66.263,0,0,0-4.965,7.144A32.276,32.276,0,0,0,69.352,28.9a9.434,9.434,0,0,0-.929,4.037v.027a.433.433,0,0,1-.865.047V33a10.163,10.163,0,0,1,1.077-4.406,32.989,32.989,0,0,1,2.1-3.895,66.774,66.774,0,0,1,5.16-7.115.258.258,0,0,1,.4.325Z" transform="translate(-8.973 -2.323)" fill="#fb8e77"/>
            <path id="Trazado_876745" data-name="Trazado 876745" d="M72.675,16.474a16.356,16.356,0,0,0-3.091,2.914A25.928,25.928,0,0,0,67.129,22.9a31.162,31.162,0,0,0-1.875,3.862c-.284.658-.5,1.345-.746,2.016l-.622,2.058-.008.025a.433.433,0,1,1-.83-.251l0-.008.676-2.093c.27-.682.5-1.38.8-2.048a31.781,31.781,0,0,1,2-3.921,26.645,26.645,0,0,1,2.589-3.561,16.82,16.82,0,0,1,3.282-2.97.269.269,0,0,1,.3.446Z" transform="translate(-8.372 -2.121)" fill="#fb8e77"/>
            <path id="Trazado_876746" data-name="Trazado 876746" d="M67.429,16.869a42.065,42.065,0,0,0-4.541,5.611,23.937,23.937,0,0,0-1.79,3.105A12.684,12.684,0,0,0,60,28.915l0,.01a.434.434,0,0,1-.857-.135l0-.011A13.487,13.487,0,0,1,60.4,25.243a24.738,24.738,0,0,1,1.922-3.152,42.752,42.752,0,0,1,4.752-5.583.253.253,0,0,1,.362.354Z" transform="translate(-7.855 -2.183)" fill="#fb8e77"/>
            <path id="Trazado_876747" data-name="Trazado 876747" d="M209.8,185.965,193.026,140.25c-2-10.032-11.539-17.637-23.019-17.637l-46.847-.372-52.78.2v35.186H86.76L78.306,249.4l116.22.657-.651-62.143Z" transform="translate(-9.348 -16.236)" fill="#f6ede6"/>
            <g id="Grupo_1100740" data-name="Grupo 1100740" transform="translate(61.032 106.005)" opacity="0.05">
              <g id="Grupo_1100739" data-name="Grupo 1100739">
                <g id="Grupo_1100738" data-name="Grupo 1100738" clip-path="url(#clip-path-6)">
                  <path id="Trazado_876748" data-name="Trazado 876748" d="M123.068,122.633l.091-.392-52.779.2v35.186H86.76l.085-.929c0-18.57,16.144-33.66,36.223-34.066" transform="translate(-70.38 -122.241)" fill="#1b1b25"/>
                </g>
              </g>
            </g>
            <g id="Grupo_1100743" data-name="Grupo 1100743" transform="translate(47.02 55.481)" opacity="0.18">
              <g id="Grupo_1100742" data-name="Grupo 1100742">
                <g id="Grupo_1100741" data-name="Grupo 1100741" clip-path="url(#clip-path-7)">
                  <path id="Trazado_876749" data-name="Trazado 876749" d="M54.222,63.979s2.961,25.161,3.136,24.555l5.083-17.68Z" transform="translate(-54.222 -63.979)" fill="#ff887c"/>
                </g>
              </g>
            </g>
            <path id="Trazado_876750" data-name="Trazado 876750" d="M129.03,204.342l-4.436-22.354-3.422-17.247a3.771,3.771,0,0,0-4.42-2.957l-17.132,3.4a3.771,3.771,0,0,0-2.957,4.42l3.444,17.36,2.732,13.768,1.681,8.474a3.771,3.771,0,0,0,4.421,2.956l10.118-2.008,7.013-1.391a3.772,3.772,0,0,0,2.957-4.421" transform="translate(-12.829 -21.479)" fill="#1b1b25"/>
            <path id="Trazado_876751" data-name="Trazado 876751" d="M220.333,228.049l-7.726-33.64-35.124,4.3,1.929,8.556-.179-.043-38.183-9.453-.033.047a12.792,12.792,0,0,1-4.774-4.389,11.432,11.432,0,0,0-8.58-4.916c-1.036-1.085-2-2.245-2.956-3.416l.895,4.508-.224.119a14.47,14.47,0,0,1-7.905,1.642l-16.789-1.31a2.553,2.553,0,0,0-2.511,1.428c-4.914,10.33,16.185,19.78,21,21.778h0l.169.069.2.081.184.075.153.062.144.057.056.022.071.028,8.258,3.1,65.372,32.178a18.968,18.968,0,0,0,1.84.765,16.31,16.31,0,0,0,10.48,1.082,18.96,18.96,0,0,0,14.236-22.724" transform="translate(-12.942 -24.584)" fill="#fec29e"/>
            <g id="Grupo_1100746" data-name="Grupo 1100746" transform="translate(164.54 174.122)" opacity="0.17">
              <g id="Grupo_1100745" data-name="Grupo 1100745">
                <g id="Grupo_1100744" data-name="Grupo 1100744" clip-path="url(#clip-path-8)">
                  <path id="Trazado_876752" data-name="Trazado 876752" d="M230.1,219.289l-40.359-18.5c1.348,5.87.563,3.28,1.75,8.513l2.746.679c11.623.785,35.863,9.306,35.863,9.306" transform="translate(-189.742 -200.792)" fill="#ff887c"/>
                </g>
              </g>
            </g>
            <g id="Grupo_1100749" data-name="Grupo 1100749" transform="translate(155.804 149.261)" opacity="0.35">
              <g id="Grupo_1100748" data-name="Grupo 1100748">
                <g id="Grupo_1100747" data-name="Grupo 1100747" clip-path="url(#clip-path-9)">
                  <path id="Trazado_876753" data-name="Trazado 876753" d="M185.143,197.418a.433.433,0,0,1-.424-.346l-5.043-24.426a.433.433,0,0,1,.848-.177l4.962,24.034,16.985-2.161a.434.434,0,0,1,.109.86L185.2,197.414a.4.4,0,0,1-.056,0" transform="translate(-179.667 -172.123)" fill="#1b1b25"/>
                </g>
              </g>
            </g>
            <g id="Grupo_1100752" data-name="Grupo 1100752" transform="translate(205.176 194.01)" opacity="0.17">
              <g id="Grupo_1100751" data-name="Grupo 1100751">
                <g id="Grupo_1100750" data-name="Grupo 1100750" clip-path="url(#clip-path-10)">
                  <path id="Trazado_876754" data-name="Trazado 876754" d="M236.6,223.726l.069.346c-.007-.036-.029-.146-.069-.346" transform="translate(-236.601 -223.726)" fill="#ff887c"/>
                </g>
              </g>
            </g>
            <g id="Grupo_1100755" data-name="Grupo 1100755" transform="translate(205.244 194.356)" opacity="0.17">
              <g id="Grupo_1100754" data-name="Grupo 1100754">
                <g id="Grupo_1100753" data-name="Grupo 1100753" clip-path="url(#clip-path-11)">
                  <path id="Trazado_876755" data-name="Trazado 876755" d="M236.68,224.124h0" transform="translate(-236.68 -224.124)" fill="#ff887c"/>
                </g>
              </g>
            </g>
            <g id="Grupo_1100758" data-name="Grupo 1100758" transform="translate(204.901 192.62)" opacity="0.17">
              <g id="Grupo_1100757" data-name="Grupo 1100757">
                <g id="Grupo_1100756" data-name="Grupo 1100756" clip-path="url(#clip-path-12)">
                  <path id="Trazado_876756" data-name="Trazado 876756" d="M236.284,222.122s.094.472.183.926c-.049-.246-.107-.539-.183-.926" transform="translate(-236.284 -222.122)" fill="#ff887c"/>
                </g>
              </g>
            </g>
            <g id="Grupo_1100761" data-name="Grupo 1100761" transform="translate(205.084 193.546)" opacity="0.17">
              <g id="Grupo_1100760" data-name="Grupo 1100760">
                <g id="Grupo_1100759" data-name="Grupo 1100759" clip-path="url(#clip-path-13)">
                  <path id="Trazado_876757" data-name="Trazado 876757" d="M236.495,223.191l.092.464c-.028-.138-.059-.3-.092-.464" transform="translate(-236.495 -223.191)" fill="#ff887c"/>
                </g>
              </g>
            </g>
            <path id="Trazado_876758" data-name="Trazado 876758" d="M171.78,15.81a13.815,13.815,0,0,0-20.652-9.96,12.167,12.167,0,0,0-18.872-2.416,16.06,16.06,0,0,0-17.8,26.415L111.189,47.3a9.225,9.225,0,0,0,7.371,10.765l38.7,7.244a9.226,9.226,0,0,0,10.766-7.371l6.339-33.866a9.215,9.215,0,0,0-2.582-8.258" transform="translate(-14.478 0)" fill="#1b1b25"/>
            <path id="Trazado_876759" data-name="Trazado 876759" d="M115.914,26.429a.436.436,0,0,1-.367-.2c-6.912-10.939,2.608-17.953,2.706-18.023a.433.433,0,1,1,.506.7c-.369.265-8.948,6.617-2.478,16.855a.433.433,0,0,1-.367.665" transform="translate(-15.013 -1.079)" fill="#fcf0e3"/>
            <path id="Trazado_876760" data-name="Trazado 876760" d="M165.676,54.492l-.846-.159-8.542-18.36a13.83,13.83,0,0,1-5.78-2.235,10.4,10.4,0,0,1-14.686.617,16.043,16.043,0,0,1-19.4,1.367l-5.95,31.786a17.505,17.505,0,0,0,2.2,12.251A17.783,17.783,0,0,0,125.2,90.445v20.991a13.3,13.3,0,0,0,13.257,13.257h4.182a13.3,13.3,0,0,0,13.257-13.257V87.6a17.709,17.709,0,0,0,4.338-8.689l1.086-5.8.846.158A9.318,9.318,0,0,0,173,65.844l.1-.51a9.318,9.318,0,0,0-7.423-10.841" transform="translate(-14.634 -4.481)" fill="#fec29e"/>
            <g id="Grupo_1100764" data-name="Grupo 1100764" transform="translate(98.049 67.891)" opacity="0.32">
              <g id="Grupo_1100763" data-name="Grupo 1100763">
                <g id="Grupo_1100762" data-name="Grupo 1100762" clip-path="url(#clip-path-14)">
                  <path id="Trazado_876761" data-name="Trazado 876761" d="M159.732,78.289l-.776,4.141a17.6,17.6,0,0,1-20.533,14.058l-13.5-2.529a17.538,17.538,0,0,1-11.853-8.282A17.793,17.793,0,0,0,126.3,96.536l.539.1a13.285,13.285,0,0,0,11.935,7.54h4.235a13.3,13.3,0,0,0,12.9-10.25,17.722,17.722,0,0,0,4.7-9.1l1.087-5.8Z" transform="translate(-113.066 -78.289)" fill="#ff887c"/>
                </g>
              </g>
            </g>
            <path id="Trazado_876762" data-name="Trazado 876762" d="M174.451,70.893a.432.432,0,0,1-.266-.091l-3.373-2.619a.433.433,0,0,1-.031-.658l4.16-3.927a.434.434,0,0,1,.595.631l-3.792,3.58,2.974,2.308a.434.434,0,0,1-.266.776" transform="translate(-22.665 -8.431)" fill="#fb8e77"/>
            <path id="Trazado_876763" data-name="Trazado 876763" d="M149.059,52.552a5.14,5.14,0,0,1-1.992-.758c-.667-.361-1.346-.707-1.947-.986s-1.3-.579-2.009-.859a5.076,5.076,0,0,1-1.857-1.037c-.415-.459-.333-1.182.636-1.666a5.878,5.878,0,0,1,4.8.329,5.7,5.7,0,0,1,3.287,3.44c.228,1.043-.292,1.562-.917,1.537" transform="translate(-18.73 -6.227)" fill="#1b1b25"/>
            <path id="Trazado_876764" data-name="Trazado 876764" d="M118.4,50.284a5.772,5.772,0,0,0,2.086.431c.755.065,1.512.147,2.169.239s1.409.221,2.154.366a5.737,5.737,0,0,0,2.119.158c.593-.134.905-.708.338-1.546a6.291,6.291,0,0,0-4.237-2.142,6.05,6.05,0,0,0-4.6.905c-.742.656-.576,1.3-.033,1.589" transform="translate(-15.664 -6.337)" fill="#1b1b25"/>
            <path id="Trazado_876765" data-name="Trazado 876765" d="M142.8,61.434l.059.011a1.077,1.077,0,0,0,1.252-.858l.257-1.374a1.075,1.075,0,0,0-.857-1.252l-.059-.011a1.076,1.076,0,0,0-1.252.858l-.257,1.374a1.075,1.075,0,0,0,.857,1.252" transform="translate(-18.851 -7.695)" fill="#1b1b25"/>
            <path id="Trazado_876766" data-name="Trazado 876766" d="M121.248,57.931l.059.011a1.077,1.077,0,0,0,1.252-.858l.257-1.374a1.076,1.076,0,0,0-.857-1.252l-.059-.011a1.076,1.076,0,0,0-1.252.858l-.258,1.374a1.076,1.076,0,0,0,.858,1.252" transform="translate(-15.988 -7.229)" fill="#1b1b25"/>
            <g id="Grupo_1100767" data-name="Grupo 1100767" transform="translate(123.542 55.985)" opacity="0.17">
              <g id="Grupo_1100766" data-name="Grupo 1100766">
                <g id="Grupo_1100765" data-name="Grupo 1100765" clip-path="url(#clip-path-15)">
                  <path id="Trazado_876767" data-name="Trazado 876767" d="M143.645,67.283l3.836.432a1.333,1.333,0,0,0,1.469-1.172l.009-.074A1.334,1.334,0,0,0,147.787,65l-3.837-.431a1.332,1.332,0,0,0-1.469,1.172l-.009.074a1.333,1.333,0,0,0,1.173,1.469" transform="translate(-142.464 -64.56)" fill="#ff887c"/>
                </g>
              </g>
            </g>
            <g id="Grupo_1100770" data-name="Grupo 1100770" transform="translate(98.234 51.999)" opacity="0.17">
              <g id="Grupo_1100769" data-name="Grupo 1100769">
                <g id="Grupo_1100768" data-name="Grupo 1100768" clip-path="url(#clip-path-16)">
                  <path id="Trazado_876768" data-name="Trazado 876768" d="M114.46,62.686l3.837.432a1.333,1.333,0,0,0,1.469-1.172l.009-.074A1.334,1.334,0,0,0,118.6,60.4l-3.837-.431a1.332,1.332,0,0,0-1.469,1.172l-.008.074a1.332,1.332,0,0,0,1.172,1.469" transform="translate(-113.28 -59.963)" fill="#ff887c"/>
                </g>
              </g>
            </g>
            <path id="Trazado_876769" data-name="Trazado 876769" d="M127.471,85.508a.434.434,0,0,1-.256-.784,4.1,4.1,0,0,1,4.676,0,.434.434,0,0,1-.5.71,3.253,3.253,0,0,0-3.666-.005.431.431,0,0,1-.256.083" transform="translate(-16.873 -11.155)" fill="#fb8e77"/>
            <path id="Trazado_876770" data-name="Trazado 876770" d="M130.919,71.306l10.141-1.449-1.11,3.523a5.419,5.419,0,0,1-5.168,3.789,3.6,3.6,0,0,1-3.579-3.216Z" transform="translate(-17.389 -9.278)" fill="#fff"/>
            <path id="Trazado_876771" data-name="Trazado 876771" d="M132.936,64.916a.434.434,0,0,1-.109-.014l-3.144-.819a4.423,4.423,0,0,1-2.753-6.428l4.789-8.62a.434.434,0,0,1,.759.421l-4.789,8.62a3.557,3.557,0,0,0,2.213,5.168l3.144.819a.434.434,0,0,1-.109.853" transform="translate(-16.785 -6.483)" fill="#fb8e77"/>
          </g>
        </g>
      </g>
    </g>
    <g id="Grupo_1100776" data-name="Grupo 1100776" transform="translate(1142.07 1437)">
      <g id="Grupo_1100779" data-name="Grupo 1100779">
        <path id="Trazado_876772" data-name="Trazado 876772" d="M104.151,0h-87.8a16.351,16.351,0,1,0,0,32.7H88.709l9.954,9.071V32.7h5.488a16.351,16.351,0,1,0,0-32.7" fill="#dfbba0"/>
        <path id="Trazado_876773" data-name="Trazado 876773" d="M24.268,14.1a5.183,5.183,0,1,0-6.618,0,9.607,9.607,0,0,0-6.3,9.016c0,5.308,19.226,5.308,19.226,0a9.607,9.607,0,0,0-6.3-9.016" fill="#ffb54a"/>
        <path id="Trazado_876774" data-name="Trazado 876774" d="M105.25,8.79H42.336a.5.5,0,0,1,0-1H105.25a.5.5,0,0,1,0,1" fill="#fff"/>
        <path id="Trazado_876775" data-name="Trazado 876775" d="M95.49,23.552H42.337a.5.5,0,0,1,0-1H95.49a.5.5,0,0,1,0,1" fill="#fff"/>
        <path id="Trazado_876776" data-name="Trazado 876776" d="M81.015,16.638H42.337a.5.5,0,0,1,0-1H81.015a.5.5,0,0,1,0,1" fill="#fff"/>
        <path id="Trazado_876777" data-name="Trazado 876777" d="M105.25,16.638H85.838a.5.5,0,0,1,0-1H105.25a.5.5,0,0,1,0,1" fill="#fff"/>
        <path id="Trazado_876778" data-name="Trazado 876778" d="M27.178,21.621a1.493,1.493,0,0,1-1.06-.439l-3.769-3.769a1.5,1.5,0,0,1,2.122-2.121L27.178,18l7.275-7.274a1.5,1.5,0,1,1,2.121,2.121l-8.335,8.335a1.5,1.5,0,0,1-1.061.439" fill="#fff"/>
      </g>
    </g>
    <g id="Grupo_1100778" data-name="Grupo 1100778" transform="translate(1138.66 1286.717)">
      <g id="Grupo_1100777" data-name="Grupo 1100777" clip-path="url(#clip-path-17)">
        <path id="Trazado_876779" data-name="Trazado 876779" d="M123.154,43.009A36.948,36.948,0,1,1,86.206,6.061a36.948,36.948,0,0,1,36.948,36.948" transform="translate(-17.589 -2.164)" fill="#1b1b25"/>
        <path id="Trazado_876780" data-name="Trazado 876780" d="M117.093,36.948A36.948,36.948,0,1,1,80.145,0a36.948,36.948,0,0,1,36.948,36.948" transform="translate(-15.424)" fill="#ffb54a"/>
        <path id="Trazado_876781" data-name="Trazado 876781" d="M84.137,70.812A29.758,29.758,0,1,1,113.9,41.054,29.791,29.791,0,0,1,84.137,70.812m0-57.587a27.829,27.829,0,1,0,27.829,27.829A27.861,27.861,0,0,0,84.137,13.225" transform="translate(-19.418 -4.034)" fill="#fcf0e3"/>
        <path id="Trazado_876782" data-name="Trazado 876782" d="M91.669,60.372a21.1,21.1,0,0,1-5.375-1.392A20.43,20.43,0,0,1,81.562,56.3L84.9,51.421a25.624,25.624,0,0,0,3.4,2.206,12.939,12.939,0,0,0,3.576,1.263V48.081a29.4,29.4,0,0,1-4.047-1.414,10.116,10.116,0,0,1-2.869-1.841,6.994,6.994,0,0,1-1.713-2.505A8.827,8.827,0,0,1,82.676,39v-.086a7.985,7.985,0,0,1,.642-3.255,7.444,7.444,0,0,1,1.82-2.527A9.3,9.3,0,0,1,87.986,31.4a13.924,13.924,0,0,1,3.683-.878V28.037h4.454v2.57a17.893,17.893,0,0,1,7.966,3.169l-2.869,5.011a24.429,24.429,0,0,0-2.613-1.521,13.2,13.2,0,0,0-2.7-1.006v6.467Q100.791,44.055,103,46.2a7.63,7.63,0,0,1,2.205,5.739v.086A7.577,7.577,0,0,1,102.7,57.8a9.6,9.6,0,0,1-2.848,1.756,13.433,13.433,0,0,1-3.726.9V64.7H91.669Zm.214-24.5a3.874,3.874,0,0,0-2.249.921,2.359,2.359,0,0,0-.706,1.735v.086a2.527,2.527,0,0,0,.6,1.692,5.737,5.737,0,0,0,2.356,1.349ZM95.909,55.1q3.04-.471,3.041-2.741v-.086a2.6,2.6,0,0,0-.643-1.82,6.185,6.185,0,0,0-2.4-1.349Z" transform="translate(-29.124 -10.011)" fill="#1b1b25"/>
        <path id="Trazado_876783" data-name="Trazado 876783" d="M123.154,43.009A36.948,36.948,0,1,1,86.206,6.061a36.948,36.948,0,0,1,36.948,36.948" transform="translate(-17.589 -2.164)" fill="#1b1b25"/>
        <path id="Trazado_876784" data-name="Trazado 876784" d="M117.093,36.948A36.948,36.948,0,1,1,80.145,0a36.948,36.948,0,0,1,36.948,36.948" transform="translate(-15.424)" fill="#ffb54a"/>
        <path id="Trazado_876785" data-name="Trazado 876785" d="M84.137,70.812A29.758,29.758,0,1,1,113.9,41.054,29.791,29.791,0,0,1,84.137,70.812m0-57.587a27.829,27.829,0,1,0,27.829,27.829A27.861,27.861,0,0,0,84.137,13.225" transform="translate(-19.418 -4.034)" fill="#fcf0e3"/>
        <path id="Trazado_876786" data-name="Trazado 876786" d="M91.669,60.372a21.1,21.1,0,0,1-5.375-1.392A20.43,20.43,0,0,1,81.562,56.3L84.9,51.421a25.624,25.624,0,0,0,3.4,2.206,12.939,12.939,0,0,0,3.576,1.263V48.081a29.4,29.4,0,0,1-4.047-1.414,10.116,10.116,0,0,1-2.869-1.841,6.994,6.994,0,0,1-1.713-2.505A8.827,8.827,0,0,1,82.676,39v-.086a7.985,7.985,0,0,1,.642-3.255,7.444,7.444,0,0,1,1.82-2.527A9.3,9.3,0,0,1,87.986,31.4a13.924,13.924,0,0,1,3.683-.878V28.037h4.454v2.57a17.893,17.893,0,0,1,7.966,3.169l-2.869,5.011a24.429,24.429,0,0,0-2.613-1.521,13.2,13.2,0,0,0-2.7-1.006v6.467Q100.791,44.055,103,46.2a7.63,7.63,0,0,1,2.205,5.739v.086A7.577,7.577,0,0,1,102.7,57.8a9.6,9.6,0,0,1-2.848,1.756,13.433,13.433,0,0,1-3.726.9V64.7H91.669Zm.214-24.5a3.874,3.874,0,0,0-2.249.921,2.359,2.359,0,0,0-.706,1.735v.086a2.527,2.527,0,0,0,.6,1.692,5.737,5.737,0,0,0,2.356,1.349ZM95.909,55.1q3.04-.471,3.041-2.741v-.086a2.6,2.6,0,0,0-.643-1.82,6.185,6.185,0,0,0-2.4-1.349Z" transform="translate(-29.124 -10.011)" fill="#1b1b25"/>
        <path id="Trazado_876787" data-name="Trazado 876787" d="M50.836,21.585A16.718,16.718,0,1,1,34.118,4.867,16.718,16.718,0,0,1,50.836,21.585" transform="translate(-6.213 -1.738)" fill="#1b1b25"/>
        <path id="Trazado_876788" data-name="Trazado 876788" d="M48.093,18.843A16.718,16.718,0,1,1,31.375,2.125,16.718,16.718,0,0,1,48.093,18.843" transform="translate(-5.234 -0.759)" fill="#ffb54a"/>
        <path id="Trazado_876789" data-name="Trazado 876789" d="M33.183,34.166A13.465,13.465,0,1,1,46.647,20.7,13.48,13.48,0,0,1,33.183,34.166m0-26.057A12.592,12.592,0,1,0,45.775,20.7,12.607,12.607,0,0,0,33.183,8.109" transform="translate(-7.041 -2.584)" fill="#fcf0e3"/>
        <path id="Trazado_876790" data-name="Trazado 876790" d="M36.591,29.443a9.583,9.583,0,0,1-2.432-.63A9.25,9.25,0,0,1,32.018,27.6l1.512-2.209a11.649,11.649,0,0,0,1.54,1,5.872,5.872,0,0,0,1.618.572V23.881a13.34,13.34,0,0,1-1.832-.64,4.568,4.568,0,0,1-1.3-.833,3.18,3.18,0,0,1-.775-1.133,4,4,0,0,1-.261-1.5v-.039a3.606,3.606,0,0,1,.291-1.472,3.361,3.361,0,0,1,.823-1.143,4.207,4.207,0,0,1,1.289-.785,6.3,6.3,0,0,1,1.666-.4V14.812h2.016v1.162a8.1,8.1,0,0,1,3.6,1.434l-1.3,2.267a11.227,11.227,0,0,0-1.182-.688,5.983,5.983,0,0,0-1.221-.455v2.926a7.38,7.38,0,0,1,3.208,1.569,3.457,3.457,0,0,1,1,2.6v.039a3.426,3.426,0,0,1-1.134,2.616,4.349,4.349,0,0,1-1.288.795,6.084,6.084,0,0,1-1.686.407V31.4H36.591Zm.1-11.085a1.742,1.742,0,0,0-1.017.417,1.065,1.065,0,0,0-.32.784V19.6a1.144,1.144,0,0,0,.271.766,2.6,2.6,0,0,0,1.066.611Zm1.821,8.7q1.376-.213,1.376-1.24V25.78a1.178,1.178,0,0,0-.291-.824,2.806,2.806,0,0,0-1.085-.61Z" transform="translate(-11.433 -5.289)" fill="#1b1b25"/>
        <path id="Trazado_876791" data-name="Trazado 876791" d="M7.26,66.758h0A7.26,7.26,0,0,0,0,59.5a7.26,7.26,0,0,0,7.26-7.26,7.26,7.26,0,0,0,7.26,7.26,7.26,7.26,0,0,0-7.26,7.26" transform="translate(0 -18.653)" fill="#fff"/>
        <path id="Trazado_876792" data-name="Trazado 876792" d="M140.99,125.673h0a5.332,5.332,0,0,0-5.332-5.332,5.332,5.332,0,0,0,5.332-5.332,5.332,5.332,0,0,0,5.332,5.332,5.332,5.332,0,0,0-5.332,5.332" transform="translate(-48.441 -41.067)" fill="#fff"/>
        <path id="Trazado_876793" data-name="Trazado 876793" d="M84.3,160.644h0a9.8,9.8,0,0,0-9.8-9.8,9.8,9.8,0,0,0,9.8-9.8,9.8,9.8,0,0,0,9.8,9.8,9.8,9.8,0,0,0-9.8,9.8" transform="translate(-26.601 -50.361)" fill="#fff"/>
        <path id="Trazado_876794" data-name="Trazado 876794" d="M137.289,43.671h0a9.187,9.187,0,0,0-9.187-9.187,9.188,9.188,0,0,0,9.187-9.188,9.188,9.188,0,0,0,9.187,9.188,9.187,9.187,0,0,0-9.187,9.187" transform="translate(-45.743 -9.033)" fill="#fcf0e3"/>
        <path id="Trazado_876795" data-name="Trazado 876795" d="M187.348,57.9h0a5.068,5.068,0,0,0-5.069-5.068,5.068,5.068,0,0,0,5.069-5.067,5.067,5.067,0,0,0,5.068,5.067,5.067,5.067,0,0,0-5.068,5.068" transform="translate(-65.088 -17.056)" fill="#fff"/>
      </g>
    </g>
  </g>
</svg>
