<svg xmlns="http://www.w3.org/2000/svg" width="203" height="174" viewBox="0 0 203 174">
  <g id="_126" data-name="126" transform="translate(-206.66 -1677)">
    <rect id="Rectángulo_401514" data-name="Rectángulo 401514" width="203" height="174" rx="11" transform="translate(206.66 1677)" fill="#7b3d0e"/>
    <g id="Grupo_1100783" data-name="Grupo 1100783" transform="translate(225.66 1706)">
      <g id="Grupo_1100784" data-name="Grupo 1100784">
        <path id="Trazado_876796" data-name="Trazado 876796" d="M145.59,54.227A48.167,48.167,0,1,1,97.424,6.061,48.166,48.166,0,0,1,145.59,54.227" transform="translate(-7.974 -0.981)" fill="#1b1b25"/>
        <path id="Trazado_876797" data-name="Trazado 876797" d="M139.529,48.166A48.167,48.167,0,1,1,91.363,0a48.166,48.166,0,0,1,48.166,48.166" transform="translate(-6.992)" fill="#ffb54a"/>
        <path id="Trazado_876798" data-name="Trazado 876798" d="M93.172,88.882a38.793,38.793,0,1,1,38.793-38.793A38.837,38.837,0,0,1,93.172,88.882m0-75.072a36.279,36.279,0,1,0,36.279,36.279A36.32,36.32,0,0,0,93.172,13.81" transform="translate(-8.803 -1.829)" fill="#fcf0e3"/>
        <path id="Trazado_876799" data-name="Trazado 876799" d="M94.738,70.19a27.509,27.509,0,0,1-7.007-1.815,26.634,26.634,0,0,1-6.169-3.49l4.355-6.365A33.405,33.405,0,0,0,90.356,61.4a16.868,16.868,0,0,0,4.662,1.647V54.166a38.325,38.325,0,0,1-5.276-1.843A13.188,13.188,0,0,1,86,49.923a9.117,9.117,0,0,1-2.233-3.266,11.507,11.507,0,0,1-.754-4.327v-.111a10.41,10.41,0,0,1,.837-4.243,9.7,9.7,0,0,1,2.373-3.294,12.122,12.122,0,0,1,3.713-2.261,18.152,18.152,0,0,1,4.8-1.144V28.037h5.807v3.35a23.326,23.326,0,0,1,10.384,4.131l-3.741,6.532a31.845,31.845,0,0,0-3.406-1.982,17.213,17.213,0,0,0-3.517-1.312v8.431q6.364,1.731,9.24,4.523a9.946,9.946,0,0,1,2.875,7.481V59.3a9.877,9.877,0,0,1-3.266,7.537,12.508,12.508,0,0,1-3.713,2.289,17.512,17.512,0,0,1-4.857,1.173v5.527H94.738Zm.279-31.936a5.051,5.051,0,0,0-2.932,1.2,3.075,3.075,0,0,0-.92,2.261v.111a3.294,3.294,0,0,0,.781,2.205,7.478,7.478,0,0,0,3.071,1.759Zm5.248,25.068q3.963-.614,3.964-3.573v-.111a3.39,3.39,0,0,0-.838-2.373,8.063,8.063,0,0,0-3.126-1.759Z" transform="translate(-13.203 -4.539)" fill="#1b1b25"/>
        <path id="Trazado_876800" data-name="Trazado 876800" d="M145.59,54.227A48.167,48.167,0,1,1,97.424,6.061,48.166,48.166,0,0,1,145.59,54.227" transform="translate(-7.974 -0.981)" fill="#1b1b25"/>
        <path id="Trazado_876801" data-name="Trazado 876801" d="M139.529,48.166A48.167,48.167,0,1,1,91.363,0a48.166,48.166,0,0,1,48.166,48.166" transform="translate(-6.992)" fill="#ffb54a"/>
        <path id="Trazado_876802" data-name="Trazado 876802" d="M93.172,88.882a38.793,38.793,0,1,1,38.793-38.793A38.837,38.837,0,0,1,93.172,88.882m0-75.072a36.279,36.279,0,1,0,36.279,36.279A36.32,36.32,0,0,0,93.172,13.81" transform="translate(-8.803 -1.829)" fill="#fcf0e3"/>
        <path id="Trazado_876803" data-name="Trazado 876803" d="M94.738,70.19a27.509,27.509,0,0,1-7.007-1.815,26.634,26.634,0,0,1-6.169-3.49l4.355-6.365A33.405,33.405,0,0,0,90.356,61.4a16.868,16.868,0,0,0,4.662,1.647V54.166a38.325,38.325,0,0,1-5.276-1.843A13.188,13.188,0,0,1,86,49.923a9.117,9.117,0,0,1-2.233-3.266,11.507,11.507,0,0,1-.754-4.327v-.111a10.41,10.41,0,0,1,.837-4.243,9.7,9.7,0,0,1,2.373-3.294,12.122,12.122,0,0,1,3.713-2.261,18.152,18.152,0,0,1,4.8-1.144V28.037h5.807v3.35a23.326,23.326,0,0,1,10.384,4.131l-3.741,6.532a31.845,31.845,0,0,0-3.406-1.982,17.213,17.213,0,0,0-3.517-1.312v8.431q6.364,1.731,9.24,4.523a9.946,9.946,0,0,1,2.875,7.481V59.3a9.877,9.877,0,0,1-3.266,7.537,12.508,12.508,0,0,1-3.713,2.289,17.512,17.512,0,0,1-4.857,1.173v5.527H94.738Zm.279-31.936a5.051,5.051,0,0,0-2.932,1.2,3.075,3.075,0,0,0-.92,2.261v.111a3.294,3.294,0,0,0,.781,2.205,7.478,7.478,0,0,0,3.071,1.759Zm5.248,25.068q3.963-.614,3.964-3.573v-.111a3.39,3.39,0,0,0-.838-2.373,8.063,8.063,0,0,0-3.126-1.759Z" transform="translate(-13.203 -4.539)" fill="#1b1b25"/>
        <path id="Trazado_876804" data-name="Trazado 876804" d="M60.988,26.662A21.794,21.794,0,1,1,39.195,4.867,21.794,21.794,0,0,1,60.988,26.662" transform="translate(-2.817 -0.788)" fill="#1b1b25"/>
        <path id="Trazado_876805" data-name="Trazado 876805" d="M58.245,23.92A21.794,21.794,0,1,1,36.452,2.125,21.794,21.794,0,0,1,58.245,23.92" transform="translate(-2.373 -0.344)" fill="#ffb54a"/>
        <path id="Trazado_876806" data-name="Trazado 876806" d="M37.271,42.343A17.553,17.553,0,1,1,54.824,24.79,17.573,17.573,0,0,1,37.271,42.343m0-33.968A16.415,16.415,0,1,0,53.686,24.79,16.434,16.434,0,0,0,37.271,8.374" transform="translate(-3.192 -1.172)" fill="#fcf0e3"/>
        <path id="Trazado_876807" data-name="Trazado 876807" d="M37.98,33.885a12.493,12.493,0,0,1-3.171-.821,12.058,12.058,0,0,1-2.791-1.579l1.97-2.88A15.185,15.185,0,0,0,36,29.906a7.654,7.654,0,0,0,2.11.745V26.635a17.39,17.39,0,0,1-2.388-.834,5.956,5.956,0,0,1-1.692-1.086,4.146,4.146,0,0,1-1.011-1.478,5.216,5.216,0,0,1-.34-1.958v-.051a4.7,4.7,0,0,1,.379-1.919,4.382,4.382,0,0,1,1.073-1.49,5.484,5.484,0,0,1,1.68-1.023,8.208,8.208,0,0,1,2.172-.518V14.812h2.628v1.515a10.554,10.554,0,0,1,4.7,1.87l-1.692,2.955a14.636,14.636,0,0,0-1.541-.9,7.8,7.8,0,0,0-1.592-.593v3.814a9.621,9.621,0,0,1,4.181,2.046,4.507,4.507,0,0,1,1.3,3.386v.05a4.467,4.467,0,0,1-1.478,3.41A5.669,5.669,0,0,1,42.8,33.4a7.931,7.931,0,0,1-2.2.531v2.5H37.98Zm.127-14.45a2.271,2.271,0,0,0-1.326.543A1.388,1.388,0,0,0,36.363,21v.05a1.492,1.492,0,0,0,.354,1,3.392,3.392,0,0,0,1.39.8Zm2.374,11.342q1.794-.278,1.794-1.617v-.05a1.536,1.536,0,0,0-.379-1.074,3.659,3.659,0,0,0-1.415-.8Z" transform="translate(-5.183 -2.398)" fill="#1b1b25"/>
        <path id="Trazado_876808" data-name="Trazado 876808" d="M9.464,71.167h0A9.464,9.464,0,0,0,0,61.7a9.465,9.465,0,0,0,9.464-9.465A9.465,9.465,0,0,0,18.928,61.7a9.464,9.464,0,0,0-9.464,9.464" transform="translate(0 -8.456)" fill="#fff"/>
        <path id="Trazado_876809" data-name="Trazado 876809" d="M142.609,128.911h0a6.951,6.951,0,0,0-6.951-6.951,6.951,6.951,0,0,0,6.951-6.951,6.951,6.951,0,0,0,6.951,6.951,6.951,6.951,0,0,0-6.951,6.951" transform="translate(-21.96 -18.617)" fill="#fff"/>
        <path id="Trazado_876810" data-name="Trazado 876810" d="M87.276,166.6h0A12.781,12.781,0,0,0,74.5,153.817a12.781,12.781,0,0,0,12.781-12.781,12.781,12.781,0,0,0,12.781,12.781,12.908,12.908,0,0,0-9.607,4.351,12.546,12.546,0,0,0-3.174,8.43" transform="translate(-38.117 -50.475)" fill="#fff"/>
        <path id="Trazado_876811" data-name="Trazado 876811" d="M140.079,49.25h0A11.977,11.977,0,0,0,128.1,37.274,11.977,11.977,0,0,0,140.079,25.3a11.977,11.977,0,0,0,11.977,11.978A11.977,11.977,0,0,0,140.079,49.25" transform="translate(-20.737 -4.095)" fill="#fcf0e3"/>
        <path id="Trazado_876812" data-name="Trazado 876812" d="M188.887,60.978h0a6.607,6.607,0,0,0-6.608-6.607,6.607,6.607,0,0,0,6.608-6.606,6.606,6.606,0,0,0,6.607,6.606,6.606,6.606,0,0,0-6.607,6.607" transform="translate(-29.507 -7.732)" fill="#fff"/>
      </g>
    </g>
  </g>
</svg>
