<svg xmlns="http://www.w3.org/2000/svg" width="190" height="190" viewBox="0 0 190 190">
  <g id="_13" data-name="13" transform="translate(16111 8798)">
    <circle id="Elipse_11494" data-name="Elipse 11494" cx="95" cy="95" r="95" transform="translate(-16111 -8798)" fill="#22cac5"/>
    <g id="riesgo_1_" data-name="riesgo (1)" transform="translate(-16084.971 -8804.411)">
      <path id="Trazado_873652" data-name="Trazado 873652" d="M194.022,304,176,336.44h36.044Z" transform="translate(-124.753 -191.813)" fill="#dadcde"/>
      <path id="Trazado_873653" data-name="Trazado 873653" d="M296.731,162.667l43.088,3.77-17.466-37.71Z" transform="translate(-218.286 -56.025)" fill="#eb423f"/>
      <path id="Trazado_873654" data-name="Trazado 873654" d="M0,0H25.231V7.209H0Z" transform="translate(21.628 94.423) rotate(4.992)" fill="#ffb632"/>
      <path id="Trazado_873655" data-name="Trazado 873655" d="M0,0H25.231V7.209H0Z" transform="translate(18.665 86.929) rotate(4.992)" fill="#ffd33a"/>
      <path id="Trazado_873656" data-name="Trazado 873656" d="M0,0H25.231V7.209H0Z" transform="translate(22.882 80.063) rotate(4.992)" fill="#ffb632"/>
      <path id="Trazado_873657" data-name="Trazado 873657" d="M0,0H25.231V7.209H0Z" transform="translate(19.919 72.569) rotate(4.992)" fill="#ffd33a"/>
      <circle id="Elipse_11501" data-name="Elipse 11501" cx="12.615" cy="12.615" r="12.615" transform="translate(36.408 78.789)" fill="#ffd33a"/>
      <path id="Trazado_873658" data-name="Trazado 873658" d="M0,0H25.231V7.209H0Z" transform="translate(25.931 65.859) rotate(4.992)" fill="#ffb632"/>
      <path id="Trazado_873659" data-name="Trazado 873659" d="M0,0H25.231V7.209H0Z" transform="translate(21.173 58.209) rotate(4.992)" fill="#ffd33a"/>
      <path id="Trazado_873660" data-name="Trazado 873660" d="M0,0H7.209V104.528H0Z" transform="translate(16.764 108.492) rotate(-85.008)" fill="#dadcde"/>
      <path id="Trazado_873661" data-name="Trazado 873661" d="M16.617,110.279l49.256,4.31-16.2,29.163a1.8,1.8,0,0,0,1.575,2.677H87.291a1.8,1.8,0,0,0,1.575-2.677L73.011,115.213l47.736,4.176c.053,0,.106.007.159.007a1.8,1.8,0,0,0,1.793-1.644l.628-7.181a1.8,1.8,0,0,0-.162-.914h0L105.7,71.945a1.8,1.8,0,0,0-3.074-.328L77.607,104.76l-20.041-1.753A14.415,14.415,0,0,0,46.65,77.182l.04-.454,3.591.314c.052,0,.1.007.158.007a1.8,1.8,0,0,0,1.8-1.644l.628-7.181a1.8,1.8,0,0,0-1.638-1.952l-3.591-.315.471-5.386a1.8,1.8,0,0,0-1.638-1.952l-25.135-2.2a1.8,1.8,0,0,0-1.952,1.638l-.629,7.181a1.8,1.8,0,0,0,1.638,1.952l3.591.314L23.664,71.1l-3.591-.314a1.8,1.8,0,0,0-1.952,1.638L17.492,79.6a1.8,1.8,0,0,0,1.638,1.952l1.8.158-.315,3.59-1.8-.158a1.8,1.8,0,0,0-1.952,1.638l-.628,7.181a1.8,1.8,0,0,0,1.638,1.952l1.8.158-.314,3.59-1.8-.158a1.8,1.8,0,0,0-1.952,1.638l-.628,7.181a1.8,1.8,0,0,0,1.638,1.952Zm67.61,32.546H54.311L69.269,115.9Zm19.466-66.638,14.895,32.159-36.745-3.215Zm-54.678,4.4q.471,0,.95.042a10.813,10.813,0,0,1-.934,21.586c-.313,0-.63-.014-.946-.041h-.006a10.813,10.813,0,0,1,.937-21.585ZM35.964,97.5a14.52,14.52,0,0,0,2.631,3.848l-15.65-1.37.314-3.591Zm-.535-10.9L24.2,85.615l.314-3.591,12.706,1.112A14.327,14.327,0,0,0,35.429,86.6ZM45.522,69.389l3.59.314-.314,3.59L45.21,72.98,27.255,71.409l.314-3.591,17.953,1.571ZM22.5,63.758l.314-3.591,21.544,1.885-.314,3.591ZM21.554,74.53,43.1,76.414l-.169,1.932A14.485,14.485,0,0,0,40.48,79.8L21.24,78.119ZM20.3,88.892,34.66,90.149a14.405,14.405,0,0,0,.142,3.63l-14.817-1.3ZM19.04,103.255l100.54,8.8-.315,3.59-100.538-8.8Z" transform="translate(0)"/>
      <path id="Trazado_873662" data-name="Trazado 873662" d="M150.413,192.257a1.8,1.8,0,0,0,1.638,1.952q.08.007.159.007A1.8,1.8,0,0,0,154,192.571l.042-.479a3.606,3.606,0,0,0-1.209-6.86l1.8.158a1.8,1.8,0,1,0,.315-3.591,1.8,1.8,0,1,0-3.591-.314l-.042.485a3.6,3.6,0,0,0,1.21,6.853l-1.8-.158a1.8,1.8,0,1,0-.314,3.591Z" transform="translate(-103.657 -95.623)"/>
      <path id="Trazado_873663" data-name="Trazado 873663" d="M391.833,192.1a1.8,1.8,0,0,0-1.952,1.638l-.628,7.181a1.8,1.8,0,0,0,1.638,1.952q.08.007.159.007a1.8,1.8,0,0,0,1.793-1.645l.628-7.181A1.8,1.8,0,0,0,391.833,192.1Z" transform="translate(-289.959 -105.113)"/>
      <path id="Trazado_873664" data-name="Trazado 873664" d="M388.416,255.853a1.8,1.8,0,1,0,1.638,1.952A1.8,1.8,0,0,0,388.416,255.853Z" transform="translate(-287.799 -154.507)"/>
    </g>
  </g>
</svg>
