<svg xmlns="http://www.w3.org/2000/svg" xmlns:xlink="http://www.w3.org/1999/xlink" width="715" height="201.597" viewBox="0 0 715 201.597">
  <defs>
    <clipPath id="clip-path">
      <rect id="Rectángulo_401433" data-name="Rectángulo 401433" width="163.886" height="121.266" fill="none"/>
    </clipPath>
    <clipPath id="clip-path-2">
      <rect id="Rectángulo_401413" data-name="Rectángulo 401413" width="400.521" height="191.597" fill="none"/>
    </clipPath>
  </defs>
  <g id="_15" data-name="15" transform="translate(-705.051 -2170)">
    <g id="Grupo_1099912" data-name="Grupo 1099912" transform="translate(0 -567)">
      <rect id="Rectángulo_401339" data-name="Rectángulo 401339" width="715" height="187" rx="16" transform="translate(705.051 2737)" fill="#b15815"/>
      <path id="Trazado_873608" data-name="Trazado 873608" d="M96.685,0A33.754,33.754,0,0,1,62.97,33.715,33.754,33.754,0,0,1,29.253,0H0A63.04,63.04,0,0,0,62.97,62.969,63.04,63.04,0,0,0,125.938,0Z" transform="translate(715.578 2737)" fill="#fdb641"/>
      <path id="Trazado_873609" data-name="Trazado 873609" d="M17.251,34.5h0V26.488a9.237,9.237,0,1,1,9.237-9.237H34.5A17.251,17.251,0,1,0,17.251,34.5" transform="translate(1363.04 2802.856) rotate(-90)" fill="#22cac5"/>
      <g id="Grupo_1099864" data-name="Grupo 1099864" transform="translate(-12.239 265.735)">
        <path id="Trazado_873607" data-name="Trazado 873607" d="M98.992,64.471a34.52,34.52,0,0,0-69.041,0H0a64.472,64.472,0,0,1,128.943,0Z" transform="translate(1291.051 2608.265)" fill="#22cac5"/>
        <path id="Trazado_873610" data-name="Trazado 873610" d="M26.6,0A30.692,30.692,0,0,0,57.257,30.657v26.6A57.322,57.322,0,0,1,0,0Z" transform="translate(1301.843 2615.052)" fill="#fdb641"/>
      </g>
      <path id="Trazado_873611" data-name="Trazado 873611" d="M29.765,64.07A34.344,34.344,0,0,1,64.07,29.765V0A64.143,64.143,0,0,0,0,64.07Z" transform="translate(830.578 2870.139)" fill="#fff"/>
    </g>
    <g id="Grupo_1099918" data-name="Grupo 1099918" transform="translate(754.051 2188)">
      <g id="Grupo_1099917" data-name="Grupo 1099917">
        <g id="Grupo_1099916" data-name="Grupo 1099916" clip-path="url(#clip-path)">
          <path id="Trazado_873723" data-name="Trazado 873723" d="M153.376,124.6H5.065A5.065,5.065,0,0,1,0,119.532V11.815A5.065,5.065,0,0,1,5.065,6.75H153.376a5.065,5.065,0,0,1,5.065,5.065V119.532a5.065,5.065,0,0,1-5.065,5.065" transform="translate(0 -3.331)" fill="#b5e1ff"/>
          <path id="Trazado_873724" data-name="Trazado 873724" d="M163.376,118.6H15.065A5.065,5.065,0,0,1,10,113.532V5.815A5.065,5.065,0,0,1,15.065.75H163.376a5.065,5.065,0,0,1,5.065,5.065V113.532a5.065,5.065,0,0,1-5.065,5.065" transform="translate(-4.935 -0.37)" fill="#fcfbff"/>
          <rect id="Rectángulo_401414" data-name="Rectángulo 401414" width="158.441" height="117.847" rx="10" transform="translate(5.065 0.38)" fill="none" stroke="#b5e1ff" stroke-linecap="round" stroke-linejoin="round" stroke-width="1.5"/>
          <rect id="Rectángulo_401415" data-name="Rectángulo 401415" width="16.461" height="27.446" transform="translate(59.822 50.313)" fill="#1574dd"/>
          <rect id="Rectángulo_401416" data-name="Rectángulo 401416" width="16.461" height="40.693" transform="translate(121.52 37.066)" fill="#1574dd"/>
          <rect id="Rectángulo_401417" data-name="Rectángulo 401417" width="16.461" height="35.339" transform="translate(89.621 42.42)" fill="#ffac00"/>
          <line id="Línea_591" data-name="Línea 591" x2="89.468" transform="translate(54.314 77.759)" fill="none" stroke="#1574dd" stroke-miterlimit="10" stroke-width="1.5"/>
          <path id="Trazado_873725" data-name="Trazado 873725" d="M84.8,43.471A17.473,17.473,0,0,0,68.98,33.417V50.891Z" transform="translate(-34.041 -16.491)" fill="#ffac00"/>
          <path id="Trazado_873726" data-name="Trazado 873726" d="M84.8,43.471A17.473,17.473,0,0,0,68.98,33.417V50.891Z" transform="translate(-34.041 -16.491)" fill="none" stroke="#b5e1ff" stroke-linecap="round" stroke-linejoin="round" stroke-width="1.5"/>
          <circle id="Elipse_11504" data-name="Elipse 11504" cx="17.474" cy="17.474" r="17.474" transform="translate(17.464 16.926)" fill="none" stroke="#b5e1ff" stroke-linecap="round" stroke-linejoin="round" stroke-width="1.5"/>
          <rect id="Rectángulo_401418" data-name="Rectángulo 401418" width="17.286" height="2.659" transform="translate(58.998 12.621)" fill="#ffac00"/>
          <rect id="Rectángulo_401419" data-name="Rectángulo 401419" width="27.416" height="2.659" transform="translate(58.998 17.939)" fill="#b5e1ff"/>
          <rect id="Rectángulo_401420" data-name="Rectángulo 401420" width="27.416" height="2.659" transform="translate(58.998 22.371)" fill="#b5e1ff"/>
          <rect id="Rectángulo_401421" data-name="Rectángulo 401421" width="17.286" height="2.659" transform="translate(59.822 83.626)" fill="#ffac00"/>
          <rect id="Rectángulo_401422" data-name="Rectángulo 401422" width="27.416" height="2.659" transform="translate(59.822 88.944)" fill="#b5e1ff"/>
          <rect id="Rectángulo_401423" data-name="Rectángulo 401423" width="17.286" height="2.659" transform="translate(59.822 93.376)" fill="#b5e1ff"/>
          <rect id="Rectángulo_401424" data-name="Rectángulo 401424" width="17.286" height="2.659" transform="translate(102.335 83.626)" fill="#ffac00"/>
          <rect id="Rectángulo_401425" data-name="Rectángulo 401425" width="27.416" height="2.659" transform="translate(102.335 88.944)" fill="#b5e1ff"/>
          <rect id="Rectángulo_401426" data-name="Rectángulo 401426" width="17.286" height="2.659" transform="translate(102.335 93.376)" fill="#b5e1ff"/>
          <rect id="Rectángulo_401427" data-name="Rectángulo 401427" width="9.9" height="2.659" transform="translate(17.464 56.528)" fill="#1574dd"/>
          <rect id="Rectángulo_401428" data-name="Rectángulo 401428" width="15.702" height="2.659" transform="translate(17.464 61.846)" fill="#b5e1ff"/>
          <rect id="Rectángulo_401429" data-name="Rectángulo 401429" width="9.9" height="2.659" transform="translate(17.464 69.782)" fill="#1574dd"/>
          <rect id="Rectángulo_401430" data-name="Rectángulo 401430" width="15.702" height="2.659" transform="translate(17.464 75.1)" fill="#b5e1ff"/>
          <rect id="Rectángulo_401431" data-name="Rectángulo 401431" width="9.9" height="2.659" transform="translate(17.464 83.035)" fill="#1574dd"/>
          <rect id="Rectángulo_401432" data-name="Rectángulo 401432" width="15.702" height="2.659" transform="translate(17.464 88.354)" fill="#b5e1ff"/>
        </g>
      </g>
      <text id="_50_100" data-name="50 / 100" transform="translate(121.129 19.874)" fill="#ffac00" font-size="7" font-family="Poppins-SemiBold, Poppins" font-weight="600"><tspan x="0" y="0">50 / 100</tspan></text>
    </g>
    <g id="Grupo_1099914" data-name="Grupo 1099914" transform="translate(862.051 2180)">
      <g id="Grupo_1099913" data-name="Grupo 1099913" clip-path="url(#clip-path-2)">
        <path id="Trazado_873681" data-name="Trazado 873681" d="M142.431,120.243l-26.79,10.375s-19.363,7.053-22.056,23.723S86.148,197.3,86.148,197.3l-35.648,6.8v14.362H211.427L210.1,182.9l19.645-1.342c-4.272-27.345-9.081-49.016-38.061-55.94l-26.269-6.659Z" transform="translate(-11.647 -27.435)" fill="#7040bf"/>
        <path id="Trazado_873682" data-name="Trazado 873682" d="M162.485,123.037s-1.21,19.1,17.255,18.136,17.4-20.376,17.4-20.376" transform="translate(-37.47 -27.859)" fill="none" stroke="#492994" stroke-linecap="round" stroke-linejoin="round" stroke-width="1.5"/>
        <path id="Trazado_873683" data-name="Trazado 873683" d="M116.506,205.135l-28.033-1.316c-1.333,7.553-2.325,13.049-2.325,13.049l-35.648,6.8v14.362h65.831Z" transform="translate(-11.647 -47.006)" fill="#ffa189"/>
        <path id="Trazado_873684" data-name="Trazado 873684" d="M99.855,203.819l28.033,1.316v6.828Z" transform="translate(-23.029 -47.006)" fill="#f8756a"/>
        <path id="Trazado_873685" data-name="Trazado 873685" d="M199,55.958a8.478,8.478,0,0,0-7.6-6.924c.769-5-4.135-8.752-11.733-7.982s-9.521-3.366-18.176-4.424-12.5,7.309-10.483,14.522,10.483,7.886,10.483,7.886l.673,23.947,21.056.577c5.474,0,9.911-4.155,9.911-9.281a8.73,8.73,0,0,0-.321-2.305c4.222-4.234,7.051-11.494,6.187-16.015" transform="translate(-34.705 -8.426)" fill="#00184c"/>
        <path id="Trazado_873686" data-name="Trazado 873686" d="M191.213,70.263a6.059,6.059,0,0,0-5.6,3.758c-1.831-1.683-3.5-4.592-3.628-9.625,0,0-7.135,3.1-9.809.481a8.972,8.972,0,0,1-2.6-6.347,7.219,7.219,0,0,1-8.594,3.612l-2.432,22.236s-1.977,9.917,9.7,12.07l-1.177,12.476s-.759,11.293,9.1,11.733c14.362.641,14.362-11.733,14.362-11.733l-2.08-27.21a6.057,6.057,0,1,0,2.753-11.451" transform="translate(-36.536 -13.499)" fill="#ffa189"/>
        <path id="Trazado_873687" data-name="Trazado 873687" d="M182.747,64.4s-7.135,3.1-9.809.481a8.972,8.972,0,0,1-2.6-6.347,7.219,7.219,0,0,1-8.594,3.612s3.785,2.864,8.145,1.71c0,0,2.953,6.026,8.721,5.257,0,0,3.344,5.722,7.762,4.912-1.831-1.683-3.5-4.592-3.628-9.625" transform="translate(-37.303 -13.499)" fill="#f8756a"/>
        <path id="Trazado_873688" data-name="Trazado 873688" d="M171.039,105.471s10.363,1.609,14.306-7.816c0,0-.812,12.342-14.832,13.384Z" transform="translate(-39.325 -22.522)" fill="#f8756a"/>
        <line id="Línea_572" data-name="Línea 572" y1="3.27" x2="6.251" transform="translate(151.31 60.611)" fill="none" stroke="#f8756a" stroke-linecap="round" stroke-linejoin="round" stroke-width="1.5"/>
        <path id="Trazado_873689" data-name="Trazado 873689" d="M167.7,75.155l-4.045,6.6a1.539,1.539,0,0,0,.76,2.241l3.285,1.26" transform="translate(-37.692 -17.333)" fill="none" stroke="#f8756a" stroke-linecap="round" stroke-linejoin="round" stroke-width="1.5"/>
        <path id="Trazado_873690" data-name="Trazado 873690" d="M166.208,91.751s4.681,1.443,7.278-1.346" transform="translate(-38.332 -20.85)" fill="none" stroke="#f8756a" stroke-linecap="round" stroke-linejoin="round" stroke-width="1.5"/>
        <path id="Trazado_873691" data-name="Trazado 873691" d="M164.585,73.3c0,.823-.474,1.49-1.058,1.49s-1.058-.667-1.058-1.49.474-1.49,1.058-1.49,1.058.667,1.058,1.49" transform="translate(-37.47 -16.562)" fill="#00184c"/>
        <path id="Trazado_873692" data-name="Trazado 873692" d="M178.119,75.383c0,.824-.475,1.491-1.058,1.491S176,76.207,176,75.383s.473-1.49,1.058-1.49,1.058.667,1.058,1.49" transform="translate(-40.591 -17.042)" fill="#00184c"/>
        <path id="Trazado_873693" data-name="Trazado 873693" d="M175.346,69.673a4.821,4.821,0,0,1,5.242,2.02" transform="translate(-40.44 -16.034)" fill="none" stroke="#00184c" stroke-linecap="round" stroke-linejoin="round" stroke-width="3"/>
        <path id="Trazado_873694" data-name="Trazado 873694" d="M160.667,68.545a6.668,6.668,0,0,1,4.263,0" transform="translate(-37.054 -15.729)" fill="none" stroke="#00184c" stroke-linecap="round" stroke-linejoin="round" stroke-width="3"/>
        <line id="Línea_573" data-name="Línea 573" y1="51.356" x2="0.577" transform="translate(104.571 138.895)" fill="none" stroke="#492994" stroke-linecap="round" stroke-linejoin="round" stroke-width="1.5"/>
        <line id="Línea_574" data-name="Línea 574" x2="27.148" y2="1.378" transform="translate(77.851 150.981)" fill="none" stroke="#492994" stroke-linecap="round" stroke-linejoin="round" stroke-width="1.5"/>
        <path id="Trazado_873695" data-name="Trazado 873695" d="M171.549,221.7l-18.209-9.1s-2.821-1.923-6.667,1.026-15.131,13.592-20.261,14.1c0,0-1.923,4.232,4.1,4.232,0,0,2.436,2.821,7.181.769,0,0,3.077,2.308,7.438-.385,0,0,2.821,1.923,7.437.769l6.155-1.923a19.486,19.486,0,0,0,12.823,6.027h59.37s22.055-1.539,19.234-20c-2.358-15.432-2.973-16.894-2.973-16.894L213.856,202.6l1.109,9.982Z" transform="translate(-29.087 -46.2)" fill="#ffa189"/>
        <path id="Trazado_873696" data-name="Trazado 873696" d="M240.156,202.6l33.324-2.277,1.068,5.169Z" transform="translate(-55.387 -46.2)" fill="#f8756a"/>
        <path id="Trazado_873697" data-name="Trazado 873697" d="M241.6,216.212s7.17-1.135,12.652,3" transform="translate(-55.719 -49.832)" fill="none" stroke="#f8756a" stroke-linecap="round" stroke-linejoin="round" stroke-width="1.5"/>
        <line id="Línea_575" data-name="Línea 575" x2="4.809" y2="2.244" transform="translate(142.462 175.504)" fill="none" stroke="#f8756a" stroke-linecap="round" stroke-linejoin="round" stroke-width="1.5"/>
        <path id="Trazado_873698" data-name="Trazado 873698" d="M168.5,239.861l4.841-1.956s4.232,5.578,9.713,4.52" transform="translate(-38.861 -54.867)" fill="none" stroke="#f8756a" stroke-linecap="round" stroke-linejoin="round" stroke-width="1.5"/>
        <line id="Línea_576" data-name="Línea 576" y1="7.149" x2="11.701" transform="translate(116.047 178.998)" fill="none" stroke="#f8756a" stroke-linecap="round" stroke-linejoin="round" stroke-width="1.5"/>
        <line id="Línea_577" data-name="Línea 577" y1="10.611" x2="13.288" transform="translate(108.61 175.921)" fill="none" stroke="#f8756a" stroke-linecap="round" stroke-linejoin="round" stroke-width="1.5"/>
        <line id="Línea_578" data-name="Línea 578" y1="11.765" x2="15.259" transform="translate(101.429 173.997)" fill="none" stroke="#f8756a" stroke-linecap="round" stroke-linejoin="round" stroke-width="1.5"/>
        <line id="Línea_579" data-name="Línea 579" x1="3.069" y1="20.581" transform="translate(181.7 135.817)" fill="none" stroke="#492994" stroke-linecap="round" stroke-linejoin="round" stroke-width="1.5"/>
        <line id="Línea_580" data-name="Línea 580" y1="3.329" x2="33.08" transform="translate(183.962 147.652)" fill="none" stroke="#492994" stroke-linecap="round" stroke-linejoin="round" stroke-width="1.5"/>
        <rect id="Rectángulo_401411" data-name="Rectángulo 401411" width="71.744" height="6.091" transform="translate(57.447 184.929)" fill="#1574dd"/>
        <path id="Trazado_873699" data-name="Trazado 873699" d="M91.923,230.214H15.388L0,169.947H76.536Z" transform="translate(0 -39.194)" fill="#b5e1ff"/>
        <path id="Trazado_873700" data-name="Trazado 873700" d="M97.864,169.947H92.478l15.387,60.267h5.386Z" transform="translate(-21.328 -39.194)" fill="#1574dd"/>
        <path id="Trazado_873701" data-name="Trazado 873701" d="M54.484,204.979c.8,3.2-.561,6.286-3.034,6.9s-5.126-1.472-5.923-4.667.561-6.286,3.034-6.9,5.126,1.472,5.923,4.667" transform="translate(-10.447 -46.173)" fill="#fcfbff"/>
        <path id="Trazado_873702" data-name="Trazado 873702" d="M361.477,77.943S340.511,82.218,327.047,67.6s7.117-35.944,7.117-35.944-10.964-10.218-5.77-20.028c0,0,5.129-7.117,14.586-2.5,0,0,11.054-15,29.49-6.54S390.708,34.9,390.136,39.263c0,0,22.754,35.013-28.659,38.68" transform="translate(-74.372 0)" fill="#00184c"/>
        <path id="Trazado_873703" data-name="Trazado 873703" d="M323.485,124.52l-3.462,10.194L291.171,104.9a16.772,16.772,0,0,0-1.218-10.515c-2.565-5.386-.9-11.541-.9-11.541A3.669,3.669,0,0,0,284.568,84l-2.734,8.619-23.76-6.263a5.271,5.271,0,0,0-1.346-.24c-1.578-.072-5.037.07-5.627,2.628,0,0-4.36-1.443-6.823,2.356l2.463,1.106s-3.863.369-4.761,2.933l2.981,2.3s2.068,3.757,3.959,5.022c6.1,4.086,26.287,8.207,29.172,11.477l26.168,44.452c3.75,6.37,8.77,12.112,16.084,13.187,4.9.72,12.343-.65,16.028-5.706a158.392,158.392,0,0,0,15.58-26.159Z" transform="translate(-55.807 -19.029)" fill="#ffa189"/>
        <line id="Línea_581" data-name="Línea 581" x2="8.784" y2="9.296" transform="translate(264.215 115.685)" fill="none" stroke="#f8756a" stroke-linecap="round" stroke-linejoin="round" stroke-width="1.5"/>
        <path id="Trazado_873704" data-name="Trazado 873704" d="M373.814,151.6l-4.147,24.694s8.975-14.986,11.733-20.645Z" transform="translate(-85.255 -34.963)" fill="#f8756a"/>
        <line id="Línea_582" data-name="Línea 582" x2="15.901" y2="5.129" transform="translate(195.292 69.715)" fill="none" stroke="#f8756a" stroke-linecap="round" stroke-linejoin="round" stroke-width="1.5"/>
        <line id="Línea_583" data-name="Línea 583" x2="17.696" y2="5.386" transform="translate(190.933 73.178)" fill="none" stroke="#f8756a" stroke-linecap="round" stroke-linejoin="round" stroke-width="1.5"/>
        <line id="Línea_584" data-name="Línea 584" x2="17.722" y2="4.852" transform="translate(188.47 77.943)" fill="none" stroke="#f8756a" stroke-linecap="round" stroke-linejoin="round" stroke-width="1.5"/>
        <path id="Trazado_873705" data-name="Trazado 873705" d="M280.042,107.214s8.848-4.809,12.406,3.847" transform="translate(-64.585 -24.419)" fill="none" stroke="#f8756a" stroke-linecap="round" stroke-linejoin="round" stroke-width="1.5"/>
        <path id="Trazado_873706" data-name="Trazado 873706" d="M465.347,128.113s17.567,2.052,23.979,22.119-14.618,70.334-14.618,70.334H390.333l31.288-56.549Z" transform="translate(-90.022 -29.546)" fill="#00184c"/>
        <path id="Trazado_873707" data-name="Trazado 873707" d="M447.767,183.7l4.712,3.462-9.937,46.226" transform="translate(-102.062 -42.366)" fill="none" stroke="#013f81" stroke-linecap="round" stroke-linejoin="round" stroke-width="1.5"/>
        <path id="Trazado_873708" data-name="Trazado 873708" d="M476.142,137.713l5.275,5.208a26.063,26.063,0,0,0,21.622,7.3l.179-.023" transform="translate(-109.812 -31.76)" fill="none" stroke="#013f81" stroke-linecap="round" stroke-linejoin="round" stroke-width="1.5"/>
        <path id="Trazado_873709" data-name="Trazado 873709" d="M490,226.594s18.978-58.517,12.054-72.343" transform="translate(-113.008 -35.575)" fill="none" stroke="#013f81" stroke-linecap="round" stroke-linejoin="round" stroke-width="1.5"/>
        <path id="Trazado_873710" data-name="Trazado 873710" d="M430.688,65.258c-3.606-4.544-8.706-7.009-13.107-8.345a34.115,34.115,0,0,0-12.744-1.274l-13.259,1.1L374.038,67.419l-6.473,3.459A22,22,0,0,0,357.04,83.185a46.616,46.616,0,0,0-1.429,5.295c-2.308,10.964-7.694,29.813-7.694,29.813l28.467,15.2,6.684-13.72a18.381,18.381,0,0,0,5.049.321c7.181,4.232,23.722,27.184,23.722,27.184l43.726-35.9s-17.182-36.417-24.876-46.111" transform="translate(-80.239 -12.802)" fill="#1574dd"/>
        <path id="Trazado_873711" data-name="Trazado 873711" d="M389.327,133.091s-7.58-.092-8.929-6.6a74.456,74.456,0,0,0-4.1-13.208s1.827,23.914-1.239,29.482l7.586,4.049Z" transform="translate(-86.499 -26.126)" fill="#013f81"/>
        <path id="Trazado_873712" data-name="Trazado 873712" d="M390.253,48.491l-14.068-6.982a5.9,5.9,0,0,0,3.681-5.568,5.542,5.542,0,1,0-11.06,0c0,.152.011.3.022.449l-.235-.2c-6.519-.875-19.3-16.46-19.3-16.464a11.124,11.124,0,0,0-2.511,5.812l.256,6.54-4.872,8.463h4.424s-.064,12.822,6.091,15.9a12.983,12.983,0,0,0,13.807-1.574l6.223,4.3s1.9,15.612,11.9,14.33c12.29-1.576,5.642-25,5.642-25" transform="translate(-78.913 -4.549)" fill="#ffa189"/>
        <path id="Trazado_873713" data-name="Trazado 873713" d="M368.086,35.6c-6.818-3.006-17.369-15.874-17.371-15.877a11.052,11.052,0,0,0-2.387,5.069c5.186,3.456,13.276,8.474,19.758,10.809Z" transform="translate(-80.334 -4.55)" fill="#f8756a"/>
        <path id="Trazado_873714" data-name="Trazado 873714" d="M373.78,63.119s3.952-4.225,5.491-7.609c0,0,1.116,7.358-.4,11.124Z" transform="translate(-86.204 -12.802)" fill="#f8756a"/>
        <line id="Línea_585" data-name="Línea 585" y1="5.578" x2="3.645" transform="translate(293.462 28.265)" fill="none" stroke="#f8756a" stroke-linecap="round" stroke-linejoin="round" stroke-width="1.5"/>
        <path id="Trazado_873715" data-name="Trazado 873715" d="M354.667,51.011l6.283-2.564s.978,3.4-2.34,4.455c-2.694.859-3.943-1.891-3.943-1.891" transform="translate(-81.796 -11.173)" fill="#fcfbff"/>
        <path id="Trazado_873716" data-name="Trazado 873716" d="M354.47,36.166c0,.823-.474,1.49-1.058,1.49s-1.058-.667-1.058-1.49.474-1.49,1.058-1.49,1.058.667,1.058,1.49" transform="translate(-81.263 -7.997)" fill="#00184c"/>
        <path id="Trazado_873717" data-name="Trazado 873717" d="M351.417,29.415a4.82,4.82,0,0,1,5.241,2.02" transform="translate(-81.047 -6.75)" fill="none" stroke="#00184c" stroke-linecap="round" stroke-linejoin="round" stroke-width="3"/>
        <path id="Trazado_873718" data-name="Trazado 873718" d="M402.18,132.113l.385,10.771-32.891,41.354-22.569,9.045a8.364,8.364,0,0,0-4.076,3.486l-10.862,18.244a6.319,6.319,0,0,0,6.924-.962l-1.346,2.789s5.1,1.25,7.6-1.443l-1.154,2.212a10.641,10.641,0,0,0,6.357.285s4.7,0,6.53-1.824a89.036,89.036,0,0,0,7.5-9.617s7.405.673,10.579-3.943l3.174-4.616L419.8,170.658a24.219,24.219,0,0,0,10.871-18.642l1.319-19.9Z" transform="translate(-76.607 -30.469)" fill="#ffa189"/>
        <line id="Línea_586" data-name="Línea 586" y1="13.945" x2="8.078" transform="translate(262.484 169.638)" fill="none" stroke="#f8756a" stroke-linecap="round" stroke-linejoin="round" stroke-width="1.5"/>
        <line id="Línea_587" data-name="Línea 587" y1="13.56" x2="7.213" transform="translate(268.735 171.369)" fill="none" stroke="#f8756a" stroke-linecap="round" stroke-linejoin="round" stroke-width="1.5"/>
        <line id="Línea_588" data-name="Línea 588" y1="13.461" x2="7.011" transform="translate(273.939 173.965)" fill="none" stroke="#f8756a" stroke-linecap="round" stroke-linejoin="round" stroke-width="1.5"/>
        <path id="Trazado_873719" data-name="Trazado 873719" d="M423.167,132.113H452.98l-.365,5.511Z" transform="translate(-97.594 -30.469)" fill="#f8756a"/>
        <rect id="Rectángulo_401412" data-name="Rectángulo 401412" width="71.744" height="6.091" transform="translate(221.323 184.929)" fill="#1574dd"/>
        <path id="Trazado_873720" data-name="Trazado 873720" d="M304.923,230.214H228.388L213,169.947h76.536Z" transform="translate(-49.124 -39.194)" fill="#b5e1ff"/>
        <path id="Trazado_873721" data-name="Trazado 873721" d="M310.864,169.947h-5.386l15.387,60.267h5.386Z" transform="translate(-70.452 -39.194)" fill="#1574dd"/>
        <path id="Trazado_873722" data-name="Trazado 873722" d="M267.484,204.979c.8,3.2-.561,6.286-3.034,6.9s-5.126-1.472-5.923-4.667.561-6.286,3.034-6.9,5.126,1.472,5.923,4.667" transform="translate(-59.571 -46.173)" fill="#fcfbff"/>
        <line id="Línea_589" data-name="Línea 589" x1="1.731" y1="35.776" transform="translate(323.842 65.868)" fill="none" stroke="#013f81" stroke-linecap="round" stroke-linejoin="round" stroke-width="1.5"/>
        <line id="Línea_590" data-name="Línea 590" y1="21.275" transform="translate(355.386 80.369)" fill="none" stroke="#013f81" stroke-linecap="round" stroke-linejoin="round" stroke-width="1.5"/>
      </g>
    </g>
  </g>
</svg>
