<svg xmlns="http://www.w3.org/2000/svg" width="315" height="196.3" viewBox="0 0 315 196.3">
  <g id="_2" data-name="2" transform="translate(-600 -393.498)">
    <rect id="Rectángulo_401313" data-name="Rectángulo 401313" width="315" height="195" transform="translate(600 394)" fill="#201144"/>
    <path id="Trazado_872999" data-name="Trazado 872999" d="M29.253,0A33.754,33.754,0,0,0,62.969,33.715,33.754,33.754,0,0,0,96.685,0h29.253a63.04,63.04,0,0,1-62.97,62.969A63.04,63.04,0,0,1,0,0Z" transform="translate(783.011 394.431)" fill="#b15815"/>
    <path id="Trazado_873425" data-name="Trazado 873425" d="M29.253,62.969a33.716,33.716,0,0,1,67.432,0h29.253A62.969,62.969,0,0,0,0,62.969Z" transform="translate(606.531 526.329)" fill="#22cac5"/>
    <path id="Trazado_873000" data-name="Trazado 873000" d="M20.474,0h0V9.512A10.963,10.963,0,1,0,31.437,20.474h9.512A20.475,20.475,0,1,1,20.474,0" transform="translate(620.105 449.938) rotate(-90)" fill="#fdb641"/>
    <g id="Grupo_1099764" data-name="Grupo 1099764" transform="translate(636.439 394)">
      <g id="Grupo_1099788" data-name="Grupo 1099788" transform="translate(-0.001 0)">
        <path id="Trazado_873307" data-name="Trazado 873307" d="M243.052,74.3s40.587,7.709,45.075,13.85,15.634,38.827,16.58,40.244,20.079,30,22.913,38.268.709,15.59-6.378,20.079-14.41,2.362-17.954,2.362-12.756-7.8-13.464-11.1-2.835-12.284-2.835-12.284l-13.228-23.15-8.032,48.184H155.413L147.854,144.7l-23.15,42.52H86.435l23.859-50.788,13.228-23.858s5.2-17.717,13.228-25.04,19.135-9.685,22.914-9.921,13.937-2.6,19.134-3.779S194.862,69.1,194.862,69.1Z" transform="translate(-85.608 4.492)" fill="#b5b5b5"/>
        <path id="Trazado_873308" data-name="Trazado 873308" d="M243.052,74.3s40.587,7.709,45.075,13.85,15.634,38.827,16.58,40.244,20.079,30,22.913,38.268.709,15.59-6.378,20.079-14.41,2.362-17.954,2.362-12.756-7.8-13.464-11.1-2.835-12.284-2.835-12.284l-13.228-23.15-8.032,48.184H155.413L147.854,144.7l-23.15,42.52H86.435l23.859-50.788,13.228-23.858s5.2-17.717,13.228-25.04,19.135-9.685,22.914-9.921,13.937-2.6,19.134-3.779S194.862,69.1,194.862,69.1Z" transform="translate(-85.608 4.492)" fill="none" stroke="#263238" stroke-linecap="round" stroke-linejoin="round" stroke-width="1"/>
        <path id="Trazado_873309" data-name="Trazado 873309" d="M121.491,149.466s-12.955-1.994-25.312,8.57" transform="translate(111.283 10.328)" fill="none" stroke="#263238" stroke-linecap="round" stroke-linejoin="round" stroke-width="1"/>
        <path id="Trazado_873310" data-name="Trazado 873310" d="M132.63,163.016c-7.248-4.634-20.5-12.465-32.508-16.11l4.923-10.479,13.228-23.858s5.2-17.717,13.228-25.04,19.135-9.685,22.914-9.921,13.937-2.6,19.134-3.779S189.613,69.1,189.613,69.1l48.19,5.2s36.812,5.982,45.075,13.85c10.277,9.788,15.634,38.827,16.58,40.244.432.65,4.69,7.013,9.446,14.506-5.1,4.17-16.644,12.524-30.982,16.134l-9.409-16.467-8.032,48.184H150.163L142.6,144.7Z" transform="translate(-80.359 4.492)" fill="#e8faf9"/>
        <path id="Trazado_873311" data-name="Trazado 873311" d="M132.63,163.016c-7.248-4.634-20.5-12.465-32.508-16.11l4.923-10.479,13.228-23.858s5.2-17.717,13.228-25.04,19.135-9.685,22.914-9.921,13.937-2.6,19.134-3.779S189.613,69.1,189.613,69.1l48.19,5.2s36.812,5.982,45.075,13.85c10.277,9.788,15.634,38.827,16.58,40.244.432.65,4.69,7.013,9.446,14.506-5.1,4.17-16.644,12.524-30.982,16.134l-9.409-16.467-8.032,48.184H150.163L142.6,144.7Z" transform="translate(-80.359 4.492)" fill="none" stroke="#263238" stroke-linecap="round" stroke-linejoin="round" stroke-width="1"/>
        <path id="Trazado_873312" data-name="Trazado 873312" d="M221.057,74.3l.664.227-1.845,5.678s-3.071,18.426-9.922,24.8-15.354,7.323-27.638-1.653-16.064-19.843-16.3-24.8l-.236-4.961.886-2.533c3.42-1.048,6.2-1.955,6.2-1.955Z" transform="translate(-63.614 4.492)" fill="none" stroke="#263238" stroke-linecap="round" stroke-linejoin="round" stroke-width="1"/>
        <path id="Trazado_873313" data-name="Trazado 873313" d="M169.858,112.211a42.482,42.482,0,0,1-2.282,5.489" transform="translate(-13.676 7.628)" fill="none" stroke="#263238" stroke-linecap="round" stroke-linejoin="round" stroke-width="1"/>
        <path id="Trazado_873314" data-name="Trazado 873314" d="M166.357,82.1a139.108,139.108,0,0,1-3.481,26.991" transform="translate(-5.133 5.437)" fill="none" stroke="#263238" stroke-linecap="round" stroke-linejoin="round" stroke-width="1"/>
        <path id="Trazado_873315" data-name="Trazado 873315" d="M155.457,81.216s4.016,10.866,2.362,17.007" transform="translate(10.963 5.373)" fill="none" stroke="#263238" stroke-linecap="round" stroke-linejoin="round" stroke-width="1"/>
        <path id="Trazado_873316" data-name="Trazado 873316" d="M241.37,118.309a36.6,36.6,0,0,1-1.505,5.09" transform="translate(-162.737 8.072)" fill="none" stroke="#263238" stroke-linecap="round" stroke-linejoin="round" stroke-width="1"/>
        <path id="Trazado_873317" data-name="Trazado 873317" d="M238.689,93.547s2.153,13.082-.058,24.966" transform="translate(-159.672 6.27)" fill="none" stroke="#263238" stroke-linecap="round" stroke-linejoin="round" stroke-width="1"/>
        <path id="Trazado_873318" data-name="Trazado 873318" d="M232.528,105.878s-2.126,8.5-4.252,12.284" transform="translate(-141.463 7.167)" fill="none" stroke="#263238" stroke-linecap="round" stroke-linejoin="round" stroke-width="1"/>
        <path id="Trazado_873319" data-name="Trazado 873319" d="M255.8,127.458l-9.685,12.992,9.213-6.378" transform="translate(-183.867 8.737)" fill="none" stroke="#263238" stroke-linecap="round" stroke-linejoin="round" stroke-width="1"/>
        <path id="Trazado_873320" data-name="Trazado 873320" d="M132.037,140.006s3.071-13.464,4.724-19.37,1.417-16.3,1.417-16.3" transform="translate(56.116 7.055)" fill="none" stroke="#263238" stroke-linecap="round" stroke-linejoin="round" stroke-width="1"/>
        <path id="Trazado_873321" data-name="Trazado 873321" d="M130.676,108.961a26.235,26.235,0,0,1-8.977,9.921" transform="translate(74.721 7.392)" fill="none" stroke="#263238" stroke-linecap="round" stroke-linejoin="round" stroke-width="1"/>
        <path id="Trazado_873322" data-name="Trazado 873322" d="M215.258,89.328s-3.779,12.047-13.7,15.118-25.748-15.827-26.93-21.024a55.642,55.642,0,0,1-1.181-11.339c0-.708,1.89-17.953,1.89-17.953a193.728,193.728,0,0,0,15.828,21.733c9.212,10.866,24.094,13.464,24.094,13.464" transform="translate(-65.373 3.402)" fill="#b5b5b5"/>
        <path id="Trazado_873323" data-name="Trazado 873323" d="M215.258,89.328s-3.779,12.047-13.7,15.118-25.748-15.827-26.93-21.024a55.642,55.642,0,0,1-1.181-11.339c0-.708,1.89-17.953,1.89-17.953a193.728,193.728,0,0,0,15.828,21.733C200.376,86.73,215.258,89.328,215.258,89.328Z" transform="translate(-65.373 3.402)" fill="none" stroke="#263238" stroke-linecap="round" stroke-linejoin="round" stroke-width="1"/>
        <path id="Trazado_873324" data-name="Trazado 873324" d="M197.54,87.854s-3.064,9.754-10.907,13.945c-2.9-2.989-6.142-6.961-7.755-11.111-3.307-8.5-5.432-16.3-5.432-16.3,9.212,10.866,24.094,13.464,24.094,13.464" transform="translate(-47.655 4.876)" fill="#263238"/>
        <path id="Trazado_873325" data-name="Trazado 873325" d="M197.54,87.854s-3.064,9.754-10.907,13.945c-2.9-2.989-6.142-6.961-7.755-11.111-3.307-8.5-5.432-16.3-5.432-16.3C182.658,85.256,197.54,87.854,197.54,87.854Z" transform="translate(-47.655 4.876)" fill="none" stroke="#263238" stroke-linecap="round" stroke-linejoin="round" stroke-width="1"/>
        <path id="Trazado_873326" data-name="Trazado 873326" d="M215.356,29.22s-1.239,27.446-1.858,31.574-4.953,15.271-5.984,18.367-7.842,14.859-13.828,16.51-10.319-.619-14.24-2.477S166.652,81.018,165,78.129s-5.159-9.7-6.4-12.382l-1.238-2.683s-1.239-26.209-1.445-29.51-2.889-16.923.206-21.669S170.987.947,183.987.534,208.545,3.424,212.88,9.2s5.159,16.3,2.476,20.018" transform="translate(-46.843 -0.5)" fill="#b5b5b5"/>
        <path id="Trazado_873327" data-name="Trazado 873327" d="M215.356,29.22s-1.239,27.446-1.858,31.574-4.953,15.271-5.984,18.367-7.842,14.859-13.828,16.51-10.319-.619-14.24-2.477S166.652,81.018,165,78.129s-5.159-9.7-6.4-12.382l-1.238-2.683s-1.239-26.209-1.445-29.51-2.889-16.923.206-21.669S170.987.947,183.987.534,208.545,3.424,212.88,9.2,218.039,25.5,215.356,29.22Z" transform="translate(-46.843 -0.5)" fill="none" stroke="#263238" stroke-linecap="round" stroke-linejoin="round" stroke-width="1"/>
        <path id="Trazado_873328" data-name="Trazado 873328" d="M213.705,27.156c0-1.445-2.477-1.857-2.477-1.857S198.433,35,190.8,34.585s-16.923-7.223-20.431-6.6-3.921,3.714-2.889,8.873,1.651,12.589,0,12.795-4.54-1.031-4.54-1.031.412,5.365-1.651,5.572-3.921-2.271-3.921-2.89-.619-8.874-.619-8.874l-.381-.181c-.2-4.179-.379-7.627-.445-8.691-.206-3.3-2.889-16.923.206-21.67S170.987.947,183.988.534,208.546,3.423,212.879,9.2s5.16,16.3,2.477,20.018c0,0-1.651-.619-1.651-2.064" transform="translate(-46.843 -0.5)" fill="#263238"/>
        <path id="Trazado_873329" data-name="Trazado 873329" d="M213.705,27.156c0-1.445-2.477-1.857-2.477-1.857S198.433,35,190.8,34.585s-16.923-7.223-20.431-6.6-3.921,3.714-2.889,8.873,1.651,12.589,0,12.795-4.54-1.031-4.54-1.031.412,5.365-1.651,5.572-3.921-2.271-3.921-2.89-.619-8.874-.619-8.874l-.381-.181c-.2-4.179-.379-7.627-.445-8.691-.206-3.3-2.889-16.923.206-21.67S170.987.947,183.988.534,208.546,3.423,212.879,9.2s5.16,16.3,2.477,20.018C215.356,29.22,213.705,28.6,213.705,27.156Z" transform="translate(-46.843 -0.5)" fill="none" stroke="#263238" stroke-linecap="round" stroke-linejoin="round" stroke-width="1"/>
        <path id="Trazado_873330" data-name="Trazado 873330" d="M214.805,52.54s-2.064-9.906-5.778-9.493-3.3,9.906-.826,13.414,4.953,4.127,4.953,4.127" transform="translate(-100.154 2.595)" fill="#b5b5b5"/>
        <path id="Trazado_873331" data-name="Trazado 873331" d="M214.805,52.54s-2.064-9.906-5.778-9.493-3.3,9.906-.826,13.414,4.953,4.127,4.953,4.127" transform="translate(-100.154 2.595)" fill="none" stroke="#263238" stroke-linecap="round" stroke-linejoin="round" stroke-width="1"/>
        <path id="Trazado_873332" data-name="Trazado 873332" d="M183.224,54.973s.619,15.065.206,16.3-1.857,2.889-5.572,2.889-4.746-1.031-5.365-2.889" transform="translate(-32.666 3.464)" fill="none" stroke="#263238" stroke-linecap="round" stroke-linejoin="round" stroke-width="1"/>
        <path id="Trazado_873333" data-name="Trazado 873333" d="M189.552,74.98a7.985,7.985,0,0,1-3.3,2.683c-1.857.619-7.636.825-10.525.413s-5.572-2.064-5.985-2.683" transform="translate(-35.691 4.919)" fill="none" stroke="#263238" stroke-linecap="round" stroke-linejoin="round" stroke-width="1"/>
        <path id="Trazado_873334" data-name="Trazado 873334" d="M194.835,52.257s-12.016-.643-13.443-.868,3.712-2.339,8.089-2.275,8.594,1.148,5.354,3.143" transform="translate(-54.361 3.037)" fill="#263238"/>
        <path id="Trazado_873335" data-name="Trazado 873335" d="M194.835,52.257s-12.016-.643-13.443-.868,3.712-2.339,8.089-2.275S198.075,50.262,194.835,52.257Z" transform="translate(-54.361 3.037)" fill="none" stroke="#263238" stroke-linecap="round" stroke-linejoin="round" stroke-width="1"/>
        <path id="Trazado_873336" data-name="Trazado 873336" d="M159.83,52.2s12.021-.522,13.451-.733-3.688-2.376-8.066-2.357-8.6,1.061-5.385,3.09" transform="translate(-7.819 3.037)" fill="#263238"/>
        <path id="Trazado_873337" data-name="Trazado 873337" d="M159.83,52.2s12.021-.522,13.451-.733-3.688-2.376-8.066-2.357S156.611,50.167,159.83,52.2Z" transform="translate(-7.819 3.037)" fill="none" stroke="#263238" stroke-linecap="round" stroke-linejoin="round" stroke-width="1"/>
        <path id="Trazado_873338" data-name="Trazado 873338" d="M171.909,58.243s-2.476,3.715-9.287,1.238" transform="translate(-10.412 3.702)" fill="none" stroke="#263238" stroke-linecap="round" stroke-linejoin="round" stroke-width="1"/>
        <path id="Trazado_873339" data-name="Trazado 873339" d="M194.153,59.192s-3.13,4.236-10.437.611" transform="translate(-55.285 3.771)" fill="none" stroke="#263238" stroke-linecap="round" stroke-linejoin="round" stroke-width="1"/>
        <rect id="Rectángulo_401337" data-name="Rectángulo 401337" width="26.055" height="52.44" transform="translate(107.996 184.857) rotate(-125.751)" fill="#fdb641"/>
        <rect id="Rectángulo_401338" data-name="Rectángulo 401338" width="26.055" height="52.44" transform="translate(107.996 184.857) rotate(-125.751)" fill="none" stroke="#263238" stroke-linecap="round" stroke-linejoin="round" stroke-width="1"/>
        <rect id="Rectángulo_401339" data-name="Rectángulo 401339" width="18.139" height="44.475" transform="translate(108.915 179.317) rotate(-125.75)" fill="#fff"/>
        <rect id="Rectángulo_401340" data-name="Rectángulo 401340" width="18.139" height="44.475" transform="translate(108.915 179.317) rotate(-125.75)" fill="none" stroke="#263238" stroke-linecap="round" stroke-linejoin="round" stroke-width="1"/>
        <path id="Trazado_873340" data-name="Trazado 873340" d="M197.726,145.673c-2.808,2.022-4.008,5.159-2.677,7.007s4.685,1.707,7.494-.315,4.007-5.16,2.677-7.007-4.686-1.707-7.494.315" transform="translate(-78.47 9.945)" fill="#92e3a9"/>
        <path id="Trazado_873341" data-name="Trazado 873341" d="M197.726,145.673c-2.808,2.022-4.008,5.159-2.677,7.007s4.685,1.707,7.494-.315,4.007-5.16,2.677-7.007S200.534,143.651,197.726,145.673Z" transform="translate(-78.47 9.945)" fill="none" stroke="#263238" stroke-linecap="round" stroke-linejoin="round" stroke-width="1"/>
        <rect id="Rectángulo_401341" data-name="Rectángulo 401341" width="26.056" height="52.441" transform="translate(107.637 183.984) rotate(-133.806)" fill="#fdb641"/>
        <rect id="Rectángulo_401342" data-name="Rectángulo 401342" width="26.056" height="52.441" transform="translate(107.637 183.984) rotate(-133.806)" fill="none" stroke="#263238" stroke-linecap="round" stroke-linejoin="round" stroke-width="1"/>
        <rect id="Rectángulo_401343" data-name="Rectángulo 401343" width="18.14" height="44.475" transform="translate(107.771 178.371) rotate(-133.804)" fill="#fff"/>
        <rect id="Rectángulo_401344" data-name="Rectángulo 401344" width="18.14" height="44.475" transform="translate(107.771 178.371) rotate(-133.804)" fill="none" stroke="#263238" stroke-linecap="round" stroke-linejoin="round" stroke-width="1"/>
        <path id="Trazado_873342" data-name="Trazado 873342" d="M201.1,143.7c-2.5,2.4-3.245,5.67-1.668,7.313s4.878,1.033,7.375-1.362,3.245-5.669,1.669-7.313-4.879-1.033-7.376,1.362" transform="translate(-86.415 9.753)" fill="#92e3a9"/>
        <path id="Trazado_873343" data-name="Trazado 873343" d="M201.1,143.7c-2.5,2.4-3.245,5.67-1.668,7.313s4.878,1.033,7.375-1.362,3.245-5.669,1.669-7.313S203.6,141.309,201.1,143.7Z" transform="translate(-86.415 9.753)" fill="none" stroke="#263238" stroke-linecap="round" stroke-linejoin="round" stroke-width="1"/>
        <rect id="Rectángulo_401345" data-name="Rectángulo 401345" width="26.056" height="52.441" transform="matrix(-0.808, -0.589, 0.589, -0.808, 108.623, 183.921)" fill="#fdb641"/>
        <rect id="Rectángulo_401346" data-name="Rectángulo 401346" width="26.056" height="52.441" transform="matrix(-0.808, -0.589, 0.589, -0.808, 108.623, 183.921)" fill="none" stroke="#263238" stroke-linecap="round" stroke-linejoin="round" stroke-width="1"/>
        <rect id="Rectángulo_401347" data-name="Rectángulo 401347" width="18.14" height="44.476" transform="matrix(-0.808, -0.589, 0.589, -0.808, 107.771, 178.371)" fill="#fff"/>
        <rect id="Rectángulo_401348" data-name="Rectángulo 401348" width="18.14" height="44.476" transform="matrix(-0.808, -0.589, 0.589, -0.808, 107.771, 178.371)" fill="none" stroke="#263238" stroke-linecap="round" stroke-linejoin="round" stroke-width="1"/>
        <path id="Trazado_873344" data-name="Trazado 873344" d="M204.325,142.994c-2.039,2.8-2.2,6.15-.362,7.492s4.984.163,7.023-2.634,2.2-6.151.362-7.492-4.984-.163-7.023,2.634" transform="translate(-94.109 9.636)" fill="#92e3a9"/>
        <path id="Trazado_873345" data-name="Trazado 873345" d="M204.325,142.994c-2.039,2.8-2.2,6.15-.362,7.492s4.984.163,7.023-2.634,2.2-6.151.362-7.492S206.365,140.2,204.325,142.994Z" transform="translate(-94.109 9.636)" fill="none" stroke="#263238" stroke-linecap="round" stroke-linejoin="round" stroke-width="1"/>
        <rect id="Rectángulo_401349" data-name="Rectángulo 401349" width="26.056" height="52.44" transform="matrix(-0.914, -0.406, 0.406, -0.914, 109.773, 183.617)" fill="#fdb641"/>
        <rect id="Rectángulo_401350" data-name="Rectángulo 401350" width="26.056" height="52.44" transform="matrix(-0.914, -0.406, 0.406, -0.914, 109.773, 183.617)" fill="none" stroke="#263238" stroke-linecap="round" stroke-linejoin="round" stroke-width="1"/>
        <rect id="Rectángulo_401351" data-name="Rectángulo 401351" width="18.14" height="44.475" transform="translate(107.771 178.371) rotate(-156.066)" fill="#fff"/>
        <rect id="Rectángulo_401352" data-name="Rectángulo 401352" width="18.14" height="44.475" transform="translate(107.771 178.371) rotate(-156.066)" fill="none" stroke="#263238" stroke-linecap="round" stroke-linejoin="round" stroke-width="1"/>
        <path id="Trazado_873346" data-name="Trazado 873346" d="M208.562,143.128c-1.4,3.164-.855,6.476,1.226,7.4s4.907-.891,6.31-4.055.855-6.476-1.226-7.4-4.906.891-6.31,4.055" transform="translate(-103.827 9.565)" fill="#92e3a9"/>
        <path id="Trazado_873347" data-name="Trazado 873347" d="M208.562,143.128c-1.4,3.164-.855,6.476,1.226,7.4s4.907-.891,6.31-4.055.855-6.476-1.226-7.4S209.966,139.965,208.562,143.128Z" transform="translate(-103.827 9.565)" fill="none" stroke="#263238" stroke-linecap="round" stroke-linejoin="round" stroke-width="1"/>
        <rect id="Rectángulo_401353" data-name="Rectángulo 401353" width="26.055" height="52.441" transform="matrix(-0.975, -0.221, 0.221, -0.975, 110.749, 183.131)" fill="#fdb641"/>
        <rect id="Rectángulo_401354" data-name="Rectángulo 401354" width="26.055" height="52.441" transform="matrix(-0.975, -0.221, 0.221, -0.975, 110.749, 183.131)" fill="none" stroke="#263238" stroke-linecap="round" stroke-linejoin="round" stroke-width="1"/>
        <rect id="Rectángulo_401355" data-name="Rectángulo 401355" width="18.14" height="44.475" transform="matrix(-0.975, -0.221, 0.221, -0.975, 107.772, 178.371)" fill="#fff"/>
        <rect id="Rectángulo_401356" data-name="Rectángulo 401356" width="18.14" height="44.475" transform="matrix(-0.975, -0.221, 0.221, -0.975, 107.772, 178.371)" fill="none" stroke="#263238" stroke-linecap="round" stroke-linejoin="round" stroke-width="1"/>
        <path id="Trazado_873348" data-name="Trazado 873348" d="M212.626,144.192c-.766,3.375.412,6.519,2.633,7.023s4.642-1.823,5.408-5.2-.412-6.52-2.633-7.024-4.642,1.824-5.408,5.2" transform="translate(-112.797 9.572)" fill="#fdb641"/>
        <path id="Trazado_873349" data-name="Trazado 873349" d="M212.626,144.192c-.766,3.375.412,6.519,2.633,7.023s4.642-1.823,5.408-5.2-.412-6.52-2.633-7.024S213.392,140.817,212.626,144.192Z" transform="translate(-112.797 9.572)" fill="none" stroke="#263238" stroke-linecap="round" stroke-linejoin="round" stroke-width="1"/>
        <path id="Trazado_873350" data-name="Trazado 873350" d="M290.573,149.705s18.662,7.087,19.607,7.8,10.157,9.213,10.63,10.394l.472,1.181a1.382,1.382,0,0,1-1.417,1.653s1.89,2.834.236,4.252-4.015.236-4.015.236,2.126,3.307-.236,4.015a14.644,14.644,0,0,1-5.434.236s.472,1.182-7.8,2.835-17.008,2.362-20.787,1.653-12.284-1.653-12.284-1.653-37.8,3.071-45.355,2.362-19.606.472-21.968-3.307,1.181-10.63,4.015-14.882,9.449-12.283,17.245-12.519a49.646,49.646,0,0,1,17.244,3.307c4.252,1.889,14.174,5.906,15.118,6.142s11.1-.473,11.1-.473,19.607-12.992,20.788-13.228a10.29,10.29,0,0,1,2.834,0" transform="translate(-201.452 10.348)" fill="#b5b5b5"/>
        <path id="Trazado_873351" data-name="Trazado 873351" d="M290.573,149.705s18.662,7.087,19.607,7.8,10.157,9.213,10.63,10.394l.472,1.181a1.382,1.382,0,0,1-1.417,1.653s1.89,2.834.236,4.252-4.015.236-4.015.236,2.126,3.307-.236,4.015a14.644,14.644,0,0,1-5.434.236s.472,1.182-7.8,2.835-17.008,2.362-20.787,1.653-12.284-1.653-12.284-1.653-37.8,3.071-45.355,2.362-19.606.472-21.968-3.307,1.181-10.63,4.015-14.882,9.449-12.283,17.245-12.519a49.646,49.646,0,0,1,17.244,3.307c4.252,1.889,14.174,5.906,15.118,6.142s11.1-.473,11.1-.473,19.607-12.992,20.788-13.228A10.29,10.29,0,0,1,290.573,149.705Z" transform="translate(-201.452 10.348)" fill="none" stroke="#263238" stroke-linecap="round" stroke-linejoin="round" stroke-width="1"/>
        <path id="Trazado_873352" data-name="Trazado 873352" d="M233.493,170.1l-14.409-7.8-16.3-4.015" transform="translate(-115.08 10.98)" fill="none" stroke="#263238" stroke-linecap="round" stroke-linejoin="round" stroke-width="1"/>
        <path id="Trazado_873353" data-name="Trazado 873353" d="M234.654,174.009l-13.464-4.96-14.882-2.835" transform="translate(-120.021 11.557)" fill="none" stroke="#263238" stroke-linecap="round" stroke-linejoin="round" stroke-width="1"/>
        <path id="Trazado_873354" data-name="Trazado 873354" d="M236.631,177.668l-13.228-1.89-11.811-1.417" transform="translate(-127.668 12.15)" fill="none" stroke="#263238" stroke-linecap="round" stroke-linejoin="round" stroke-width="1"/>
        <path id="Trazado_873355" data-name="Trazado 873355" d="M129.933,151.675s-11.339,5.67-12.52,5.906-8.5-.236-8.976,4.96,4.251,12.284,5.2,15.354,12.047,2.362,12.047,2.362,3.78-12.756,4.724-17.479-.472-11.1-.472-11.1" transform="translate(88.929 10.499)" fill="#b5b5b5"/>
        <path id="Trazado_873356" data-name="Trazado 873356" d="M129.933,151.675s-11.339,5.67-12.52,5.906-8.5-.236-8.976,4.96,4.251,12.284,5.2,15.354,12.047,2.362,12.047,2.362,3.78-12.756,4.724-17.479S129.933,151.675,129.933,151.675Z" transform="translate(88.929 10.499)" fill="none" stroke="#263238" stroke-linecap="round" stroke-linejoin="round" stroke-width="1"/>
        <path id="Trazado_873357" data-name="Trazado 873357" d="M122.75,133.484l-13.7,45.119-4.085,4.016.1-5.906,14.052-44.5Z" transform="translate(100.6 9.084)" fill="#fff"/>
        <path id="Trazado_873358" data-name="Trazado 873358" d="M122.75,133.484l-13.7,45.119-4.085,4.016.1-5.906,14.052-44.5Z" transform="translate(100.6 9.084)" fill="none" stroke="#263238" stroke-linecap="round" stroke-linejoin="round" stroke-width="1"/>
        <path id="Trazado_873359" data-name="Trazado 873359" d="M106.645,132.217l3.632,1.267-1.611,5.3-3.7-1.249Z" transform="translate(113.073 9.084)" fill="#fff"/>
        <path id="Trazado_873360" data-name="Trazado 873360" d="M106.645,132.217l3.632,1.267-1.611,5.3-3.7-1.249Z" transform="translate(113.073 9.084)" fill="none" stroke="#263238" stroke-linecap="round" stroke-linejoin="round" stroke-width="1"/>
        <path id="Trazado_873361" data-name="Trazado 873361" d="M106.621,176.117s-1.417,4.015-2.834,4.488-9.45.236-11.811.236,14.645-4.724,14.645-4.724" transform="translate(130.903 12.278)" fill="#b5b5b5"/>
        <path id="Trazado_873362" data-name="Trazado 873362" d="M106.621,176.117s-1.417,4.015-2.834,4.488-9.45.236-11.811.236S106.621,176.117,106.621,176.117Z" transform="translate(130.903 12.278)" fill="none" stroke="#263238" stroke-linecap="round" stroke-linejoin="round" stroke-width="1"/>
        <path id="Trazado_873363" data-name="Trazado 873363" d="M109.633,167.75s3.779,7.087,3.307,8.977-4.016,2.834-7.087,3.543a62.169,62.169,0,0,1-13.229.708c-3.07-.236,2.6-3.07,2.6-3.07a82.68,82.68,0,0,0,8.74-6.143,31.411,31.411,0,0,1,5.67-4.015" transform="translate(124.584 11.669)" fill="#b5b5b5"/>
        <path id="Trazado_873364" data-name="Trazado 873364" d="M109.633,167.75s3.779,7.087,3.307,8.977-4.016,2.834-7.087,3.543a62.169,62.169,0,0,1-13.229.708c-3.07-.236,2.6-3.07,2.6-3.07a82.68,82.68,0,0,0,8.74-6.143A31.411,31.411,0,0,1,109.633,167.75Z" transform="translate(124.584 11.669)" fill="none" stroke="#263238" stroke-linecap="round" stroke-linejoin="round" stroke-width="1"/>
        <path id="Trazado_873365" data-name="Trazado 873365" d="M111.836,161.46s6.379,4.252,6.615,6.851-6.851,9.449-8.032,10.394-9.449,3.07-12.047,2.6a5,5,0,0,1-3.543-2.362s8.031-6.141,10.157-9.449a81.327,81.327,0,0,0,4.724-9.449Z" transform="translate(115.766 11.108)" fill="#b5b5b5"/>
        <path id="Trazado_873366" data-name="Trazado 873366" d="M111.836,161.46s6.379,4.252,6.615,6.851-6.851,9.449-8.032,10.394-9.449,3.07-12.047,2.6a5,5,0,0,1-3.543-2.362s8.031-6.141,10.157-9.449a81.327,81.327,0,0,0,4.724-9.449Z" transform="translate(115.766 11.108)" fill="none" stroke="#263238" stroke-linecap="round" stroke-linejoin="round" stroke-width="1"/>
        <path id="Trazado_873367" data-name="Trazado 873367" d="M109.863,151.675s9.213,2.362,9.213,5.67-4.016,13.228-6.142,15.354-9.449,8.5-11.339,6.851-.709-3.307-.236-4.96S107.265,159,107.265,159Z" transform="translate(108.999 10.499)" fill="#b5b5b5"/>
        <path id="Trazado_873368" data-name="Trazado 873368" d="M109.863,151.675s9.213,2.362,9.213,5.67-4.016,13.228-6.142,15.354-9.449,8.5-11.339,6.851-.709-3.307-.236-4.96S107.265,159,107.265,159Z" transform="translate(108.999 10.499)" fill="none" stroke="#263238" stroke-linecap="round" stroke-linejoin="round" stroke-width="1"/>
        <path id="Trazado_873369" data-name="Trazado 873369" d="M123.966,158.071s7.8,14.645,6.378,16.063-4.015,2.834-5.2,2.126-6.142-7.087-7.559-10.631-.473-4.96,1.653-6.614a5.815,5.815,0,0,1,4.724-.945" transform="translate(80.014 10.954)" fill="#b5b5b5"/>
        <path id="Trazado_873370" data-name="Trazado 873370" d="M123.966,158.071s7.8,14.645,6.378,16.063-4.015,2.834-5.2,2.126-6.142-7.087-7.559-10.631-.473-4.96,1.653-6.614A5.815,5.815,0,0,1,123.966,158.071Z" transform="translate(80.014 10.954)" fill="none" stroke="#263238" stroke-linecap="round" stroke-linejoin="round" stroke-width="1"/>
        <ellipse id="Elipse_11488" data-name="Elipse 11488" cx="2.472" cy="2.472" rx="2.472" ry="2.472" transform="translate(182.397 190.129)" fill="none" stroke="#263238" stroke-linecap="round" stroke-linejoin="round" stroke-width="1"/>
        <rect id="Rectángulo_401357" data-name="Rectángulo 401357" width="66.765" height="3.514" transform="translate(185.507 191.784)" fill="#fff"/>
        <rect id="Rectángulo_401358" data-name="Rectángulo 401358" width="66.765" height="3.514" transform="translate(185.507 191.784)" fill="none" stroke="#263238" stroke-linecap="round" stroke-linejoin="round" stroke-width="1"/>
        <rect id="Rectángulo_401359" data-name="Rectángulo 401359" width="66.765" height="3.514" transform="translate(117.257 191.784)" fill="#fff"/>
        <rect id="Rectángulo_401360" data-name="Rectángulo 401360" width="66.765" height="3.514" transform="translate(117.257 191.784)" fill="none" stroke="#263238" stroke-linecap="round" stroke-linejoin="round" stroke-width="1"/>
      </g>
    </g>
  </g>
</svg>
