<svg xmlns="http://www.w3.org/2000/svg" width="85" height="85" viewBox="0 0 85 85">
  <g id="_23" data-name="23" transform="translate(0)">
    <ellipse id="Elipse_11496" data-name="Elipse 11496" cx="42.5" cy="42.5" rx="42.5" ry="42.5" transform="translate(0)" fill="#b15815"/>
    <g id="prestamo" transform="translate(13 14)">
      <g id="Grupo_1099947" data-name="Grupo 1099947" transform="translate(0.935 0.935)">
        <g id="Grupo_1099935" data-name="Grupo 1099935" transform="translate(29 1.871)">
          <path id="Trazado_873760" data-name="Trazado 873760" d="M264.419,25.871V24h.631a8.208,8.208,0,0,1,7.788,5.613L269.1,35.226h-9.355L256,29.613l.435-.435A11.291,11.291,0,0,1,264.419,25.871Z" transform="translate(-256 -24)" fill="#a0d468"/>
        </g>
        <g id="Grupo_1099936" data-name="Grupo 1099936" transform="translate(21.579 13.097)">
          <path id="Trazado_873761" data-name="Trazado 873761" d="M208.38,120h4.677l4.48,2.444a16.263,16.263,0,0,1,7.758,9.5l1.076,3.5a16.248,16.248,0,0,1-4.894,17.075v-4.447a1.871,1.871,0,1,0-3.742,0v-3.742a1.871,1.871,0,0,0-3.742,0v-1.871a1.871,1.871,0,1,0-3.742,0v2.806a1.871,1.871,0,1,0-3.742,0V149a2.807,2.807,0,0,0-2.806-2.806.934.934,0,0,0-.936.935v3.03a15.6,15.6,0,0,0-2.629-.223h-.129a15.793,15.793,0,0,0-1.761.1,7.48,7.48,0,0,0-.732-7.387l-1.083-1.526.762-.541a2.806,2.806,0,0,0-1.068-5.039,9.389,9.389,0,0,0-.579-1.791,9.218,9.218,0,0,0-.94-1.659,9.324,9.324,0,0,0-2.07-2.112A13.123,13.123,0,0,0,196.4,124.4a16.288,16.288,0,0,1,2.826-1.954L203.7,120Z" transform="translate(-192.54 -120)" fill="#b4dd7f"/>
        </g>
        <g id="Grupo_1099937" data-name="Grupo 1099937" transform="translate(0)">
          <path id="Trazado_873762" data-name="Trazado 873762" d="M34.194,21.1a13.072,13.072,0,0,1-4.614,9.979,9.341,9.341,0,0,0-4.1-1.712,9.357,9.357,0,1,0-5.841.974h0a9.337,9.337,0,0,0-1.033.637l-2.9,2.059A13.1,13.1,0,1,1,34.194,21.1Z" transform="translate(-8 -8)" fill="#ffc729"/>
        </g>
        <g id="Grupo_1099938" data-name="Grupo 1099938" transform="translate(3.742 3.742)">
          <path id="Trazado_873763" data-name="Trazado 873763" d="M58.71,49.355a9.356,9.356,0,0,1-4.972,8.267A9.313,9.313,0,0,0,47.9,58.6h0A9.355,9.355,0,1,1,58.71,49.355Z" transform="translate(-40 -40)" fill="#fcd770"/>
        </g>
        <g id="Grupo_1099939" data-name="Grupo 1099939" transform="translate(1.871 21.249)">
          <path id="Trazado_873764" data-name="Trazado 873764" d="M43.708,191.541a9.324,9.324,0,0,1,2.07,2.112,9.218,9.218,0,0,1,.94,1.659A9.389,9.389,0,0,1,47.3,197.1a2.8,2.8,0,0,0-2.182.462l-.892.635h0a2.806,2.806,0,0,0-2.732-.281,3.928,3.928,0,0,1,.261,1.408,4.063,4.063,0,0,1-.056.668l-2.8.216c-.061,0-.12.006-.179.006h0a3.893,3.893,0,0,1,.171,1.145,4.063,4.063,0,0,1-.056.668l-2.8.216c-.061,0-.12.007-.179.006h0a3.9,3.9,0,0,1,.171,1.146,4.063,4.063,0,0,1-.056.668l-2.8.215a2.031,2.031,0,0,1-.378,0,5.24,5.24,0,0,1-2.161,3.581l-.762.541a2.8,2.8,0,0,0-1.155,1.908,9.375,9.375,0,0,1-2.759-2.571l-1.083-1.526a4.677,4.677,0,0,1,1.105-6.521l-.026-.869a4.68,4.68,0,0,1,1.968-3.952l1.924-1.366,2.9-2.059a9.365,9.365,0,0,1,10.973.1Z" transform="translate(-24 -189.714)" fill="#656d78"/>
        </g>
        <g id="Grupo_1099940" data-name="Grupo 1099940" transform="translate(18.935 43.032)">
          <path id="Trazado_873765" data-name="Trazado 873765" d="M178.283,376.1a15.793,15.793,0,0,1,1.761-.1h.129a15.6,15.6,0,0,1,2.629.223v3.519a9.329,9.329,0,0,0,2.845,6.718,30.691,30.691,0,0,1-6.681.745h0a4.681,4.681,0,0,0-4.58-3.722h-.935a1.87,1.87,0,0,0-1.871-1.871H169.93a7.451,7.451,0,0,0,4.327-1.382l1.526-1.084A7.449,7.449,0,0,0,178.283,376.1Z" transform="translate(-169.93 -376)" fill="#ff826e"/>
        </g>
        <g id="Grupo_1099941" data-name="Grupo 1099941" transform="translate(3.742 43.968)">
          <path id="Trazado_873766" data-name="Trazado 873766" d="M55.193,388.677h1.645a1.87,1.87,0,0,1,1.871,1.871v5.613H45.571a5.571,5.571,0,0,1-.916-11.066l.469-.078a2.8,2.8,0,0,0,2.115-.475L48,384l1.084,1.526A7.472,7.472,0,0,0,55.193,388.677Z" transform="translate(-40 -384)" fill="#ff826e"/>
        </g>
        <g id="Grupo_1099942" data-name="Grupo 1099942" transform="translate(22.452 50.516)">
          <path id="Trazado_873767" data-name="Trazado 873767" d="M205.613,444.677v.935H200V440h.935a4.681,4.681,0,0,1,4.58,3.722A4.762,4.762,0,0,1,205.613,444.677Z" transform="translate(-200 -440)" fill="#f0d0b4"/>
        </g>
        <g id="Grupo_1099943" data-name="Grupo 1099943" transform="translate(31.806 33.677)">
          <path id="Trazado_873768" data-name="Trazado 873768" d="M283.742,304.419v-3.742a1.871,1.871,0,1,1,3.742,0v-2.806a1.871,1.871,0,1,1,3.742,0v1.871a1.871,1.871,0,1,1,3.742,0v3.742a1.871,1.871,0,1,1,3.742,0V309.1a9.355,9.355,0,0,1-18.71,0v-6.548a.934.934,0,0,1,.935-.935A2.807,2.807,0,0,1,283.742,304.419Z" transform="translate(-280 -296)" fill="#f0d0b4"/>
        </g>
        <g id="Grupo_1099944" data-name="Grupo 1099944" transform="translate(22.094 28.583)">
          <path id="Trazado_873769" data-name="Trazado 873769" d="M201.745,253.611a2.805,2.805,0,0,1-.663,3.914l-.762.541-2.708-3.813a2.787,2.787,0,0,0-.671-.67l.892-.635a2.807,2.807,0,0,1,3.913.663Z" transform="translate(-196.94 -252.43)" fill="#f0d0b4"/>
        </g>
        <g id="Grupo_1099945" data-name="Grupo 1099945" transform="translate(8.494 29.223)">
          <path id="Trazado_873770" data-name="Trazado 873770" d="M88.911,260.433l2.8-.216a4.062,4.062,0,0,0,.056-.668,3.928,3.928,0,0,0-.261-1.408,2.806,2.806,0,0,1,2.732.281h0a2.787,2.787,0,0,1,.671.67l2.708,3.813,1.083,1.526a7.48,7.48,0,0,1-1.768,10.434l-1.526,1.084a7.482,7.482,0,0,1-10.434-1.769l-1.084-1.526-3.25-4.576A5.241,5.241,0,0,0,82.8,264.5a2.033,2.033,0,0,0,.378,0l2.8-.215a4.063,4.063,0,0,0,.056-.668,3.9,3.9,0,0,0-.171-1.146h0c.058,0,.118,0,.179-.006l2.8-.216a4.062,4.062,0,0,0,.056-.668,3.893,3.893,0,0,0-.171-1.145h0c.058,0,.118,0,.179-.006Z" transform="translate(-80.64 -257.909)" fill="#f0d0b4"/>
        </g>
        <g id="Grupo_1099946" data-name="Grupo 1099946" transform="translate(6.55 39.392)">
          <path id="Trazado_873771" data-name="Trazado 873771" d="M65.955,344.87l3.25,4.576-.762.543A2.807,2.807,0,0,1,64.01,347.7a2.6,2.6,0,0,1,.027-.382,2.8,2.8,0,0,1,1.155-1.908Z" transform="translate(-64.01 -344.87)" fill="#f0d0b4"/>
        </g>
      </g>
      <g id="Grupo_1099948" data-name="Grupo 1099948">
        <path id="Trazado_873772" data-name="Trazado 873772" d="M95.484,72.419a2.81,2.81,0,0,0-2.806-2.806H90.806a.935.935,0,1,1,0-1.871h1.871a.937.937,0,0,1,.935.935h1.871a2.81,2.81,0,0,0-2.806-2.806V64H90.806v1.871a2.806,2.806,0,0,0,0,5.613h1.871a.935.935,0,1,1,0,1.871H90.806a.937.937,0,0,1-.935-.935H88a2.81,2.81,0,0,0,2.806,2.806V77.1h1.871V75.226A2.81,2.81,0,0,0,95.484,72.419Z" transform="translate(-77.71 -56.516)"/>
        <path id="Trazado_873773" data-name="Trazado 873773" d="M171.9,357.82l.879-1.651-.195-.1a3.963,3.963,0,0,0-5.78,4.1l.034.218,1.849-.287-.034-.218a2.092,2.092,0,0,1,3.051-2.166Z" transform="translate(-147.256 -314.013)"/>
        <path id="Trazado_873774" data-name="Trazado 873774" d="M112.265,324.466l-1.845-.313-.286,1.686-1.686-.286-.313,1.845,1.686.286-.286,1.686,1.845.313.286-1.686,1.686.286.313-1.845-1.686-.286Z" transform="translate(-95.49 -286.248)"/>
        <path id="Trazado_873775" data-name="Trazado 873775" d="M161.717,292.316l1.845.313.286-1.686,1.686.286.313-1.845-1.686-.286.286-1.686L162.6,287.1l-.286,1.686-1.686-.286-.313,1.845,1.686.286Z" transform="translate(-141.569 -253.527)"/>
        <path id="Trazado_873776" data-name="Trazado 873776" d="M58,34.252a17.184,17.184,0,0,0-.761-5.058l-1.076-3.5a17.109,17.109,0,0,0-8.2-10.041L44.378,13.7l3.429-5.143-.145-.434a9.133,9.133,0,0,0-8.675-6.253H37.419V3.777a12.137,12.137,0,0,0-7.711,3.546l-.977.977,3.6,5.4-3.583,1.954q-.43.235-.846.494A14.032,14.032,0,1,0,6.856,26.092l-.68.483a5.6,5.6,0,0,0-2.361,4.742l.012.4a5.621,5.621,0,0,0-.919,7.508l1.083,1.526A10.225,10.225,0,0,0,6.553,43.27a3.719,3.719,0,0,0,.688,2.054q.106.149.224.286A6.508,6.508,0,0,0,10.248,58H29.935V56.129c0-.017,0-.034,0-.051a30.66,30.66,0,0,0,5.388-.629A10.285,10.285,0,0,0,52.387,47.71v-.747A17.2,17.2,0,0,0,58,34.252ZM37.419,5.654v5.572H39.29V3.748A7.263,7.263,0,0,1,45.732,8.3l-3.2,4.8H34.178L31.14,8.539a10.276,10.276,0,0,1,6.279-2.885ZM22.431,22.827a10.272,10.272,0,0,0-1.8-.9,10.271,10.271,0,0,0,2.514-3.112l1.733.718A12.166,12.166,0,0,1,22.431,22.827Zm-10-.529a8.417,8.417,0,1,1,5.795-.965A10.263,10.263,0,0,0,12.433,22.3ZM4.8,21.942a12.234,12.234,0,0,1-1.608-2.407l1.731-.717a10.267,10.267,0,0,0,1.2,1.8Zm19.479-6.974h1.878a12.147,12.147,0,0,1-.564,2.84l-1.733-.718A10.285,10.285,0,0,0,24.279,14.968Zm0-1.871a10.225,10.225,0,0,0-.421-2.122l1.734-.718a12.081,12.081,0,0,1,.565,2.84H24.28Zm-1.14-3.85a10.328,10.328,0,0,0-1.2-1.8l1.327-1.327a12.209,12.209,0,0,1,1.612,2.4ZM20.613,6.128a10.327,10.327,0,0,0-1.8-1.2l.719-1.735A12.206,12.206,0,0,1,21.94,4.8ZM17.09,4.206a10.218,10.218,0,0,0-2.122-.421V1.907a12.075,12.075,0,0,1,2.84.565ZM13.1,3.785a10.225,10.225,0,0,0-2.122.421l-.718-1.734a12.075,12.075,0,0,1,2.84-.565Zm-3.85,1.14a10.327,10.327,0,0,0-1.8,1.2L6.124,4.8a12.206,12.206,0,0,1,2.4-1.612ZM6.128,7.451a10.328,10.328,0,0,0-1.2,1.8L3.189,8.528A12.209,12.209,0,0,1,4.8,6.124ZM4.206,10.975A10.224,10.224,0,0,0,3.785,13.1H1.907a12.073,12.073,0,0,1,.565-2.84Zm-.421,3.993a10.287,10.287,0,0,0,.423,2.121l-1.733.718a12.121,12.121,0,0,1-.567-2.839Zm2.336,8.3,1.328-1.328a10.308,10.308,0,0,0,2.873,1.692L8.549,24.889a12.125,12.125,0,0,1-2.429-1.623Zm-.6,16.4L4.433,38.138a3.746,3.746,0,0,1,.884-5.217l.408-.29-.041-1.37A3.735,3.735,0,0,1,7.259,28.1l4.824-3.425a8.415,8.415,0,0,1,12.78,3.972,3.718,3.718,0,0,0-1.483.627l-.412.292a3.764,3.764,0,0,0-2.178-.29c-.064-.106-.131-.211-.2-.314a4.873,4.873,0,0,0-3.179-2l-.313,1.845A3.037,3.037,0,0,1,19.615,31.6l-1.475.114A4.96,4.96,0,0,0,17.72,31a4.872,4.872,0,0,0-3.179-2l-.313,1.845a3.039,3.039,0,0,1,2.52,2.784l-1.474.114a4.96,4.96,0,0,0-.42-.712,4.872,4.872,0,0,0-3.179-2l-.313,1.845a3.039,3.039,0,0,1,2.52,2.784L11.9,35.82a1.13,1.13,0,0,1-1.2-1.316L8.85,34.191a3.007,3.007,0,0,0,1.637,3.2,4.323,4.323,0,0,1-1.6,2.176l-.763.542A3.72,3.72,0,0,0,7.045,41.3a8.38,8.38,0,0,1-1.528-1.636ZM18.77,48.552a6.506,6.506,0,0,1-4.245-2.665l-3.833-5.4a6.212,6.212,0,0,0,1.667-2.829l3.21-.248.122-.72a4.944,4.944,0,0,0,.061-1.108l2.683-.207.122-.72a4.944,4.944,0,0,0,.061-1.108l2.683-.207.122-.72a4.916,4.916,0,0,0,.019-1.527,1.878,1.878,0,0,1,1.5.787l3.791,5.339a6.556,6.556,0,0,1-1.548,9.131l-1.526,1.083a6.5,6.5,0,0,1-4.886,1.117Zm-10-4.312a1.873,1.873,0,0,1,.442-2.609l2.167,3.051h0a1.871,1.871,0,0,1-2.609-.442ZM26.63,33.85,24.463,30.8A1.871,1.871,0,1,1,26.63,33.85ZM5.613,51.493a4.621,4.621,0,0,1,3.873-4.572l.322-.054a3.781,3.781,0,0,0,.491.033,3.715,3.715,0,0,0,2.159-.692h0l.542.763a8.459,8.459,0,0,0,1.571,1.674H13.229a4.668,4.668,0,0,0-3.892,2.083l-.76,1.14,1.557,1.038.76-1.14a2.8,2.8,0,0,1,2.335-1.25h6.584l.071,0,.077,0h1.556a.937.937,0,0,1,.935.935v4.677h-12.2A4.64,4.64,0,0,1,5.613,51.493Zm18.71,4.636V52.387a3.746,3.746,0,0,1,3.742,3.742Zm0-5.613h-.161a2.806,2.806,0,0,0-.52-.894,8.536,8.536,0,0,0,1.1-.661l1.526-1.083a8.366,8.366,0,0,0,2.564-2.928c.385-.03.772-.047,1.156-.047h.128a14.728,14.728,0,0,1,1.693.1V47.71a10.236,10.236,0,0,0,2.024,6.121,32.373,32.373,0,0,1-4.23.388,5.622,5.622,0,0,0-5.278-3.7ZM50.516,47.71a8.419,8.419,0,0,1-16.839,0V41.161a1.873,1.873,0,0,1,1.871,1.871v5.613h.935a2.81,2.81,0,0,1,2.806,2.806v.935h1.871v-.935a4.686,4.686,0,0,0-3.742-4.583V39.29a.935.935,0,0,1,1.871,0v6.548h1.871V36.484a.935.935,0,1,1,1.871,0v9.355H44.9V38.355a.935.935,0,1,1,1.871,0v7.484h1.871V42.1a.935.935,0,0,1,1.871,0Zm-.935-8.419a2.793,2.793,0,0,0-.935.161v-1.1A2.8,2.8,0,0,0,44.8,35.747a2.806,2.806,0,0,0-5.514.737v.161a2.805,2.805,0,0,0-3.742,2.646v.5a3.718,3.718,0,0,0-1.871-.5,1.873,1.873,0,0,0-1.871,1.871V43.12a16.57,16.57,0,0,0-1.693-.087h-.128c-.143,0-.286,0-.429.006a8.4,8.4,0,0,0-1.3-6.9l-.542-.763a3.74,3.74,0,0,0-.828-6.544,10.282,10.282,0,0,0-2.951-4.857A14.019,14.019,0,0,0,27.16,18.99,15.362,15.362,0,0,1,29.645,17.3l4.271-2.329h1.664a13.559,13.559,0,0,0-1.422,4.524,39.55,39.55,0,0,0-.48,5.767h1.871c0-4.314.978-10.29,2.806-10.29,2.611,0,2.806,3.334,2.806,8.419h1.871a27.956,27.956,0,0,0-.5-6.673,6.494,6.494,0,0,0-.723-1.747h.984L47.064,17.3a15.247,15.247,0,0,1,7.311,8.949l1.076,3.5a15.325,15.325,0,0,1-3.064,14.542V42.1a2.81,2.81,0,0,0-2.806-2.806Z" transform="translate(0 0)"/>
        <path id="Trazado_873777" data-name="Trazado 873777" d="M427.478,214.311q0,.167,0,.334l1.87.053q.005-.193.005-.388a13.45,13.45,0,0,0-.6-3.958l-1.076-3.5a13.554,13.554,0,0,0-1.31-2.953l-1.607.958a11.669,11.669,0,0,1,1.129,2.545l1.076,3.5A11.58,11.58,0,0,1,427.478,214.311Z" transform="translate(-375.091 -180.059)"/>
        <path id="Trazado_873778" data-name="Trazado 873778" d="M444.827,310.908l-1.841-.333a11.6,11.6,0,0,1-.454,1.731l1.767.613A13.474,13.474,0,0,0,444.827,310.908Z" transform="translate(-390.784 -274.257)"/>
      </g>
    </g>
  </g>
</svg>
