<svg xmlns="http://www.w3.org/2000/svg" xmlns:xlink="http://www.w3.org/1999/xlink" width="85" height="85" viewBox="0 0 85 85">
  <defs>
    <clipPath id="clip-path">
      <path id="path4926" d="M0-682.665H62v62H0Z" transform="translate(0 682.665)"/>
    </clipPath>
  </defs>
  <g id="_24" data-name="24" transform="translate(-197.102 -3210)">
    <ellipse id="Elipse_11496" data-name="Elipse 11496" cx="42.5" cy="42.5" rx="42.5" ry="42.5" transform="translate(197.102 3210)" fill="#b15815"/>
    <g id="g4920" transform="translate(208.102 3904.665)">
      <g id="g4922" transform="translate(0 -682.665)">
        <g id="g4924" clip-path="url(#clip-path)">
          <g id="g4930" transform="translate(16.583 5.076)">
            <path id="path4932" d="M-443.554-166.713l-27.654,27.654a.686.686,0,0,1-.97,0l-15.482-15.482a.686.686,0,0,1,0-.97l27.654-27.654a.686.686,0,0,1,.97,0l15.482,15.482a.686.686,0,0,1,0,.97" transform="translate(487.861 183.366)" fill="#5cc45c"/>
          </g>
          <g id="g4934" transform="translate(28.096 16.588)">
            <path id="path4936" d="M-328.3-41.749l-4.17-4.17L-361.1-17.3l4.17,4.171a.686.686,0,0,0,.97,0L-328.3-40.779a.686.686,0,0,0,0-.97" transform="translate(361.098 45.92)" fill="#4ead4e"/>
          </g>
          <g id="g4938" transform="translate(22.679 11.172)">
            <path id="path4940" d="M-.476-240.657a3.789,3.789,0,0,0,0-3.591.383.383,0,0,1,.063-.455L19.47-264.586a.383.383,0,0,1,.455-.063,3.787,3.787,0,0,0,3.591,0,.383.383,0,0,1,.455.063l7.711,7.711a.383.383,0,0,1,.063.455,3.788,3.788,0,0,0,0,3.591.383.383,0,0,1-.063.455L11.8-232.491a.383.383,0,0,1-.455.063,3.789,3.789,0,0,0-3.591,0,.383.383,0,0,1-.455-.063L-.413-240.2a.383.383,0,0,1-.063-.455" transform="translate(0.524 264.697)" fill="#a0e557"/>
          </g>
          <g id="g4942" transform="translate(26.061 14.553)">
            <path id="path4944" d="M-289.183-84.952a3.788,3.788,0,0,1,0-3.591.383.383,0,0,0-.063-.455l-4.44-4.44a3.784,3.784,0,0,0,0,4.084l-20.3,20.3a3.784,3.784,0,0,0-4.084,0l4.44,4.44a.383.383,0,0,0,.455.063,3.788,3.788,0,0,1,3.591,0,.383.383,0,0,0,.455-.063L-289.246-84.5a.383.383,0,0,0,.063-.455" transform="translate(318.07 93.438)" fill="#93cc4a"/>
          </g>
          <g id="g4946" transform="translate(33.198 21.69)">
            <path id="path4948" d="M-96.381-16.536a5.64,5.64,0,0,1,0,7.976,5.64,5.64,0,0,1-7.976,0,5.64,5.64,0,0,1,0-7.976,5.64,5.64,0,0,1,7.976,0" transform="translate(106.009 18.188)" fill="#f3e8d7"/>
          </g>
          <g id="g4950" transform="translate(4.391 16.255)">
            <path id="path4952" d="M-277.881-244.937l8.509-8.509c.98-.98,1.4-2.153.417-3.134-1.546-1.919-7.187-.38-9.863,2.3L-282.4-250.7a2.122,2.122,0,0,1-1.505.621h-.029a2.692,2.692,0,0,1-2.281-1.816v-7.863l1.4-1.4,1.543-1.543,6.127-6.127c-2.521-.283-5.027-.435-6-.552a3.733,3.733,0,0,0-2.842,1.049l-7.844,6.188a7.006,7.006,0,0,0-2.287,3.535,75.116,75.116,0,0,1-3.8,10.77l-5.719,5.719,9.9,9.9,2.754-2.754a4.34,4.34,0,0,1,1.86-1.1l5.751-1.937a9.963,9.963,0,0,0,4.582-3.244Z" transform="translate(305.639 269.405)" fill="#fcd7c3"/>
          </g>
          <g id="g4954" transform="translate(9.665 28.223)">
            <path id="path4956" d="M-195.951-161.986l2.911-3.681,8.509-8.509c.98-.981,1.4-2.153.417-3.134a3.43,3.43,0,0,0-3.014-.83,8.284,8.284,0,0,0-5.124,2.43l-5.415,5.415-2.911,3.681a9.962,9.962,0,0,1-4.582,3.244l-5.751,1.937a4.341,4.341,0,0,0-1.86,1.1l-2.754,2.754,4.627,4.627,2.754-2.754a4.342,4.342,0,0,1,1.86-1.1l5.751-1.937a9.962,9.962,0,0,0,4.582-3.244" transform="translate(215.525 178.167)" fill="#ffcdac"/>
          </g>
          <g id="g4958" transform="translate(0.908 41.274)">
            <path id="path4960" d="M-117.906-153.488l-11.459-11.459a1.087,1.087,0,0,1,0-1.538l2.017-2.017a1.087,1.087,0,0,1,1.538,0l11.459,11.459a1.088,1.088,0,0,1,0,1.538l-2.017,2.017a1.087,1.087,0,0,1-1.538,0" transform="translate(129.684 168.82)" fill="#464c50"/>
          </g>
          <g id="g4962" transform="translate(8.8 49.165)">
            <path id="path4964" d="M-74.49-38.909-78.376-42.8l-3.554,3.554,3.887,3.887a1.088,1.088,0,0,0,1.538,0l2.016-2.017a1.087,1.087,0,0,0,0-1.538" transform="translate(81.93 42.796)" fill="#33393a"/>
          </g>
          <g id="g4966" transform="translate(34.512 31.102)">
            <path id="path4968" d="M-58.166-8.479a2.892,2.892,0,0,0-4.09,0l-1.285,1.285a1.489,1.489,0,0,0,0,2.105L-62.248-3.8l4.382-4.382Z" transform="translate(63.977 9.326)" fill="#efefef"/>
          </g>
          <g id="g4970" transform="translate(0 40.365)">
            <path id="path4972" d="M-126.229-161.353a1.983,1.983,0,0,1-1.411-.585L-139.1-173.4a1.983,1.983,0,0,1-.585-1.411,1.982,1.982,0,0,1,.585-1.411l2.017-2.017a1.982,1.982,0,0,1,1.411-.585,1.983,1.983,0,0,1,1.411.584l11.459,11.459a2,2,0,0,1,0,2.822l-2.017,2.017A1.983,1.983,0,0,1-126.229-161.353ZM-135.672-177a.176.176,0,0,0-.127.052l-2.017,2.017a.2.2,0,0,0,0,.253l11.459,11.459a.176.176,0,0,0,.127.053.176.176,0,0,0,.127-.053l2.017-2.017a.18.18,0,0,0,0-.254l-11.459-11.459A.176.176,0,0,0-135.672-177Z" transform="translate(139.684 178.82)"/>
          </g>
          <g id="g4974" transform="translate(22.906 10.262)">
            <path id="path4976" d="M-172-279.7a.905.905,0,0,1-.642-.266.908.908,0,0,1,0-1.284l14.532-14.532a4.665,4.665,0,0,1,0-3.749l-7.179-7.179a4.666,4.666,0,0,1-3.749,0l-18.593,18.593a.908.908,0,0,1-1.284,0,.908.908,0,0,1,0-1.284l18.859-18.859a1.285,1.285,0,0,1,1.529-.219,2.9,2.9,0,0,0,2.727,0,1.284,1.284,0,0,1,1.529.22l7.711,7.711a1.285,1.285,0,0,1,.22,1.529,2.9,2.9,0,0,0,0,2.727,1.284,1.284,0,0,1-.219,1.529l-14.8,14.8A.905.905,0,0,1-172-279.7Z" transform="translate(189.181 308.635)"/>
          </g>
          <g id="g4978" transform="translate(29.341 40.387)">
            <path id="path4980" d="M-8.574-26.147a1.28,1.28,0,0,1-.908-.378l-.252-.252a.908.908,0,0,1,0-1.284.908.908,0,0,1,1.27-.014,4.666,4.666,0,0,1,3.749,0L-2.9-29.893a.908.908,0,0,1,1.284,0,.908.908,0,0,1,0,1.284L-3.7-26.525a1.285,1.285,0,0,1-1.529.22,2.9,2.9,0,0,0-2.727,0A1.3,1.3,0,0,1-8.574-26.147Z" transform="translate(10 30.159)"/>
          </g>
          <g id="g4982" transform="translate(32.296 20.785)">
            <path id="path4984" d="M-84.338-112.871a.908.908,0,0,1-.8-.474.908.908,0,0,1,.155-1.077l.628-.628a.909.909,0,0,1,1.141-.117,4.725,4.725,0,0,0,1.026-.778,4.737,4.737,0,0,0,0-6.692,4.737,4.737,0,0,0-6.692,0,4.762,4.762,0,0,0-.982,5.259.908.908,0,0,1-.464,1.2.908.908,0,0,1-1.2-.464,6.59,6.59,0,0,1,1.359-7.278,6.556,6.556,0,0,1,9.26,0,6.556,6.556,0,0,1,0,9.26,6.526,6.526,0,0,1-3.245,1.769A.909.909,0,0,1-84.338-112.871Z" transform="translate(92.072 125.835)"/>
          </g>
          <g id="g4986" transform="translate(27.4 4.167)">
            <path id="path4988" d="M-4.649-407.953a1.583,1.583,0,0,1-1.127-.467l-3.958-3.958a.908.908,0,0,1,0-1.284.908.908,0,0,1,1.284,0l3.8,3.8,27.34-27.34L7.524-452.37l-8.357,8.357a.908.908,0,0,1-1.284,0,.908.908,0,0,1,0-1.284L6.4-453.812a1.584,1.584,0,0,1,1.127-.467,1.584,1.584,0,0,1,1.127.467l15.482,15.482A1.584,1.584,0,0,1,24.6-437.2a1.583,1.583,0,0,1-.467,1.127L-3.521-408.42A1.584,1.584,0,0,1-4.649-407.953Z" transform="translate(10 454.279)"/>
          </g>
          <g id="g4990" transform="translate(33.605 30.193)">
            <path id="path4992" d="M-69.292-19.326A3.775,3.775,0,0,1-66.6-18.213l.3.3a.908.908,0,0,1,0,1.284l-4.382,4.382a.908.908,0,0,1-1.284,0l-1.293-1.293a2.4,2.4,0,0,1,0-3.39l1.285-1.285A3.775,3.775,0,0,1-69.292-19.326Zm1.019,2.1a1.971,1.971,0,0,0-1.019-.281,1.971,1.971,0,0,0-1.4.581l-1.285,1.285a.581.581,0,0,0,0,.821l.651.651Z" transform="translate(73.964 19.326)"/>
          </g>
          <g id="g4994" transform="translate(4.65 15.347)">
            <path id="path4996" d="M-108.208-368.722a.905.905,0,0,1-.642-.266.908.908,0,0,1,0-1.284l1.586-1.586a5.265,5.265,0,0,1,2.25-1.33l5.714-1.925a9.032,9.032,0,0,0,4.159-2.947l2.911-3.681a.911.911,0,0,1,.07-.079l8.509-8.509c1.133-1.133.613-1.654.417-1.85a.91.91,0,0,1-.065-.073,1.977,1.977,0,0,0-1.428-.511,10.739,10.739,0,0,0-7.086,2.88L-95.4-386.3a3.015,3.015,0,0,1-2.147.887,3.591,3.591,0,0,1-3.187-2.49.908.908,0,0,1-.031-.234V-396a.908.908,0,0,1,.266-.642l7.721-7.721c-.8-.073-1.549-.135-2.211-.189-.826-.068-1.5-.123-1.9-.172a2.823,2.823,0,0,0-2.155.847l-7.86,6.2a6.054,6.054,0,0,0-1.974,3.063,75.935,75.935,0,0,1-3.876,10.95.908.908,0,0,1-.162.22l-4.552,4.552a.908.908,0,0,1-1.284,0,.908.908,0,0,1,0-1.284l4.451-4.451a77.591,77.591,0,0,0,3.672-10.47,7.876,7.876,0,0,1,2.584-3.993l7.86-6.2a4.566,4.566,0,0,1,3.512-1.238c.392.047,1.038.1,1.834.165,1.185.1,2.659.218,4.159.386a.908.908,0,0,1,.756.6.908.908,0,0,1-.215.942l-8.808,8.808v7.345a1.863,1.863,0,0,0,1.372,1.049,1.229,1.229,0,0,0,.892-.355l3.583-3.584a12.61,12.61,0,0,1,8.468-3.409,3.672,3.672,0,0,1,2.713,1.147c1.2,1.231,1.028,2.907-.45,4.385l-8.472,8.472-2.878,3.64a10.849,10.849,0,0,1-5,3.54l-5.756,1.938a3.492,3.492,0,0,0-1.508.881l-1.586,1.586A.905.905,0,0,1-108.208-368.722Z" transform="translate(119.017 406.554)"/>
          </g>
        </g>
      </g>
    </g>
  </g>
</svg>
