<svg xmlns="http://www.w3.org/2000/svg" width="85" height="85" viewBox="0 0 85 85">
  <g id="_25" data-name="25" transform="translate(-513.102 -3210)">
    <ellipse id="Elipse_11505" data-name="Elipse 11505" cx="42.5" cy="42.5" rx="42.5" ry="42.5" transform="translate(513.102 3210)" fill="#b15815"/>
    <g id="directo" transform="translate(526.102 3223)">
      <g id="Grupo_1099974" data-name="Grupo 1099974" transform="translate(0.927 1.616)">
        <g id="Grupo_1099956" data-name="Grupo 1099956" transform="translate(29.659 0)">
          <path id="Trazado_873795" data-name="Trazado 873795" d="M45.976,1.744,33,20.281h3.707V39.438H55.244V20.281h3.707Z" transform="translate(-33 -1.744)" fill="#ccd1d9"/>
        </g>
        <g id="Grupo_1099957" data-name="Grupo 1099957" transform="translate(38.927 27.805)">
          <path id="Trazado_873796" data-name="Trazado 873796" d="M50.415,31.744v3.707H43V31.744h7.415Z" transform="translate(-43 -31.744)" fill="#ffeaa7"/>
        </g>
        <g id="Grupo_1099958" data-name="Grupo 1099958" transform="translate(37.073 22.244)">
          <path id="Trazado_873797" data-name="Trazado 873797" d="M46.366,30.916l.195.389H42.854L41,27.6a3.349,3.349,0,0,1,3-1.854h.816A15.66,15.66,0,0,0,46.366,30.916Z" transform="translate(-41 -25.744)" fill="#b4dd7f"/>
        </g>
        <g id="Grupo_1099959" data-name="Grupo 1099959" transform="translate(40.781 20.39)">
          <path id="Trazado_873798" data-name="Trazado 873798" d="M52.415,25.6a9.226,9.226,0,0,1-1.539,5.1l-.315.463H46.854l-.195-.389A15.66,15.66,0,0,1,45.111,25.6,15.429,15.429,0,0,1,45,23.744a15.6,15.6,0,0,1,5.793.927,5.139,5.139,0,0,1,1.622.927Z" transform="translate(-45 -23.744)" fill="#a0d468"/>
        </g>
        <g id="Grupo_1099960" data-name="Grupo 1099960" transform="translate(30.586 31.512)">
          <path id="Trazado_873799" data-name="Trazado 873799" d="M36.781,41.926l5.561-6.182h7.415l5.561,6.182.028.028a10.72,10.72,0,0,1-7.962,17.888H44.714A10.719,10.719,0,0,1,34,49.127a10.559,10.559,0,0,1,.714-3.837,10.675,10.675,0,0,1,2.039-3.337Z" transform="translate(-34 -35.744)" fill="#b4dd7f"/>
        </g>
        <g id="Grupo_1099961" data-name="Grupo 1099961" transform="translate(5.561 42.634)">
          <path id="Trazado_873800" data-name="Trazado 873800" d="M7,47.744H21.829v3.707H7Z" transform="translate(-7 -47.744)" fill="#fcd770"/>
        </g>
        <g id="Grupo_1099962" data-name="Grupo 1099962" transform="translate(5.561 38.927)">
          <path id="Trazado_873801" data-name="Trazado 873801" d="M7,43.744H21.829v3.707H7Z" transform="translate(-7 -43.744)" fill="#ffc729"/>
        </g>
        <g id="Grupo_1099963" data-name="Grupo 1099963" transform="translate(20.39 31.068)">
          <path id="Trazado_873802" data-name="Trazado 873802" d="M28.561,46.831v5.561H23V35.264A14.776,14.776,0,0,1,28.561,46.831Z" transform="translate(-23 -35.264)" fill="#fcd770"/>
        </g>
        <g id="Grupo_1099964" data-name="Grupo 1099964" transform="translate(5.561 29.195)">
          <path id="Trazado_873803" data-name="Trazado 873803" d="M10.383,33.383l4.032,5.885,4.032-5.885c.139-.046.269-.083.4-.139a14.676,14.676,0,0,1,2.984,1.872v7.86H7v-7.86a14.185,14.185,0,0,1,2.984-1.872c.13.056.26.093.4.139Z" transform="translate(-7 -33.244)" fill="#fcd770"/>
        </g>
        <g id="Grupo_1099965" data-name="Grupo 1099965" transform="translate(0 31.068)">
          <path id="Trazado_873804" data-name="Trazado 873804" d="M6.561,52.392H1V46.831A14.776,14.776,0,0,1,6.561,35.264V52.392Z" transform="translate(-1 -35.264)" fill="#fcd770"/>
        </g>
        <g id="Grupo_1099966" data-name="Grupo 1099966" transform="translate(5.561 46.342)">
          <path id="Trazado_873805" data-name="Trazado 873805" d="M21.829,53.6v7.415H7V51.744H21.829Z" transform="translate(-7 -51.744)" fill="#969faa"/>
        </g>
        <g id="Grupo_1099967" data-name="Grupo 1099967">
          <path id="Trazado_873806" data-name="Trazado 873806" d="M7.256,10.669A4.619,4.619,0,0,0,4.707,14.8v1.77H3.781a2.771,2.771,0,0,0-2.048.9l-.519-2.614A11.2,11.2,0,0,1,1,12.708,10.969,10.969,0,0,1,11.964,1.744h4.022A10.981,10.981,0,0,1,26.951,12.708a11.2,11.2,0,0,1-.213,2.15l-.519,2.614a2.771,2.771,0,0,0-2.048-.9h-.927a3.706,3.706,0,0,0-3.707-3.707H11.2A4.637,4.637,0,0,1,7.256,10.669Z" transform="translate(-1 -1.744)" fill="#b27946"/>
        </g>
        <g id="Grupo_1099968" data-name="Grupo 1099968" transform="translate(1.854 48.195)">
          <path id="Trazado_873807" data-name="Trazado 873807" d="M6.707,53.744v3.707H5.781A2.777,2.777,0,0,1,3,54.671v-.927Z" transform="translate(-3 -53.744)" fill="#f0d0b4"/>
        </g>
        <g id="Grupo_1099969" data-name="Grupo 1099969" transform="translate(20.39 48.195)">
          <path id="Trazado_873808" data-name="Trazado 873808" d="M26.707,53.744v.927a2.777,2.777,0,0,1-2.781,2.781H23V53.744Z" transform="translate(-23 -53.744)" fill="#f0d0b4"/>
        </g>
        <g id="Grupo_1099970" data-name="Grupo 1099970" transform="translate(8.944 29.334)">
          <path id="Trazado_873809" data-name="Trazado 873809" d="M18.713,33.394l-4.032,5.885L10.65,33.394a7.329,7.329,0,0,0,2.178.324h3.707A7.329,7.329,0,0,0,18.713,33.394Z" transform="translate(-10.65 -33.394)" fill="#f0d0b4"/>
        </g>
        <g id="Grupo_1099971" data-name="Grupo 1099971" transform="translate(22.244 14.829)">
          <path id="Trazado_873810" data-name="Trazado 873810" d="M25.927,17.744a2.781,2.781,0,0,1,0,5.561H25V17.744Z" transform="translate(-25 -17.744)" fill="#f0d0b4"/>
        </g>
        <g id="Grupo_1099972" data-name="Grupo 1099972" transform="translate(3.707 8.925)">
          <path id="Trazado_873811" data-name="Trazado 873811" d="M23.537,22.839v1.854A7.411,7.411,0,0,1,18.7,31.644c-.13.056-.26.093-.4.139a7.329,7.329,0,0,1-2.178.324H12.415a7.329,7.329,0,0,1-2.178-.324c-.139-.046-.269-.083-.4-.139A7.411,7.411,0,0,1,5,24.693V15.508a4.619,4.619,0,0,1,2.549-4.134,4.637,4.637,0,0,0,3.939,2.2h8.342a3.706,3.706,0,0,1,3.707,3.707Z" transform="translate(-5 -11.374)" fill="#f0d0b4"/>
        </g>
        <g id="Grupo_1099973" data-name="Grupo 1099973" transform="translate(0 14.829)">
          <path id="Trazado_873812" data-name="Trazado 873812" d="M4.707,17.744v5.561H3.781a2.781,2.781,0,1,1,0-5.561Z" transform="translate(-1 -17.744)" fill="#f0d0b4"/>
        </g>
      </g>
      <g id="Grupo_1099975" data-name="Grupo 1099975" transform="translate(0)">
        <path id="Trazado_873813" data-name="Trazado 873813" d="M47.707,44.768V42.744H45.854V44.6H44v2.781a2.784,2.784,0,0,0,2.781,2.781.927.927,0,0,1,.927.927v.927h-.927a.927.927,0,0,1-.927-.927v-.927H44v.927a2.777,2.777,0,0,0,1.854,2.61V55.72h1.854V53.866h1.854V51.086a2.784,2.784,0,0,0-2.781-2.781.927.927,0,0,1-.927-.927v-.927h.927a.927.927,0,0,1,.927.927v.927h1.854v-.927A2.777,2.777,0,0,0,47.707,44.768Z" transform="translate(-3.219 -3.127)"/>
        <circle id="Elipse_11518" data-name="Elipse 11518" cx="0.927" cy="0.927" r="0.927" transform="translate(9.268 17.373)"/>
        <circle id="Elipse_11519" data-name="Elipse 11519" cx="0.927" cy="0.927" r="0.927" transform="translate(16.682 17.373)"/>
        <path id="Trazado_873814" data-name="Trazado 873814" d="M20.307,30.9a8.336,8.336,0,0,0,3.79-6.982v-.927a3.7,3.7,0,0,0,3.037-5.823l.439-2.2A11.891,11.891,0,0,0,15.915.742H11.89A11.892,11.892,0,0,0,.231,14.965l.44,2.2a3.7,3.7,0,0,0,3.036,5.824v.927A8.337,8.337,0,0,0,7.5,30.9,15.825,15.825,0,0,0,0,44.305v6.488H1.854A3.711,3.711,0,0,0,5.561,54.5h0v3.707H22.243V54.5h0a3.711,3.711,0,0,0,3.707-3.707h1.854V44.305A15.828,15.828,0,0,0,20.307,30.9ZM13.9,35.25l-2.059-3c.069,0,.135.01.2.01h3.706c.07,0,.136-.008.2-.01Zm-.927,1.928v2.493H7.415V33.189a13.789,13.789,0,0,1,1.98-1.238ZM7.415,41.525h5.561v1.854H7.415Zm0,3.707h5.561v1.854H7.416Zm7.415,0H20.39v1.854H14.829Zm0-1.854V41.525H20.39v1.854Zm0-3.707V37.178l3.581-5.228a13.789,13.789,0,0,1,1.98,1.238V39.67H14.829ZM24.1,21.134V17.427a1.854,1.854,0,1,1,0,3.707ZM15.915,2.6A10.038,10.038,0,0,1,25.756,14.6l-.25,1.252a3.678,3.678,0,0,0-1.409-.282H24a4.642,4.642,0,0,0-4.541-3.707H11.122A3.711,3.711,0,0,1,7.415,8.159v-4.5A9.968,9.968,0,0,1,11.89,2.6ZM1.854,19.281a1.856,1.856,0,0,1,1.854-1.854v3.707A1.856,1.856,0,0,1,1.854,19.281ZM3.707,14.73v.843a3.673,3.673,0,0,0-1.408.282L2.048,14.6A10.023,10.023,0,0,1,5.561,4.853V8.159a5.519,5.519,0,0,0,.409,2.093A5.529,5.529,0,0,0,3.707,14.73Zm1.854,9.185V14.73a3.687,3.687,0,0,1,1.391-2.9,5.548,5.548,0,0,0,4.17,1.886h8.341A2.784,2.784,0,0,1,22.243,16.5v7.415A6.5,6.5,0,0,1,15.755,30.4H12.049a6.5,6.5,0,0,1-6.488-6.488ZM1.854,44.305a13.941,13.941,0,0,1,3.707-9.43V48.939H1.854Zm3.707,8.342a1.856,1.856,0,0,1-1.854-1.854H5.562Zm9.267,3.707V53.573a2.784,2.784,0,0,0-2.781-2.781v1.854a.927.927,0,0,1,.927.927v2.781H7.416V48.939H20.39v7.415Zm7.416-3.707V50.793H24.1A1.856,1.856,0,0,1,22.244,52.647Zm3.707-3.707H22.243V34.875a13.945,13.945,0,0,1,3.707,9.43Z" transform="translate(0 -0.054)"/>
        <path id="Trazado_873815" data-name="Trazado 873815" d="M18.56,24.744H16.707A1.856,1.856,0,0,1,14.853,26.6H13v1.854h1.851A3.712,3.712,0,0,0,18.56,24.744Z" transform="translate(-0.951 -1.81)"/>
        <path id="Trazado_873816" data-name="Trazado 873816" d="M56.03,21.08h4.561L45.835,0,31.079,21.08H35.64V38.974A11.632,11.632,0,0,0,44.5,58.153h2.665A11.632,11.632,0,0,0,56.03,38.974ZM34.64,19.226l11.2-15.994,11.2,15.993H54.177V36.892l-3.707-4.119V29.7l.156-.234a10.079,10.079,0,0,0,1.7-5.607v-.384l-.272-.272c-.217-.218-2.292-2.125-8.07-2.125h-.927v.927c0,.313.009.627.028.94A4.249,4.249,0,0,0,39.446,25.3l-.208.414L41.2,29.64v3.133l-3.707,4.119V19.226ZM42.7,28.495l-1.369-2.738a2.409,2.409,0,0,1,1.942-.969h.019a16.745,16.745,0,0,0,1.083,3.707Zm.354,1.854h5.561V32.2H43.055Zm3.361-1.854a14.84,14.84,0,0,1-1.476-5.542,11.17,11.17,0,0,1,5.518,1.358,8.24,8.24,0,0,1-1.375,4.129l-.036.055ZM47.168,56.3H44.5A9.79,9.79,0,0,1,37.226,39.96l5.314-5.9h6.59l5.314,5.9A9.79,9.79,0,0,1,47.168,56.3Z" transform="translate(-2.274)"/>
      </g>
    </g>
  </g>
</svg>
