<svg xmlns="http://www.w3.org/2000/svg" width="85" height="85" viewBox="0 0 85 85">
  <g id="_27" data-name="27" transform="translate(-1156.102 -3210)">
    <ellipse id="Elipse_11507" data-name="Elipse 11507" cx="42.5" cy="42.5" rx="42.5" ry="42.5" transform="translate(1156.102 3210)" fill="#b15815"/>
    <g id="desigualdad" transform="translate(1170.102 3225.014)">
      <circle id="Elipse_11511" data-name="Elipse 11511" cx="6" cy="6" r="6" transform="translate(40.999 24.626)" fill="#ccb857"/>
      <circle id="Elipse_11512" data-name="Elipse 11512" cx="6" cy="6" r="6" transform="translate(40.999 27.626)" fill="#e6cf62"/>
      <circle id="Elipse_11513" data-name="Elipse 11513" cx="6" cy="6" r="6" transform="translate(21.999 18.626)" fill="#e6cf62"/>
      <path id="Trazado_873779" data-name="Trazado 873779" d="M0,0H6.885V5.163H0Z" transform="translate(50.207 52.772) rotate(180)" fill="#8197bf"/>
      <path id="Trazado_873780" data-name="Trazado 873780" d="M0,0H6.885V14.63H0Z" transform="translate(31.26 52.772) rotate(180)" fill="#7083a6"/>
      <path id="Trazado_873781" data-name="Trazado 873781" d="M0,0H6.885V30.12H0Z" transform="translate(12.327 52.772) rotate(180)" fill="#63758c"/>
      <g id="Grupo_1099954" data-name="Grupo 1099954" transform="translate(2.861 6.301)">
        <circle id="Elipse_11514" data-name="Elipse 11514" cx="6" cy="6" r="6" transform="translate(19.139 15.325)" fill="#ffe66d"/>
        <circle id="Elipse_11515" data-name="Elipse 11515" cx="6" cy="6" r="6" transform="translate(0.139 0.325)" fill="#ffe66d"/>
        <circle id="Elipse_11516" data-name="Elipse 11516" cx="6" cy="6" r="6" transform="translate(38.139 25.325)" fill="#ffe66d"/>
      </g>
      <path id="Trazado_873782" data-name="Trazado 873782" d="M35,6h6.885v5.163H35Z" transform="translate(-4.601 -0.56)" fill="#8197bf"/>
      <circle id="Elipse_11517" data-name="Elipse 11517" cx="2" cy="2" r="2" transform="translate(47.999 2.626)" fill="#ffdbac"/>
      <path id="Trazado_873783" data-name="Trazado 873783" d="M55,13.163V9.721A1.721,1.721,0,0,1,56.721,8h1.721a1.721,1.721,0,0,1,1.721,1.721v3.442Z" transform="translate(-7.389 -0.838)" fill="#7cb2f8"/>
      <path id="Trazado_873784" data-name="Trazado 873784" d="M53.635,56.841V55.12H51.068v-4.3a.861.861,0,0,0-.861-.861H43.322a.861.861,0,0,0-.861.861v4.3H32.12V41.351a.861.861,0,0,0-.861-.861H24.375a.861.861,0,0,0-.861.861V55.12H13.188V25.861A.861.861,0,0,0,12.327,25H5.442a.861.861,0,0,0-.861.861V55.12H2v1.721Zm-9.452-5.163h5.163V55.12H44.183ZM25.236,42.212H30.4V55.12H25.236ZM6.3,26.721h5.163v28.4H6.3Z" transform="translate(0 -3.209)"/>
      <path id="Trazado_873785" data-name="Trazado 873785" d="M30.885,20A6.892,6.892,0,0,0,24,26.885a6.824,6.824,0,0,0,.229,1.712,6.885,6.885,0,1,0,13.311,0,6.823,6.823,0,0,0,.229-1.712A6.892,6.892,0,0,0,30.885,20Zm0,1.721a5.169,5.169,0,0,1,5,3.884,6.854,6.854,0,0,0-9.993,0,5.169,5.169,0,0,1,5-3.884Zm0,13.769a5.163,5.163,0,1,1,5.163-5.163,5.163,5.163,0,0,1-5.163,5.163Z" transform="translate(-3.067 -2.512)"/>
      <path id="Trazado_873786" data-name="Trazado 873786" d="M31.151,29.582h.861a.43.43,0,0,1,.43.43h1.721A2.151,2.151,0,0,0,32.443,27.9V27H30.721v.9a2.151,2.151,0,0,0,.43,4.259h.861a.43.43,0,0,1,0,.861h-.861a.43.43,0,0,1-.43-.43H29A2.151,2.151,0,0,0,30.721,34.7v.9h1.721v-.9a2.151,2.151,0,0,0-.43-4.259h-.861a.43.43,0,0,1,0-.861Z" transform="translate(-3.764 -3.488)"/>
      <path id="Trazado_873787" data-name="Trazado 873787" d="M10.012,15.024H9.151a.43.43,0,0,1-.43-.43H7A2.151,2.151,0,0,0,8.721,16.7v.9h1.721v-.9a2.151,2.151,0,0,0-.43-4.259H9.151a.43.43,0,1,1,0-.861h.861a.43.43,0,0,1,.43.43h1.721A2.151,2.151,0,0,0,10.443,9.9V9H8.721v.9a2.151,2.151,0,0,0,.43,4.259h.861a.43.43,0,0,1,0,.861Z" transform="translate(-0.697 -0.978)"/>
      <path id="Trazado_873788" data-name="Trazado 873788" d="M52.885,47.654a6.858,6.858,0,0,0,6.656-8.615,6.585,6.585,0,0,0,0-3.442,6.885,6.885,0,1,0-13.311,0,6.585,6.585,0,0,0,0,3.442,6.858,6.858,0,0,0,6.656,8.615Zm0-18.933a5.169,5.169,0,0,1,5,3.884,6.854,6.854,0,0,0-9.993,0A5.169,5.169,0,0,1,52.885,28.721Zm0,3.442a5.169,5.169,0,0,1,5,3.884,6.854,6.854,0,0,0-9.993,0A5.169,5.169,0,0,1,52.885,32.163Zm0,3.442a5.163,5.163,0,1,1-5.163,5.163A5.163,5.163,0,0,1,52.885,35.606Z" transform="translate(-6.135 -3.488)"/>
      <path id="Trazado_873789" data-name="Trazado 873789" d="M54.012,44.024h-.861a.43.43,0,0,1-.43-.43H51A2.151,2.151,0,0,0,52.721,45.7v.9h1.721v-.9a2.151,2.151,0,0,0-.43-4.259h-.861a.43.43,0,1,1,0-.861h.861a.43.43,0,0,1,.43.43h1.721A2.151,2.151,0,0,0,54.443,38.9V38H52.721v.9a2.151,2.151,0,0,0,.43,4.259h.861a.43.43,0,1,1,0,.861Z" transform="translate(-6.832 -5.021)"/>
      <path id="Trazado_873790" data-name="Trazado 873790" d="M42.606,11.024V5.861A.861.861,0,0,0,41.745,5H34.861A.861.861,0,0,0,34,5.861v5.163a.861.861,0,0,0,.861.861h6.885A.861.861,0,0,0,42.606,11.024Zm-1.721-.861H35.721V6.721h5.163Z" transform="translate(-4.462 -0.42)"/>
      <path id="Trazado_873791" data-name="Trazado 873791" d="M47,6h3.442V7.721H47Z" transform="translate(-6.274 -0.56)"/>
      <path id="Trazado_873792" data-name="Trazado 873792" d="M47,10h3.442v1.721H47Z" transform="translate(-6.274 -1.117)"/>
      <path id="Trazado_873793" data-name="Trazado 873793" d="M54,8.883v3.442a.861.861,0,0,0,.861.861h5.163a.861.861,0,0,0,.861-.861V8.883A2.582,2.582,0,0,0,59.19,6.468a2.582,2.582,0,1,0-3.5,0A2.582,2.582,0,0,0,54,8.883Zm3.442-5.163a.861.861,0,1,1-.861.861A.861.861,0,0,1,57.442,3.719ZM55.721,8.883a.861.861,0,0,1,.861-.861H58.3a.861.861,0,0,1,.861.861v2.582H55.721Z" transform="translate(-7.25)"/>
      <path id="Trazado_873794" data-name="Trazado 873794" d="M8.885,19.769A6.885,6.885,0,1,0,2,12.885a6.885,6.885,0,0,0,6.885,6.885Zm0-12.048a5.163,5.163,0,1,1-5.163,5.163A5.163,5.163,0,0,1,8.885,7.721Z" transform="translate(0 -0.56)"/>
    </g>
  </g>
</svg>
