<svg xmlns="http://www.w3.org/2000/svg" width="85" height="85" viewBox="0 0 85 85">
  <g id="_28" data-name="28" transform="translate(-197.102 -3357)">
    <ellipse id="Elipse_11508" data-name="Elipse 11508" cx="42.5" cy="42.5" rx="42.5" ry="42.5" transform="translate(197.102 3357)" fill="#b15815"/>
    <g id="informe-financiero" transform="translate(208.602 3314.202)">
      <g id="Grupo_1100029" data-name="Grupo 1100029" transform="translate(1.63 63.846)">
        <g id="Grupo_1100003" data-name="Grupo 1100003" transform="translate(0.013 0.013)">
          <path id="Trazado_873886" data-name="Trazado 873886" d="M10.112,71.72H45.086v43.855H10.112Z" transform="translate(-10.112 -71.72)" fill="#deddff" fill-rule="evenodd"/>
        </g>
        <g id="Grupo_1100004" data-name="Grupo 1100004" transform="translate(3.841 3.605)">
          <path id="Trazado_873887" data-name="Trazado 873887" d="M42.281,101.9H69.6v4.188H42.281Z" transform="translate(-42.281 -101.902)" fill="#65b9ff" fill-rule="evenodd"/>
        </g>
        <g id="Grupo_1100005" data-name="Grupo 1100005" transform="translate(16.487 32.742)">
          <path id="Trazado_873888" data-name="Trazado 873888" d="M148.56,346.768h3.408v8.412H148.56Z" transform="translate(-148.56 -346.768)" fill="#fcb73e" fill-rule="evenodd"/>
        </g>
        <g id="Grupo_1100006" data-name="Grupo 1100006" transform="translate(10.164 28.151)">
          <path id="Trazado_873889" data-name="Trazado 873889" d="M95.421,308.187h3.4v13h-3.4Z" transform="translate(-95.421 -308.187)" fill="#65b9ff" fill-rule="evenodd"/>
        </g>
        <g id="Grupo_1100007" data-name="Grupo 1100007" transform="translate(3.841 36.47)">
          <path id="Trazado_873890" data-name="Trazado 873890" d="M42.281,378.1h3.4v4.684h-3.4Z" transform="translate(-42.281 -378.097)" fill="#e83d62" fill-rule="evenodd"/>
        </g>
        <g id="Grupo_1100008" data-name="Grupo 1100008" transform="translate(23.3 28.108)">
          <path id="Trazado_873891" data-name="Trazado 873891" d="M205.815,307.823h3.4v13.046h-3.4Z" transform="translate(-205.815 -307.823)" fill="#46cc6b" fill-rule="evenodd"/>
        </g>
        <g id="Grupo_1100009" data-name="Grupo 1100009" transform="translate(29.067 39.205)">
          <path id="Trazado_873892" data-name="Trazado 873892" d="M254.891,405.746H268.4a.616.616,0,0,0,.613-.613V401.7a.616.616,0,0,0-.613-.613H254.891a.616.616,0,0,0-.613.613v3.438A.616.616,0,0,0,254.891,405.746Z" transform="translate(-254.278 -401.082)" fill="#ffca28" fill-rule="evenodd"/>
        </g>
        <g id="Grupo_1100010" data-name="Grupo 1100010" transform="translate(31.782 34.541)">
          <path id="Trazado_873893" data-name="Trazado 873893" d="M277.709,366.551h13.512a.616.616,0,0,0,.613-.613V362.5a.616.616,0,0,0-.613-.613H277.709a.616.616,0,0,0-.613.613v3.438A.616.616,0,0,0,277.709,366.551Z" transform="translate(-277.096 -361.887)" fill="#fd982e" fill-rule="evenodd"/>
        </g>
        <g id="Grupo_1100011" data-name="Grupo 1100011" transform="translate(43.806 39.205)">
          <path id="Trazado_873894" data-name="Trazado 873894" d="M378.753,405.746h13.513a.616.616,0,0,0,.613-.613V401.7a.616.616,0,0,0-.613-.613H378.753a.616.616,0,0,0-.613.613v3.438A.615.615,0,0,0,378.753,405.746Z" transform="translate(-378.14 -401.082)" fill="#fd982e" fill-rule="evenodd"/>
        </g>
        <g id="Grupo_1100012" data-name="Grupo 1100012" transform="translate(40.794 34.541)">
          <path id="Trazado_873895" data-name="Trazado 873895" d="M353.442,366.551h13.509a.616.616,0,0,0,.616-.613V362.5a.616.616,0,0,0-.616-.613H353.442a.614.614,0,0,0-.613.613v3.438A.614.614,0,0,0,353.442,366.551Z" transform="translate(-352.829 -361.887)" fill="#ffca28" fill-rule="evenodd"/>
        </g>
        <g id="Grupo_1100013" data-name="Grupo 1100013" transform="translate(38.389 29.877)">
          <path id="Trazado_873896" data-name="Trazado 873896" d="M333.229,327.354h13.512a.616.616,0,0,0,.613-.613V323.3a.616.616,0,0,0-.613-.613H333.229a.616.616,0,0,0-.613.613v3.438A.616.616,0,0,0,333.229,327.354Z" transform="translate(-332.616 -322.69)" fill="#fd982e" fill-rule="evenodd"/>
        </g>
        <g id="Grupo_1100014" data-name="Grupo 1100014" transform="translate(29.067 39.205)">
          <path id="Trazado_873897" data-name="Trazado 873897" d="M254.891,405.746h1.273a.616.616,0,0,1-.613-.613V401.7a.616.616,0,0,1,.613-.613h-1.273a.616.616,0,0,0-.613.613v3.438A.616.616,0,0,0,254.891,405.746Z" transform="translate(-254.278 -401.082)" fill="#fcb73e" fill-rule="evenodd"/>
        </g>
        <g id="Grupo_1100015" data-name="Grupo 1100015" transform="translate(31.782 34.541)">
          <path id="Trazado_873898" data-name="Trazado 873898" d="M277.709,366.551h1.273a.616.616,0,0,1-.613-.613V362.5a.616.616,0,0,1,.613-.613h-1.273a.616.616,0,0,0-.613.613v3.438A.616.616,0,0,0,277.709,366.551Z" transform="translate(-277.096 -361.887)" fill="#e48929" fill-rule="evenodd"/>
        </g>
        <g id="Grupo_1100016" data-name="Grupo 1100016" transform="translate(43.806 39.205)">
          <path id="Trazado_873899" data-name="Trazado 873899" d="M378.753,405.746h1.273a.616.616,0,0,1-.613-.613V401.7a.616.616,0,0,1,.613-.613h-1.273a.616.616,0,0,0-.613.613v3.438A.615.615,0,0,0,378.753,405.746Z" transform="translate(-378.14 -401.082)" fill="#e48929" fill-rule="evenodd"/>
        </g>
        <g id="Grupo_1100017" data-name="Grupo 1100017" transform="translate(40.794 34.541)">
          <path id="Trazado_873900" data-name="Trazado 873900" d="M353.442,366.551h1.273a.613.613,0,0,1-.613-.613V362.5a.613.613,0,0,1,.613-.613h-1.273a.614.614,0,0,0-.613.613v3.438A.614.614,0,0,0,353.442,366.551Z" transform="translate(-352.829 -361.887)" fill="#fcb73e" fill-rule="evenodd"/>
        </g>
        <g id="Grupo_1100018" data-name="Grupo 1100018" transform="translate(38.389 29.877)">
          <path id="Trazado_873901" data-name="Trazado 873901" d="M333.229,327.354H334.5a.616.616,0,0,1-.613-.613V323.3a.616.616,0,0,1,.613-.613h-1.273a.616.616,0,0,0-.613.613v3.438A.616.616,0,0,0,333.229,327.354Z" transform="translate(-332.616 -322.69)" fill="#e48929" fill-rule="evenodd"/>
        </g>
        <g id="Grupo_1100019" data-name="Grupo 1100019" transform="translate(3.841 36.47)">
          <path id="Trazado_873902" data-name="Trazado 873902" d="M42.281,378.1H43.44v4.684H42.281Z" transform="translate(-42.281 -378.097)" fill="#ce2955" fill-rule="evenodd"/>
        </g>
        <g id="Grupo_1100020" data-name="Grupo 1100020" transform="translate(10.164 28.151)">
          <path id="Trazado_873903" data-name="Trazado 873903" d="M95.421,308.187H96.58v13H95.421Z" transform="translate(-95.421 -308.187)" fill="#49a2eb" fill-rule="evenodd"/>
        </g>
        <g id="Grupo_1100021" data-name="Grupo 1100021" transform="translate(16.487 32.742)">
          <path id="Trazado_873904" data-name="Trazado 873904" d="M148.56,346.768h1.159v8.412H148.56Z" transform="translate(-148.56 -346.768)" fill="#fd982e" fill-rule="evenodd"/>
        </g>
        <g id="Grupo_1100022" data-name="Grupo 1100022" transform="translate(23.3 28.108)">
          <path id="Trazado_873905" data-name="Trazado 873905" d="M205.815,307.823h1.159v13.046h-1.159Z" transform="translate(-205.815 -307.823)" fill="#2ba56c" fill-rule="evenodd"/>
        </g>
        <g id="Grupo_1100023" data-name="Grupo 1100023" transform="translate(3.841 3.605)">
          <path id="Trazado_873906" data-name="Trazado 873906" d="M42.281,101.9h4.2v4.188h-4.2Z" transform="translate(-42.281 -101.902)" fill="#49a2eb" fill-rule="evenodd"/>
        </g>
        <g id="Grupo_1100024" data-name="Grupo 1100024" transform="translate(0 0)">
          <path id="Trazado_873907" data-name="Trazado 873907" d="M10.112,71.72h1.549v43.855H10.112Z" transform="translate(-10.099 -71.707)" fill="#c6c6f7" fill-rule="evenodd"/>
          <path id="Trazado_873908" data-name="Trazado 873908" d="M11.576,115.49H10V71.608h1.576Zm-1.549-.027h1.523V71.635H10.027Z" transform="translate(-10 -71.608)" fill="#c6c6f7"/>
        </g>
        <g id="Grupo_1100025" data-name="Grupo 1100025" transform="translate(32.995 7.726)">
          <path id="Trazado_873909" data-name="Trazado 873909" d="M297.213,136.535c9.928,0,16.161,21.848,0,21.848S287.285,136.535,297.213,136.535Z" transform="translate(-287.293 -136.535)" fill="#46cc6b" fill-rule="evenodd"/>
        </g>
        <g id="Grupo_1100026" data-name="Grupo 1100026" transform="translate(38.399 1.85)">
          <path id="Trazado_873910" data-name="Trazado 873910" d="M341.718,87.853c.01.153.017.307.017.463a5.593,5.593,0,0,1-2.665,4.967h-3.7a5.586,5.586,0,0,1-2.665-4.967c0-.157,0-.31.017-.463a.746.746,0,0,1,1.066-.623,8.244,8.244,0,0,0,6.869,0,.719.719,0,0,1,.7.03A.733.733,0,0,1,341.718,87.853Z" transform="translate(-332.7 -87.155)" fill="#2ba56c" fill-rule="evenodd"/>
        </g>
        <g id="Grupo_1100027" data-name="Grupo 1100027" transform="translate(32.995 7.726)">
          <path id="Trazado_873911" data-name="Trazado 873911" d="M297.213,136.535c.213,0,.427.017.64.037-9.415.893-15.015,21.238,0,21.8-.21.01-.423.013-.64.013C281.049,158.383,287.285,136.535,297.213,136.535Z" transform="translate(-287.293 -136.535)" fill="#2ba56c" fill-rule="evenodd"/>
        </g>
        <g id="Grupo_1100028" data-name="Grupo 1100028" transform="translate(38.399 1.85)">
          <path id="Trazado_873912" data-name="Trazado 873912" d="M336.251,93.284h-.886a5.586,5.586,0,0,1-2.665-4.967c0-.157,0-.31.017-.463a.746.746,0,0,1,1.066-.623c.043.02.09.04.137.063a.712.712,0,0,0-.316.56c-.013.153-.017.307-.017.463A5.586,5.586,0,0,0,336.251,93.284Z" transform="translate(-332.7 -87.155)" fill="#279561" fill-rule="evenodd"/>
        </g>
      </g>
      <path id="Trazado_873913" data-name="Trazado 873913" d="M27.371,107.945a.831.831,0,0,1-.832.832H1.332a.831.831,0,0,1-.832-.832V63.629a.831.831,0,0,1,.832-.832H36.672a.831.831,0,0,1,.832.832v7.951a.832.832,0,1,1-1.663,0v-7.12H2.163v42.653H26.54a.832.832,0,0,1,.832.832ZM33.639,71.49a.831.831,0,0,1-.832.832H5.2a.831.831,0,0,1-.832-.832V67.258a.831.831,0,0,1,.832-.832H32.808a.831.831,0,0,1,.832.832V71.49Zm-1.663-3.4H6.028v2.569H31.976V68.09ZM8.506,74.917v.643h1.646a.832.832,0,1,1,0,1.663H8.506v1.9a2.568,2.568,0,0,1,0,5.133v.674a.832.832,0,0,1-1.663,0v-.643H5.233a.832.832,0,0,1,0-1.663H6.842v-1.9a2.568,2.568,0,0,1,0-5.133v-.674a.832.832,0,0,1,1.663,0Zm-1.663,4.11V77.288a.871.871,0,0,0,0,1.739Zm1.663,1.793v1.739a.871.871,0,0,0,0-1.739Zm24.3-5.872H14.117a.832.832,0,0,0,0,1.663h18.69a.832.832,0,0,0,0-1.663Zm0,4.144H14.117a.832.832,0,1,0,0,1.663h18.69a.832.832,0,0,0,0-1.663Zm0,4.144H14.117a.832.832,0,1,0,0,1.663h18.69a.832.832,0,1,0,0-1.663Zm.832,4.976a.831.831,0,0,0-.832-.832H5.2a.832.832,0,1,0,0,1.663H32.808A.832.832,0,0,0,33.639,88.211ZM61.3,103.852v3.474a1.453,1.453,0,0,1-1.451,1.451H46.2a1.44,1.44,0,0,1-.619-.141,1.439,1.439,0,0,1-.619.141H31.306a1.453,1.453,0,0,1-1.451-1.451v-3.474a1.453,1.453,0,0,1,1.451-1.451H32.6V99.139a1.453,1.453,0,0,1,1.451-1.451h5.225V94.426a1.443,1.443,0,0,1,.359-.953,8.859,8.859,0,0,1-5.7-7.45,15.392,15.392,0,0,1,1.912-9.244,13.5,13.5,0,0,1,3.936-4.533.831.831,0,0,1,.608-1.4h.243a7.022,7.022,0,0,1-1.35-4.188c0-.162.006-.327.019-.522a1.573,1.573,0,0,1,.789-1.266,1.553,1.553,0,0,1,1.477-.06,7.5,7.5,0,0,0,6.227,0,1.585,1.585,0,0,1,2.262,1.317c.017.2.019.389.019.532a7.023,7.023,0,0,1-1.349,4.188h.033a.831.831,0,0,1,.684,1.3,13.415,13.415,0,0,1,4.072,4.627,15.392,15.392,0,0,1,1.912,9.244,9.182,9.182,0,0,1-3.04,5.874,8.912,8.912,0,0,1-1.578,1.079H54.38a1.453,1.453,0,0,1,1.451,1.451v3.262h.98a1.453,1.453,0,0,1,1.451,1.451V102.4h1.592a1.453,1.453,0,0,1,1.451,1.451Zm-4.706-4.5H43.368v3.05H56.6Zm-13.56-28.5h3.287a4.892,4.892,0,0,0,2.09-4.188c0-.118,0-.214-.007-.3a9.174,9.174,0,0,1-7.451,0c-.006.106-.008.2-.008.3A4.9,4.9,0,0,0,43.038,70.847Zm1.643,21.821c7.11,0,8.753-4.3,9.1-6.869a13.7,13.7,0,0,0-1.72-8.217,10.427,10.427,0,0,0-5.3-4.959l.991,1.7a.832.832,0,1,1-1.436.839l-.941-1.61-.175.424a.831.831,0,1,1-1.537-.634L44,72.51H42.952A10.174,10.174,0,0,0,37.3,77.582a13.7,13.7,0,0,0-1.72,8.218c.346,2.565,1.989,6.868,9.1,6.868Zm-3.743,5.019h13.23v-3.05H40.938ZM34.262,102.4h7.443v-3.05H34.262Zm-2.744,4.713h13.23v-3.05H31.518Zm28.123-3.05H46.412v3.05h13.23v-3.05ZM44.681,88.147a.831.831,0,0,1-.832-.832v-.458h-1.3a.832.832,0,0,1,0-1.663h1.3V83.732a2.339,2.339,0,0,1,0-4.666v-.5a.832.832,0,1,1,1.663,0v.458h1.333a.832.832,0,0,1,0,1.663H45.513v1.466a2.337,2.337,0,0,1,0,4.662v.5a.831.831,0,0,1-.832.832Zm.832-4.271v1.217a.62.62,0,0,0,0-1.217ZM43.85,82.009v-1.22a.622.622,0,0,0,0,1.22ZM21.419,95.87a.832.832,0,0,1,.832.832v8.5a.831.831,0,0,1-.832.832h-3.44a.831.831,0,0,1-.832-.832V96.7a.831.831,0,0,1,.832-.832Zm-.832,1.663H18.81v6.834h1.777Zm-5.558-6.3a.831.831,0,0,1,.832.832V105.2a.832.832,0,0,1-.832.832h-3.44a.831.831,0,0,1-.832-.832V92.062a.831.831,0,0,1,.832-.832h3.44ZM14.2,92.894H12.421v11.473H14.2ZM8.64,99.637a.831.831,0,0,1,.832.832v4.73a.831.831,0,0,1-.832.832H5.2a.831.831,0,0,1-.832-.832v-4.73a.831.831,0,0,1,.832-.832ZM7.808,101.3H6.028v3.067H7.808Zm21.327-9.281V105.2a.831.831,0,0,1-.832.832H24.86a.831.831,0,0,1-.832-.832V92.019a.831.831,0,0,1,.832-.832H28.3A.832.832,0,0,1,29.135,92.019Zm-1.663.832H25.691v11.516h1.781Z" transform="translate(0 0)"/>
    </g>
  </g>
</svg>
