<svg xmlns="http://www.w3.org/2000/svg" xmlns:xlink="http://www.w3.org/1999/xlink" width="380" height="161.085" viewBox="0 0 380 161.085">
  <defs>
    <clipPath id="clip-path">
      <rect id="Rectángulo_401394" data-name="Rectángulo 401394" width="192.181" height="160.259" fill="#d1ced9"/>
    </clipPath>
    <clipPath id="clip-path-2">
      <rect id="Rectángulo_401404" data-name="Rectángulo 401404" width="177.007" height="323.392" fill="none"/>
    </clipPath>
  </defs>
  <g id="_31" data-name="31" transform="translate(-200.102 -3774)">
    <rect id="Rectángulo_401378" data-name="Rectángulo 401378" width="380" height="105" rx="5" transform="translate(200.102 3830)" fill="#22cac5"/>
    <g id="Grupo_1099952" data-name="Grupo 1099952" transform="translate(273.102 3774)">
      <path id="Sustracción_1" data-name="Sustracción 1" d="M231.258,0H174.839A62.536,62.536,0,1,1,54.258,23.27H0A116.793,116.793,0,1,0,231.258,0Z" transform="translate(233.586 160.585) rotate(180)" fill="#efddcf" stroke="rgba(0,0,0,0)" stroke-miterlimit="10" stroke-width="1"/>
      <g id="Enmascarar_grupo_1098685" data-name="Enmascarar grupo 1098685" transform="translate(29.201 0)" clip-path="url(#clip-path)">
        <g id="Grupo_1099816" data-name="Grupo 1099816" transform="translate(7.587 3.909)">
          <g id="Grupo_1099815" data-name="Grupo 1099815" clip-path="url(#clip-path-2)">
            <path id="Trazado_873576" data-name="Trazado 873576" d="M41.784,94.217,70.56,107.476,94.283,75.517s-.336-8.057,0-9.232,3.189-5.371,3.693-6.043,1.511,0,1.678,1.007-.5,1.847-.839,2.686-1.008,2.685-1.008,2.685l.839,2.518,8.9-7.05s2.015-2.686,2.686-1.511a2.073,2.073,0,0,1-.136,2.261l-4.061,5.46,2.686.169,6.546-5.54s1.175-.5,1.343,1.008a3.026,3.026,0,0,1-.943,2.547l-4.014,3.746-2.6,1.6,7.722-3.189s1.007,1.007.672,1.511l-8.394,6.547,6.21-1.008s.84,1.175.336,1.847L98.479,82.4s-23.89,44.885-24.226,45.556-3.861,2.182-6.547,1.343-37-15.778-37-15.778" transform="translate(0.872 1.702)" fill="#dfbba0"/>
            <path id="Trazado_873577" data-name="Trazado 873577" d="M41.784,94.217,70.56,107.476,94.283,75.517s-.336-8.057,0-9.232,3.189-5.371,3.693-6.043,1.511,0,1.678,1.007-.5,1.847-.839,2.686-1.008,2.685-1.008,2.685l.839,2.518,8.9-7.05s2.015-2.686,2.686-1.511a2.073,2.073,0,0,1-.136,2.261l-4.061,5.46,2.686.169,6.546-5.54s1.175-.5,1.343,1.008a3.026,3.026,0,0,1-.943,2.547l-4.014,3.746-2.6,1.6,7.722-3.189s1.007,1.007.672,1.511l-8.394,6.547,6.21-1.008s.84,1.175.336,1.847L98.479,82.4s-23.89,44.885-24.226,45.556-3.861,2.182-6.547,1.343-37-15.778-37-15.778" transform="translate(0.872 1.702)" fill="none" stroke="#263238" stroke-miterlimit="10" stroke-width="1"/>
            <path id="Trazado_873578" data-name="Trazado 873578" d="M84.656,105.989C90.856,94.336,97.21,82.4,97.21,82.4l17.122-4.869c.5-.672-.336-1.846-.336-1.846l-6.21,1.007,8.393-6.546c.336-.5-.672-1.512-.672-1.512l-7.721,3.189,2.6-1.593,4.015-3.747a3.025,3.025,0,0,0,.943-2.547C115.17,62.425,114,62.928,114,62.928l-6.546,5.539-2.686-.168,4.06-5.461a2.069,2.069,0,0,0,.137-2.26c-.672-1.174-2.686,1.512-2.686,1.512l-8.9,7.049-.839-2.516s.672-1.848,1.007-2.686,1.008-1.679.84-2.686-1.175-1.679-1.679-1.008-3.357,4.869-3.693,6.044,0,9.231,0,9.231L75.41,99.233Z" transform="translate(2.141 1.702)" fill="#fff"/>
            <path id="Trazado_873579" data-name="Trazado 873579" d="M84.656,105.989C90.856,94.336,97.21,82.4,97.21,82.4l17.122-4.869c.5-.672-.336-1.846-.336-1.846l-6.21,1.007,8.393-6.546c.336-.5-.672-1.512-.672-1.512l-7.721,3.189,2.6-1.593,4.015-3.747a3.025,3.025,0,0,0,.943-2.547C115.17,62.425,114,62.928,114,62.928l-6.546,5.539-2.686-.168,4.06-5.461a2.069,2.069,0,0,0,.137-2.26c-.672-1.174-2.686,1.512-2.686,1.512l-8.9,7.049-.839-2.516s.672-1.848,1.007-2.686,1.008-1.679.84-2.686-1.175-1.679-1.679-1.008-3.357,4.869-3.693,6.044,0,9.231,0,9.231L75.41,99.233Z" transform="translate(2.141 1.702)" fill="none" stroke="#263238" stroke-miterlimit="10" stroke-width="1"/>
            <path id="Trazado_873580" data-name="Trazado 873580" d="M96.79,68.885a9.084,9.084,0,0,1,2.2,2.727c.527,1.317-1.843,4.478-2.9,5" transform="translate(2.728 1.955)" fill="none" stroke="#263238" stroke-miterlimit="10" stroke-width="1"/>
            <path id="Trazado_873581" data-name="Trazado 873581" d="M173.153,37.148a46.265,46.265,0,1,1-54.88-35.625,46.265,46.265,0,0,1,54.88,35.625" transform="translate(2.317 0.014)" fill="#fff"/>
            <path id="Trazado_873582" data-name="Trazado 873582" d="M173.153,37.148a46.265,46.265,0,1,1-54.88-35.625A46.265,46.265,0,0,1,173.153,37.148Z" transform="translate(2.317 0.014)" fill="none" stroke="#263238" stroke-miterlimit="10" stroke-width="1"/>
            <path id="Trazado_873583" data-name="Trazado 873583" d="M165.7,38.485a38.856,38.856,0,1,1-46.09-29.92,38.856,38.856,0,0,1,46.09,29.92" transform="translate(2.522 0.219)" fill="#fff"/>
            <path id="Trazado_873584" data-name="Trazado 873584" d="M165.7,38.485a38.856,38.856,0,1,1-46.09-29.92A38.856,38.856,0,0,1,165.7,38.485Z" transform="translate(2.522 0.219)" fill="none" stroke="#263238" stroke-miterlimit="10" stroke-width="1"/>
            <path id="Trazado_873585" data-name="Trazado 873585" d="M11.312,67.758l1.316-6.187q6.908,1.192,11.179-2.21t6.276-11.528l-9.04-3.591a28.189,28.189,0,0,1-1.88,5.406,7.052,7.052,0,0,1-2.4,2.964,4.111,4.111,0,0,1-3.16.475,3.04,3.04,0,0,1-2.543-1.931,6.152,6.152,0,0,1-.115-3.223,10.09,10.09,0,0,1,2.775-5.354,24.49,24.49,0,0,1,5.273-3.71l6.688-3.653a38.343,38.343,0,0,0,4.236-2.923,15.184,15.184,0,0,0,3.334-3.741,16.436,16.436,0,0,0,2.1-5.463q1.33-6.251-1.485-10.5a15.086,15.086,0,0,0-8.7-5.988L26.418.68,23.225,0l-1.26,5.92a12.568,12.568,0,0,0-6.233.377,10.059,10.059,0,0,0-4.258,2.849A17.094,17.094,0,0,0,8.742,13.5a34.086,34.086,0,0,0-1.719,4.814l9.214,3.42a30.92,30.92,0,0,1,1.326-4.272,6.542,6.542,0,0,1,1.826-2.706,3.141,3.141,0,0,1,2.872-.432,3.453,3.453,0,0,1,2.516,2.065,5.5,5.5,0,0,1,.3,3.332,7.91,7.91,0,0,1-2.51,4.61,31.956,31.956,0,0,1-4.09,2.885l-6.54,3.615a38.412,38.412,0,0,0-4.979,3.461,20.753,20.753,0,0,0-4.09,4.519A17.78,17.78,0,0,0,.36,45.057,14.6,14.6,0,0,0,.425,51.78,12.128,12.128,0,0,0,3.55,57.347a13.768,13.768,0,0,0,5.9,3.48L8.12,67.08Z" transform="translate(95.019 36.959) rotate(-45)" fill="#22cac5"/>
            <path id="Trazado_873586" data-name="Trazado 873586" d="M92.144,289.5l12.209,8.647s7.358,1.509,8.3,2.263.943,3.962.943,3.962-7.547.944-14.529,1.132-10.567,0-16.039-.188-10,.188-11.132-1.132-.031-12.841-.031-12.841,12.785-6.9,20.277-1.843" transform="translate(2.026 8.165)" fill="#fff"/>
            <path id="Trazado_873587" data-name="Trazado 873587" d="M92.144,289.5l12.209,8.647s7.358,1.509,8.3,2.263.943,3.962.943,3.962-7.547.944-14.529,1.132-10.567,0-16.039-.188-10,.188-11.132-1.132-.031-12.841-.031-12.841S84.652,284.434,92.144,289.5Z" transform="translate(2.026 8.165)" fill="none" stroke="#263238" stroke-miterlimit="10" stroke-width="1"/>
            <path id="Trazado_873588" data-name="Trazado 873588" d="M99.068,305.122c6.982-.189,14.529-1.132,14.529-1.132a14.491,14.491,0,0,0-.165-2.013c-7.814.638-22.313,1.642-26.252.692-4.48-1.082-12.874-1.53-15.774-1.658a5.991,5.991,0,0,0,.491,2.79c1.132,1.32,5.66.943,11.132,1.131s9.057.378,16.039.189" transform="translate(2.027 8.544)" fill="#fff"/>
            <path id="Trazado_873589" data-name="Trazado 873589" d="M99.068,305.122c6.982-.189,14.529-1.132,14.529-1.132a14.491,14.491,0,0,0-.165-2.013c-7.814.638-22.313,1.642-26.252.692-4.48-1.082-12.874-1.53-15.774-1.658a5.991,5.991,0,0,0,.491,2.79c1.132,1.32,5.66.943,11.132,1.131S92.087,305.312,99.068,305.122Z" transform="translate(2.027 8.544)" fill="none" stroke="#263238" stroke-miterlimit="10" stroke-width="1"/>
            <path id="Trazado_873590" data-name="Trazado 873590" d="M24.189,294.582,30.6,302.7l11.133,6.981c.755,2.264.376,2.83.189,3.585s-3.585.944-7.738.755-14.339,1.132-17.359.189S4.189,310.62,3.057,310.054.037,308.922.6,306.846s2.23-9.351,2.23-9.351a25.62,25.62,0,0,1,21.355-2.913" transform="translate(0.014 8.329)" fill="#fff"/>
            <path id="Trazado_873591" data-name="Trazado 873591" d="M24.189,294.582,30.6,302.7l11.133,6.981c.755,2.264.376,2.83.189,3.585s-3.585.944-7.738.755-14.339,1.132-17.359.189S4.189,310.62,3.057,310.054.037,308.922.6,306.846s2.23-9.351,2.23-9.351A25.62,25.62,0,0,1,24.189,294.582Z" transform="translate(0.014 8.329)" fill="none" stroke="#263238" stroke-miterlimit="10" stroke-width="1"/>
            <path id="Trazado_873592" data-name="Trazado 873592" d="M34.19,313.68c4.152.189,7.547,0,7.737-.755a4.071,4.071,0,0,0,.21-1.983c-5.15.222-18.5.738-22.286.285C15.535,310.709,3.02,306.091.913,305.3c-.12.483-.227.9-.31,1.205-.567,2.075,1.32,2.642,2.453,3.208s10.755,3.208,13.774,4.152,13.209-.377,17.359-.189" transform="translate(0.014 8.666)" fill="#fff"/>
            <path id="Trazado_873593" data-name="Trazado 873593" d="M34.19,313.68c4.152.189,7.547,0,7.737-.755a4.071,4.071,0,0,0,.21-1.983c-5.15.222-18.5.738-22.286.285C15.535,310.709,3.02,306.091.913,305.3c-.12.483-.227.9-.31,1.205-.567,2.075,1.32,2.642,2.453,3.208s10.755,3.208,13.774,4.152S30.039,313.492,34.19,313.68Z" transform="translate(0.014 8.666)" fill="none" stroke="#263238" stroke-miterlimit="10" stroke-width="1"/>
            <path id="Trazado_873594" data-name="Trazado 873594" d="M16,167.3l5.341,64.729L4.747,291.806l-2.369,9.48s1.843,1.581,6.846,1.317,15.01-2.634,15.01-2.634a8.707,8.707,0,0,0,1.053-4.477c-.263-2.106-1.316-2.9-1.316-3.687s22.12-59.776,22.12-59.776L48.2,197.8l15.01,38.183,9.743,58.986s.527,2.9,1.316,2.634,13.956-5,13.956-5l5,.528s.527-7.637-1.581-9.217a10.169,10.169,0,0,1-2.9-3.159l-2.107-56.089L66.1,166.988l-1.843-7.109-47.4,2.633Z" transform="translate(0.068 4.538)" fill="#263238"/>
            <path id="Trazado_873595" data-name="Trazado 873595" d="M16,167.3l5.341,64.729L4.747,291.806l-2.369,9.48s1.843,1.581,6.846,1.317,15.01-2.634,15.01-2.634a8.707,8.707,0,0,0,1.053-4.477c-.263-2.106-1.316-2.9-1.316-3.687s22.12-59.776,22.12-59.776L48.2,197.8l15.01,38.183,9.743,58.986s.527,2.9,1.316,2.634,13.956-5,13.956-5l5,.528s.527-7.637-1.581-9.217a10.169,10.169,0,0,1-2.9-3.159l-2.107-56.089L66.1,166.988l-1.843-7.109-47.4,2.633Z" transform="translate(0.068 4.538)" fill="none" stroke="#263238" stroke-miterlimit="10" stroke-width="1"/>
            <path id="Trazado_873596" data-name="Trazado 873596" d="M15.62,167.234l.425,3.531,49.682-3.845-2.135-4.636Z" transform="translate(0.443 4.607)" fill="#92e3a9"/>
            <path id="Trazado_873597" data-name="Trazado 873597" d="M15.62,167.234l.425,3.531,49.682-3.845-2.135-4.636Z" transform="translate(0.443 4.607)" fill="none" stroke="#263238" stroke-miterlimit="10" stroke-width="1"/>
            <path id="Trazado_873598" data-name="Trazado 873598" d="M10.309,88.8s-3.021,10.24-2.686,14.939,6.211,41.8,6.211,41.8l2.182,14.268s-1.679,4.363-1.511,5.371-.169,3.693,1.342,4.363,14.268-.168,27.361-.5,18.128-.839,19.807-1.511,3.693-3.021,3.358-4.868a37.786,37.786,0,0,0-1.679-5.2s-.671-44.817-1.678-51.7S60.833,89.475,57.309,85.95s-9.4-5.035-9.4-5.035l-4.7,8.728S27.094,83.1,21.22,82.426,10.309,88.8,10.309,88.8" transform="translate(0.216 2.297)" fill="#dfbba0"/>
            <path id="Trazado_873599" data-name="Trazado 873599" d="M10.309,88.8s-3.021,10.24-2.686,14.939,6.211,41.8,6.211,41.8l2.182,14.268s-1.679,4.363-1.511,5.371-.169,3.693,1.342,4.363,14.268-.168,27.361-.5,18.128-.839,19.807-1.511,3.693-3.021,3.358-4.868a37.786,37.786,0,0,0-1.679-5.2s-.671-44.817-1.678-51.7S60.833,89.475,57.309,85.95s-9.4-5.035-9.4-5.035l-4.7,8.728S27.094,83.1,21.22,82.426,10.309,88.8,10.309,88.8Z" transform="translate(0.216 2.297)" fill="none" stroke="#263238" stroke-miterlimit="10" stroke-width="1"/>
            <path id="Trazado_873600" data-name="Trazado 873600" d="M19.946,120.375a48.906,48.906,0,0,1-4.86,1.337" transform="translate(0.428 3.417)" fill="none" stroke="#263238" stroke-miterlimit="10" stroke-width="1"/>
            <path id="Trazado_873601" data-name="Trazado 873601" d="M34.605,115.543s-6.258,2.19-11.825,4" transform="translate(0.647 3.28)" fill="none" stroke="#263238" stroke-miterlimit="10" stroke-width="1"/>
            <path id="Trazado_873602" data-name="Trazado 873602" d="M19.134,132.3a22.008,22.008,0,0,1-2.715,1.682" transform="translate(0.466 3.755)" fill="none" stroke="#263238" stroke-miterlimit="10" stroke-width="1"/>
            <path id="Trazado_873603" data-name="Trazado 873603" d="M36.277,117.409s-7.939,7.939-14.433,13.143" transform="translate(0.62 3.333)" fill="none" stroke="#263238" stroke-miterlimit="10" stroke-width="1"/>
            <path id="Trazado_873604" data-name="Trazado 873604" d="M45.574,98.648s-13.6-7.218-20.143-9.232-8.9-2.35-10.407-2.015-7.385,6.378-7.889,4.7S8.981,79.68,9.652,77.33s10.911-5.2,13.765-6.043,17.121,4.7,20.311,5.706,6.21,4.7,6.21,7.218-4.364,14.435-4.364,14.435" transform="translate(0.201 2.021)" fill="#dfbba0"/>
            <path id="Trazado_873605" data-name="Trazado 873605" d="M45.574,98.648s-13.6-7.218-20.143-9.232-8.9-2.35-10.407-2.015-7.385,6.378-7.889,4.7S8.981,79.68,9.652,77.33s10.911-5.2,13.765-6.043,17.121,4.7,20.311,5.706,6.21,4.7,6.21,7.218S45.574,98.648,45.574,98.648Z" transform="translate(0.201 2.021)" fill="none" stroke="#263238" stroke-miterlimit="10" stroke-width="1"/>
            <path id="Trazado_873606" data-name="Trazado 873606" d="M10.821,80.661s2.742-2.194,4.386-1.1,29.3,16.676,29.3,16.676l1.4-14.484" transform="translate(0.307 2.25)" fill="none" stroke="#263238" stroke-miterlimit="10" stroke-width="1"/>
            <path id="Trazado_873607" data-name="Trazado 873607" d="M49.629,37.8s2.386,7.158,2.386,8.982-.842,4.773-.281,5.895,3.929,6.316,3.369,7.159-2.667,3.929-2.667,3.929-.562,10.527-1.123,11.649-4.211.983-5.895.983H41.91S45,97.166,44.3,97.446s-20.771-20.21-20.771-20.21l.7-15.018S17.208,51.833,18.331,47.2,30.4,38.921,36.3,37.377s13.333.421,13.333.421" transform="translate(0.517 1.044)" fill="#fff"/>
            <path id="Trazado_873608" data-name="Trazado 873608" d="M49.629,37.8s2.386,7.158,2.386,8.982-.842,4.773-.281,5.895,3.929,6.316,3.369,7.159-2.667,3.929-2.667,3.929-.562,10.527-1.123,11.649-4.211.983-5.895.983H41.91S45,97.166,44.3,97.446s-20.771-20.21-20.771-20.21l.7-15.018S17.208,51.833,18.331,47.2,30.4,38.921,36.3,37.377,49.629,37.8,49.629,37.8Z" transform="translate(0.517 1.044)" fill="none" stroke="#263238" stroke-miterlimit="10" stroke-width="1"/>
            <path id="Trazado_873609" data-name="Trazado 873609" d="M47.3,53.189c.2,1.066-.1,2.018-.676,2.125s-1.2-.673-1.394-1.739.1-2.019.676-2.125,1.2.673,1.394,1.739" transform="translate(1.282 1.46)" fill="#263238"/>
            <path id="Trazado_873610" data-name="Trazado 873610" d="M43.576,49.554a4.7,4.7,0,0,1,5.052-1.4" transform="translate(1.237 1.359)" fill="none" stroke="#263238" stroke-miterlimit="10" stroke-width="1"/>
            <path id="Trazado_873611" data-name="Trazado 873611" d="M41.528,60.7a9.412,9.412,0,0,0,5.895,3.649" transform="translate(1.179 1.723)" fill="none" stroke="#263238" stroke-miterlimit="10" stroke-width="1"/>
            <path id="Trazado_873612" data-name="Trazado 873612" d="M27,57.155s3.649.562,3.649-.421S30.23,52.1,30.23,52.1,35.142,48.174,35,46.348s-2.386-3.368-2.245-3.929,6.736-2.526,12.069-2.526,6.456,1.122,8.141-1.4,2.947-5.895-.281-9.4S47.914,27.12,46.229,26.7s-6.6-5.333-9.965-4.21a5.532,5.532,0,0,0-3.789,4.21s-6.316-4.21-8.983-1.965a8.044,8.044,0,0,0-2.947,4.772,7.2,7.2,0,0,0-5.895,3.93c-1.824,3.79-1.683,5.895-1.683,5.895S9.458,41.437,9.6,44.524a9.038,9.038,0,0,0,1.123,4.491s-2.947,1.264,0,5.755,4.07,5.052,4.07,5.052-3.369.422,0,3.228,9.543,3.929,10.947,4.632,1.684-3.93,1.684-6.737A11.016,11.016,0,0,0,27,57.155" transform="translate(0.267 0.634)" fill="#263238"/>
            <path id="Trazado_873613" data-name="Trazado 873613" d="M27,57.155s3.649.562,3.649-.421S30.23,52.1,30.23,52.1,35.142,48.174,35,46.348s-2.386-3.368-2.245-3.929,6.736-2.526,12.069-2.526,6.456,1.122,8.141-1.4,2.947-5.895-.281-9.4S47.914,27.12,46.229,26.7s-6.6-5.333-9.965-4.21a5.532,5.532,0,0,0-3.789,4.21s-6.316-4.21-8.983-1.965a8.044,8.044,0,0,0-2.947,4.772,7.2,7.2,0,0,0-5.895,3.93c-1.824,3.79-1.683,5.895-1.683,5.895S9.458,41.437,9.6,44.524a9.038,9.038,0,0,0,1.123,4.491s-2.947,1.264,0,5.755,4.07,5.052,4.07,5.052-3.369.422,0,3.228,9.543,3.929,10.947,4.632,1.684-3.93,1.684-6.737A11.016,11.016,0,0,0,27,57.155Z" transform="translate(0.267 0.634)" fill="none" stroke="#263238" stroke-miterlimit="10" stroke-width="1"/>
            <path id="Trazado_873614" data-name="Trazado 873614" d="M28.882,57.657s-3.649-4.772-5.614-3.228-.7,8.281,1.4,10.386,5.192-1.544,5.192-1.544" transform="translate(0.633 1.536)" fill="#fff"/>
            <path id="Trazado_873615" data-name="Trazado 873615" d="M28.882,57.657s-3.649-4.772-5.614-3.228-.7,8.281,1.4,10.386,5.192-1.544,5.192-1.544" transform="translate(0.633 1.536)" fill="none" stroke="#263238" stroke-miterlimit="10" stroke-width="1"/>
            <path id="Trazado_873616" data-name="Trazado 873616" d="M41.423,75.3l-6.052-.1,7.05,7.218Z" transform="translate(1.004 2.135)" fill="#263238"/>
            <path id="Trazado_873617" data-name="Trazado 873617" d="M41.423,75.3l-6.052-.1,7.05,7.218Z" transform="translate(1.004 2.135)" fill="none" stroke="#263238" stroke-miterlimit="10" stroke-width="1"/>
            <path id="Trazado_873618" data-name="Trazado 873618" d="M27.189,93.449l28.776,13.26,23.722-31.96s-.335-8.057,0-9.232,3.19-5.371,3.694-6.043,1.511,0,1.678,1.007-.5,1.847-.839,2.686-1.008,2.685-1.008,2.685l.839,2.519,8.9-7.051s2.015-2.685,2.686-1.511a2.071,2.071,0,0,1-.137,2.261l-4.06,5.461,2.686.168,6.546-5.54s1.175-.5,1.343,1.008a3.025,3.025,0,0,1-.943,2.547l-4.014,3.746-2.6,1.6,7.722-3.189s1.007,1.007.671,1.511l-8.393,6.547,6.21-1.008s.84,1.175.336,1.847L83.884,81.631s-23.89,44.885-24.226,45.556-3.862,2.182-6.547,1.343-37-15.777-37-15.777" transform="translate(0.457 1.681)" fill="#dfbba0"/>
            <path id="Trazado_873619" data-name="Trazado 873619" d="M27.189,93.449l28.776,13.26,23.722-31.96s-.335-8.057,0-9.232,3.19-5.371,3.694-6.043,1.511,0,1.678,1.007-.5,1.847-.839,2.686-1.008,2.685-1.008,2.685l.839,2.519,8.9-7.051s2.015-2.685,2.686-1.511a2.071,2.071,0,0,1-.137,2.261l-4.06,5.461,2.686.168,6.546-5.54s1.175-.5,1.343,1.008a3.025,3.025,0,0,1-.943,2.547l-4.014,3.746-2.6,1.6,7.722-3.189s1.007,1.007.671,1.511l-8.393,6.547,6.21-1.008s.84,1.175.336,1.847L83.884,81.631s-23.89,44.885-24.226,45.556-3.862,2.182-6.547,1.343-37-15.777-37-15.777" transform="translate(0.457 1.681)" fill="none" stroke="#263238" stroke-miterlimit="10" stroke-width="1"/>
            <path id="Trazado_873620" data-name="Trazado 873620" d="M70.061,105.221c6.2-11.654,12.554-23.59,12.554-23.59l17.122-4.868c.5-.672-.336-1.846-.336-1.846l-6.21,1.007,8.393-6.547c.336-.5-.672-1.511-.672-1.511l-7.721,3.19,2.6-1.6L99.8,65.715a3.028,3.028,0,0,0,.943-2.548c-.168-1.511-1.343-1.007-1.343-1.007L92.854,67.7l-2.686-.168,4.06-5.461a2.069,2.069,0,0,0,.137-2.26c-.672-1.175-2.686,1.511-2.686,1.511l-8.9,7.05-.839-2.517s.672-1.847,1.007-2.686,1.008-1.678.84-2.685-1.175-1.679-1.679-1.008-3.357,4.868-3.693,6.043,0,9.232,0,9.232l-17.6,23.717Z" transform="translate(1.726 1.681)" fill="#fff"/>
            <path id="Trazado_873621" data-name="Trazado 873621" d="M70.061,105.221c6.2-11.654,12.554-23.59,12.554-23.59l17.122-4.868c.5-.672-.336-1.846-.336-1.846l-6.21,1.007,8.393-6.547c.336-.5-.672-1.511-.672-1.511l-7.721,3.19,2.6-1.6L99.8,65.715a3.028,3.028,0,0,0,.943-2.548c-.168-1.511-1.343-1.007-1.343-1.007L92.854,67.7l-2.686-.168,4.06-5.461a2.069,2.069,0,0,0,.137-2.26c-.672-1.175-2.686,1.511-2.686,1.511l-8.9,7.05-.839-2.517s.672-1.847,1.007-2.686,1.008-1.678.84-2.685-1.175-1.679-1.679-1.008-3.357,4.868-3.693,6.043,0,9.232,0,9.232l-17.6,23.717Z" transform="translate(1.726 1.681)" fill="none" stroke="#263238" stroke-miterlimit="10" stroke-width="1"/>
          </g>
        </g>
      </g>
    </g>
  </g>
</svg>
