<svg xmlns="http://www.w3.org/2000/svg" xmlns:xlink="http://www.w3.org/1999/xlink" width="715" height="273.177" viewBox="0 0 715 273.177">
  <defs>
    <clipPath id="clip-path">
      <rect id="Rectángulo_401575" data-name="Rectángulo 401575" width="202.174" height="272.354" fill="none"/>
    </clipPath>
    <clipPath id="clip-path-2">
      <rect id="Rectángulo_401581" data-name="Rectángulo 401581" width="236.281" height="228.726" fill="none"/>
    </clipPath>
    <clipPath id="clip-path-4">
      <rect id="Rectángulo_401579" data-name="Rectángulo 401579" width="127.627" height="35.499" fill="none"/>
    </clipPath>
    <clipPath id="clip-path-5">
      <rect id="Rectángulo_401578" data-name="Rectángulo 401578" width="208.937" height="167.224" fill="none"/>
    </clipPath>
    <clipPath id="clip-path-7">
      <rect id="Rectángulo_401576" data-name="Rectángulo 401576" width="159.906" height="161.444" transform="translate(47.298 0.893)" fill="none"/>
    </clipPath>
    <clipPath id="clip-path-11">
      <rect id="Rectángulo_401582" data-name="Rectángulo 401582" width="73.42" height="67.766" transform="translate(0 0)" fill="none"/>
    </clipPath>
    <clipPath id="clip-path-12">
      <rect id="Rectángulo_401583" data-name="Rectángulo 401583" width="97.078" height="79.365" fill="none"/>
    </clipPath>
    <clipPath id="clip-path-14">
      <rect id="Rectángulo_401584" data-name="Rectángulo 401584" width="32.891" height="18.009" fill="none"/>
    </clipPath>
  </defs>
  <g id="_38" data-name="38" transform="translate(-180 -1088)">
    <rect id="Rectángulo_401339" data-name="Rectángulo 401339" width="715" height="235.884" rx="16" transform="translate(180 1110)" fill="#22cac5"/>
    <path id="Trazado_873608" data-name="Trazado 873608" d="M96.685,0A33.754,33.754,0,0,1,62.97,33.715,33.754,33.754,0,0,1,29.253,0H0A63.04,63.04,0,0,0,62.97,62.969,63.04,63.04,0,0,0,125.938,0Z" transform="translate(190.527 1088)" fill="#fdb641"/>
    <path id="Trazado_873609" data-name="Trazado 873609" d="M17.251,34.5h0V26.488a9.237,9.237,0,1,1,9.237-9.237H34.5A17.251,17.251,0,1,0,17.251,34.5" transform="translate(837.989 1167.168) rotate(-90)" fill="#201144"/>
    <path id="Trazado_873611" data-name="Trazado 873611" d="M29.765,64.07A34.344,34.344,0,0,1,64.07,29.765V0A64.143,64.143,0,0,0,0,64.07Z" transform="translate(305.527 1292.022)" fill="#fff"/>
    <g id="Grupo_1100161" data-name="Grupo 1100161" transform="translate(635.815 1088.822)">
      <g id="Grupo_1100160" data-name="Grupo 1100160" clip-path="url(#clip-path)">
        <path id="Trazado_874003" data-name="Trazado 874003" d="M6.527,220.453l2.745.857a7.181,7.181,0,0,0,8.968-4.7l62.62-200.6a7.181,7.181,0,0,0-4.7-8.968l-2.745-.857a7.181,7.181,0,0,0-8.968,4.7l-62.62,200.6a7.181,7.181,0,0,0,4.7,8.968" transform="translate(-0.234 -0.914)" fill="#233863"/>
        <path id="Trazado_874004" data-name="Trazado 874004" d="M11.167,222.669a8.384,8.384,0,0,1-2.506-.384l-2.745-.857A8.446,8.446,0,0,1,.385,210.874L63,10.275A8.446,8.446,0,0,1,73.558,4.744L76.3,5.6a8.435,8.435,0,0,1,5.532,10.553l-62.621,200.6a8.465,8.465,0,0,1-8.048,5.915" transform="translate(0 -0.68)" fill="#233863"/>
        <path id="Trazado_874005" data-name="Trazado 874005" d="M115.6,266.667,22.848,237.712a18.974,18.974,0,0,1-12.459-23.766L72.549,14.822A18.974,18.974,0,0,1,96.315,2.363L189.07,31.318a18.974,18.974,0,0,1,12.458,23.767L139.369,254.208A18.976,18.976,0,0,1,115.6,266.667" transform="translate(-1.485 -0.233)" fill="#2f4770"/>
        <path id="Trazado_874006" data-name="Trazado 874006" d="M121.009,268.565a20.15,20.15,0,0,1-6.019-.922L22.237,238.689A20.24,20.24,0,0,1,8.947,213.336L71.105,14.212A20.261,20.261,0,0,1,96.459.923l92.754,28.954A20.263,20.263,0,0,1,202.5,55.229L140.343,254.353a20.279,20.279,0,0,1-19.334,14.211m-5.264-3.338a17.708,17.708,0,0,0,22.18-11.627l62.16-199.124a17.729,17.729,0,0,0-11.627-22.181L95.7,3.339A17.728,17.728,0,0,0,73.523,14.967L11.364,214.09a17.708,17.708,0,0,0,11.627,22.181Z" transform="translate(-1.25 0)" fill="#233863"/>
        <rect id="Rectángulo_401573" data-name="Rectángulo 401573" width="83.122" height="113.426" transform="translate(55.711 100.168) rotate(-72.663)" fill="#fff"/>
        <path id="Trazado_874007" data-name="Trazado 874007" d="M174.042,138.844a1.258,1.258,0,0,1-.378-.057L65.39,104.988a1.267,1.267,0,0,1-.831-1.585L89.327,24.057a1.266,1.266,0,0,1,1.586-.831l108.274,33.8a1.267,1.267,0,0,1,.831,1.585l-24.769,79.347a1.266,1.266,0,0,1-1.208.888m-106.688-35.9,105.856,33.044,24.014-76.928L91.368,26.019Z" transform="translate(-10.056 -3.612)" fill="#233863"/>
        <path id="Trazado_874008" data-name="Trazado 874008" d="M194.038,42.491a.84.84,0,0,1-.252-.039L118.21,18.859a.844.844,0,0,1,.5-1.611L194.289,40.84a.844.844,0,0,1-.252,1.65" transform="translate(-18.337 -2.683)" fill="#fff"/>
        <path id="Trazado_874009" data-name="Trazado 874009" d="M114.988,47.894,98.133,42.632a1,1,0,0,1-.655-1.249l.975-3.122a1,1,0,0,1,1.249-.655l16.856,5.262a1,1,0,0,1,.655,1.249l-.975,3.122a1,1,0,0,1-1.249.655" transform="translate(-15.19 -5.856)" fill="#ffb44f"/>
        <path id="Trazado_874010" data-name="Trazado 874010" d="M115.132,48.628a1.848,1.848,0,0,1-.551-.084L97.726,43.281a1.844,1.844,0,0,1-1.21-2.306l.976-3.123A1.841,1.841,0,0,1,99.8,36.643L116.652,41.9a1.84,1.84,0,0,1,1.209,2.309l-.973,3.121a1.846,1.846,0,0,1-1.756,1.293m-.048-1.7a.157.157,0,0,0,.192-.1l.973-3.122a.17.17,0,0,0-.1-.192L99.294,38.255a.178.178,0,0,0-.192.1l-.976,3.123a.155.155,0,0,0,.1.192Z" transform="translate(-15.034 -5.7)" fill="#233863"/>
        <path id="Trazado_874011" data-name="Trazado 874011" d="M144.666,57.159,127.811,51.9a1,1,0,0,1-.655-1.249l.975-3.122a1,1,0,0,1,1.249-.655l16.856,5.262a1,1,0,0,1,.655,1.249l-.975,3.122a1,1,0,0,1-1.249.655" transform="translate(-19.817 -7.3)" fill="#ffb44f"/>
        <path id="Trazado_874012" data-name="Trazado 874012" d="M144.81,57.893a1.848,1.848,0,0,1-.551-.084L127.4,52.546a1.844,1.844,0,0,1-1.21-2.306l.974-3.122a1.844,1.844,0,0,1,2.308-1.21L146.33,51.17a1.841,1.841,0,0,1,1.21,2.307l-.975,3.123a1.842,1.842,0,0,1-1.755,1.293m-.048-1.7a.171.171,0,0,0,.192-.1l.976-3.123a.172.172,0,0,0-.1-.192L128.972,47.52a.176.176,0,0,0-.192.1l-.974,3.123a.153.153,0,0,0,.1.192Z" transform="translate(-19.661 -7.144)" fill="#233863"/>
        <path id="Trazado_874013" data-name="Trazado 874013" d="M176.575,67.119,159.72,61.857a1,1,0,0,1-.655-1.249l.975-3.122a1,1,0,0,1,1.249-.655l16.856,5.262a1,1,0,0,1,.655,1.249l-.975,3.122a1,1,0,0,1-1.249.655" transform="translate(-24.792 -8.853)" fill="#ffb44f"/>
        <path id="Trazado_874014" data-name="Trazado 874014" d="M176.716,67.853a1.818,1.818,0,0,1-.548-.084l-16.856-5.262A1.844,1.844,0,0,1,158.1,60.2l.974-3.122a1.843,1.843,0,0,1,2.308-1.21l16.855,5.261a1.845,1.845,0,0,1,1.21,2.307l-.976,3.123a1.844,1.844,0,0,1-1.758,1.292m-.045-1.695a.155.155,0,0,0,.192-.1l.975-3.123a.154.154,0,0,0-.1-.192l-16.856-5.262a.174.174,0,0,0-.192.1l-.974,3.123a.153.153,0,0,0,.1.192Z" transform="translate(-24.636 -8.697)" fill="#233863"/>
        <path id="Trazado_874015" data-name="Trazado 874015" d="M206.619,76.5l-16.856-5.262a1,1,0,0,1-.655-1.249l.975-3.122a1,1,0,0,1,1.249-.655l16.856,5.262a1,1,0,0,1,.655,1.249l-.975,3.122a1,1,0,0,1-1.249.655" transform="translate(-29.476 -10.315)" fill="#ffb44f"/>
        <path id="Trazado_874016" data-name="Trazado 874016" d="M206.763,77.232a1.848,1.848,0,0,1-.551-.084l-16.856-5.261a1.842,1.842,0,0,1-1.209-2.309l.973-3.121a1.845,1.845,0,0,1,2.308-1.21l16.855,5.262a1.844,1.844,0,0,1,1.21,2.306l-.976,3.123a1.842,1.842,0,0,1-1.755,1.293m-.048-1.7a.154.154,0,0,0,.192-.1l.976-3.123a.154.154,0,0,0-.1-.192l-16.855-5.262a.152.152,0,0,0-.192.1l-.974,3.123a.172.172,0,0,0,.1.192Z" transform="translate(-29.32 -10.159)" fill="#233863"/>
        <rect id="Rectángulo_401574" data-name="Rectángulo 401574" width="20.425" height="110.338" transform="matrix(0.298, -0.955, 0.955, 0.298, 49.525, 125.167)" fill="#233863"/>
        <path id="Trazado_874017" data-name="Trazado 874017" d="M163.764,178.6a1.259,1.259,0,0,1-.377-.057L58.062,145.66a1.267,1.267,0,0,1-.831-1.586l6.086-19.5a1.267,1.267,0,0,1,.621-.744,1.254,1.254,0,0,1,.965-.087l105.326,32.878a1.266,1.266,0,0,1,.831,1.586l-6.086,19.5a1.264,1.264,0,0,1-1.209.888M60.025,143.619l102.908,32.125,5.331-17.08L65.356,126.54Z" transform="translate(-8.914 -19.284)" fill="#233863"/>
        <path id="Trazado_874018" data-name="Trazado 874018" d="M96.8,151.478a2.114,2.114,0,0,1-.628-.1l-18.687-5.834a2.113,2.113,0,0,1-1.384-2.643l1.629-5.22a2.11,2.11,0,0,1,2.643-1.385l18.687,5.834a2.111,2.111,0,0,1,1.386,2.643L98.813,150a2.114,2.114,0,0,1-2.017,1.481m-.376-.9a1.271,1.271,0,0,0,1.586-.831l1.629-5.219a1.267,1.267,0,0,0-.832-1.586l-18.686-5.834a1.265,1.265,0,0,0-1.585.831L76.9,143.157a1.267,1.267,0,0,0,.831,1.586Z" transform="translate(-11.849 -21.235)" fill="#fff"/>
        <path id="Trazado_874019" data-name="Trazado 874019" d="M131.018,162.161a2.138,2.138,0,0,1-.631-.1L111.7,156.232a2.112,2.112,0,0,1-1.384-2.645l1.629-5.218a2.11,2.11,0,0,1,2.643-1.386l18.687,5.834a2.112,2.112,0,0,1,1.386,2.644l-1.63,5.218a2.114,2.114,0,0,1-2.012,1.482m-.379-.9a1.266,1.266,0,0,0,1.585-.831l1.63-5.219a1.266,1.266,0,0,0-.832-1.585l-18.686-5.834a1.266,1.266,0,0,0-1.585.832l-1.629,5.219a1.265,1.265,0,0,0,.831,1.586Z" transform="translate(-17.184 -22.9)" fill="#fff"/>
        <path id="Trazado_874020" data-name="Trazado 874020" d="M165.618,172.962a2.139,2.139,0,0,1-.631-.1L146.3,167.033a2.115,2.115,0,0,1-1.385-2.645l1.629-5.218a2.112,2.112,0,0,1,2.644-1.386l18.687,5.834a2.112,2.112,0,0,1,1.386,2.644l-1.63,5.219a2.115,2.115,0,0,1-2.012,1.481m-.379-.9a1.267,1.267,0,0,0,1.585-.831l1.63-5.219a1.266,1.266,0,0,0-.832-1.585l-18.686-5.834a1.265,1.265,0,0,0-1.585.831l-1.63,5.219a1.268,1.268,0,0,0,.831,1.586Z" transform="translate(-22.578 -24.584)" fill="#fff"/>
        <path id="Trazado_874021" data-name="Trazado 874021" d="M69.845,191.511l-13.4-4.183a7.18,7.18,0,0,1-4.7-8.967l2.426-7.772a7.181,7.181,0,0,1,8.968-4.7l13.4,4.183a7.18,7.18,0,0,1,4.7,8.967l-2.426,7.772a7.181,7.181,0,0,1-8.968,4.7" transform="translate(-8.017 -25.812)" fill="#5a6f8e"/>
        <path id="Trazado_874022" data-name="Trazado 874022" d="M71.739,192.869a8.411,8.411,0,0,1-2.506-.384l-13.4-4.182A8.437,8.437,0,0,1,50.3,177.749l2.426-7.772a8.435,8.435,0,0,1,10.554-5.531l13.4,4.182a8.437,8.437,0,0,1,5.532,10.554l-2.427,7.772a8.469,8.469,0,0,1-8.048,5.915M60.773,166.594a5.905,5.905,0,0,0-5.629,4.137L52.718,178.5a5.9,5.9,0,0,0,3.87,7.382l13.4,4.183A5.915,5.915,0,0,0,77.37,186.2l2.426-7.772a5.9,5.9,0,0,0-3.87-7.382l-13.4-4.182a5.879,5.879,0,0,0-1.752-.268" transform="translate(-7.782 -25.578)" fill="#233863"/>
        <path id="Trazado_874023" data-name="Trazado 874023" d="M113.232,205.055l-13.4-4.183a7.18,7.18,0,0,1-4.7-8.967l2.426-7.772a7.181,7.181,0,0,1,8.968-4.7l13.4,4.183a7.18,7.18,0,0,1,4.7,8.967l-2.426,7.772a7.181,7.181,0,0,1-8.968,4.7" transform="translate(-14.781 -27.924)" fill="#5a6f8e"/>
        <path id="Trazado_874024" data-name="Trazado 874024" d="M115.125,206.414a8.376,8.376,0,0,1-2.5-.384l-13.4-4.183a8.434,8.434,0,0,1-5.531-10.554l2.426-7.772a8.445,8.445,0,0,1,10.554-5.531l13.4,4.183a8.434,8.434,0,0,1,5.531,10.553l-2.427,7.772a8.465,8.465,0,0,1-8.048,5.916m-1.749-2.8a5.914,5.914,0,0,0,7.381-3.87l2.427-7.772a5.914,5.914,0,0,0-3.87-7.381l-13.4-4.183a5.914,5.914,0,0,0-7.382,3.87l-2.426,7.772a5.914,5.914,0,0,0,3.869,7.382Z" transform="translate(-14.547 -27.69)" fill="#233863"/>
        <path id="Trazado_874025" data-name="Trazado 874025" d="M155.968,218.4l-13.4-4.182a7.18,7.18,0,0,1-4.7-8.967l2.426-7.772a7.181,7.181,0,0,1,8.968-4.7l13.4,4.183a7.179,7.179,0,0,1,4.7,8.966l-2.426,7.773a7.179,7.179,0,0,1-8.968,4.7" transform="translate(-21.444 -30.004)" fill="#5a6f8e"/>
        <path id="Trazado_874026" data-name="Trazado 874026" d="M157.862,219.754a8.374,8.374,0,0,1-2.505-.384l-13.4-4.182a8.436,8.436,0,0,1-5.532-10.554l2.426-7.772A8.445,8.445,0,0,1,149.4,191.33l13.4,4.182a8.436,8.436,0,0,1,5.531,10.554l-2.425,7.772a8.445,8.445,0,0,1-8.048,5.915M146.9,193.479a5.933,5.933,0,0,0-5.635,4.137l-2.426,7.772a5.9,5.9,0,0,0,3.87,7.382l13.4,4.182a5.9,5.9,0,0,0,7.382-3.869l2.427-7.772a5.9,5.9,0,0,0-3.871-7.382l-13.4-4.183a5.856,5.856,0,0,0-1.746-.268" transform="translate(-21.21 -29.769)" fill="#233863"/>
        <path id="Trazado_874027" data-name="Trazado 874027" d="M59.24,225.484,45.84,221.3a7.18,7.18,0,0,1-4.7-8.967l2.426-7.772a7.181,7.181,0,0,1,8.968-4.7l13.4,4.183a7.18,7.18,0,0,1,4.7,8.967l-2.426,7.772a7.181,7.181,0,0,1-8.968,4.7" transform="translate(-6.363 -31.109)" fill="#5a6f8e"/>
        <path id="Trazado_874028" data-name="Trazado 874028" d="M61.133,226.842a8.4,8.4,0,0,1-2.505-.382l-13.4-4.183A8.446,8.446,0,0,1,39.7,211.722l2.427-7.772a8.431,8.431,0,0,1,10.553-5.531l13.4,4.183a8.445,8.445,0,0,1,5.531,10.554l-2.426,7.772a8.441,8.441,0,0,1-8.048,5.914m-1.75-2.8a5.9,5.9,0,0,0,7.382-3.87L69.19,212.4a5.914,5.914,0,0,0-3.869-7.381l-13.4-4.183a5.912,5.912,0,0,0-7.381,3.87l-2.427,7.772a5.914,5.914,0,0,0,3.87,7.382Z" transform="translate(-6.129 -30.875)" fill="#233863"/>
        <path id="Trazado_874029" data-name="Trazado 874029" d="M102.627,239.028l-13.4-4.183a7.18,7.18,0,0,1-4.7-8.967l2.426-7.772a7.181,7.181,0,0,1,8.968-4.7l13.4,4.183a7.18,7.18,0,0,1,4.7,8.967l-2.426,7.772a7.181,7.181,0,0,1-8.968,4.7" transform="translate(-13.128 -33.221)" fill="#5a6f8e"/>
        <path id="Trazado_874030" data-name="Trazado 874030" d="M104.521,240.385a8.4,8.4,0,0,1-2.505-.383l-13.4-4.183a8.445,8.445,0,0,1-5.531-10.554l2.426-7.772a8.435,8.435,0,0,1,10.554-5.531l13.4,4.183A8.445,8.445,0,0,1,115,226.7l-2.426,7.772a8.442,8.442,0,0,1-8.048,5.915m-1.75-2.8a5.9,5.9,0,0,0,7.382-3.87l2.426-7.772a5.914,5.914,0,0,0-3.87-7.382l-13.4-4.183a5.9,5.9,0,0,0-7.382,3.87L85.5,226.021a5.914,5.914,0,0,0,3.87,7.382Z" transform="translate(-12.893 -32.986)" fill="#233863"/>
        <path id="Trazado_874031" data-name="Trazado 874031" d="M145.363,252.368l-13.4-4.183a7.18,7.18,0,0,1-4.7-8.967l2.426-7.772a7.181,7.181,0,0,1,8.968-4.7l13.4,4.183a7.18,7.18,0,0,1,4.7,8.967l-2.426,7.772a7.181,7.181,0,0,1-8.968,4.7" transform="translate(-19.79 -35.3)" fill="#5a6f8e"/>
        <path id="Trazado_874032" data-name="Trazado 874032" d="M147.256,253.726a8.4,8.4,0,0,1-2.505-.383l-13.4-4.183a8.436,8.436,0,0,1-5.531-10.554l2.427-7.772A8.432,8.432,0,0,1,138.8,225.3l13.4,4.183a8.444,8.444,0,0,1,5.53,10.553l-2.426,7.772a8.442,8.442,0,0,1-8.048,5.915m-1.75-2.8a5.9,5.9,0,0,0,7.382-3.87l2.426-7.772a5.914,5.914,0,0,0-3.869-7.381l-13.4-4.183a5.914,5.914,0,0,0-7.381,3.87l-2.427,7.772a5.9,5.9,0,0,0,3.87,7.382Z" transform="translate(-19.556 -35.066)" fill="#233863"/>
        <path id="Trazado_874033" data-name="Trazado 874033" d="M48.635,259.457l-13.4-4.183a7.18,7.18,0,0,1-4.7-8.967l2.426-7.772a7.181,7.181,0,0,1,8.968-4.7l13.4,4.183a7.18,7.18,0,0,1,4.7,8.967L57.6,254.757a7.181,7.181,0,0,1-8.968,4.7" transform="translate(-4.71 -36.406)" fill="#3aaed5"/>
        <path id="Trazado_874034" data-name="Trazado 874034" d="M50.528,260.815a8.379,8.379,0,0,1-2.505-.384l-13.4-4.183a8.445,8.445,0,0,1-5.531-10.553l2.426-7.772a8.445,8.445,0,0,1,10.554-5.531l13.4,4.183A8.434,8.434,0,0,1,61,247.128L58.576,254.9a8.465,8.465,0,0,1-8.048,5.915m-1.75-2.8a5.914,5.914,0,0,0,7.382-3.87l2.426-7.772a5.914,5.914,0,0,0-3.869-7.382l-13.4-4.183a5.914,5.914,0,0,0-7.382,3.87l-2.426,7.772a5.912,5.912,0,0,0,3.869,7.381Z" transform="translate(-4.476 -36.171)" fill="#233863"/>
        <path id="Trazado_874035" data-name="Trazado 874035" d="M92.022,273l-13.4-4.183a7.18,7.18,0,0,1-4.7-8.967l2.426-7.772a7.181,7.181,0,0,1,8.968-4.7l13.4,4.183a7.18,7.18,0,0,1,4.7,8.967L100.99,268.3a7.181,7.181,0,0,1-8.968,4.7" transform="translate(-11.474 -38.517)" fill="#ffb44f"/>
        <path id="Trazado_874036" data-name="Trazado 874036" d="M93.915,274.36a8.373,8.373,0,0,1-2.5-.385l-13.4-4.183a8.444,8.444,0,0,1-5.532-10.553l2.427-7.772a8.443,8.443,0,0,1,10.553-5.531l13.4,4.182a8.436,8.436,0,0,1,5.531,10.554l-2.426,7.771a8.469,8.469,0,0,1-8.049,5.917m-10.96-26.276a5.935,5.935,0,0,0-5.633,4.137l-2.427,7.772a5.913,5.913,0,0,0,3.87,7.382l13.4,4.183a5.916,5.916,0,0,0,7.382-3.869l2.426-7.772a5.9,5.9,0,0,0-3.869-7.381l-13.4-4.184a5.885,5.885,0,0,0-1.747-.268" transform="translate(-11.24 -38.283)" fill="#233863"/>
        <path id="Trazado_874037" data-name="Trazado 874037" d="M134.758,286.341l-13.4-4.183a7.18,7.18,0,0,1-4.7-8.967l2.426-7.772a7.181,7.181,0,0,1,8.968-4.7l13.4,4.183a7.18,7.18,0,0,1,4.7,8.967l-2.426,7.772a7.181,7.181,0,0,1-8.968,4.7" transform="translate(-18.137 -40.597)" fill="#3d85fd"/>
        <path id="Trazado_874038" data-name="Trazado 874038" d="M136.651,287.7a8.379,8.379,0,0,1-2.505-.384l-13.4-4.183a8.446,8.446,0,0,1-5.531-10.554l2.426-7.772a8.445,8.445,0,0,1,10.554-5.531l13.4,4.183a8.445,8.445,0,0,1,5.531,10.553l-2.426,7.772a8.465,8.465,0,0,1-8.048,5.915m-1.75-2.8a5.914,5.914,0,0,0,7.382-3.87l2.426-7.772a5.913,5.913,0,0,0-3.869-7.382l-13.4-4.183a5.914,5.914,0,0,0-7.382,3.87l-2.426,7.772a5.913,5.913,0,0,0,3.869,7.382Z" transform="translate(-17.903 -40.363)" fill="#233863"/>
        <path id="Trazado_874039" data-name="Trazado 874039" d="M115.621,313.462l-92.583-28.9a5.685,5.685,0,1,1,3.388-10.854l92.583,28.9a5.685,5.685,0,1,1-3.388,10.854" transform="translate(-2.97 -42.632)" fill="#233863"/>
        <path id="Trazado_874040" data-name="Trazado 874040" d="M117.077,314.753a6.943,6.943,0,0,1-2.068-.317l-92.582-28.9a6.952,6.952,0,0,1,4.144-13.272l92.584,28.9a6.952,6.952,0,0,1-2.077,13.587m-1.312-2.733a4.419,4.419,0,0,0,2.633-8.438l-92.584-28.9a4.419,4.419,0,0,0-2.632,8.438Z" transform="translate(-2.736 -42.398)" fill="#233863"/>
        <path id="Trazado_874041" data-name="Trazado 874041" d="M130.963,267.838a2.013,2.013,0,1,1-2.012-2.012,2.012,2.012,0,0,1,2.012,2.012" transform="translate(-19.79 -41.444)" fill="#fff"/>
        <path id="Trazado_874042" data-name="Trazado 874042" d="M88.227,254.789a2.013,2.013,0,1,1-2.012-2.012,2.013,2.013,0,0,1,2.012,2.012" transform="translate(-13.128 -39.409)" fill="#fff"/>
        <path id="Trazado_874043" data-name="Trazado 874043" d="M43.43,240.477a2.013,2.013,0,1,1-2.012-2.012,2.012,2.012,0,0,1,2.012,2.012" transform="translate(-6.143 -37.178)" fill="#fff"/>
        <path id="Trazado_874044" data-name="Trazado 874044" d="M142.785,285.4a1.045,1.045,0,1,1-1.044-1.044,1.044,1.044,0,0,1,1.044,1.044" transform="translate(-21.935 -44.333)" fill="#fff"/>
        <path id="Trazado_874045" data-name="Trazado 874045" d="M150.047,198.033a1.345,1.345,0,1,1-1.345-1.345,1.344,1.344,0,0,1,1.345,1.345" transform="translate(-22.974 -30.665)" fill="#233863"/>
        <path id="Trazado_874046" data-name="Trazado 874046" d="M138.64,233.713a1.345,1.345,0,1,1-1.345-1.345,1.345,1.345,0,0,1,1.345,1.345" transform="translate(-21.195 -36.228)" fill="#233863"/>
        <path id="Trazado_874047" data-name="Trazado 874047" d="M188.553,140.563a3.522,3.522,0,1,1-3.522-3.522,3.522,3.522,0,0,1,3.522,3.522" transform="translate(-28.298 -21.366)" fill="#2f4770"/>
        <path id="Trazado_874048" data-name="Trazado 874048" d="M184.8,145.118a4.789,4.789,0,1,1,4.789-4.789,4.794,4.794,0,0,1-4.789,4.789m0-7.045a2.256,2.256,0,1,0,2.256,2.256,2.259,2.259,0,0,0-2.256-2.256" transform="translate(-28.064 -21.132)" fill="#233863"/>
        <path id="Trazado_874049" data-name="Trazado 874049" d="M161.478,205.32l-.4,14.535-23.406-24.887L162.42,171.42l-.4,14.532s21.253,5.771,36.538-18.374a35.525,35.525,0,0,1-13.571,31.962s-7.581,6.7-23.505,5.78" transform="translate(-21.463 -26.126)" fill="#ffb44f"/>
        <path id="Trazado_874050" data-name="Trazado 874050" d="M160.839,220.888a1.266,1.266,0,0,1-.923-.4L136.511,195.6a1.267,1.267,0,0,1,.05-1.785l24.752-23.548a1.266,1.266,0,0,1,2.138.953l-.374,13.484c4.241.777,21.239,2.392,34.174-18.039a1.267,1.267,0,0,1,2.319.471A37.135,37.135,0,0,1,185.531,200.3c-.261.234-7.679,6.633-23.058,6.108l-.369,13.247a1.266,1.266,0,0,1-1.265,1.231m-21.621-26.1,20.441,21.734.319-11.467a1.264,1.264,0,0,1,1.339-1.228c15.142.869,22.524-5.4,22.6-5.468a34.459,34.459,0,0,0,13.362-27.225C181.865,192.176,161.66,187,161.45,186.941a1.266,1.266,0,0,1-.934-1.257l.318-11.464Z" transform="translate(-21.229 -25.893)" fill="#233863"/>
      </g>
    </g>
    <g id="Grupo_1099864" data-name="Grupo 1099864" transform="translate(736.993 1287.5)">
      <path id="Trazado_873607" data-name="Trazado 873607" d="M111.865,72.855a39.009,39.009,0,0,0-78.019,0H0a72.856,72.856,0,0,1,145.711,0Z" fill="#fdb641"/>
      <path id="Trazado_873610" data-name="Trazado 873610" d="M30.059,0A34.684,34.684,0,0,0,64.7,34.644V64.7A64.776,64.776,0,0,1,0,0Z" transform="translate(12.195 7.67)" fill="#201144"/>
    </g>
    <g id="Grupo_1100175" data-name="Grupo 1100175" transform="matrix(0.985, -0.174, 0.174, 0.985, 206.038, 1129.853)">
      <g id="Grupo_1100174" data-name="Grupo 1100174" clip-path="url(#clip-path-2)">
        <g id="Grupo_1100173" data-name="Grupo 1100173">
          <g id="Grupo_1100172" data-name="Grupo 1100172" clip-path="url(#clip-path-2)">
            <path id="Trazado_874070" data-name="Trazado 874070" d="M211.749,211.208l-110.267-5.5a9.381,9.381,0,0,1-8.9-9.835l8.27-165.888a28.383,28.383,0,0,1,29.76-26.934L203.8,6.7a28.383,28.383,0,0,1,26.934,29.76l-8.226,165a10.265,10.265,0,0,1-10.763,9.741" transform="translate(5.509 0.18)" fill="#233863"/>
            <path id="Trazado_874071" data-name="Trazado 874071" d="M205.053,211.208l-110.267-5.5a9.382,9.382,0,0,1-8.9-9.835l8.27-165.888a28.383,28.383,0,0,1,29.76-26.934L197.107,6.7a28.383,28.383,0,0,1,26.934,29.76l-8.226,165a10.265,10.265,0,0,1-10.763,9.741" transform="translate(5.111 0.18)" fill="#fff"/>
            <path id="Trazado_874072" data-name="Trazado 874072" d="M205.659,212.9c-.2,0-.4,0-.594-.015L94.8,207.388a10.982,10.982,0,0,1-10.41-11.5L92.656,30A29.97,29.97,0,0,1,124.081,1.556l73.195,3.649A30,30,0,0,1,225.719,36.63l-8.226,165.006A11.87,11.87,0,0,1,205.659,212.9m-.438-3.189a8.66,8.66,0,0,0,9.1-8.232l8.226-165.006A26.824,26.824,0,0,0,197.119,8.379L123.925,4.73A26.793,26.793,0,0,0,95.831,30.156l-8.27,165.888a7.8,7.8,0,0,0,7.393,8.17Z" transform="translate(5.021 0.09)" fill="#233863"/>
            <path id="Trazado_874073" data-name="Trazado 874073" d="M196.784,6.762l0-.034L92.46,1.526c-12.007-.6-22.248,9.072-22.872,21.6l-.43,8.616L174.665,37l.429-8.616c.6-12.113,10.2-21.554,21.69-21.622" transform="translate(4.116 0.089)" fill="#fff"/>
            <path id="Trazado_874074" data-name="Trazado 874074" d="M174.754,38.677c-.025,0-.053,0-.078,0L69.17,33.415a1.588,1.588,0,0,1-1.509-1.666l.429-8.616a24.647,24.647,0,0,1,7.662-16.8A22.751,22.751,0,0,1,92.628.029l104.326,5.2a1.59,1.59,0,0,1,1.508,1.684,1.622,1.622,0,0,1-1.579,1.528c-10.72.064-19.553,8.9-20.113,20.112l-.429,8.615a1.588,1.588,0,0,1-1.587,1.51M70.915,30.32l102.33,5.1.351-7.028A24.477,24.477,0,0,1,186.424,7.887L92.471,3.2A19.618,19.618,0,0,0,77.935,8.648a21.487,21.487,0,0,0-6.671,14.645Z" transform="translate(4.027 0)" fill="#233863"/>
            <g id="Grupo_1100171" data-name="Grupo 1100171" transform="translate(73.275 1.589)" opacity="0.11">
              <g id="Grupo_1100170" data-name="Grupo 1100170">
                <g id="Grupo_1100169" data-name="Grupo 1100169" clip-path="url(#clip-path-4)">
                  <path id="Trazado_874075" data-name="Trazado 874075" d="M196.784,6.762l0-.034L92.46,1.526c-12.007-.6-22.248,9.072-22.872,21.6l-.43,8.616L174.665,37l.429-8.616c.6-12.113,10.2-21.554,21.69-21.622" transform="translate(-69.159 -1.5)" fill="#233863"/>
                </g>
              </g>
            </g>
            <line id="Línea_628" data-name="Línea 628" x2="26.593" y2="1.325" transform="translate(123.211 49.715)" fill="#fff"/>
            <path id="Trazado_874076" data-name="Trazado 874076" d="M142.973,49.927l-.079,0L116.3,48.6a1.589,1.589,0,1,1,.158-3.174l26.592,1.325a1.589,1.589,0,0,1-.077,3.176" transform="translate(6.832 2.703)" fill="#233863"/>
            <line id="Línea_629" data-name="Línea 629" x2="26.593" y2="1.325" transform="translate(183.512 53.49)" fill="#fff"/>
            <path id="Trazado_874077" data-name="Trazado 874077" d="M199.888,53.49l-.079,0-26.594-1.325a1.589,1.589,0,1,1,.158-3.174l26.593,1.325a1.589,1.589,0,0,1-.077,3.176" transform="translate(10.219 2.915)" fill="#233863"/>
            <line id="Línea_630" data-name="Línea 630" x2="52.819" y2="2.306" transform="translate(121.648 81.07)" fill="#fff"/>
            <path id="Trazado_874078" data-name="Trazado 874078" d="M167.723,80.5h-.07l-52.819-2.307a1.59,1.59,0,0,1-1.519-1.657,1.568,1.568,0,0,1,1.658-1.518l52.818,2.307a1.589,1.589,0,0,1-.068,3.176" transform="translate(6.744 4.465)" fill="#233863"/>
            <line id="Línea_631" data-name="Línea 631" x2="22.024" y2="1.231" transform="translate(120.173 98.344)" fill="#fff"/>
            <path id="Trazado_874079" data-name="Trazado 874079" d="M135.537,95.73l-.09,0L113.423,94.5a1.589,1.589,0,1,1,.178-3.173l22.024,1.232a1.589,1.589,0,0,1-.088,3.175" transform="translate(6.661 5.435)" fill="#233863"/>
            <line id="Línea_632" data-name="Línea 632" x2="37.922" y2="1.89" transform="translate(122.429 65.406)" fill="#fff"/>
            <path id="Trazado_874080" data-name="Trazado 874080" d="M153.564,65.3l-.079,0-37.922-1.891a1.589,1.589,0,1,1,.157-3.174l37.922,1.891a1.589,1.589,0,0,1-.077,3.176" transform="translate(6.788 3.585)" fill="#233863"/>
            <line id="Línea_633" data-name="Línea 633" x2="4.923" y2="0.246" transform="translate(169.544 67.754)" fill="#fff"/>
            <path id="Trazado_874081" data-name="Trazado 874081" d="M165.033,65.872l-.081,0-4.923-.246a1.59,1.59,0,0,1-1.508-1.667,1.565,1.565,0,0,1,1.668-1.508l4.921.246a1.589,1.589,0,0,1-.078,3.176" transform="translate(9.434 3.717)" fill="#233863"/>
            <path id="Trazado_874082" data-name="Trazado 874082" d="M200.262,91.146a11.119,11.119,0,0,1-3.467,7.578,10.5,10.5,0,0,1-4.9,2.71l-.089,2.109a3.826,3.826,0,0,1-1.169,2.617,3.6,3.6,0,0,1-2.659.994,3.745,3.745,0,0,1-2.665-1.221,3.785,3.785,0,0,1-1.016-2.71l.072-1.707-3.492-.149a5.511,5.511,0,0,1-3.735-1.492,4.545,4.545,0,0,1-1.214-3.45c.118-2.737,2.011-4.041,5.326-3.9l8.263.352a1.817,1.817,0,0,0,1.122-.355,1.513,1.513,0,0,0,.68-1.229,1.5,1.5,0,0,0-.764-1.517,2.728,2.728,0,0,0-.57-.226c-.174-.033-.273-.063-.273-.063l-3.945-.167a10.616,10.616,0,0,1-6.982-3.241A9.638,9.638,0,0,1,176.171,79a10.825,10.825,0,0,1,3.538-7.448,11.01,11.01,0,0,1,6.057-2.813l.06-1.406a3.638,3.638,0,0,1,1.244-2.615,3.732,3.732,0,0,1,6.265,2.935l-.053,1.256,1.332.057c3.29.14,5.158,1.8,5.041,4.542-.128,3.014-2.132,4.539-5.422,4.4l-7.711-.328a1.354,1.354,0,0,0-1.515,1.319c-.036.83.388,1.527,1.116,1.557l3.793.161a11.3,11.3,0,0,1,7.514,3.164,9.548,9.548,0,0,1,2.832,7.367" transform="translate(10.47 3.792)" fill="#233863"/>
            <path id="Trazado_874083" data-name="Trazado 874083" d="M200.262,91.146a11.119,11.119,0,0,1-3.467,7.578,10.5,10.5,0,0,1-4.9,2.71l-.089,2.109a3.826,3.826,0,0,1-1.169,2.617,3.6,3.6,0,0,1-2.659.994,3.745,3.745,0,0,1-2.665-1.221,3.785,3.785,0,0,1-1.016-2.71l.072-1.707-3.492-.149a5.511,5.511,0,0,1-3.735-1.492,4.545,4.545,0,0,1-1.214-3.45c.118-2.737,2.011-4.041,5.326-3.9l8.263.352a1.817,1.817,0,0,0,1.122-.355,1.513,1.513,0,0,0,.68-1.229,1.5,1.5,0,0,0-.764-1.517,2.728,2.728,0,0,0-.57-.226c-.174-.033-.273-.063-.273-.063l-3.945-.167a10.616,10.616,0,0,1-6.982-3.241A9.638,9.638,0,0,1,176.171,79a10.825,10.825,0,0,1,3.538-7.448,11.01,11.01,0,0,1,6.057-2.813l.06-1.406a3.638,3.638,0,0,1,1.244-2.615,3.732,3.732,0,0,1,6.265,2.935l-.053,1.256,1.332.057c3.29.14,5.158,1.8,5.041,4.542-.128,3.014-2.132,4.539-5.422,4.4l-7.711-.328a1.354,1.354,0,0,0-1.515,1.319c-.036.83.388,1.527,1.116,1.557l3.793.161a11.3,11.3,0,0,1,7.514,3.164A9.548,9.548,0,0,1,200.262,91.146Z" transform="translate(10.47 3.792)" fill="none" stroke="#fff" stroke-miterlimit="10" stroke-width="2"/>
            <line id="Línea_634" data-name="Línea 634" x2="22.58" y2="0.923" transform="translate(75.292 23.292)" fill="none" stroke="#233863" stroke-linecap="round" stroke-miterlimit="10" stroke-width="3"/>
            <path id="Trazado_874084" data-name="Trazado 874084" d="M1.5,108.442,87.592,224.084,161.4,169.132,73.685,51.3l-.759,13.1L60.808,61.527,60.089,73.96,48.621,71.237l-.694,11.989L36.675,80.556l-.68,11.767L24.743,89.652l-.617,10.658L11.792,97.381l-.746,12.877Z" transform="translate(0.089 3.053)" fill="#3aaed5"/>
            <path id="Trazado_874085" data-name="Trazado 874085" d="M87.681,225.762a1.7,1.7,0,0,1-.231-.016,1.59,1.59,0,0,1-1.044-.624L.315,109.48a1.589,1.589,0,0,1,1.571-2.51l7.768,1.478.641-11.07a1.59,1.59,0,0,1,1.954-1.455l10.488,2.491.509-8.765A1.589,1.589,0,0,1,25.2,88.194l9.407,2.233.572-9.875A1.589,1.589,0,0,1,37.132,79.1l9.407,2.233.586-10.1a1.589,1.589,0,0,1,1.953-1.455L58.7,72.065l.612-10.542a1.588,1.588,0,0,1,1.953-1.454l10.273,2.439L72.188,51.3a1.589,1.589,0,0,1,2.861-.857l87.719,117.829a1.587,1.587,0,0,1-.326,2.223L88.63,225.447a1.575,1.575,0,0,1-.948.315M5.3,110.855,88.008,221.95,159.27,168.9,75.108,55.846,74.6,64.585a1.588,1.588,0,0,1-1.954,1.454L62.376,63.6l-.611,10.541A1.591,1.591,0,0,1,59.811,75.6L50.188,73.31l-.586,10.1a1.588,1.588,0,0,1-1.953,1.454l-9.407-2.233L37.67,92.5a1.589,1.589,0,0,1-1.954,1.455l-9.407-2.233L25.8,100.49a1.591,1.591,0,0,1-1.954,1.455L13.358,99.454l-.636,10.985a1.588,1.588,0,0,1-1.883,1.471Z" transform="translate(0 2.964)" fill="#233863"/>
            <line id="Línea_635" data-name="Línea 635" y1="16.895" x2="22.694" transform="translate(27.933 109.407)" fill="#fff"/>
            <path id="Trazado_874086" data-name="Trazado 874086" d="M26.453,121.836a1.589,1.589,0,0,1-.949-2.864l22.694-16.9a1.589,1.589,0,1,1,1.9,2.549L27.4,121.521a1.587,1.587,0,0,1-.948.315" transform="translate(1.48 6.056)" fill="#fff"/>
            <line id="Línea_636" data-name="Línea 636" y1="31.06" x2="41.721" transform="translate(34.649 104.265)" fill="#fff"/>
            <path id="Trazado_874087" data-name="Trazado 874087" d="M32.793,131.146a1.589,1.589,0,0,1-.949-2.864l41.721-31.06a1.589,1.589,0,0,1,1.9,2.55L33.742,130.832a1.586,1.586,0,0,1-.948.315" transform="translate(1.857 5.768)" fill="#233863"/>
            <line id="Línea_637" data-name="Línea 637" y1="4.16" x2="5.588" transform="translate(80.883 96.746)" fill="#fff"/>
            <path id="Trazado_874088" data-name="Trazado 874088" d="M76.429,97.149a1.589,1.589,0,0,1-.949-2.864l5.588-4.16a1.589,1.589,0,0,1,1.9,2.549l-5.588,4.16a1.587,1.587,0,0,1-.948.315" transform="translate(4.454 5.345)" fill="#fff"/>
            <line id="Línea_638" data-name="Línea 638" y1="11.413" x2="15.33" transform="translate(44.317 136.898)" fill="#fff"/>
            <path id="Trazado_874089" data-name="Trazado 874089" d="M41.918,142.3a1.589,1.589,0,0,1-.95-2.864L56.3,128.023a1.589,1.589,0,1,1,1.9,2.55L42.867,141.985a1.587,1.587,0,0,1-.948.315" transform="translate(2.4 7.601)" fill="#233863"/>
            <line id="Línea_639" data-name="Línea 639" y1="22.238" x2="29.872" transform="translate(66.266 109.732)" fill="#fff"/>
            <path id="Trazado_874090" data-name="Trazado 874090" d="M62.634,127.485a1.589,1.589,0,0,1-.949-2.864l29.871-22.238a1.589,1.589,0,1,1,1.9,2.549L63.583,127.17a1.584,1.584,0,0,1-.948.315" transform="translate(3.633 6.075)" fill="#233863"/>
            <line id="Línea_640" data-name="Línea 640" y1="25.044" x2="33.64" transform="translate(58.514 142.336)" fill="#fff"/>
            <path id="Trazado_874091" data-name="Trazado 874091" d="M55.317,161.063a1.589,1.589,0,0,1-.95-2.864l33.641-25.044a1.589,1.589,0,0,1,1.9,2.549L56.265,160.749a1.581,1.581,0,0,1-.947.315" transform="translate(3.198 7.906)" fill="#fff"/>
            <line id="Línea_641" data-name="Línea 641" y1="11.551" x2="15.517" transform="translate(108.404 147.051)" fill="#fff"/>
            <path id="Trazado_874092" data-name="Trazado 874092" d="M102.405,152.02a1.589,1.589,0,0,1-.949-2.864l15.516-11.551a1.589,1.589,0,1,1,1.9,2.549l-15.516,11.551a1.584,1.584,0,0,1-.948.315" transform="translate(6 8.171)" fill="#233863"/>
            <path id="Trazado_874093" data-name="Trazado 874093" d="M111.827,84.85l-10.722,86,65.465,8.163L177.5,91.386l-6.746,5.25-4.983-6.4-6.4,4.983-4.716-6.059-6.174,4.8-4.627-5.945-6.059,4.716-4.627-5.945-5.488,4.271L122.6,84.542,115.971,89.7l-4.058-5.214" transform="translate(6.017 5.028)" fill="#ffb44f"/>
            <path id="Trazado_874094" data-name="Trazado 874094" d="M166.659,180.688a1.523,1.523,0,0,1-.2-.013L101,172.513a1.589,1.589,0,0,1-1.381-1.774l10.722-86a1.635,1.635,0,0,1,.084-.35,1.59,1.59,0,0,1,2.833-.791l3.082,3.959,5.377-4.184a1.589,1.589,0,0,1,2.23.278l4.1,5.263,4.234-3.294a1.588,1.588,0,0,1,2.23.278l3.651,4.69,4.806-3.739a1.588,1.588,0,0,1,2.23.278l3.65,4.69,4.919-3.828a1.588,1.588,0,0,1,2.23.278l3.74,4.8,5.149-4.006a1.587,1.587,0,0,1,2.229.278l4.007,5.148,5.491-4.273a1.588,1.588,0,0,1,2.552,1.45l-10.925,87.622a1.593,1.593,0,0,1-1.578,1.393m-63.692-11.132,62.312,7.769,10.253-82.239-3.718,2.894a1.589,1.589,0,0,1-2.229-.278l-4.007-5.148-5.149,4.006a1.589,1.589,0,0,1-2.229-.278l-3.74-4.8-4.92,3.828a1.588,1.588,0,0,1-2.229-.278l-3.651-4.692-4.806,3.74a1.588,1.588,0,0,1-2.229-.278l-3.652-4.692-4.234,3.3a1.589,1.589,0,0,1-2.229-.279l-4.1-5.262-5.378,4.184a1.588,1.588,0,0,1-2.229-.278l-1.738-2.231Z" transform="translate(5.928 4.939)" fill="#233863"/>
            <path id="Trazado_874095" data-name="Trazado 874095" d="M137.726,105.031a.937.937,0,0,1-.132-.008l-20.128-2.509a1.06,1.06,0,0,1,.263-2.1l20.128,2.51a1.059,1.059,0,0,1-.13,2.111" transform="translate(6.936 5.975)" fill="#fff"/>
            <line id="Línea_642" data-name="Línea 642" x2="37.002" y2="4.613" transform="translate(123.697 114.146)" fill="#fff"/>
            <path id="Trazado_874096" data-name="Trazado 874096" d="M153.811,113.467a1.126,1.126,0,0,1-.132-.008l-37-4.613a1.06,1.06,0,0,1,.263-2.1l37,4.614a1.059,1.059,0,0,1-.13,2.111" transform="translate(6.889 6.352)" fill="#233863"/>
            <path id="Trazado_874097" data-name="Trazado 874097" d="M160.466,114.3a1.126,1.126,0,0,1-.132-.008l-4.955-.618a1.059,1.059,0,1,1,.263-2.1l4.955.618a1.059,1.059,0,0,1-.13,2.111" transform="translate(9.192 6.64)" fill="#fff"/>
            <line id="Línea_643" data-name="Línea 643" x2="13.597" y2="1.695" transform="translate(122.492 123.803)" fill="#fff"/>
            <path id="Trazado_874098" data-name="Trazado 874098" d="M129.268,119.663a.937.937,0,0,1-.132-.008l-13.6-1.7a1.059,1.059,0,0,1,.263-2.1l13.6,1.7a1.059,1.059,0,0,1-.13,2.111" transform="translate(6.821 6.895)" fill="#233863"/>
            <line id="Línea_644" data-name="Línea 644" x2="26.493" y2="3.304" transform="translate(141.959 126.23)" fill="#fff"/>
            <path id="Trazado_874099" data-name="Trazado 874099" d="M160.539,123.562a.938.938,0,0,1-.132-.008l-26.493-3.3a1.059,1.059,0,0,1,.263-2.1l26.493,3.3a1.059,1.059,0,0,1-.13,2.111" transform="translate(7.915 7.031)" fill="#233863"/>
            <line id="Línea_645" data-name="Línea 645" x2="29.836" y2="3.72" transform="translate(120.724 137.984)" fill="#fff"/>
            <path id="Trazado_874100" data-name="Trazado 874100" d="M143.84,135.072a.925.925,0,0,1-.132-.008l-29.836-3.72a1.059,1.059,0,0,1,.263-2.1l29.835,3.72a1.059,1.059,0,0,1-.129,2.111" transform="translate(6.722 7.691)" fill="#233863"/>
            <line id="Línea_646" data-name="Línea 646" x2="13.762" y2="1.716" transform="translate(151.231 155.57)" fill="#fff"/>
            <path id="Trazado_874101" data-name="Trazado 874101" d="M156.589,150.225a1.569,1.569,0,0,1-.2-.013L142.629,148.5a1.589,1.589,0,1,1,.393-3.153l13.762,1.715a1.589,1.589,0,0,1-.195,3.166" transform="translate(8.406 8.649)" fill="#233863"/>
          </g>
        </g>
      </g>
    </g>
    <g id="Grupo_1100168" data-name="Grupo 1100168" transform="translate(381.363 1178.66)">
      <g id="Grupo_1100167" data-name="Grupo 1100167" clip-path="url(#clip-path-5)">
        <g id="Grupo_1100166" data-name="Grupo 1100166">
          <g id="Grupo_1100165" data-name="Grupo 1100165" clip-path="url(#clip-path-5)">
            <path id="Trazado_874051" data-name="Trazado 874051" d="M200.191,126.508,38.862,165.456a9.467,9.467,0,0,1-11.424-6.981L1.766,52.138A9.467,9.467,0,0,1,8.747,40.714L170.076,1.766A9.467,9.467,0,0,1,181.5,8.747l25.672,106.337a9.467,9.467,0,0,1-6.981,11.424" fill="#3d85fd"/>
            <path id="Trazado_874052" data-name="Trazado 874052" d="M36.619,167.224a10.975,10.975,0,0,1-10.64-8.4L.307,52.489A10.979,10.979,0,0,1,8.394,39.256L169.724.308a10.98,10.98,0,0,1,13.234,8.086l25.671,106.339a10.98,10.98,0,0,1-8.085,13.233h0L39.212,166.913a11.027,11.027,0,0,1-2.593.311M172.3,3a7.968,7.968,0,0,0-1.87.223L9.1,42.172a7.976,7.976,0,0,0-5.874,9.613L28.9,158.123A7.965,7.965,0,0,0,38.508,164L199.839,125.05h0a7.976,7.976,0,0,0,5.875-9.614L180.041,9.1A7.98,7.98,0,0,0,172.3,3m27.894,123.507h0Z" fill="#233863"/>
            <g id="Grupo_1100164" data-name="Grupo 1100164" opacity="0.36">
              <g id="Grupo_1100163" data-name="Grupo 1100163">
                <g id="Grupo_1100162" data-name="Grupo 1100162" clip-path="url(#clip-path-7)">
                  <path id="Trazado_874053" data-name="Trazado 874053" d="M150.791,4.685,103.384,16.243l11.019,45.2c1.43,5.864-3.583,12.122-11.2,13.978-14.455,3.524-23.973,15.407-21.258,26.541,1.148,4.711-2.879,9.739-9,11.23-17.073,4.163-28.315,18.2-25.109,31.349l4.339,17.8,144.834-35.31a13.344,13.344,0,0,0,9.8-16.125l-24.01-98.484A15.1,15.1,0,0,0,164.568,1.326Z" fill="#233863"/>
                </g>
              </g>
            </g>
            <path id="Trazado_874054" data-name="Trazado 874054" d="M63.758,105.75l-21.912,5.342a1.02,1.02,0,0,1-1.234-.751l-1.118-4.586a1.022,1.022,0,0,1,.75-1.235l21.912-5.342a1.022,1.022,0,0,1,1.234.751l1.119,4.587a1.022,1.022,0,0,1-.751,1.234" fill="#233863"/>
            <path id="Trazado_874055" data-name="Trazado 874055" d="M91.837,98.9l-21.912,5.342a1.02,1.02,0,0,1-1.234-.751L67.573,98.91a1.022,1.022,0,0,1,.75-1.235l21.912-5.342a1.022,1.022,0,0,1,1.234.751l1.119,4.586a1.023,1.023,0,0,1-.751,1.235" fill="#233863"/>
            <path id="Trazado_874056" data-name="Trazado 874056" d="M119.318,92.205,97.406,97.547a1.021,1.021,0,0,1-1.234-.751L95.054,92.21a1.022,1.022,0,0,1,.75-1.235l21.912-5.342a1.022,1.022,0,0,1,1.234.751l1.119,4.587a1.022,1.022,0,0,1-.751,1.234" fill="#233863"/>
            <path id="Trazado_874057" data-name="Trazado 874057" d="M146.8,85.5l-21.912,5.342a1.02,1.02,0,0,1-1.234-.751l-1.118-4.586a1.022,1.022,0,0,1,.75-1.235L145.2,78.933a1.022,1.022,0,0,1,1.234.751l1.118,4.587a1.021,1.021,0,0,1-.75,1.234" fill="#233863"/>
            <path id="Trazado_874058" data-name="Trazado 874058" d="M63.038,122.015,45,126.412a1.021,1.021,0,0,1-1.235-.75l-.551-2.262a1.021,1.021,0,0,1,.75-1.235L62,117.768a1.021,1.021,0,0,1,1.235.75l.551,2.262a1.021,1.021,0,0,1-.75,1.235" fill="#fff"/>
            <path id="Trazado_874059" data-name="Trazado 874059" d="M167.411,21.6l-18.319,3.021a1.023,1.023,0,0,1-1.175-.842l-.377-2.3a1.019,1.019,0,0,1,.84-1.174L166.7,17.29a1.023,1.023,0,0,1,1.175.841l.379,2.3a1.023,1.023,0,0,1-.842,1.174" fill="#fff"/>
            <path id="Trazado_874060" data-name="Trazado 874060" d="M100.376,39.4,27.932,57.06a1.375,1.375,0,0,1-1.661-1.011l-.742-3.043a1.374,1.374,0,0,1,1.01-1.661L98.982,33.684a1.375,1.375,0,0,1,1.662,1.01l.741,3.044a1.372,1.372,0,0,1-1.009,1.66" fill="#fff"/>
            <path id="Trazado_874061" data-name="Trazado 874061" d="M88.6,115.672l-18.037,4.4a1.022,1.022,0,0,1-1.235-.75l-.551-2.262a1.022,1.022,0,0,1,.75-1.235l18.038-4.4a1.02,1.02,0,0,1,1.234.75l.552,2.263a1.022,1.022,0,0,1-.751,1.234" fill="#fff"/>
            <path id="Trazado_874062" data-name="Trazado 874062" d="M113.522,109.792l-18.037,4.4a1.021,1.021,0,0,1-1.235-.75l-.551-2.262a1.021,1.021,0,0,1,.75-1.235l18.038-4.4a1.021,1.021,0,0,1,1.234.75l.552,2.262a1.023,1.023,0,0,1-.751,1.235" fill="#fff"/>
            <path id="Trazado_874063" data-name="Trazado 874063" d="M65.62,135.2l-18.037,4.4a1.021,1.021,0,0,1-1.235-.75l-.551-2.262a1.022,1.022,0,0,1,.75-1.235l18.038-4.4a1.021,1.021,0,0,1,1.234.75l.552,2.263a1.022,1.022,0,0,1-.751,1.234" fill="#ffb44f"/>
            <path id="Trazado_874064" data-name="Trazado 874064" d="M65.462,85.981,39.086,92.349a2.719,2.719,0,0,1-3.281-2l-1.916-7.935-1.76-7.291a2.718,2.718,0,0,1,2-3.28L60.51,65.47a2.719,2.719,0,0,1,3.281,2L67.467,82.7a2.719,2.719,0,0,1-2.005,3.28" fill="#ffb44f"/>
            <line id="Línea_627" data-name="Línea 627" y1="8.376" x2="33.254" transform="translate(32.246 74.557)" fill="#ffb44f"/>
            <path id="Trazado_874065" data-name="Trazado 874065" d="M32.246,84.433a1.5,1.5,0,0,1-.365-2.955L65.135,73.1a1.5,1.5,0,0,1,.732,2.909L32.613,84.387a1.5,1.5,0,0,1-.367.046" fill="#3d85fd"/>
            <path id="Trazado_874066" data-name="Trazado 874066" d="M54.514,78.144a5.067,5.067,0,1,1-5.529-4.557,5.067,5.067,0,0,1,5.529,4.557" fill="#ffb44f"/>
            <path id="Trazado_874067" data-name="Trazado 874067" d="M49.466,85.2a6.564,6.564,0,1,1,.634-.03c-.212.02-.424.03-.634.03m.011-10.134c-.115,0-.232.006-.349.017a3.552,3.552,0,1,0,.349-.017" fill="#3d85fd"/>
            <path id="Trazado_874068" data-name="Trazado 874068" d="M166.433,109.112a9.786,9.786,0,0,1,1.1-7.834,9.829,9.829,0,1,0,3.949,13.925,9.793,9.793,0,0,1-5.048-6.091" fill="#fff"/>
            <path id="Trazado_874069" data-name="Trazado 874069" d="M176.558,96.062a9.828,9.828,0,1,0,12.137,6.773,9.78,9.78,0,0,0-12.137-6.773" fill="#ffb44f"/>
          </g>
        </g>
      </g>
    </g>
    <g id="Grupo_1100176" data-name="Grupo 1100176" transform="matrix(0.951, 0.309, -0.309, 0.951, 523.313, 1088)">
      <g id="Grupo_1100167-2" data-name="Grupo 1100167" clip-path="url(#clip-path-5)">
        <g id="Grupo_1100166-2" data-name="Grupo 1100166">
          <g id="Grupo_1100165-2" data-name="Grupo 1100165" clip-path="url(#clip-path-5)">
            <path id="Trazado_874051-2" data-name="Trazado 874051" d="M200.191,126.508,38.862,165.456a9.467,9.467,0,0,1-11.424-6.981L1.766,52.138A9.467,9.467,0,0,1,8.747,40.714L170.076,1.766A9.467,9.467,0,0,1,181.5,8.747l25.672,106.337a9.467,9.467,0,0,1-6.981,11.424" fill="#3d85fd"/>
            <path id="Trazado_874052-2" data-name="Trazado 874052" d="M36.619,167.224a10.975,10.975,0,0,1-10.64-8.4L.307,52.489A10.979,10.979,0,0,1,8.394,39.256L169.724.308a10.98,10.98,0,0,1,13.234,8.086l25.671,106.339a10.98,10.98,0,0,1-8.085,13.233h0L39.212,166.913a11.027,11.027,0,0,1-2.593.311M172.3,3a7.968,7.968,0,0,0-1.87.223L9.1,42.172a7.976,7.976,0,0,0-5.874,9.613L28.9,158.123A7.965,7.965,0,0,0,38.508,164L199.839,125.05h0a7.976,7.976,0,0,0,5.875-9.614L180.041,9.1A7.98,7.98,0,0,0,172.3,3m27.894,123.507h0Z" fill="#233863"/>
            <g id="Grupo_1100164-2" data-name="Grupo 1100164" opacity="0.36">
              <g id="Grupo_1100163-2" data-name="Grupo 1100163">
                <g id="Grupo_1100162-2" data-name="Grupo 1100162" clip-path="url(#clip-path-7)">
                  <path id="Trazado_874053-2" data-name="Trazado 874053" d="M150.791,4.685,103.384,16.243l11.019,45.2c1.43,5.864-3.583,12.122-11.2,13.978-14.455,3.524-23.973,15.407-21.258,26.541,1.148,4.711-2.879,9.739-9,11.23-17.073,4.163-28.315,18.2-25.109,31.349l4.339,17.8,144.834-35.31a13.344,13.344,0,0,0,9.8-16.125l-24.01-98.484A15.1,15.1,0,0,0,164.568,1.326Z" fill="#233863"/>
                </g>
              </g>
            </g>
            <path id="Trazado_874054-2" data-name="Trazado 874054" d="M63.758,105.75l-21.912,5.342a1.02,1.02,0,0,1-1.234-.751l-1.118-4.586a1.022,1.022,0,0,1,.75-1.235l21.912-5.342a1.022,1.022,0,0,1,1.234.751l1.119,4.587a1.022,1.022,0,0,1-.751,1.234" fill="#233863"/>
            <path id="Trazado_874055-2" data-name="Trazado 874055" d="M91.837,98.9l-21.912,5.342a1.02,1.02,0,0,1-1.234-.751L67.573,98.91a1.022,1.022,0,0,1,.75-1.235l21.912-5.342a1.022,1.022,0,0,1,1.234.751l1.119,4.586a1.023,1.023,0,0,1-.751,1.235" fill="#233863"/>
            <path id="Trazado_874056-2" data-name="Trazado 874056" d="M119.318,92.205,97.406,97.547a1.021,1.021,0,0,1-1.234-.751L95.054,92.21a1.022,1.022,0,0,1,.75-1.235l21.912-5.342a1.022,1.022,0,0,1,1.234.751l1.119,4.587a1.022,1.022,0,0,1-.751,1.234" fill="#233863"/>
            <path id="Trazado_874057-2" data-name="Trazado 874057" d="M146.8,85.5l-21.912,5.342a1.02,1.02,0,0,1-1.234-.751l-1.118-4.586a1.022,1.022,0,0,1,.75-1.235L145.2,78.933a1.022,1.022,0,0,1,1.234.751l1.118,4.587a1.021,1.021,0,0,1-.75,1.234" fill="#233863"/>
            <path id="Trazado_874058-2" data-name="Trazado 874058" d="M63.038,122.015,45,126.412a1.021,1.021,0,0,1-1.235-.75l-.551-2.262a1.021,1.021,0,0,1,.75-1.235L62,117.768a1.021,1.021,0,0,1,1.235.75l.551,2.262a1.021,1.021,0,0,1-.75,1.235" fill="#fff"/>
            <path id="Trazado_874059-2" data-name="Trazado 874059" d="M167.411,21.6l-18.319,3.021a1.023,1.023,0,0,1-1.175-.842l-.377-2.3a1.019,1.019,0,0,1,.84-1.174L166.7,17.29a1.023,1.023,0,0,1,1.175.841l.379,2.3a1.023,1.023,0,0,1-.842,1.174" fill="#fff"/>
            <path id="Trazado_874060-2" data-name="Trazado 874060" d="M100.376,39.4,27.932,57.06a1.375,1.375,0,0,1-1.661-1.011l-.742-3.043a1.374,1.374,0,0,1,1.01-1.661L98.982,33.684a1.375,1.375,0,0,1,1.662,1.01l.741,3.044a1.372,1.372,0,0,1-1.009,1.66" fill="#fff"/>
            <path id="Trazado_874061-2" data-name="Trazado 874061" d="M88.6,115.672l-18.037,4.4a1.022,1.022,0,0,1-1.235-.75l-.551-2.262a1.022,1.022,0,0,1,.75-1.235l18.038-4.4a1.02,1.02,0,0,1,1.234.75l.552,2.263a1.022,1.022,0,0,1-.751,1.234" fill="#fff"/>
            <path id="Trazado_874062-2" data-name="Trazado 874062" d="M113.522,109.792l-18.037,4.4a1.021,1.021,0,0,1-1.235-.75l-.551-2.262a1.021,1.021,0,0,1,.75-1.235l18.038-4.4a1.021,1.021,0,0,1,1.234.75l.552,2.262a1.023,1.023,0,0,1-.751,1.235" fill="#fff"/>
            <path id="Trazado_874063-2" data-name="Trazado 874063" d="M65.62,135.2l-18.037,4.4a1.021,1.021,0,0,1-1.235-.75l-.551-2.262a1.022,1.022,0,0,1,.75-1.235l18.038-4.4a1.021,1.021,0,0,1,1.234.75l.552,2.263a1.022,1.022,0,0,1-.751,1.234" fill="#ffb44f"/>
            <path id="Trazado_874064-2" data-name="Trazado 874064" d="M65.462,85.981,39.086,92.349a2.719,2.719,0,0,1-3.281-2l-1.916-7.935-1.76-7.291a2.718,2.718,0,0,1,2-3.28L60.51,65.47a2.719,2.719,0,0,1,3.281,2L67.467,82.7a2.719,2.719,0,0,1-2.005,3.28" fill="#ffb44f"/>
            <line id="Línea_627-2" data-name="Línea 627" y1="8.376" x2="33.254" transform="translate(32.246 74.557)" fill="#ffb44f"/>
            <path id="Trazado_874065-2" data-name="Trazado 874065" d="M32.246,84.433a1.5,1.5,0,0,1-.365-2.955L65.135,73.1a1.5,1.5,0,0,1,.732,2.909L32.613,84.387a1.5,1.5,0,0,1-.367.046" fill="#3d85fd"/>
            <path id="Trazado_874066-2" data-name="Trazado 874066" d="M54.514,78.144a5.067,5.067,0,1,1-5.529-4.557,5.067,5.067,0,0,1,5.529,4.557" fill="#ffb44f"/>
            <path id="Trazado_874067-2" data-name="Trazado 874067" d="M49.466,85.2a6.564,6.564,0,1,1,.634-.03c-.212.02-.424.03-.634.03m.011-10.134c-.115,0-.232.006-.349.017a3.552,3.552,0,1,0,.349-.017" fill="#3d85fd"/>
            <path id="Trazado_874068-2" data-name="Trazado 874068" d="M166.433,109.112a9.786,9.786,0,0,1,1.1-7.834,9.829,9.829,0,1,0,3.949,13.925,9.793,9.793,0,0,1-5.048-6.091" fill="#fff"/>
            <path id="Trazado_874069-2" data-name="Trazado 874069" d="M176.558,96.062a9.828,9.828,0,1,0,12.137,6.773,9.78,9.78,0,0,0-12.137-6.773" fill="#ffb44f"/>
          </g>
        </g>
      </g>
    </g>
    <g id="Grupo_1100178" data-name="Grupo 1100178" transform="translate(243.046 1210.117)">
      <g id="Grupo_1100177" data-name="Grupo 1100177" clip-path="url(#clip-path-11)">
        <path id="Trazado_874102" data-name="Trazado 874102" d="M42.953,18.712,42.278,1.5l29.641,27.56-27.39,29.8-.676-17.21S18.273,36.512,2.12,66.266A42.086,42.086,0,0,1,15.627,27.409s8.43-8.527,27.326-8.7" fill="#ffb44f"/>
        <path id="Trazado_874103" data-name="Trazado 874103" d="M2.12,67.766A1.5,1.5,0,0,1,.66,66.61C.606,66.382-4.511,43.523,14.623,26.3c.291-.3,8.556-8.45,26.771-9.051L40.778,1.558A1.5,1.5,0,0,1,43.3.4L72.941,27.962a1.5,1.5,0,0,1,.083,2.113l-27.391,29.8a1.5,1.5,0,0,1-2.6-.956L42.4,42.949c-5.076-.579-25.3-1.144-38.963,24.033a1.5,1.5,0,0,1-1.319.784m41.8-62.692.532,13.58a1.5,1.5,0,0,1-1.485,1.559c-18.069.162-26.193,8.17-26.273,8.252A40.916,40.916,0,0,0,3.064,61.7c16.545-26.09,40.828-21.571,41.084-21.519a1.5,1.5,0,0,1,1.2,1.412l.533,13.577L69.806,29.143Z" fill="#233863"/>
      </g>
    </g>
    <g id="Grupo_1100180" data-name="Grupo 1100180" transform="translate(219.388 1132.666)">
      <g id="Grupo_1100179" data-name="Grupo 1100179" clip-path="url(#clip-path-12)">
        <path id="Trazado_874104" data-name="Trazado 874104" d="M124.7,65.027A29.268,29.268,0,1,1,95.436,35.759,29.268,29.268,0,0,1,124.7,65.027" transform="translate(-27.626 -14.93)" fill="#233863"/>
        <path id="Trazado_874105" data-name="Trazado 874105" d="M119.866,62.33A29.268,29.268,0,1,1,90.6,33.062,29.268,29.268,0,0,1,119.866,62.33" transform="translate(-25.606 -13.804)" fill="#233863"/>
        <path id="Trazado_874106" data-name="Trazado 874106" d="M119.866,62.33A29.268,29.268,0,1,1,90.6,33.062,29.268,29.268,0,0,1,119.866,62.33" transform="translate(-25.606 -13.804)" fill="#ffb44f"/>
        <path id="Trazado_874107" data-name="Trazado 874107" d="M89.971,91.846A30.142,30.142,0,1,1,120.113,61.7,30.176,30.176,0,0,1,89.971,91.846m0-58.536A28.394,28.394,0,1,0,118.366,61.7,28.426,28.426,0,0,0,89.971,33.309" transform="translate(-24.98 -13.178)" fill="#233863"/>
        <path id="Trazado_874108" data-name="Trazado 874108" d="M94.262,90.151A24.155,24.155,0,1,1,118.417,66,24.182,24.182,0,0,1,94.262,90.151m0-47.145A22.99,22.99,0,1,0,117.253,66a23.016,23.016,0,0,0-22.99-22.99" transform="translate(-29.271 -17.469)" fill="#fff"/>
        <path id="Trazado_874109" data-name="Trazado 874109" d="M95.676,89.41a21.541,21.541,0,1,1,21.54-21.541A21.565,21.565,0,0,1,95.676,89.41m0-41.916a20.376,20.376,0,1,0,20.375,20.375A20.4,20.4,0,0,0,95.676,47.494" transform="translate(-30.953 -19.343)" fill="#fff"/>
        <path id="Trazado_874110" data-name="Trazado 874110" d="M113.361,76.365a7.321,7.321,0,0,1-2.071,5.086,6.909,6.909,0,0,1-3.148,1.922v1.392a2.527,2.527,0,0,1-.7,1.756,2.383,2.383,0,0,1-1.723.729,2.516,2.516,0,0,1-2.535-2.485V83.638h-2.3a3.641,3.641,0,0,1-2.5-.878,3,3,0,0,1-.894-2.236c0-1.806,1.209-2.717,3.4-2.717h5.45a1.2,1.2,0,0,0,.729-.265,1,1,0,0,0,.414-.828.986.986,0,0,0-.546-.978,1.779,1.779,0,0,0-.381-.133c-.117-.016-.182-.033-.182-.033h-2.6a7,7,0,0,1-4.688-1.938,6.357,6.357,0,0,1-1.922-4.589,7.135,7.135,0,0,1,2.12-5,7.26,7.26,0,0,1,3.91-2.021V61.09a2.394,2.394,0,0,1,.745-1.756,2.461,2.461,0,0,1,4.208,1.756v.828h.878c2.17,0,3.446,1.044,3.446,2.85,0,1.988-1.276,3.048-3.446,3.048h-5.087a.892.892,0,0,0-.961.911c0,.547.3.994.779.994h2.5a7.442,7.442,0,0,1,5.036,1.872,6.291,6.291,0,0,1,2.071,4.771" transform="translate(-40.565 -24.469)" fill="#233863"/>
        <path id="Trazado_874111" data-name="Trazado 874111" d="M136.861,83.346a2.112,2.112,0,1,1-2.112-2.112,2.112,2.112,0,0,1,2.112,2.112" transform="translate(-55.378 -33.916)" fill="#233863"/>
        <path id="Trazado_874112" data-name="Trazado 874112" d="M85.92,83.346a2.112,2.112,0,1,1-2.112-2.112,2.112,2.112,0,0,1,2.112,2.112" transform="translate(-34.109 -33.916)" fill="#233863"/>
        <path id="Trazado_874113" data-name="Trazado 874113" d="M62.482,15.218A10.571,10.571,0,1,1,54.474,2.593a10.572,10.572,0,0,1,8.008,12.625" transform="translate(-17.365 -0.975)" fill="#233863"/>
        <path id="Trazado_874114" data-name="Trazado 874114" d="M60.99,13.886A10.571,10.571,0,1,1,52.982,1.261,10.571,10.571,0,0,1,60.99,13.886" transform="translate(-16.742 -0.419)" fill="#233863"/>
        <path id="Trazado_874115" data-name="Trazado 874115" d="M60.99,13.886A10.571,10.571,0,1,1,52.982,1.261,10.571,10.571,0,0,1,60.99,13.886" transform="translate(-16.742 -0.419)" fill="#ffb44f"/>
        <path id="Trazado_874116" data-name="Trazado 874116" d="M50.256,22.314a11.155,11.155,0,1,1,10.884-8.72,11.145,11.145,0,0,1-10.884,8.72m-.02-21.148A9.992,9.992,0,0,0,41.82,16.509a9.989,9.989,0,1,0,16.87-10.7,9.921,9.921,0,0,0-6.254-4.4,10.071,10.071,0,0,0-2.2-.245m10.336,12.3h0Z" transform="translate(-16.324 0)" fill="#233863"/>
        <path id="Trazado_874117" data-name="Trazado 874117" d="M52,21.631A8.743,8.743,0,0,1,43.47,10.988,8.726,8.726,0,1,1,52,21.631m-1.822-.64A8.292,8.292,0,1,0,43.9,11.084a8.238,8.238,0,0,0,6.284,9.907" transform="translate(-18.061 -1.737)" fill="#fff"/>
        <path id="Trazado_874118" data-name="Trazado 874118" d="M52.508,21.326a7.789,7.789,0,1,1,7.6-6.089,7.788,7.788,0,0,1-7.6,6.089M52.5,6.182a7.365,7.365,0,1,0,1.614.18,7.309,7.309,0,0,0-1.614-.18" transform="translate(-18.67 -2.399)" fill="#fff"/>
        <path id="Trazado_874119" data-name="Trazado 874119" d="M58.249,17.319a2.648,2.648,0,0,1-1.131,1.629,2.5,2.5,0,0,1-1.26.429l-.11.49a.915.915,0,0,1-.383.564.858.858,0,0,1-.665.121.892.892,0,0,1-.573-.4A.9.9,0,0,1,54,19.476l.089-.4L53.28,18.9a1.315,1.315,0,0,1-.812-.506,1.082,1.082,0,0,1-.139-.859c.142-.636.641-.861,1.411-.689l1.921.429a.433.433,0,0,0,.277-.036.361.361,0,0,0,.211-.259.357.357,0,0,0-.116-.387.631.631,0,0,0-.124-.076c-.04-.015-.062-.026-.062-.026l-.916-.205a2.531,2.531,0,0,1-1.5-1.053,2.3,2.3,0,0,1-.316-1.768,2.579,2.579,0,0,1,1.142-1.6,2.631,2.631,0,0,1,1.537-.4l.073-.326a.863.863,0,0,1,.4-.56.888.888,0,0,1,1.343.95l-.065.292.309.069c.765.171,1.132.64.99,1.276-.157.7-.69.974-1.455.8l-1.792-.4a.322.322,0,0,0-.411.245.316.316,0,0,0,.2.411l.882.2A2.691,2.691,0,0,1,57.9,15.474a2.275,2.275,0,0,1,.353,1.845" transform="translate(-21.835 -4.356)" fill="#233863"/>
        <path id="Trazado_874120" data-name="Trazado 874120" d="M67.03,21.27a.763.763,0,1,1-.578-.911.763.763,0,0,1,.578.911" transform="translate(-27.356 -8.492)" fill="#233863"/>
        <path id="Trazado_874121" data-name="Trazado 874121" d="M49.075,17.252a.763.763,0,1,1-.578-.911.763.763,0,0,1,.578.911" transform="translate(-19.86 -6.815)" fill="#233863"/>
        <path id="Trazado_874122" data-name="Trazado 874122" d="M32.056,52.885A14.236,14.236,0,1,1,14.48,43.066a14.236,14.236,0,0,1,17.576,9.818" transform="translate(-1.72 -17.754)" fill="#233863"/>
        <path id="Trazado_874123" data-name="Trazado 874123" d="M29.434,52.264a14.236,14.236,0,1,1-17.576-9.818,14.236,14.236,0,0,1,17.576,9.818" transform="translate(-0.625 -17.495)" fill="#233863"/>
        <path id="Trazado_874124" data-name="Trazado 874124" d="M29.434,52.264a14.236,14.236,0,1,1-17.576-9.818,14.236,14.236,0,0,1,17.576,9.818" transform="translate(-0.625 -17.495)" fill="#ffb44f"/>
        <path id="Trazado_874125" data-name="Trazado 874125" d="M15.118,70.63a15.116,15.116,0,1,1,4.112-.574,15.138,15.138,0,0,1-4.112.574m.014-28.481a13.381,13.381,0,1,0,6.5,1.7,13.4,13.4,0,0,0-6.5-1.7" transform="translate(0 -16.871)" fill="#233863"/>
        <path id="Trazado_874126" data-name="Trazado 874126" d="M17.572,69.657a11.681,11.681,0,1,1,3.18-.444,11.7,11.7,0,0,1-3.18.444m0-22.936a11.281,11.281,0,1,0,5.475,1.436,11.275,11.275,0,0,0-5.475-1.436" transform="translate(-2.456 -19.324)" fill="#fff"/>
        <path id="Trazado_874127" data-name="Trazado 874127" d="M18.254,69.361a10.427,10.427,0,1,1,2.844-.4,10.373,10.373,0,0,1-2.844.4m.014-20.4a10.018,10.018,0,0,0-2.725.38,9.91,9.91,0,1,0,2.725-.38" transform="translate(-3.276 -20.262)" fill="#fff"/>
        <path id="Trazado_874128" data-name="Trazado 874128" d="M26.763,62.014a3.564,3.564,0,0,1-.3,2.656,3.362,3.362,0,0,1-1.219,1.317l.185.652a1.225,1.225,0,0,1-.093.914,1.156,1.156,0,0,1-.71.569,1.224,1.224,0,0,1-1.516-.827l-.149-.528-1.079.306a1.77,1.77,0,0,1-1.287-.08,1.456,1.456,0,0,1-.715-.928c-.24-.845.206-1.432,1.23-1.722l2.552-.722a.588.588,0,0,0,.306-.221.488.488,0,0,0,.084-.444.48.48,0,0,0-.386-.384.861.861,0,0,0-.2-.012c-.057.007-.09.008-.09.008l-1.218.345a3.4,3.4,0,0,1-2.452-.285,3.093,3.093,0,0,1-1.508-1.893,3.472,3.472,0,0,1,.329-2.624A3.534,3.534,0,0,1,20.1,56.645l-.123-.435a1.16,1.16,0,0,1,.116-.921,1.2,1.2,0,0,1,2.2.264l.11.388.411-.116c1.016-.288,1.752.032,1.992.877.264.931-.193,1.6-1.21,1.884l-2.381.674a.434.434,0,0,0-.329.554c.073.256.271.426.5.363l1.171-.333a3.627,3.627,0,0,1,2.606.209,3.064,3.064,0,0,1,1.6,1.959" transform="translate(-7.549 -22.826)" fill="#233863"/>
        <path id="Trazado_874129" data-name="Trazado 874129" d="M37.954,62.787a1.027,1.027,0,1,1-1.269-.708,1.028,1.028,0,0,1,1.269.708" transform="translate(-15.005 -25.903)" fill="#233863"/>
        <path id="Trazado_874130" data-name="Trazado 874130" d="M14.114,69.539a1.027,1.027,0,1,1-1.269-.708,1.028,1.028,0,0,1,1.269.708" transform="translate(-5.051 -28.722)" fill="#233863"/>
      </g>
    </g>
    <g id="Grupo_1100181" data-name="Grupo 1100181" transform="translate(537.5 1256.201)">
      <g id="Grupo_1100179-2" data-name="Grupo 1100179" clip-path="url(#clip-path-12)">
        <path id="Trazado_874104-2" data-name="Trazado 874104" d="M124.7,65.027A29.268,29.268,0,1,1,95.436,35.759,29.268,29.268,0,0,1,124.7,65.027" transform="translate(-27.626 -14.93)" fill="#233863"/>
        <path id="Trazado_874105-2" data-name="Trazado 874105" d="M119.866,62.33A29.268,29.268,0,1,1,90.6,33.062,29.268,29.268,0,0,1,119.866,62.33" transform="translate(-25.606 -13.804)" fill="#233863"/>
        <path id="Trazado_874106-2" data-name="Trazado 874106" d="M119.866,62.33A29.268,29.268,0,1,1,90.6,33.062,29.268,29.268,0,0,1,119.866,62.33" transform="translate(-25.606 -13.804)" fill="#ffb44f"/>
        <path id="Trazado_874107-2" data-name="Trazado 874107" d="M89.971,91.846A30.142,30.142,0,1,1,120.113,61.7,30.176,30.176,0,0,1,89.971,91.846m0-58.536A28.394,28.394,0,1,0,118.366,61.7,28.426,28.426,0,0,0,89.971,33.309" transform="translate(-24.98 -13.178)" fill="#233863"/>
        <path id="Trazado_874108-2" data-name="Trazado 874108" d="M94.262,90.151A24.155,24.155,0,1,1,118.417,66,24.182,24.182,0,0,1,94.262,90.151m0-47.145A22.99,22.99,0,1,0,117.253,66a23.016,23.016,0,0,0-22.99-22.99" transform="translate(-29.271 -17.469)" fill="#fff"/>
        <path id="Trazado_874109-2" data-name="Trazado 874109" d="M95.676,89.41a21.541,21.541,0,1,1,21.54-21.541A21.565,21.565,0,0,1,95.676,89.41m0-41.916a20.376,20.376,0,1,0,20.375,20.375A20.4,20.4,0,0,0,95.676,47.494" transform="translate(-30.953 -19.343)" fill="#fff"/>
        <path id="Trazado_874110-2" data-name="Trazado 874110" d="M113.361,76.365a7.321,7.321,0,0,1-2.071,5.086,6.909,6.909,0,0,1-3.148,1.922v1.392a2.527,2.527,0,0,1-.7,1.756,2.383,2.383,0,0,1-1.723.729,2.516,2.516,0,0,1-2.535-2.485V83.638h-2.3a3.641,3.641,0,0,1-2.5-.878,3,3,0,0,1-.894-2.236c0-1.806,1.209-2.717,3.4-2.717h5.45a1.2,1.2,0,0,0,.729-.265,1,1,0,0,0,.414-.828.986.986,0,0,0-.546-.978,1.779,1.779,0,0,0-.381-.133c-.117-.016-.182-.033-.182-.033h-2.6a7,7,0,0,1-4.688-1.938,6.357,6.357,0,0,1-1.922-4.589,7.135,7.135,0,0,1,2.12-5,7.26,7.26,0,0,1,3.91-2.021V61.09a2.394,2.394,0,0,1,.745-1.756,2.461,2.461,0,0,1,4.208,1.756v.828h.878c2.17,0,3.446,1.044,3.446,2.85,0,1.988-1.276,3.048-3.446,3.048h-5.087a.892.892,0,0,0-.961.911c0,.547.3.994.779.994h2.5a7.442,7.442,0,0,1,5.036,1.872,6.291,6.291,0,0,1,2.071,4.771" transform="translate(-40.565 -24.469)" fill="#233863"/>
        <path id="Trazado_874111-2" data-name="Trazado 874111" d="M136.861,83.346a2.112,2.112,0,1,1-2.112-2.112,2.112,2.112,0,0,1,2.112,2.112" transform="translate(-55.378 -33.916)" fill="#233863"/>
        <path id="Trazado_874112-2" data-name="Trazado 874112" d="M85.92,83.346a2.112,2.112,0,1,1-2.112-2.112,2.112,2.112,0,0,1,2.112,2.112" transform="translate(-34.109 -33.916)" fill="#233863"/>
        <path id="Trazado_874113-2" data-name="Trazado 874113" d="M62.482,15.218A10.571,10.571,0,1,1,54.474,2.593a10.572,10.572,0,0,1,8.008,12.625" transform="translate(-17.365 -0.975)" fill="#233863"/>
        <path id="Trazado_874114-2" data-name="Trazado 874114" d="M60.99,13.886A10.571,10.571,0,1,1,52.982,1.261,10.571,10.571,0,0,1,60.99,13.886" transform="translate(-16.742 -0.419)" fill="#233863"/>
        <path id="Trazado_874115-2" data-name="Trazado 874115" d="M60.99,13.886A10.571,10.571,0,1,1,52.982,1.261,10.571,10.571,0,0,1,60.99,13.886" transform="translate(-16.742 -0.419)" fill="#ffb44f"/>
        <path id="Trazado_874116-2" data-name="Trazado 874116" d="M50.256,22.314a11.155,11.155,0,1,1,10.884-8.72,11.145,11.145,0,0,1-10.884,8.72m-.02-21.148A9.992,9.992,0,0,0,41.82,16.509a9.989,9.989,0,1,0,16.87-10.7,9.921,9.921,0,0,0-6.254-4.4,10.071,10.071,0,0,0-2.2-.245m10.336,12.3h0Z" transform="translate(-16.324 0)" fill="#233863"/>
        <path id="Trazado_874117-2" data-name="Trazado 874117" d="M52,21.631A8.743,8.743,0,0,1,43.47,10.988,8.726,8.726,0,1,1,52,21.631m-1.822-.64A8.292,8.292,0,1,0,43.9,11.084a8.238,8.238,0,0,0,6.284,9.907" transform="translate(-18.061 -1.737)" fill="#fff"/>
        <path id="Trazado_874118-2" data-name="Trazado 874118" d="M52.508,21.326a7.789,7.789,0,1,1,7.6-6.089,7.788,7.788,0,0,1-7.6,6.089M52.5,6.182a7.365,7.365,0,1,0,1.614.18,7.309,7.309,0,0,0-1.614-.18" transform="translate(-18.67 -2.399)" fill="#fff"/>
        <path id="Trazado_874119-2" data-name="Trazado 874119" d="M58.249,17.319a2.648,2.648,0,0,1-1.131,1.629,2.5,2.5,0,0,1-1.26.429l-.11.49a.915.915,0,0,1-.383.564.858.858,0,0,1-.665.121.892.892,0,0,1-.573-.4A.9.9,0,0,1,54,19.476l.089-.4L53.28,18.9a1.315,1.315,0,0,1-.812-.506,1.082,1.082,0,0,1-.139-.859c.142-.636.641-.861,1.411-.689l1.921.429a.433.433,0,0,0,.277-.036.361.361,0,0,0,.211-.259.357.357,0,0,0-.116-.387.631.631,0,0,0-.124-.076c-.04-.015-.062-.026-.062-.026l-.916-.205a2.531,2.531,0,0,1-1.5-1.053,2.3,2.3,0,0,1-.316-1.768,2.579,2.579,0,0,1,1.142-1.6,2.631,2.631,0,0,1,1.537-.4l.073-.326a.863.863,0,0,1,.4-.56.888.888,0,0,1,1.343.95l-.065.292.309.069c.765.171,1.132.64.99,1.276-.157.7-.69.974-1.455.8l-1.792-.4a.322.322,0,0,0-.411.245.316.316,0,0,0,.2.411l.882.2A2.691,2.691,0,0,1,57.9,15.474a2.275,2.275,0,0,1,.353,1.845" transform="translate(-21.835 -4.356)" fill="#233863"/>
        <path id="Trazado_874120-2" data-name="Trazado 874120" d="M67.03,21.27a.763.763,0,1,1-.578-.911.763.763,0,0,1,.578.911" transform="translate(-27.356 -8.492)" fill="#233863"/>
        <path id="Trazado_874121-2" data-name="Trazado 874121" d="M49.075,17.252a.763.763,0,1,1-.578-.911.763.763,0,0,1,.578.911" transform="translate(-19.86 -6.815)" fill="#233863"/>
        <path id="Trazado_874122-2" data-name="Trazado 874122" d="M32.056,52.885A14.236,14.236,0,1,1,14.48,43.066a14.236,14.236,0,0,1,17.576,9.818" transform="translate(-1.72 -17.754)" fill="#233863"/>
        <path id="Trazado_874123-2" data-name="Trazado 874123" d="M29.434,52.264a14.236,14.236,0,1,1-17.576-9.818,14.236,14.236,0,0,1,17.576,9.818" transform="translate(-0.625 -17.495)" fill="#233863"/>
        <path id="Trazado_874124-2" data-name="Trazado 874124" d="M29.434,52.264a14.236,14.236,0,1,1-17.576-9.818,14.236,14.236,0,0,1,17.576,9.818" transform="translate(-0.625 -17.495)" fill="#ffb44f"/>
        <path id="Trazado_874125-2" data-name="Trazado 874125" d="M15.118,70.63a15.116,15.116,0,1,1,4.112-.574,15.138,15.138,0,0,1-4.112.574m.014-28.481a13.381,13.381,0,1,0,6.5,1.7,13.4,13.4,0,0,0-6.5-1.7" transform="translate(0 -16.871)" fill="#233863"/>
        <path id="Trazado_874126-2" data-name="Trazado 874126" d="M17.572,69.657a11.681,11.681,0,1,1,3.18-.444,11.7,11.7,0,0,1-3.18.444m0-22.936a11.281,11.281,0,1,0,5.475,1.436,11.275,11.275,0,0,0-5.475-1.436" transform="translate(-2.456 -19.324)" fill="#fff"/>
        <path id="Trazado_874127-2" data-name="Trazado 874127" d="M18.254,69.361a10.427,10.427,0,1,1,2.844-.4,10.373,10.373,0,0,1-2.844.4m.014-20.4a10.018,10.018,0,0,0-2.725.38,9.91,9.91,0,1,0,2.725-.38" transform="translate(-3.276 -20.262)" fill="#fff"/>
        <path id="Trazado_874128-2" data-name="Trazado 874128" d="M26.763,62.014a3.564,3.564,0,0,1-.3,2.656,3.362,3.362,0,0,1-1.219,1.317l.185.652a1.225,1.225,0,0,1-.093.914,1.156,1.156,0,0,1-.71.569,1.224,1.224,0,0,1-1.516-.827l-.149-.528-1.079.306a1.77,1.77,0,0,1-1.287-.08,1.456,1.456,0,0,1-.715-.928c-.24-.845.206-1.432,1.23-1.722l2.552-.722a.588.588,0,0,0,.306-.221.488.488,0,0,0,.084-.444.48.48,0,0,0-.386-.384.861.861,0,0,0-.2-.012c-.057.007-.09.008-.09.008l-1.218.345a3.4,3.4,0,0,1-2.452-.285,3.093,3.093,0,0,1-1.508-1.893,3.472,3.472,0,0,1,.329-2.624A3.534,3.534,0,0,1,20.1,56.645l-.123-.435a1.16,1.16,0,0,1,.116-.921,1.2,1.2,0,0,1,2.2.264l.11.388.411-.116c1.016-.288,1.752.032,1.992.877.264.931-.193,1.6-1.21,1.884l-2.381.674a.434.434,0,0,0-.329.554c.073.256.271.426.5.363l1.171-.333a3.627,3.627,0,0,1,2.606.209,3.064,3.064,0,0,1,1.6,1.959" transform="translate(-7.549 -22.826)" fill="#233863"/>
        <path id="Trazado_874129-2" data-name="Trazado 874129" d="M37.954,62.787a1.027,1.027,0,1,1-1.269-.708,1.028,1.028,0,0,1,1.269.708" transform="translate(-15.005 -25.903)" fill="#233863"/>
        <path id="Trazado_874130-2" data-name="Trazado 874130" d="M14.114,69.539a1.027,1.027,0,1,1-1.269-.708,1.028,1.028,0,0,1,1.269.708" transform="translate(-5.051 -28.722)" fill="#233863"/>
      </g>
    </g>
    <g id="Grupo_1100183" data-name="Grupo 1100183" transform="translate(489.151 1136.379) rotate(-70)">
      <g id="Grupo_1100182" data-name="Grupo 1100182" transform="translate(0 0)" clip-path="url(#clip-path-14)">
        <path id="Trazado_874131" data-name="Trazado 874131" d="M38.3,24.908a.814.814,0,0,1,.316-.342l9.342-5.525a.813.813,0,0,1,.827,1.4l-9.342,5.525A.812.812,0,0,1,38.3,24.908" transform="translate(-16.295 -8.07)" fill="#233863"/>
        <path id="Trazado_874132" data-name="Trazado 874132" d="M27.286,15.342a.806.806,0,0,1,.032-.334L31.818.571a.812.812,0,0,1,1.551.484l-4.5,14.437a.813.813,0,0,1-1.583-.149" transform="translate(-11.631 0)" fill="#233863"/>
        <path id="Trazado_874133" data-name="Trazado 874133" d="M.075,2.3A.812.812,0,0,1,1.53,1.58l7.7,14.558a.813.813,0,0,1-1.437.76L.094,2.341C.088,2.327.08,2.314.075,2.3" transform="translate(0 -0.49)" fill="#233863"/>
      </g>
    </g>
  </g>
</svg>
