<svg xmlns="http://www.w3.org/2000/svg" xmlns:xlink="http://www.w3.org/1999/xlink" width="505" height="280.74" viewBox="0 0 505 280.74">
  <defs>
    <clipPath id="clip-path">
      <rect id="Rectángulo_401614" data-name="Rectángulo 401614" width="66.468" height="191.865" fill="none"/>
    </clipPath>
    <clipPath id="clip-path-2">
      <rect id="Rectángulo_401599" data-name="Rectángulo 401599" width="284.229" height="269.612" fill="none"/>
    </clipPath>
    <clipPath id="clip-path-4">
      <rect id="Rectángulo_401585" data-name="Rectángulo 401585" width="231.669" height="206.566" fill="none"/>
    </clipPath>
    <clipPath id="clip-path-5">
      <rect id="Rectángulo_401586" data-name="Rectángulo 401586" width="218.175" height="197.038" fill="none"/>
    </clipPath>
    <clipPath id="clip-path-6">
      <rect id="Rectángulo_401587" data-name="Rectángulo 401587" width="112.911" height="105.629" fill="none"/>
    </clipPath>
    <clipPath id="clip-path-8">
      <rect id="Rectángulo_401589" data-name="Rectángulo 401589" width="105.914" height="74.327" fill="none"/>
    </clipPath>
    <clipPath id="clip-path-9">
      <rect id="Rectángulo_401590" data-name="Rectángulo 401590" width="37.672" height="28.481" fill="none"/>
    </clipPath>
    <clipPath id="clip-path-10">
      <rect id="Rectángulo_401591" data-name="Rectángulo 401591" width="44.615" height="42.312" fill="none"/>
    </clipPath>
    <clipPath id="clip-path-11">
      <rect id="Rectángulo_401592" data-name="Rectángulo 401592" width="43.298" height="28.766" fill="none"/>
    </clipPath>
    <clipPath id="clip-path-12">
      <rect id="Rectángulo_401593" data-name="Rectángulo 401593" width="41.216" height="30.909" fill="none"/>
    </clipPath>
    <clipPath id="clip-path-13">
      <rect id="Rectángulo_401594" data-name="Rectángulo 401594" width="49.609" height="40.489" fill="none"/>
    </clipPath>
    <clipPath id="clip-path-14">
      <rect id="Rectángulo_401595" data-name="Rectángulo 401595" width="28.403" height="15.136" fill="none"/>
    </clipPath>
    <clipPath id="clip-path-15">
      <rect id="Rectángulo_401596" data-name="Rectángulo 401596" width="24.812" height="11.949" fill="none"/>
    </clipPath>
    <clipPath id="clip-path-16">
      <rect id="Rectángulo_401597" data-name="Rectángulo 401597" width="62.456" height="59.873" fill="none"/>
    </clipPath>
    <clipPath id="clip-path-17">
      <rect id="Rectángulo_401613" data-name="Rectángulo 401613" width="229.733" height="161.453" fill="none"/>
    </clipPath>
  </defs>
  <g id="_41" data-name="41" transform="translate(-180.203 -1228.33)">
    <rect id="Rectángulo_401600" data-name="Rectángulo 401600" width="505" height="199" rx="11" transform="translate(180.203 1263)" fill="#e8faf9"/>
    <g id="Grupo_1100233" data-name="Grupo 1100233" transform="translate(602.203 1316)">
      <g id="Grupo_1100232" data-name="Grupo 1100232" clip-path="url(#clip-path)">
        <path id="Trazado_874226" data-name="Trazado 874226" d="M49.4,18.944s0-4.118-5.769-9.887S34.161,0,34.161,0s-2.885,9.469,2.466,15.237A101.188,101.188,0,0,0,49.4,26.385Z" fill="#22cac5"/>
        <path id="Trazado_874227" data-name="Trazado 874227" d="M41.031,44.667s0-4.118-5.769-9.887-9.468-9.057-9.468-9.057S22.909,35.192,28.26,40.96A101.873,101.873,0,0,0,41.031,52.108Z" fill="#22cac5"/>
        <path id="Trazado_874228" data-name="Trazado 874228" d="M49.036,25.96s.432-4.1,6.779-9.225S66.189,8.73,66.189,8.73s1.868,9.754-4.069,14.889a101,101,0,0,1-13.871,9.712Z" fill="#22cac5"/>
        <path id="Trazado_874229" data-name="Trazado 874229" d="M38.927,56.337s.864-4.027,7.706-8.458S57.781,41,57.781,41s.836,9.866-5.574,14.387a101.273,101.273,0,0,1-14.813,8.194Z" fill="#22cac5"/>
        <path id="Trazado_874230" data-name="Trazado 874230" d="M40.829,89.453s0-4.118,5.762-9.88,9.476-9.057,9.476-9.057,2.884,9.475-2.474,15.237A100.756,100.756,0,0,1,40.829,96.9Z" fill="#22cac5"/>
        <path id="Trazado_874231" data-name="Trazado 874231" d="M40.731,97.542s.585-4.076-4.306-10.6-8.089-10.319-8.089-10.319-4.18,8.967.286,15.44a101.406,101.406,0,0,0,11.057,12.82Z" fill="#22cac5"/>
        <path id="Trazado_874232" data-name="Trazado 874232" d="M35.046,121.5s0-4.118,5.762-9.88,9.476-9.057,9.476-9.057,2.884,9.475-2.474,15.237a100.756,100.756,0,0,1-12.764,11.148Z" fill="#22cac5"/>
        <path id="Trazado_874233" data-name="Trazado 874233" d="M38.892,143.219s-1.038-3.985,3.087-11.036,6.869-11.148,6.869-11.148,5.184,8.438,1.47,15.37A101.306,101.306,0,0,1,40.78,150.4Z" fill="#22cac5"/>
        <path id="Trazado_874234" data-name="Trazado 874234" d="M49.921,17.919A117.427,117.427,0,0,1,48.339,30.7C46.061,42.479,40.362,50.08,38.084,60.712S42.348,85.056,40.6,98.719s-7.072,21.257-5.574,30.377,9.5,33.805,9.5,33.805" fill="none" stroke="#263238" stroke-linecap="round" stroke-linejoin="round" stroke-width="1.177"/>
        <line id="Línea_670" data-name="Línea 670" y1="4.773" x2="6.215" transform="translate(48.98 23.925)" fill="none" stroke="#263238" stroke-linecap="round" stroke-linejoin="round" stroke-width="1.177"/>
        <line id="Línea_671" data-name="Línea 671" x1="2.599" y1="4.626" transform="translate(46.667 18.582)" fill="none" stroke="#263238" stroke-linecap="round" stroke-linejoin="round" stroke-width="1.177"/>
        <path id="Trazado_874235" data-name="Trazado 874235" d="M38.432,60.2s5.2-3.9,10.549-7.8" fill="none" stroke="#263238" stroke-linecap="round" stroke-linejoin="round" stroke-width="1.177"/>
        <path id="Trazado_874236" data-name="Trazado 874236" d="M41.031,52.059s-4.334-8.5-9.246-14.137" fill="none" stroke="#263238" stroke-linecap="round" stroke-linejoin="round" stroke-width="1.177"/>
        <path id="Trazado_874237" data-name="Trazado 874237" d="M41.031,95.312A64.514,64.514,0,0,1,52.179,80.43" fill="none" stroke="#263238" stroke-linecap="round" stroke-linejoin="round" stroke-width="1.177"/>
        <path id="Trazado_874238" data-name="Trazado 874238" d="M40.021,101.1a73.261,73.261,0,0,0-5.638-10.716C31.347,85.9,30.9,85.321,30.9,85.321" fill="none" stroke="#263238" stroke-linecap="round" stroke-linejoin="round" stroke-width="1.177"/>
        <path id="Trazado_874239" data-name="Trazado 874239" d="M35.046,129.069a69.087,69.087,0,0,1,4.682-9.476,60.94,60.94,0,0,1,6.069-7.949" fill="none" stroke="#263238" stroke-linecap="round" stroke-linejoin="round" stroke-width="1.177"/>
        <path id="Trazado_874240" data-name="Trazado 874240" d="M40.773,150.389a17.664,17.664,0,0,1,1.561-9.12c2.166-4.188,4.619-9.685,5.636-11.845" fill="none" stroke="#263238" stroke-linecap="round" stroke-linejoin="round" stroke-width="1.177"/>
        <path id="Trazado_874241" data-name="Trazado 874241" d="M11.643,73.964s-.453-2.578,2.543-6.821S19.14,60.42,19.14,60.42s2.836,5.622.1,9.823a64.334,64.334,0,0,1-6.8,8.361Z" fill="#22cac5"/>
        <path id="Trazado_874242" data-name="Trazado 874242" d="M19.683,89.188S19.23,86.6,22.219,82.36s4.961-6.709,4.961-6.709,2.835,5.629.1,9.823a64.118,64.118,0,0,1-6.8,8.361Z" fill="#22cac5"/>
        <path id="Trazado_874243" data-name="Trazado 874243" d="M12.632,78.326s-.7-2.522-5.253-5.044S0,69.38,0,69.38s-.111,6.271,4.181,8.9a64.817,64.817,0,0,0,9.754,4.578Z" fill="#22cac5"/>
        <path id="Trazado_874244" data-name="Trazado 874244" d="M22.268,96.274s-.982-2.432-5.755-4.466-7.748-3.094-7.748-3.094.551,6.271,5.079,8.41a64.691,64.691,0,0,0,10.18,3.532Z" fill="#22cac5"/>
        <path id="Trazado_874245" data-name="Trazado 874245" d="M24.671,117.252s-.446-2.585-4.689-5.574-6.926-4.654-6.926-4.654-.78,6.271,3.2,9.287a64.3,64.3,0,0,0,9.211,5.574Z" fill="#22cac5"/>
        <path id="Trazado_874246" data-name="Trazado 874246" d="M25.6,122.31s-.808-2.494,1.547-7.114,3.957-7.35,3.957-7.35,3.6,5.17,1.5,9.712a64.529,64.529,0,0,1-5.574,9.239Z" fill="#22cac5"/>
        <path id="Trazado_874247" data-name="Trazado 874247" d="M32.844,143.143s.3-2.606,4.361-5.832,6.647-5.037,6.647-5.037,1.136,6.194-2.668,9.455a64.968,64.968,0,0,1-8.876,6.1Z" fill="#22cac5"/>
        <path id="Trazado_874248" data-name="Trazado 874248" d="M31.771,136.719s-.446-2.585-4.689-5.574-6.919-4.654-6.919-4.654-.78,6.271,3.2,9.287a64.17,64.17,0,0,0,9.218,5.574Z" fill="#22cac5"/>
        <path id="Trazado_874249" data-name="Trazado 874249" d="M31.715,150.758s.223-2.613-3.121-6.577-5.518-6.271-5.518-6.271-2.34,5.853.745,9.8a64.857,64.857,0,0,0,7.5,7.755Z" fill="#22cac5"/>
        <path id="Trazado_874250" data-name="Trazado 874250" d="M11.2,73.358A74.116,74.116,0,0,0,13.58,81.21c2.7,7.135,7.1,11.28,9.684,17.7s0,15.725,2.55,24.1,6.745,12.541,6.779,18.449S30.308,163.7,30.308,163.7" fill="none" stroke="#263238" stroke-linecap="round" stroke-linejoin="round" stroke-width="1.177"/>
        <line id="Línea_672" data-name="Línea 672" x1="4.41" y1="2.313" transform="translate(8.55 77.72)" fill="none" stroke="#263238" stroke-linecap="round" stroke-linejoin="round" stroke-width="1.177"/>
        <line id="Línea_673" data-name="Línea 673" y1="3.184" x2="1.129" transform="translate(12.186 73.442)" fill="none" stroke="#263238" stroke-linecap="round" stroke-linejoin="round" stroke-width="1.177"/>
        <path id="Trazado_874251" data-name="Trazado 874251" d="M23,98.643s-3.686-1.881-7.462-3.748" fill="none" stroke="#263238" stroke-linecap="round" stroke-linejoin="round" stroke-width="1.177"/>
        <path id="Trazado_874252" data-name="Trazado 874252" d="M20.484,93.863A52.976,52.976,0,0,1,24.748,84" fill="none" stroke="#263238" stroke-linecap="round" stroke-linejoin="round" stroke-width="1.177"/>
        <path id="Trazado_874253" data-name="Trazado 874253" d="M25.18,120.945a40.965,40.965,0,0,0-8.6-8.124" fill="none" stroke="#263238" stroke-linecap="round" stroke-linejoin="round" stroke-width="1.177"/>
        <path id="Trazado_874254" data-name="Trazado 874254" d="M26.441,124.463a46.286,46.286,0,0,1,2.369-7.316c1.393-3.142,1.63-3.553,1.63-3.553" fill="none" stroke="#263238" stroke-linecap="round" stroke-linejoin="round" stroke-width="1.177"/>
        <path id="Trazado_874255" data-name="Trazado 874255" d="M32.4,145.923A38.447,38.447,0,0,1,37.143,141a25.583,25.583,0,0,0,3.079-2.682" fill="none" stroke="#263238" stroke-linecap="round" stroke-linejoin="round" stroke-width="1.177"/>
        <path id="Trazado_874256" data-name="Trazado 874256" d="M32.593,141.464a44.423,44.423,0,0,0-3.964-5.435,39,39,0,0,0-4.668-4.326" fill="none" stroke="#263238" stroke-linecap="round" stroke-linejoin="round" stroke-width="1.177"/>
        <path id="Trazado_874257" data-name="Trazado 874257" d="M31.318,155.461a11.237,11.237,0,0,0-1.965-5.574c-1.818-2.4-3.957-5.574-4.821-6.821" fill="none" stroke="#263238" stroke-linecap="round" stroke-linejoin="round" stroke-width="1.177"/>
        <path id="Trazado_874258" data-name="Trazado 874258" d="M50.52,191.865H24.26a1.958,1.958,0,0,1-1.958-1.958l-3.769-29.06H56.247l-3.769,29.06a1.958,1.958,0,0,1-1.958,1.958" fill="#263238"/>
        <path id="Trazado_874259" data-name="Trazado 874259" d="M55.913,165.766H18.533a2.937,2.937,0,1,1-.007-5.873H55.913a2.946,2.946,0,0,1,2.954,2.94v.007a2.954,2.954,0,0,1-2.954,2.926" fill="#263238"/>
      </g>
    </g>
    <path id="Trazado_873608" data-name="Trazado 873608" d="M96.685,0A33.754,33.754,0,0,1,62.97,33.715,33.754,33.754,0,0,1,29.253,0H0A63.04,63.04,0,0,0,62.97,62.969,63.04,63.04,0,0,0,125.938,0Z" transform="translate(195.578 1239)" fill="#fdb641"/>
    <g id="Grupo_1099864" data-name="Grupo 1099864" transform="translate(530.612 1458)">
      <path id="Trazado_873607" data-name="Trazado 873607" d="M77.114,50.222a26.891,26.891,0,0,0-53.782,0H0a50.223,50.223,0,0,1,100.446,0Z" fill="#fdb641"/>
      <path id="Trazado_873610" data-name="Trazado 873610" d="M20.721,0A23.909,23.909,0,0,0,44.6,23.882V44.6A44.653,44.653,0,0,1,0,0Z" transform="translate(8.407 5.287)" fill="#201144"/>
    </g>
    <g id="Grupo_1100229" data-name="Grupo 1100229" transform="translate(200.611 1239)">
      <g id="Grupo_1100228" data-name="Grupo 1100228" clip-path="url(#clip-path-2)">
        <g id="Grupo_1100227" data-name="Grupo 1100227">
          <g id="Grupo_1100226" data-name="Grupo 1100226" clip-path="url(#clip-path-2)">
            <path id="Trazado_874152" data-name="Trazado 874152" d="M209.313,234.519a115.352,115.352,0,0,1-28.683,24.759,101.2,101.2,0,0,1-10.476,5.466c-24.812,11.156-53.091,11.879-79.541,5.466-55.6-13.475-85.1-62.557-88.847-117.041-1.01-14.73-3.265-30.629,2.7-44.636,5.913-13.89,18.027-22.7,31.672-28.758,9.9-4.4,20.6-7.37,30.321-9.784a78,78,0,0,1,52.474,5.413c11.433,5.424,19.579,14.815,29.194,22.781,1.021.84,2.042,1.68,3.073,2.51a286.961,286.961,0,0,0,30.587,21.494c16.166,9.858,32.714,19.165,43.041,35.724,16.463,26.385,2.563,55.122-15.517,76.605" transform="translate(-0.063 -8.576)" fill="#22cac5"/>
            <g id="Grupo_1100189" data-name="Grupo 1100189" transform="translate(0.435 59.131)" opacity="0.4">
              <g id="Grupo_1100188" data-name="Grupo 1100188">
                <g id="Grupo_1100187" data-name="Grupo 1100187" clip-path="url(#clip-path-4)">
                  <path id="Trazado_874153" data-name="Trazado 874153" d="M209.313,234.519a115.352,115.352,0,0,1-28.683,24.759,101.2,101.2,0,0,1-10.476,5.466c-24.812,11.156-53.091,11.879-79.541,5.466-55.6-13.475-85.1-62.557-88.847-117.041-1.01-14.73-3.265-30.629,2.7-44.636,5.913-13.89,18.027-22.7,31.672-28.758,9.9-4.4,20.6-7.37,30.321-9.784a78,78,0,0,1,52.474,5.413c11.433,5.424,19.579,14.815,29.194,22.781,1.021.84,2.042,1.68,3.073,2.51a286.961,286.961,0,0,0,30.587,21.494c16.166,9.858,32.714,19.165,43.041,35.724,16.463,26.385,2.563,55.122-15.517,76.605" transform="translate(-0.498 -67.707)" fill="#fff"/>
                </g>
              </g>
            </g>
            <path id="Trazado_874154" data-name="Trazado 874154" d="M151.2,100.694q-1.546-1.243-3.073-2.509c-9.617-7.962-17.763-17.354-29.193-22.778A78,78,0,0,0,66.46,69.994c-23.115,5.737-51.79,14.57-61.993,38.542-5.962,14.007-3.71,29.9-2.7,44.631,3.745,54.487,33.239,103.569,88.843,117.046,30.259,7.333,62.9,5.327,90.021-10.937a115.17,115.17,0,0,0,28.674-24.757c18.081-21.482,31.989-50.221,15.526-76.606-10.329-16.556-26.876-25.861-43.047-35.72A287.382,287.382,0,0,1,151.2,100.694Z" transform="translate(-0.063 -8.576)" fill="none" stroke="#263238" stroke-miterlimit="10" stroke-width="1"/>
            <path id="Trazado_874155" data-name="Trazado 874155" d="M74.621,216.732a79.832,79.832,0,0,0-13.421,5.4" transform="translate(-7.752 -27.451)" fill="none" stroke="#263238" stroke-linecap="round" stroke-linejoin="round" stroke-width="1"/>
            <path id="Trazado_874156" data-name="Trazado 874156" d="M106.138,210.556A142.345,142.345,0,0,0,86,213.738" transform="translate(-10.893 -26.669)" fill="none" stroke="#263238" stroke-linecap="round" stroke-linejoin="round" stroke-width="1"/>
            <path id="Trazado_874157" data-name="Trazado 874157" d="M93.914,207.827s-26.1-15.18-57.592-3.013" transform="translate(-4.601 -25.343)" fill="none" stroke="#263238" stroke-linecap="round" stroke-linejoin="round" stroke-width="1"/>
            <g id="Grupo_1100192" data-name="Grupo 1100192" transform="translate(13.93 59.131)" opacity="0.1">
              <g id="Grupo_1100191" data-name="Grupo 1100191">
                <g id="Grupo_1100190" data-name="Grupo 1100190" clip-path="url(#clip-path-5)">
                  <path id="Trazado_874158" data-name="Trazado 874158" d="M211.27,234.519a115.352,115.352,0,0,1-28.683,24.759,101.2,101.2,0,0,1-10.476,5.466,81.358,81.358,0,0,1-8.36-3.063c-16.293-7-29.97-18.8-43.339-30.459-8.061-7.019-16.25-14.145-25.9-18.75a59.585,59.585,0,0,0-41.786-3.436,46.954,46.954,0,0,1,27.63-15.208c-6.892-6.275-16.495-8.912-25.822-9.082s-14.463.978-23.567,3.02c3.041-5.605,11.135-10.677,17.516-10.529a157.347,157.347,0,0,1-18.144-1.286c-8.243-1.33-11.922-11.018-13.156-19.261C13.785,134,17.23,109.8,29.62,90.5A67.4,67.4,0,0,1,38.1,79.777c9.9-4.4,20.6-7.37,30.321-9.784a78,78,0,0,1,52.474,5.413c11.433,5.424,19.579,14.815,29.194,22.781,1.021.84,2.042,1.68,3.073,2.51a286.961,286.961,0,0,0,30.587,21.494c16.166,9.858,32.714,19.165,43.041,35.724,16.463,26.385,2.563,55.122-15.517,76.605" transform="translate(-15.95 -67.707)"/>
                </g>
              </g>
            </g>
            <path id="Trazado_874159" data-name="Trazado 874159" d="M248.042,257.975a168.622,168.622,0,0,0,15.339,11.305c10.387.7,5.729,13.254,5.729,13.254l-8.891,5.713s-15.186-12.07-23.473-15.99,11.295-14.283,11.295-14.283" transform="translate(-29.727 -32.675)" fill="#fff"/>
            <g id="Grupo_1100195" data-name="Grupo 1100195" transform="translate(31.65 56.785)" opacity="0.3">
              <g id="Grupo_1100194" data-name="Grupo 1100194">
                <g id="Grupo_1100193" data-name="Grupo 1100193" clip-path="url(#clip-path-6)">
                  <path id="Trazado_874160" data-name="Trazado 874160" d="M149.151,101.382s-1.426-14.089-3.693-18.048l-34.48-7.046V73.62s.8-4.65-6.891-7.557-23.7.872-27.829,4-2.618,8.505-2.618,8.505S59.746,85.606,53.5,88.282a158.3,158.3,0,0,0-14.916,7.86s-2.824,32.376-2.271,39.9-.449,14.594.193,18.761,1.154,6.536,5.526,10.08,8.333,8.777,19.788,3.587l-1.6-1.264,75.405-25.354Z" transform="translate(-36.24 -65.021)"/>
                </g>
              </g>
            </g>
            <path id="Trazado_874161" data-name="Trazado 874161" d="M149.151,101.382s-1.426-14.089-3.693-18.048l-34.48-7.046V73.62s.8-4.65-6.891-7.557-23.7.872-27.829,4-2.618,8.505-2.618,8.505S59.746,85.606,53.5,88.282a158.3,158.3,0,0,0-14.916,7.86s-2.824,32.376-2.271,39.9-.449,14.594.193,18.761,1.154,6.536,5.526,10.08,8.333,8.777,19.788,3.587l-1.6-1.264,75.405-25.354Z" transform="translate(-4.59 -8.236)" fill="#22cac5"/>
            <g id="Grupo_1100198" data-name="Grupo 1100198" transform="translate(31.65 56.785)" opacity="0.05">
              <g id="Grupo_1100197" data-name="Grupo 1100197">
                <g id="Grupo_1100196" data-name="Grupo 1100196" clip-path="url(#clip-path-6)">
                  <path id="Trazado_874162" data-name="Trazado 874162" d="M149.151,101.382s-1.426-14.089-3.693-18.048l-34.48-7.046V73.62s.8-4.65-6.891-7.557-23.7.872-27.829,4-2.618,8.505-2.618,8.505S59.746,85.606,53.5,88.282a158.3,158.3,0,0,0-14.916,7.86s-2.824,32.376-2.271,39.9-.449,14.594.193,18.761,1.154,6.536,5.526,10.08,8.333,8.777,19.788,3.587l-1.6-1.264,75.405-25.354Z" transform="translate(-36.24 -65.021)"/>
                </g>
              </g>
            </g>
            <g id="Grupo_1100201" data-name="Grupo 1100201" transform="translate(35.408 76.799)" opacity="0.1">
              <g id="Grupo_1100200" data-name="Grupo 1100200">
                <g id="Grupo_1100199" data-name="Grupo 1100199" clip-path="url(#clip-path-8)">
                  <path id="Trazado_874163" data-name="Trazado 874163" d="M146.456,87.937H132.031a5.73,5.73,0,0,0-5.652,4.791l-7.111,42.824s-9.788.815-16.722,5.876S78.556,110.407,51.6,110.389c0,0,7.756,17.725,9.477,31.873,0,0-16.847-1.833-19.644,4.759s1.272,18.951,8.394,14.17,13.8-12.784,18.6-7.765,26.024,7.765,26.024,7.765l32.725-16.44,12.691-5.967Z" transform="translate(-40.543 -87.937)"/>
                </g>
              </g>
            </g>
            <g id="Grupo_1100204" data-name="Grupo 1100204" transform="translate(68.557 55.6)" opacity="0.4">
              <g id="Grupo_1100203" data-name="Grupo 1100203">
                <g id="Grupo_1100202" data-name="Grupo 1100202" clip-path="url(#clip-path-9)">
                  <path id="Trazado_874164" data-name="Trazado 874164" d="M105.456,63.664s8.195,2.273,9.521,5.02,1.19,9.711,1.19,9.711a33.68,33.68,0,0,1-8.814,12.122l-6.117-12.122.548,13.752s-11.6-1.931-16.517-5.64L80.346,82.8s-2.117-6.962-1.817-9.349S87.7,66.272,87.7,66.272Z" transform="translate(-78.499 -63.664)" fill="#fff"/>
                </g>
              </g>
            </g>
            <path id="Trazado_874165" data-name="Trazado 874165" d="M259.561,301.362c-.224-.5,3.365-6.838.555-13.3s-7.292-3.968-7.292-3.968-12.759-8.119-18.123-10.684a92.111,92.111,0,0,1-11.134-6.62l-5.666,7.63,5.237,16.212Z" transform="translate(-27.599 -33.792)" fill="#22cac5"/>
            <path id="Trazado_874166" data-name="Trazado 874166" d="M257.352,281.452l16.386,10.015s11.516-7.392,17.014-12.494,17.79-15.958,17.79-15.958l7.846-10.58s-5.453-6.742-14.535-1.324c-11.739,7-26.051,17.131-35.6,17.033,0,0,1.884,11.73-8.9,13.308" transform="translate(-32.596 -31.539)" fill="#22cac5"/>
            <path id="Trazado_874167" data-name="Trazado 874167" d="M102.055,15.178s7.436,11.248,8.789,14.891,2.444,9.033,2.169,11.624-2.989,16.488-4.393,16.893L107.3,60.077l.845,5.886s-5.816,10.059-22.918,2.686c0,0-.667-11.743-2.745-15.427s-5.189.7-8.3-9.947,6.81-21.786,6.81-21.786Z" transform="translate(-9.32 -1.922)" fill="#fff"/>
            <g id="Grupo_1100207" data-name="Grupo 1100207" transform="translate(239.175 217.615)" opacity="0.5">
              <g id="Grupo_1100206" data-name="Grupo 1100206">
                <g id="Grupo_1100205" data-name="Grupo 1100205" clip-path="url(#clip-path-10)">
                  <path id="Trazado_874168" data-name="Trazado 874168" d="M311.4,249.175s-8.419,1.461-11.155,6.448-7.981,14.257-9.773,18.739-16.607,15.3-16.607,15.3l1.967,1.824s12.056-7.453,19.326-14.535,23.322-24.9,23.322-24.9-1.146-1.146-7.079-2.879" transform="translate(-273.862 -249.175)" fill="#fff"/>
                </g>
              </g>
            </g>
            <g id="Grupo_1100210" data-name="Grupo 1100210" transform="translate(190.302 237.833)" opacity="0.5">
              <g id="Grupo_1100209" data-name="Grupo 1100209">
                <g id="Grupo_1100208" data-name="Grupo 1100208" clip-path="url(#clip-path-11)">
                  <path id="Trazado_874169" data-name="Trazado 874169" d="M219.98,272.326l-2.079,2.8,6.406,13.294,35.254,12.672,1.635-5.165s.545-5.258-11.83-9.218-19.92-6.609-23.44-9.348-5.947-5.035-5.947-5.035" transform="translate(-217.901 -272.326)" fill="#fff"/>
                </g>
              </g>
            </g>
            <path id="Trazado_874170" data-name="Trazado 874170" d="M84.056,157.616s-10.8-1.62-15.835,7.21S63.7,177.48,63.7,177.48s7.131,6.481,16.938,6.149,24.1-11.635,28.756-15.291,16.393-14.128,24.4-11.967l.884-7.573s-.778-3.4-7.63-2.482-9.538,4.823-11.741,4.823-4.3-2.125-8.763,5.459c0,0-15.572,2.763-22.485,1.018" transform="translate(-8.066 -18.512)" fill="#fff"/>
            <path id="Trazado_874171" data-name="Trazado 874171" d="M103.08,33.705a29.658,29.658,0,0,0,.978,4.18,4.768,4.768,0,0,0,.914,1.844,5.463,5.463,0,0,0,3.358,1.287.846.846,0,0,1,.546.227.8.8,0,0,1,.128.521,6.961,6.961,0,0,1-1.183,3.858" transform="translate(-13.056 -4.269)" fill="none" stroke="#263238" stroke-linecap="round" stroke-linejoin="round" stroke-width="1"/>
            <g id="Grupo_1100213" data-name="Grupo 1100213" transform="translate(192.38 228.809)" opacity="0.1">
              <g id="Grupo_1100212" data-name="Grupo 1100212">
                <g id="Grupo_1100211" data-name="Grupo 1100211" clip-path="url(#clip-path-12)">
                  <path id="Trazado_874172" data-name="Trazado 874172" d="M227.528,261.993l-7.247,9.024s7.951,7.342,16.18,10.064,22.627,7.88,25.036,11.822l-.927-4.745s-22.519-13.816-27.7-17.114a11.936,11.936,0,0,1-5.347-9.05" transform="translate(-220.281 -261.993)"/>
                </g>
              </g>
            </g>
            <g id="Grupo_1100216" data-name="Grupo 1100216" transform="translate(224.756 217.615)" opacity="0.1">
              <g id="Grupo_1100215" data-name="Grupo 1100215">
                <g id="Grupo_1100214" data-name="Grupo 1100214" clip-path="url(#clip-path-13)">
                  <path id="Trazado_874173" data-name="Trazado 874173" d="M257.352,281.474l14.419,8.191s7.1-4.854,10.609-8.47,7.793-7.565,10.44-15.611c3.658-11.122,14.141-16.408,14.141-16.408s-14.577,6.859-22.165,12.249-14.985,7.629-19.28,7.264c0,0,3.45,10.921-8.164,12.784" transform="translate(-257.352 -249.175)"/>
                </g>
              </g>
            </g>
            <path id="Trazado_874174" data-name="Trazado 874174" d="M97.253,49.621s5.667,4.444,11.557,2.778c0,0-5.556,11-11.557-2.778" transform="translate(-12.318 -6.285)" fill="#fff"/>
            <path id="Trazado_874175" data-name="Trazado 874175" d="M97.253,49.621s5.667,4.444,11.557,2.778C108.81,52.4,103.254,63.4,97.253,49.621Z" transform="translate(-12.318 -6.285)" fill="none" stroke="#263238" stroke-linecap="round" stroke-linejoin="round" stroke-width="1"/>
            <path id="Trazado_874176" data-name="Trazado 874176" d="M96.724,38.32c.163,1.224-.2,2.283-.822,2.366s-1.251-.843-1.414-2.066.2-2.283.821-2.366,1.251.843,1.415,2.066" transform="translate(-11.963 -4.591)" fill="#263238"/>
            <path id="Trazado_874177" data-name="Trazado 874177" d="M110.814,35.777c.163,1.224-.2,2.283-.822,2.366s-1.251-.843-1.414-2.066.2-2.283.821-2.366,1.251.843,1.415,2.066" transform="translate(-13.748 -4.269)" fill="#263238"/>
            <path id="Trazado_874178" data-name="Trazado 874178" d="M95.211,32.625s-3.3-1.7-5.656,1.946" transform="translate(-11.343 -4.082)" fill="none" stroke="#263238" stroke-linecap="round" stroke-linejoin="round" stroke-width="1"/>
            <path id="Trazado_874179" data-name="Trazado 874179" d="M105.706,29.891s3.486-3,5.513,0" transform="translate(-13.389 -3.617)" fill="none" stroke="#263238" stroke-linecap="round" stroke-linejoin="round" stroke-width="1"/>
            <path id="Trazado_874180" data-name="Trazado 874180" d="M82.166,45.11s-2.125-3.137-4.351-3.036-3.138,3.238-2.328,6.274,4.149,7.286,6.679,6.881a5.609,5.609,0,0,0,3.643-2.024" transform="translate(-9.524 -5.329)" fill="none" stroke="#263238" stroke-linecap="round" stroke-linejoin="round" stroke-width="1"/>
            <path id="Trazado_874181" data-name="Trazado 874181" d="M104.846,18.086c2.389,1.976,4.909,4.141,6.158,7.054,1.065,2.48,1.307,5.225,2.28,7.742,1.038,2.684,2.181,5.491,2.266,8.416a35.821,35.821,0,0,1-1.056,8.026,44.226,44.226,0,0,1-1.62,6.712,11.883,11.883,0,0,1-6.271,6.554c-2.123,1.083-5.659,2.639-7.953,1.172-1.337-.856-3.343-3.369-5.014-5.67" transform="translate(-11.86 -2.291)" fill="none" stroke="#263238" stroke-linecap="round" stroke-linejoin="round" stroke-width="1"/>
            <path id="Trazado_874182" data-name="Trazado 874182" d="M83.177,57.138s3.754,9.207,2.843,15.683" transform="translate(-10.535 -7.237)" fill="none" stroke="#263238" stroke-linecap="round" stroke-linejoin="round" stroke-width="1"/>
            <path id="Trazado_874183" data-name="Trazado 874183" d="M79.755,38.235A3.632,3.632,0,0,0,81.211,35c-.141-1.417-1.124-2.725-.928-4.135a7.529,7.529,0,0,1,.751-1.946,8.13,8.13,0,0,0-.452-7.349s11.927.558,17.519-3,9.846-12.642,6.468-16.988S94.606,3.162,89.734,3.819,67.479,7.244,64.713,13.96s1.449,9.093,1.58,15.476.125,18.477,9.677,17.369c0,0-3.571-4.62-1.093-9.382,1.688-2.028,4.878.812,4.878.812" transform="translate(-8.078 0)" fill="#263238"/>
            <path id="Trazado_874184" data-name="Trazado 874184" d="M108.016,10.451a14.965,14.965,0,0,1,5.713,10.487c.532,4.788,9.025,14.087,2.9,19.392,0,0-1.428-5.637-2.266-8.415s-1.907-7.847-3.316-9.618-8.868-7.825-8.868-7.825Z" transform="translate(-12.942 -1.324)" fill="#263238"/>
            <path id="Trazado_874185" data-name="Trazado 874185" d="M83.676,74.054s5.886,3.872,16.82,4.034l1.278,14.664S89.485,91.813,80.335,83.4c0,0-2.469-6.54-1.817-9.349s6.509-5.6,6.509-5.6" transform="translate(-9.931 -8.67)" fill="none" stroke="#263238" stroke-linecap="round" stroke-linejoin="round" stroke-width="1"/>
            <path id="Trazado_874186" data-name="Trazado 874186" d="M111.61,67.2l.352,5.22a21.676,21.676,0,0,1-8.263,5.376l6.846,13.035s8.16-6.354,8.975-13.035c0,0,.067-6.843-1.351-8.8s-6.611-2.877-6.611-2.877" transform="translate(-13.134 -8.374)" fill="none" stroke="#263238" stroke-linecap="round" stroke-linejoin="round" stroke-width="1"/>
            <g id="Grupo_1100219" data-name="Grupo 1100219" transform="translate(64.905 3.595)" opacity="0.8">
              <g id="Grupo_1100218" data-name="Grupo 1100218">
                <g id="Grupo_1100217" data-name="Grupo 1100217" clip-path="url(#clip-path-14)">
                  <path id="Trazado_874187" data-name="Trazado 874187" d="M74.818,18.879c.886-2.195,3.263-3.455,5.6-3.847s4.721-.1,7.086-.164a18.177,18.177,0,0,0,9.254-2.6,12.418,12.418,0,0,0,5.593-7.65" transform="translate(-74.382 -4.179)" fill="none" stroke="#fff" stroke-linecap="round" stroke-linejoin="round" stroke-width="1"/>
                </g>
              </g>
            </g>
            <g id="Grupo_1100222" data-name="Grupo 1100222" transform="translate(59.268 6.36)" opacity="0.8">
              <g id="Grupo_1100221" data-name="Grupo 1100221">
                <g id="Grupo_1100220" data-name="Grupo 1100220" clip-path="url(#clip-path-15)">
                  <path id="Trazado_874188" data-name="Trazado 874188" d="M68.363,18.858c1.48-4.485,6.265-7.249,10.972-7.648,2.331-.2,4.688.078,7.011-.2S91.087,9.782,92.3,7.781" transform="translate(-67.927 -7.345)" fill="none" stroke="#fff" stroke-linecap="round" stroke-linejoin="round" stroke-width="1"/>
                </g>
              </g>
            </g>
            <path id="Trazado_874189" data-name="Trazado 874189" d="M61.828,170.431c-11.335,5.886-15.388-.169-21.709-5.182S37.938,151.3,36.63,136.91s1.962-38.8,1.962-38.8,2.834-.653,10.682-5.454S73.649,80.531,73.649,80.531" transform="translate(-4.6 -10.2)" fill="none" stroke="#263238" stroke-linecap="round" stroke-linejoin="round" stroke-width="1"/>
            <path id="Trazado_874190" data-name="Trazado 874190" d="M74.682,157.725s-1.8-5.7-6.888-5.857-13.1,2.141-18.806,12.948" transform="translate(-6.205 -19.235)" fill="none" stroke="#263238" stroke-linecap="round" stroke-linejoin="round" stroke-width="1"/>
            <path id="Trazado_874191" data-name="Trazado 874191" d="M67.17,151.26a2.619,2.619,0,0,1-.917-.218,22.091,22.091,0,0,0-13.049-.59" transform="translate(-6.739 -18.966)" fill="none" stroke="#263238" stroke-linecap="round" stroke-linejoin="round" stroke-width="1"/>
            <path id="Trazado_874192" data-name="Trazado 874192" d="M49.861,109.582C59.1,119.8,63.612,133.319,67.883,146.416" transform="translate(-6.315 -13.88)" fill="none" stroke="#263238" stroke-linecap="round" stroke-linejoin="round" stroke-width="1"/>
            <path id="Trazado_874193" data-name="Trazado 874193" d="M121.816,77.922s16.771,4,24.959,4.951,9.522,2.1,9.522,2.1l1.523,5.713" transform="translate(-15.429 -9.87)" fill="none" stroke="#263238" stroke-linecap="round" stroke-linejoin="round" stroke-width="1"/>
            <path id="Trazado_874194" data-name="Trazado 874194" d="M202.332,89.328l-57.11,2.2-4.666,58.735h9.784l49.586-11.107,6.238-48.41Z" transform="translate(-17.803 -11.314)" fill="#fff"/>
            <path id="Trazado_874195" data-name="Trazado 874195" d="M143.96,152.4l62.456-59.872-6.06,47.026Z" transform="translate(-18.234 -11.72)" fill="#22cac5"/>
            <g id="Grupo_1100225" data-name="Grupo 1100225" transform="translate(125.726 80.811)" opacity="0.7">
              <g id="Grupo_1100224" data-name="Grupo 1100224">
                <g id="Grupo_1100223" data-name="Grupo 1100223" clip-path="url(#clip-path-16)">
                  <path id="Trazado_874196" data-name="Trazado 874196" d="M143.96,152.4l62.456-59.872-6.06,47.026Z" transform="translate(-143.96 -92.531)" fill="#fff"/>
                </g>
              </g>
            </g>
            <path id="Trazado_874197" data-name="Trazado 874197" d="M143.96,150.623l4.991-56.651,57.643-3.026-6.238,48.411Z" transform="translate(-18.234 -11.519)" fill="none" stroke="#263238" stroke-linecap="round" stroke-linejoin="round" stroke-width="1"/>
            <path id="Trazado_874198" data-name="Trazado 874198" d="M186.857,121.4c-.39,3.449-2.232,6.073-4.115,5.86s-3.093-3.182-2.7-6.63,2.232-6.073,4.115-5.86,3.093,3.181,2.7,6.63" transform="translate(-22.794 -14.536)" fill="#263238"/>
            <path id="Trazado_874199" data-name="Trazado 874199" d="M201.662,146.373s26.392-.75,34.647,4.7,13.095,32.777,11.956,47.3-11.1,47.823-11.1,47.823L218.09,224.556s-9.394-34.16-4.27-47.539c0,0-25.335,1.424-35.3-1.707,0,0-8.936-14.626-24.252-19.469Z" transform="translate(-19.54 -18.535)" fill="#263238"/>
            <path id="Trazado_874200" data-name="Trazado 874200" d="M232.671,247.926a130.392,130.392,0,0,1-18.144-20.919,171.965,171.965,0,0,0-35.118-38.628c-10.581-8.582-12.974-22.557-26.024-29.565-21.611-11.593-40.3,11.443-47.284,16.1s-19.09,9.912-19.09,9.912,4.414,16.559,17.389,18.559,26.109-6.988,32.352-2.658,10.8,23.62,31.31,34.936c16.761,9.243,39.595,18.261,51.379,24.334,2.637,1.361,4.577,2.8,6.062,3.605,4.07,2.218,8.419,4.836,12.521,7.419l14.139,8.612s14.189-8.393,19.639-16.132c.733-1.04,2.237-3.81,3.652-6.484,3.087-5.836,6.97-11.077,12.394-13.991,3.741-2.011,7.07-2.628,6.963-2.826-.361-.666-7.134-4.13-11.741-2.234-9.745,4.02-29.226,19.49-38.394,18.345A68.736,68.736,0,0,1,232.671,247.926Z" transform="translate(-11.021 -19.707)" fill="none" stroke="#263238" stroke-miterlimit="10" stroke-width="1"/>
            <path id="Trazado_874201" data-name="Trazado 874201" d="M232.672,247.926c-8.5,3.435-11.922,8.721-13.23,12.071-11.784-6.073-34.617-15.091-51.379-24.334-20.505-11.316-25.068-30.618-31.31-34.936s-19.378,4.658-32.352,2.658-17.384-18.563-17.384-18.563,12.1-5.246,19.089-9.9,23.1-27.7,47.281-16.1c13.358,6.405,15.442,20.983,26.024,29.565a171.965,171.965,0,0,1,35.118,38.628,128.138,128.138,0,0,0,18.144,20.919" transform="translate(-11.022 -19.707)" fill="#263238"/>
            <path id="Trazado_874202" data-name="Trazado 874202" d="M178.208,174.243s-6.54-13.294-17.034-15.873" transform="translate(-20.414 -20.059)" fill="none" stroke="#fff" stroke-linecap="round" stroke-linejoin="round" stroke-width="1"/>
            <path id="Trazado_874203" data-name="Trazado 874203" d="M131.577,146.211c-7.216-1.575-15.138,6.4-18.473,4.908-2.481-1.11-6.56,5.459-6.56,5.459A109.3,109.3,0,0,1,86.263,157.6c-9.719-.613-14.325,1.274-17.764,6.478l-4.8,12.718s12.667,11.368,26.2,4.745,31.509-26.552,43.893-26.483" transform="translate(-8.068 -18.493)" fill="none" stroke="#263238" stroke-linecap="round" stroke-linejoin="round" stroke-width="1"/>
            <path id="Trazado_874204" data-name="Trazado 874204" d="M256.722,283.858s11.85.974,9.068-13.177" transform="translate(-32.516 -34.284)" fill="none" stroke="#263238" stroke-miterlimit="10" stroke-width="1"/>
            <path id="Trazado_874205" data-name="Trazado 874205" d="M317.57,259.634c-.9,1.783-11.734,10.987-21.088,19.065.027-.126,2.586-5.056,3.71-7.161,2.482-4.648,8.91-17.391,21.151-19.065,1.737,1.045-3.773,7.161-3.773,7.161" transform="translate(-37.552 -31.978)" fill="#263238"/>
            <path id="Trazado_874206" data-name="Trazado 874206" d="M310.048,249.278c-12.374,2.471-15.184,18.324-19.579,25.1S273.861,290.3,273.861,290.3" transform="translate(-34.687 -31.573)" fill="none" stroke="#263238" stroke-miterlimit="10" stroke-width="1"/>
            <path id="Trazado_874207" data-name="Trazado 874207" d="M260.116,288.244c2.011,3.69,1.06,7.967,0,10.647a22.014,22.014,0,0,1-1.941,3.816c-17.518-2.879-35.037-12.291-35.037-12.291l-4.518-13.977-.72-2.235,6.8-9.157" transform="translate(-27.599 -33.571)" fill="none" stroke="#263238" stroke-miterlimit="10" stroke-width="1"/>
            <path id="Trazado_874208" data-name="Trazado 874208" d="M260.22,300.543a22,22,0,0,1-1.941,3.816c-17.518-2.879-35.037-12.291-35.037-12.291l-4.518-13.978a25.03,25.03,0,0,0,12.746,9.053c8.532,2.415,24.28,5.246,28.75,13.4" transform="translate(-27.703 -35.223)" fill="#263238"/>
            <path id="Trazado_874209" data-name="Trazado 874209" d="M140.555,148.215l4.666-56.691,57.11-2.2,3.832,1.413" transform="translate(-17.803 -11.314)" fill="none" stroke="#263238" stroke-linecap="round" stroke-linejoin="round" stroke-width="1"/>
            <path id="Trazado_874210" data-name="Trazado 874210" d="M266.966,275.193s7.811,1.393,13.807-3.5,15.668-15.956,15.668-15.956" transform="translate(-33.814 -32.391)" fill="none" stroke="#263238" stroke-miterlimit="10" stroke-width="1"/>
            <path id="Trazado_874211" data-name="Trazado 874211" d="M275.994,269.928s-1.883,2.839,0,8.54" transform="translate(-34.851 -34.189)" fill="none" stroke="#263238" stroke-linecap="round" stroke-linejoin="round" stroke-width="1"/>
            <path id="Trazado_874212" data-name="Trazado 874212" d="M282.382,266.841a11.646,11.646,0,0,0,.706,8.537" transform="translate(-35.703 -33.798)" fill="none" stroke="#263238" stroke-linecap="round" stroke-linejoin="round" stroke-width="1"/>
            <path id="Trazado_874213" data-name="Trazado 874213" d="M289.907,262.459s-1.582,4.745,0,8.93" transform="translate(-36.63 -33.243)" fill="none" stroke="#263238" stroke-linecap="round" stroke-linejoin="round" stroke-width="1"/>
            <path id="Trazado_874214" data-name="Trazado 874214" d="M226.549,263.694l-6.268,7.539a39.717,39.717,0,0,0,15.207,9.751c8.891,2.863,24.8,7.728,26.115,12.907" transform="translate(-27.901 -33.399)" fill="none" stroke="#263238" stroke-miterlimit="10" stroke-width="1"/>
          </g>
        </g>
      </g>
    </g>
    <g id="Grupo_1100231" data-name="Grupo 1100231" transform="translate(396.203 1228.33)">
      <g id="Grupo_1100230" data-name="Grupo 1100230" clip-path="url(#clip-path-17)">
        <path id="Trazado_874215" data-name="Trazado 874215" d="M229.233,33.818V152a8.95,8.95,0,0,1-8.951,8.951H9.451A8.95,8.95,0,0,1,.5,152V33.818a8.95,8.95,0,0,1,8.951-8.951H220.282a8.95,8.95,0,0,1,8.951,8.951" fill="#fff"/>
        <path id="Trazado_874216" data-name="Trazado 874216" d="M229.233,33.818v3.544H.5V33.818a8.95,8.95,0,0,1,8.951-8.951H220.282a8.95,8.95,0,0,1,8.951,8.951" fill="#22cac5"/>
        <rect id="Rectángulo_401601" data-name="Rectángulo 401601" width="228.733" height="136.086" rx="8.951" transform="translate(0.5 24.867)" fill="none" stroke="#263238" stroke-linecap="round" stroke-linejoin="round" stroke-width="1"/>
        <path id="Trazado_874217" data-name="Trazado 874217" d="M229.233,33.818v3.544H.5V33.818a8.95,8.95,0,0,1,8.951-8.951H220.282A8.95,8.95,0,0,1,229.233,33.818Z" fill="none" stroke="#263238" stroke-linecap="round" stroke-linejoin="round" stroke-width="1"/>
        <path id="Trazado_874218" data-name="Trazado 874218" d="M26.187,31.115A2.285,2.285,0,1,1,23.9,28.83a2.285,2.285,0,0,1,2.285,2.285" fill="#263238"/>
        <path id="Trazado_874219" data-name="Trazado 874219" d="M38.138,31.115a2.285,2.285,0,1,1-2.285-2.285,2.285,2.285,0,0,1,2.285,2.285" fill="#263238"/>
        <path id="Trazado_874220" data-name="Trazado 874220" d="M50.089,31.115A2.285,2.285,0,1,1,47.8,28.83a2.285,2.285,0,0,1,2.285,2.285" fill="#263238"/>
        <path id="Rectángulo_401602" data-name="Rectángulo 401602" d="M3.69,0H68.358a3.69,3.69,0,0,1,3.69,3.69V34.8a3.691,3.691,0,0,1-3.691,3.691H3.69A3.69,3.69,0,0,1,0,34.8V3.69A3.69,3.69,0,0,1,3.69,0Z" transform="translate(14.065 47.267)" fill="none" stroke="#263238" stroke-linecap="round" stroke-linejoin="round" stroke-width="1"/>
        <line id="Línea_647" data-name="Línea 647" x2="62.473" transform="translate(18.301 80.918)" fill="none" stroke="#263238" stroke-linecap="round" stroke-linejoin="round" stroke-width="1"/>
        <rect id="Rectángulo_401603" data-name="Rectángulo 401603" width="7.248" height="7.248" transform="translate(22.939 73.569)" fill="#22cac5"/>
        <rect id="Rectángulo_401604" data-name="Rectángulo 401604" width="7.248" height="7.248" transform="translate(22.939 73.569)" fill="none" stroke="#263238" stroke-miterlimit="10" stroke-width="1"/>
        <rect id="Rectángulo_401605" data-name="Rectángulo 401605" width="7.248" height="16.879" transform="translate(33.551 64.039)" fill="#22cac5"/>
        <rect id="Rectángulo_401606" data-name="Rectángulo 401606" width="7.248" height="16.879" transform="translate(33.551 64.039)" fill="none" stroke="#263238" stroke-miterlimit="10" stroke-width="1"/>
        <rect id="Rectángulo_401607" data-name="Rectángulo 401607" width="7.248" height="14.146" transform="translate(45.501 66.942)" fill="#22cac5"/>
        <rect id="Rectángulo_401608" data-name="Rectángulo 401608" width="7.248" height="14.146" transform="translate(45.501 66.942)" fill="none" stroke="#263238" stroke-miterlimit="10" stroke-width="1"/>
        <rect id="Rectángulo_401609" data-name="Rectángulo 401609" width="7.248" height="27.751" transform="translate(58.056 52.853)" fill="#22cac5"/>
        <rect id="Rectángulo_401610" data-name="Rectángulo 401610" width="7.248" height="27.751" transform="translate(58.056 52.853)" fill="none" stroke="#263238" stroke-miterlimit="10" stroke-width="1"/>
        <rect id="Rectángulo_401611" data-name="Rectángulo 401611" width="7.248" height="27.751" transform="translate(70.61 53.066)" fill="#22cac5"/>
        <rect id="Rectángulo_401612" data-name="Rectángulo 401612" width="7.248" height="27.751" transform="translate(70.61 53.066)" fill="none" stroke="#263238" stroke-miterlimit="10" stroke-width="1"/>
        <path id="Trazado_874221" data-name="Trazado 874221" d="M195.705,67.48a20.27,20.27,0,1,1-20.27-20.27,20.27,20.27,0,0,1,20.27,20.27" fill="#22cac5"/>
        <circle id="Elipse_11533" data-name="Elipse 11533" cx="20.27" cy="20.27" r="20.27" transform="translate(155.165 47.21)" fill="none" stroke="#263238" stroke-miterlimit="10" stroke-width="1"/>
        <path id="Trazado_874222" data-name="Trazado 874222" d="M177.1,80.125V82.2h-3.4V80.125a6.191,6.191,0,0,1-4.719-6.3v-.943l3.851-.416v.982c0,1.925.981,3.1,2.566,3.1a2.369,2.369,0,0,0,2.567-2.529c0-1.85-1.736-3.435-3.775-5.134-2.415-2-4.831-4.378-4.831-7.738,0-3.284,1.585-5.624,4.341-6.3V52.759h3.4v2.076c2.793.642,4.416,2.982,4.416,6.341v.68l-3.85.415v-.755c0-2.038-.793-3.095-2.189-3.095s-2.189.868-2.189,2.529c0,1.849,1.774,3.4,3.774,5.133,2.378,2.039,4.832,4.379,4.832,7.738a6.157,6.157,0,0,1-4.794,6.3" fill="#263238"/>
        <line id="Línea_648" data-name="Línea 648" x2="5.924" transform="translate(12.378 105.424)" fill="none" stroke="#263238" stroke-linecap="round" stroke-linejoin="round" stroke-width="1"/>
        <line id="Línea_649" data-name="Línea 649" x2="5.924" transform="translate(12.378 116.866)" fill="none" stroke="#263238" stroke-linecap="round" stroke-linejoin="round" stroke-width="1"/>
        <line id="Línea_650" data-name="Línea 650" x2="5.924" transform="translate(12.378 128.307)" fill="none" stroke="#263238" stroke-linecap="round" stroke-linejoin="round" stroke-width="1"/>
        <line id="Línea_651" data-name="Línea 651" x2="5.924" transform="translate(12.378 139.748)" fill="none" stroke="#263238" stroke-linecap="round" stroke-linejoin="round" stroke-width="1"/>
        <line id="Línea_652" data-name="Línea 652" y1="4.599" transform="translate(31.347 143.795)" fill="none" stroke="#263238" stroke-linecap="round" stroke-linejoin="round" stroke-width="1"/>
        <line id="Línea_653" data-name="Línea 653" y1="4.599" transform="translate(40.73 143.795)" fill="none" stroke="#263238" stroke-linecap="round" stroke-linejoin="round" stroke-width="1"/>
        <line id="Línea_654" data-name="Línea 654" y1="4.599" transform="translate(50.112 143.795)" fill="none" stroke="#263238" stroke-linecap="round" stroke-linejoin="round" stroke-width="1"/>
        <line id="Línea_655" data-name="Línea 655" y1="4.599" transform="translate(59.495 143.795)" fill="none" stroke="#263238" stroke-linecap="round" stroke-linejoin="round" stroke-width="1"/>
        <line id="Línea_656" data-name="Línea 656" y1="4.599" transform="translate(68.878 143.795)" fill="none" stroke="#263238" stroke-linecap="round" stroke-linejoin="round" stroke-width="1"/>
        <line id="Línea_657" data-name="Línea 657" y1="4.599" transform="translate(78.26 143.795)" fill="none" stroke="#263238" stroke-linecap="round" stroke-linejoin="round" stroke-width="1"/>
        <line id="Línea_658" data-name="Línea 658" y1="4.599" transform="translate(87.643 143.795)" fill="none" stroke="#263238" stroke-linecap="round" stroke-linejoin="round" stroke-width="1"/>
        <line id="Línea_659" data-name="Línea 659" y1="4.599" transform="translate(97.025 143.795)" fill="none" stroke="#263238" stroke-linecap="round" stroke-linejoin="round" stroke-width="1"/>
        <line id="Línea_660" data-name="Línea 660" y1="4.599" transform="translate(106.408 143.795)" fill="none" stroke="#263238" stroke-linecap="round" stroke-linejoin="round" stroke-width="1"/>
        <line id="Línea_661" data-name="Línea 661" y1="4.599" transform="translate(115.79 143.795)" fill="none" stroke="#263238" stroke-linecap="round" stroke-linejoin="round" stroke-width="1"/>
        <line id="Línea_662" data-name="Línea 662" y1="4.599" transform="translate(125.173 143.795)" fill="none" stroke="#263238" stroke-linecap="round" stroke-linejoin="round" stroke-width="1"/>
        <line id="Línea_663" data-name="Línea 663" y1="4.599" transform="translate(134.555 143.795)" fill="none" stroke="#263238" stroke-linecap="round" stroke-linejoin="round" stroke-width="1"/>
        <line id="Línea_664" data-name="Línea 664" y1="4.599" transform="translate(143.938 143.795)" fill="none" stroke="#263238" stroke-linecap="round" stroke-linejoin="round" stroke-width="1"/>
        <line id="Línea_665" data-name="Línea 665" y1="4.599" transform="translate(153.321 143.795)" fill="none" stroke="#263238" stroke-linecap="round" stroke-linejoin="round" stroke-width="1"/>
        <line id="Línea_666" data-name="Línea 666" y1="4.599" transform="translate(162.703 143.795)" fill="none" stroke="#263238" stroke-linecap="round" stroke-linejoin="round" stroke-width="1"/>
        <line id="Línea_667" data-name="Línea 667" y1="4.599" transform="translate(171.73 143.795)" fill="none" stroke="#263238" stroke-linecap="round" stroke-linejoin="round" stroke-width="1"/>
        <line id="Línea_668" data-name="Línea 668" y1="4.599" transform="translate(180.757 143.795)" fill="none" stroke="#263238" stroke-linecap="round" stroke-linejoin="round" stroke-width="1"/>
        <line id="Línea_669" data-name="Línea 669" y1="4.599" transform="translate(189.784 143.795)" fill="none" stroke="#263238" stroke-linecap="round" stroke-linejoin="round" stroke-width="1"/>
        <path id="Trazado_874223" data-name="Trazado 874223" d="M213.664,98.419v44.464c0,3.045-3.1,5.511-6.926,5.511H19.3a7.39,7.39,0,0,1-5.97-2.717,4.675,4.675,0,0,1-.956-2.794V98.419c0-3.045,3.1-5.511,6.926-5.511H206.738C210.564,92.908,213.664,95.374,213.664,98.419Z" fill="none" stroke="#92e3a9" stroke-linecap="round" stroke-linejoin="round" stroke-width="1"/>
        <path id="Trazado_874224" data-name="Trazado 874224" d="M156.62,12.313,96.788,92.908,73.9,123.729,48.913,107.813,18.332,148.394h-.443a5.5,5.5,0,0,1-4.75-2.717l34.367-45.611,24.973,15.9L89.591,92.908,151.976,8.873Z" fill="#263238"/>
        <path id="Trazado_874225" data-name="Trazado 874225" d="M141.437,13.335,163.434,0l-6.085,23.06-3.876-10.667Z" fill="#263238"/>
      </g>
    </g>
    <path id="Trazado_873609" data-name="Trazado 873609" d="M25.242,50.485h0V38.758A13.516,13.516,0,1,1,38.758,25.243H50.485A25.242,25.242,0,1,0,25.242,50.485" transform="translate(602.203 1296.234) rotate(-90)" fill="#201144"/>
    <path id="Trazado_873611" data-name="Trazado 873611" d="M29.765,64.07A34.344,34.344,0,0,1,64.07,29.765V0A64.143,64.143,0,0,0,0,64.07Z" transform="translate(200.611 1445)" fill="#201144"/>
  </g>
</svg>
