<svg xmlns="http://www.w3.org/2000/svg" width="400" height="247.03" viewBox="0 0 400 247.03">
  <g id="_43" data-name="43" transform="translate(-600.254 -385)">
    <rect id="Rectángulo_401447" data-name="Rectángulo 401447" width="400" height="246" transform="translate(600.254 385)" fill="#572b0a"/>
    <g id="Grupo_1100238" data-name="Grupo 1100238" transform="translate(666.816 385.445)">
      <g id="Grupo_1100240" data-name="Grupo 1100240" transform="translate(-3.562 0.554)">
        <path id="Trazado_874295" data-name="Trazado 874295" d="M115.429,166.613H32.948a13.442,13.442,0,0,1-13.4-13.4V143.061a13.441,13.441,0,0,1,13.4-13.4h82.481a13.441,13.441,0,0,1,13.4,13.4v10.151a13.441,13.441,0,0,1-13.4,13.4" transform="translate(-4.07 -50.938)" fill="#b15815"/>
        <path id="Trazado_874296" data-name="Trazado 874296" d="M116.043,164.422H45.713a9.288,9.288,0,0,1-9.26-9.26V151.98a9.288,9.288,0,0,1,9.26-9.26h70.329a9.288,9.288,0,0,1,9.26,9.26v3.181a9.287,9.287,0,0,1-9.26,9.26" transform="translate(-10.64 -56.014)" fill="#7b3d0e"/>
        <path id="Trazado_874297" data-name="Trazado 874297" d="M78.8,160.875H49.17a2.835,2.835,0,1,1,0-5.67H78.8a2.835,2.835,0,1,1,0,5.67" transform="translate(-14.481 -60.866)" fill="#2d1a14"/>
        <path id="Trazado_874298" data-name="Trazado 874298" d="M117.08,160.875h0a2.835,2.835,0,1,1,2.835-2.835,2.844,2.844,0,0,1-2.835,2.835" transform="translate(-40.873 -60.866)" fill="#ff6940"/>
        <path id="Trazado_874299" data-name="Trazado 874299" d="M132.781,160.875h0a2.835,2.835,0,1,1,2.835-2.835,2.844,2.844,0,0,1-2.835,2.835" transform="translate(-46.974 -60.866)" fill="#ff6940"/>
        <path id="Trazado_874300" data-name="Trazado 874300" d="M150.686,160.915h0a2.835,2.835,0,1,1,2.835-2.835,2.844,2.844,0,0,1-2.835,2.835" transform="translate(-53.933 -60.882)" fill="#ff9e00"/>
        <path id="Trazado_874301" data-name="Trazado 874301" d="M115.767,233.643H33.286a13.442,13.442,0,0,1-13.4-13.4V210.091a13.441,13.441,0,0,1,13.4-13.4h82.48a13.441,13.441,0,0,1,13.4,13.4v10.151a13.441,13.441,0,0,1-13.4,13.4" transform="translate(-4.201 -76.988)" fill="#b15815"/>
        <path id="Trazado_874302" data-name="Trazado 874302" d="M116.381,231.452H46.051a9.288,9.288,0,0,1-9.26-9.26V219.01a9.288,9.288,0,0,1,9.26-9.26h70.329a9.288,9.288,0,0,1,9.26,9.26v3.181a9.288,9.288,0,0,1-9.26,9.26" transform="translate(-10.772 -82.064)" fill="#7b3d0e"/>
        <path id="Trazado_874303" data-name="Trazado 874303" d="M79.137,227.9H49.508a2.835,2.835,0,0,1,0-5.67H79.137a2.835,2.835,0,1,1,0,5.67" transform="translate(-14.612 -86.916)" fill="#2d1a14"/>
        <path id="Trazado_874304" data-name="Trazado 874304" d="M117.418,227.9h0a2.835,2.835,0,1,1,2.835-2.835,2.844,2.844,0,0,1-2.835,2.835" transform="translate(-41.004 -86.916)" fill="#ff6940"/>
        <path id="Trazado_874305" data-name="Trazado 874305" d="M133.119,227.9h0a2.835,2.835,0,1,1,2.835-2.835,2.844,2.844,0,0,1-2.835,2.835" transform="translate(-47.106 -86.916)" fill="#ff6940"/>
        <path id="Trazado_874306" data-name="Trazado 874306" d="M151.025,227.945h0a2.835,2.835,0,1,1,2.835-2.835,2.844,2.844,0,0,1-2.835,2.835" transform="translate(-54.064 -86.932)" fill="#ff9e00"/>
        <path id="Trazado_874307" data-name="Trazado 874307" d="M116.1,300.674H33.624a13.442,13.442,0,0,1-13.4-13.4V277.122a13.441,13.441,0,0,1,13.4-13.4H116.1a13.441,13.441,0,0,1,13.4,13.4v10.151a13.441,13.441,0,0,1-13.4,13.4" transform="translate(-4.332 -103.039)" fill="#b15815"/>
        <path id="Trazado_874308" data-name="Trazado 874308" d="M116.719,298.482H46.389a9.288,9.288,0,0,1-9.26-9.26V286.04a9.288,9.288,0,0,1,9.26-9.26h70.329a9.288,9.288,0,0,1,9.26,9.26v3.181a9.288,9.288,0,0,1-9.26,9.26" transform="translate(-10.903 -108.114)" fill="#7b3d0e"/>
        <path id="Trazado_874309" data-name="Trazado 874309" d="M79.476,294.935H49.847a2.835,2.835,0,1,1,0-5.67H79.476a2.835,2.835,0,1,1,0,5.67" transform="translate(-14.744 -112.966)" fill="#2d1a14"/>
        <path id="Trazado_874310" data-name="Trazado 874310" d="M117.756,294.935h0a2.835,2.835,0,1,1,2.835-2.835,2.844,2.844,0,0,1-2.835,2.835" transform="translate(-41.135 -112.966)" fill="#ff6940"/>
        <path id="Trazado_874311" data-name="Trazado 874311" d="M133.457,294.935h0a2.835,2.835,0,1,1,2.835-2.835,2.844,2.844,0,0,1-2.835,2.835" transform="translate(-47.237 -112.966)" fill="#ff6940"/>
        <path id="Trazado_874312" data-name="Trazado 874312" d="M151.363,294.975h0a2.835,2.835,0,1,1,2.835-2.835,2.844,2.844,0,0,1-2.835,2.835" transform="translate(-54.196 -112.982)" fill="#ff9e00"/>
        <path id="Trazado_874313" data-name="Trazado 874313" d="M116.443,367.7H33.962a13.441,13.441,0,0,1-13.4-13.4V344.152a13.441,13.441,0,0,1,13.4-13.4h82.481a13.441,13.441,0,0,1,13.4,13.4V354.3a13.441,13.441,0,0,1-13.4,13.4" transform="translate(-4.464 -129.089)" fill="#b15815"/>
        <path id="Trazado_874314" data-name="Trazado 874314" d="M117.057,365.512H46.727a9.288,9.288,0,0,1-9.26-9.26V353.07a9.288,9.288,0,0,1,9.26-9.26h70.329a9.288,9.288,0,0,1,9.26,9.26v3.181a9.288,9.288,0,0,1-9.26,9.26" transform="translate(-11.034 -134.164)" fill="#7b3d0e"/>
        <path id="Trazado_874315" data-name="Trazado 874315" d="M79.814,361.966H50.185a2.835,2.835,0,1,1,0-5.67H79.814a2.835,2.835,0,1,1,0,5.67" transform="translate(-14.875 -139.017)" fill="#2d1a14"/>
        <path id="Trazado_874316" data-name="Trazado 874316" d="M118.094,361.966h0a2.835,2.835,0,1,1,2.835-2.835,2.844,2.844,0,0,1-2.835,2.835" transform="translate(-41.267 -139.017)" fill="#ff6940"/>
        <path id="Trazado_874317" data-name="Trazado 874317" d="M133.8,361.966h0a2.835,2.835,0,1,1,2.835-2.835,2.844,2.844,0,0,1-2.835,2.835" transform="translate(-47.369 -139.017)" fill="#ff6940"/>
        <path id="Trazado_874318" data-name="Trazado 874318" d="M151.7,362h0a2.835,2.835,0,1,1,2.835-2.835A2.844,2.844,0,0,1,151.7,362" transform="translate(-54.327 -139.032)" fill="#ff9e00"/>
        <path id="Trazado_874319" data-name="Trazado 874319" d="M22.692,127.848a3.157,3.157,0,1,1-3.157-3.157A3.157,3.157,0,0,1,22.692,127.848Z" transform="translate(-2.838 -49.008)" fill="none" stroke="#c9c7ff" stroke-linecap="round" stroke-linejoin="round" stroke-width="1.346"/>
        <path id="Trazado_874320" data-name="Trazado 874320" d="M201.624,128.293a3.157,3.157,0,1,1-3.157-3.157A3.157,3.157,0,0,1,201.624,128.293Z" transform="translate(-72.377 -49.181)" fill="none" stroke="#c9c7ff" stroke-linecap="round" stroke-linejoin="round" stroke-width="1.346"/>
        <path id="Trazado_874321" data-name="Trazado 874321" d="M341.514,79.035a23.036,23.036,0,0,0-17.439-32.606,23.031,23.031,0,0,0-28.191-11.944,35.939,35.939,0,0,0-57.7,42.849A12.824,12.824,0,0,0,240.33,102.8h94.512a12.817,12.817,0,0,0,6.672-23.766" transform="translate(-84.888 -8.462)" fill="#dfbba0"/>
        <path id="Trazado_874322" data-name="Trazado 874322" d="M360.388,213.144l.127-7.814-29.1-.426-.127,7.815-42.781-.625-.636,47.472,71.879,1.051.513-39.863.078-4.8Z" transform="translate(-108.35 -80.181)" fill="#211d1d"/>
        <rect id="Rectángulo_401615" data-name="Rectángulo 401615" width="46.032" height="52.669" transform="translate(170.161 98.593)" fill="#fce8e8"/>
        <rect id="Rectángulo_401616" data-name="Rectángulo 401616" width="40.766" height="43.891" transform="translate(170.161 98.592)" fill="#211d1d"/>
        <path id="Trazado_874323" data-name="Trazado 874323" d="M377.284,228.862l3.522-7.72-29.249-.43-3.522,7.719-43-.632-17.7,38.8,72.252,1.063,14.274-31.286,2.165-4.747Z" transform="translate(-108.138 -86.324)" fill="#ff9e00"/>
        <path id="Trazado_874324" data-name="Trazado 874324" d="M296.784,182.48h-53.9V134.859L263.442,114.3h33.341Z" transform="translate(-90.867 -44.971)" fill="#fce8e8"/>
        <path id="Trazado_874325" data-name="Trazado 874325" d="M263.443,134.859H242.887L263.443,114.3Z" transform="translate(-90.867 -44.97)" fill="#211d1d"/>
        <path id="Trazado_874326" data-name="Trazado 874326" d="M295.416,156.145h-41.8a1.028,1.028,0,0,1,0-2.055h41.8a1.028,1.028,0,0,1,0,2.055" transform="translate(-94.638 -60.433)" fill="#9d92f5"/>
        <path id="Trazado_874327" data-name="Trazado 874327" d="M307.423,146.619h-23.79a.784.784,0,0,1-.781-.781v-.493a.784.784,0,0,1,.781-.781h23.79a.784.784,0,0,1,.781.781v.493a.784.784,0,0,1-.781.781" transform="translate(-106.398 -56.731)" fill="#9d92f5"/>
        <path id="Trazado_874328" data-name="Trazado 874328" d="M307.423,137.092h-23.79a.784.784,0,0,1-.781-.781v-.493a.784.784,0,0,1,.781-.781h23.79a.784.784,0,0,1,.781.781v.493a.784.784,0,0,1-.781.781" transform="translate(-106.398 -53.029)" fill="#9d92f5"/>
        <path id="Trazado_874329" data-name="Trazado 874329" d="M295.854,135.037H283.632a.784.784,0,0,0-.781.781v.493a.784.784,0,0,0,.781.781h12.221Z" transform="translate(-106.398 -53.029)" fill="#ff6940"/>
        <path id="Trazado_874330" data-name="Trazado 874330" d="M307.423,127.565h-23.79a.783.783,0,0,1-.781-.781v-.493a.784.784,0,0,1,.781-.782h23.79a.784.784,0,0,1,.781.782v.493a.783.783,0,0,1-.781.781" transform="translate(-106.398 -49.326)" fill="#9d92f5"/>
        <path id="Trazado_874331" data-name="Trazado 874331" d="M295.416,167.353h-41.8a1.028,1.028,0,0,1,0-2.055h41.8a1.028,1.028,0,0,1,0,2.055" transform="translate(-94.638 -64.789)" fill="#9d92f5"/>
        <path id="Trazado_874332" data-name="Trazado 874332" d="M295.416,178.56h-41.8a1.028,1.028,0,0,1,0-2.055h41.8a1.028,1.028,0,1,1,0,2.055" transform="translate(-94.638 -69.144)" fill="#9d92f5"/>
        <path id="Trazado_874333" data-name="Trazado 874333" d="M295.416,189.768h-41.8a1.028,1.028,0,0,1,0-2.055h41.8a1.028,1.028,0,1,1,0,2.055" transform="translate(-94.638 -73.5)" fill="#9d92f5"/>
        <path id="Trazado_874334" data-name="Trazado 874334" d="M295.416,200.976h-41.8a1.028,1.028,0,0,1,0-2.055h41.8a1.028,1.028,0,1,1,0,2.055" transform="translate(-94.638 -77.856)" fill="#9d92f5"/>
        <path id="Trazado_874335" data-name="Trazado 874335" d="M265.092,154.09H253.619a1.028,1.028,0,0,0,0,2.055h11.474Z" transform="translate(-94.638 -60.433)" fill="#ff6940"/>
        <path id="Trazado_874336" data-name="Trazado 874336" d="M270.388,176.505h-16.77a1.028,1.028,0,1,0,0,2.055h16.77Z" transform="translate(-94.638 -69.144)" fill="#ff6940"/>
        <path id="Trazado_874337" data-name="Trazado 874337" d="M261.666,198.921h-8.047a1.028,1.028,0,0,0,0,2.055h8.047Z" transform="translate(-94.638 -77.856)" fill="#ff6940"/>
        <path id="Trazado_874338" data-name="Trazado 874338" d="M295.416,211.063h-41.8a1.028,1.028,0,0,1,0-2.055h41.8a1.028,1.028,0,0,1,0,2.055" transform="translate(-94.638 -81.776)" fill="#9d92f5"/>
        <line id="Línea_674" data-name="Línea 674" x2="72.387" transform="translate(193.33 149.287)" fill="none" stroke="#2d1a14" stroke-linecap="round" stroke-linejoin="round" stroke-width="0.949"/>
        <path id="Trazado_874339" data-name="Trazado 874339" d="M208.933,190.1h12.526V319.3" transform="translate(-77.671 -74.429)" fill="none" stroke="#2d1a14" stroke-linecap="round" stroke-linejoin="round" stroke-width="0.922"/>
        <path id="Trazado_874340" data-name="Trazado 874340" d="M208.933,238.788h18.562v99.436" transform="translate(-77.671 -93.349)" fill="none" stroke="#2d1a14" stroke-linecap="round" stroke-linejoin="round" stroke-width="0.985"/>
        <path id="Trazado_874341" data-name="Trazado 874341" d="M208.933,293.9h24.049v65.741" transform="translate(-77.671 -114.768)" fill="none" stroke="#2d1a14" stroke-linecap="round" stroke-linejoin="round" stroke-width="0.911"/>
        <rect id="Rectángulo_401617" data-name="Rectángulo 401617" width="9.234" height="4.188" transform="translate(131.262 112.921)" fill="#fce8e8"/>
        <rect id="Rectángulo_401618" data-name="Rectángulo 401618" width="9.234" height="4.188" transform="translate(131.262 143.344)" fill="#fce8e8"/>
        <rect id="Rectángulo_401619" data-name="Rectángulo 401619" width="9.234" height="4.188" transform="translate(131.262 177.04)" fill="#fce8e8"/>
        <path id="Trazado_874342" data-name="Trazado 874342" d="M361.378,363.951l13.388-45.9a7.566,7.566,0,0,0-7.162-9.743H294.784a7.469,7.469,0,0,0-6.9,4.686l-19.645,50.192" transform="translate(-100.719 -120.366)" fill="#5231fd"/>
        <path id="Trazado_874343" data-name="Trazado 874343" d="M360.791,362.281l12.026-40.7a6.725,6.725,0,0,0-6.433-8.64H300.975a6.708,6.708,0,0,0-6.2,4.155L277.131,361.6" transform="translate(-104.175 -122.166)" fill="#211d1d"/>
        <path id="Trazado_874344" data-name="Trazado 874344" d="M210.991,398.816H336.954a2.058,2.058,0,1,0,0-4.115H210.991a2.058,2.058,0,1,0,0,4.115" transform="translate(-77.671 -153.942)" fill="#211d1d"/>
        <path id="Trazado_874345" data-name="Trazado 874345" d="M333.895,398.816h50.823a2.058,2.058,0,0,0,0-4.115H333.895a2.058,2.058,0,1,0,0,4.115" transform="translate(-125.435 -153.942)" fill="#7b3d0e"/>
        <path id="Trazado_874346" data-name="Trazado 874346" d="M296.936,398.547H312.8a.611.611,0,1,0,0-1.222H296.936a.611.611,0,0,0,0,1.222" transform="translate(-111.634 -154.962)" fill="#ff6940"/>
        <path id="Trazado_874347" data-name="Trazado 874347" d="M227.783,397.533a.839.839,0,1,0,.839-.839.839.839,0,0,0-.839.839" transform="translate(-84.997 -154.716)" fill="#ff6940"/>
        <path id="Trazado_874348" data-name="Trazado 874348" d="M220.788,397.533a.839.839,0,1,0,.839-.839.839.839,0,0,0-.839.839" transform="translate(-82.278 -154.716)" fill="#ff6940"/>
        <path id="Trazado_874349" data-name="Trazado 874349" d="M358.138,376.623a2.881,2.881,0,1,1-2.881-2.881,2.881,2.881,0,0,1,2.881,2.881" transform="translate(-133.418 -145.797)" fill="#ff9e00"/>
        <line id="Línea_675" data-name="Línea 675" y2="26.749" transform="translate(221.839 204.077)" fill="none" stroke="#ff9e00" stroke-linecap="round" stroke-linejoin="round" stroke-width="0.897"/>
        <path id="Trazado_874350" data-name="Trazado 874350" d="M360,334.7v13.813l-8.2,7.037-8.309-4.241V339.64" transform="translate(-129.967 -130.624)" fill="none" stroke="#ff9e00" stroke-linecap="round" stroke-linejoin="round" stroke-width="0.897"/>
        <path id="Trazado_874351" data-name="Trazado 874351" d="M344.368,340.458a2.388,2.388,0,1,1-2.388-2.388,2.388,2.388,0,0,1,2.388,2.388" transform="translate(-128.45 -131.933)" fill="#ff9e00"/>
        <path id="Trazado_874352" data-name="Trazado 874352" d="M357.958,329.884a2.388,2.388,0,1,1-2.388-2.388,2.388,2.388,0,0,1,2.388,2.388" transform="translate(-133.731 -127.824)" fill="#ff9e00"/>
        <path id="Trazado_874353" data-name="Trazado 874353" d="M371.365,333.789a2.388,2.388,0,1,1-2.388-2.388,2.388,2.388,0,0,1,2.388,2.388" transform="translate(-138.942 -129.342)" fill="#ff9e00"/>
        <path id="Trazado_874354" data-name="Trazado 874354" d="M371.7,135.472a12.507,12.507,0,1,0,12.5,12.509,12.505,12.505,0,0,0-12.5-12.509m0,19.777a7.27,7.27,0,1,1,7.272-7.267,7.268,7.268,0,0,1-7.272,7.267" transform="translate(-136.066 -53.198)" fill="#211d1d"/>
        <path id="Trazado_874355" data-name="Trazado 874355" d="M380.239,133.4h-3.775l.915-6.406h2.4Z" transform="translate(-142.779 -49.902)" fill="#211d1d"/>
        <path id="Trazado_874356" data-name="Trazado 874356" d="M376.371,173.019h3.775l-.915,6.406h-2.4Z" transform="translate(-142.743 -67.79)" fill="#211d1d"/>
        <path id="Trazado_874357" data-name="Trazado 874357" d="M397.279,155.979V152.2l6.406.915v2.4Z" transform="translate(-150.868 -59.7)" fill="#211d1d"/>
        <path id="Trazado_874358" data-name="Trazado 874358" d="M357.658,152.111v3.775l-6.406-.915v-2.4Z" transform="translate(-132.981 -59.664)" fill="#211d1d"/>
        <path id="Trazado_874359" data-name="Trazado 874359" d="M389.857,168.332l2.669-2.669,3.882,5.176-1.7,1.7Z" transform="translate(-147.984 -64.931)" fill="#211d1d"/>
        <path id="Trazado_874360" data-name="Trazado 874360" d="M364.988,137.787l-2.669,2.669-3.882-5.176,1.7-1.7Z" transform="translate(-135.773 -52.463)" fill="#211d1d"/>
        <path id="Trazado_874361" data-name="Trazado 874361" d="M362.047,165.6l2.669,2.669-5.176,3.882-1.7-1.7Z" transform="translate(-135.541 -64.905)" fill="#211d1d"/>
        <path id="Trazado_874362" data-name="Trazado 874362" d="M392.593,140.728l-2.669-2.669,5.176-3.882,1.7,1.7Z" transform="translate(-148.01 -52.694)" fill="#211d1d"/>
        <path id="Trazado_874363" data-name="Trazado 874363" d="M386.694,135.4l-3.513-1.382,3.2-5.626,2.235.879Z" transform="translate(-145.389 -50.445)" fill="#211d1d"/>
        <path id="Trazado_874364" data-name="Trazado 874364" d="M368.863,170.639l3.513,1.382-3.2,5.626-2.236-.879Z" transform="translate(-139.079 -66.864)" fill="#211d1d"/>
        <path id="Trazado_874365" data-name="Trazado 874365" d="M394.9,162.434l1.382-3.513,5.626,3.2-.88,2.236Z" transform="translate(-149.943 -62.311)" fill="#211d1d"/>
        <path id="Trazado_874366" data-name="Trazado 874366" d="M359.656,144.6l-1.382,3.513-5.626-3.2.879-2.236Z" transform="translate(-133.523 -56)" fill="#211d1d"/>
        <path id="Trazado_874367" data-name="Trazado 874367" d="M383.728,171.834l3.461-1.507,1.718,6.238-2.2.959Z" transform="translate(-145.602 -66.743)" fill="#211d1d"/>
        <path id="Trazado_874368" data-name="Trazado 874368" d="M371.99,134.08l-3.461,1.507-1.719-6.238,2.2-.959Z" transform="translate(-139.027 -50.445)" fill="#211d1d"/>
        <path id="Trazado_874369" data-name="Trazado 874369" d="M358.34,159.467l1.507,3.461-6.238,1.719-.959-2.2Z" transform="translate(-133.524 -62.523)" fill="#211d1d"/>
        <path id="Trazado_874370" data-name="Trazado 874370" d="M396.095,147.73l-1.507-3.461,6.238-1.719.959,2.2Z" transform="translate(-149.822 -55.948)" fill="#211d1d"/>
        <path id="Trazado_874371" data-name="Trazado 874371" d="M208.182,73.469H107.923a13.717,13.717,0,0,1,0-27.435H208.182a13.717,13.717,0,0,1,0,27.435" transform="translate(-33.085 -18.439)" fill="#b15815"/>
        <path id="Trazado_874372" data-name="Trazado 874372" d="M135.393,52.272c-3.674-.755-7.912.223-10.912-2.029a8.115,8.115,0,0,1-2.89-5.442,15.076,15.076,0,0,1-.114-2.61,11.954,11.954,0,0,0,3.278-5.468,3.74,3.74,0,0,0,2.475.944,4.165,4.165,0,0,0,0-8.313,3.7,3.7,0,0,0-1.877.513q-.089-.8-.246-1.555a10.942,10.942,0,0,0,6.677-12.926c.488,2.125-1.2,4.275-3.254,5.018a11.694,11.694,0,0,1-6.451-.057,20.418,20.418,0,0,0-6.454-.842,8.52,8.52,0,0,0-5.905,3.372,8.232,8.232,0,0,0-1.378,6.644.362.362,0,0,0-.088.064,3.682,3.682,0,0,0-1.27-.23,4.165,4.165,0,0,0,0,8.313,3.745,3.745,0,0,0,2.48-.948,11.123,11.123,0,0,0,4.283,6.237,14.01,14.01,0,0,1-.124,1.845,8.115,8.115,0,0,1-2.89,5.442c-3,2.252-7.238,1.274-10.912,2.029-4.555.936-8.922,5.412-9.578,10.016h54.729c-.656-4.6-5.022-9.08-9.578-10.016" transform="translate(-31.544 -6.528)" fill="#211d1d"/>
        <path id="Trazado_874373" data-name="Trazado 874373" d="M231.036,58.944h-65a1.829,1.829,0,0,1,0-3.658h65a1.829,1.829,0,1,1,0,3.658" transform="translate(-60.288 -22.035)" fill="#572b0a"/>
        <path id="Trazado_874374" data-name="Trazado 874374" d="M240.1,72.43h-65a1.829,1.829,0,0,1,0-3.658h65a1.829,1.829,0,1,1,0,3.658" transform="translate(-63.811 -27.276)" fill="#572b0a"/>
        <path id="Trazado_874375" data-name="Trazado 874375" d="M381.906,45.356a27.945,27.945,0,0,1-7.835,19.4c-.134.143-.271.283-.409.42a28.028,28.028,0,1,1-19.819-47.882c.533,0,1.062.014,1.586.047a28.153,28.153,0,0,1,26.477,28.016" transform="translate(-123.081 -7.27)" fill="#5231fd"/>
        <path id="Trazado_874376" data-name="Trazado 874376" d="M379.408,32.361q-7.119,7.382-14.6,14.4c-8.644,8.121-17.576,15.918-26.614,23.592a27.947,27.947,0,0,0,40.294.68c.137-.137.275-.277.409-.42a27.931,27.931,0,0,0,.514-38.25" transform="translate(-127.905 -13.125)" fill="#211d1d"/>
        <path id="Trazado_874377" data-name="Trazado 874377" d="M399.744,45.356a27.945,27.945,0,0,1-7.835,19.4l-20.228-19.4V17.293l1.586.047a28.153,28.153,0,0,1,26.477,28.016" transform="translate(-140.92 -7.27)" fill="#ff6940"/>
        <path id="Trazado_874378" data-name="Trazado 874378" d="M372.48,63.961l19.739,18.931a27.951,27.951,0,0,0,7.83-18.931Z" transform="translate(-141.231 -25.406)" fill="#ff9e00"/>
        <path id="Trazado_874379" data-name="Trazado 874379" d="M363.759,67.735h0a12.462,12.462,0,1,1,12.462-12.462,12.5,12.5,0,0,1-12.462,12.462" transform="translate(-132.998 -17.187)" fill="#fff"/>
        <line id="Línea_676" data-name="Línea 676" x1="20.382" y1="12.552" transform="translate(190.545 19.236)" fill="none" stroke="#2d1a14" stroke-linecap="round" stroke-linejoin="round" stroke-width="0.922"/>
        <line id="Línea_677" data-name="Línea 677" y1="17.603" x2="16.221" transform="translate(240.678 3.098)" fill="none" stroke="#2d1a14" stroke-linecap="round" stroke-linejoin="round" stroke-width="0.922"/>
        <line id="Línea_678" data-name="Línea 678" x2="16.369" y2="8.701" transform="translate(246.411 46.328)" fill="none" stroke="#2d1a14" stroke-linecap="round" stroke-linejoin="round" stroke-width="0.922"/>
        <path id="Trazado_874380" data-name="Trazado 874380" d="M304.724,27.72a3.1,3.1,0,1,1-3.1-3.1,3.1,3.1,0,0,1,3.1,3.1" transform="translate(-112.49 -10.118)" fill="#fff"/>
        <path id="Trazado_874381" data-name="Trazado 874381" d="M304.724,27.72a3.1,3.1,0,1,1-3.1-3.1A3.1,3.1,0,0,1,304.724,27.72Z" transform="translate(-112.49 -10.118)" fill="none" stroke="#000" stroke-linecap="round" stroke-linejoin="round" stroke-width="1.795"/>
        <path id="Trazado_874382" data-name="Trazado 874382" d="M415.564,4a3.1,3.1,0,1,1-3.1-3.1,3.1,3.1,0,0,1,3.1,3.1" transform="translate(-155.566 -0.898)" fill="#fff"/>
        <path id="Trazado_874383" data-name="Trazado 874383" d="M415.564,4a3.1,3.1,0,1,1-3.1-3.1A3.1,3.1,0,0,1,415.564,4Z" transform="translate(-155.566 -0.898)" fill="none" stroke="#000" stroke-linecap="round" stroke-linejoin="round" stroke-width="1.795"/>
        <path id="Trazado_874384" data-name="Trazado 874384" d="M429.985,90.882a3.1,3.1,0,1,1-3.1-3.1,3.1,3.1,0,0,1,3.1,3.1" transform="translate(-161.17 -34.665)" fill="#fff"/>
        <path id="Trazado_874385" data-name="Trazado 874385" d="M429.985,90.882a3.1,3.1,0,1,1-3.1-3.1A3.1,3.1,0,0,1,429.985,90.882Z" transform="translate(-161.17 -34.665)" fill="none" stroke="#000" stroke-linecap="round" stroke-linejoin="round" stroke-width="1.795"/>
        <line id="Línea_679" data-name="Línea 679" x2="16.369" y2="8.701" transform="translate(238.412 61.953)" fill="none" stroke="#2d1a14" stroke-linecap="round" stroke-linejoin="round" stroke-width="0.922"/>
        <path id="Trazado_874386" data-name="Trazado 874386" d="M416.9,116.438a3.1,3.1,0,1,1-3.1-3.1,3.1,3.1,0,0,1,3.1,3.1" transform="translate(-156.086 -44.596)" fill="#fff"/>
        <path id="Trazado_874387" data-name="Trazado 874387" d="M416.9,116.438a3.1,3.1,0,1,1-3.1-3.1A3.1,3.1,0,0,1,416.9,116.438Z" transform="translate(-156.086 -44.596)" fill="none" stroke="#000" stroke-linecap="round" stroke-linejoin="round" stroke-width="1.795"/>
        <rect id="Rectángulo_401620" data-name="Rectángulo 401620" width="119.83" height="172.362" transform="translate(11.432 72.513)" fill="none" stroke="#c9c7ff" stroke-linecap="round" stroke-linejoin="round" stroke-width="1.346"/>
        <line id="Línea_680" data-name="Línea 680" x2="268.098" transform="translate(4.569 244.874)" fill="none" stroke="#2d1a14" stroke-linecap="round" stroke-linejoin="round" stroke-width="2.312"/>
        <path id="Trazado_874388" data-name="Trazado 874388" d="M24.2,87.851A12.358,12.358,0,0,1,11.86,75.507V49.7a12.344,12.344,0,1,1,24.688,0V75.507A12.358,12.358,0,0,1,24.2,87.851m0-48.194A10.054,10.054,0,0,0,14.162,49.7V75.507a10.042,10.042,0,1,0,20.084,0V49.7A10.053,10.053,0,0,0,24.2,39.657" transform="translate(-1.083 -15.066)" fill="#9d92f5"/>
        <path id="Trazado_874389" data-name="Trazado 874389" d="M34.247,74.255V89.847A10.054,10.054,0,0,1,24.2,99.89h0A10.053,10.053,0,0,1,14.162,89.847V74.255h-2.3V89.847a12.344,12.344,0,0,0,24.689,0V74.255Z" transform="translate(-1.083 -29.407)" fill="#2d1a14"/>
        <path id="Trazado_874390" data-name="Trazado 874390" d="M38.511,93.969A19.256,19.256,0,1,1,19.256,74.713,19.256,19.256,0,0,1,38.511,93.969" transform="translate(3.527 -29.585)" fill="#ff9e00"/>
        <circle id="Elipse_11535" data-name="Elipse 11535" cx="16.11" cy="16.11" r="16.11" transform="translate(0 64.384) rotate(-45)" fill="none" stroke="#2d1a14" stroke-linecap="round" stroke-linejoin="round" stroke-width="0.774"/>
        <path id="Trazado_874391" data-name="Trazado 874391" d="M29.3,106.515h0a3.462,3.462,0,1,1,3.462-3.462,3.472,3.472,0,0,1-3.462,3.462" transform="translate(-6.513 -39.254)" fill="#2d1a14"/>
        <path id="Trazado_874392" data-name="Trazado 874392" d="M29.383,114.338H26l1.693-2.933,1.693-2.933,1.693,2.933,1.693,2.933Z" transform="translate(-6.576 -42.705)" fill="#2d1a14"/>
      </g>
    </g>
  </g>
</svg>
