<svg xmlns="http://www.w3.org/2000/svg" width="83" height="83" viewBox="0 0 83 83">
  <g id="_45" data-name="45" transform="translate(-764.781 -2278.536)">
    <rect id="Rectángulo_401243" data-name="Rectángulo 401243" width="83" height="83" transform="translate(764.781 2278.536)" fill="none"/>
    <g id="Outline_ok" transform="translate(771.585 2284.032)">
      <path id="Trazado_874393" data-name="Trazado 874393" d="M56.957,72.008H13.436A3.436,3.436,0,0,1,10,68.572V4.436A3.436,3.436,0,0,1,13.436,1H47.794a1.145,1.145,0,0,1,.81.335L60.057,12.788a1.145,1.145,0,0,1,.336.81V68.572A3.436,3.436,0,0,1,56.957,72.008ZM13.436,3.291a1.145,1.145,0,0,0-1.145,1.145V68.572a1.145,1.145,0,0,0,1.145,1.145H56.957A1.145,1.145,0,0,0,58.1,68.572v-54.5L47.32,3.291Z" fill="#201144"/>
      <path id="Trazado_874394" data-name="Trazado 874394" d="M54.6,14.743H46.417A4.422,4.422,0,0,1,42,10.326V2.145a1.145,1.145,0,0,1,1.955-.81L55.408,12.788a1.145,1.145,0,0,1-.81,1.955ZM44.291,4.91v5.416a2.129,2.129,0,0,0,2.127,2.127h5.416Z" transform="translate(4.649 0)" fill="#201144"/>
      <path id="Trazado_874395" data-name="Trazado 874395" d="M33.308,41.485a1.145,1.145,0,0,1-.509-.115c-.4-.2-9.8-4.925-9.8-11.109V18.923a1.145,1.145,0,0,1,.982-1.133c1.718-.25,6.6-1.348,8.475-3.418a1.182,1.182,0,0,1,1.7,0c1.882,2.07,6.757,3.168,8.475,3.418a1.145,1.145,0,0,1,.988,1.133V30.261c0,6.178-9.4,10.907-9.8,11.109A1.145,1.145,0,0,1,33.308,41.485Zm-8.017-21.6V30.261c0,3.694,5.383,7.362,8.017,8.788,2.634-1.426,8.017-5.094,8.017-8.788V19.885c-1.8-.352-5.628-1.286-8.017-3.185C30.919,18.6,27.088,19.533,25.291,19.885Z" transform="translate(1.889 1.891)" fill="#201144"/>
      <path id="Trazado_874396" data-name="Trazado 874396" d="M30.436,31.162a1.145,1.145,0,0,1-.81-.335l-2.291-2.291a1.145,1.145,0,1,1,1.62-1.62L30.436,28.4,36.5,22.336a1.145,1.145,0,1,1,1.62,1.62l-6.872,6.872a1.145,1.145,0,0,1-.81.336Z" transform="translate(2.47 3.051)" fill="#201144"/>
      <path id="Trazado_874397" data-name="Trazado 874397" d="M46.342,44.291h-25.2a1.145,1.145,0,1,1,0-2.291h25.2a1.145,1.145,0,1,1,0,2.291Z" transform="translate(1.453 5.957)" fill="#201144"/>
      <path id="Trazado_874398" data-name="Trazado 874398" d="M46.342,48.291h-25.2a1.145,1.145,0,0,1,0-2.291h25.2a1.145,1.145,0,1,1,0,2.291Z" transform="translate(1.453 6.538)" fill="#201144"/>
      <path id="Trazado_874399" data-name="Trazado 874399" d="M39.47,52.291H21.145a1.145,1.145,0,0,1,0-2.291H39.47a1.145,1.145,0,0,1,0,2.291Z" transform="translate(1.453 7.119)" fill="#201144"/>
    </g>
  </g>
</svg>
