<svg xmlns="http://www.w3.org/2000/svg" xmlns:xlink="http://www.w3.org/1999/xlink" width="83" height="83" viewBox="0 0 83 83">
  <defs>
    <clipPath id="clip-path">
      <path id="path5577" d="M0-682.665H64.175v64.175H0Z" transform="translate(0 682.665)" fill="#201144"/>
    </clipPath>
  </defs>
  <g id="_47" data-name="47" transform="translate(-764.781 -2279)">
    <rect id="Rectángulo_401243" data-name="Rectángulo 401243" width="83" height="83" transform="translate(764.781 2279)" fill="none"/>
    <g id="g5571" transform="translate(773.781 2970.665)">
      <g id="g5573" transform="translate(0 -682.665)">
        <g id="g5575" clip-path="url(#clip-path)">
          <g id="g5581" transform="translate(12.057 30.143)">
            <path id="path5583" d="M-209.125-18.72a3.959,3.959,0,0,1-3.954-3.954V-48.8a3.959,3.959,0,0,1,3.954-3.954h8.8a3.928,3.928,0,0,1,2.8,1.158l2.253,2.253a2.061,2.061,0,0,0,1.467.608h.761a.94.94,0,0,1,.94.94.94.94,0,0,1-.94.94h-.761a3.929,3.929,0,0,1-2.8-1.158l-2.253-2.253a2.061,2.061,0,0,0-1.467-.607h-8.8A2.077,2.077,0,0,0-211.2-48.8v26.124a2.077,2.077,0,0,0,2.074,2.074.94.94,0,0,1,.94.94A.94.94,0,0,1-209.125-18.72Z" transform="translate(213.079 52.752)" fill="#201144"/>
          </g>
          <g id="g5585" transform="translate(35.166 34.162)">
            <path id="path5587" d="M-154.313-46.853a.94.94,0,0,1-.94-.94v-1a2.077,2.077,0,0,0-2.074-2.074h-12.057a.94.94,0,0,1-.94-.94.94.94,0,0,1,.94-.94h12.057a3.959,3.959,0,0,1,3.954,3.954v1A.94.94,0,0,1-154.313-46.853Z" transform="translate(170.325 52.752)" fill="#201144"/>
          </g>
          <g id="g5589" transform="translate(39.185 57.271)">
            <path id="path5591" d="M-76.844-8.12h-7.033a.94.94,0,0,1-.94-.94.94.94,0,0,1,.94-.94h7.033a.94.94,0,0,1,.94.94A.94.94,0,0,1-76.844-8.12Z" transform="translate(84.817 10)" fill="#201144"/>
          </g>
          <g id="g5593" transform="translate(41.195 53.252)">
            <path id="path5595" d="M-76.844-8.12h-7.033a.94.94,0,0,1-.94-.94.94.94,0,0,1,.94-.94h7.033a.94.94,0,0,1,.94.94A.94.94,0,0,1-76.844-8.12Z" transform="translate(84.817 10)" fill="#201144"/>
          </g>
          <g id="g5597" transform="translate(12.597 38.181)">
            <path id="path5599" d="M26.405-223.283H-6.589a.94.94,0,0,1-.94-.94.94.94,0,0,1,.94-.94H26.405a2.072,2.072,0,0,0,1.968-1.418l6.91-20.73-.061-.085H.608a2.072,2.072,0,0,0-1.968,1.418l-6.811,20.432a.94.94,0,0,1-1.189.595.94.94,0,0,1-.595-1.189l6.811-20.433a3.949,3.949,0,0,1,3.751-2.7H35.222a1.95,1.95,0,0,1,1.578.808,1.95,1.95,0,0,1,.267,1.752l-6.91,20.73A3.95,3.95,0,0,1,26.405-223.283Z" transform="translate(10.003 249.277)" fill="#201144"/>
          </g>
          <g id="g5601" transform="translate(2.009 0)">
            <path id="path5603" d="M-104.248-10h8.038a.94.94,0,0,1,.665.275L-90.522-4.7a.94.94,0,0,1,.275.665V8.021a1.947,1.947,0,0,1-1.945,1.945h-12.057a1.947,1.947,0,0,1-1.945-1.945V-8.055A1.947,1.947,0,0,1-104.248-10ZM-96.6-8.12h-7.649a.065.065,0,0,0-.065.065V8.021l12.122.065.063-11.734Z" transform="translate(106.193 10)" fill="#201144"/>
          </g>
          <g id="g5605" transform="translate(11.052 0)">
            <path id="path5607" d="M-57.477-56.537H-61.5a1.947,1.947,0,0,1-1.945-1.945V-62.5a.94.94,0,0,1,.94-.94.94.94,0,0,1,.94.94v4.019l4.084.065a.94.94,0,0,1,.94.94A.94.94,0,0,1-57.477-56.537Z" transform="translate(63.441 63.441)" fill="#201144"/>
          </g>
          <g id="g5609" transform="translate(6.029 9.043)">
            <path id="path5611" d="M-4.036-8.12H-9.06A.94.94,0,0,1-10-9.06.94.94,0,0,1-9.06-10h5.024a.94.94,0,0,1,.94.94A.94.94,0,0,1-4.036-8.12Z" transform="translate(10 10)" fill="#201144"/>
          </g>
          <g id="g5613" transform="translate(6.029 13.062)">
            <path id="path5615" d="M-4.036-8.12H-9.06A.94.94,0,0,1-10-9.06.94.94,0,0,1-9.06-10h5.024a.94.94,0,0,1,.94.94A.94.94,0,0,1-4.036-8.12Z" transform="translate(10 10)" fill="#201144"/>
          </g>
          <g id="g5617" transform="translate(24.114 0)">
            <path id="path5619" d="M-104.248-10h8.038a.94.94,0,0,1,.665.275L-90.522-4.7a.94.94,0,0,1,.275.665V8.021a1.947,1.947,0,0,1-1.945,1.945h-12.057a1.947,1.947,0,0,1-1.945-1.945V-8.055A1.947,1.947,0,0,1-104.248-10ZM-96.6-8.12h-7.649a.065.065,0,0,0-.065.065V8.021l12.122.065.063-11.734Z" transform="translate(106.193 10)" fill="#201144"/>
          </g>
          <g id="g5621" transform="translate(33.157 0)">
            <path id="path5623" d="M-57.477-56.537H-61.5a1.947,1.947,0,0,1-1.945-1.945V-62.5a.94.94,0,0,1,.94-.94.94.94,0,0,1,.94.94v4.019l4.084.065a.94.94,0,0,1,.94.94A.94.94,0,0,1-57.477-56.537Z" transform="translate(63.441 63.441)" fill="#201144"/>
          </g>
          <g id="g5625" transform="translate(28.133 9.043)">
            <path id="path5627" d="M-4.036-8.12H-9.06A.94.94,0,0,1-10-9.06.94.94,0,0,1-9.06-10h5.024a.94.94,0,0,1,.94.94A.94.94,0,0,1-4.036-8.12Z" transform="translate(10 10)" fill="#201144"/>
          </g>
          <g id="g5629" transform="translate(28.133 13.062)">
            <path id="path5631" d="M-4.036-8.12H-9.06A.94.94,0,0,1-10-9.06.94.94,0,0,1-9.06-10h5.024a.94.94,0,0,1,.94.94A.94.94,0,0,1-4.036-8.12Z" transform="translate(10 10)" fill="#201144"/>
          </g>
          <g id="g5633" transform="translate(46.219 0)">
            <path id="path5635" d="M-104.249-10h8.038a.94.94,0,0,1,.665.275L-90.523-4.7a.94.94,0,0,1,.275.665V8.021a1.947,1.947,0,0,1-1.945,1.945h-12.057a1.947,1.947,0,0,1-1.945-1.945V-8.055A1.947,1.947,0,0,1-104.249-10ZM-96.6-8.12h-7.649a.065.065,0,0,0-.065.065V8.021l12.122.065.063-11.734Z" transform="translate(106.194 10)" fill="#201144"/>
          </g>
          <g id="g5637" transform="translate(55.261 0)">
            <path id="path5639" d="M-57.477-56.537H-61.5a1.947,1.947,0,0,1-1.945-1.945V-62.5a.94.94,0,0,1,.94-.94.94.94,0,0,1,.94.94v4.019l4.084.065a.94.94,0,0,1,.94.94A.94.94,0,0,1-57.477-56.537Z" transform="translate(63.441 63.441)" fill="#201144"/>
          </g>
          <g id="g5641" transform="translate(50.238 9.043)">
            <path id="path5643" d="M-4.036-8.12H-9.06A.94.94,0,0,1-10-9.06.94.94,0,0,1-9.06-10h5.024a.94.94,0,0,1,.94.94A.94.94,0,0,1-4.036-8.12Z" transform="translate(10 10)" fill="#201144"/>
          </g>
          <g id="g5645" transform="translate(50.238 13.062)">
            <path id="path5647" d="M-4.036-8.12H-9.06A.94.94,0,0,1-10-9.06.94.94,0,0,1-9.06-10h5.024a.94.94,0,0,1,.94.94A.94.94,0,0,1-4.036-8.12Z" transform="translate(10 10)" fill="#201144"/>
          </g>
          <g id="g5649" transform="translate(31.147 26.124)">
            <path id="path5651" d="M-9.06,3.937A.94.94,0,0,1-10,3V-9.06A.94.94,0,0,1-9.06-10a.94.94,0,0,1,.94.94V3A.94.94,0,0,1-9.06,3.937Z" transform="translate(10 10)" fill="#201144"/>
          </g>
          <g id="g5653" transform="translate(33.157 18.086)">
            <path id="path5655" d="M9.026-66.22H-9.06a.94.94,0,0,1-.94-.94.94.94,0,0,1,.94-.94H9.026A1.071,1.071,0,0,0,10.1-69.17v-4.019a.94.94,0,0,1,.94-.94.94.94,0,0,1,.94.94v4.019A2.953,2.953,0,0,1,9.026-66.22Z" transform="translate(10 74.129)" fill="#201144"/>
          </g>
          <g id="g5657" transform="translate(9.043 18.086)">
            <path id="path5659" d="M11.035-2.091H-7.05A2.953,2.953,0,0,1-10-5.041V-9.06A.94.94,0,0,1-9.06-10a.94.94,0,0,1,.94.94v4.019A1.071,1.071,0,0,0-7.05-3.971H11.035a.94.94,0,0,1,.94.94A.94.94,0,0,1,11.035-2.091Z" transform="translate(10 10)" fill="#201144"/>
          </g>
          <g id="g5661" transform="translate(29.138 22.105)">
            <path id="path5663" d="M-49.8-31.376a2.953,2.953,0,0,1,2.95,2.95,2.953,2.953,0,0,1-2.95,2.95,2.953,2.953,0,0,1-2.95-2.95A2.953,2.953,0,0,1-49.8-31.376Zm0,4.019a1.071,1.071,0,0,0,1.069-1.069A1.071,1.071,0,0,0-49.8-29.5a1.071,1.071,0,0,0-1.069,1.069A1.071,1.071,0,0,0-49.8-27.357Z" transform="translate(52.752 31.376)" fill="#201144"/>
          </g>
          <g id="g5665" transform="translate(31.147 18.086)">
            <path id="path5667" d="M-9.06-46.853a.94.94,0,0,1-.94-.94v-4.019a.94.94,0,0,1,.94-.94.94.94,0,0,1,.94.94v4.019A.94.94,0,0,1-9.06-46.853Z" transform="translate(10 52.752)" fill="#201144"/>
          </g>
        </g>
      </g>
    </g>
  </g>
</svg>
