<svg xmlns="http://www.w3.org/2000/svg" xmlns:xlink="http://www.w3.org/1999/xlink" width="83" height="83" viewBox="0 0 83 83">
  <defs>
    <clipPath id="clip-path">
      <path id="path4335" d="M0-682.665H74.11v74.11H0Z" transform="translate(0 682.665)"/>
    </clipPath>
  </defs>
  <g id="_48" data-name="48" transform="translate(-764.781 -2279)">
    <rect id="Rectángulo_401243" data-name="Rectángulo 401243" width="83" height="83" transform="translate(764.781 2279)" fill="none"/>
    <g id="g4305" transform="translate(768.781 2965.666)">
      <g id="g4307" transform="translate(46.448 -625.806)">
        <path id="path4309" d="M-68.833-43.327a1.081,1.081,0,0,1-.552-.152l-7.3-4.323a1.086,1.086,0,0,1-.381-1.487,1.086,1.086,0,0,1,1.487-.381l7.3,4.323a1.086,1.086,0,0,1,.381,1.487A1.085,1.085,0,0,1-68.833-43.327Z" transform="translate(77.215 49.821)" fill="#201144"/>
      </g>
      <g id="g4311" transform="translate(43.828 -621.392)">
        <path id="path4313" d="M-53.064-33.985a1.081,1.081,0,0,1-.552-.152l-5.376-3.185a1.086,1.086,0,0,1-.381-1.487,1.086,1.086,0,0,1,1.487-.381L-52.51-36a1.086,1.086,0,0,1,.381,1.487A1.085,1.085,0,0,1-53.064-33.985Z" transform="translate(59.525 39.341)" fill="#201144"/>
      </g>
      <g id="g4315" transform="translate(41.595 -616.749)">
        <path id="path4317" d="M-26.217-18.078a1.08,1.08,0,0,1-.552-.152l-2.107-1.248a1.086,1.086,0,0,1-.381-1.487,1.086,1.086,0,0,1,1.487-.381l2.107,1.248a1.086,1.086,0,0,1,.381,1.487A1.085,1.085,0,0,1-26.217-18.078Z" transform="translate(29.408 21.498)" fill="#201144"/>
      </g>
      <g id="g4319" transform="translate(11.904 -662.716)">
        <path id="path4321" d="M26.581-7.829h-35.5A1.086,1.086,0,0,1-10-8.914,1.086,1.086,0,0,1-8.914-10h35.5a1.086,1.086,0,0,1,1.086,1.086A1.086,1.086,0,0,1,26.581-7.829Z" transform="translate(10 10)" fill="#201144"/>
      </g>
      <g id="g4323" transform="translate(11.904 -670.279)">
        <path id="path4325" d="M8.833-7.829H-8.914A1.086,1.086,0,0,1-10-8.914,1.086,1.086,0,0,1-8.914-10H8.833A1.086,1.086,0,0,1,9.919-8.914,1.086,1.086,0,0,1,8.833-7.829Z" transform="translate(10 10)" fill="#201144"/>
      </g>
      <g id="g4327" transform="translate(11.904 -656.014)">
        <path id="path4329" d="M26.581-7.829h-35.5A1.086,1.086,0,0,1-10-8.914,1.086,1.086,0,0,1-8.914-10h35.5a1.086,1.086,0,0,1,1.086,1.086A1.086,1.086,0,0,1,26.581-7.829Z" transform="translate(10 10)" fill="#201144"/>
      </g>
      <g id="g4331" transform="translate(0 -682.665)">
        <g id="g4333" clip-path="url(#clip-path)">
          <g id="g4339" transform="translate(42.759 0.305)">
            <path id="path4341" d="M3.166,4.252H-4.443A5.564,5.564,0,0,1-10-1.305V-8.914A1.086,1.086,0,0,1-8.914-10,1.086,1.086,0,0,1-7.829-8.914v7.609A3.39,3.39,0,0,0-4.443,2.081H3.166a1.086,1.086,0,0,1,0,2.171Z" transform="translate(10 10)" fill="#201144"/>
          </g>
          <g id="g4343" transform="translate(4.159 0)">
            <path id="path4345" d="M-462.74-239.341H-474.1a5.564,5.564,0,0,1-5.557-5.557v-57.6a5.564,5.564,0,0,1,5.557-5.557h32.725a4.445,4.445,0,0,1,3.163,1.31l10.4,10.4a4.444,4.444,0,0,1,1.31,3.163v18.568a1.086,1.086,0,0,1-1.086,1.086,1.086,1.086,0,0,1-1.086-1.086v-18.568a2.287,2.287,0,0,0-.674-1.628l-10.4-10.4a2.288,2.288,0,0,0-1.628-.674H-474.1a3.39,3.39,0,0,0-3.386,3.386v57.6a3.39,3.39,0,0,0,3.386,3.386h11.359a1.086,1.086,0,0,1,1.086,1.086A1.086,1.086,0,0,1-462.74-239.341Z" transform="translate(479.656 308.057)" fill="#201144"/>
          </g>
          <g id="g4347" transform="translate(12.639 36.612)">
            <path id="path4349" d="M-122.263-23.939a2.4,2.4,0,0,1,1.215.334l2.247,1.331a4.263,4.263,0,0,1,1.493,5.833l-7.331,12.375a4.279,4.279,0,0,1-3.666,2.088,4.255,4.255,0,0,1-2.167-.6L-132.72-3.9a2.39,2.39,0,0,1-.837-3.27l9.239-15.595A2.4,2.4,0,0,1-122.263-23.939Zm-6.042,19.79a2.071,2.071,0,0,0,1.8-1.024l7.331-12.375a2.089,2.089,0,0,0-.732-2.859l-2.247-1.331a.2.2,0,0,0-.109-.03.217.217,0,0,0-.187.106l-9.239,15.595a.216.216,0,0,0,.076.3l2.247,1.331A2.083,2.083,0,0,0-128.305-4.149Z" transform="translate(133.889 23.939)" fill="#201144"/>
          </g>
          <g id="g4351" transform="translate(52.773 36.611)">
            <path id="path4353" d="M-38.379-102.583a4.26,4.26,0,0,1-3.67-2.087l-3.436-5.8a1.086,1.086,0,0,1,.381-1.487,1.086,1.086,0,0,1,1.487.381l3.436,5.8a2.089,2.089,0,0,0,2.859.732l2.247-1.331a.216.216,0,0,0,.075-.3l-9.239-15.595a.242.242,0,0,0-.3-.076l-2.247,1.331a2.073,2.073,0,0,0-.958,1.278,2.073,2.073,0,0,0,.226,1.581l1.3,2.188a1.086,1.086,0,0,1-.381,1.487,1.086,1.086,0,0,1-1.487-.381l-1.3-2.188a4.23,4.23,0,0,1-.462-3.226,4.23,4.23,0,0,1,1.955-2.607l2.247-1.331a2.371,2.371,0,0,1,1.808-.259,2.371,2.371,0,0,1,1.462,1.1l9.239,15.595a2.389,2.389,0,0,1-.837,3.27l-2.247,1.331A4.232,4.232,0,0,1-38.379-102.583Z" transform="translate(49.977 124.544)" fill="#201144"/>
          </g>
          <g id="g4355" transform="translate(27.399 41.915)">
            <path id="path4357" d="M-122.313-18.763a5.526,5.526,0,0,1-2.822-.778l-1.294-.763a1.086,1.086,0,0,1-.384-1.487,1.086,1.086,0,0,1,1.487-.384l1.3.764a3.359,3.359,0,0,0,2.94.245l2.1-.81c2.382-.921,3.715-.525,5.983.777l.383.227a1.086,1.086,0,0,1,.381,1.487,1.086,1.086,0,0,1-1.487.381l-.371-.219c-1.938-1.112-2.593-1.213-4.107-.628l-2.1.81A5.559,5.559,0,0,1-122.313-18.763Z" transform="translate(126.964 22.477)" fill="#201144"/>
          </g>
          <g id="g4359" transform="translate(19.369 55.482)">
            <path id="path4361" d="M-6.745-6.548A1.08,1.08,0,0,1-7.3-6.7L-9.468-7.981a1.086,1.086,0,0,1-.383-1.487,1.086,1.086,0,0,1,1.487-.383l2.172,1.282a1.086,1.086,0,0,1,.383,1.487A1.085,1.085,0,0,1-6.745-6.548Z" transform="translate(10.002 10.002)" fill="#201144"/>
          </g>
          <g id="g4363" transform="translate(37.608 58.161)">
            <path id="path4365" d="M-4.137-98.684A3.629,3.629,0,0,1-5.992-99.2l-3.477-2.06a1.086,1.086,0,0,1-.381-1.487,1.086,1.086,0,0,1,1.487-.381l3.477,2.06a1.471,1.471,0,0,0,1.122.161,1.471,1.471,0,0,0,.907-.68A1.471,1.471,0,0,0-2.7-102.7a1.471,1.471,0,0,0-.68-.907,1.086,1.086,0,0,1-.381-1.487,1.086,1.086,0,0,1,1.487-.381l2.886,1.71a1.483,1.483,0,0,0,2.029-.519,1.483,1.483,0,0,0-.519-2.029,1.086,1.086,0,0,1-.381-1.487,1.086,1.086,0,0,1,1.487-.381l1.924,1.14a1.483,1.483,0,0,0,2.029-.519,1.483,1.483,0,0,0-.518-2.028h0a1.086,1.086,0,0,1-.381-1.487,1.086,1.086,0,0,1,1.487-.381l2.355,1.4a1.482,1.482,0,0,0,2.028-.519,1.482,1.482,0,0,0-.519-2.029,1.086,1.086,0,0,1-.38-1.487,1.086,1.086,0,0,1,1.487-.38,3.656,3.656,0,0,1,1.28,5,3.658,3.658,0,0,1-4.48,1.537,3.631,3.631,0,0,1-.49,1.484,3.659,3.659,0,0,1-4.04,1.679,3.63,3.63,0,0,1-.5,1.6,3.656,3.656,0,0,1-5,1.281l-.012-.007a3.642,3.642,0,0,1-.487,1.433A3.628,3.628,0,0,1-3.225-98.8,3.675,3.675,0,0,1-4.137-98.684Z" transform="translate(10.002 114.635)" fill="#201144"/>
          </g>
          <g id="g4367" transform="translate(37.968 41.961)">
            <path id="path4369" d="M-129.92,1.812a1.083,1.083,0,0,1-.553-.152L-144.589-6.7a4.8,4.8,0,0,1-1.158,1.857,4.783,4.783,0,0,1-3.407,1.409,2.328,2.328,0,0,1-2.322-2.326v-4.834a4.88,4.88,0,0,1,3.686-4.735l3.622-.917a4.856,4.856,0,0,1,2.984.189l2.364.929a3.354,3.354,0,0,0,2.933-.247l.31-.18a1.086,1.086,0,0,1,1.484.393,1.086,1.086,0,0,1-.393,1.484l-.3.176a5.511,5.511,0,0,1-4.82.4l-2.369-.931a2.7,2.7,0,0,0-1.658-.1l-3.622.917a2.711,2.711,0,0,0-2.048,2.63v4.834a.154.154,0,0,0,.154.154,2.627,2.627,0,0,0,1.87-.774,2.627,2.627,0,0,0,.775-1.871v-.2a1.086,1.086,0,0,1,.548-.943,1.086,1.086,0,0,1,1.091.009l14.816,8.774a5.547,5.547,0,0,1,.558-.378l2.2-1.287a1.086,1.086,0,0,1,1.485.39A1.086,1.086,0,0,1-126.2-.4l-2.2,1.283a3.368,3.368,0,0,0-.735.591A1.085,1.085,0,0,1-129.92,1.812Z" transform="translate(151.477 16.396)" fill="#201144"/>
          </g>
          <g id="g4371" transform="translate(19.347 56)">
            <path id="path4373" d="M-49.176-56.728a3.631,3.631,0,0,1-2.124-.684,3.656,3.656,0,0,1-.837-5.1l1.453-2.024a3.656,3.656,0,0,1,5.1-.837,3.627,3.627,0,0,1,1.474,2.374,3.627,3.627,0,0,1-.637,2.721,1.086,1.086,0,0,1-1.515.249,1.086,1.086,0,0,1-.249-1.515,1.47,1.47,0,0,0,.258-1.1,1.47,1.47,0,0,0-.6-.962,1.482,1.482,0,0,0-2.066.339l-1.453,2.024a1.482,1.482,0,0,0,.339,2.066,1.482,1.482,0,0,0,2.065-.339,1.086,1.086,0,0,1,1.515-.249,1.086,1.086,0,0,1,.249,1.515A3.65,3.65,0,0,1-49.176-56.728Z" transform="translate(52.821 66.052)" fill="#201144"/>
          </g>
          <g id="g4375" transform="translate(23.513 56.757)">
            <path id="path4377" d="M-74.292-47.418a3.627,3.627,0,0,1,2.127.685,3.627,3.627,0,0,1,1.474,2.374,3.628,3.628,0,0,1-.637,2.721l-3.057,4.259a3.662,3.662,0,0,1-2.968,1.522,3.627,3.627,0,0,1-2.127-.685,3.627,3.627,0,0,1-1.474-2.374,3.627,3.627,0,0,1,.637-2.721L-77.26-45.9A3.662,3.662,0,0,1-74.292-47.418Zm-3.061,9.39a1.486,1.486,0,0,0,1.2-.617l3.057-4.259a1.471,1.471,0,0,0,.258-1.1,1.47,1.47,0,0,0-.6-.962,1.469,1.469,0,0,0-.861-.278,1.486,1.486,0,0,0-1.2.617l-3.057,4.258a1.47,1.47,0,0,0-.258,1.1,1.47,1.47,0,0,0,.6.962A1.468,1.468,0,0,0-77.353-38.028Z" transform="translate(81.003 47.418)" fill="#201144"/>
          </g>
          <g id="g4379" transform="translate(27.684 59.749)">
            <path id="path4381" d="M-38.941-8.3a3.631,3.631,0,0,1-2.125-.684,3.656,3.656,0,0,1-.837-5.1,1.086,1.086,0,0,1,1.515-.249,1.086,1.086,0,0,1,.249,1.515,1.482,1.482,0,0,0,.339,2.066,1.482,1.482,0,0,0,2.066-.339l3.057-4.259a1.47,1.47,0,0,0,.258-1.1,1.47,1.47,0,0,0-.6-.962,1.47,1.47,0,0,0-1.1-.258,1.47,1.47,0,0,0-.962.6,1.086,1.086,0,0,1-1.515.249,1.086,1.086,0,0,1-.249-1.515A3.627,3.627,0,0,1-36.47-19.81a3.627,3.627,0,0,1,2.721.637A3.627,3.627,0,0,1-32.275-16.8a3.627,3.627,0,0,1-.637,2.721L-35.97-9.819A3.65,3.65,0,0,1-38.941-8.3Z" transform="translate(42.586 19.859)" fill="#201144"/>
          </g>
          <g id="g4383" transform="translate(32.532 64.634)">
            <path id="path4385" d="M-20.16-11.141a3.631,3.631,0,0,1-2.124-.684A3.627,3.627,0,0,1-23.758-14.2a3.628,3.628,0,0,1,.637-2.721,1.084,1.084,0,0,1,.864-.452,1.084,1.084,0,0,1,.152-.964A3.628,3.628,0,0,1-19.73-19.81a3.627,3.627,0,0,1,2.721.637A3.628,3.628,0,0,1-15.535-16.8a3.627,3.627,0,0,1-.637,2.721l-1.017,1.416A3.65,3.65,0,0,1-20.16-11.141Zm-1.045-5.477a1.084,1.084,0,0,1-.152.964,1.471,1.471,0,0,0-.258,1.1,1.47,1.47,0,0,0,.6.963,1.482,1.482,0,0,0,2.065-.339l1.017-1.416a1.47,1.47,0,0,0,.258-1.1,1.471,1.471,0,0,0-.6-.963,1.47,1.47,0,0,0-1.1-.258,1.471,1.471,0,0,0-.963.6A1.084,1.084,0,0,1-21.205-16.617Z" transform="translate(23.807 19.859)" fill="#201144"/>
          </g>
        </g>
      </g>
    </g>
  </g>
</svg>
