<svg xmlns="http://www.w3.org/2000/svg" width="83" height="83" viewBox="0 0 83 83">
  <g id="_50" data-name="50" transform="translate(-765.254 -2279.08)">
    <rect id="Rectángulo_401243" data-name="Rectángulo 401243" width="83" height="83" transform="translate(765.254 2279.08)" fill="none"/>
    <g id="documentos" transform="translate(744.754 2286.081)">
      <path id="Trazado_874417" data-name="Trazado 874417" d="M90.961,11.588H86.19V6.816a1.022,1.022,0,0,0-1.022-1.022H80.4V1.022A1.022,1.022,0,0,0,79.374,0h-42.4a1.022,1.022,0,0,0-1.022,1.022V46.9H31.522A1.022,1.022,0,0,0,30.5,47.919v2.454a7.848,7.848,0,0,0,7.839,7.839h3.408v4.771a1.022,1.022,0,0,0,1.022,1.022h4.771v4.771A1.022,1.022,0,0,0,48.563,69.8H69.081a1.022,1.022,0,1,0,0-2.045H49.586V64.006H85.167a1.022,1.022,0,0,0,1.022-1.022V46.9a1.022,1.022,0,0,0-2.045,0V61.961H43.792V58.212H79.374A1.022,1.022,0,0,0,80.4,57.19V7.839h3.749V42.262a1.022,1.022,0,0,0,2.045,0V13.633h3.749V67.755H73.716a1.022,1.022,0,1,0,0,2.045H90.961a1.022,1.022,0,0,0,1.022-1.022V12.61A1.022,1.022,0,0,0,90.961,11.588ZM78.351,56.167H72.693A5.8,5.8,0,0,1,66.9,50.373V47.919A1.022,1.022,0,0,0,65.877,46.9H58.788a1.022,1.022,0,1,0,0,2.045h6.067v1.431a7.82,7.82,0,0,0,2.564,5.794H38.339a5.8,5.8,0,0,1-5.794-5.794V48.942H54.017a1.022,1.022,0,1,0,0-2.045H38V2.045H78.351Z" fill="#201144"/>
      <path id="Trazado_874418" data-name="Trazado 874418" d="M106.522,64.132H119.61a1.022,1.022,0,0,0,1.022-1.022V50.022A1.022,1.022,0,0,0,119.61,49H106.522a1.022,1.022,0,0,0-1.022,1.022V63.11A1.022,1.022,0,0,0,106.522,64.132Zm1.022-13.087h11.043V62.087H107.545Z" transform="translate(-64.775 -42.32)" fill="#201144"/>
      <path id="Trazado_874419" data-name="Trazado 874419" d="M252.519,132h-15a1.022,1.022,0,0,0,0,2.045h15a1.022,1.022,0,0,0,0-2.045Z" transform="translate(-177.916 -114.005)" fill="#201144"/>
      <path id="Trazado_874420" data-name="Trazado 874420" d="M170.5,201.022a1.022,1.022,0,0,0,1.022,1.022h15.132a1.022,1.022,0,0,0,0-2.045H171.522A1.022,1.022,0,0,0,170.5,201.022Z" transform="translate(-120.914 -172.734)" fill="#201144"/>
      <path id="Trazado_874421" data-name="Trazado 874421" d="M252.519,97h-15a1.022,1.022,0,0,0,0,2.045h15a1.022,1.022,0,0,0,0-2.045Z" transform="translate(-177.916 -83.776)" fill="#201144"/>
      <path id="Trazado_874422" data-name="Trazado 874422" d="M252.519,62h-15a1.022,1.022,0,0,0,0,2.045h15a1.022,1.022,0,0,0,0-2.045Z" transform="translate(-177.916 -53.548)" fill="#201144"/>
      <path id="Trazado_874423" data-name="Trazado 874423" d="M139.378,289H106.522a1.022,1.022,0,0,0,0,2.045h32.855a1.022,1.022,0,0,0,0-2.045Z" transform="translate(-64.775 -249.601)" fill="#201144"/>
      <path id="Trazado_874424" data-name="Trazado 874424" d="M234.381,244H216.522a1.022,1.022,0,0,0,0,2.045h17.859a1.022,1.022,0,0,0,0-2.045Z" transform="translate(-159.779 -210.736)" fill="#201144"/>
      <path id="Trazado_874425" data-name="Trazado 874425" d="M106.022,246.045h10.293a1.022,1.022,0,1,0,0-2.045H106.022a1.022,1.022,0,0,0,0,2.045Z" transform="translate(-64.344 -210.736)" fill="#201144"/>
    </g>
  </g>
</svg>
