<svg xmlns="http://www.w3.org/2000/svg" width="83" height="83" viewBox="0 0 83 83">
  <g id="_51" data-name="51" transform="translate(-764.754 -2279)">
    <rect id="Rectángulo_401243" data-name="Rectángulo 401243" width="83" height="83" transform="translate(764.754 2279)" fill="none"/>
    <g id="Layer_x0020_1" transform="translate(767.754 2283)">
      <path id="Trazado_874426" data-name="Trazado 874426" d="M33.273,51.287H15.217a1.226,1.226,0,0,1-1.231-1.231V45.405a1.226,1.226,0,0,1,1.231-1.231H33.273A1.226,1.226,0,0,1,34.5,45.405v4.651A1.226,1.226,0,0,1,33.273,51.287ZM66.1,59.221H46.542l2.189,5.335h4.651a3.74,3.74,0,0,1,3.83,3.83v2.6a1.226,1.226,0,0,1-1.231,1.231H17.953a1.226,1.226,0,0,1-1.231-1.231v-2.6a3.855,3.855,0,0,1,3.967-3.83h4.651l2.052-5.335H7.967A3.97,3.97,0,0,1,4,55.254V17.226a3.97,3.97,0,0,1,3.967-3.967H55.98V10.113A7.152,7.152,0,0,1,63.093,3h.821a7.064,7.064,0,0,1,7.113,7.113v4.651c.684,0,1.915-.137,1.915,1.231V27.9a5.969,5.969,0,0,1-2.873,5.061v22.3A3.97,3.97,0,0,1,66.1,59.221Zm-22.16,0H30.127l-2.189,5.335H46.131Zm10.122-43.5H7.967a1.642,1.642,0,0,0-1.641,1.5V55.254a1.642,1.642,0,0,0,1.641,1.5H66.1a1.518,1.518,0,0,0,1.5-1.5V33.641l-1.778.137V53.749A1.226,1.226,0,0,1,64.6,54.98H9.472a1.226,1.226,0,0,1-1.231-1.231V18.731a1.206,1.206,0,0,1,1.231-1.094H54.065ZM68.292,31.042A3.369,3.369,0,0,0,70.617,27.9V17.226H56.528V27.9a3.475,3.475,0,0,0,3.42,3.42H67.06A2.731,2.731,0,0,0,68.292,31.042ZM54.065,19.962H10.7V52.518H63.367V33.778h-3.42A6,6,0,0,1,55.707,32H39.976a1.231,1.231,0,0,1,0-2.462H54.339a7.524,7.524,0,0,1-.274-3.009H39.976a1.231,1.231,0,1,1,0-2.462H54.065ZM19.184,69.754h35.7c0-.958.137-2.873-1.5-2.873H20.688C18.91,66.881,19.184,68.8,19.184,69.754Zm39.259-54.99h1.641V10.113a3.341,3.341,0,0,1,3.557-3.42,3.387,3.387,0,0,1,3.42,3.42v4.651h1.5V10.113a4.612,4.612,0,0,0-4.651-4.651h-.821a4.612,4.612,0,0,0-4.651,4.651Zm3.967,0H64.6V10.113c0-1.231-2.189-1.231-2.189,0ZM63.5,28.033A1.226,1.226,0,0,1,62.273,26.8V23.245a1.231,1.231,0,1,1,2.462,0V26.8A1.226,1.226,0,0,1,63.5,28.033Zm-3.83,9.439h-19.7a1.231,1.231,0,1,1,0-2.462h19.7A1.231,1.231,0,1,1,59.674,37.471Zm0,5.472h-19.7a1.231,1.231,0,0,1,0-2.462h19.7A1.231,1.231,0,0,1,59.674,42.943Zm0,5.472h-19.7a1.231,1.231,0,0,1,0-2.462h19.7A1.231,1.231,0,0,1,59.674,48.414ZM24.245,43.49a11.24,11.24,0,0,1-11.08-11.217,11.034,11.034,0,0,1,11.08-11.08,11.151,11.151,0,0,1,11.217,11.08A11.268,11.268,0,0,1,24.245,43.49Zm0-19.835a8.674,8.674,0,0,0-6.84,13.953c1.094-2.052,4.241-3.557,5.2-2.189a2.191,2.191,0,0,0,3.42,0c.958-1.368,3.967.137,5.2,2.189A8.723,8.723,0,0,0,24.245,23.655ZM19.184,39.386a8.624,8.624,0,0,0,10.122,0,2.709,2.709,0,0,0-1.915-1.915,4.636,4.636,0,0,1-6.292,0A2.97,2.97,0,0,0,19.184,39.386Zm5.061-4.924a4.794,4.794,0,0,1-4.651-4.651,4.7,4.7,0,0,1,4.651-4.651A4.612,4.612,0,0,1,28.9,29.811,4.7,4.7,0,0,1,24.245,34.462Zm0-6.84a2.189,2.189,0,0,0,0,4.377A2.189,2.189,0,0,0,24.245,27.622Zm-7.8,21.339H32.042V46.636H16.448Z" fill="#201144" fill-rule="evenodd"/>
    </g>
  </g>
</svg>
