<svg xmlns="http://www.w3.org/2000/svg" width="83" height="83" viewBox="0 0 83 83">
  <g id="_52" data-name="52" transform="translate(-764.754 -2279)">
    <rect id="Rectángulo_401243" data-name="Rectángulo 401243" width="83" height="83" transform="translate(764.754 2279)" fill="none"/>
    <g id="informacion-personal" transform="translate(763.41 2277.401)">
      <path id="Trazado_874427" data-name="Trazado 874427" d="M43.176,41.374,26.53,47.165a1.048,1.048,0,0,0-.711.984v6.287a1.05,1.05,0,1,0,2.1,0V48.893l15.6-5.426,15.609,5.426v5.543a1.046,1.046,0,1,0,2.089,0V48.149a1.038,1.038,0,0,0-.7-.984L43.868,41.374a.845.845,0,0,0-.692,0Z" transform="translate(-1.05 -2.801)" fill="#201144"/>
      <path id="Trazado_874428" data-name="Trazado 874428" d="M41.545,7.726A10.39,10.39,0,0,1,54.07,15.343a10.263,10.263,0,0,1-7.694,12.39,10.39,10.39,0,0,1-12.525-7.617,10.259,10.259,0,0,1,7.694-12.39Zm-.49-2.03a12.369,12.369,0,0,0-9.239,14.9,12.52,12.52,0,0,0,15.05,9.168,12.366,12.366,0,0,0,9.235-14.9A12.519,12.519,0,0,0,41.055,5.7Z" transform="translate(-1.491 0)" fill="#201144" fill-rule="evenodd"/>
      <path id="Trazado_874429" data-name="Trazado 874429" d="M31.925,37.2H53.012c2.8,0,4.616.491,6.1,1.575s2.734,2.877,4.1,5.691l6.359,13.13c.882,1.821,1.084,3.208.8,4.183s-1.06,1.783-2.775,2.444l-6.713,2.609a2.949,2.949,0,0,1-2.622-.053A3.388,3.388,0,0,1,56.734,64.9a3.447,3.447,0,0,1,2.035-4.576c2-.859,5.48-2.271,5.48-2.271a1.047,1.047,0,1,0-.784-1.935s-3.476,1.412-5.521,2.29a5.688,5.688,0,0,0-3.184,7.185,5.817,5.817,0,0,0,.442.965c-2.67,5.1-7.137,8.9-12.737,11.953-5.6-3.055-10.062-6.848-12.737-11.953a5.838,5.838,0,0,0,.446-.965,5.686,5.686,0,0,0-3.189-7.185c-2.041-.879-5.518-2.29-5.518-2.29a1.047,1.047,0,1,0-.782,1.935s3.476,1.413,5.478,2.271A3.451,3.451,0,0,1,28.2,64.9a3.4,3.4,0,0,1-1.527,1.878,2.948,2.948,0,0,1-2.622.053l-6.708-2.608c-1.714-.662-2.489-1.465-2.777-2.444s-.087-2.362.792-4.183l6.368-13.13c1.36-2.814,2.6-4.606,4.092-5.691s3.3-1.576,6.107-1.576Zm0-2.084c-3.055,0-5.417.562-7.339,1.965s-3.319,3.529-4.745,6.473l-6.358,13.13c-1.005,2.074-1.432,3.981-.928,5.691a6.21,6.21,0,0,0,4.034,3.8L23.3,68.784a5.169,5.169,0,0,0,4.365-.164,4.637,4.637,0,0,0,.591-.385c3.04,5.378,7.866,9.361,13.721,12.458a1.042,1.042,0,0,0,.98,0c5.855-3.1,10.685-7.08,13.721-12.458a4.58,4.58,0,0,0,.595.385,5.172,5.172,0,0,0,4.365.164l6.714-2.608a6.183,6.183,0,0,0,4.025-3.8c.5-1.71.087-3.617-.922-5.691l-6.359-13.13c-1.426-2.943-2.827-5.071-4.749-6.473s-4.279-1.965-7.333-1.965Z" transform="translate(0 -2.319)" fill="#201144"/>
      <path id="Trazado_874430" data-name="Trazado 874430" d="M52.883,57.772,42.063,68.689a.15.15,0,0,1-.231,0l-6.526-6.527,2.026-2.075,3.885,3.895a1.055,1.055,0,0,0,1.48,0l8.028-8.034Zm-2.075-4.029a2.583,2.583,0,0,0-1.553.72l-7.294,7.294-3.146-3.141a2.258,2.258,0,0,0-3.175,0l-1.819,1.849a2.256,2.256,0,0,0,0,3.166l6.541,6.54a2.051,2.051,0,0,0,3.17.009L54.368,59.247a2.356,2.356,0,0,0-.011-3.155l-1.79-1.772a2.159,2.159,0,0,0-1.758-.575Z" transform="translate(-1.623 -3.77)" fill="#201144" fill-rule="evenodd"/>
    </g>
  </g>
</svg>
