<svg xmlns="http://www.w3.org/2000/svg" width="83" height="83" viewBox="0 0 83 83">
  <g id="_54" data-name="54" transform="translate(-764.781 -2278.58)">
    <rect id="Rectángulo_401243" data-name="Rectángulo 401243" width="83" height="83" transform="translate(764.781 2278.58)" fill="none"/>
    <g id="proteccion-de-datos_1_" data-name="proteccion-de-datos (1)" transform="translate(773.611 2287.6)">
      <path id="Trazado_874437" data-name="Trazado 874437" d="M60.83,43.68V14.62a4.311,4.311,0,0,0-4.29-4.33H53.6a.849.849,0,0,0-.85.85.858.858,0,0,0,.85.86h2.94a2.612,2.612,0,0,1,2.59,2.63V42.85h-8.9a3.018,3.018,0,0,0,.34-1.37V5.05A3.077,3.077,0,0,0,47.5,1.98H24.94c-.02,0-.03.01-.05.01a.78.78,0,0,0-.22.04c-.03.01-.05.02-.08.03a.7.7,0,0,0-.25.17L15.7,10.87a.852.852,0,0,0-.17.25c-.01.03-.02.05-.03.08a.78.78,0,0,0-.04.22c0,.02-.01.03-.01.05V41.48a2.987,2.987,0,0,0,.34,1.37H6.89V14.62a2.612,2.612,0,0,1,2.59-2.63h2.94a.85.85,0,0,0,0-1.7H9.46a4.311,4.311,0,0,0-4.29,4.33V48.95a4.3,4.3,0,0,0,4.29,4.3H24.31a6.5,6.5,0,0,1-.01,5.03H23.14a3.7,3.7,0,0,0-3.7,3.7v1.19a.849.849,0,0,0,.85.85H45.7a.849.849,0,0,0,.85-.85V61.98a3.7,3.7,0,0,0-3.7-3.7H41.62a4.928,4.928,0,0,1,0-5.03H56.53a4.3,4.3,0,0,0,4.29-4.3V43.69a.01.01,0,0,0,.01-.01ZM48.86,5.05V41.48a1.366,1.366,0,0,1-1.37,1.37H18.52a1.372,1.372,0,0,1-1.37-1.37V12.32h5.57a3.077,3.077,0,0,0,3.07-3.07V3.68h21.7a1.372,1.372,0,0,1,1.37,1.37ZM24.09,4.88V9.24a1.366,1.366,0,0,1-1.37,1.37H18.36l2.87-2.87Zm20.75,57.1v.34H21.16v-.34a1.989,1.989,0,0,1,1.99-1.99H42.86a1.993,1.993,0,0,1,1.98,1.99ZM26.12,58.29a8.083,8.083,0,0,0,.01-5.03H39.72a6.37,6.37,0,0,0,0,5.03Zm30.42-6.74H9.46a2.6,2.6,0,0,1-2.59-2.6V44.54H59.13v4.41a2.593,2.593,0,0,1-2.59,2.6Z" fill="#201144"/>
      <circle id="Elipse_11538" data-name="Elipse 11538" cx="0.97" cy="0.97" r="0.97" transform="translate(32.03 47.08)" fill="#201144"/>
      <path id="Trazado_874438" data-name="Trazado 874438" d="M22.93,14.74a.858.858,0,0,0-.7.84V28.15a.69.69,0,0,0,.04.25c1.41,4.51,4.72,8.05,10.43,11.13a.846.846,0,0,0,.4.1.924.924,0,0,0,.39-.09A20.358,20.358,0,0,0,43.72,28.29a.815.815,0,0,0,.06-.31V15.58a.856.856,0,0,0-.7-.84,55.924,55.924,0,0,0-20.15,0Zm19.14,1.57V27.83a18.634,18.634,0,0,1-8.96,9.99c-5-2.77-7.92-5.9-9.18-9.8V16.3A53.633,53.633,0,0,1,42.07,16.31Z" fill="#201144"/>
      <path id="Trazado_874439" data-name="Trazado 874439" d="M29.78,29.64a.862.862,0,0,0,.84.98h4.76a.832.832,0,0,0,.64-.3.89.89,0,0,0,.2-.68l-.65-4.39a3.532,3.532,0,0,0,1-2.46,3.57,3.57,0,0,0-7.14,0,3.514,3.514,0,0,0,1,2.46ZM33,20.92a1.862,1.862,0,0,1,1.14,3.34.87.87,0,0,0-.32.8l.57,3.86H31.61l.57-3.86a.879.879,0,0,0-.32-.8A1.862,1.862,0,0,1,33,20.92Z" fill="#201144"/>
    </g>
  </g>
</svg>
