<svg xmlns="http://www.w3.org/2000/svg" width="83" height="83" viewBox="0 0 83 83">
  <g id="_55" data-name="55" transform="translate(-765.004 -2279.08)">
    <rect id="Rectángulo_401243" data-name="Rectángulo 401243" width="83" height="83" transform="translate(765.004 2279.08)" fill="none"/>
    <g id="blogging" transform="translate(773.294 2287.24)">
      <path id="Trazado_874440" data-name="Trazado 874440" d="M16.55,14.59H42.03a.849.849,0,0,0,.85-.85V7.55a.849.849,0,0,0-.85-.85H16.55a.849.849,0,0,0-.85.85v6.18a.851.851,0,0,0,.85.86Zm.86-6.18H41.19v4.48H17.41Z" fill="#201144"/>
      <path id="Trazado_874441" data-name="Trazado 874441" d="M63.39,15.08l-2.74-2.75a3.174,3.174,0,0,0-4.31-.06,2.693,2.693,0,0,0-.2-.27,1.986,1.986,0,0,0-.2-.21,3.236,3.236,0,0,0-2.33-.98H47.75V5.61a3.773,3.773,0,0,0-3.77-3.77H14.61a3.773,3.773,0,0,0-3.77,3.77v5.2H4.98a3.278,3.278,0,0,0-3.27,3.28V49.43a1.941,1.941,0,0,0,.03.39,2.954,2.954,0,0,0,.08.42,3.4,3.4,0,0,0,.44,1,.763.763,0,0,0,.08.11l.12.15a1.217,1.217,0,0,0,.26.28,1.9,1.9,0,0,0,.2.18.809.809,0,0,0,.23.17,2.007,2.007,0,0,0,.27.17,1.519,1.519,0,0,0,.37.16,3.345,3.345,0,0,0,.63.19l.22.03c.12.01.23.02.35.02H22.3c.28,2.11-.63,3.93-2.88,5.8H18.28a2.83,2.83,0,0,0,0,5.66H40.54a2.83,2.83,0,0,0,0-5.66H39.18c-2.23-1.84-3.16-3.71-2.88-5.8H53.73c.05,0,.11-.01.15-.01a.757.757,0,0,0,.15-.01.55.55,0,0,0,.16-.03,2.416,2.416,0,0,0,.28-.06,1.975,1.975,0,0,0,.26-.08l.06-.03a1.283,1.283,0,0,0,.25-.1.914.914,0,0,0,.14-.07.035.035,0,0,0,.02-.01.405.405,0,0,0,.09-.05.73.73,0,0,0,.13-.09c.01-.01.03-.02.04-.03a1.014,1.014,0,0,0,.16-.1c.03-.03.06-.05.09-.08a1.271,1.271,0,0,0,.16-.14l.12-.11a1,1,0,0,0,.1-.11,1.059,1.059,0,0,0,.1-.12c.02-.04.04-.07.03-.06a.878.878,0,0,0,.12-.15c.01-.01.01-.02.02-.02a3.135,3.135,0,0,0,.18-.31.035.035,0,0,1,.01-.02l.05-.11c.02-.04.04-.09.06-.14a.671.671,0,0,0,.06-.15c.01-.03.02-.07.03-.1a.9.9,0,0,0,.05-.19,1.849,1.849,0,0,0,.06-.26l.01-.07a.761.761,0,0,0,.03-.21v-.21c0-.02.01-.03.01-.05V25.92l6.49-6.49a3.08,3.08,0,0,0,.91-2.19,3.111,3.111,0,0,0-.92-2.16Zm-7.94,9.9h0L50.73,29.7l-4.42,4.42-.93.93-4.71-4.71,6.85-6.85,4.43-4.43,3.09-3.09,4.71,4.71Zm-7.7,17.96V35.09l2.72-2.72V42.95H47.75ZM39.89,31.99l3.84,3.84-5.25,1.41Zm7.86-15.02h2.72v1.15l-2.72,2.72Zm5.86-4.46a1.526,1.526,0,0,1,1.12.47,1.307,1.307,0,0,1,.11.12,1.223,1.223,0,0,1,.23.42l-2.9,2.9v-.3a.849.849,0,0,0-.85-.85H47.74V12.52h5.87ZM12.54,5.61a2.074,2.074,0,0,1,2.07-2.07H43.98a2.074,2.074,0,0,1,2.07,2.07V22.55l-7.2,7.2a.771.771,0,0,0-.17.27c0,.01-.01.02-.01.03-.01.03-.03.05-.03.08l-2.18,8.09a.832.832,0,0,0,.22.82.857.857,0,0,0,.6.25.833.833,0,0,0,.22-.03l8.09-2.18c.02-.01.05-.02.07-.03a.142.142,0,0,1,.06-.02.7.7,0,0,0,.25-.17l.08-.08v6.15H12.54ZM8.11,42.94V16.97h2.72V42.94ZM3.86,12.98a1.564,1.564,0,0,1,1.12-.47h5.86v2.75H7.26a.849.849,0,0,0-.85.85V42.93h-3V14.08a1.542,1.542,0,0,1,.45-1.1ZM41.67,61.33a1.135,1.135,0,0,1-1.13,1.13H18.28a1.13,1.13,0,0,1,0-2.26H40.55a1.133,1.133,0,0,1,1.12,1.13ZM36.69,58.5H21.91a7.261,7.261,0,0,0,2.13-5.8H34.57A7.185,7.185,0,0,0,36.69,58.5Zm18.42-8.57a.035.035,0,0,1,.01-.02A.031.031,0,0,1,55.11,49.93Zm.01-.02a.076.076,0,0,1,.02-.04C55.13,49.89,55.12,49.9,55.12,49.91Zm.07-.3v.03c0,.02-.02.09-.02.11s-.02.07-.03.1-.03.08-.04.12c0,.01-.01.02-.01.03a1.039,1.039,0,0,0-.04.1.293.293,0,0,1-.04.08c0,.01-.01.01-.01.02a.913.913,0,0,1-.08.13c-.03.04-.05.07-.08.11a.875.875,0,0,0-.08.1l-.01.01-.07.07c-.03.02-.05.04-.08.06-.05.03-.11.07-.17.11-.01.01-.02.01-.02.02a.6.6,0,0,0-.11.06.329.329,0,0,0-.06.03.442.442,0,0,0-.16.06.592.592,0,0,0-.19.05c-.02,0-.04.01-.06.01h-.02a.127.127,0,0,0-.06.01c-.03,0-.04,0-.04.01H4.85l-.16-.02a1.58,1.58,0,0,1-.33-.11.694.694,0,0,1-.13-.05,1.1,1.1,0,0,1-.14-.09.607.607,0,0,0-.1-.07c-.03-.03-.06-.05-.09-.08a.751.751,0,0,0-.08-.07c-.02-.02-.03-.04-.05-.06s-.05-.07-.08-.1a2.657,2.657,0,0,1-.23-.56l-.02-.06c0-.03-.01-.05-.01-.08a.585.585,0,0,0-.02-.13V44.65H55.18v4.96Zm.01-6.67H52.18V30.65l3.02-3.02Zm6.99-24.7-1.25,1.25-4.71-4.71,1.25-1.25a1.4,1.4,0,0,1,1.97,0l2.75,2.76a1.353,1.353,0,0,1,.4.97,1.421,1.421,0,0,1-.41.98Z" fill="#201144"/>
      <path id="Trazado_874442" data-name="Trazado 874442" d="M41.96,16.78H16.63a.85.85,0,1,0,0,1.7H41.96a.85.85,0,0,0,0-1.7Z" fill="#201144"/>
      <path id="Trazado_874443" data-name="Trazado 874443" d="M41.96,21.98H16.63a.85.85,0,1,0,0,1.7H41.96a.85.85,0,0,0,0-1.7Z" fill="#201144"/>
      <path id="Trazado_874444" data-name="Trazado 874444" d="M16.63,28.89H33.05a.85.85,0,0,0,0-1.7H16.63a.85.85,0,1,0,0,1.7Z" fill="#201144"/>
      <path id="Trazado_874445" data-name="Trazado 874445" d="M16.63,34.09H33.05a.85.85,0,0,0,0-1.7H16.63a.85.85,0,1,0,0,1.7Z" fill="#201144"/>
      <path id="Trazado_874446" data-name="Trazado 874446" d="M33.34,37.59H16.63a.85.85,0,1,0,0,1.7H33.34a.85.85,0,0,0,0-1.7Z" fill="#201144"/>
      <circle id="Elipse_11539" data-name="Elipse 11539" cx="0.97" cy="0.97" r="0.97" transform="translate(28.33 46.85)" fill="#201144"/>
    </g>
  </g>
</svg>
