<svg xmlns="http://www.w3.org/2000/svg" width="83" height="83" viewBox="0 0 83 83">
  <g id="_56" data-name="56" transform="translate(-765.004 -2279.08)">
    <rect id="Rectángulo_401243" data-name="Rectángulo 401243" width="83" height="83" transform="translate(765.004 2279.08)" fill="none"/>
    <g id="digital" transform="translate(774.004 2288.08)">
      <path id="Trazado_874447" data-name="Trazado 874447" d="M60,23a3,3,0,0,0,3-3V8a3,3,0,0,0-3-3H44a3,3,0,0,0-3,3v5H39V4a3,3,0,0,0-3-3H18.829a2.982,2.982,0,0,0-2.122.879L7.879,10.707A2.978,2.978,0,0,0,7,12.829V29.586l-2.76,2.76A10.985,10.985,0,0,0,1,40.167a11.2,11.2,0,0,0,.15,1.818l1.556,9.332a18.318,18.318,0,0,0,1.061,3.792L5,58.193V63H19V58.193L19.477,57H56a7.008,7.008,0,0,0,7-7,3,3,0,0,0-3-3H59V23ZM43,8a1,1,0,0,1,1-1H60a1,1,0,0,1,1,1V20a1,1,0,0,1-1,1H53.7l-5.865,3.91A.553.553,0,0,1,47,24.465V21H44a1,1,0,0,1-1-1ZM9,40.816A2.966,2.966,0,0,0,10,41h2.7a29.346,29.346,0,0,1-2.087,5.527A.854.854,0,0,1,9,46.146ZM17,35a6,6,0,0,1,12,0Zm3-11a3,3,0,1,1,3,3A3,3,0,0,1,20,24Zm6.305,3.723a5,5,0,1,0-6.61,0A8.005,8.005,0,0,0,15,35H13V17H33V35H31A8.005,8.005,0,0,0,26.305,27.723ZM20.388,41H36a3,3,0,0,0,3-3V19h2v1a3,3,0,0,0,3,3h1v1.465a2.535,2.535,0,0,0,3.941,2.109L53,23.868V43H20.542ZM41,15v2H39V15ZM37,4V38a1,1,0,0,1-1,1H20.234l-.07-.913A3.281,3.281,0,0,0,19.879,37H35V15H11V37h2.768a3.379,3.379,0,0,0-.182.533L13.219,39H10a1,1,0,0,1-1-1V13h7a3,3,0,0,0,3-3V3H36A1,1,0,0,1,37,4ZM17,4.414V10a1,1,0,0,1-1,1H10.414ZM3.123,41.657A9.18,9.18,0,0,1,3,40.167,9,9,0,0,1,5.654,33.76L7,32.414V38a2.966,2.966,0,0,0,.184,1H7v7.146a2.854,2.854,0,0,0,5.407,1.276,31.394,31.394,0,0,0,2.37-6.407l.75-3a1.344,1.344,0,0,1,2.643.223l.783,10.173q.047.625.047,1.252a16.254,16.254,0,0,1-1.167,6.06L17.323,57H6.677L5.623,54.367a16.39,16.39,0,0,1-.945-3.378ZM17,61H7V59H17ZM60,49a1,1,0,0,1,1,1,5.006,5.006,0,0,1-5,5H20.2a18.241,18.241,0,0,0,.8-5.335c0-.222-.017-.443-.025-.665H28v1a3,3,0,0,0,3,3H43a3,3,0,0,0,3-3V49H60ZM30,49H44v1a1,1,0,0,1-1,1H31a1,1,0,0,1-1-1Zm27-2H20.849l-.154-2H55V23h2Z" fill="#201144"/>
      <path id="Trazado_874448" data-name="Trazado 874448" d="M58.707,9.707,57.293,8.293,49,16.586l-2.293-2.293-1.414,1.414L49,19.414Z" fill="#201144"/>
      <path id="Trazado_874449" data-name="Trazado 874449" d="M21,5h4V7H21Z" fill="#201144"/>
      <path id="Trazado_874450" data-name="Trazado 874450" d="M27,5h8V7H27Z" fill="#201144"/>
      <path id="Trazado_874451" data-name="Trazado 874451" d="M21,9H35v2H21Z" fill="#201144"/>
      <path id="Trazado_874452" data-name="Trazado 874452" d="M41,29H51v2H41Z" fill="#201144"/>
      <path id="Trazado_874453" data-name="Trazado 874453" d="M41,33H51v2H41Z" fill="#201144"/>
      <path id="Trazado_874454" data-name="Trazado 874454" d="M41,37H51v2H41Z" fill="#201144"/>
    </g>
  </g>
</svg>
