<svg xmlns="http://www.w3.org/2000/svg" width="96.762" height="96.762" viewBox="0 0 96.762 96.762">
  <g id="_57" data-name="57" transform="translate(-279.254 -2397)">
    <g id="Grupo_1099174" data-name="Grupo 1099174" transform="translate(279.254 2397)">
      <g id="Grupo_1099167" data-name="Grupo 1099167" transform="translate(0 0)">
        <path id="Trazado_873000" data-name="Trazado 873000" d="M48.381,0h0V22.476a25.9,25.9,0,1,0,25.905,25.9H96.762A48.381,48.381,0,1,1,48.381,0" transform="translate(0 96.762) rotate(-90)" fill="#201144"/>
      </g>
      <rect id="Rectángulo_401249" data-name="Rectángulo 401249" width="66.409" height="66.409" rx="33.204" transform="translate(15.157 15.157)" fill="#e8faf9"/>
    </g>
    <path id="recopilacion-de-datos" d="M54.234,19.684h1.338a.485.485,0,0,0,.489-.477V17.9l-1.826,1.784Zm2.959-2.566h8.538a.485.485,0,0,1,.489.477V32.941a.485.485,0,0,1-.489.477H53.922a.485.485,0,0,1-.489-.477V20.79h2.139a1.605,1.605,0,0,0,1.622-1.584V17.118ZM20.579,19.684h1.338a.485.485,0,0,0,.489-.477V17.9l-1.826,1.784Zm2.96-2.566h8.538a.485.485,0,0,1,.489.477V32.941a.485.485,0,0,1-.489.477H20.267a.485.485,0,0,1-.489-.477V20.79h2.139a1.605,1.605,0,0,0,1.622-1.584V17.118Zm3.716,5.067.583.152-6.125,3.453a.545.545,0,0,0-.206.754.573.573,0,0,0,.772.2L28.4,23.293l-.156.57a.551.551,0,0,0,.4.676.567.567,0,0,0,.693-.391l.51-1.857a.551.551,0,0,0-.4-.676l-1.9-.5a.567.567,0,0,0-.693.391A.551.551,0,0,0,27.255,22.185Zm10.152-2.5h1.338a.485.485,0,0,0,.489-.477V17.9l-1.826,1.784Zm2.96-2.566H48.9a.485.485,0,0,1,.489.477V32.941a.485.485,0,0,1-.489.477H37.094a.485.485,0,0,1-.489-.477V20.79h2.139a1.605,1.605,0,0,0,1.622-1.584V17.118Zm10.97,27.236a4.315,4.315,0,0,0-3.03,1.236,4.116,4.116,0,0,0,.017,5.924,4.359,4.359,0,0,0,6.067-.017,4.119,4.119,0,0,0-.016-5.923A4.333,4.333,0,0,0,51.336,44.354Zm-3.829.456a5.517,5.517,0,0,1,7.664-.018,5.207,5.207,0,0,1,.018,7.486,5.516,5.516,0,0,1-7.665.017,5.206,5.206,0,0,1-.017-7.484ZM59.614,55.571l-.5-.441a1.764,1.764,0,0,0-.982.96l.458.492a2.154,2.154,0,0,0,1.026-1.011Zm6.5,5.711a.993.993,0,0,1,.335.765,1.179,1.179,0,0,1-1.981.85l-5.1-5.476a3.24,3.24,0,0,0,1.108-1.091ZM43.575,47.555A7.77,7.77,0,0,0,53,56.028l-2.338,5.46a1.743,1.743,0,0,1-1.4.98H29.878c-.377,0-.4-.253-.265-.557L35.34,48.535a1.743,1.743,0,0,1,1.4-.98h6.837Zm.9-2.7h-4.7a.573.573,0,0,1-.332-.105l-3.9-2.774H30.808A1.251,1.251,0,0,0,29.55,43.2l-.007,16.009,4.752-11.1a2.868,2.868,0,0,1,2.442-1.663h7.07a7.509,7.509,0,0,1,.67-1.594Zm.33,2.224A6.776,6.776,0,0,1,56.081,43.9a6.439,6.439,0,0,1,.873,8.247,1.056,1.056,0,0,0,.143,1.36l.969.942a2.83,2.83,0,0,0-.639.624l-.968-.94A1.121,1.121,0,0,0,55.066,54a6.851,6.851,0,0,1-4.378,1.064,6.614,6.614,0,0,1-6.05-6.5,6.361,6.361,0,0,1,.169-1.483Zm-.962-24.158h3.3a.553.553,0,1,0,0-1.106h-3.3a.553.553,0,1,0,0,1.106Zm-4.99,0h2.628a.553.553,0,1,0,0-1.106H38.855a.553.553,0,1,0,0,1.106Zm0,2.9h8.287a.553.553,0,1,0,0-1.106H38.855a.553.553,0,1,0,0,1.106Zm6.64,2.9h1.647a.553.553,0,1,0,0-1.106H45.5a.553.553,0,1,0,0,1.106Zm-6.64,0h4.278a.553.553,0,1,0,0-1.106H38.855a.553.553,0,1,0,0,1.106Zm0,2.9h6.378a.553.553,0,1,0,0-1.106H38.855a.553.553,0,1,0,0,1.106Zm2.928-11.6h5.359a.553.553,0,1,0,0-1.106H41.783a.553.553,0,1,0,0,1.106ZM21.429,29.314v3.271a.567.567,0,0,0,1.133,0V29.314a.567.567,0,0,0-1.133,0Zm2.784-1.57v4.841a.567.567,0,0,0,1.133,0V27.744a.567.567,0,0,0-1.133,0ZM27,26.175v6.41a.567.567,0,0,0,1.133,0v-6.41a.567.567,0,0,0-1.133,0ZM29.781,24.6v7.984a.567.567,0,0,0,1.133,0V24.6a.567.567,0,0,0-1.133,0Zm26.207-1.3a3,3,0,0,0,0,4.307,3.172,3.172,0,0,0,4.41,0,3,3,0,0,0,0-4.307,3.172,3.172,0,0,0-4.41,0Zm4.955,5.32,2.4,2.921a.791.791,0,0,0,1.238-.65.555.555,0,0,0-.154-.408l-2.993-2.342-.492.48Zm1.1-1.411a4.227,4.227,0,1,0-8.106-1.755,4.251,4.251,0,0,0,6.049,3.764l2.434,2.972a1.671,1.671,0,0,0,1.345.6,1.849,1.849,0,0,0,1.322-3.209L62.047,27.21Zm-4.4-2.672a1.093,1.093,0,0,1,1.615.743.564.564,0,0,0,.648.456.553.553,0,0,0,.467-.633,2.229,2.229,0,0,0-3.3-1.521.545.545,0,0,0-.206.754.573.573,0,0,0,.772.2ZM43.566,34.525v4.61h14.4a1.28,1.28,0,0,0,1.292-1.261V34.525H53.922A1.605,1.605,0,0,1,52.3,32.941v-12.7a.544.544,0,0,1,.171-.4c.424-.411,3.713-3.655,3.844-3.738a.57.57,0,0,1,.32-.091h9.1A1.605,1.605,0,0,1,67.354,17.6V32.941a1.605,1.605,0,0,1-1.622,1.584h-5.34v3.348a2.4,2.4,0,0,1-2.425,2.368h-14.4v3.507h1.671a7.968,7.968,0,0,1,11.641-.631,7.524,7.524,0,0,1,1.03,9.621l1.249,1.214a.575.575,0,0,1,.468.143l7.242,6.366a2.245,2.245,0,0,1-1.609,3.862,2.191,2.191,0,0,1-1.631-.682l-6.559-7.05a.543.543,0,0,1-.142-.449l-1.25-1.215a7.851,7.851,0,0,1-1.268.665L51.7,61.912a2.868,2.868,0,0,1-2.442,1.663H29.878a1.365,1.365,0,0,1-1.465-1.458L28.422,43.2a2.364,2.364,0,0,1,2.387-2.333h4.919a.573.573,0,0,1,.357.124l3.879,2.756h2.469V40.241h-14.4a2.4,2.4,0,0,1-2.425-2.368V34.525h-5.34a1.605,1.605,0,0,1-1.622-1.584v-12.7a.545.545,0,0,1,.171-.4c.424-.411,3.713-3.655,3.844-3.738a.57.57,0,0,1,.32-.091h9.1A1.605,1.605,0,0,1,33.7,17.6V32.941a1.605,1.605,0,0,1-1.622,1.584H26.74v3.348a1.28,1.28,0,0,0,1.292,1.261h14.4v-4.61H37.095a1.605,1.605,0,0,1-1.622-1.584v-12.7a.545.545,0,0,1,.171-.4c.424-.411,3.713-3.655,3.844-3.738a.57.57,0,0,1,.32-.091h9.1A1.605,1.605,0,0,1,50.526,17.6V32.941A1.605,1.605,0,0,1,48.9,34.525H43.566Z" transform="translate(283.917 2405.369)" fill="#201144" fill-rule="evenodd"/>
    <path id="recopilacion-de-datos_-_Contorno" data-name="recopilacion-de-datos - Contorno" d="M22.976,15.862h9.1a1.779,1.779,0,0,1,1.251.507,1.7,1.7,0,0,1,.521,1.226V32.941a1.755,1.755,0,0,1-1.772,1.734H26.89v3.2a1.128,1.128,0,0,0,1.142,1.111H42.283v-4.31H37.095a1.755,1.755,0,0,1-1.772-1.734v-12.7a.694.694,0,0,1,.217-.5c.109-.106.414-.405.8-.784,2.239-2.2,2.985-2.92,3.068-2.973a.718.718,0,0,1,.4-.115h9.1a1.78,1.78,0,0,1,1.251.507,1.7,1.7,0,0,1,.521,1.226V32.941A1.755,1.755,0,0,1,48.9,34.675H43.716v4.31H57.967a1.128,1.128,0,0,0,1.142-1.111v-3.2H53.922a1.755,1.755,0,0,1-1.772-1.734v-12.7a.694.694,0,0,1,.217-.5c.11-.106.415-.406.8-.785,2.238-2.2,2.983-2.919,3.067-2.972a.718.718,0,0,1,.4-.115h9.1a1.779,1.779,0,0,1,1.251.507A1.7,1.7,0,0,1,67.5,17.6V32.941a1.755,1.755,0,0,1-1.772,1.734h-5.19v3.2a2.55,2.55,0,0,1-2.575,2.518H43.716V43.6h1.451a8.119,8.119,0,0,1,11.816-.589A7.756,7.756,0,0,1,59.3,47.746,7.677,7.677,0,0,1,58.1,52.717l1.111,1.08a.722.722,0,0,1,.513.187l7.24,6.365a2.241,2.241,0,0,1,.606,2.519,2.434,2.434,0,0,1-2.312,1.605h-.022a2.348,2.348,0,0,1-1.72-.73l-6.559-7.05a.692.692,0,0,1-.187-.493l-1.114-1.083a8.032,8.032,0,0,1-1.135.59l-2.682,6.263a3.029,3.029,0,0,1-2.58,1.754H29.878a1.647,1.647,0,0,1-1.2-.467,1.536,1.536,0,0,1-.414-1.146L28.272,43.2a2.514,2.514,0,0,1,2.537-2.483h4.919a.727.727,0,0,1,.447.154L40.011,43.6h2.271V40.391H28.032a2.55,2.55,0,0,1-2.575-2.518v-3.2h-5.19A1.755,1.755,0,0,1,18.5,32.941v-12.7a.694.694,0,0,1,.217-.5c.11-.106.414-.405.8-.784,2.238-2.2,2.984-2.919,3.068-2.973A.718.718,0,0,1,22.976,15.862Zm9.1,18.513a1.455,1.455,0,0,0,1.472-1.434V17.6a1.405,1.405,0,0,0-.43-1.012,1.481,1.481,0,0,0-1.041-.422h-9.1l0-.15v.15a.421.421,0,0,0-.232.066c-.15.117-2.017,1.949-3.021,2.935-.386.379-.692.679-.8.786a.394.394,0,0,0-.125.289v12.7a1.455,1.455,0,0,0,1.472,1.434h5.49v3.5a2.25,2.25,0,0,0,2.275,2.218H42.583V43.9H39.916L35.991,41.11a.425.425,0,0,0-.264-.091H30.808A2.214,2.214,0,0,0,28.572,43.2l-.008,18.916a1.246,1.246,0,0,0,.329.932,1.351,1.351,0,0,0,.985.376H49.261a2.709,2.709,0,0,0,2.3-1.572l2.73-6.375.056-.023A7.725,7.725,0,0,0,55.6,54.8l.1-.065,1.391,1.351-.011.076a.393.393,0,0,0,.1.325l6.559,7.05a2.047,2.047,0,0,0,1.5.634h.02a2.142,2.142,0,0,0,2.034-1.41,1.947,1.947,0,0,0-.523-2.189l-7.242-6.366a.427.427,0,0,0-.347-.107l-.073.011-1.392-1.353.07-.1A7.377,7.377,0,0,0,59,47.778a7.456,7.456,0,0,0-2.225-4.553,7.818,7.818,0,0,0-11.42.619l-.045.055H43.416V40.091H57.967a2.25,2.25,0,0,0,2.275-2.218v-3.5h5.49A1.455,1.455,0,0,0,67.2,32.941V17.6a1.405,1.405,0,0,0-.43-1.012,1.481,1.481,0,0,0-1.041-.422h-9.1a.425.425,0,0,0-.237.066c-.15.116-2.016,1.948-3.021,2.935-.387.38-.692.68-.8.786a.394.394,0,0,0-.125.289v12.7a1.455,1.455,0,0,0,1.472,1.434h5.486v3.5a1.429,1.429,0,0,1-1.442,1.411H43.416v-4.91H48.9a1.455,1.455,0,0,0,1.472-1.434V17.6a1.405,1.405,0,0,0-.43-1.012,1.481,1.481,0,0,0-1.041-.422h-9.1a.425.425,0,0,0-.237.066c-.149.116-2.017,1.949-3.022,2.936-.386.379-.691.678-.8.785a.394.394,0,0,0-.125.289v12.7a1.455,1.455,0,0,0,1.472,1.434h5.488v4.91H28.032a1.429,1.429,0,0,1-1.442-1.411v-3.5ZM23.539,16.968h8.538a.634.634,0,0,1,.639.627V32.941a.634.634,0,0,1-.639.627H20.267a.634.634,0,0,1-.639-.627V20.64h2.289a1.455,1.455,0,0,0,1.472-1.434V17.268h-.212l.256-.256.106.106Zm8.538,16.3a.333.333,0,0,0,.339-.327V17.6a.333.333,0,0,0-.339-.327H23.689v1.938a1.755,1.755,0,0,1-1.772,1.734H19.928v12a.333.333,0,0,0,.339.327h1.56a.707.707,0,0,1-.548-.683V29.314a.717.717,0,0,1,1.433,0v3.271a.707.707,0,0,1-.548.683h2.447a.707.707,0,0,1-.548-.683V27.744a.717.717,0,0,1,1.433,0v4.841a.707.707,0,0,1-.548.683H27.4a.707.707,0,0,1-.548-.683v-6.41a.717.717,0,0,1,1.433,0v6.41a.707.707,0,0,1-.548.683h2.447a.707.707,0,0,1-.548-.683V24.6a.717.717,0,0,1,1.433,0v7.984a.707.707,0,0,1-.548.683Zm-1.729-.28a.41.41,0,0,0,.417-.4V24.6a.417.417,0,0,0-.833,0v7.984A.41.41,0,0,0,30.348,32.988Zm-2.784,0a.41.41,0,0,0,.417-.4v-6.41a.417.417,0,0,0-.833,0v6.41A.41.41,0,0,0,27.564,32.988Zm-2.784,0a.41.41,0,0,0,.417-.4V27.744a.417.417,0,0,0-.833,0v4.841A.41.41,0,0,0,24.78,32.988Zm-2.784,0a.41.41,0,0,0,.417-.4V29.314a.417.417,0,0,0-.833,0v3.271A.41.41,0,0,0,22,32.988Zm18.371-16.02H48.9a.634.634,0,0,1,.639.627V32.941a.634.634,0,0,1-.639.627H37.094a.634.634,0,0,1-.639-.627V20.64h2.289a1.455,1.455,0,0,0,1.472-1.434V17.268H40l.256-.256.106.106Zm8.538,16.3a.333.333,0,0,0,.339-.327V17.6a.333.333,0,0,0-.339-.327H40.516v1.938a1.755,1.755,0,0,1-1.772,1.734H36.756v12a.333.333,0,0,0,.339.327Zm8.29-16.3h8.538a.634.634,0,0,1,.639.627V32.941a.634.634,0,0,1-.639.627H53.922a.634.634,0,0,1-.639-.627V20.64h2.289a1.455,1.455,0,0,0,1.472-1.434V17.268h-.238l.287-.261.1.111Zm8.538,16.3a.333.333,0,0,0,.339-.327V17.6a.333.333,0,0,0-.339-.327H57.344v1.938a1.755,1.755,0,0,1-1.772,1.734H53.583v12a.333.333,0,0,0,.339.327ZM22.556,17.544v1.662a.634.634,0,0,1-.639.627H20.579v-.15l-.1-.107Zm-.639,1.99a.333.333,0,0,0,.339-.327v-.95l-1.308,1.277Zm17.466-1.99v1.662a.634.634,0,0,1-.639.627H37.407v-.15l-.1-.107Zm-.639,1.99a.333.333,0,0,0,.339-.327v-.95l-1.308,1.277Zm17.466-1.99v1.662a.634.634,0,0,1-.639.627H54.235v-.15l-.1-.107Zm-.639,1.99a.333.333,0,0,0,.339-.327v-.95L54.6,19.534Zm-13.789-.771h5.359a.7.7,0,1,1,0,1.406H41.783a.7.7,0,1,1,0-1.406Zm5.359,1.106a.4.4,0,1,0,0-.806H41.783a.4.4,0,1,0,0,.806ZM27.4,20.948h0a.73.73,0,0,1,.184.024l1.9.5a.709.709,0,0,1,.438.332.687.687,0,0,1,.069.529l-.51,1.857a.715.715,0,0,1-.691.52.731.731,0,0,1-.184-.024.709.709,0,0,1-.439-.332.687.687,0,0,1-.069-.529l.061-.223-5.811,3.276a.723.723,0,0,1-.975-.255.686.686,0,0,1-.074-.531.7.7,0,0,1,.335-.431l5.8-3.271-.224-.059A.708.708,0,0,1,26.779,22a.687.687,0,0,1-.069-.529A.715.715,0,0,1,27.4,20.948Zm1.393,3.46a.414.414,0,0,0,.4-.3l.51-1.857a.389.389,0,0,0-.039-.3.411.411,0,0,0-.255-.192l-1.9-.5a.43.43,0,0,0-.108-.014h0a.414.414,0,0,0-.4.3.389.389,0,0,0,.039.3.411.411,0,0,0,.255.192l.941.246-6.448,3.635a.4.4,0,0,0-.192.247.389.389,0,0,0,.042.3.419.419,0,0,0,.361.2.425.425,0,0,0,.209-.055l6.438-3.63-.252.917a.389.389,0,0,0,.039.3.411.411,0,0,0,.255.192A.43.43,0,0,0,28.793,24.408Zm29.4-3.255A4.393,4.393,0,0,1,61.937,23.2a4.206,4.206,0,0,1,.3,3.967l2.956,2.308a1.867,1.867,0,0,1,.555,2.1,2.1,2.1,0,0,1-1.973,1.376h-.019a1.825,1.825,0,0,1-1.444-.66L59.946,29.4a4.433,4.433,0,0,1-1.746.358,4.3,4.3,0,1,1-.007-8.607Zm3.758,5.907a3.908,3.908,0,0,0-.269-3.7,4.069,4.069,0,1,0-3.483,6.1,4.144,4.144,0,0,0,1.728-.378l.105-.048L62.54,32.1a1.51,1.51,0,0,0,1.212.55h.016a1.8,1.8,0,0,0,1.694-1.179A1.554,1.554,0,0,0,65,29.7L61.611,27.06Zm-23.1-5.4h2.628a.7.7,0,1,1,0,1.406H38.855a.7.7,0,1,1,0-1.406Zm2.628,1.106a.4.4,0,1,0,0-.806H38.855a.4.4,0,1,0,0,.806Zm2.362-1.106h3.3a.7.7,0,1,1,0,1.406h-3.3a.7.7,0,1,1,0-1.406Zm3.3,1.106a.4.4,0,1,0,0-.806h-3.3a.4.4,0,1,0,0,.806Zm11.05-.51a3.286,3.286,0,0,1,2.31.935,3.145,3.145,0,0,1,0,4.521,3.322,3.322,0,0,1-4.62,0,3.145,3.145,0,0,1,0-4.521l.045-.043A3.286,3.286,0,0,1,58.193,22.26Zm0,6.091a2.987,2.987,0,0,0,2.1-.849,2.845,2.845,0,0,0,0-4.092,3.022,3.022,0,0,0-4.2,0l-.015.015a2.845,2.845,0,0,0,.015,4.077A2.987,2.987,0,0,0,58.193,28.351Zm-.007-5.212a2.377,2.377,0,0,1,2.341,1.94.688.688,0,0,1-.122.519.711.711,0,0,1-.47.288.735.735,0,0,1-.115.009.708.708,0,0,1-.705-.589.943.943,0,0,0-1.393-.637.723.723,0,0,1-.975-.255.686.686,0,0,1-.074-.531.7.7,0,0,1,.335-.431A2.364,2.364,0,0,1,58.186,23.139Zm1.635,2.455a.435.435,0,0,0,.068-.005.413.413,0,0,0,.273-.167.39.39,0,0,0,.069-.294,2.079,2.079,0,0,0-3.075-1.415.4.4,0,0,0-.193.247.389.389,0,0,0,.042.3.419.419,0,0,0,.361.2.425.425,0,0,0,.209-.055,1.243,1.243,0,0,1,1.837.849A.409.409,0,0,0,59.821,25.595ZM38.855,24.565h8.287a.7.7,0,1,1,0,1.406H38.855a.7.7,0,1,1,0-1.406Zm8.287,1.106a.4.4,0,1,0,0-.806H38.855a.4.4,0,1,0,0,.806Zm-8.287,1.795h4.278a.7.7,0,1,1,0,1.406H38.855a.7.7,0,1,1,0-1.406Zm4.278,1.106a.4.4,0,1,0,0-.806H38.855a.4.4,0,1,0,0,.806ZM45.5,27.466h1.647a.7.7,0,1,1,0,1.406H45.5a.7.7,0,1,1,0-1.406Zm1.647,1.106a.4.4,0,1,0,0-.806H45.5a.4.4,0,1,0,0,.806Zm14.281-.63,3.108,2.434a.7.7,0,0,1,.2.517.974.974,0,0,1-.978.953.729.729,0,0,1-.516-.2l-.011-.012L60.74,28.611Zm2.9,2.654-2.882-2.256-.3.292,2.307,2.807a.436.436,0,0,0,.3.106.673.673,0,0,0,.678-.655A.41.41,0,0,0,64.328,30.6Zm-25.473-.229h6.378a.7.7,0,1,1,0,1.406H38.855a.7.7,0,1,1,0-1.406Zm6.378,1.106a.4.4,0,1,0,0-.806H38.855a.4.4,0,1,0,0,.806ZM30.808,41.825h4.784l3.944,2.8a.422.422,0,0,0,.245.077h4.953l-.126.224a7.375,7.375,0,0,0-.657,1.562l-.031.108H36.737a2.709,2.709,0,0,0-2.3,1.572l-4.752,11.1-.288-.059L29.4,43.2A1.4,1.4,0,0,1,30.808,41.825Zm4.688.3H30.808A1.094,1.094,0,0,0,29.7,43.2l-.007,15.277,4.464-10.426a3.029,3.029,0,0,1,2.58-1.754H43.7A7.674,7.674,0,0,1,44.226,45H39.781a.72.72,0,0,1-.419-.133Zm15.916-.289a6.824,6.824,0,0,1,4.773,1.956,6.6,6.6,0,0,1,.892,8.439A.9.9,0,0,0,57.2,53.4l1.1,1.067-.147.1a2.685,2.685,0,0,0-.605.591l-.1.138-1.091-1.06a.961.961,0,0,0-.673-.272.975.975,0,0,0-.533.159,6.948,6.948,0,0,1-3.8,1.12c-.223,0-.449-.011-.671-.032a6.9,6.9,0,0,1-4.4-2.162,6.6,6.6,0,0,1-1.784-4.49,6.026,6.026,0,0,1,.147-1.38l.026-.137a6.557,6.557,0,0,1,2.514-3.805A7.147,7.147,0,0,1,51.412,41.836Zm6.424,12.6-.844-.82a1.214,1.214,0,0,1-.163-1.552,6.3,6.3,0,0,0-.853-8.055,6.44,6.44,0,0,0-4.564-1.871,6.845,6.845,0,0,0-4.058,1.344,6.26,6.26,0,0,0-2.4,3.629l-.024.128a5.722,5.722,0,0,0-.142,1.323,6.306,6.306,0,0,0,1.7,4.286A6.6,6.6,0,0,0,50.7,54.915c.212.02.428.031.642.031a6.648,6.648,0,0,0,3.639-1.071,1.274,1.274,0,0,1,.7-.207,1.26,1.26,0,0,1,.883.357l.849.825A2.981,2.981,0,0,1,57.836,54.434ZM51.353,43.1a5.6,5.6,0,0,1,3.923,1.581,5.357,5.357,0,0,1,.018,7.7,5.666,5.666,0,0,1-7.874.017,5.344,5.344,0,0,1-1.641-3.807A5.434,5.434,0,0,1,47.4,44.7,5.621,5.621,0,0,1,51.353,43.1ZM51.34,53.684a5.326,5.326,0,0,0,3.745-1.514,5.057,5.057,0,0,0-.018-7.271,5.367,5.367,0,0,0-7.455.018,5.135,5.135,0,0,0-1.533,3.675,5.046,5.046,0,0,0,1.55,3.595A5.275,5.275,0,0,0,51.34,53.684Zm.007-9.481a4.467,4.467,0,0,1,3.132,1.263A4.269,4.269,0,0,1,54.5,51.6a4.509,4.509,0,0,1-6.277.017,4.266,4.266,0,0,1-.018-6.139A4.478,4.478,0,0,1,51.336,44.2Zm0,8.38a4.186,4.186,0,0,0,2.942-1.194,3.969,3.969,0,0,0-.016-5.708A4.169,4.169,0,0,0,51.347,44.5h-.01A4.179,4.179,0,0,0,48.411,45.7a3.966,3.966,0,0,0,.017,5.71A4.162,4.162,0,0,0,51.344,52.584ZM36.738,47.4h7.008l-.022.17A7.285,7.285,0,0,0,45.5,53.407a7.761,7.761,0,0,0,5.838,2.644,7.993,7.993,0,0,0,1.632-.17l.282-.059L50.8,61.548a1.9,1.9,0,0,1-1.535,1.071H29.878a.472.472,0,0,1-.424-.184.609.609,0,0,1,.021-.582L35.2,48.476A1.9,1.9,0,0,1,36.738,47.4Zm6.668.3H36.738a1.592,1.592,0,0,0-1.259.889L29.75,61.971c-.071.165-.07.263-.046.3s.084.049.174.049H49.261a1.592,1.592,0,0,0,1.259-.889l2.227-5.2a8.263,8.263,0,0,1-1.414.123A8.061,8.061,0,0,1,45.27,53.6,7.577,7.577,0,0,1,43.405,47.7Zm15.736,7.251.579.51.076.076-.048.1a2.3,2.3,0,0,1-1.095,1.079l-.1.048-.6-.645.039-.09a1.915,1.915,0,0,1,1.061-1.038Zm.285.65-.34-.3a1.582,1.582,0,0,0-.777.755l.312.335A1.984,1.984,0,0,0,59.426,55.606Zm1.017.494,5.766,5.069a1.14,1.14,0,0,1,.386.878,1.353,1.353,0,0,1-1.364,1.325A1.182,1.182,0,0,1,64.354,63l-5.222-5.612.159-.1a3.094,3.094,0,0,0,1.058-1.041Zm4.788,6.972a1.052,1.052,0,0,0,1.064-1.026.847.847,0,0,0-.285-.653l-5.5-4.837a3.378,3.378,0,0,1-.906.894L64.574,62.8A.885.885,0,0,0,65.231,63.073Z" transform="translate(283.917 2405.369)" fill="#201144"/>
  </g>
</svg>
