<svg xmlns="http://www.w3.org/2000/svg" width="96.762" height="96.762" viewBox="0 0 96.762 96.762">
  <g id="_58" data-name="58" transform="translate(-594.254 -2409)">
    <g id="Grupo_1099174" data-name="Grupo 1099174" transform="translate(594.254 2409)">
      <g id="Grupo_1099167" data-name="Grupo 1099167" transform="translate(0 0)">
        <path id="Trazado_873000" data-name="Trazado 873000" d="M48.381,0h0V22.476a25.9,25.9,0,1,0,25.905,25.9H96.762A48.381,48.381,0,1,1,48.381,0" transform="translate(0 96.762) rotate(-90)" fill="#201144"/>
      </g>
      <rect id="Rectángulo_401249" data-name="Rectángulo 401249" width="66.409" height="66.409" rx="33.204" transform="translate(15.157 15.157)" fill="#e8faf9"/>
    </g>
    <g id="proceso" transform="translate(617.254 2429)">
      <path id="Trazado_874455" data-name="Trazado 874455" d="M295.51,286.926v-6.342l-2.429-.621c-.017-.041-.034-.082-.051-.123l1.279-2.155-4.484-4.484-2.155,1.279-.123-.051L286.926,272h-6.342l-.621,2.429-.123.051-2.155-1.279-4.484,4.484,1.279,2.155-.051.123-2.428.621v6.342l2.429.621c.017.041.034.082.051.123l-1.279,2.155,4.484,4.484,2.155-1.279.123.051.621,2.428h6.342l.621-2.429.123-.051,2.155,1.279,4.484-4.484-1.279-2.155.051-.123ZM292.2,289.56l-2.64,2.64-1.795-1.065-.4.193a8.4,8.4,0,0,1-.8.332l-.423.15-.515,2.021h-3.734l-.515-2.021-.423-.15a7.906,7.906,0,0,1-.8-.332l-.4-.193-1.795,1.065-2.64-2.64,1.065-1.795-.193-.4a8.384,8.384,0,0,1-.332-.8l-.15-.423-2.022-.515v-3.734l2.021-.515.15-.423a7.913,7.913,0,0,1,.332-.8l.193-.4-1.065-1.795,2.64-2.64,1.794,1.065.4-.193a8.385,8.385,0,0,1,.8-.332l.423-.15.515-2.022h3.734l.515,2.021.423.15a7.913,7.913,0,0,1,.8.332l.4.193,1.795-1.065,2.64,2.64-1.065,1.794.193.4a8.4,8.4,0,0,1,.332.8l.15.423,2.022.515v3.734l-2.021.515-.15.423a7.906,7.906,0,0,1-.332.8l-.193.4Zm0,0" transform="translate(-243.452 -243.452)" fill="#201144"/>
      <path id="Trazado_874456" data-name="Trazado 874456" d="M326.717,320a6.717,6.717,0,1,0,6.717,6.717A6.725,6.725,0,0,0,326.717,320Zm0,11.755a5.038,5.038,0,1,1,5.038-5.038A5.043,5.043,0,0,1,326.717,331.755Zm0,0" transform="translate(-286.414 -286.414)" fill="#201144"/>
      <path id="Trazado_874457" data-name="Trazado 874457" d="M355.359,352a3.359,3.359,0,1,0,3.359,3.359A3.362,3.362,0,0,0,355.359,352Zm0,5.038a1.679,1.679,0,1,1,1.679-1.679A1.681,1.681,0,0,1,355.359,357.038Zm0,0" transform="translate(-315.055 -315.055)" fill="#201144"/>
      <path id="Trazado_874458" data-name="Trazado 874458" d="M157.311,14.217a5.046,5.046,0,0,0,1.406,2.123v.712l-3.992,1.5A4.217,4.217,0,0,0,152,22.479v4.39h20.152v-4.39a4.219,4.219,0,0,0-2.724-3.931l-3.993-1.5V16.34a5.036,5.036,0,0,0,1.406-2.123,3.357,3.357,0,0,0,2.792-3.3V7.557a7.557,7.557,0,1,0-15.114,0v3.359A3.357,3.357,0,0,0,157.311,14.217Zm6.444,3.183-1.679,2.8L160.4,17.4v-.061a4.944,4.944,0,0,0,3.359,0ZM159.2,18.665l1.693,2.82-1.682.84-1.086-3.258Zm11.276,3.815v2.71H153.679v-2.71a2.53,2.53,0,0,1,1.635-2.359l1.234-.462,1.678,5.036,3.849-1.924,3.849,1.924,1.678-5.036,1.235.463A2.529,2.529,0,0,1,170.472,22.479Zm-4.442-3.412-1.086,3.259-1.682-.84,1.693-2.821Zm-3.955-3.114a3.362,3.362,0,0,1-3.359-3.359V9.179a6.5,6.5,0,0,0,3.359-1.34,6.493,6.493,0,0,0,3.359,1.34v3.416A3.362,3.362,0,0,1,162.076,15.953Zm5.038-3.592V9.47a1.664,1.664,0,0,1,0,2.891ZM162.076,1.679a5.885,5.885,0,0,1,5.878,5.878v.467a3.322,3.322,0,0,0-1.679-.467h-.144a4.859,4.859,0,0,1-3.46-1.433l-.594-.594-.594.594a4.86,4.86,0,0,1-3.46,1.433h-.144a3.322,3.322,0,0,0-1.679.467V7.557A5.885,5.885,0,0,1,162.076,1.679Zm-5.038,7.79v2.891a1.664,1.664,0,0,1,0-2.891Zm0,0" transform="translate(-136.047)" fill="#201144"/>
      <path id="Trazado_874459" data-name="Trazado 874459" d="M0,309.831H16.793V288H0Zm1.679-20.152H15.114v18.472H1.679Zm0,0" transform="translate(0 -257.772)" fill="#201144"/>
      <path id="Trazado_874460" data-name="Trazado 874460" d="M32,320H42.076v1.679H32Zm0,0" transform="translate(-28.641 -286.414)" fill="#201144"/>
      <path id="Trazado_874461" data-name="Trazado 874461" d="M32,352h1.679v1.679H32Zm0,0" transform="translate(-28.641 -315.055)" fill="#201144"/>
      <path id="Trazado_874462" data-name="Trazado 874462" d="M64,352h6.717v1.679H64Zm0,0" transform="translate(-57.283 -315.055)" fill="#201144"/>
      <path id="Trazado_874463" data-name="Trazado 874463" d="M32,384H42.076v1.679H32Zm0,0" transform="translate(-28.641 -343.697)" fill="#201144"/>
      <path id="Trazado_874464" data-name="Trazado 874464" d="M32,416H42.076v1.679H32Zm0,0" transform="translate(-28.641 -372.338)" fill="#201144"/>
      <path id="Trazado_874465" data-name="Trazado 874465" d="M112,448h1.679v1.679H112Zm0,0" transform="translate(-100.245 -400.979)" fill="#201144"/>
      <path id="Trazado_874466" data-name="Trazado 874466" d="M32,448h6.717v1.679H32Zm0,0" transform="translate(-28.641 -400.979)" fill="#201144"/>
      <path id="Trazado_874467" data-name="Trazado 874467" d="M169.827,347.531l-1.187-1.187-3.952,3.952,3.952,3.952,1.187-1.187-1.925-1.925h6.37v-1.679H167.9Zm0,0" transform="translate(-147.402 -309.993)" fill="#201144"/>
      <path id="Trazado_874468" data-name="Trazado 874468" d="M73.679,79.975a.841.841,0,0,1,.84-.84H78.37l-1.925,1.925,1.187,1.187L81.584,78.3l-3.952-3.952-1.187,1.187,1.925,1.925H74.519A2.522,2.522,0,0,0,72,79.975V95.089h1.679Zm0,0" transform="translate(-64.443 -66.541)" fill="#201144"/>
      <path id="Trazado_874469" data-name="Trazado 874469" d="M341.038,106.519v10.568l-1.925-1.925-1.187,1.187,3.952,3.952,3.952-3.952-1.187-1.187-1.925,1.925V106.519A2.522,2.522,0,0,0,340.2,104H336v1.679h4.2A.841.841,0,0,1,341.038,106.519Zm0,0" transform="translate(-300.734 -93.084)" fill="#201144"/>
    </g>
  </g>
</svg>
