<svg xmlns="http://www.w3.org/2000/svg" width="96.762" height="96.762" viewBox="0 0 96.762 96.762">
  <g id="_59" data-name="59" transform="translate(-909.254 -2373)">
    <g id="Grupo_1099174" data-name="Grupo 1099174" transform="translate(909.254 2373)">
      <g id="Grupo_1099167" data-name="Grupo 1099167" transform="translate(0 0)">
        <path id="Trazado_873000" data-name="Trazado 873000" d="M48.381,0h0V22.476a25.9,25.9,0,1,0,25.905,25.9H96.762A48.381,48.381,0,1,1,48.381,0" transform="translate(0 96.762) rotate(-90)" fill="#201144"/>
      </g>
      <rect id="Rectángulo_401249" data-name="Rectángulo 401249" width="66.409" height="66.409" rx="33.204" transform="translate(15.157 15.157)" fill="#e8faf9"/>
    </g>
    <g id="documento-legal" transform="translate(935.254 2398.956)">
      <path id="Trazado_874488" data-name="Trazado 874488" d="M68.907,133.7h9.92a.646.646,0,0,0,0-1.293h-9.92a.646.646,0,1,0,0,1.293Z" transform="translate(-62.378 -120.952)" fill="#201144"/>
      <path id="Trazado_874489" data-name="Trazado 874489" d="M68.907,312.4a.646.646,0,1,0,0,1.293H79.689a.646.646,0,1,0,0-1.293Z" transform="translate(-62.378 -285.438)" fill="#201144"/>
      <path id="Trazado_874490" data-name="Trazado 874490" d="M218.236,193.7a.646.646,0,1,0,0-1.293h-7.09a.646.646,0,1,0,0,1.293Z" transform="translate(-192.357 -175.781)" fill="#201144"/>
      <path id="Trazado_874491" data-name="Trazado 874491" d="M66.884,193.7H76.3a.646.646,0,1,0,0-1.293H66.884a.646.646,0,1,0,0,1.293Z" transform="translate(-60.529 -175.781)" fill="#201144"/>
      <path id="Trazado_874492" data-name="Trazado 874492" d="M66.884,253.7H82.05a.646.646,0,1,0,0-1.293H66.884a.646.646,0,1,0,0,1.293Z" transform="translate(-60.529 -230.61)" fill="#201144"/>
      <path id="Trazado_874493" data-name="Trazado 874493" d="M66.884,373.7h12.58a.646.646,0,0,0,0-1.293H66.884a.646.646,0,0,0,0,1.293Z" transform="translate(-60.529 -340.267)" fill="#201144"/>
      <path id="Trazado_874494" data-name="Trazado 874494" d="M44.122,37.155a3.113,3.113,0,0,0-1.379-2.276l-5.619-4.442L38.4,29.159a1.875,1.875,0,0,0,.811.181h0a2.455,2.455,0,0,0,1.712-.751l0,0a2.157,2.157,0,0,0,.229-3l-6.584-6.619a1.993,1.993,0,0,0-2.339-.253V13.1a3.2,3.2,0,0,0-.956-2.285L21.36.99A3.256,3.256,0,0,0,19.054.044H4.133A4.117,4.117,0,0,0,0,4.136v2.4a.646.646,0,1,0,1.293,0v-2.4a2.823,2.823,0,0,1,2.84-2.8l15.36.051V9.7a3,3,0,0,0,3,2.981h8.4l.048,7.546a2.056,2.056,0,0,0,.079,1.534L25.184,27.59a2.275,2.275,0,0,0-2.539.556,2.15,2.15,0,0,0-.237,3.009l6.6,6.6a1.922,1.922,0,0,0,1.931.413,2.914,2.914,0,0,1-.824,2.33,2.827,2.827,0,0,1-2.039.828l-1.324-.009a2.38,2.38,0,0,0-1.5-1.226v-.547a2.373,2.373,0,0,0-2.37-2.37H14.924a2.373,2.373,0,0,0-2.37,2.37v.547a2.38,2.38,0,0,0-1.45,1.129H4.133a2.823,2.823,0,0,1-2.84-2.8V9.547A.646.646,0,1,0,0,9.547V38.422a4.117,4.117,0,0,0,4.133,4.092H10.8v.573a1.079,1.079,0,0,0,1.077,1.077h2.947a.646.646,0,0,0,0-1.293H12.093v-.491A1.079,1.079,0,0,1,13.17,41.3H24.637a1.079,1.079,0,0,1,1.077,1.077v.491H17.841a.646.646,0,1,0,0,1.293H25.93a1.079,1.079,0,0,0,1.077-1.077v-.474l1.093.008a4.127,4.127,0,0,0,2.928-1.2,4.043,4.043,0,0,0,1.206-2.888V37.273a2.2,2.2,0,0,0,.341-2.291l1.241-1.24,4.433,5.637c1.59,1.932,3.208,1.737,4.8.3a3.292,3.292,0,0,0,1.076-2.527Zm-29.2,1.313h7.959a1.079,1.079,0,0,1,1.077,1.077v.465H13.846v-.465A1.079,1.079,0,0,1,14.924,38.468Zm17.565-18.36c.338-.311.788-.531,1.168-.233l6.584,6.619c.252.253.143.807-.233,1.184-.348.328-.859.556-1.22.181l-2.439-2.452a.646.646,0,0,0-.917.912l1.985,2C35.707,30.024,33.44,32.29,31.729,34l-5.564-5.563,5.7-5.7,1.419,1.427a.646.646,0,0,0,.917-.912l-1.877-1.887c-.343-.27-.243-.839.162-1.257ZM20.785,9.7V2.24l9.231,9.143H22.5A1.7,1.7,0,0,1,20.785,9.7Zm9.139,27.147-6.6-6.6c-.3-.381-.08-.832.23-1.172.411-.4.977-.508,1.243-.174l6.54,6.539c.3.382.078.837-.233,1.176C30.725,36.984,30.175,37.093,29.924,36.842ZM42.13,38.769a1.688,1.688,0,0,1-2.859-.183l-4.533-5.764L36.2,31.357,41.947,35.9a1.7,1.7,0,0,1,.183,2.871Z" fill="#201144"/>
    </g>
  </g>
</svg>
