<svg xmlns="http://www.w3.org/2000/svg" width="96.762" height="96.762" viewBox="0 0 96.762 96.762">
  <g id="_60" data-name="60" transform="translate(-1224.254 -2409)">
    <g id="Grupo_1099174" data-name="Grupo 1099174" transform="translate(1224.254 2409)">
      <g id="Grupo_1099167" data-name="Grupo 1099167" transform="translate(0 0)">
        <path id="Trazado_873000" data-name="Trazado 873000" d="M48.381,0h0V22.476a25.9,25.9,0,1,0,25.905,25.9H96.762A48.381,48.381,0,1,1,48.381,0" transform="translate(0 96.762) rotate(-90)" fill="#201144"/>
      </g>
      <rect id="Rectángulo_401249" data-name="Rectángulo 401249" width="66.409" height="66.409" rx="33.204" transform="translate(15.157 15.157)" fill="#e8faf9"/>
    </g>
    <g id="licencias" transform="translate(1250.264 2434.992)">
      <path id="Trazado_874470" data-name="Trazado 874470" d="M387.761,40.247v-7.49a.749.749,0,0,0-.749-.749h-3v1.5h2.247v6.741Zm0,0" transform="translate(-348.07 -29.004)" fill="#201144"/>
      <path id="Trazado_874471" data-name="Trazado 874471" d="M56.016,240.008v18.726a.749.749,0,0,0,.749.749H86.726a.749.749,0,0,0,.749-.749V253.49h-1.5v4.494H57.514V240.008Zm0,0" transform="translate(-50.78 -217.529)" fill="#201144"/>
      <path id="Trazado_874472" data-name="Trazado 874472" d="M80.295.083c-.023-.011-.046-.016-.07-.025a.745.745,0,0,0-.194-.039.286.286,0,0,0-.046-.011H56.765a.749.749,0,0,0-.749.749v1.5h1.5V1.506H79.236V7.5a.749.749,0,0,0,.749.749h5.992v3.745h1.5V7.5c0-.016-.008-.03-.009-.046a.73.73,0,0,0-.039-.194c-.008-.024-.014-.046-.025-.07a.744.744,0,0,0-.15-.219L80.511.227a.75.75,0,0,0-.217-.144Zm4.623,6.666H80.734V2.565Zm0,0" transform="translate(-50.78)" fill="#201144"/>
      <path id="Trazado_874473" data-name="Trazado 874473" d="M184.016,328.757v5.992a.749.749,0,0,0,.749.749H194.5V334h-8.988v-4.494h3.745v-1.5h-4.494A.749.749,0,0,0,184.016,328.757Zm0,0" transform="translate(-166.796 -297.29)" fill="#201144"/>
      <path id="Trazado_874474" data-name="Trazado 874474" d="M216.016,360.008h4.494v1.5h-4.494Zm0,0" transform="translate(-195.8 -326.294)" fill="#201144"/>
      <path id="Trazado_874475" data-name="Trazado 874475" d="M126.726,136.008a5.25,5.25,0,0,0-5.243,5.243v.075l-3.82,4.033-2.392-2.392a.749.749,0,0,0-1.059,0l-6.741,6.741a.749.749,0,0,0,0,1.059l10.486,10.486a.749.749,0,0,0,1.059,0l2.247-2.247,3.965-3.963v11.674H96.016v1.5h29.961a.749.749,0,0,0,.749-.749V149.49h-1.5v3.435l-2.611-2.611,4.034-3.82h.075a5.243,5.243,0,0,0,0-10.486Zm-8.239,23.659-9.427-9.427,1.188-1.188,9.427,9.427Zm5.682-5.682-3.435,3.435-9.427-9.427,3.435-3.435,1.89,1.89-1.685,1.778a.749.749,0,0,0,.014,1.049l3.745,3.745a.749.749,0,0,0,1.044.014l1.779-1.685ZM126.726,145h-.375a.75.75,0,0,0-.515.205l-6.586,6.237-2.711-2.711,6.239-6.586a.749.749,0,0,0,.2-.515v-.375A3.745,3.745,0,1,1,126.726,145Zm0,0" transform="translate(-87.035 -123.267)" fill="#201144"/>
      <path id="Trazado_874476" data-name="Trazado 874476" d="M152.016,232.008h7.49v1.5h-7.49Zm0,0" transform="translate(-137.792 -210.278)" fill="#201144"/>
      <path id="Trazado_874477" data-name="Trazado 874477" d="M104.016,264.008H113v1.5h-8.988Zm0,0" transform="translate(-94.286 -239.282)" fill="#201144"/>
      <path id="Trazado_874478" data-name="Trazado 874478" d="M176.016,200.008H185v1.5h-8.988Zm0,0" transform="translate(-159.545 -181.274)" fill="#201144"/>
      <path id="Trazado_874479" data-name="Trazado 874479" d="M104.016,296.008h4.494v1.5h-4.494Zm0,0" transform="translate(-94.286 -268.286)" fill="#201144"/>
      <path id="Trazado_874480" data-name="Trazado 874480" d="M104.016,328.008h5.992v1.5h-5.992Zm0,0" transform="translate(-94.286 -297.29)" fill="#201144"/>
      <path id="Trazado_874481" data-name="Trazado 874481" d="M104.016,360.008h5.992v1.5h-5.992Zm0,0" transform="translate(-94.286 -326.294)" fill="#201144"/>
      <path id="Trazado_874482" data-name="Trazado 874482" d="M104.016,392.008h5.992v1.5h-5.992Zm0,0" transform="translate(-94.286 -355.298)" fill="#201144"/>
      <path id="Trazado_874483" data-name="Trazado 874483" d="M104.016,232.008h3v1.5h-3Zm0,0" transform="translate(-94.286 -210.278)" fill="#201144"/>
      <path id="Trazado_874484" data-name="Trazado 874484" d="M168.016,296.008h3v1.5h-3Zm0,0" transform="translate(-152.294 -268.286)" fill="#201144"/>
      <path id="Trazado_874485" data-name="Trazado 874485" d="M200.016,160.008h7.49v1.5h-7.49Zm0,0" transform="translate(-181.298 -145.019)" fill="#201144"/>
      <path id="Trazado_874486" data-name="Trazado 874486" d="M8.981,49.972A8.989,8.989,0,0,0,17.953,41.3a1.98,1.98,0,0,0,1.452.454,2.031,2.031,0,0,0,3.119,0,2.032,2.032,0,0,0,2.205-2.205,2.031,2.031,0,0,0,0-3.119,2.032,2.032,0,0,0-2.205-2.205,2.031,2.031,0,0,0-3.119,0A2.032,2.032,0,0,0,17.2,36.428a1.944,1.944,0,0,0-.3.309,8.988,8.988,0,1,0-7.92,13.235Zm9.337-12.479a.749.749,0,0,0,.426-1.027.524.524,0,0,1,.7-.7.749.749,0,0,0,1.027-.426.524.524,0,0,1,.989,0,.749.749,0,0,0,1.027.426.524.524,0,0,1,.7.7.749.749,0,0,0,.426,1.027.524.524,0,0,1,0,.989.749.749,0,0,0-.426,1.027.5.5,0,0,1-.1.6.51.51,0,0,1-.6.1.749.749,0,0,0-1.027.425.524.524,0,0,1-.989,0,.747.747,0,0,0-.42-.441.764.764,0,0,0-.287-.057.734.734,0,0,0-.321.075.524.524,0,0,1-.7-.7.749.749,0,0,0-.426-1.027.524.524,0,0,1,0-.989Zm-9.337-4a7.49,7.49,0,1,1-7.49,7.49A7.49,7.49,0,0,1,8.981,33.493Zm0,0" transform="translate(0 -28.991)" fill="#201144"/>
      <path id="Trazado_874487" data-name="Trazado 874487" d="M36.606,90.9a.749.749,0,0,0,1.059,0l7.49-7.49L44.1,82.352l-6.961,6.961-1.717-1.717-1.059,1.059Zm0,0" transform="translate(-31.152 -74.634)" fill="#201144"/>
    </g>
  </g>
</svg>
