<svg xmlns="http://www.w3.org/2000/svg" width="96.762" height="96.762" viewBox="0 0 96.762 96.762">
  <g id="_61" data-name="61" transform="translate(-279.254 -2817)">
    <g id="Grupo_1100245" data-name="Grupo 1100245">
      <g id="Grupo_1099174" data-name="Grupo 1099174" transform="translate(279.254 2817)">
        <g id="Grupo_1099167" data-name="Grupo 1099167" transform="translate(0 0)">
          <path id="Trazado_873000" data-name="Trazado 873000" d="M48.381,0h0V22.476a25.9,25.9,0,1,0,25.905,25.9H96.762A48.381,48.381,0,1,1,48.381,0" transform="translate(0 96.762) rotate(-90)" fill="#201144"/>
        </g>
        <rect id="Rectángulo_401249" data-name="Rectángulo 401249" width="66.409" height="66.409" rx="33.204" transform="translate(15.157 15.157)" fill="#e8faf9"/>
      </g>
      <g id="certificado" transform="translate(248.755 2840)">
        <path id="Trazado_874495" data-name="Trazado 874495" d="M59.253,18.972a.754.754,0,0,0,.754-.754V1.76a.252.252,0,0,1,.251-.251h22a.754.754,0,1,0,0-1.509h-22A1.762,1.762,0,0,0,58.5,1.76V18.217A.754.754,0,0,0,59.253,18.972Z" transform="translate(0)" fill="#201144"/>
        <path id="Trazado_874496" data-name="Trazado 874496" d="M98.227,37.019a7.28,7.28,0,0,0-.383-2.338.754.754,0,1,0-1.429.484,5.788,5.788,0,1,1-1.73-2.549.754.754,0,0,0,.979-1.148,7.292,7.292,0,0,0-3.974-1.7V1.76A1.762,1.762,0,0,0,89.929,0H85.777a.754.754,0,0,0,0,1.509h4.153a.252.252,0,0,1,.251.251V29.766a7.24,7.24,0,0,0-3.1,1.067H73.815a.754.754,0,1,0,0,1.509H85.346a7.31,7.31,0,0,0-.952,1.458H73.815a.754.754,0,0,0,0,1.509H83.848A7.266,7.266,0,0,0,85.433,41.8h-6.59a.754.754,0,0,0,0,1.509h6.945v2.458H60.259a.252.252,0,0,1-.251-.251V21.752a.754.754,0,0,0-1.509,0V45.511a1.762,1.762,0,0,0,1.76,1.76h25.53v2.964a1.259,1.259,0,0,0,1.97,1.039L90.935,49.1l3.176,2.174a1.259,1.259,0,0,0,1.97-1.039V42.179A7.27,7.27,0,0,0,98.227,37.019ZM94.573,49.762l-2.927-2a1.252,1.252,0,0,0-1.422,0l-2.926,2V43.334a7.265,7.265,0,0,0,7.275,0v6.428Z" fill="#201144"/>
        <path id="Trazado_874497" data-name="Trazado 874497" d="M342.773,332.6a2.757,2.757,0,0,1-1.477-.427.754.754,0,1,0-.807,1.275,4.275,4.275,0,1,0-1.991-3.614.754.754,0,0,0,1.509,0,2.766,2.766,0,1,1,2.766,2.766Z" transform="translate(-251.838 -292.819)" fill="#201144"/>
        <path id="Trazado_874498" data-name="Trazado 874498" d="M91.759,283.569h3.832a1.341,1.341,0,0,0,1.159-.67l1.917-3.324a1.342,1.342,0,0,0,0-1.337l-1.916-3.324a1.341,1.341,0,0,0-1.159-.67H91.759a1.342,1.342,0,0,0-1.159.67l-1.917,3.324a1.342,1.342,0,0,0,0,1.337L90.6,282.9A1.342,1.342,0,0,0,91.759,283.569Zm.1-7.815h3.635l1.818,3.153-1.818,3.153H91.858l-1.818-3.153Z" transform="translate(-26.988 -246.662)" fill="#201144"/>
        <path id="Trazado_874499" data-name="Trazado 874499" d="M89.253,417.072h9.434a.754.754,0,0,0,0-1.509H89.253a.754.754,0,0,0,0,1.509Z" transform="translate(-26.983 -373.767)" fill="#201144"/>
        <path id="Trazado_874500" data-name="Trazado 874500" d="M209.562,367.572a.754.754,0,1,0,0-1.509H204.03a.754.754,0,0,0,0,1.509Z" transform="translate(-130.216 -329.245)" fill="#201144"/>
        <path id="Trazado_874501" data-name="Trazado 874501" d="M95.687,144.451H91.264a1.083,1.083,0,0,0-.771.319l-1.675,1.675a1.091,1.091,0,0,0,.021,1.562l3.887,3.687a1.091,1.091,0,0,0,1.5,0l3.887-3.687a1.091,1.091,0,0,0,.021-1.562l-1.675-1.675A1.084,1.084,0,0,0,95.687,144.451Zm-2.212,5.877-3.288-3.119,1.249-1.249h4.077l1.249,1.249Z" transform="translate(-26.982 -129.923)" fill="#201144"/>
        <path id="Trazado_874502" data-name="Trazado 874502" d="M245.614,144.5h-11.03a.754.754,0,0,0,0,1.509h11.03a.754.754,0,1,0,0-1.509Z" transform="translate(-157.696 -129.967)" fill="#201144"/>
        <path id="Trazado_874503" data-name="Trazado 874503" d="M218.888,175.205a.754.754,0,0,0-.754-.754h-14.1a.754.754,0,1,0,0,1.509h14.1A.754.754,0,0,0,218.888,175.205Z" transform="translate(-130.216 -156.905)" fill="#201144"/>
        <path id="Trazado_874504" data-name="Trazado 874504" d="M100.853,234.451h-11.6a.754.754,0,1,0,0,1.509h11.6a.754.754,0,1,0,0-1.509Z" transform="translate(-26.983 -210.871)" fill="#201144"/>
        <path id="Trazado_874505" data-name="Trazado 874505" d="M234.583,278.072h8.478a.754.754,0,0,0,0-1.509h-8.478a.754.754,0,1,0,0,1.509Z" transform="translate(-157.696 -248.747)" fill="#201144"/>
        <path id="Trazado_874506" data-name="Trazado 874506" d="M214.038,205.205a.754.754,0,0,0-.754-.754h-9.255a.754.754,0,1,0,0,1.509h9.255A.754.754,0,0,0,214.038,205.205Z" transform="translate(-130.215 -183.888)" fill="#201144"/>
        <path id="Trazado_874507" data-name="Trazado 874507" d="M90.259,36.907h2.919a1.762,1.762,0,0,0,1.76-1.76V32.228a1.762,1.762,0,0,0-1.76-1.76H90.259a1.762,1.762,0,0,0-1.76,1.76v2.919A1.762,1.762,0,0,0,90.259,36.907Zm-.251-4.679a.252.252,0,0,1,.251-.251h2.919a.252.252,0,0,1,.251.251v2.919a.252.252,0,0,1-.251.251H90.259a.252.252,0,0,1-.251-.251Z" transform="translate(-26.983 -27.404)" fill="#201144"/>
        <path id="Trazado_874508" data-name="Trazado 874508" d="M188.42,30.468H170.994a.754.754,0,1,0,0,1.509H188.42a.754.754,0,1,0,0-1.509Z" transform="translate(-100.502 -27.404)" fill="#201144"/>
        <path id="Trazado_874509" data-name="Trazado 874509" d="M176.516,61.222a.754.754,0,0,0-.754-.754h-4.767a.754.754,0,1,0,0,1.509h4.767A.754.754,0,0,0,176.516,61.222Z" transform="translate(-100.502 -54.386)" fill="#201144"/>
        <path id="Trazado_874510" data-name="Trazado 874510" d="M89.253,110.881H100.8a.754.754,0,1,0,0-1.509H89.253a.754.754,0,1,0,0,1.509Z" transform="translate(-26.983 -98.372)" fill="#201144"/>
        <path id="Trazado_874511" data-name="Trazado 874511" d="M292.268,60.468h-5.813a.754.754,0,1,0,0,1.509h5.813a.754.754,0,1,0,0-1.509Z" transform="translate(-204.351 -54.386)" fill="#201144"/>
        <circle id="Elipse_11540" data-name="Elipse 11540" cx="0.754" cy="0.754" r="0.754" transform="translate(73.116 14.533)" fill="#201144"/>
        <circle id="Elipse_11541" data-name="Elipse 11541" cx="0.754" cy="0.754" r="0.754" transform="translate(73.116 27.816)" fill="#201144"/>
      </g>
    </g>
  </g>
</svg>
