<svg xmlns="http://www.w3.org/2000/svg" width="96.762" height="96.762" viewBox="0 0 96.762 96.762">
  <g id="_63" data-name="63" transform="translate(-909.254 -2841)">
    <g id="Grupo_1099174" data-name="Grupo 1099174" transform="translate(909.254 2841)">
      <g id="Grupo_1099167" data-name="Grupo 1099167" transform="translate(0 0)">
        <path id="Trazado_873000" data-name="Trazado 873000" d="M48.381,0h0V22.476a25.9,25.9,0,1,0,25.905,25.9H96.762A48.381,48.381,0,1,1,48.381,0" transform="translate(0 96.762) rotate(-90)" fill="#201144"/>
      </g>
      <rect id="Rectángulo_401249" data-name="Rectángulo 401249" width="66.409" height="66.409" rx="33.204" transform="translate(15.157 15.157)" fill="#e8faf9"/>
    </g>
    <g id="pregunta-y-respuesta_1_" data-name="pregunta-y-respuesta (1)" transform="translate(841.094 2778.04)">
      <path id="Trazado_874525" data-name="Trazado 874525" d="M106.619,386.861a1.042,1.042,0,0,1-.721-.29l-5.43-5.2H96.612a7.46,7.46,0,0,1-7.452-7.452V357.452A7.461,7.461,0,0,1,96.612,350h14.3a1.042,1.042,0,1,1,0,2.084h-14.3a5.375,5.375,0,0,0-5.368,5.37v16.464a5.374,5.374,0,0,0,5.368,5.368h4.274a1.042,1.042,0,0,1,.721.29l3.969,3.8v-3.05a1.042,1.042,0,0,1,1.042-1.042h12.628a5.375,5.375,0,0,0,5.371-5.368V362.593a1.042,1.042,0,1,1,2.084,0v11.326a7.461,7.461,0,0,1-7.455,7.452H107.661v4.449A1.042,1.042,0,0,1,106.619,386.861Z" transform="translate(0 -248.714)" fill="#201144"/>
      <path id="Trazado_874526" data-name="Trazado 874526" d="M185.563,464.474h-12.9a1.042,1.042,0,0,1,0-2.084h12.9a1.042,1.042,0,0,1,0,2.084Z" transform="translate(-77.09 -353.785)" fill="#201144"/>
      <path id="Trazado_874527" data-name="Trazado 874527" d="M195.556,576.914H172.662a1.042,1.042,0,1,1,0-2.084h22.894a1.042,1.042,0,1,1,0,2.084Z" transform="translate(-77.09 -458.902)" fill="#201144"/>
      <path id="Trazado_874528" data-name="Trazado 874528" d="M195.556,689.344H172.662a1.042,1.042,0,0,1,0-2.084h22.894a1.042,1.042,0,0,1,0,2.084Z" transform="translate(-77.09 -564.01)" fill="#201144"/>
      <path id="Trazado_874529" data-name="Trazado 874529" d="M429.719,119.817a1.042,1.042,0,0,1-.741-.309l-4.968-5.015a15.481,15.481,0,0,1-3.593.424h-2.129a15.479,15.479,0,0,1,0-30.958h2.128a15.476,15.476,0,0,1,10.344,26.994v7.821A1.042,1.042,0,0,1,429.719,119.817Zm-5.391-7.521a1.042,1.042,0,0,1,.74.308l3.609,3.64V110.48a1.042,1.042,0,0,1,.369-.793,13.4,13.4,0,0,0-8.629-23.64h-2.128a13.395,13.395,0,0,0,0,26.79h2.128a13.4,13.4,0,0,0,3.629-.5A1.047,1.047,0,0,1,424.328,112.3Z" transform="translate(-293.224)" fill="#201144"/>
      <path id="Trazado_874530" data-name="Trazado 874530" d="M553.257,160.247a2.646,2.646,0,0,1-1.869-.735,2.755,2.755,0,0,1-.787-2.077,5.69,5.69,0,0,1,1.523-4.033,21.422,21.422,0,0,1,1.6-1.526c.541-.473.932-.83,1.164-1.062a2.749,2.749,0,0,0,.456-.6.97.97,0,0,0,.124-.49,1.274,1.274,0,0,0-.446-1.006,1.838,1.838,0,0,0-1.306-.445,1.861,1.861,0,0,0-1.367.4,4.829,4.829,0,0,0-.922,1.749,2.748,2.748,0,0,1-4.665,1.376,2.641,2.641,0,0,1-.8-1.848,5.808,5.808,0,0,1,.959-3.078,7.218,7.218,0,0,1,2.718-2.48,8.391,8.391,0,0,1,4.081-.967,8.712,8.712,0,0,1,3.811.8,6.514,6.514,0,0,1,2.67,2.275,5.726,5.726,0,0,1,.965,3.2,5.127,5.127,0,0,1-.577,2.449,7.084,7.084,0,0,1-1.264,1.7c-.427.417-1.189,1.118-2.267,2.084a7.981,7.981,0,0,0-.628.626,1.886,1.886,0,0,0-.261.354,1.716,1.716,0,0,0-.13.319c-.029.1-.087.33-.2.826A2.48,2.48,0,0,1,553.257,160.247Zm.459-14.061a3.871,3.871,0,0,1,2.721,1,3.376,3.376,0,0,1,1.118,2.536,3.054,3.054,0,0,1-.391,1.5,4.815,4.815,0,0,1-.8,1.062c-.268.268-.681.646-1.264,1.156-.608.533-1.094,1-1.443,1.373a3.823,3.823,0,0,0-.71,1.115,3.886,3.886,0,0,0-.261,1.5.908.908,0,0,0,.144.572.551.551,0,0,0,.427.156c.3,0,.447-.021.536-.509a.223.223,0,0,1,.008-.041c.1-.451.177-.763.231-.953a3.856,3.856,0,0,1,.279-.7,3.912,3.912,0,0,1,.548-.775,9.939,9.939,0,0,1,.8-.8l.008-.007c1.057-.946,1.8-1.628,2.2-2.019a4.966,4.966,0,0,0,.888-1.2,3.051,3.051,0,0,0,.326-1.46,3.632,3.632,0,0,0-.622-2.051,4.382,4.382,0,0,0-1.832-1.542,6.651,6.651,0,0,0-2.906-.6,6.358,6.358,0,0,0-3.081.712,5.165,5.165,0,0,0-1.954,1.758,3.771,3.771,0,0,0-.635,1.971c0,.049,0,.18.209.394a.625.625,0,0,0,.494.2c.188,0,.471,0,.695-.741a.1.1,0,0,1,.009-.029,6.738,6.738,0,0,1,1.383-2.527,3.77,3.77,0,0,1,2.882-1.058Z" transform="translate(-427.051 -55.588)" fill="#201144"/>
      <path id="Trazado_874531" data-name="Trazado 874531" d="M616.673,418.655a3.088,3.088,0,0,1-2.08-.776,2.841,2.841,0,0,1-.956-2.236,2.922,2.922,0,0,1,.891-2.136,3.009,3.009,0,0,1,2.145-.86,2.968,2.968,0,0,1,3,3,2.878,2.878,0,0,1-.94,2.222A3.018,3.018,0,0,1,616.673,418.655Zm0-3.922a.912.912,0,0,0-.688.267.826.826,0,0,0-.264.645.789.789,0,0,0,.238.662,1.019,1.019,0,0,0,.716.261.953.953,0,0,0,.672-.261.793.793,0,0,0,.24-.664.885.885,0,0,0-.912-.912Z" transform="translate(-490.32 -307.281)" fill="#201144"/>
    </g>
  </g>
</svg>
