<svg xmlns="http://www.w3.org/2000/svg" width="96.762" height="96.762" viewBox="0 0 96.762 96.762">
  <g id="_64" data-name="64" transform="translate(-1224.254 -2769)">
    <g id="Grupo_1099174" data-name="Grupo 1099174" transform="translate(1224.254 2769)">
      <g id="Grupo_1099167" data-name="Grupo 1099167" transform="translate(0 0)">
        <path id="Trazado_873000" data-name="Trazado 873000" d="M48.381,0h0V22.476a25.9,25.9,0,1,0,25.905,25.9H96.762A48.381,48.381,0,1,1,48.381,0" transform="translate(0 96.762) rotate(-90)" fill="#201144"/>
      </g>
      <rect id="Rectángulo_401249" data-name="Rectángulo 401249" width="66.409" height="66.409" rx="33.204" transform="translate(15.157 15.157)" fill="#e8faf9"/>
    </g>
    <g id="educacion_1_" data-name="educacion (1)" transform="translate(1249.254 2794)">
      <g id="Grupo_1100250" data-name="Grupo 1100250" transform="translate(0 0)">
        <g id="Grupo_1100249" data-name="Grupo 1100249" transform="translate(0 0)">
          <path id="Trazado_874532" data-name="Trazado 874532" d="M45.08,0H.764A.764.764,0,0,0,0,.764H0V16.045H1.528V1.528H44.316V18.338H17.573v1.528H45.08a.764.764,0,0,0,.764-.764h0V.764A.764.764,0,0,0,45.08,0Z" transform="translate(0 0)" fill="#201144"/>
        </g>
      </g>
      <g id="Grupo_1100252" data-name="Grupo 1100252" transform="translate(25.214 3.82)">
        <g id="Grupo_1100251" data-name="Grupo 1100251">
          <rect id="Rectángulo_401621" data-name="Rectángulo 401621" width="15" height="1" transform="translate(-0.214 0.18)" fill="#201144"/>
        </g>
      </g>
      <g id="Grupo_1100254" data-name="Grupo 1100254" transform="translate(27.506 8.405)">
        <g id="Grupo_1100253" data-name="Grupo 1100253">
          <rect id="Rectángulo_401622" data-name="Rectángulo 401622" width="15" height="2" transform="translate(0.494 -0.405)" fill="#201144"/>
        </g>
      </g>
      <g id="Grupo_1100256" data-name="Grupo 1100256" transform="translate(24.45 12.989)">
        <g id="Grupo_1100255" data-name="Grupo 1100255">
          <rect id="Rectángulo_401623" data-name="Rectángulo 401623" width="16" height="2" transform="translate(-0.45 0.011)" fill="#201144"/>
        </g>
      </g>
      <g id="Grupo_1100258" data-name="Grupo 1100258" transform="translate(0 3.056)">
        <g id="Grupo_1100257" data-name="Grupo 1100257" transform="translate(0)">
          <path id="Trazado_874533" data-name="Trazado 874533" d="M24.389,35.531A2.466,2.466,0,0,0,21.165,34.2l-.064.028-6.2,3.214a3.778,3.778,0,0,0,.375-1.623,3.82,3.82,0,1,0-6.857,2.292H8.392A5.243,5.243,0,0,0,3.522,41.5l-2.04,7.03a2.447,2.447,0,1,0,4.6,1.683l.8-2.543V58.733A3.809,3.809,0,0,0,1.918,64.5,3.52,3.52,0,0,0,0,67.621v6.4a.764.764,0,0,0,.764.764H8.4a.764.764,0,0,0,.764-.764h0v-6.4a3.512,3.512,0,0,0-1.363-2.766h5.783a3.511,3.511,0,0,0-1.363,2.766v6.4a.764.764,0,0,0,.764.764H20.63a.764.764,0,0,0,.764-.764h0v-6.4A3.52,3.52,0,0,0,19.475,64.5a3.817,3.817,0,0,0-3.43-6.471V42.4l7.014-3.642A2.466,2.466,0,0,0,24.389,35.531Zm-12.928-2A2.292,2.292,0,1,1,9.169,35.82,2.292,2.292,0,0,1,11.461,33.528ZM4.584,59.478A2.292,2.292,0,1,1,2.292,61.77,2.292,2.292,0,0,1,4.584,59.478ZM7.641,73.259H1.528V67.621a2,2,0,0,1,2-2H5.638a2,2,0,0,1,2,2Zm12.225-5.639v5.639H13.753V67.621a2,2,0,0,1,2-2h2.108A2,2,0,0,1,19.866,67.621Zm-3.056-8.143a2.292,2.292,0,1,1-2.292,2.292A2.295,2.295,0,0,1,16.809,59.478Zm6.182-22.672a.983.983,0,0,1-.577.566l-7.485,3.883a.764.764,0,0,0-.412.678v16.8a3.769,3.769,0,0,0-1.189,4.593h-1.1V50.338H10.7V63.327H8.065A3.785,3.785,0,0,0,8.4,61.8h0V42.7a.764.764,0,0,0-1.493-.229L4.63,49.728a.919.919,0,0,1-1.274.508.938.938,0,0,1-.427-1.213l2.04-7.03a3.691,3.691,0,0,1,3.424-2.352H13.8a.761.761,0,0,0,.352-.086l7.594-3.942a.941.941,0,0,1,1.2.445A.93.93,0,0,1,22.991,36.806Z" transform="translate(0 -32)" fill="#201144"/>
        </g>
      </g>
      <g id="Grupo_1100260" data-name="Grupo 1100260" transform="translate(24.45 28.998)">
        <g id="Grupo_1100259" data-name="Grupo 1100259">
          <path id="Trazado_874534" data-name="Trazado 874534" d="M263.25,310.175a3.82,3.82,0,1,0-5.4-.07l.07.07A3.52,3.52,0,0,0,256,313.3v6.4a.764.764,0,0,0,.764.764H264.4a.764.764,0,0,0,.764-.764h0v-6.4A3.52,3.52,0,0,0,263.25,310.175Zm-2.666-5.02a2.292,2.292,0,1,1-2.292,2.292A2.292,2.292,0,0,1,260.584,305.155Zm3.056,13.781h-6.112V313.3a2,2,0,0,1,2-2h2.108a2,2,0,0,1,2,2Z" transform="translate(-256 -303.618)" fill="#201144"/>
        </g>
      </g>
      <g id="Grupo_1100262" data-name="Grupo 1100262" transform="translate(36.675 28.998)">
        <g id="Grupo_1100261" data-name="Grupo 1100261">
          <path id="Trazado_874535" data-name="Trazado 874535" d="M391.25,310.175a3.82,3.82,0,1,0-5.4-.07l.07.07A3.52,3.52,0,0,0,384,313.3v6.4a.764.764,0,0,0,.764.764H392.4a.764.764,0,0,0,.764-.764h0v-6.4A3.52,3.52,0,0,0,391.25,310.175Zm-2.666-5.02a2.292,2.292,0,1,1-2.292,2.292A2.292,2.292,0,0,1,388.584,305.155Zm3.056,13.781h-6.112V313.3a2,2,0,0,1,2-2h2.108a2,2,0,0,1,2,2Z" transform="translate(-384 -303.618)" fill="#201144"/>
        </g>
      </g>
    </g>
  </g>
</svg>
