<svg xmlns="http://www.w3.org/2000/svg" xmlns:xlink="http://www.w3.org/1999/xlink" width="400" height="262" viewBox="0 0 400 262">
  <defs>
    <clipPath id="clip-path">
      <rect id="Rectángulo_401731" data-name="Rectángulo 401731" width="394.749" height="254" fill="none"/>
    </clipPath>
    <clipPath id="clip-path-3">
      <rect id="Rectángulo_401692" data-name="Rectángulo 401692" width="315.84" height="21.885" fill="none"/>
    </clipPath>
    <clipPath id="clip-path-4">
      <rect id="Rectángulo_401720" data-name="Rectángulo 401720" width="237.253" height="92.016" fill="none"/>
    </clipPath>
    <clipPath id="clip-path-5">
      <rect id="Rectángulo_401721" data-name="Rectángulo 401721" width="39.521" height="82.356" fill="none"/>
    </clipPath>
    <clipPath id="clip-path-6">
      <rect id="Rectángulo_401722" data-name="Rectángulo 401722" width="39.52" height="82.355" fill="none"/>
    </clipPath>
    <clipPath id="clip-path-7">
      <rect id="Rectángulo_401723" data-name="Rectángulo 401723" width="90.94" height="12.224" fill="none"/>
    </clipPath>
    <clipPath id="clip-path-8">
      <rect id="Rectángulo_401724" data-name="Rectángulo 401724" width="59.741" height="14.04" fill="none"/>
    </clipPath>
    <clipPath id="clip-path-9">
      <rect id="Rectángulo_401729" data-name="Rectángulo 401729" width="96.509" height="9.367" fill="none"/>
    </clipPath>
  </defs>
  <g id="_68" data-name="68" transform="translate(-1020.359 -393)">
    <rect id="Rectángulo_401335" data-name="Rectángulo 401335" width="400" height="262" transform="translate(1020.359 393)" fill="#dfbba0"/>
    <g id="Grupo_1100391" data-name="Grupo 1100391" transform="translate(1023.359 401)">
      <g id="Grupo_1100390" data-name="Grupo 1100390" clip-path="url(#clip-path)">
        <g id="Grupo_1100389" data-name="Grupo 1100389">
          <g id="Grupo_1100388" data-name="Grupo 1100388" clip-path="url(#clip-path)">
            <g id="Grupo_1100369" data-name="Grupo 1100369" transform="translate(42.764 208.689)" opacity="0.2">
              <g id="Grupo_1100368" data-name="Grupo 1100368">
                <g id="Grupo_1100367" data-name="Grupo 1100367" clip-path="url(#clip-path-3)">
                  <path id="Trazado_874665" data-name="Trazado 874665" d="M389.552,370.655c0,6.043-70.7,10.942-157.92,10.942s-157.92-4.9-157.92-10.942,70.7-10.942,157.92-10.942,157.92,4.9,157.92,10.942" transform="translate(-73.712 -359.713)" fill="#381531"/>
                </g>
              </g>
            </g>
            <rect id="Rectángulo_401693" data-name="Rectángulo 401693" width="289.074" height="183.289" rx="7.628" transform="translate(56.148 36.53)" fill="#381531"/>
            <rect id="Rectángulo_401694" data-name="Rectángulo 401694" width="289.074" height="183.289" rx="7.628" transform="translate(56.148 32.054)" fill="#562349"/>
            <circle id="Elipse_11544" data-name="Elipse 11544" cx="5.223" cy="5.223" r="5.223" transform="translate(195.462 200.232)" fill="none" stroke="#381531" stroke-miterlimit="10" stroke-width="2.572"/>
            <rect id="Rectángulo_401695" data-name="Rectángulo 401695" width="274.188" height="149.715" transform="translate(63.591 47.348)" fill="#fff"/>
            <path id="Trazado_874666" data-name="Trazado 874666" d="M342.608,68.261a1.127,1.127,0,1,0,1.127-1.127,1.127,1.127,0,0,0-1.127,1.127" transform="translate(-143.843 -28.186)" fill="#ffa299"/>
            <path id="Trazado_874667" data-name="Trazado 874667" d="M353.527,67.909a1.612,1.612,0,1,0,1.612-1.612,1.612,1.612,0,0,0-1.612,1.612" transform="translate(-148.427 -27.835)" fill="#fff"/>
            <line id="Línea_687" data-name="Línea 687" x2="252.672" transform="translate(75.522 181.83)" fill="none" stroke="#ffa299" stroke-miterlimit="10" stroke-width="0.857"/>
            <rect id="Rectángulo_401696" data-name="Rectángulo 401696" width="6.466" height="18.403" transform="translate(303.737 163.427)" fill="#ffa299"/>
            <rect id="Rectángulo_401697" data-name="Rectángulo 401697" width="6.466" height="106.938" transform="translate(283.668 74.892)" fill="#ffa299"/>
            <rect id="Rectángulo_401698" data-name="Rectángulo 401698" width="6.466" height="16.911" transform="translate(263.6 164.919)" fill="#ffa299"/>
            <rect id="Rectángulo_401699" data-name="Rectángulo 401699" width="6.466" height="24.869" transform="translate(243.531 156.961)" fill="#ffa299"/>
            <rect id="Rectángulo_401700" data-name="Rectángulo 401700" width="6.466" height="13.429" transform="translate(223.462 168.401)" fill="#ffa299"/>
            <rect id="Rectángulo_401701" data-name="Rectángulo 401701" width="6.466" height="53.22" transform="translate(203.394 128.61)" fill="#ffa299"/>
            <rect id="Rectángulo_401702" data-name="Rectángulo 401702" width="6.466" height="79.582" transform="translate(183.326 102.248)" fill="#ffa299"/>
            <rect id="Rectángulo_401703" data-name="Rectángulo 401703" width="6.466" height="107.435" transform="translate(163.257 74.395)" fill="#ffa299"/>
            <rect id="Rectángulo_401704" data-name="Rectángulo 401704" width="6.466" height="54.215" transform="translate(133.155 127.615)" fill="#ffa299"/>
            <rect id="Rectángulo_401705" data-name="Rectángulo 401705" width="6.466" height="22.382" transform="translate(113.086 159.448)" fill="#ffa299"/>
            <rect id="Rectángulo_401706" data-name="Rectángulo 401706" width="6.466" height="83.064" transform="translate(93.018 98.767)" fill="#ffa299"/>
            <g id="Grupo_1100372" data-name="Grupo 1100372" transform="translate(82.983 89.814)" opacity="0.5">
              <g id="Grupo_1100371" data-name="Grupo 1100371">
                <g id="Grupo_1100370" data-name="Grupo 1100370" clip-path="url(#clip-path-4)">
                  <rect id="Rectángulo_401707" data-name="Rectángulo 401707" width="6.466" height="53.22" transform="translate(0.001 38.796)" fill="#ffa299"/>
                  <rect id="Rectángulo_401708" data-name="Rectángulo 401708" width="6.466" height="86.048" transform="translate(210.719 5.969)" fill="#ffa299"/>
                  <rect id="Rectángulo_401709" data-name="Rectángulo 401709" width="6.466" height="44.765" transform="translate(190.651 47.252)" fill="#ffa299"/>
                  <rect id="Rectángulo_401710" data-name="Rectángulo 401710" width="6.466" height="6.964" transform="translate(170.583 85.053)" fill="#ffa299"/>
                  <rect id="Rectángulo_401711" data-name="Rectángulo 401711" width="6.466" height="18.403" transform="translate(150.514 73.613)" fill="#ffa299"/>
                  <rect id="Rectángulo_401712" data-name="Rectángulo 401712" width="6.466" height="63.665" transform="translate(130.445 28.351)" fill="#ffa299"/>
                  <rect id="Rectángulo_401713" data-name="Rectángulo 401713" width="6.466" height="36.309" transform="translate(110.377 55.708)" fill="#ffa299"/>
                  <rect id="Rectángulo_401714" data-name="Rectángulo 401714" width="6.466" height="92.016" transform="translate(90.308)" fill="#ffa299"/>
                  <rect id="Rectángulo_401715" data-name="Rectángulo 401715" width="6.466" height="85.551" transform="translate(70.24 6.466)" fill="#ffa299"/>
                  <rect id="Rectángulo_401716" data-name="Rectángulo 401716" width="6.466" height="69.634" transform="translate(60.206 22.382)" fill="#ffa299"/>
                  <rect id="Rectángulo_401717" data-name="Rectángulo 401717" width="6.466" height="43.77" transform="translate(40.137 48.247)" fill="#ffa299"/>
                  <rect id="Rectángulo_401718" data-name="Rectángulo 401718" width="6.466" height="66.65" transform="translate(20.069 25.367)" fill="#ffa299"/>
                  <rect id="Rectángulo_401719" data-name="Rectángulo 401719" width="6.466" height="53.22" transform="translate(230.787 38.796)" fill="#ffa299"/>
                </g>
              </g>
            </g>
            <path id="Trazado_874668" data-name="Trazado 874668" d="M147.609,186.712l10.611-33.988,19.929,61,50.2-85.2,30.009,71.126,20.227-27.688,10.445,50.4,20.061-11.605,9.782,18.4L348.885,128.85l19.73,88.535,10.445-34.651" transform="translate(-61.973 -53.958)" fill="none" stroke="#562349" stroke-miterlimit="10" stroke-width="0.857"/>
            <path id="Trazado_874669" data-name="Trazado 874669" d="M145.734,227.348a1.253,1.253,0,1,0,1.254-1.254,1.253,1.253,0,0,0-1.254,1.254" transform="translate(-61.186 -94.925)" fill="#562349"/>
            <path id="Trazado_874670" data-name="Trazado 874670" d="M163.738,169.335a1.253,1.253,0,1,0,1.253-1.254,1.253,1.253,0,0,0-1.253,1.254" transform="translate(-68.745 -70.568)" fill="#562349"/>
            <path id="Trazado_874671" data-name="Trazado 874671" d="M198.031,274.216a1.254,1.254,0,1,0,1.254-1.254,1.254,1.254,0,0,0-1.254,1.254" transform="translate(-83.143 -114.602)" fill="#562349"/>
            <path id="Trazado_874672" data-name="Trazado 874672" d="M284.622,127.611a1.254,1.254,0,1,0,1.254-1.254,1.254,1.254,0,0,0-1.254,1.254" transform="translate(-119.497 -53.051)" fill="#562349"/>
            <path id="Trazado_874673" data-name="Trazado 874673" d="M336.794,250.21a1.254,1.254,0,1,0,1.254-1.254,1.254,1.254,0,0,0-1.254,1.254" transform="translate(-141.402 -104.523)" fill="#562349"/>
            <path id="Trazado_874674" data-name="Trazado 874674" d="M371.338,202.771a1.254,1.254,0,1,0,1.254-1.254,1.254,1.254,0,0,0-1.254,1.254" transform="translate(-155.905 -84.606)" fill="#562349"/>
            <path id="Trazado_874675" data-name="Trazado 874675" d="M388.931,290.094a1.254,1.254,0,1,0,1.254-1.254,1.254,1.254,0,0,0-1.254,1.254" transform="translate(-163.291 -121.268)" fill="#562349"/>
            <path id="Trazado_874676" data-name="Trazado 874676" d="M423.921,268.786a1.254,1.254,0,1,0,1.254-1.254,1.254,1.254,0,0,0-1.254,1.254" transform="translate(-177.982 -112.322)" fill="#562349"/>
            <path id="Trazado_874677" data-name="Trazado 874677" d="M440.657,301.079a1.254,1.254,0,1,0,1.254-1.254,1.254,1.254,0,0,0-1.254,1.254" transform="translate(-185.008 -125.88)" fill="#562349"/>
            <path id="Trazado_874678" data-name="Trazado 874678" d="M526.676,281.36a1.254,1.254,0,1,0,1.254-1.254,1.254,1.254,0,0,0-1.254,1.254" transform="translate(-221.123 -117.601)" fill="#562349"/>
            <path id="Trazado_874679" data-name="Trazado 874679" d="M544.4,220.775a1.254,1.254,0,1,0,1.254-1.254,1.254,1.254,0,0,0-1.254,1.254" transform="translate(-228.562 -92.165)" fill="#562349"/>
            <path id="Trazado_874680" data-name="Trazado 874680" d="M492.383,128.183a1.254,1.254,0,1,0,1.254-1.254,1.254,1.254,0,0,0-1.254,1.254" transform="translate(-206.725 -53.291)" fill="#562349"/>
            <path id="Trazado_874681" data-name="Trazado 874681" d="M147.609,235.877l10.611,12.683,19.929-37.3,50.2,30.838,30.009-44.916,20.227,41.434,10.445-18.72,20.061,27.176,9.782-66.9,30.009,48.744,19.73-49.241,10.445,43.77" transform="translate(-61.973 -75.435)" fill="none" stroke="#ad6989" stroke-miterlimit="10" stroke-width="0.857"/>
            <path id="Trazado_874682" data-name="Trazado 874682" d="M145.734,275.644a1.253,1.253,0,1,0,1.254-1.253,1.254,1.254,0,0,0-1.254,1.253" transform="translate(-61.186 -115.202)" fill="#ad6989"/>
            <path id="Trazado_874683" data-name="Trazado 874683" d="M163.738,296.792a1.253,1.253,0,1,0,1.253-1.254,1.253,1.253,0,0,0-1.253,1.254" transform="translate(-68.745 -124.081)" fill="#ad6989"/>
            <path id="Trazado_874684" data-name="Trazado 874684" d="M284.622,286.361a1.254,1.254,0,1,0,1.254-1.254,1.254,1.254,0,0,0-1.254,1.254" transform="translate(-119.497 -119.701)" fill="#ad6989"/>
            <path id="Trazado_874685" data-name="Trazado 874685" d="M336.794,209.344a1.254,1.254,0,1,0,1.254-1.254,1.254,1.254,0,0,0-1.254,1.254" transform="translate(-141.402 -87.366)" fill="#ad6989"/>
            <path id="Trazado_874686" data-name="Trazado 874686" d="M371.338,279.931a1.254,1.254,0,1,0,1.254-1.254,1.254,1.254,0,0,0-1.254,1.254" transform="translate(-155.905 -117.001)" fill="#ad6989"/>
            <path id="Trazado_874687" data-name="Trazado 874687" d="M388.931,247.477a1.254,1.254,0,1,0,1.254-1.254,1.254,1.254,0,0,0-1.254,1.254" transform="translate(-163.291 -103.376)" fill="#ad6989"/>
            <path id="Trazado_874688" data-name="Trazado 874688" d="M440.657,178.766a1.254,1.254,0,1,0,1.254-1.254,1.254,1.254,0,0,0-1.254,1.254" transform="translate(-185.008 -74.528)" fill="#ad6989"/>
            <path id="Trazado_874689" data-name="Trazado 874689" d="M526.676,178.766a1.254,1.254,0,1,0,1.254-1.254,1.254,1.254,0,0,0-1.254,1.254" transform="translate(-221.123 -74.528)" fill="#ad6989"/>
            <path id="Trazado_874690" data-name="Trazado 874690" d="M544.4,254.211a1.254,1.254,0,1,0,1.254-1.254,1.254,1.254,0,0,0-1.254,1.254" transform="translate(-228.562 -106.203)" fill="#ad6989"/>
            <path id="Trazado_874691" data-name="Trazado 874691" d="M423.8,294.935a1.254,1.254,0,1,0,1.254-1.254,1.254,1.254,0,0,0-1.254,1.254" transform="translate(-177.929 -123.301)" fill="#ad6989"/>
            <path id="Trazado_874692" data-name="Trazado 874692" d="M492.383,263.642a1.254,1.254,0,1,0,1.254-1.254,1.254,1.254,0,0,0-1.254,1.254" transform="translate(-206.725 -110.163)" fill="#ad6989"/>
            <path id="Trazado_874693" data-name="Trazado 874693" d="M198.031,233.064a1.254,1.254,0,1,0,1.254-1.254,1.254,1.254,0,0,0-1.254,1.254" transform="translate(-83.143 -97.325)" fill="#ad6989"/>
            <g id="Grupo_1100375" data-name="Grupo 1100375" transform="translate(117.81 18.908)" opacity="0.2">
              <g id="Grupo_1100374" data-name="Grupo 1100374">
                <g id="Grupo_1100373" data-name="Grupo 1100373" clip-path="url(#clip-path-5)">
                  <path id="Trazado_874694" data-name="Trazado 874694" d="M203.437,84.209,220.4,113.587a2.824,2.824,0,0,0,4.832,0l16.961-29.378A2.843,2.843,0,0,0,239.775,80h-5.335V35.391a2.824,2.824,0,0,0-2.8-2.8H213.986a2.8,2.8,0,0,0-2.8,2.8V80h-5.335a2.824,2.824,0,0,0-2.416,4.21" transform="translate(-203.067 -32.592)" fill="#381531"/>
                </g>
              </g>
            </g>
            <path id="Trazado_874695" data-name="Trazado 874695" d="M198.537,81.759,215.5,111.137a2.824,2.824,0,0,0,4.832,0l16.961-29.378a2.843,2.843,0,0,0-2.416-4.21h-5.334V32.941a2.824,2.824,0,0,0-2.8-2.8H209.086a2.8,2.8,0,0,0-2.8,2.8V77.549h-5.335a2.824,2.824,0,0,0-2.416,4.21" transform="translate(-83.2 -12.655)" fill="#ad6989"/>
            <g id="Grupo_1100378" data-name="Grupo 1100378" transform="translate(220.271 24.014)" opacity="0.2">
              <g id="Grupo_1100377" data-name="Grupo 1100377">
                <g id="Grupo_1100376" data-name="Grupo 1100376" clip-path="url(#clip-path-6)">
                  <path id="Trazado_874696" data-name="Trazado 874696" d="M418.828,72.132,401.866,42.755a2.824,2.824,0,0,0-4.832,0L380.074,72.132a2.843,2.843,0,0,0,2.416,4.21h5.335v44.609a2.823,2.823,0,0,0,2.8,2.8h17.657a2.8,2.8,0,0,0,2.8-2.8V76.342h5.335a2.824,2.824,0,0,0,2.416-4.21" transform="translate(-379.677 -41.393)" fill="#381531"/>
                </g>
              </g>
            </g>
            <path id="Trazado_874697" data-name="Trazado 874697" d="M414.541,68.457,397.579,39.08a2.824,2.824,0,0,0-4.832,0L375.787,68.457a2.843,2.843,0,0,0,2.416,4.21h5.334v44.609a2.824,2.824,0,0,0,2.8,2.8h17.657a2.8,2.8,0,0,0,2.8-2.8V72.667h5.335a2.824,2.824,0,0,0,2.416-4.21" transform="translate(-157.606 -15.836)" fill="#ad6989"/>
            <g id="Grupo_1100381" data-name="Grupo 1100381" transform="translate(303.809 238.516)" opacity="0.2">
              <g id="Grupo_1100380" data-name="Grupo 1100380">
                <g id="Grupo_1100379" data-name="Grupo 1100379" clip-path="url(#clip-path-7)">
                  <path id="Trazado_874698" data-name="Trazado 874698" d="M614.609,417.238c0,3.375-20.358,6.112-45.47,6.112s-45.47-2.737-45.47-6.112,20.358-6.112,45.47-6.112,45.47,2.737,45.47,6.112" transform="translate(-523.669 -411.126)" fill="#381531"/>
                </g>
              </g>
            </g>
            <path id="Trazado_874699" data-name="Trazado 874699" d="M640.542,80.906c6.147-6.225,10.5-18.259,2.269-22.664s-12.337,4.6-12.565,4.917l1.16,1.126s2.067-3.3,6.329-.553-16.159,21.555-9.125,29.294,14.224.9,14.224.9c-6.488,2.071-7.807-7.438-2.292-13.023" transform="translate(-263.295 -23.944)" fill="#21081c"/>
            <path id="Trazado_874700" data-name="Trazado 874700" d="M631.736,63.491a2.61,2.61,0,1,0,2.61-2.61,2.61,2.61,0,0,0-2.61,2.61" transform="translate(-265.232 -25.561)" fill="#fee2b3"/>
            <path id="Trazado_874701" data-name="Trazado 874701" d="M577.617,100.483s-.837,11.69-2.966,11.864c-3.585.293-14.761-.921-16.186.921s5.491,15.944,16.809,14.2,19.893-9.708,19.893-9.708l-3.121-2.372s-6.863-1.779-6.722-2.564c.66-3.7,4.054-14.429,4.054-14.429Z" transform="translate(-234.392 -41.312)" fill="#f28b86"/>
            <path id="Trazado_874702" data-name="Trazado 874702" d="M590.238,52.287s-6.151-5.069-14.921,1.116-8.884,24.74-.456,28.187,15.377-29.3,15.377-29.3" transform="translate(-238.74 -21.131)" fill="#21081c"/>
            <path id="Trazado_874703" data-name="Trazado 874703" d="M595.655,60.741s-12.133-6.22-17.5,8.742c-5.684,15.847,2.366,28.592,16.591,19.621,7.454-4.7,13.527-24.894.91-28.364" transform="translate(-241.965 -24.964)" fill="#ffa299"/>
            <path id="Trazado_874704" data-name="Trazado 874704" d="M613.653,79.083c3.915-3.045,16.637-17.507,1.414-25.663,0,0-12.472-8.622-15.657,1.935-3.474,11.516,8.263,15.137,8.263,15.137s-3.045,5-.87,7.829l3.293-5.838-2.858,6.6-2.827,5.981c3.371-1.3,4.988-2.671,9.243-5.981" transform="translate(-251.39 -21.035)" fill="#21081c"/>
            <path id="Trazado_874705" data-name="Trazado 874705" d="M617.082,87.884a4,4,0,0,0-1.042.419,31.147,31.147,0,0,0-3.115,6.927c.857,1.323,3.662.207,4.823-1.578,1.448-2.227,2.839-6.6-.666-5.768" transform="translate(-257.334 -36.854)" fill="#ffa299"/>
            <path id="Trazado_874706" data-name="Trazado 874706" d="M615.325,95.207a1.285,1.285,0,0,0,.384-.289.338.338,0,0,0,.087-.336.619.619,0,0,0-.084-.155,1.542,1.542,0,0,0-.133-.154c-.057-.048-.1-.1-.165-.144s-.124-.089-.181-.136l-.154-.128.075-.222a13.552,13.552,0,0,1,.748-1.778,7.979,7.979,0,0,1,1.087-1.655,2.566,2.566,0,0,1,.419-.371,1.484,1.484,0,0,1,.557-.236,1.7,1.7,0,0,1,.6-.022,1.28,1.28,0,0,1,.581.226,1.043,1.043,0,0,1,.36.519,1.173,1.173,0,0,1,.017.562,1.57,1.57,0,0,1-.165.484,2.724,2.724,0,0,1-.257.417c.027-.161.057-.316.069-.471a1.873,1.873,0,0,0,0-.445.627.627,0,0,0-.345-.565.671.671,0,0,0-.313-.053,1.464,1.464,0,0,0-.337.064.664.664,0,0,0-.295.158,3.257,3.257,0,0,0-.263.283,6.467,6.467,0,0,0-.5.725c-.166.252-.324.516-.477.783l-.926,1.618-.078-.35a3.05,3.05,0,0,1,.34.437,1.951,1.951,0,0,1,.133.264.935.935,0,0,1,.053.32.624.624,0,0,1-.1.32.662.662,0,0,1-.225.2,1.107,1.107,0,0,1-.511.13" transform="translate(-258.238 -37.602)" fill="#d67676"/>
            <path id="Trazado_874707" data-name="Trazado 874707" d="M587.54,85.256a6.988,6.988,0,0,1-.458,1.39c-.112.219-.23.436-.353.652-.139.205-.283.41-.433.61-.17.184-.337.372-.514.552l-.6.475c-.218.133-.445.253-.668.375-.24.089-.479.182-.721.26l.207-.38c.038.112.069.227.11.339s.1.218.154.325.12.212.2.309.148.2.234.288.171.184.27.263.193.168.3.238.216.144.33.21l.357.186c-.132-.019-.269-.033-.405-.058s-.264-.075-.4-.119a4.1,4.1,0,0,1-.381-.176c-.125-.066-.235-.155-.356-.233a3.13,3.13,0,0,1-.322-.285c-.1-.1-.187-.22-.281-.332a4.12,4.12,0,0,1-.228-.375c-.062-.133-.114-.271-.171-.408l-.1-.24.306-.141c.2-.094.412-.173.619-.256.194-.11.381-.232.579-.336l.539-.406c.161-.159.333-.308.5-.464.148-.175.3-.343.462-.514.138-.186.28-.37.429-.553.125-.195.264-.385.4-.58.125-.207.248-.414.387-.615" transform="translate(-244.903 -35.794)" fill="#d67676"/>
            <path id="Trazado_874708" data-name="Trazado 874708" d="M582.849,98.669s6.081,1.15,9.016,2.135c0,0-6.664,3.632-9.016-2.135" transform="translate(-244.707 -41.426)" fill="#fff"/>
            <path id="Trazado_874709" data-name="Trazado 874709" d="M600.026,87.694s.014-.132.029-.36a8.594,8.594,0,0,0,.019-.928,5.644,5.644,0,0,0-.06-.592,2.349,2.349,0,0,0-.186-.588,1.118,1.118,0,0,0-.377-.439c-.068-.068-.178-.084-.262-.133-.1-.03-.208-.041-.31-.067-.064-.008-.241-.012-.356-.019l-.3.04a2,2,0,0,0-.581.247,2.448,2.448,0,0,0-.479.4,4.039,4.039,0,0,0-.37.463,6.875,6.875,0,0,0-.464.8c-.1.2-.155.327-.155.327a2.726,2.726,0,0,1,.028-.365,3.805,3.805,0,0,1,.255-.94,2.87,2.87,0,0,1,.317-.59,2.31,2.31,0,0,1,.526-.57,2.205,2.205,0,0,1,.768-.394,4.542,4.542,0,0,1,.468-.07c.144.005.227,0,.421.013a4.26,4.26,0,0,1,.447.111,1.84,1.84,0,0,1,.417.227,1.584,1.584,0,0,1,.537.728,2.269,2.269,0,0,1,.142.771,3.482,3.482,0,0,1-.052.665,4.247,4.247,0,0,1-.27.932,3.125,3.125,0,0,1-.157.33" transform="translate(-250.303 -35.232)" fill="#21081c"/>
            <path id="Trazado_874710" data-name="Trazado 874710" d="M584.509,84.475s.006-.133.009-.361a8.675,8.675,0,0,0-.032-.927,5.7,5.7,0,0,0-.094-.588,2.321,2.321,0,0,0-.219-.577,1.113,1.113,0,0,0-.4-.416c-.071-.065-.182-.074-.269-.119-.1-.025-.209-.03-.313-.049-.065,0-.242,0-.357,0l-.293.056a1.979,1.979,0,0,0-.566.279,2.43,2.43,0,0,0-.456.43,4.058,4.058,0,0,0-.343.482,7.039,7.039,0,0,0-.419.823c-.091.209-.136.334-.136.334a2.681,2.681,0,0,1,.008-.365,3.814,3.814,0,0,1,.2-.953,2.911,2.911,0,0,1,.284-.606,2.3,2.3,0,0,1,.493-.6,2.2,2.2,0,0,1,.744-.437c.149-.038.315-.074.464-.1.144,0,.228-.016.421-.01a4.148,4.148,0,0,1,.452.086,1.808,1.808,0,0,1,.429.2,1.578,1.578,0,0,1,.577.7,2.251,2.251,0,0,1,.184.762,3.426,3.426,0,0,1-.014.667,4.249,4.249,0,0,1-.217.946,3.226,3.226,0,0,1-.138.338" transform="translate(-243.77 -33.913)" fill="#21081c"/>
            <path id="Trazado_874711" data-name="Trazado 874711" d="M595.861,78.827a1.925,1.925,0,0,1,.237-.327,3.68,3.68,0,0,1,.8-.7,3.285,3.285,0,0,1,.639-.347,4.192,4.192,0,0,1,.79-.262,3.8,3.8,0,0,1,.913-.067,3.593,3.593,0,0,1,.947.157,4.985,4.985,0,0,1,.872.392,6.12,6.12,0,0,1,.708.562c.2.211.369.428.53.628.137.217.251.431.351.627.049.1.1.188.141.28l.086.272c.056.168.093.32.124.442a3.787,3.787,0,0,1,.08.39s-.122-.092-.308-.258c-.092-.083-.207-.181-.323-.3a4.19,4.19,0,0,0-.41-.37c-.155-.128-.317-.263-.474-.417-.181-.124-.37-.248-.549-.389s-.4-.219-.59-.347c-.213-.075-.414-.19-.632-.247a3.506,3.506,0,0,0-.657-.143,5.093,5.093,0,0,0-.67-.049c-.222.024-.448,0-.659.045-.213.027-.42.059-.613.1-.383.079-.719.16-.955.227l-.38.107" transform="translate(-250.17 -32.374)" fill="#21081c"/>
            <path id="Trazado_874712" data-name="Trazado 874712" d="M586.316,77.962l-.93-.909c-.128-.135-.283-.264-.426-.412-.159-.131-.308-.287-.478-.417-.085-.065-.168-.135-.25-.205l-.263-.182a5.17,5.17,0,0,0-.533-.317,2.945,2.945,0,0,0-.544-.177c-.092-.013-.182-.044-.273-.059a2.614,2.614,0,0,1-.278,0,2.283,2.283,0,0,0-.559.059,2.456,2.456,0,0,0-.532.144,2.821,2.821,0,0,0-.474.161c-.136.066-.267.114-.374.158-.215.085-.353.127-.353.127a3.194,3.194,0,0,1,.18-.326c.063-.1.139-.227.24-.363a1.989,1.989,0,0,1,.389-.417,2.276,2.276,0,0,1,.561-.414,2.475,2.475,0,0,1,.765-.295c.144-.03.294-.052.446-.074a3.521,3.521,0,0,1,.465.028,3.161,3.161,0,0,1,.908.248,4.011,4.011,0,0,1,.748.5,3.554,3.554,0,0,1,.579.6,5,5,0,0,1,.421.624,5.722,5.722,0,0,1,.279.6,4.513,4.513,0,0,1,.255.949,2.251,2.251,0,0,1,.033.375" transform="translate(-243.531 -31.087)" fill="#21081c"/>
            <path id="Trazado_874713" data-name="Trazado 874713" d="M590.426,129.1c-1.4-1.744-4.442-3.227-8.333-4.418a15.275,15.275,0,0,1-11.949,4.487c-5.487-.423-11.489-3.151-13.749-7.875-4.714.039-8.572.526-10.432,1.5-6.651,3.5-12.253,16.1-12.253,16.1l58.818,9.453s3.157-12.683-2.1-19.256" transform="translate(-224.076 -50.924)" fill="#ad6989"/>
            <g id="Grupo_1100384" data-name="Grupo 1100384" transform="translate(309.633 83.39)" opacity="0.2">
              <g id="Grupo_1100383" data-name="Grupo 1100383">
                <g id="Grupo_1100382" data-name="Grupo 1100382" clip-path="url(#clip-path-8)">
                  <path id="Trazado_874714" data-name="Trazado 874714" d="M536.066,143.738c-1.475,2.607-2.357,4.587-2.357,4.587l58.818,9.453a38.294,38.294,0,0,0,.924-7.254c-19.1-2.559-38.173-5.284-57.384-6.786" transform="translate(-533.709 -143.738)" fill="#491b3f"/>
                </g>
              </g>
            </g>
            <path id="Trazado_874715" data-name="Trazado 874715" d="M550.466,309.485s7.718,22.418-.368,64.681c0,0-22.356,4.724-3.98-2.306,0,0-10.58-39.714-13.887-54.047s18.235-8.328,18.235-8.328" transform="translate(-223.31 -129.412)" fill="#ffa299"/>
            <path id="Trazado_874716" data-name="Trazado 874716" d="M552.9,355.051c2.969-29.873-2.431-45.566-2.431-45.566s-21.542-6-18.235,8.328c1.851,8.02,5.979,23.986,9.255,36.5a28.467,28.467,0,0,0,11.411.743" transform="translate(-223.31 -129.412)" fill="#f28b86"/>
            <path id="Trazado_874717" data-name="Trazado 874717" d="M547.849,419.287s-5.474,1.736-5.608,2.937,12.551-.935,12.551-.935l.134-1.468s-9.346.667-7.077-.534" transform="translate(-227.657 -176.036)" fill="#562349"/>
            <path id="Trazado_874718" data-name="Trazado 874718" d="M595.835,310.515s.113,23.709,21.693,60.936c0,0,22.663-2.918,3-3.491,0,0-3.12-40.98-4.727-55.6s-19.962-1.844-19.962-1.844" transform="translate(-250.159 -128.198)" fill="#ffa299"/>
            <path id="Trazado_874719" data-name="Trazado 874719" d="M608.577,354.331c-12.661-27.22-12.743-43.816-12.743-43.816s18.354-12.777,19.962,1.844c.9,8.181,2.273,24.615,3.307,37.5a28.467,28.467,0,0,1-10.526,4.467" transform="translate(-250.159 -128.198)" fill="#f28b86"/>
            <path id="Trazado_874720" data-name="Trazado 874720" d="M638.4,413.086s5.741-.168,6.263.922-12.156,3.259-12.156,3.259l-.61-1.342s9.043-2.454,6.5-2.839" transform="translate(-265.298 -173.429)" fill="#562349"/>
            <path id="Trazado_874721" data-name="Trazado 874721" d="M535.029,186.948s-19.956,12.6-19.431,38.337,11.553,74.047,11.553,74.047,12.079,5.252,22.056-.526L545.587,235.4l22,62.881a41.2,41.2,0,0,0,23.632-5.252s-6.3-81.4-35.711-105.032Z" transform="translate(-216.468 -78.489)" fill="#21081c"/>
            <path id="Trazado_874722" data-name="Trazado 874722" d="M582.711,213.446a6.335,6.335,0,0,1-7.2,5.33l-82.694-12.338a6.334,6.334,0,0,1-5.33-7.2l7.54-50.536a6.334,6.334,0,0,1,7.2-5.33l82.695,12.338a6.334,6.334,0,0,1,5.33,7.2Z" transform="translate(-204.64 -60.165)" fill="#fee2b3"/>
            <rect id="Rectángulo_401725" data-name="Rectángulo 401725" width="16.455" height="95.929" transform="translate(287.567 108.616) rotate(-81.514)" fill="#562349"/>
            <rect id="Rectángulo_401726" data-name="Rectángulo 401726" width="8.053" height="46.564" transform="matrix(0.148, -0.989, 0.989, 0.148, 290.608, 123.228)" fill="#fff"/>
            <rect id="Rectángulo_401727" data-name="Rectángulo 401727" width="10.153" height="19.956" transform="translate(288.593 136.733) rotate(-81.514)" fill="#fff"/>
            <rect id="Rectángulo_401728" data-name="Rectángulo 401728" width="8.052" height="17.155" transform="translate(342.203 130.927) rotate(-81.515)" fill="#fff"/>
            <path id="Trazado_874723" data-name="Trazado 874723" d="M654.271,223.662s1.356-.943-.078-1.573c0,0-15.111-4.337-1.88.969,0,0-16.765-2.328-.08,1.932,0,0-15.393-2.921-.622,1.608,0,0-12.666-.953.078,1.573l-.212,2.815a2.738,2.738,0,0,0,1.62-1.139,3.089,3.089,0,0,0,.953-3.545,1.734,1.734,0,0,0,.22-2.64" transform="translate(-270.733 -92.542)" fill="#ffa299"/>
            <path id="Trazado_874724" data-name="Trazado 874724" d="M491.206,180.9s-1.124-1.21.411-1.521c0,0,15.688-1.023,1.631,1.347,0,0,16.877,1.291-.333,1.9,0,0,15.661.419.266,1.7,0,0,12.579,1.764-.411,1.521l-.392,2.8a2.74,2.74,0,0,1-1.341-1.457,3.089,3.089,0,0,1-.177-3.667,1.734,1.734,0,0,1,.346-2.626" transform="translate(-205.863 -75.217)" fill="#ffa299"/>
            <g id="Grupo_1100387" data-name="Grupo 1100387" transform="translate(0 244.633)" opacity="0.1">
              <g id="Grupo_1100386" data-name="Grupo 1100386">
                <g id="Grupo_1100385" data-name="Grupo 1100385" clip-path="url(#clip-path-9)">
                  <path id="Trazado_874725" data-name="Trazado 874725" d="M0,426.353c0,2.587,21.6,4.684,48.254,4.684s48.254-2.1,48.254-4.684-21.6-4.684-48.254-4.684S0,423.766,0,426.353" transform="translate(0 -421.669)" fill="#21081c"/>
                </g>
              </g>
            </g>
            <path id="Trazado_874726" data-name="Trazado 874726" d="M36,388.483s1.717,20.552,1.145,21.524-43.35,6.665-8.155-3.194l-2-17.636Z" transform="translate(-6.343 -163.103)"/>
            <path id="Trazado_874727" data-name="Trazado 874727" d="M101.672,370.764s2.67,30.832,3.242,31.8,43.35,6.665,8.155-3.194l-2.384-27.916Z" transform="translate(-42.687 -155.664)"/>
            <path id="Trazado_874728" data-name="Trazado 874728" d="M27.529,201.96s-1.706,72.835,4.61,123.8l11.646.958L47.269,225.84l4.145.383,20,100,12.3-.931L68.982,201.576Z" transform="translate(-11.47 -84.631)" fill="#21081c"/>
            <path id="Trazado_874729" data-name="Trazado 874729" d="M87.835,208.216H95.71l-.816-3.365-7.183-.067q.07,1.716.125,3.432" transform="translate(-36.825 -85.978)" fill="#4c1b42"/>
            <path id="Trazado_874730" data-name="Trazado 874730" d="M65.97,204.58l-24.211-.227c.006,1.228.021,2.455.038,3.682H66.1q-.055-1.728-.125-3.455" transform="translate(-17.532 -85.797)" fill="#4c1b42"/>
            <path id="Trazado_874731" data-name="Trazado 874731" d="M33.253,204.273l-5.924-.056.2,3.761h5.759c-.017-1.235-.032-2.47-.039-3.705" transform="translate(-11.474 -85.74)" fill="#4c1b42"/>
            <path id="Trazado_874732" data-name="Trazado 874732" d="M65.569,204.613l-7.953-.4-.408,4.355h8.565Zm-6.73,3.181.262-2.8,5.113.254.131,2.545Z" transform="translate(-24.019 -85.74)" fill="#fee2b3"/>
            <path id="Trazado_874733" data-name="Trazado 874733" d="M45.862,81.755,45.445,70.77l12.339-.538.678,11.789L54.736,92.8Z" transform="translate(-19.08 -29.486)" fill="#ffa299"/>
            <path id="Trazado_874734" data-name="Trazado 874734" d="M57.206,75.38c.341.069.679.149,1.019.224l-.44-5.372-12.339.538.141,2.266c3.847.9,7.741,1.565,11.62,2.343" transform="translate(-19.08 -29.487)" fill="#f28b86"/>
            <path id="Trazado_874735" data-name="Trazado 874735" d="M37.791,31.666S40,46.042,41.672,46.738c2.588,1.077,15.713,6.1,19.595,1.435,1.743-2.093,2.588-22.786-1.663-30.5S42.227,10.135,38.53,15.877s-.74,15.789-.74,15.789" transform="translate(-15.396 -4.916)" fill="#ffa299"/>
            <path id="Trazado_874736" data-name="Trazado 874736" d="M60,2.707s-1.294,3.23-3.882,3.05-20.149-13.1-24.771.359a7.65,7.65,0,0,0-8.134,6.28c-3.281,14.623,8.688,24.76,11.6,23.554L31.306,23.39l2.078,8.562,2.773-.628-2.4-8.7c1.1-1.622,2.33-3.156,2.219-3.588a44.977,44.977,0,0,1,0-5.024s20.7,4.665,23.846-2.153l-3.142,1.256S62.221,10.242,60,2.707" transform="translate(-9.51 0)" fill="#21081c"/>
            <path id="Trazado_874737" data-name="Trazado 874737" d="M37.663,50.033s-2.588-10.227-5.915-8.478,1.525,12.111,5.823,9.42Z" transform="translate(-12.866 -17.362)" fill="#ffa299"/>
            <path id="Trazado_874738" data-name="Trazado 874738" d="M37.389,51.5a5.1,5.1,0,0,1-.87-.182,4.39,4.39,0,0,1-.425-.158,2.276,2.276,0,0,1-.415-.229c-.067-.05-.132-.111-.2-.169a1.7,1.7,0,0,1-.172-.241.806.806,0,0,1-.063-.339.717.717,0,0,1,.1-.323,1,1,0,0,1,.175-.241l.2-.182c.135-.1.27-.183.411-.269l-.193.364c-.135-.664-.3-1.34-.473-1.995a11.24,11.24,0,0,0-.666-1.884,2.28,2.28,0,0,0-.507-.718.556.556,0,0,0-.3-.135.892.892,0,0,0-.229,0,.4.4,0,0,0-.16.031c-.226.06-.373.35-.446.667a4.088,4.088,0,0,0-.063,1.026,2.918,2.918,0,0,1-.238-1.054,1.577,1.577,0,0,1,.089-.581.973.973,0,0,1,.418-.512,1.235,1.235,0,0,1,.624-.169,1.181,1.181,0,0,1,.68.184,2.611,2.611,0,0,1,.794.9,5.859,5.859,0,0,1,.463,1,9.528,9.528,0,0,1,.322,1.031,14.488,14.488,0,0,1,.382,2.1l.027.242-.22.122c-.11.06-.236.108-.341.169l-.139.1c-.06.031-.06.066-.1.1s-.028.056-.048.079,0,.053-.01.088c.02.038.034.081.059.127l.111.137a3.353,3.353,0,0,0,.658.491c.244.15.5.288.763.421" transform="translate(-13.793 -18.557)" fill="#d67676"/>
            <path id="Trazado_874739" data-name="Trazado 874739" d="M38.808,39.544s1.22,16.721,3.074,18.087A28.264,28.264,0,0,0,60.9,62.293c6.148-.932,2.882-13.8,2.882-13.8s-.768,5.781-1.729,5.221,1.153-4.475-1.537-4.475-10.758-1.678-10.951,1.305-2.113,3.543-3.842,2.051-5.187-15.664-5.187-15.664Z" transform="translate(-16.293 -15.506)" fill="#21081c"/>
            <path id="Trazado_874740" data-name="Trazado 874740" d="M66.624,50.4c1.515-.364,3.04-.652,4.566-.925l-.3.495c-.378-.78-.729-1.57-1.059-2.369l-.476-1.2-.439-1.218c-.147-.406-.269-.821-.4-1.232s-.244-.831-.367-1.246a24.019,24.019,0,0,1-.56-2.557,24.054,24.054,0,0,1,1.265,2.292c.181.393.375.781.546,1.178s.35.791.507,1.193l.474,1.206.437,1.219c.278.818.535,1.644.766,2.48l.128.468-.429.028c-1.547.1-3.1.186-4.655.194" transform="translate(-27.972 -16.856)" fill="#d67676"/>
            <path id="Trazado_874741" data-name="Trazado 874741" d="M70.48,36.223a2.629,2.629,0,0,1,.14-1.3,2.96,2.96,0,0,1,.283-.588,3.262,3.262,0,0,1,.47-.6,2.919,2.919,0,0,1,.7-.491,2.954,2.954,0,0,1,.862-.289,3.547,3.547,0,0,1,.894,0c.14.026.278.057.413.093a1.39,1.39,0,0,1,.379.131,4.785,4.785,0,0,1,.643.352c.178.142.339.282.48.415a2.06,2.06,0,0,1,.339.406,3.971,3.971,0,0,1,.222.343,2.509,2.509,0,0,1,.164.319,3.628,3.628,0,0,1-.36-.045c-.225-.024-.508-.12-.848-.168-.168-.028-.341-.062-.517-.105s-.359-.037-.537-.073-.35,0-.522-.032c-.168.006-.328.02-.486.038a2.819,2.819,0,0,0-.458.115,4.282,4.282,0,0,0-.458.182c-.142.093-.305.158-.443.263-.149.089-.285.193-.419.289-.265.2-.5.383-.668.521l-.276.224" transform="translate(-29.579 -13.824)" fill="#21081c"/>
            <path id="Trazado_874742" data-name="Trazado 874742" d="M60.775,36.721l-.385-.132-.424-.145-.533-.171c-.2-.049-.4-.117-.616-.161-.212-.061-.437-.093-.661-.135s-.454-.055-.679-.064a3.425,3.425,0,0,0-.67.037,3.552,3.552,0,0,0-.65.131c-.213.058-.411.167-.624.233-.195.107-.387.219-.582.316s-.353.242-.525.347a4.121,4.121,0,0,0-.456.323c-.129.108-.255.195-.358.27-.207.149-.343.23-.343.23a3.648,3.648,0,0,1,.1-.4c.038-.124.082-.28.15-.449.034-.085.064-.181.108-.274s.108-.18.167-.278a4.706,4.706,0,0,1,.419-.617,8.538,8.538,0,0,1,.621-.592,5.088,5.088,0,0,1,.824-.469,3.633,3.633,0,0,1,.965-.252,3.834,3.834,0,0,1,.5-.035c.165.007.329.026.49.039a2.331,2.331,0,0,1,.466.1,2.533,2.533,0,0,1,.436.137,4.113,4.113,0,0,1,.754.382,4.186,4.186,0,0,1,.591.446,3.614,3.614,0,0,1,.914,1.186" transform="translate(-22.366 -14.457)" fill="#21081c"/>
            <path id="Trazado_874743" data-name="Trazado 874743" d="M56.648,42.389s.051.118.128.328c.042.1.075.239.142.372s.146.277.218.433c.1.145.207.306.323.462a3.161,3.161,0,0,0,.435.418,2.415,2.415,0,0,0,.528.319l.294.095c.1.019.2.02.3.035a1.474,1.474,0,0,0,.587-.085,1.1,1.1,0,0,0,.266-.124L60,44.575l.109-.1a2.231,2.231,0,0,0,.388-.432c.1-.164.178-.335.259-.491.05-.169.106-.325.156-.466s.058-.274.084-.381c.047-.215.081-.343.081-.343s.028.123.066.347a2.738,2.738,0,0,1,.048.409c0,.159-.01.342-.028.543a3.764,3.764,0,0,1-.182.638,2.164,2.164,0,0,1-.425.643l-.142.153-.175.123a1.278,1.278,0,0,1-.382.211,2.179,2.179,0,0,1-.876.156c-.147-.021-.3-.034-.44-.068l-.411-.147a2.522,2.522,0,0,1-.669-.484,2.631,2.631,0,0,1-.458-.6,4.906,4.906,0,0,1-.256-.6c-.046-.2-.078-.383-.105-.541a2.268,2.268,0,0,1-.011-.4c0-.223.015-.352.015-.352" transform="translate(-23.776 -17.786)" fill="#21081c"/>
            <path id="Trazado_874744" data-name="Trazado 874744" d="M72.391,41.335s.046.114.117.316c.037.1.071.227.125.361s.131.273.2.426.188.3.277.468a3.77,3.77,0,0,0,.387.433,2.339,2.339,0,0,0,.226.189,2.918,2.918,0,0,1,.251.151l.27.1c.091.026.186.022.277.039a2.159,2.159,0,0,0,.274-.015,1.741,1.741,0,0,0,.261-.081A1.441,1.441,0,0,0,75.5,43.4l.1-.1.079-.119c.053-.079.111-.153.16-.232.067-.175.164-.331.217-.494s.1-.317.141-.454c.028-.142.053-.266.074-.367.044-.207.075-.329.075-.329s.027.118.063.332c.015.107.042.238.052.389s0,.325-.017.516a3.969,3.969,0,0,1-.131.614,2.271,2.271,0,0,1-.352.64,1.79,1.79,0,0,1-.628.529,2.34,2.34,0,0,1-.413.144,2.5,2.5,0,0,1-.44.038,3.055,3.055,0,0,1-.43-.077c-.133-.052-.268-.1-.394-.161-.116-.074-.228-.154-.336-.234a3,3,0,0,1-.273-.278,2.821,2.821,0,0,1-.394-.6,5.039,5.039,0,0,1-.2-.59c-.038-.191-.062-.365-.083-.516a3.264,3.264,0,0,1,0-.385c.008-.213.019-.336.019-.336" transform="translate(-30.382 -17.343)" fill="#21081c"/>
            <path id="Trazado_874745" data-name="Trazado 874745" d="M58.891,61.72l10.487.3s-2.312,4.546-10.487-.3" transform="translate(-24.725 -25.913)" fill="#fff"/>
            <path id="Trazado_874746" data-name="Trazado 874746" d="M128,128.47s-18.272,24.462-26.148,23.545c-5.768-.672-10.711-25.379-10.711-25.379l12.286-3.975,3.78,14.066,17.012-12.843Z" transform="translate(-38.266 -51.498)" fill="#ffa299"/>
            <path id="Trazado_874747" data-name="Trazado 874747" d="M116.144,142.424A165.737,165.737,0,0,0,128,128.47l-3.781-4.587L107.21,136.726l-3.78-14.066-12.286,3.975s1.24,6.194,3.2,12.464q10.894,1.7,21.8,3.325" transform="translate(-38.266 -51.498)" fill="#f28b86"/>
            <path id="Trazado_874748" data-name="Trazado 874748" d="M97.738,93.87s5.543,1.924,7.643,12.727L94.04,110.878Z" transform="translate(-39.482 -39.411)" fill="#fee2b3"/>
            <path id="Trazado_874749" data-name="Trazado 874749" d="M66.416,91.316s-9.262-4.654-17.17-3.579L43.5,98.437,32.6,87.851c-8.423.178-13.938,7.2-13.858,7.746.2,1.385,5.187,58.5,5.187,58.5l41.453-.383Z" transform="translate(-7.868 -36.769)" fill="#fee2b3"/>
            <path id="Trazado_874750" data-name="Trazado 874750" d="M53.131,131.581a176.388,176.388,0,0,1-34.014-26.349c.995,10.729,4.968,56.278,4.968,56.278l41.453-.383.365-21.985q-6.441-3.692-12.773-7.561" transform="translate(-8.026 -44.181)" fill="#f2d1a0"/>
            <path id="Trazado_874751" data-name="Trazado 874751" d="M55.807,96.138l2.243,4.949.2-5.147,3.7-2.054-3.9,7.571L53.386,97.3Z" transform="translate(-22.414 -39.418)" fill="#f2d1a0"/>
            <path id="Trazado_874752" data-name="Trazado 874752" d="M36.469,84.493l8.973,10.095L48.7,90.827l-8.39-9.59Z" transform="translate(-15.311 -34.107)" fill="#ffeacc"/>
            <path id="Trazado_874753" data-name="Trazado 874753" d="M61.778,91.123l3.263,2.771,7.342-9.3L68.1,82.414Z" transform="translate(-25.937 -34.601)" fill="#ffeacc"/>
            <path id="Trazado_874754" data-name="Trazado 874754" d="M18.017,104.968s14.912,30.37,22.892,33.624,26.883-24.73,26.883-24.73l-2.52-5.64L44.69,123.191s-10.5-23.428-17.012-27.55-9.661,9.328-9.661,9.328" transform="translate(-7.564 -39.825)" fill="#ffa299"/>
            <path id="Trazado_874755" data-name="Trazado 874755" d="M91.766,131.873c3.6-4.591,6.13-8.337,6.13-8.337l-2.52-5.64-5.656,4.113q.995,4.938,2.046,9.864" transform="translate(-37.669 -49.498)" fill="#f28b86"/>
            <path id="Trazado_874756" data-name="Trazado 874756" d="M37.784,109.424c-3.273-5.907-7.111-11.888-10.106-13.784-6.51-4.121-9.661,9.328-9.661,9.328s3.2,6.527,7.438,13.852a63.827,63.827,0,0,1,12.329-9.4" transform="translate(-7.565 -39.825)" fill="#f28b86"/>
            <path id="Trazado_874757" data-name="Trazado 874757" d="M28.709,89.1s-9.451.434-12.181,8.46,5.461,18.873,5.461,18.873l15.752-12.582Z" transform="translate(-6.705 -37.41)" fill="#fee2b3"/>
            <path id="Trazado_874758" data-name="Trazado 874758" d="M128.864,133.108a1.518,1.518,0,0,1-1.678,1.323l-31.6-3.173a1.5,1.5,0,0,1-1.363-1.628l2.063-19.353a1.518,1.518,0,0,1,1.678-1.323l31.6,3.173a1.5,1.5,0,0,1,1.363,1.629Z" transform="translate(-39.557 -45.74)" fill="#21081c"/>
            <path id="Trazado_874759" data-name="Trazado 874759" d="M153.223,120.746s1.562-1.055-.089-1.76c0,0-17.408-4.849-2.166,1.084,0,0-19.313-2.6-.092,2.16,0,0-17.731-3.266-.716,1.8,0,0-14.591-1.065.09,1.76l-.244,3.147a3.167,3.167,0,0,0,1.867-1.273,3.392,3.392,0,0,0,1.1-3.964,1.907,1.907,0,0,0,.254-2.952" transform="translate(-59.768 -49.172)" fill="#ffa299"/>
          </g>
        </g>
      </g>
    </g>
  </g>
</svg>
