<svg xmlns="http://www.w3.org/2000/svg" width="85" height="85" viewBox="0 0 85 85">
  <g id="_7" data-name="7" transform="translate(-193.051 -917)">
    <circle id="Elipse_11489" data-name="Elipse 11489" cx="42.5" cy="42.5" r="42.5" transform="translate(193.051 917)" fill="#22cac5"/>
    <g id="Law_Book" transform="translate(126.551 858.2)">
      <g id="Grupo_1099741" data-name="Grupo 1099741" transform="translate(84.5 75.8)">
        <rect id="Rectángulo_401318" data-name="Rectángulo 401318" width="0.894" height="0.894" transform="translate(21.759 26.792)" fill="#fbc749"/>
        <rect id="Rectángulo_401319" data-name="Rectángulo 401319" width="4.672" height="0.894" transform="translate(28.695 21.759)" fill="#75b4e2"/>
        <path id="Trazado_873291" data-name="Trazado 873291" d="M169.017,91.6h1.629v18.962H178.2v1.255h2.783v-2.149H179.9v-1.629h1.081v-.894H179.1v-4.138h11.694v4.138H188.9v.894h1.081v1.629H188.9v5.927h1.081v1.629H188.9v.894h1.889v4.138H179.1v-4.138h1.889v-.894H179.9v-1.629h1.081v-2.149H178.2V114.7h-7.556V125.66h28.594V87H169.825a4.222,4.222,0,0,0-4.225,4.225v19.337h3.418Zm7.542-1.182h16.727v6.662H176.559Z" transform="translate(-153.906 -85.385)" fill="#fdb641"/>
        <path id="Trazado_873292" data-name="Trazado 873292" d="M201.37,142.265H170.338a4.223,4.223,0,0,0-4.138,3.418h6.662v1.629H166.2a4.223,4.223,0,0,0,4.138,3.417h29.4v-6.2h1.629v6.2h.894V104.5h-.894Z" transform="translate(-154.419 -100.362)" fill="#fff"/>
        <rect id="Rectángulo_401320" data-name="Rectángulo 401320" width="4.672" height="5.927" transform="translate(28.695 24.283)" fill="#75b4e2"/>
        <rect id="Rectángulo_401321" data-name="Rectángulo 401321" width="13.483" height="3.417" transform="translate(24.283 6.648)" fill="#d2f5f4"/>
        <rect id="Rectángulo_401322" data-name="Rectángulo 401322" width="18.515" height="0.894" transform="translate(1.629 26.792)" fill="#75b4e2"/>
        <path id="Trazado_873293" data-name="Trazado 873293" d="M169.018,279.1H165.6v12.776a5.879,5.879,0,0,1,3.417-1.745Z" transform="translate(-153.906 -249.785)" fill="#dfbba0"/>
        <rect id="Rectángulo_401323" data-name="Rectángulo 401323" width="8.45" height="0.894" transform="translate(26.806 19.236)" fill="#fbc749"/>
        <rect id="Rectángulo_401324" data-name="Rectángulo 401324" width="4.672" height="0.894" transform="translate(28.695 31.839)" fill="#75b4e2"/>
        <path id="Trazado_873294" data-name="Trazado 873294" d="M270.4,314v.894h8.436V314H270.4Z" transform="translate(-243.594 -279.652)" fill="#fbc749"/>
        <path id="Trazado_873295" data-name="Trazado 873295" d="M258.427,110.7H241.7v6.662h16.727Zm-1.629,5.033H243.315v-3.417H256.8Z" transform="translate(-219.032 -105.667)" fill="#17171d"/>
        <path id="Trazado_873296" data-name="Trazado 873296" d="M131.451,75.8H100.419a5.859,5.859,0,0,0-5.854,5.854v19.337H84.5v4.138H94.565v16.813h0a5.859,5.859,0,0,0,5.854,5.854h33.54V78.338h-2.523V75.8ZM96.194,81.64a4.222,4.222,0,0,1,4.225-4.225h29.4v38.66H101.227V105.115h7.556v-1.255h2.783v2.149h-1.081v1.629h1.081v.894h-1.889v4.138h11.694v-4.138h-1.889v-.894h1.081V106.01h-1.081v-5.927h1.081V98.454h-1.081V97.56h1.889V93.421H109.677V97.56h1.889v.894h-1.081v1.629h1.081v2.149h-2.783v-1.255h-7.556V82.015H99.6v18.962H96.18V81.64Zm10.065,21.846v-.894h.894v.894Zm6.936-5.033V97.56h4.672v.894Zm4.658,1.629v5.927h-4.672v-5.927Zm-6.547-4.153v-.894h8.45v.894Zm1.889,11.709h4.672v.894H113.2Zm6.287,2.509h.26v.894h-8.45v-.894h8.19Zm-33.353-6.662v-.894h18.515v.894Zm10.065,1.629h3.417v11.017a5.922,5.922,0,0,0-3.417,1.745Zm36.136-25.177v46.216h-.894v-6.2h-1.629v6.2H100.419a4.223,4.223,0,0,1-4.138-3.417h6.662v-1.629H96.281a4.223,4.223,0,0,1,4.138-3.417h31.031V79.938Z" transform="translate(-84.5 -75.8)" fill="#17171d"/>
      </g>
    </g>
  </g>
</svg>
