<svg xmlns="http://www.w3.org/2000/svg" width="74" height="74" viewBox="0 0 74 74">
  <g id="_72" data-name="72" transform="translate(-316.359 -2235)">
    <circle id="Elipse_11528" data-name="Elipse 11528" cx="37" cy="37" r="37" transform="translate(316.359 2235)" fill="#22cac5"/>
    <g id="revision-positiva" transform="translate(325.359 2243.698)">
      <path id="Trazado_874891" data-name="Trazado 874891" d="M52.35,146.906a.431.431,0,1,0-.431-.431A.431.431,0,0,0,52.35,146.906Z" transform="translate(-46.321 -129.135)" fill="#ffba7b"/>
      <path id="Trazado_874892" data-name="Trazado 874892" d="M15.975,112.785a6.672,6.672,0,0,0,11.112,4.983,8.391,8.391,0,0,1,0-9.966,6.672,6.672,0,0,0-11.112,4.983Zm4.307-3.23a1.292,1.292,0,1,1-1.292,1.292A1.293,1.293,0,0,1,20.282,109.555Zm-1.464,5.394a5.635,5.635,0,0,1,3.832-1.5,5.7,5.7,0,0,1,.786.054.861.861,0,0,1-.118,1.715.873.873,0,0,1-.12-.008,3.982,3.982,0,0,0-.548-.038,3.918,3.918,0,0,0-2.664,1.041.861.861,0,1,1-1.168-1.266Z" transform="translate(-14.252 -93.506)" fill="#ffba7b"/>
      <path id="Trazado_874893" data-name="Trazado 874893" d="M45.224,140.642a1.292,1.292,0,1,0-1.292-1.292A1.293,1.293,0,0,0,45.224,140.642Zm0-1.723a.431.431,0,1,1-.431.431A.431.431,0,0,1,45.224,138.919Z" transform="translate(-39.195 -122.009)" fill="#201144"/>
      <path id="Trazado_874894" data-name="Trazado 874894" d="M40.631,177.189a.858.858,0,0,0,.584-.228,3.918,3.918,0,0,1,2.664-1.041,3.982,3.982,0,0,1,.548.038.872.872,0,0,0,.12.008.861.861,0,0,0,.118-1.715,5.719,5.719,0,0,0-.786-.054,5.635,5.635,0,0,0-3.832,1.5.861.861,0,0,0,.584,1.494Z" transform="translate(-35.482 -154.252)" fill="#201144"/>
      <path id="Trazado_874895" data-name="Trazado 874895" d="M131.737,116.764a15.706,15.706,0,0,1-1.242-6.152,15.887,15.887,0,0,1,.273-2.947,6.675,6.675,0,1,0,1.008,9.19Zm-7.617-7.21a1.292,1.292,0,1,1-1.292,1.292A1.293,1.293,0,0,1,124.12,109.554Zm4.307,6.46H123.69a.861.861,0,0,1,0-1.723h4.737a.861.861,0,1,1,0,1.723Z" transform="translate(-106.894 -93.506)" fill="#fcf983"/>
      <path id="Trazado_874896" data-name="Trazado 874896" d="M153.368,181.99H148.63a.861.861,0,1,0,0,1.723h4.737a.861.861,0,0,0,0-1.723Z" transform="translate(-131.835 -161.204)" fill="#201144"/>
      <path id="Trazado_874897" data-name="Trazado 874897" d="M156.188,146.906a.431.431,0,1,0-.431-.431A.431.431,0,0,0,156.188,146.906Z" transform="translate(-138.962 -129.135)" fill="#fcf983"/>
      <path id="Trazado_874898" data-name="Trazado 874898" d="M147.77,139.35a1.292,1.292,0,1,0,1.292-1.292A1.293,1.293,0,0,0,147.77,139.35Zm1.292-.431a.431.431,0,1,1-.431.431A.431.431,0,0,1,149.062,138.919Z" transform="translate(-131.836 -122.009)" fill="#201144"/>
      <path id="Trazado_874899" data-name="Trazado 874899" d="M248.921,17.277a14.075,14.075,0,0,0-10.612,23.328l1.028-1.028a3.086,3.086,0,0,1,3.724-.49,10.112,10.112,0,0,1-3.722-6.458,1.276,1.276,0,0,1,.3-1.018,1.3,1.3,0,0,1,.981-.449h17.036a1.3,1.3,0,0,1,.981.449,1.276,1.276,0,0,1,.3,1.018,10.131,10.131,0,0,1-7.587,8.36,9.312,9.312,0,0,1-1.28.222,9.147,9.147,0,0,1-.926.047,9.284,9.284,0,0,1-1.579-.136,9.837,9.837,0,0,1-2.4-.748,10.1,10.1,0,0,1-1.545-.878c.028.026.056.053.084.08a3.083,3.083,0,0,1,0,4.36l-.352.352a14.082,14.082,0,1,0,5.576-27.012Zm-5.383,11.732a3.015,3.015,0,1,1,3.015-3.015A3.018,3.018,0,0,1,243.538,29.009Zm10.766-.431a2.8,2.8,0,1,1,2.8-2.8A2.8,2.8,0,0,1,254.3,28.578Z" transform="translate(-209.516 -14.252)" fill="#81ea93"/>
      <path id="Trazado_874900" data-name="Trazado 874900" d="M53.967,10.954a15.813,15.813,0,0,0-29.124,0q-.29.684-.512,1.388A8.389,8.389,0,0,0,14,13.019a8.4,8.4,0,1,0,0,12.518,8.39,8.39,0,0,0,11.536-.321c.064-.064.126-.129.188-.2a15.729,15.729,0,0,0,1.846,2.557l-4.516,4.516a3.086,3.086,0,0,0-5.1-1.184L13.064,35.8A11.969,11.969,0,1,0,29.991,52.725l5.585-5.585a3.085,3.085,0,0,0-1.432-5.172,3.083,3.083,0,0,0-2.9-4.278,3.079,3.079,0,0,0-2.087-2.979l3.371-3.371q.358.173.727.329A15.813,15.813,0,0,0,53.967,10.954ZM39.4,31.189a14,14,0,0,1-5.576-1.152l.352-.352a3.083,3.083,0,0,0,0-4.36c-.028-.027-.056-.054-.084-.08a10.1,10.1,0,0,0,1.545.878,9.841,9.841,0,0,0,2.4.748,9.284,9.284,0,0,0,1.579.136,9.18,9.18,0,0,0,.926-.047,9.3,9.3,0,0,0,1.28-.222,10.11,10.11,0,0,0,7.587-8.36,1.276,1.276,0,0,0-.3-1.018,1.3,1.3,0,0,0-.981-.449H31.1a1.3,1.3,0,0,0-.981.449,1.276,1.276,0,0,0-.3,1.018,10.112,10.112,0,0,0,3.722,6.458,3.086,3.086,0,0,0-3.724.49l-1.028,1.028A14.076,14.076,0,1,1,39.4,31.189ZM25.457,35.972h0l-.823.823a.861.861,0,0,0,1.218,1.218L27.2,36.667a1.36,1.36,0,0,1,1.924,1.924L27.963,39.75a.861.861,0,0,0,1.218,1.218l1.159-1.16a1.36,1.36,0,1,1,1.924,1.924l-1.045,1.045,0,0-.52.521a.861.861,0,0,0,1.218,1.218l.52-.52a1.36,1.36,0,0,1,1.924,1.924l-5.585,5.585A10.247,10.247,0,0,1,14.282,37.015l4.887-4.887A1.36,1.36,0,0,1,21.1,34.049L16.73,38.415a.861.861,0,0,0,1.218,1.218l4.364-4.364.005-.006,8.722-8.722a1.36,1.36,0,1,1,1.924,1.924Zm10.9-11.417a8.412,8.412,0,0,1-4.741-5.923H47.626a8.335,8.335,0,0,1-.245.912,8.416,8.416,0,0,1-5.961,5.52,7.57,7.57,0,0,1-1.043.181,7.707,7.707,0,0,1-4.021-.69Zm-16.762,1.4a6.675,6.675,0,1,1,4.279-11.795,15.887,15.887,0,0,0-.273,2.947,15.706,15.706,0,0,0,1.242,6.152l.039.091a6.668,6.668,0,0,1-5.287,2.6ZM12.834,14.3a8.391,8.391,0,0,0,0,9.966,6.675,6.675,0,1,1,0-9.966Z" fill="#201144"/>
      <path id="Trazado_874901" data-name="Trazado 874901" d="M301.964,168.635a7.572,7.572,0,0,0,1.043-.181,8.389,8.389,0,0,0,6.206-6.432H293.2a8.412,8.412,0,0,0,4.741,5.923A7.709,7.709,0,0,0,301.964,168.635Z" transform="translate(-261.587 -143.389)" fill="#fff"/>
      <path id="Trazado_874902" data-name="Trazado 874902" d="M304.819,86.139a1.292,1.292,0,1,0,1.292,1.292A1.293,1.293,0,0,0,304.819,86.139Z" transform="translate(-270.797 -75.689)" fill="#fff"/>
      <path id="Trazado_874903" data-name="Trazado 874903" d="M290.567,70.164a3.015,3.015,0,1,0,3.015,3.015A3.018,3.018,0,0,0,290.567,70.164Zm0,4.307a1.292,1.292,0,1,1,1.292-1.292A1.293,1.293,0,0,1,290.567,74.471Z" transform="translate(-256.545 -61.437)" fill="#201144"/>
      <circle id="Elipse_11549" data-name="Elipse 11549" cx="1.077" cy="1.077" r="1.077" transform="translate(43.711 10.45)" fill="#fff"/>
      <path id="Trazado_874904" data-name="Trazado 874904" d="M392.193,70.164a2.8,2.8,0,1,0,2.8,2.8A2.8,2.8,0,0,0,392.193,70.164Zm0,3.876a1.077,1.077,0,1,1,1.077-1.077A1.078,1.078,0,0,1,392.193,74.04Z" transform="translate(-347.405 -61.437)" fill="#201144"/>
      <path id="Trazado_874905" data-name="Trazado 874905" d="M126.34,234.01a1.36,1.36,0,1,0-1.924-1.924l-8.722,8.722-.006.006-4.364,4.364a.861.861,0,0,1-1.218-1.218l4.367-4.367a1.36,1.36,0,0,0-1.927-1.921l-4.887,4.887a10.247,10.247,0,0,0,14.491,14.491l5.585-5.585a1.36,1.36,0,1,0-1.924-1.924l-.52.52a.861.861,0,0,1-1.218-1.218l.521-.521,0,0,1.045-1.045a1.36,1.36,0,0,0-1.924-1.924l-1.159,1.16a.861.861,0,1,1-1.218-1.218l1.159-1.159a1.36,1.36,0,0,0-1.924-1.924l-1.348,1.348a.861.861,0,0,1-1.218-1.218l.823-.823h0Z" transform="translate(-93.378 -205.543)" fill="#fff"/>
    </g>
  </g>
</svg>
