<svg xmlns="http://www.w3.org/2000/svg" xmlns:xlink="http://www.w3.org/1999/xlink" width="715.359" height="237.183" viewBox="0 0 715.359 237.183">
  <defs>
    <clipPath id="clip-path">
      <rect id="Rectángulo_401760" data-name="Rectángulo 401760" width="616.734" height="225.653" fill="none"/>
    </clipPath>
    <clipPath id="clip-path-2">
      <rect id="Rectángulo_401759" data-name="Rectángulo 401759" width="715" height="236.712" rx="16" transform="translate(705 2523)" fill="#22cac5"/>
    </clipPath>
    <clipPath id="clip-path-3">
      <rect id="Rectángulo_401744" data-name="Rectángulo 401744" width="405.571" height="544.559" fill="none"/>
    </clipPath>
    <clipPath id="clip-path-4">
      <path id="Trazado_874915" data-name="Trazado 874915" d="M204.652,374.948h15.4c10.772-75.215,3.106-109.646,3.106-109.646L190.1,260.439Z" transform="translate(-190.103 -260.439)" fill="none"/>
    </clipPath>
    <clipPath id="clip-path-6">
      <path id="Trazado_874919" data-name="Trazado 874919" d="M215.13,258.893l49.242,105.3,13.705-5.061c-12.3-74.979-29.953-105.522-29.953-105.522Z" transform="translate(-215.13 -253.606)" fill="none"/>
    </clipPath>
    <clipPath id="clip-path-8">
      <path id="Trazado_874922" data-name="Trazado 874922" d="M9.238,333.881v23.98H78.345c0-8.706-47.163-23.98-47.163-23.98Z" transform="translate(-9.238 -333.881)" fill="none"/>
    </clipPath>
    <clipPath id="clip-path-10">
      <path id="Trazado_874925" data-name="Trazado 874925" d="M61.871,344.593,127.988,364.7c2.532-8.329-38.145-36.666-38.145-36.666l-20.994-6.383Z" transform="translate(-61.871 -321.651)" fill="none"/>
    </clipPath>
    <clipPath id="clip-path-12">
      <path id="Trazado_874929" data-name="Trazado 874929" d="M9.176,173.837V296.961L1.714,427.546H45.243s9.949-85.814,16.789-140.535,5.6-67.158,5.6-67.158l32.336,80.838L91.94,413.562l46.016,7.464s11.755-91.731,10.512-120.334-37.313-134.317-37.313-134.317Z" transform="translate(-1.714 -166.375)" fill="none"/>
    </clipPath>
    <clipPath id="clip-path-14">
      <path id="Trazado_874933" data-name="Trazado 874933" d="M214.819,60.71s-23.331-1.4-30.256,33.218c-3.538,17.7-5.593,44.893-6.665,75.107,46.7,9.4,67.72-2.733,67.72-2.733S280.4,60.259,221.784,60.256a56.174,56.174,0,0,0-6.965.454" transform="translate(-177.898 -60.256)" fill="none"/>
    </clipPath>
    <clipPath id="clip-path-16">
      <path id="Trazado_874937" data-name="Trazado 874937" d="M178.25,131c-1.023,28.89-1.151,60.538-.814,89.3.692,58.851,1.871,107.583,1.871,107.583s40.158,26.882,104.945-4.2c1.386-148.165-38.282-195.421-38.282-195.421S224.947,140.4,178.25,131" transform="translate(-177.269 -128.27)" fill="none"/>
    </clipPath>
    <clipPath id="clip-path-18">
      <path id="Trazado_874948" data-name="Trazado 874948" d="M44.956,50.727S0,57.207,0,88.3,2.672,252.2,2.672,252.2s53.478,16.167,120.636-7.462C101.29,88.163,94.905,50.7,47.365,50.7c-.794,0-1.592.011-2.409.031" transform="translate(0 -50.696)" fill="none"/>
    </clipPath>
    <clipPath id="clip-path-20">
      <path id="Trazado_874952" data-name="Trazado 874952" d="M26.719,37.087l-5.4,27.028s15.723,15.9,30.954,0c-.39-.231,3.555-27.028,3.555-27.028Z" transform="translate(-21.316 -37.087)" fill="none"/>
    </clipPath>
    <clipPath id="clip-path-22">
      <path id="Trazado_874965" data-name="Trazado 874965" d="M41.167,1.571c-19.748,3.174-31.7,23.5-24.71,40.012C23.425,58.054,36.781,70.821,54.038,70.8,70.674,70.78,77.428,57.462,72.863,28.88,68.669,2.633,45.443,1.562,41.681,1.562c-.334,0-.515.009-.515.009" transform="translate(-14.447 -1.562)" fill="none"/>
    </clipPath>
    <clipPath id="clip-path-24">
      <path id="Trazado_874968" data-name="Trazado 874968" d="M187.153,46.635s10.147,33.942,12.06,40.5c10.919-6.809,25.6-18.065,25.6-18.065l-8.786-26.124Z" transform="translate(-187.153 -42.943)" fill="none"/>
    </clipPath>
    <clipPath id="clip-path-26">
      <path id="Trazado_874981" data-name="Trazado 874981" d="M180.833,32.127c-8.811,47.683,5.93,51.255,22.433,49.164,17.121-2.169,28.748-16.526,33.571-33.748,4.835-17.268-9.6-35.911-29.587-36.555,0,0-21.365.764-26.417,21.139" transform="translate(-178.195 -10.988)" fill="none"/>
    </clipPath>
    <clipPath id="clip-path-28">
      <path id="Trazado_874986" data-name="Trazado 874986" d="M194.888,80.581l6.768-1.514,9.4,1.514,14.466-17.195-7.682-8.728Z" transform="translate(-194.888 -54.658)" fill="none"/>
    </clipPath>
  </defs>
  <g id="_74" data-name="74" transform="translate(-705 -2523)">
    <g id="Grupo_1100119" data-name="Grupo 1100119" transform="translate(-0.051 353)">
      <g id="Grupo_1099912" data-name="Grupo 1099912" transform="translate(705.051 2170)">
        <rect id="Rectángulo_401339" data-name="Rectángulo 401339" width="715" height="167.4" rx="16" transform="translate(0 55.312)" fill="#22cac5"/>
        <path id="Trazado_873608" data-name="Trazado 873608" d="M96.685,0A33.754,33.754,0,0,1,62.97,33.715,33.754,33.754,0,0,1,29.253,0H0A63.04,63.04,0,0,0,62.97,62.969,63.04,63.04,0,0,0,125.938,0Z" transform="translate(10.527)" fill="#fdb641"/>
        <path id="Trazado_873609" data-name="Trazado 873609" d="M17.251,34.5h0V26.488a9.237,9.237,0,1,1,9.237-9.237H34.5A17.251,17.251,0,1,0,17.251,34.5" transform="translate(657.989 72.563) rotate(-90)" fill="#201144"/>
        <path id="Trazado_875016" data-name="Trazado 875016" d="M69.379,138.76h0V106.528A37.148,37.148,0,1,1,106.528,69.38H138.76a69.38,69.38,0,1,0-69.38,69.379" transform="translate(444.749 38.06) rotate(90)" fill="#116562"/>
        <path id="Trazado_873611" data-name="Trazado 873611" d="M29.765,64.07A34.344,34.344,0,0,1,64.07,29.765V0A64.143,64.143,0,0,0,0,64.07Z" transform="translate(125.527 168.85)" fill="#fff"/>
      </g>
    </g>
    <g id="Grupo_1100501" data-name="Grupo 1100501" transform="translate(754.359 2523)">
      <g id="Grupo_1100500" data-name="Grupo 1100500" clip-path="url(#clip-path)">
        <path id="Trazado_875000" data-name="Trazado 875000" d="M31.545,62.765a28.128,28.128,0,0,1,56.255,0" transform="translate(11.517 12.645)" fill="none" stroke="#000" stroke-linecap="round" stroke-linejoin="round" stroke-width="1"/>
        <path id="Trazado_875001" data-name="Trazado 875001" d="M69.535,59.638a4.395,4.395,0,1,1,4.4,4.4A4.4,4.4,0,0,1,69.535,59.638Z" transform="translate(25.386 20.168)" fill="none" stroke="#000" stroke-linecap="round" stroke-linejoin="round" stroke-width="1"/>
        <path id="Trazado_875002" data-name="Trazado 875002" d="M28.325,59.638a4.395,4.395,0,1,1,4.4,4.4A4.4,4.4,0,0,1,28.325,59.638Z" transform="translate(10.341 20.168)" fill="none" stroke="#000" stroke-linecap="round" stroke-linejoin="round" stroke-width="1"/>
        <path id="Trazado_875003" data-name="Trazado 875003" d="M14.237,52.121H128.923l18.964,153.82H14.237Z" transform="translate(5.198 19.029)" fill="#e797b3"/>
        <path id="Trazado_875004" data-name="Trazado 875004" d="M19.252,52.121,38,205.942H.5Z" transform="translate(0.182 19.029)" fill="#8cacf7"/>
        <path id="Trazado_875005" data-name="Trazado 875005" d="M37.984,64.022a28.128,28.128,0,0,1,56.255,0" transform="translate(13.867 13.105)" fill="none" stroke="#000" stroke-linecap="round" stroke-linejoin="round" stroke-width="1"/>
        <path id="Trazado_875006" data-name="Trazado 875006" d="M75.975,60.9a4.395,4.395,0,1,1,4.4,4.4A4.4,4.4,0,0,1,75.975,60.9Z" transform="translate(27.737 20.627)" fill="none" stroke="#000" stroke-linecap="round" stroke-linejoin="round" stroke-width="1"/>
        <path id="Trazado_875007" data-name="Trazado 875007" d="M34.764,60.9a4.395,4.395,0,1,1,4.4,4.4A4.4,4.4,0,0,1,34.764,60.9Z" transform="translate(12.692 20.627)" fill="none" stroke="#000" stroke-linecap="round" stroke-linejoin="round" stroke-width="1"/>
        <path id="Trazado_875008" data-name="Trazado 875008" d="M32.989,205.941,14.237,52.121,27.29,205.941Z" transform="translate(5.198 19.029)"/>
        <line id="Línea_692" data-name="Línea 692" x1="1.925" y2="143.38" transform="translate(17.51 71.15)" fill="none" stroke="#000" stroke-linecap="round" stroke-linejoin="round" stroke-width="1"/>
        <circle id="Elipse_11550" data-name="Elipse 11550" cx="32.205" cy="32.205" r="32.205" transform="translate(54.054 113.536)" fill="none" stroke="#fff" stroke-linecap="round" stroke-linejoin="round" stroke-width="1"/>
        <path id="Trazado_875009" data-name="Trazado 875009" d="M.5,167.6l16.827-10.44L32.305,167.6" transform="translate(0.183 57.375)" fill="none" stroke="#000" stroke-linecap="round" stroke-linejoin="round" stroke-width="1"/>
        <path id="Trazado_875010" data-name="Trazado 875010" d="M431.1,36a35.5,35.5,0,0,0-71.009,0" transform="translate(131.462 0.183)" fill="none" stroke="#000" stroke-linecap="round" stroke-linejoin="round" stroke-width="1"/>
        <circle id="Elipse_11551" data-name="Elipse 11551" cx="5.548" cy="5.548" r="5.548" transform="translate(486.002 36.187)" fill="none" stroke="#000" stroke-linecap="round" stroke-linejoin="round" stroke-width="1"/>
        <circle id="Elipse_11552" data-name="Elipse 11552" cx="5.548" cy="5.548" r="5.548" transform="translate(557.011 36.187)" fill="none" stroke="#000" stroke-linecap="round" stroke-linejoin="round" stroke-width="1"/>
        <path id="Trazado_875011" data-name="Trazado 875011" d="M479.07,22.57H334.307L310.37,216.73h168.7Z" transform="translate(113.311 8.24)" fill="#7a94f0"/>
        <path id="Trazado_875012" data-name="Trazado 875012" d="M440.283,22.57,416.612,216.73h47.34Z" transform="translate(152.099 8.24)" fill="#8cacf7"/>
        <path id="Trazado_875013" data-name="Trazado 875013" d="M422.968,37.592a35.5,35.5,0,1,0-71.009,0" transform="translate(128.495 0.762)" fill="none" stroke="#000" stroke-linecap="round" stroke-linejoin="round" stroke-width="1"/>
        <circle id="Elipse_11553" data-name="Elipse 11553" cx="5.548" cy="5.548" r="5.548" transform="translate(474.906 38.355)" fill="none" stroke="#000" stroke-linecap="round" stroke-linejoin="round" stroke-width="1"/>
        <circle id="Elipse_11554" data-name="Elipse 11554" cx="5.548" cy="5.548" r="5.548" transform="translate(545.915 38.355)" fill="none" stroke="#000" stroke-linecap="round" stroke-linejoin="round" stroke-width="1"/>
        <path id="Trazado_875014" data-name="Trazado 875014" d="M416.613,216.73,440.283,22.57,423.807,216.73Z" transform="translate(152.099 8.24)"/>
        <line id="Línea_693" data-name="Línea 693" x2="2.237" y2="178.812" transform="translate(592.382 30.81)" fill="none" stroke="#000" stroke-linecap="round" stroke-linejoin="round" stroke-width="1"/>
        <circle id="Elipse_11555" data-name="Elipse 11555" cx="40.651" cy="40.651" r="40.651" transform="translate(467.38 83.232)" fill="none" stroke="#fff" stroke-linecap="round" stroke-linejoin="round" stroke-width="1"/>
        <path id="Trazado_875015" data-name="Trazado 875015" d="M421.883,168.908,440.6,153.56l21.433,15.348" transform="translate(154.023 56.062)" fill="none" stroke="#000" stroke-linecap="round" stroke-linejoin="round" stroke-width="1"/>
      </g>
    </g>
    <g id="Enmascarar_grupo_1098693" data-name="Enmascarar grupo 1098693" transform="translate(0.359)" clip-path="url(#clip-path-2)">
      <g id="Grupo_1100499" data-name="Grupo 1100499" transform="translate(879.359 2532.624)">
        <g id="Grupo_1100446" data-name="Grupo 1100446">
          <g id="Grupo_1100445" data-name="Grupo 1100445" clip-path="url(#clip-path-3)">
            <path id="Trazado_874906" data-name="Trazado 874906" d="M132.9,106.216c-10.782-6.209-27.8-1.261-27.8-1.261l2.3,16.984c29.482,6.29,39.832-2.7,39.832-2.7s-3.56-6.815-14.341-13.024" transform="translate(58.773 57.644)" fill="#dca37c"/>
            <path id="Trazado_874907" data-name="Trazado 874907" d="M147.8,103.969s-12.158-4.531-22.05-3.008c-7.2,1.11-11.452,3.262-13.655,5.948a2.269,2.269,0,0,0,2.253,3.664c3.691-.837,8.814-3.441,12.564-2.722,4.716,1.8,9.378,7.118,12.158,10.771a7.571,7.571,0,0,0,7.972,2.792,20.325,20.325,0,0,0,5.417-2.292c.471-7.186-4.659-15.154-4.659-15.154" transform="translate(62.386 56.28)" fill="#ca7168"/>
            <path id="Trazado_874908" data-name="Trazado 874908" d="M109.643,116.512s4.366-4.992,10.81-3.624,12.508,3.965,10.509,7.127-22.934,1.675-21.319-3.5" transform="translate(61.26 62.991)" fill="#ca7168"/>
            <path id="Trazado_874909" data-name="Trazado 874909" d="M182.264,21.341s2.124,32.086-10.869,46.923c12.974,6.765,22.8,2.22,22.8,2.22s12.983-40.37-11.931-49.144" transform="translate(95.84 11.933)"/>
            <path id="Trazado_874910" data-name="Trazado 874910" d="M134.924,122.986l59.659,6.717s16.491-40.645,25.528-58.439S253.761,57.633,243,97.529s-26.462,61.174-37.561,61.318-72.915-14.533-72.915-14.533Z" transform="translate(74.103 34.235)" fill="#fff"/>
            <path id="Trazado_874911" data-name="Trazado 874911" d="M213.167,333.881s-38.295,15.275-38.295,23.98h53.7v-23.98Z" transform="translate(97.784 186.697)" fill="#fff"/>
            <path id="Trazado_874912" data-name="Trazado 874912" d="M181.722,126.129a8.594,8.594,0,0,0-3.482-14.6c-.078-.02-.157-.041-.239-.059-8.006-1.965-23.057-.351-23.766,1.618s12.154,3.832,12.154,3.832-25.176,5-26.793,7.944,8,5.788,33.04,1.664l1.327,2.711a11.658,11.658,0,0,0,7.758-3.106" transform="translate(77.962 61.829)" fill="#ca7168"/>
            <path id="Trazado_874913" data-name="Trazado 874913" d="M223.162,265.3,190.1,260.439,204.65,374.948h15.406c10.772-75.216,3.106-109.647,3.106-109.647" transform="translate(106.301 145.631)" fill="#ca7168"/>
          </g>
        </g>
        <g id="Grupo_1100448" data-name="Grupo 1100448" transform="translate(296.404 406.07)">
          <g id="Grupo_1100447" data-name="Grupo 1100447" clip-path="url(#clip-path-4)">
            <path id="Trazado_874914" data-name="Trazado 874914" d="M191.534,271.029s50.071,10.922,74.622-12.134c-48.308-4.1-77.316,1.526-77.316,1.526Z" transform="translate(-190.809 -262.14)"/>
          </g>
        </g>
        <g id="Grupo_1100450" data-name="Grupo 1100450">
          <g id="Grupo_1100449" data-name="Grupo 1100449" clip-path="url(#clip-path-3)">
            <path id="Trazado_874916" data-name="Trazado 874916" d="M256.945,326.345s-30.989,25.765-28.375,34.069l49.279-16.256-7.2-22.873Z" transform="translate(127.722 179.654)" fill="#fff"/>
            <path id="Trazado_874917" data-name="Trazado 874917" d="M248.124,253.607l-32.994,5.286,49.242,105.3,13.705-5.06c-12.3-74.981-29.953-105.522-29.953-105.522" transform="translate(120.295 141.81)" fill="#ca7168"/>
          </g>
        </g>
        <g id="Grupo_1100452" data-name="Grupo 1100452" transform="translate(335.425 395.416)">
          <g id="Grupo_1100451" data-name="Grupo 1100451" clip-path="url(#clip-path-6)">
            <path id="Trazado_874918" data-name="Trazado 874918" d="M219.3,274.611s22.472-1.118,41.081-20.863L213.325,265.44Z" transform="translate(-216.139 -253.527)"/>
          </g>
        </g>
        <g id="Grupo_1100454" data-name="Grupo 1100454">
          <g id="Grupo_1100453" data-name="Grupo 1100453" clip-path="url(#clip-path-3)">
            <path id="Trazado_874920" data-name="Trazado 874920" d="M31.182,333.881s47.163,15.275,47.163,23.98H9.238v-23.98Z" transform="translate(5.166 186.697)" fill="#8cacf7"/>
          </g>
        </g>
        <g id="Grupo_1100456" data-name="Grupo 1100456" transform="translate(14.404 520.579)">
          <g id="Grupo_1100455" data-name="Grupo 1100455" clip-path="url(#clip-path-8)">
            <path id="Trazado_874921" data-name="Trazado 874921" d="M5.287,348.562l46.184-9.534-5.685-7.133L1.713,329.068Z" transform="translate(-13.446 -336.572)"/>
          </g>
        </g>
        <g id="Grupo_1100458" data-name="Grupo 1100458">
          <g id="Grupo_1100457" data-name="Grupo 1100457" clip-path="url(#clip-path-3)">
            <path id="Trazado_874923" data-name="Trazado 874923" d="M89.843,328.035s40.679,28.336,38.145,36.666L61.871,344.593l6.977-22.943Z" transform="translate(34.597 179.858)" fill="#8cacf7"/>
          </g>
        </g>
        <g id="Grupo_1100460" data-name="Grupo 1100460" transform="translate(96.468 501.51)">
          <g id="Grupo_1100459" data-name="Grupo 1100459" clip-path="url(#clip-path-10)">
            <path id="Trazado_874924" data-name="Trazado 874924" d="M60.229,336.139l53,.05-51.988-14.9-1.286,18.794" transform="translate(-62.94 -321.856)"/>
          </g>
        </g>
        <g id="Grupo_1100462" data-name="Grupo 1100462">
          <g id="Grupo_1100461" data-name="Grupo 1100461" clip-path="url(#clip-path-3)">
            <path id="Trazado_874926" data-name="Trazado 874926" d="M113.993,89.2s-3.383-7.208,2.423-13.063S135.9,63.8,137.534,65.112s-8.368,9.614-8.368,9.614,24.088-8.872,27-7.208.3,9.854-23.211,19.405l-12.9,6.207Z" transform="translate(63.194 36.314)" fill="#dca37c"/>
            <path id="Trazado_874927" data-name="Trazado 874927" d="M9.176,173.836V296.959L1.714,427.545H45.243s9.949-85.812,16.789-140.535,5.6-67.158,5.6-67.158l32.334,80.839L91.94,413.562l46.016,7.462s11.755-91.729,10.512-120.334-37.311-134.317-37.311-134.317Z" transform="translate(0.958 93.032)" fill="#7a94f0"/>
          </g>
        </g>
        <g id="Grupo_1100464" data-name="Grupo 1100464" transform="translate(2.672 259.408)">
          <g id="Grupo_1100463" data-name="Grupo 1100463" clip-path="url(#clip-path-12)">
            <path id="Trazado_874928" data-name="Trazado 874928" d="M4.628,196.916S71.26,206.979,121.07,175.148c-119.35.334-117.064.441-117.064.441Z" transform="translate(-0.434 -161.469)"/>
          </g>
        </g>
        <g id="Grupo_1100466" data-name="Grupo 1100466">
          <g id="Grupo_1100465" data-name="Grupo 1100465" clip-path="url(#clip-path-3)">
            <path id="Trazado_874930" data-name="Trazado 874930" d="M245.617,166.3S283.05,52.189,214.819,60.71c0,0-23.331-1.4-30.254,33.218-3.539,17.7-5.594,44.893-6.665,75.107,46.7,9.4,67.718-2.733,67.718-2.733" transform="translate(99.476 33.693)" fill="#d9e5f8"/>
          </g>
        </g>
        <g id="Grupo_1100468" data-name="Grupo 1100468" transform="translate(277.374 93.95)">
          <g id="Grupo_1100467" data-name="Grupo 1100467" clip-path="url(#clip-path-14)">
            <path id="Trazado_874931" data-name="Trazado 874931" d="M159.412,138.9h60.036s17.191-41.109,24.18-59.8,26.564-18.434,20.332,22.416-19.451,63.75-30.465,65.134-74.083-6.283-74.083-6.283Z" transform="translate(-188.235 -56.402)"/>
            <path id="Trazado_874932" data-name="Trazado 874932" d="M203.085,64.518s-12.458,27.089-16.9,107.856" transform="translate(-173.267 -57.873)" fill="none" stroke="#000" stroke-linecap="round" stroke-linejoin="round" stroke-width="1"/>
            <rect id="Rectángulo_401750" data-name="Rectángulo 401750" width="7.17" height="20.318" transform="translate(29.33 50.163) rotate(-84.102)" fill="none" stroke="#000" stroke-linecap="round" stroke-linejoin="round" stroke-width="1"/>
          </g>
        </g>
        <g id="Grupo_1100470" data-name="Grupo 1100470">
          <g id="Grupo_1100469" data-name="Grupo 1100469" clip-path="url(#clip-path-3)">
            <path id="Trazado_874934" data-name="Trazado 874934" d="M245.97,128.27S224.947,140.4,178.251,131c-1.026,28.89-1.154,60.538-.815,89.3.692,58.851,1.871,107.583,1.871,107.583s40.158,26.882,104.946-4.2C285.638,175.525,245.97,128.27,245.97,128.27" transform="translate(99.124 71.725)" fill="#839ec1"/>
          </g>
        </g>
        <g id="Grupo_1100472" data-name="Grupo 1100472" transform="translate(276.394 199.995)">
          <g id="Grupo_1100471" data-name="Grupo 1100471" clip-path="url(#clip-path-16)">
            <path id="Trazado_874935" data-name="Trazado 874935" d="M207.58,125.507s24.008,44.04,29.649,120.691S242.7,352.22,242.7,352.22" transform="translate(-160.32 -129.815)" fill="none" stroke="#000" stroke-linecap="round" stroke-linejoin="round" stroke-width="1"/>
            <path id="Trazado_874936" data-name="Trazado 874936" d="M260.8,140.9s-53.551,12.614-95.45-17.266c96.792-4.255,94.944-4.06,94.944-4.06Z" transform="translate(-183.934 -133.131)"/>
          </g>
        </g>
        <g id="Grupo_1100474" data-name="Grupo 1100474">
          <g id="Grupo_1100473" data-name="Grupo 1100473" clip-path="url(#clip-path-3)">
            <path id="Trazado_874938" data-name="Trazado 874938" d="M107.6,102.641s-35.442-37.52-48.95-46.267S19.7,65.957,49.19,107.833s52.544,38.518,65.264,34.657,59.875-43.471,59.875-43.471L155.637,80.376Z" transform="translate(19.869 30.33)" fill="#7a94f0"/>
            <path id="Trazado_874939" data-name="Trazado 874939" d="M160.725,135.466h60.036S232.6,93.231,239.59,74.538s31.915-17.31,25.683,23.54-19.451,63.75-30.465,65.134-74.083-6.283-74.083-6.283Z" transform="translate(89.873 35.215)" fill="#fff"/>
            <path id="Trazado_874940" data-name="Trazado 874940" d="M44.957,50.726S0,57.208,0,88.3,2.672,252.2,2.672,252.2s53.478,16.169,120.636-7.462C100.922,85.549,94.7,49.482,44.957,50.726" transform="translate(0 28.347)" fill="#8cacf7"/>
          </g>
        </g>
        <g id="Grupo_1100476" data-name="Grupo 1100476" transform="translate(0 79.044)">
          <g id="Grupo_1100475" data-name="Grupo 1100475" clip-path="url(#clip-path-18)">
            <path id="Trazado_874941" data-name="Trazado 874941" d="M70.029,134.765S37.312,81.2,24.81,71.067s-21.878,5.248-18,41.739c24.873,44.772,52.789,55.563,66,57.019,21.618,2.381,62.105-6.318,62.105-6.318l-13.064-36.843Z" transform="translate(3.313 -41.012)"/>
            <path id="Trazado_874942" data-name="Trazado 874942" d="M45.451,74.813s12.375,43.651,25.821,172.576" transform="translate(25.415 -37.21)" fill="none" stroke="#000" stroke-linecap="round" stroke-linejoin="round" stroke-width="1"/>
            <path id="Trazado_874943" data-name="Trazado 874943" d="M46.279,80.723a2.052,2.052,0,1,0-2.052,2.053,2.051,2.051,0,0,0,2.052-2.053" transform="translate(23.583 -35.052)"/>
            <path id="Trazado_874944" data-name="Trazado 874944" d="M55.594,137.93a2.052,2.052,0,1,0-2.052,2.052,2.051,2.051,0,0,0,2.052-2.052" transform="translate(28.792 -3.064)"/>
            <path id="Trazado_874945" data-name="Trazado 874945" d="M49.25,99.793a2.052,2.052,0,1,0-2.052,2.052,2.051,2.051,0,0,0,2.052-2.052" transform="translate(25.244 -24.39)"/>
            <path id="Trazado_874946" data-name="Trazado 874946" d="M58.182,157a2.052,2.052,0,1,0-2.052,2.052A2.051,2.051,0,0,0,58.182,157" transform="translate(30.239 7.598)"/>
            <path id="Trazado_874947" data-name="Trazado 874947" d="M60.338,176.068a2.052,2.052,0,1,0-2.053,2.052,2.052,2.052,0,0,0,2.053-2.052" transform="translate(31.445 18.261)"/>
          </g>
        </g>
        <g id="Grupo_1100478" data-name="Grupo 1100478">
          <g id="Grupo_1100477" data-name="Grupo 1100477" clip-path="url(#clip-path-3)">
            <line id="Línea_688" data-name="Línea 688" x1="3.812" y1="156.179" transform="translate(19.052 129.767)" fill="none" stroke="#000" stroke-linecap="round" stroke-linejoin="round" stroke-width="1"/>
            <path id="Trazado_874949" data-name="Trazado 874949" d="M82.755,128.391S37.5,75.769,25,65.638s-39.751,5.389-14.878,50.16,61.35,49.887,74.622,50.665c14,.82,91.683-12.221,84.248-13.152l-4.174-27.984Z" transform="translate(0 35.04)" fill="#7a94f0"/>
            <path id="Trazado_874950" data-name="Trazado 874950" d="M21.317,64.114s15.721,15.9,30.953,0c-.388-.231,3.555-27.028,3.555-27.028H26.718Z" transform="translate(11.92 20.738)" fill="#dca37c"/>
          </g>
        </g>
        <g id="Grupo_1100480" data-name="Grupo 1100480" transform="translate(33.235 57.825)">
          <g id="Grupo_1100479" data-name="Grupo 1100479" clip-path="url(#clip-path-20)">
            <path id="Trazado_874951" data-name="Trazado 874951" d="M47.94,6.91s27.131-1.271,31.7,27.31-2.189,41.9-18.824,41.918C43.554,76.159,30.2,63.394,23.23,46.923,16.243,30.41,28.191,10.086,47.94,6.91" transform="translate(-21.37 -53.966)"/>
          </g>
        </g>
        <g id="Grupo_1100482" data-name="Grupo 1100482">
          <g id="Grupo_1100481" data-name="Grupo 1100481" clip-path="url(#clip-path-3)">
            <path id="Trazado_874953" data-name="Trazado 874953" d="M41.167,1.57S68.3.3,72.863,28.881,70.674,70.779,54.039,70.8c-17.258.02-30.613-12.745-37.582-29.216C9.47,25.07,21.418,4.746,41.167,1.57" transform="translate(8.078 0.873)" fill="#dca37c"/>
          </g>
        </g>
        <g id="Grupo_1100484" data-name="Grupo 1100484" transform="translate(22.525 2.435)">
          <g id="Grupo_1100483" data-name="Grupo 1100483" clip-path="url(#clip-path-22)">
            <path id="Trazado_874954" data-name="Trazado 874954" d="M65.528,37a8.459,8.459,0,1,1-8.459-8.459A8.459,8.459,0,0,1,65.528,37" transform="translate(4.656 13.523)" fill="#d68c72"/>
            <path id="Trazado_874955" data-name="Trazado 874955" d="M44.512,37a8.459,8.459,0,1,1-8.459-8.459A8.459,8.459,0,0,1,44.512,37" transform="translate(-7.096 13.523)" fill="#d68c72"/>
            <path id="Trazado_874956" data-name="Trazado 874956" d="M23.757,29.4S26.7,28.919,28,33.265a1.986,1.986,0,0,0-2.124,2.607" transform="translate(-9.241 13.994)" fill="none" stroke="#000" stroke-linecap="round" stroke-linejoin="round" stroke-width="1"/>
            <path id="Trazado_874957" data-name="Trazado 874957" d="M52.261,27.706a3.571,3.571,0,0,0-5.072,0" transform="translate(3.862 12.442)" fill="none" stroke="#000" stroke-linecap="round" stroke-linejoin="round" stroke-width="1"/>
            <path id="Trazado_874958" data-name="Trazado 874958" d="M47.88,29.754c0-1.646.653-2.46,1.459-2.46s1.458.814,1.458,2.46-.653,2.463-1.458,2.463S47.88,31.4,47.88,29.754" transform="translate(4.248 12.827)"/>
            <path id="Trazado_874959" data-name="Trazado 874959" d="M41.683,27.706a3.571,3.571,0,0,0-5.072,0" transform="translate(-2.053 12.442)" fill="none" stroke="#000" stroke-linecap="round" stroke-linejoin="round" stroke-width="1"/>
            <path id="Trazado_874960" data-name="Trazado 874960" d="M37.3,29.754c0-1.646.653-2.46,1.459-2.46s1.458.814,1.458,2.46-.653,2.463-1.458,2.463S37.3,31.4,37.3,29.754" transform="translate(-1.667 12.827)"/>
            <path id="Trazado_874961" data-name="Trazado 874961" d="M47.959,37.47a7.822,7.822,0,0,1-7.748-1.943" transform="translate(-0.04 17.43)" fill="none" stroke="#000" stroke-linecap="round" stroke-linejoin="round" stroke-width="1"/>
            <path id="Trazado_874962" data-name="Trazado 874962" d="M44.16,28.538s.446,3.285,2.138,4.8.622,3.382-1.07,3.293" transform="translate(2.168 13.522)" fill="none" stroke="#000" stroke-linecap="round" stroke-linejoin="round" stroke-width="1"/>
            <path id="Trazado_874963" data-name="Trazado 874963" d="M47.189,24.831c0-.859,1.135-1.554,2.537-1.554s2.535.7,2.535,1.554-.547.828-1.949.828-3.123.033-3.123-.828" transform="translate(3.862 10.58)"/>
            <path id="Trazado_874964" data-name="Trazado 874964" d="M36.611,24.831c0-.859,1.135-1.554,2.537-1.554s2.535.7,2.535,1.554-.547.828-1.949.828-3.123.033-3.123-.828" transform="translate(-2.053 10.58)"/>
          </g>
        </g>
        <g id="Grupo_1100486" data-name="Grupo 1100486">
          <g id="Grupo_1100485" data-name="Grupo 1100485" clip-path="url(#clip-path-3)">
            <path id="Trazado_874966" data-name="Trazado 874966" d="M224.812,69.067s-14.681,11.256-25.6,18.065c-1.913-6.556-12.06-40.495-12.06-40.495l28.871-3.694Z" transform="translate(104.651 24.013)" fill="#ca7168"/>
          </g>
        </g>
        <g id="Grupo_1100488" data-name="Grupo 1100488" transform="translate(291.804 66.956)">
          <g id="Grupo_1100487" data-name="Grupo 1100487" clip-path="url(#clip-path-24)">
            <path id="Trazado_874967" data-name="Trazado 874967" d="M200.709,15.789S173.637,17.972,172.735,46.9s7.487,41.281,23.991,39.19c17.121-2.169,28.748-16.524,33.571-33.748,4.835-17.265-9.6-35.909-29.587-36.553" transform="translate(-195.252 -58.127)"/>
          </g>
        </g>
        <g id="Grupo_1100490" data-name="Grupo 1100490">
          <g id="Grupo_1100489" data-name="Grupo 1100489" clip-path="url(#clip-path-3)">
            <path id="Trazado_874969" data-name="Trazado 874969" d="M207.25,10.988s-21.365.764-26.416,21.139c-8.812,47.681,5.928,51.253,22.432,49.162,17.121-2.169,28.748-16.524,33.571-33.748,4.835-17.265-9.6-35.909-29.587-36.553" transform="translate(99.643 6.144)" fill="#ca7168"/>
          </g>
        </g>
        <g id="Grupo_1100492" data-name="Grupo 1100492" transform="translate(277.838 17.132)">
          <g id="Grupo_1100491" data-name="Grupo 1100491" clip-path="url(#clip-path-26)">
            <path id="Trazado_874970" data-name="Trazado 874970" d="M170.65,45.721a8.459,8.459,0,1,0,8.875-8.022,8.459,8.459,0,0,0-8.875,8.022" transform="translate(-182.421 3.942)" fill="#c45853"/>
            <path id="Trazado_874971" data-name="Trazado 874971" d="M191.64,46.781a8.459,8.459,0,1,0,8.875-8.022,8.459,8.459,0,0,0-8.875,8.022" transform="translate(-170.684 4.535)" fill="#c45853"/>
            <path id="Trazado_874972" data-name="Trazado 874972" d="M208.125,40.085s-2.914-.624-4.434,3.648a1.985,1.985,0,0,1,1.988,2.711" transform="translate(-163.939 5.265)" fill="none" stroke="#000" stroke-linecap="round" stroke-linejoin="round" stroke-width="1"/>
            <path id="Trazado_874973" data-name="Trazado 874973" d="M179.988,37a3.571,3.571,0,0,1,5.066.256" transform="translate(-177.193 3.014)" fill="none" stroke="#000" stroke-linecap="round" stroke-linejoin="round" stroke-width="1"/>
            <path id="Trazado_874974" data-name="Trazado 874974" d="M183.516,39.248c.083-1.645-.529-2.492-1.333-2.532s-1.5.739-1.581,2.386.529,2.492,1.333,2.532,1.5-.741,1.581-2.386" transform="translate(-176.854 3.397)"/>
            <path id="Trazado_874975" data-name="Trazado 874975" d="M190.552,37.533a3.571,3.571,0,0,1,5.066.256" transform="translate(-171.286 3.313)" fill="none" stroke="#000" stroke-linecap="round" stroke-linejoin="round" stroke-width="1"/>
            <path id="Trazado_874976" data-name="Trazado 874976" d="M194.081,39.782c.081-1.645-.53-2.492-1.335-2.532s-1.5.739-1.581,2.386.529,2.492,1.333,2.532,1.5-.741,1.583-2.386" transform="translate(-170.947 3.696)"/>
            <path id="Trazado_874977" data-name="Trazado 874977" d="M184.766,46.922a7.82,7.82,0,0,0,7.835-1.55" transform="translate(-174.521 8.239)" fill="none" stroke="#000" stroke-linecap="round" stroke-linejoin="round" stroke-width="1"/>
            <path id="Trazado_874978" data-name="Trazado 874978" d="M187.389,38.193s-.61,3.257-2.376,4.684-.794,3.348.9,3.344" transform="translate(-174.908 4.224)" fill="none" stroke="#000" stroke-linecap="round" stroke-linejoin="round" stroke-width="1"/>
            <path id="Trazado_874979" data-name="Trazado 874979" d="M185.208,34.387c.044-.858-1.056-1.609-2.454-1.681s-2.568.568-2.612,1.425.507.853,1.905.923,3.117.19,3.16-.667" transform="translate(-177.108 1.153)"/>
            <path id="Trazado_874980" data-name="Trazado 874980" d="M195.772,34.92c.044-.858-1.056-1.609-2.454-1.681s-2.568.568-2.612,1.425.505.853,1.905.923,3.117.19,3.16-.667" transform="translate(-171.201 1.451)"/>
          </g>
        </g>
        <g id="Grupo_1100494" data-name="Grupo 1100494">
          <g id="Grupo_1100493" data-name="Grupo 1100493" clip-path="url(#clip-path-3)">
            <path id="Trazado_874982" data-name="Trazado 874982" d="M244.641,35.3c-6.4-17.549-24.5-28.432-42.821-24.8a34.812,34.812,0,0,0-6.863,2.091C183.72,17.368,179.546,25.1,177.995,30.183a5.368,5.368,0,0,0,3.85,6.776c5.137,1.293,14.929,2.635,31.715,1.23C215.1,68,205.307,76.976,205.307,76.976s20.748,8.5,38.106-4.5c9.466-7.09,6.177-23.614,1.229-37.175" transform="translate(99.398 5.48)"/>
            <path id="Trazado_874983" data-name="Trazado 874983" d="M65.484,5.185c-17.62-11.667-36.946,0-36.946,0C1.7,11.8,11.038,43.3,30.512,65.172a27.038,27.038,0,0,0,4.041-7.458,8.421,8.421,0,0,1-1.095.109,8.279,8.279,0,1,1,4.575-15.175,128.579,128.579,0,0,0,1.006-18.018s15.826.388,22.048-.39,22.017-7.389,4.4-19.056" transform="translate(6.657 0)"/>
            <path id="Trazado_874984" data-name="Trazado 874984" d="M194.888,80.581l22.956-25.924,7.684,8.728-14.466,17.2-9.4-1.514Z" transform="translate(108.976 30.563)" fill="#fff"/>
          </g>
        </g>
        <g id="Grupo_1100496" data-name="Grupo 1100496" transform="translate(303.864 85.221)">
          <g id="Grupo_1100495" data-name="Grupo 1100495" clip-path="url(#clip-path-28)">
            <path id="Trazado_874985" data-name="Trazado 874985" d="M205.932,69.282l-6.7,1.608,9.4,1.514Z" transform="translate(-192.461 -46.48)"/>
          </g>
        </g>
        <g id="Grupo_1100498" data-name="Grupo 1100498">
          <g id="Grupo_1100497" data-name="Grupo 1100497" clip-path="url(#clip-path-3)">
            <path id="Trazado_874987" data-name="Trazado 874987" d="M198.732,78.177l-5.708-19.221-5.011,7.33Z" transform="translate(105.132 32.967)" fill="#fff"/>
            <path id="Trazado_874988" data-name="Trazado 874988" d="M25.366,52.667,15.757,57.74,65.091,98.524,56.277,49.145,50.264,61.57Z" transform="translate(8.811 27.48)" fill="#d9e5f8"/>
            <path id="Trazado_874989" data-name="Trazado 874989" d="M15.757,55.693,34.3,89.636l31.58,10.6L71.4,75.558,57.538,52.805l6.351,41.783Z" transform="translate(8.811 29.527)" fill="#7a94f0"/>
            <path id="Trazado_874990" data-name="Trazado 874990" d="M23.2,60.81,46.766,71.652l5.192-11.939-36.2-5.056Z" transform="translate(8.811 30.563)"/>
            <path id="Trazado_874991" data-name="Trazado 874991" d="M51.256,56.159,45.714,68.2l-7.825-6.561,5.137-10.436Z" transform="translate(21.186 28.634)"/>
            <path id="Trazado_874992" data-name="Trazado 874992" d="M24.425,48.02,52.843,62.2,46.767,73.743,15.758,58.368Z" transform="translate(8.811 26.852)" fill="#fff"/>
            <path id="Trazado_874993" data-name="Trazado 874993" d="M44.137,48.02,37.888,62.2l7.824,5.664,5.544-12.6Z" transform="translate(21.186 26.852)" fill="#fff"/>
            <line id="Línea_689" data-name="Línea 689" x2="18.646" y2="21.794" transform="translate(166.884 114.701)" fill="none" stroke="#000" stroke-linecap="round" stroke-linejoin="round" stroke-width="1"/>
            <path id="Trazado_874994" data-name="Trazado 874994" d="M108.057,119.216a2.171,2.171,0,1,1-2.17-2.17,2.17,2.17,0,0,1,2.17,2.17" transform="translate(57.995 65.449)"/>
            <path id="Trazado_874995" data-name="Trazado 874995" d="M121.392,82.809a2.171,2.171,0,1,1-2.825-1.2,2.172,2.172,0,0,1,2.825,1.2" transform="translate(65.539 45.544)"/>
            <line id="Línea_690" data-name="Línea 690" y1="231.356" x2="2.395" transform="translate(18.563 289.222)" fill="none" stroke="#000" stroke-linecap="round" stroke-linejoin="round" stroke-width="1"/>
            <path id="Trazado_874996" data-name="Trazado 874996" d="M75.709,396.675l8.8-119.015L49.977,200.89" transform="translate(27.946 112.332)" fill="none" stroke="#000" stroke-linecap="round" stroke-linejoin="round" stroke-width="1"/>
            <path id="Trazado_874997" data-name="Trazado 874997" d="M43.989,203.429l3.343,8.357,17.8-16.039Z" transform="translate(24.598 109.456)"/>
            <path id="Trazado_874998" data-name="Trazado 874998" d="M208.663,124.308s-2.08-11.786-8.483-14.022a14.94,14.94,0,0,1,.432,12.07" transform="translate(111.935 61.669)" fill="none" stroke="#000" stroke-linecap="round" stroke-linejoin="round" stroke-width="1"/>
            <path id="Trazado_874999" data-name="Trazado 874999" d="M47.924,120.084S50,108.3,56.406,106.062a14.94,14.94,0,0,0-.432,12.07" transform="translate(26.798 59.307)" fill="none" stroke="#000" stroke-linecap="round" stroke-linejoin="round" stroke-width="1"/>
            <line id="Línea_691" data-name="Línea 691" x2="4.14" y2="30.371" transform="translate(156.062 160.694)" fill="none" stroke="#000" stroke-linecap="round" stroke-linejoin="round" stroke-width="1"/>
          </g>
        </g>
      </g>
    </g>
    <g id="Grupo_1100505" data-name="Grupo 1100505" transform="translate(1255.552 2684.108)">
      <path id="Trazado_873607" data-name="Trazado 873607" d="M116.81,76.075a40.734,40.734,0,0,0-81.467,0H0a76.076,76.076,0,0,1,152.152,0Z" fill="#fdb641"/>
      <path id="Trazado_873610" data-name="Trazado 873610" d="M31.388,0A36.217,36.217,0,0,0,67.563,36.175V67.563A67.639,67.639,0,0,1,0,0Z" transform="translate(12.734 8.009)" fill="#201144"/>
    </g>
  </g>
</svg>
