<svg xmlns="http://www.w3.org/2000/svg" width="96.762" height="96.762" viewBox="0 0 96.762 96.762">
  <g id="_76" data-name="76" transform="translate(-332.359 -3875)">
    <g id="Grupo_1099174" data-name="Grupo 1099174" transform="translate(332.359 3875)">
      <g id="Grupo_1099167" data-name="Grupo 1099167" transform="translate(0 0)">
        <path id="Trazado_873000" data-name="Trazado 873000" d="M48.381,0h0V22.476a25.9,25.9,0,1,0,25.905,25.9H96.762A48.381,48.381,0,1,1,48.381,0" transform="translate(0 96.762) rotate(-90)" fill="#201144"/>
      </g>
      <rect id="Rectángulo_401249" data-name="Rectángulo 401249" width="66.409" height="66.409" rx="33.204" transform="translate(15.157 15.157)" fill="#e8faf9"/>
    </g>
    <g id="calendario" transform="translate(355.359 3898)">
      <g id="Grupo_1100514" data-name="Grupo 1100514" transform="translate(1 1)">
        <path id="Trazado_875024" data-name="Trazado 875024" d="M49.714,46.5a2.354,2.354,0,0,0-1.571-2.213V41H46.571v3.288a2.352,2.352,0,0,0,.786,4.57,2.319,2.319,0,0,0,1.01-.237l2.364,2.364,1.111-1.111L49.478,47.51A2.319,2.319,0,0,0,49.714,46.5Zm-3.143,0a.786.786,0,1,1,.786.786A.786.786,0,0,1,46.571,46.5Z" transform="translate(-10.427 -9.57)" fill="#201144"/>
        <circle id="Elipse_11556" data-name="Elipse 11556" cx="1" cy="1" r="1" transform="translate(36 28)" fill="#201144"/>
        <path id="Trazado_875025" data-name="Trazado 875025" d="M40.23,40.23a.786.786,0,1,0,1.111,0A.785.785,0,0,0,40.23,40.23Z" transform="translate(-9.356 -9.356)" fill="#201144"/>
        <circle id="Elipse_11557" data-name="Elipse 11557" cx="1" cy="1" r="1" transform="translate(28 36)" fill="#201144"/>
        <path id="Trazado_875026" data-name="Trazado 875026" d="M40.23,54.23a.786.786,0,1,0,1.111,0A.785.785,0,0,0,40.23,54.23Z" transform="translate(-9.356 -12.355)" fill="#201144"/>
        <circle id="Elipse_11558" data-name="Elipse 11558" cx="1" cy="1" r="1" transform="translate(36 44)" fill="#201144"/>
        <path id="Trazado_875027" data-name="Trazado 875027" d="M54.23,54.23a.786.786,0,1,0,1.111,0A.785.785,0,0,0,54.23,54.23Z" transform="translate(-12.355 -12.355)" fill="#201144"/>
        <circle id="Elipse_11559" data-name="Elipse 11559" cx="1" cy="1" r="1" transform="translate(44 36)" fill="#201144"/>
        <path id="Trazado_875028" data-name="Trazado 875028" d="M54.23,40.23a.786.786,0,1,0,1.111,0A.785.785,0,0,0,54.23,40.23Z" transform="translate(-12.355 -9.356)" fill="#201144"/>
        <path id="Trazado_875029" data-name="Trazado 875029" d="M48.43,9.714V5H17V9.714ZM18.571,6.571H46.858V8.143H18.571Z" transform="translate(-4.428 -1.857)" fill="#201144"/>
        <path id="Trazado_875030" data-name="Trazado 875030" d="M48.145,32.075V3.357A2.36,2.36,0,0,0,45.787,1H12.444L1,13.261v23.1a2.36,2.36,0,0,0,2.357,2.357H26.184a11.779,11.779,0,1,0,21.961-6.641ZM46.573,3.357V29.944A11.876,11.876,0,0,0,45,28.523V10.429H11.2l2.183-7.857h32.4A.787.787,0,0,1,46.573,3.357ZM43.43,18.286H37.144V12H43.43Zm-7.857,0H29.287V12h6.286Zm0,7.857H29.287V19.858h6.286ZM5.714,19.858H12v6.286H5.714Zm7.857,0h6.286v6.286H13.572Zm7.857,0h6.286v6.286H21.429Zm6.286-1.571H21.429V12h6.286Zm-7.857,0H13.572V12h6.286Zm-7.857,0H5.714V12.931a2.354,2.354,0,0,1,1.571,2.213v1.571H9.455L10.764,12H12ZM8.628,13.819a3.933,3.933,0,0,0-3.577-2.6l6.119-6.555Zm-2.914,13.9H12V34H5.714Zm7.857,0h6.286V34H13.572Zm7.857,0h6.286v4.359A11.7,11.7,0,0,0,26.831,34h-5.4Zm7.857,0h2.788a11.848,11.848,0,0,0-2.788,2.228Zm7.857-7.857H43.43v7.656a11.707,11.707,0,0,0-5.5-1.37c-.266,0-.525.023-.786.04ZM2.571,36.359V15.143a2.354,2.354,0,0,1,1.571-2.213V35.573H26.381a11.749,11.749,0,0,0-.2,1.571H3.357a.786.786,0,0,1-.786-.786ZM37.93,48.145A10.215,10.215,0,1,1,48.145,37.93,10.226,10.226,0,0,1,37.93,48.145Z" transform="translate(-1 -1)" fill="#201144"/>
        <path id="Trazado_875031" data-name="Trazado 875031" d="M53.119,27.4l-1.111-1.111L49.42,28.88,48.4,27.864l-1.111,1.111L49.42,31.1Z" transform="translate(-10.919 -6.419)" fill="#201144"/>
        <path id="Trazado_875032" data-name="Trazado 875032" d="M19.42,21.1l3.7-3.7-1.111-1.111L19.42,18.88,18.4,17.864l-1.111,1.111Z" transform="translate(-4.491 -4.277)" fill="#201144"/>
        <path id="Trazado_875033" data-name="Trazado 875033" d="M33.119,37.4l-1.111-1.111L29.42,38.88,28.4,37.864l-1.111,1.111L29.42,41.1Z" transform="translate(-6.633 -8.562)" fill="#201144"/>
      </g>
    </g>
  </g>
</svg>
