<svg xmlns="http://www.w3.org/2000/svg" width="96.762" height="96.762" viewBox="0 0 96.762 96.762">
  <g id="_77" data-name="77" transform="translate(-753.359 -3875)">
    <g id="Grupo_1099174" data-name="Grupo 1099174" transform="translate(753.359 3875)">
      <g id="Grupo_1099167" data-name="Grupo 1099167" transform="translate(0 0)">
        <path id="Trazado_873000" data-name="Trazado 873000" d="M48.381,0h0V22.476a25.9,25.9,0,1,0,25.905,25.9H96.762A48.381,48.381,0,1,1,48.381,0" transform="translate(0 96.762) rotate(-90)" fill="#201144"/>
      </g>
      <rect id="Rectángulo_401249" data-name="Rectángulo 401249" width="66.409" height="66.409" rx="33.204" transform="translate(15.157 15.157)" fill="#e8faf9"/>
    </g>
    <g id="servicios-de-consultoria" transform="translate(779.359 3900)">
      <path id="Trazado_875034" data-name="Trazado 875034" d="M39.268,32.536a4.164,4.164,0,1,0-5.122,0,7.086,7.086,0,0,0-2.6,1.791l-.4-3.748a.694.694,0,0,0-.694-.618H29.76V27.879a6.94,6.94,0,0,0-4.372-6.44,4.164,4.164,0,1,0-5.136,0,6.94,6.94,0,0,0-4.372,6.44v2.082h-.694a.694.694,0,0,0-.694.625l-.375,3.775A6.8,6.8,0,0,0,11.5,32.543a4.164,4.164,0,1,0-5.129,0A6.94,6.94,0,0,0,2,38.983v7.634a.694.694,0,0,0,.694.694H42.947a.694.694,0,0,0,.694-.694V38.983a6.94,6.94,0,0,0-4.372-6.447Zm-5.344-3.269A2.776,2.776,0,1,1,36.7,32.043,2.776,2.776,0,0,1,33.924,29.267Zm-13.88-11.1a2.776,2.776,0,1,1,2.776,2.776A2.776,2.776,0,0,1,20.044,18.163Zm-2.776,9.716a5.552,5.552,0,0,1,11.1,0v2.082H27.165l.514-3.366a.694.694,0,0,0-.694-.8H18.656a.694.694,0,0,0-.694.8l.514,3.366H17.268Zm8.911-.694-.625,4.164H20.086l-.625-4.164Zm-7.523,4.164.118.8a.694.694,0,0,0,.694.59h6.663a.694.694,0,0,0,.694-.59l.16-.8H29.83l.534,5.018.243,2.776L27.422,40.42a.694.694,0,0,0-.437.645v2.082a.694.694,0,0,0,.694.694h.1l3.192-.493.222,2.575H14.444l.222-2.582,3.192.493h.1a.694.694,0,0,0,.694-.687V41.065a.694.694,0,0,0-.437-.645L15.04,39.15l.777-7.8ZM6.164,29.267A2.776,2.776,0,1,1,8.94,32.043,2.776,2.776,0,0,1,6.164,29.267ZM3.388,38.983a5.552,5.552,0,0,1,10.521-2.477L13.7,38.588l-1.985-.77v-1.61H10.328v2.082a.694.694,0,0,0,.437.645l6.5,2.6v.8L9.4,41.128,8.17,38.671,6.934,39.3l1.388,2.776a.694.694,0,0,0,.514.375l4.456.694-.243,2.776H3.388Zm38.865,6.94H32.592l-.243-2.776,4.456-.694a.694.694,0,0,0,.514-.375L38.706,39.3l-1.235-.625-1.228,2.457-7.87,1.2v-.8l6.5-2.6a.694.694,0,0,0,.437-.645V36.207H33.924v1.61l-1.971.791-.187-2.151a5.546,5.546,0,0,1,10.486,2.526Z" transform="translate(0 -3.671)" fill="#201144"/>
      <path id="Trazado_875035" data-name="Trazado 875035" d="M2.694,17.268H6.511l1.874,2.5a.694.694,0,0,0,1.11,0l1.874-2.5h3.817a.694.694,0,0,0,.694-.694V2.694A.694.694,0,0,0,15.186,2H2.694A.694.694,0,0,0,2,2.694v13.88A.694.694,0,0,0,2.694,17.268Zm.694-13.88h11.1V15.88h-3.47a.694.694,0,0,0-.555.278L8.94,18.191,7.413,16.158a.694.694,0,0,0-.555-.278H3.388Z" transform="translate(0)" fill="#201144"/>
      <path id="Trazado_875036" data-name="Trazado 875036" d="M6,18h8.328v1.388H6Z" transform="translate(-1.224 -4.896)" fill="#201144"/>
      <path id="Trazado_875037" data-name="Trazado 875037" d="M6,14h8.328v1.388H6Z" transform="translate(-1.224 -3.672)" fill="#201144"/>
      <path id="Trazado_875038" data-name="Trazado 875038" d="M6,10h8.328v1.388H6Z" transform="translate(-1.224 -2.448)" fill="#201144"/>
      <path id="Trazado_875039" data-name="Trazado 875039" d="M16,6h1.388V7.388H16Z" transform="translate(-4.284 -1.224)" fill="#201144"/>
      <path id="Trazado_875040" data-name="Trazado 875040" d="M10,6h2.776V7.388H10Z" transform="translate(-2.448 -1.224)" fill="#201144"/>
      <path id="Trazado_875041" data-name="Trazado 875041" d="M6,6H7.388V7.388H6Z" transform="translate(-1.224 -1.224)" fill="#201144"/>
      <path id="Trazado_875042" data-name="Trazado 875042" d="M55.186,2H42.694A.694.694,0,0,0,42,2.694v13.88a.694.694,0,0,0,.694.694h3.817l1.874,2.5a.694.694,0,0,0,1.11,0l1.874-2.5h3.817a.694.694,0,0,0,.694-.694V2.694A.694.694,0,0,0,55.186,2Zm-.694,13.88h-3.47a.694.694,0,0,0-.555.278L48.94,18.191l-1.527-2.033a.694.694,0,0,0-.555-.278h-3.47V3.388h11.1Z" transform="translate(-12.24)" fill="#201144"/>
      <path id="Trazado_875043" data-name="Trazado 875043" d="M46,6h8.328V7.388H46Z" transform="translate(-13.464 -1.224)" fill="#201144"/>
      <path id="Trazado_875044" data-name="Trazado 875044" d="M46,10h8.328v1.388H46Z" transform="translate(-13.464 -2.448)" fill="#201144"/>
      <path id="Trazado_875045" data-name="Trazado 875045" d="M46,14h8.328v1.388H46Z" transform="translate(-13.464 -3.672)" fill="#201144"/>
      <path id="Trazado_875046" data-name="Trazado 875046" d="M46,18h1.388v1.388H46Z" transform="translate(-13.464 -4.896)" fill="#201144"/>
      <path id="Trazado_875047" data-name="Trazado 875047" d="M50,18h2.776v1.388H50Z" transform="translate(-14.688 -4.896)" fill="#201144"/>
      <path id="Trazado_875048" data-name="Trazado 875048" d="M56,18h1.388v1.388H56Z" transform="translate(-16.523 -4.896)" fill="#201144"/>
    </g>
  </g>
</svg>
