<svg xmlns="http://www.w3.org/2000/svg" width="96.762" height="96.762" viewBox="0 0 96.762 96.762">
  <g id="_78" data-name="78" transform="translate(-1173.359 -3875)">
    <g id="Grupo_1099174" data-name="Grupo 1099174" transform="translate(1173.359 3875)">
      <g id="Grupo_1099167" data-name="Grupo 1099167" transform="translate(0 0)">
        <path id="Trazado_873000" data-name="Trazado 873000" d="M48.381,0h0V22.476a25.9,25.9,0,1,0,25.905,25.9H96.762A48.381,48.381,0,1,1,48.381,0" transform="translate(0 96.762) rotate(-90)" fill="#201144"/>
      </g>
      <rect id="Rectángulo_401249" data-name="Rectángulo 401249" width="66.409" height="66.409" rx="33.204" transform="translate(15.157 15.157)" fill="#e8faf9"/>
    </g>
    <g id="analisis-de-los-datos" transform="translate(1200.359 3901)">
      <path id="Trazado_875049" data-name="Trazado 875049" d="M41.142,30.936a2.041,2.041,0,0,0,2.041-2.041V3.041A2.041,2.041,0,0,0,41.142,1H3.041A2.041,2.041,0,0,0,1,3.041V28.895a2.041,2.041,0,0,0,2.041,2.041H15.016a11.618,11.618,0,0,0,5.563,4.63l-2.17,2.174h-2.44V35.7a2.041,2.041,0,0,0-2.041-2.041H5.763A2.041,2.041,0,0,0,3.721,35.7v5.443a2.041,2.041,0,0,0,2.041,2.041h8.164a2.041,2.041,0,0,0,2.041-2.041V39.1h2.721a.68.68,0,0,0,.481-.2l2.872-2.872a11.371,11.371,0,0,0,8.886-1.419L32.7,36.379l-.2.2a.68.68,0,0,0,0,.962l4.6,4.6a3.567,3.567,0,0,0,5.044-5.044l-4.6-4.6a.68.68,0,0,0-.962,0l-.2.2L34.62,30.936ZM14.607,41.142a.68.68,0,0,1-.68.68H5.763a.68.68,0,0,1-.68-.68V35.7a.68.68,0,0,1,.68-.68h8.164a.68.68,0,0,1,.68.68ZM3.041,29.575a.68.68,0,0,1-.68-.68V3.041a.68.68,0,0,1,.68-.68h38.1a.68.68,0,0,1,.68.68V28.895a.68.68,0,0,1-.68.68h-5.8A11.523,11.523,0,0,0,29.524,14.26l3.453-3.453v1.759h1.361v-3.4a.68.68,0,0,0-.68-.68h-3.4V9.845h1.759l-3.891,3.891a11.506,11.506,0,0,0-2.922-.469L21.988,8.123a.68.68,0,0,0-.577-.32H18.689V5.763a2.041,2.041,0,0,0-2.041-2.041H8.484A2.041,2.041,0,0,0,6.443,5.763v5.443a2.041,2.041,0,0,0,2.041,2.041h8.164a2.041,2.041,0,0,0,2.041-2.041V9.164h2.345l2.589,4.143a11.546,11.546,0,0,0-7.557,3.958l-.953-1.07a.68.68,0,0,0-.5-.228h0a.68.68,0,0,0-.5.22L6.622,24.353l1,.92L14.6,17.663l.618.7a11.414,11.414,0,0,0-1.781,8.494H5.082V8.484H3.721v19.05a.68.68,0,0,0,.68.68h9.357a11.362,11.362,0,0,0,.526,1.361ZM17.329,5.763v5.443a.68.68,0,0,1-.68.68H8.484a.68.68,0,0,1-.68-.68V5.763a.68.68,0,0,1,.68-.68h8.164A.68.68,0,0,1,17.329,5.763Zm-2.721,19.05A10.205,10.205,0,1,1,24.813,35.018,10.205,10.205,0,0,1,14.607,24.813ZM41.176,38.055a2.206,2.206,0,1,1-3.12,3.12l-4.116-4.116,3.12-3.12Zm-7.518-2.638-1.6-1.6a11.627,11.627,0,0,0,1.759-1.759l1.6,1.6Z" fill="#201144"/>
      <path id="Trazado_875050" data-name="Trazado 875050" d="M31.845,23a8.845,8.845,0,1,0,8.845,8.845A8.845,8.845,0,0,0,31.845,23Zm-.3,1.376-4.437,4.437-1.265-1.423a7.468,7.468,0,0,1,5.7-3.013Zm.3,14.953a7.484,7.484,0,0,1-6.658-4.082h8.019V33.886H24.651a7.368,7.368,0,0,1,.457-5.279l1.466,1.649a.68.68,0,0,0,.489.228h.02a.68.68,0,0,0,.481-.2l5.774-5.774a7.484,7.484,0,0,1-1.492,14.818Z" transform="translate(-7.032 -7.032)" fill="#201144"/>
      <path id="Trazado_875051" data-name="Trazado 875051" d="M13,9h6.8v1.361H13Z" transform="translate(-3.836 -2.557)" fill="#201144"/>
      <path id="Trazado_875052" data-name="Trazado 875052" d="M13,13h6.8v1.361H13Z" transform="translate(-3.836 -3.836)" fill="#201144"/>
      <path id="Trazado_875053" data-name="Trazado 875053" d="M9,53h6.8v1.361H9Z" transform="translate(-2.557 -16.621)" fill="#201144"/>
      <path id="Trazado_875054" data-name="Trazado 875054" d="M9,57h6.8v1.361H9Z" transform="translate(-2.557 -17.9)" fill="#201144"/>
    </g>
  </g>
</svg>
