<svg xmlns="http://www.w3.org/2000/svg" xmlns:xlink="http://www.w3.org/1999/xlink" width="504.594" height="210.055" viewBox="0 0 504.594 210.055">
  <defs>
    <clipPath id="clip-path">
      <rect id="Rectángulo_401762" data-name="Rectángulo 401762" width="504.594" height="210.055" rx="16" transform="translate(180.406 408)" fill="#22cac5"/>
    </clipPath>
    <clipPath id="clip-path-2">
      <rect id="Rectángulo_401761" data-name="Rectángulo 401761" width="351.587" height="382.871" fill="none"/>
    </clipPath>
  </defs>
  <g id="_87" data-name="87" transform="translate(-180.406 -408)">
    <g id="Grupo_1100129" data-name="Grupo 1100129" transform="translate(180.406 408)">
      <g id="Grupo_1099912" data-name="Grupo 1099912">
        <rect id="Rectángulo_401339" data-name="Rectángulo 401339" width="504.594" height="93.055" rx="16" transform="translate(0 102)" fill="#22cac5"/>
        <path id="Trazado_873608" data-name="Trazado 873608" d="M29.253,0A33.754,33.754,0,0,0,62.969,33.715,33.754,33.754,0,0,0,96.685,0h29.253a63.04,63.04,0,0,1-62.97,62.969A63.04,63.04,0,0,1,0,0Z" transform="translate(368.128)" fill="#fdb641"/>
        <path id="Trazado_873609" data-name="Trazado 873609" d="M17.251,0h0V8.014a9.237,9.237,0,1,0,9.237,9.237H34.5A17.251,17.251,0,1,1,17.251,0" transform="translate(22.509 67.369) rotate(-90)" fill="#201144"/>
        <g id="Grupo_1099864" data-name="Grupo 1099864" transform="translate(12.296 145.055)">
          <path id="Trazado_873607" data-name="Trazado 873607" d="M29.951,64.471a34.52,34.52,0,0,1,69.041,0h29.951A64.472,64.472,0,0,0,0,64.471Z" fill="#fdb641"/>
          <path id="Trazado_873610" data-name="Trazado 873610" d="M30.657,0A30.692,30.692,0,0,1,0,30.657v26.6A57.322,57.322,0,0,0,57.257,0Z" transform="translate(60.894 6.787)" fill="#201144"/>
        </g>
        <path id="Trazado_873611" data-name="Trazado 873611" d="M34.305,64.07A34.344,34.344,0,0,0,0,29.765V0A64.143,64.143,0,0,1,64.07,64.07Z" transform="translate(355.572 141.194)" fill="#fff"/>
      </g>
    </g>
    <g id="Enmascarar_grupo_1098696" data-name="Enmascarar grupo 1098696" clip-path="url(#clip-path)">
      <g id="Grupo_1100520" data-name="Grupo 1100520" transform="translate(256.91 399.231)">
        <g id="Grupo_1100519" data-name="Grupo 1100519" clip-path="url(#clip-path-2)">
          <path id="Trazado_875055" data-name="Trazado 875055" d="M8.528,41.807H58.044a8.528,8.528,0,0,1,8.528,8.528V84.618a8.528,8.528,0,0,1-8.528,8.529H52.08c1.574,4.475,3.382,10.569,1.845,11.255-1.739.776-9.723-6.765-14.257-11.255H8.528A8.528,8.528,0,0,1,0,84.618V50.335a8.528,8.528,0,0,1,8.528-8.528" fill="#ff9400"/>
          <path id="Trazado_875056" data-name="Trazado 875056" d="M21.941,57.111a3.959,3.959,0,0,1-1.224-6c1.888-2.271,5.208-4.58,10.815-4.357,7.159.286,13.369,5.218,13.1,11.947-.187,4.678-3.785,7.4-8.445,9.177-1.651.651-1.752,1.986-1.815,3.561A2.675,2.675,0,0,1,31.594,74l-2.53-.1A2.675,2.675,0,0,1,26.5,71.121l.1-2.53c.083-2.1.248-3.814,2.45-5.113,2.986-1.745,5.712-1.78,5.847-5.168a3.8,3.8,0,0,0-3.71-4.068,5.253,5.253,0,0,0-4.336,1.919,3.99,3.99,0,0,1-4.909.95M35.469,82.33a5.469,5.469,0,1,1-5.27-5.708,5.453,5.453,0,0,1,5.27,5.708" fill="#fff"/>
          <path id="Trazado_875057" data-name="Trazado 875057" d="M119.725,337.744l3.789,14.952,5.053,1.127,8.841-1.127-3.243-14.952Z" fill="#ffa78c"/>
          <path id="Trazado_875058" data-name="Trazado 875058" d="M122.593,352s.728,9.9,1.229,11.446,1.475,1.385,1.475,1.385a89.457,89.457,0,0,0,9.215,2.219c3.706.579,8.213,1.544,12.62,1.351s6.11-.772,6.11-2.219-.5-4.245-5.909-7.525-8.514-5.4-8.514-5.4a6.036,6.036,0,0,0-2.9-2.412c-1.9-.675-6.343,2.026-7.478,2.316s-4.541-2.219-5.843-1.158" fill="#00557f"/>
          <path id="Trazado_875059" data-name="Trazado 875059" d="M67.7,339.61v11.626l7.84,2.224,5.078-2.224V339.61Z" fill="#ffa78c"/>
          <path id="Trazado_875060" data-name="Trazado 875060" d="M66.4,351.236a69.148,69.148,0,0,1-9.329,7.177c-5.742,3.731-5.885,4.592-5.6,6.889s14.209,1.579,19.52.718,7.463-1.292,7.463-1.292l3.589-1.148-1.436-13.2a28.828,28.828,0,0,1-4.754,1.256c-1.453.107-4.736-2.476-6.889-3.014s-2.6,1.9-2.566,2.619" fill="#00557f"/>
          <path id="Trazado_875061" data-name="Trazado 875061" d="M172.795,95.431c-1.1.19-2.707,2.277-3.56,3.493l-.515-.079c1.258-1.932,4.195-5.129,2.2-4.651-1.786.427-3.488,3.224-4.115,4.361l-.641-.1c1.225-2.078,4.578-5.825,2.426-5.288-1.992.5-3.884,3.948-4.413,4.985l-.367-.056c1.164-2.038,2.8-4.524,1.176-3.955-1.8.63-3.262,3.96-3.683,5.008-.959.992-2.064,2.2-2.783,3-.625-2.474-2.229-5.514-3-5.32-.861.216.107,3.122.269,5.113a12.669,12.669,0,0,0,1.11,3.746c-2.5,5-10.147,17-14.14,25.832l-10.975-11.44-16.073,9.473s17.841,23.4,24.9,22.319c15.706-2.4,23.594-35.839,25.274-43.9l4.967-8.453s3.506-4.355,1.945-4.087" fill="#ffa78c"/>
          <path id="Trazado_875062" data-name="Trazado 875062" d="M94.13,100.423l-5.958,5.807-10.41-3.867a26.4,26.4,0,0,0,.081-4.944c-.071-.974-.17-1.879-.281-2.662-.251-1.778-.542-2.954-.542-2.954l15.622-.743a10.489,10.489,0,0,0-.1,2.04,16.472,16.472,0,0,0,.261,2.341,30.044,30.044,0,0,0,1.327,4.982" fill="#ffa78c"/>
          <path id="Trazado_875063" data-name="Trazado 875063" d="M92.8,95.44c-1.758,1.547-4.893,4.049-7.013,4.19s-5.827-1.3-7.947-2.211c-.07-.974-.171-1.878-.281-2.662a13.482,13.482,0,0,0,8.007,1.286A18.916,18.916,0,0,0,92.542,93.1,16.44,16.44,0,0,0,92.8,95.44" fill="#d88471"/>
          <path id="Trazado_875064" data-name="Trazado 875064" d="M63.638,66s2.29,15.369,3.963,20.609,10.987,9.674,17.468,9.763c5.509.076,13.335-7.922,14.586-12.451s-.478-24.744-.478-24.744S75.094,39.542,63.638,66" fill="#ffa78c"/>
          <path id="Trazado_875065" data-name="Trazado 875065" d="M77.441,74.793c.134,1.034-.232,1.934-.819,2.011s-1.171-.7-1.305-1.735.232-1.935.819-2.011,1.171.7,1.305,1.735" fill="#00557f"/>
          <path id="Trazado_875066" data-name="Trazado 875066" d="M90.785,72.99c.1,1.038-.3,1.925-.891,1.98s-1.145-.743-1.242-1.781.3-1.925.891-1.98,1.145.743,1.242,1.781" fill="#00557f"/>
          <path id="Trazado_875067" data-name="Trazado 875067" d="M66.579,75.278S62.83,71.7,60.7,73.063s-1.023,6.646,1.874,9.372S67.687,83.8,67.687,83.8Z" fill="#ffa78c"/>
          <path id="Trazado_875068" data-name="Trazado 875068" d="M98.619,71.017s2.84-4.336,5.223-3.491,2.5,6.241.3,9.553-4.67,2.488-4.67,2.488Z" fill="#ffa78c"/>
          <path id="Trazado_875069" data-name="Trazado 875069" d="M64.987,74.305l1.449,5.353s3.44-1.252,2.135-12.876c0,0,7-1.067,9.133-4.388,0,0,5.812,1.412,9.252.824a14.682,14.682,0,0,0,6.286-3.078s.237,8.487,3.914,9.759c0,0-.027,5.366,1.944,5.929,0,0,.4-7.452,3.439-8.308,0,0,2.208-7.024,1.5-9.278A4.538,4.538,0,0,0,101.07,55.4s-.942-12.155-19.808-9.489c-18.187,2.57-20.717,12.217-21.271,13.877-.788,2.365.4,4.708.633,7.632a18.521,18.521,0,0,0,1.3,5.345Z" fill="#00557f"/>
          <path id="Trazado_875070" data-name="Trazado 875070" d="M138.312,340.618H117.786L93.241,214.458l-2.582.15-5.084,126.01H64.466l-.592-68.35-.161-18.517L63.1,183.593h53.611l9.545,69.365,2.572,18.687Z" fill="#ffd07f"/>
          <path id="Trazado_875071" data-name="Trazado 875071" d="M70.531,202.594c2.153.538,2.8-.484,2.313-1.076s-4.688-2.65-5.712-3.814l-3.415-3.883a30.958,30.958,0,0,0,4.171,0c2.094-.162,3.611-1.454.543-1.776-2.238-.236-5.493-.7-7.094-.932l-.553-.629L50.7,168.667l9.96-29.567-15.926-7.917s-11.2,30.6-12.344,37.484,22.965,31.577,22.965,31.577l.012-.023a31.782,31.782,0,0,0,3.432,5.872c2.261,2.8,4.113,3.1,4.113,3.1v0a6.176,6.176,0,0,0,1.43.61c2.153.539,2.8-.484,2.316-1.076a20.9,20.9,0,0,0-2.833-1.8l.216-.541a12.826,12.826,0,0,0,3.8,2.178c2.153.538,2.8-.484,2.313-1.076-.424-.52-3.716-2.169-5.208-3.352l.328-.815a14.419,14.419,0,0,0,4.289,2.554c2.153.538,2.8-.484,2.314-1.076s-4.6-2.607-5.676-3.777l.311-.776a13.524,13.524,0,0,0,4.02,2.346" fill="#ffa78c"/>
          <path id="Trazado_875072" data-name="Trazado 875072" d="M77.892,98.324,52.984,109.892l7.8,50.451L63.1,183.594h53.608l1.077-24.974V102.453l-24.243-3.81s-2.238,4.884-6.975,5.519-8.678-5.838-8.678-5.838" fill="#00557f"/>
          <path id="Trazado_875073" data-name="Trazado 875073" d="M52.984,109.892s-9.688,15.736-12.272,22.9c0,0,10.037,6.018,19.946,6.305,0,0,.866-21.673-7.674-29.208" fill="#00557f"/>
          <path id="Trazado_875074" data-name="Trazado 875074" d="M117.757,102.45s12.351,11.332,17.684,16.771A104.189,104.189,0,0,1,117.787,133.5s-4.656-20.645-.03-31.052" fill="#00557f"/>
          <path id="Trazado_875075" data-name="Trazado 875075" d="M71.729,69.818s4.023,0,5.723-1.755" fill="none" stroke="#00557f" stroke-linecap="round" stroke-linejoin="round" stroke-width="1"/>
          <path id="Trazado_875076" data-name="Trazado 875076" d="M92.944,66.918s-2.976-.763-4.731,0" fill="none" stroke="#00557f" stroke-linecap="round" stroke-linejoin="round" stroke-width="1"/>
          <path id="Trazado_875077" data-name="Trazado 875077" d="M82.566,72.753s.763,4.086.382,4.7a1.441,1.441,0,0,0-1,1.832,1.962,1.962,0,0,0,1.761,1.6" fill="none" stroke="#bf6d60" stroke-linecap="round" stroke-linejoin="round" stroke-width="1"/>
          <path id="Trazado_875078" data-name="Trazado 875078" d="M81.421,85.08s4.5-1.45,6.792,0-5.342,2.442-6.792,2.442-1.374-1.679,0-2.442" fill="#fff"/>
          <path id="Trazado_875079" data-name="Trazado 875079" d="M103.456,71.02a10.058,10.058,0,0,0-2.862,5.38" fill="none" stroke="#bf6d60" stroke-linecap="round" stroke-linejoin="round" stroke-width="1"/>
          <path id="Trazado_875080" data-name="Trazado 875080" d="M103,75.77a5.8,5.8,0,0,0-1.168-2.681" fill="none" stroke="#bf6d60" stroke-linecap="round" stroke-linejoin="round" stroke-width="1"/>
          <path id="Trazado_875081" data-name="Trazado 875081" d="M61.618,75.656a10.44,10.44,0,0,1,3.892,5.227" fill="none" stroke="#bf6d60" stroke-linecap="round" stroke-linejoin="round" stroke-width="1"/>
          <path id="Trazado_875082" data-name="Trazado 875082" d="M62.877,80.177a6.79,6.79,0,0,1,.687-2.753" fill="none" stroke="#bf6d60" stroke-linecap="round" stroke-linejoin="round" stroke-width="1"/>
          <path id="Trazado_875083" data-name="Trazado 875083" d="M56.545,114.742s-.357,15.872.911,24.077" fill="none" stroke="#004560" stroke-linecap="round" stroke-linejoin="round" stroke-width="1"/>
          <path id="Trazado_875084" data-name="Trazado 875084" d="M115.9,110.538s2.662,15.487,1.765,22.383" fill="none" stroke="#004560" stroke-linecap="round" stroke-linejoin="round" stroke-width="1"/>
          <path id="Trazado_875085" data-name="Trazado 875085" d="M77.02,103.649a13.092,13.092,0,0,0,9.461,3.158c5.741-.431,7.649-3.158,7.649-3.158" fill="none" stroke="#004560" stroke-linecap="round" stroke-linejoin="round" stroke-width="1"/>
          <path id="Trazado_875086" data-name="Trazado 875086" d="M49.738,168.811s-3.014-.144-5.741,0" fill="none" stroke="#bf6d60" stroke-linecap="round" stroke-linejoin="round" stroke-width="1"/>
          <path id="Trazado_875087" data-name="Trazado 875087" d="M142.757,131.522s-2.022,5.151-2.6,7.3" fill="none" stroke="#bf6d60" stroke-linecap="round" stroke-linejoin="round" stroke-width="1"/>
          <line id="Línea_694" data-name="Línea 694" x2="1.589" y2="2.501" transform="translate(158.523 102.152)" fill="none" stroke="#bf6d60" stroke-linecap="round" stroke-linejoin="round" stroke-width="1"/>
          <path id="Trazado_875088" data-name="Trazado 875088" d="M162.408,98.324s5.275.177,7.033,1.315" fill="none" stroke="#bf6d60" stroke-linecap="round" stroke-linejoin="round" stroke-width="1"/>
          <line id="Línea_695" data-name="Línea 695" x2="49.302" transform="translate(64.665 186.824)" fill="none" stroke="#bf6d60" stroke-linecap="round" stroke-linejoin="round" stroke-width="1"/>
          <path id="Trazado_875089" data-name="Trazado 875089" d="M88.562,186.824s-3.66,19.783,2.8,23.132v-18.4" fill="none" stroke="#bf6d60" stroke-linecap="round" stroke-linejoin="round" stroke-width="1"/>
          <path id="Trazado_875090" data-name="Trazado 875090" d="M78.228,206.415s6.17,3.86,9.3,6.028" fill="none" stroke="#bf6d60" stroke-linecap="round" stroke-linejoin="round" stroke-width="1"/>
          <path id="Trazado_875091" data-name="Trazado 875091" d="M95.667,212.444s7.535-7.535,9.042-9.9" fill="none" stroke="#bf6d60" stroke-linecap="round" stroke-linejoin="round" stroke-width="1"/>
          <path id="Trazado_875092" data-name="Trazado 875092" d="M66.721,335.376a79.325,79.325,0,0,0,15.328,0" fill="none" stroke="#bf6d60" stroke-linecap="round" stroke-linejoin="round" stroke-width="1"/>
          <path id="Trazado_875093" data-name="Trazado 875093" d="M134.85,335.376s-9.473.67-15.932.718" fill="none" stroke="#bf6d60" stroke-linecap="round" stroke-linejoin="round" stroke-width="1"/>
          <path id="Trazado_875094" data-name="Trazado 875094" d="M52.393,363.257s3.122.969,11.518.538a90.571,90.571,0,0,0,16.7-2.691" fill="none" stroke="#00415b" stroke-linecap="round" stroke-linejoin="round" stroke-width="1"/>
          <path id="Trazado_875095" data-name="Trazado 875095" d="M125.162,361.857s11.195,3.229,17.439,3.875,9.9-.753,9.9-.753" fill="none" stroke="#00415b" stroke-linecap="round" stroke-linejoin="round" stroke-width="1"/>
          <path id="Trazado_875096" data-name="Trazado 875096" d="M61.1,355.611a8.609,8.609,0,0,1,5.021,2.082" fill="none" stroke="#00415b" stroke-linecap="round" stroke-linejoin="round" stroke-width="1"/>
          <path id="Trazado_875097" data-name="Trazado 875097" d="M62.675,354.259a8.605,8.605,0,0,1,5.02,2.082" fill="none" stroke="#00415b" stroke-linecap="round" stroke-linejoin="round" stroke-width="1"/>
          <path id="Trazado_875098" data-name="Trazado 875098" d="M64.253,352.908a8.605,8.605,0,0,1,5.02,2.082" fill="none" stroke="#00415b" stroke-linecap="round" stroke-linejoin="round" stroke-width="1"/>
          <path id="Trazado_875099" data-name="Trazado 875099" d="M142.4,356.2a8.6,8.6,0,0,0-5.02,2.082" fill="none" stroke="#00415b" stroke-linecap="round" stroke-linejoin="round" stroke-width="1"/>
          <path id="Trazado_875100" data-name="Trazado 875100" d="M140.822,354.851a8.605,8.605,0,0,0-5.02,2.082" fill="none" stroke="#00415b" stroke-linecap="round" stroke-linejoin="round" stroke-width="1"/>
          <path id="Trazado_875101" data-name="Trazado 875101" d="M139.244,353.5a8.609,8.609,0,0,0-5.021,2.082" fill="none" stroke="#00415b" stroke-linecap="round" stroke-linejoin="round" stroke-width="1"/>
          <line id="Línea_696" data-name="Línea 696" x1="3.768" y2="1.938" transform="translate(95.774 56.141)" fill="none" stroke="#004560" stroke-linecap="round" stroke-linejoin="round" stroke-width="1"/>
          <path id="Trazado_875102" data-name="Trazado 875102" d="M94.16,58.939S90.24,66.064,77.7,62.394c0,0-5.387,4.991-11.317,4.354" fill="none" stroke="#004560" stroke-linecap="round" stroke-linejoin="round" stroke-width="1"/>
          <path id="Trazado_875103" data-name="Trazado 875103" d="M97.156,69.9s-3.325-1.381-3.914-9.759" fill="none" stroke="#004560" stroke-linecap="round" stroke-linejoin="round" stroke-width="1"/>
          <path id="Trazado_875104" data-name="Trazado 875104" d="M62.225,58.939a8.945,8.945,0,0,0-.607,3.652" fill="none" stroke="#004560" stroke-linecap="round" stroke-linejoin="round" stroke-width="1"/>
          <path id="Trazado_875105" data-name="Trazado 875105" d="M64.593,62.872a15.147,15.147,0,0,0-.516,2.148" fill="none" stroke="#004560" stroke-linecap="round" stroke-linejoin="round" stroke-width="1"/>
          <line id="Línea_697" data-name="Línea 697" x2="0.843" y2="1.636" transform="translate(98.619 61.236)" fill="none" stroke="#004560" stroke-linecap="round" stroke-linejoin="round" stroke-width="1"/>
          <path id="Trazado_875106" data-name="Trazado 875106" d="M96.456,50.973s1.507,1.148,1.651,2.081" fill="none" stroke="#004560" stroke-linecap="round" stroke-linejoin="round" stroke-width="1"/>
          <path id="Trazado_875107" data-name="Trazado 875107" d="M93.8,53.055a6.632,6.632,0,0,1,1.4,1.22" fill="none" stroke="#004560" stroke-linecap="round" stroke-linejoin="round" stroke-width="1"/>
          <line id="Línea_698" data-name="Línea 698" y1="1.703" x2="1.686" transform="translate(78.587 58.437)" fill="none" stroke="#004560" stroke-linecap="round" stroke-linejoin="round" stroke-width="1"/>
          <path id="Trazado_875108" data-name="Trazado 875108" d="M76.433,262.964c0,5.707-3.918,10.338-8.751,10.338a7.562,7.562,0,0,1-3.808-1.035l-.161-18.516a7.678,7.678,0,0,1,3.969-1.115c4.833,0,8.751,4.621,8.751,10.328" fill="#f2bd70"/>
          <path id="Trazado_875109" data-name="Trazado 875109" d="M128.828,271.645a7.708,7.708,0,0,1-4.742,1.658c-4.833,0-8.751-4.632-8.751-10.338s3.918-10.329,8.751-10.329a7.415,7.415,0,0,1,2.17.322Z" fill="#f2bd70"/>
          <path id="Trazado_875110" data-name="Trazado 875110" d="M176.461,9.626a3.6,3.6,0,0,1-1.239-5.435c1.669-2.1,4.639-4.273,9.742-4.188,6.516.108,12.266,4.462,12.164,10.587-.071,4.257-3.286,6.81-7.485,8.522-1.488.627-1.552,1.842-1.576,3.276a2.432,2.432,0,0,1-2.473,2.392l-2.3-.038a2.433,2.433,0,0,1-2.392-2.474l.038-2.3c.032-1.911.145-3.474,2.121-4.7,2.678-1.649,5.156-1.738,5.207-4.822a3.46,3.46,0,0,0-3.459-3.621,4.781,4.781,0,0,0-3.9,1.836,3.631,3.631,0,0,1-4.444.968m12.832,22.646a4.975,4.975,0,1,1-4.912-5.079,4.961,4.961,0,0,1,4.912,5.079" fill="#ff9400"/>
          <path id="Trazado_875111" data-name="Trazado 875111" d="M216.537,28.1a3.6,3.6,0,0,1,1.154-5.453c2.4-1.211,6-1.935,10.6.282,5.87,2.83,9.265,9.193,6.6,14.712-1.849,3.834-5.838,4.805-10.368,4.6-1.614-.054-2.181,1.022-2.8,2.314a2.434,2.434,0,0,1-3.248,1.135l-2.074-1a2.432,2.432,0,0,1-1.135-3.248l1-2.074c.83-1.722,1.588-3.093,3.9-3.379,3.123-.375,5.41.584,6.75-2.195a3.461,3.461,0,0,0-1.623-4.737,4.78,4.78,0,0,0-4.313.031,3.631,3.631,0,0,1-4.44-.985m2.156,25.94a4.975,4.975,0,1,1-2.33-6.671,4.96,4.96,0,0,1,2.33,6.671" fill="#ff9400"/>
          <path id="Trazado_875112" data-name="Trazado 875112" d="M134.62,28.848a3.6,3.6,0,0,1-4.293-3.555c.042-2.685,1.075-6.215,5.174-9.257,5.234-3.883,12.446-3.933,16.1.987,2.537,3.419,1.543,7.4-.745,11.317-.8,1.4-.108,2.407.747,3.558a2.434,2.434,0,0,1-.5,3.4l-1.849,1.372a2.433,2.433,0,0,1-3.4-.5l-1.372-1.849c-1.139-1.535-2-2.844-1.182-5.02,1.119-2.94,3.03-4.52,1.192-7a3.461,3.461,0,0,0-4.949-.764,4.778,4.778,0,0,0-1.976,3.833,3.632,3.632,0,0,1-2.935,3.475M158.592,38.99a4.975,4.975,0,1,1-6.99-1.035,4.959,4.959,0,0,1,6.99,1.035" fill="#ff9400"/>
          <path id="Trazado_875113" data-name="Trazado 875113" d="M140.188,343.327l-1.005,14.778-14.262,11.814,2.737,4.033,26.8-4.754,2.16-24.891Z" fill="#ffa78c"/>
          <path id="Trazado_875114" data-name="Trazado 875114" d="M133.637,362.139a18.038,18.038,0,0,0,11.793,4.876c2.328.061,9.564-2.175,9.564-2.175s.468,5.258-.684,8.752c-.571,1.732-26.075,5.4-29.965,5.258s-4.9-.576-5.762-1.8-1.585-3.313,2.017-5.618,13.037-9.292,13.037-9.292" fill="#00557f"/>
          <path id="Trazado_875115" data-name="Trazado 875115" d="M207.964,342.353l1,14.778,14.262,11.813-2.737,4.034-26.8-4.754-2.161-24.892Z" fill="#ffa78c"/>
          <path id="Trazado_875116" data-name="Trazado 875116" d="M214.515,361.166a18.038,18.038,0,0,1-11.793,4.876c-2.328.061-9.564-2.175-9.564-2.175s-.468,5.258.684,8.752c.572,1.732,26.075,5.4,29.965,5.258s4.9-.576,5.763-1.8,1.584-3.313-2.017-5.618-13.038-9.292-13.038-9.292" fill="#00557f"/>
          <path id="Trazado_875117" data-name="Trazado 875117" d="M144.658,183.328,135.87,344.307h23.482l14.206-135.161,3.154.613,12.317,134.548,22.43-.994L203.79,183.328Z" fill="#00557f"/>
          <path id="Trazado_875118" data-name="Trazado 875118" d="M203.79,162.537V100.956a139.3,139.3,0,0,0-33.27-4.4s-18.011-.946-22.549,0l-3.76,65.985L139.719,189.4s25.755,4.479,31.806,4.047l4.322-6.267,3.673,6.3s16.639-.344,27.876-4.076Z" fill="#ffd07f"/>
          <path id="Trazado_875119" data-name="Trazado 875119" d="M185.218,100.116a27.233,27.233,0,0,0,.111,3.348l-7.13,4.064-8.985-6.272a25.921,25.921,0,0,0,1.3-4.7c.061-.332.121-.655.171-.968.1-.585.172-1.139.222-1.644.152-1.361.2-2.379.212-2.773.01-.121.01-.181.01-.181l1.049.222,14.047,2.944a10.2,10.2,0,0,0-.6,1.916,14.883,14.883,0,0,0-.332,2.3c-.051.606-.081,1.19-.081,1.745" fill="#ffa78c"/>
          <path id="Trazado_875120" data-name="Trazado 875120" d="M125.93,127.221s13.805-29.652,22.041-30.669c10.586-1.307,2.737,25.437,2.737,25.437L137.6,145.226Z" fill="#ffd07f"/>
          <path id="Trazado_875121" data-name="Trazado 875121" d="M224.824,130.251s-13.805-28.453-22.041-29.47c-10.587-1.308-2.738,25.436-2.738,25.436l13.11,21.321Z" fill="#ffd07f"/>
          <path id="Trazado_875122" data-name="Trazado 875122" d="M138.031,138.027c-1.518-2.762-22.87-19.431-28.044-23.447l-1.416-1.955s-2.233-3.1-4.827-3.889c-1.264-.387-6.626-2.092-8.211-2.163s0,2,1.224,2.479,3.53,1.234,3.53,1.234L90.851,114.5s-5.384,2.071-5.871,3.476,1.729.54,3.728-.271c1.482-.6,3.079-1.318,3.808-1.65l.162.152c-.655.258-5.337,2.137-5.789,3.443-.486,1.4,1.729.541,3.728-.27,1.437-.582,2.972-1.271,3.73-1.615l.3.284c-1.033.413-5.214,2.154-5.64,3.384-.486,1.4,1.729.54,3.727-.27,1.354-.549,2.791-1.19,3.588-1.551l.249.234c-1.513.635-4.709,2.086-5.079,3.154-.486,1.4,1.729.54,3.727-.27,1.084-.44,2.219-.937,3.043-1.306,0,0,1.807-.566,3.937-1.449.878,1.342,19.62,29.82,28.482,29.82,9.076,0,9.076-8.622,7.347-11.766" fill="#ffa78c"/>
          <path id="Trazado_875123" data-name="Trazado 875123" d="M260.466,118.582c-.486-1.4-5.87-3.475-5.87-3.475l-9.437-4.213s2.305-.758,3.53-1.233,2.809-2.55,1.224-2.479-6.946,1.776-8.211,2.162c-2.593.792-4.826,3.89-4.826,3.89l-.99,1.366c-3.882,4.619-21.727,25.961-22.643,29.025-1.028,3.437.788,11.866,9.66,9.955,7.436-1.6,17.569-25.249,20.657-32.868,1.991.809,3.622,1.319,3.622,1.319.823.368,1.958.866,3.042,1.305,2,.81,4.214,1.675,3.727.27-.369-1.068-3.566-2.519-5.079-3.154l.25-.233c.8.361,2.233,1,3.587,1.55,2,.811,4.214,1.675,3.727.27-.425-1.23-4.607-2.97-5.64-3.384l.3-.284c.757.345,2.293,1.033,3.729,1.616,2,.81,4.214,1.674,3.728.27-.452-1.306-5.133-3.186-5.789-3.444l.163-.152c.728.332,2.325,1.05,3.807,1.651,2,.81,4.214,1.675,3.728.27" fill="#ffa78c"/>
          <path id="Trazado_875124" data-name="Trazado 875124" d="M148.4,101.6a48.9,48.9,0,0,1-.331,25.057" fill="none" stroke="#bf6d60" stroke-linecap="round" stroke-linejoin="round" stroke-width="1"/>
          <path id="Trazado_875125" data-name="Trazado 875125" d="M203.79,105.924s-3.9,14.015-1.948,23.215" fill="none" stroke="#bf6d60" stroke-linecap="round" stroke-linejoin="round" stroke-width="1"/>
          <path id="Trazado_875126" data-name="Trazado 875126" d="M147.107,162.326l2.733,1.513-1.768,2.809" fill="none" stroke="#bf6d60" stroke-linecap="round" stroke-linejoin="round" stroke-width="1"/>
          <line id="Línea_699" data-name="Línea 699" x1="2.848" y2="2.161" transform="translate(199.696 164.487)" fill="none" stroke="#bf6d60" stroke-linecap="round" stroke-linejoin="round" stroke-width="1"/>
          <line id="Línea_700" data-name="Línea 700" x1="2.349" y2="79.649" transform="translate(175.847 107.528)" fill="none" stroke="#bf6d60" stroke-linecap="round" stroke-linejoin="round" stroke-width="1"/>
          <path id="Trazado_875127" data-name="Trazado 875127" d="M186.227,94.156a10.109,10.109,0,0,0-.6,1.916,14.989,14.989,0,0,0-.333,2.3c-.05.6-.08,1.19-.08,1.745a12.758,12.758,0,0,1-7.493-.857,29.223,29.223,0,0,1-7.039-3.671c.1-.585.172-1.139.222-1.644.151-1.361.2-2.38.212-2.773l1.058.04Z" fill="#d88471"/>
          <path id="Trazado_875128" data-name="Trazado 875128" d="M164.753,63.025s-1.627,15.243-1.329,20.661,8.09,11.963,14.256,13.656c5.242,1.44,14.7-4.255,17.017-8.27s5.683-23.745,5.683-23.745-18.125-24.72-35.627-2.3" fill="#ffa78c"/>
          <path id="Trazado_875129" data-name="Trazado 875129" d="M165.258,72.616s-2.692-4.347-5.064-3.574-2.625,6.092-.536,9.415,4.544,2.57,4.544,2.57Z" fill="#ffa78c"/>
          <path id="Trazado_875130" data-name="Trazado 875130" d="M196.907,76.5s3.787-3.436,5.854-2.038.842,6.58-2.084,9.2-5.076,1.216-5.076,1.216Z" fill="#ffa78c"/>
          <path id="Trazado_875131" data-name="Trazado 875131" d="M175.739,44.88c-7.347,1.513-7.239,5.834-11.237,6.807s-5.718,3.457-6.262,6.05.32,2.594,1.076,2.594h1.189s.094,2.525-.109,5.618,1.353,3.565,1.353,3.565,3.4,2.27,3.509,5.511a2.833,2.833,0,0,0,2.053-2.161,87.93,87.93,0,0,0,.649-8.968s4.754-.216,7.887-2.269a6.14,6.14,0,0,0,4,1.081c2.809,0,11.02-2.7,13.289-1.3a9.532,9.532,0,0,0,3.35,4.43,92.259,92.259,0,0,0-.882,9.184,5.2,5.2,0,0,0,1.081,2.914s1.746-3.526,4.663-3.814c0,0,2.593-4.07,3.025-7.528a2.047,2.047,0,0,0,1.945-2.377c-.216-2.269-1.08-3.025-1.621-5.294s-2.377-4.646-3.673-4.754c0,0,1.188-1.837-4.646-5.835s-13.29-4.97-20.637-3.457" fill="#00557f"/>
          <path id="Trazado_875132" data-name="Trazado 875132" d="M170.912,93.94a15.968,15.968,0,0,0,1.622,6.794c1.512,2.887,5.662,6.794,5.662,6.794a15.443,15.443,0,0,0-5.518-1.242,12.926,12.926,0,0,0-4.826,1.242L166.123,96.49Z" fill="#fffbdc"/>
          <path id="Trazado_875133" data-name="Trazado 875133" d="M185.627,96.074s-1.7,8.374-7.431,11.454a18.554,18.554,0,0,1,5.791,0,7.852,7.852,0,0,1,3.457,1.928s2.834-8.664,2.894-11.247Z" fill="#fffbdc"/>
          <path id="Trazado_875134" data-name="Trazado 875134" d="M160.36,71.639a10.583,10.583,0,0,1,3.027,5.619" fill="none" stroke="#bf6d60" stroke-linecap="round" stroke-linejoin="round" stroke-width="1"/>
          <path id="Trazado_875135" data-name="Trazado 875135" d="M161.225,76.826s.127-2.017,1.18-2.377" fill="none" stroke="#bf6d60" stroke-linecap="round" stroke-linejoin="round" stroke-width="1"/>
          <path id="Trazado_875136" data-name="Trazado 875136" d="M201.634,76.826a10.246,10.246,0,0,0-4.388,5.042" fill="none" stroke="#bf6d60" stroke-linecap="round" stroke-linejoin="round" stroke-width="1"/>
          <path id="Trazado_875137" data-name="Trazado 875137" d="M199.44,81.436a2.12,2.12,0,0,0,0-2.089" fill="none" stroke="#bf6d60" stroke-linecap="round" stroke-linejoin="round" stroke-width="1"/>
          <path id="Trazado_875138" data-name="Trazado 875138" d="M175.25,73.969c-.13,1.021-.705,1.788-1.284,1.714s-.942-.961-.812-1.982.7-1.788,1.284-1.714.942.961.812,1.982" fill="#00557f"/>
          <path id="Trazado_875139" data-name="Trazado 875139" d="M171.043,67.793s3.839,1.006,5.9-.244" fill="none" stroke="#00557f" stroke-linecap="round" stroke-linejoin="round" stroke-width="1"/>
          <path id="Trazado_875140" data-name="Trazado 875140" d="M186.544,74.773c-.018,1.029.44,1.871,1.023,1.881s1.071-.815,1.09-1.843-.44-1.871-1.023-1.882-1.072.815-1.09,1.844" fill="#00557f"/>
          <path id="Trazado_875141" data-name="Trazado 875141" d="M191.6,69.269s-3.944.441-5.8-1.094" fill="none" stroke="#00557f" stroke-linecap="round" stroke-linejoin="round" stroke-width="1"/>
          <path id="Trazado_875142" data-name="Trazado 875142" d="M180.651,73.3s-.293,4.09-.81,4.577a1.42,1.42,0,0,0-1.409,1.5,1.934,1.934,0,0,0,1.279,1.969" fill="none" stroke="#bf6d60" stroke-linecap="round" stroke-linejoin="round" stroke-width="1"/>
          <path id="Trazado_875143" data-name="Trazado 875143" d="M177.721,86.334s2.419-1.585,4.163-1.3a3.5,3.5,0,0,1,2.383,1.3" fill="none" stroke="#bf6d60" stroke-linecap="round" stroke-linejoin="round" stroke-width="1"/>
          <line id="Línea_701" data-name="Línea 701" x2="3.277" y2="1.691" transform="translate(100.287 110.286)" fill="none" stroke="#bf6d60" stroke-linecap="round" stroke-linejoin="round" stroke-width="1"/>
          <line id="Línea_702" data-name="Línea 702" x2="4.826" y2="4.322" transform="translate(92.075 115.578)" fill="none" stroke="#bf6d60" stroke-linecap="round" stroke-linejoin="round" stroke-width="1"/>
          <path id="Trazado_875144" data-name="Trazado 875144" d="M102.2,119.973s3.92-1.441,4.28-1.513" fill="none" stroke="#bf6d60" stroke-linecap="round" stroke-linejoin="round" stroke-width="1"/>
          <line id="Línea_703" data-name="Línea 703" x1="2.885" y1="0.957" transform="translate(240.675 119.756)" fill="none" stroke="#bf6d60" stroke-linecap="round" stroke-linejoin="round" stroke-width="1"/>
          <line id="Línea_704" data-name="Línea 704" x1="4.97" y2="4.684" transform="translate(248.454 116.028)" fill="none" stroke="#bf6d60" stroke-linecap="round" stroke-linejoin="round" stroke-width="1"/>
          <path id="Trazado_875145" data-name="Trazado 875145" d="M245.16,110.895a17.187,17.187,0,0,1-3.042,2.6" fill="none" stroke="#bf6d60" stroke-linecap="round" stroke-linejoin="round" stroke-width="1"/>
          <line id="Línea_705" data-name="Línea 705" x2="23.53" transform="translate(136.484 338.009)" fill="none" stroke="#004560" stroke-linecap="round" stroke-linejoin="round" stroke-width="1"/>
          <line id="Línea_706" data-name="Línea 706" y1="1.103" x2="23.104" transform="translate(188.355 335.848)" fill="none" stroke="#004560" stroke-linecap="round" stroke-linejoin="round" stroke-width="1"/>
          <path id="Trazado_875146" data-name="Trazado 875146" d="M153.878,199.35s-4.343,58.344-5.629,64.467,0,8.428,0,8.428a64.97,64.97,0,0,0-.572,6.915c.15,1.153-2.731,51.574-2.731,51.574" fill="none" stroke="#004560" stroke-linecap="round" stroke-linejoin="round" stroke-width="1"/>
          <path id="Trazado_875147" data-name="Trazado 875147" d="M192.774,199.35s4.9,69.149,5.474,72.607a16.666,16.666,0,0,1,0,5.941,31.787,31.787,0,0,0,.256,4.72c.321,2.016,3.49,48.116,3.49,48.116" fill="none" stroke="#004560" stroke-linecap="round" stroke-linejoin="round" stroke-width="1"/>
          <line id="Línea_707" data-name="Línea 707" x1="6.57" y1="6.195" transform="translate(166.988 202.951)" fill="none" stroke="#004560" stroke-linecap="round" stroke-linejoin="round" stroke-width="1"/>
          <line id="Línea_708" data-name="Línea 708" y1="3.061" x2="5.258" transform="translate(176.711 206.697)" fill="none" stroke="#004560" stroke-linecap="round" stroke-linejoin="round" stroke-width="1"/>
          <path id="Trazado_875148" data-name="Trazado 875148" d="M154.166,122.853l13.542,1.283s-.144,15.14-8.068,15.14-5.474-16.423-5.474-16.423" fill="#f2bd70"/>
          <line id="Línea_709" data-name="Línea 709" x1="3.133" y2="1.799" transform="translate(197.246 55.036)" fill="none" stroke="#004560" stroke-linecap="round" stroke-linejoin="round" stroke-width="1"/>
          <path id="Trazado_875149" data-name="Trazado 875149" d="M165.258,63.644s7.348,1.008,10.589-2.017c0,0,2.658,2.125,7.56.558s9.007-1.206,9.728-.774c0,0,1.656,4.394,4.826,4.826s3.673-.648,3.673-.648" fill="none" stroke="#004560" stroke-linecap="round" stroke-linejoin="round" stroke-width="1"/>
          <line id="Línea_710" data-name="Línea 710" x1="0.864" y2="1.008" transform="translate(203.435 64.869)" fill="none" stroke="#004560" stroke-linecap="round" stroke-linejoin="round" stroke-width="1"/>
          <path id="Trazado_875150" data-name="Trazado 875150" d="M162.4,61.483a5.959,5.959,0,0,1,1.485-2.737" fill="none" stroke="#004560" stroke-linecap="round" stroke-linejoin="round" stroke-width="1"/>
          <path id="Trazado_875151" data-name="Trazado 875151" d="M198.813,52.839a4.5,4.5,0,0,0-2.221-2.017" fill="none" stroke="#004560" stroke-linecap="round" stroke-linejoin="round" stroke-width="1"/>
          <path id="Trazado_875152" data-name="Trazado 875152" d="M168.14,51.831a38.555,38.555,0,0,0,3.673-3.457" fill="none" stroke="#004560" stroke-linecap="round" stroke-linejoin="round" stroke-width="1"/>
          <path id="Trazado_875153" data-name="Trazado 875153" d="M176.279,59.466a6.584,6.584,0,0,1,2.593-2.089" fill="none" stroke="#004560" stroke-linecap="round" stroke-linejoin="round" stroke-width="1"/>
          <path id="Trazado_875154" data-name="Trazado 875154" d="M248.22,70.948s-3.629,17.209-1.512,26.888,9.074,8.469,10.132,8.166,1.963-3.135,1.963-3.135a4.84,4.84,0,0,0,4.381,2.379,15.544,15.544,0,0,0,6.209-2.1s9.536,2.251,15.127,1.042,6.387-3.63,6.387-3.63,3.308,1.512,7.078-1.815S296.459,82,294.419,76.685s-46.2-5.737-46.2-5.737" fill="#00557f"/>
          <path id="Trazado_875155" data-name="Trazado 875155" d="M266.671,352.453l1.21,13.913,11.191-1.663V352Z" fill="#ffa78c"/>
          <path id="Trazado_875156" data-name="Trazado 875156" d="M312.191,352l3.176,12.552H325.5L324.289,352Z" fill="#ffa78c"/>
          <path id="Trazado_875157" data-name="Trazado 875157" d="M279.072,363.04s8.923,11.342,13.157,13.913,2.269,4.991.605,5.6-6.465.213-15.577,0c-.81-.019-6.965-.62-10.177-1.08a1.91,1.91,0,0,1-1.612-2.2l2.3-14.228,9.681-1.714Z" fill="#00557f"/>
          <path id="Trazado_875158" data-name="Trazado 875158" d="M314.611,361.563,313.2,378.855a1.294,1.294,0,0,0,1.166,1.395c3.884.372,15.434,1.466,16.917,1.466,1.786,0,10.917,0,12.9-1.134s1.389-3.176,0-4.537-9.131-5.671-9.131-5.671l-9.886-9.237Z" fill="#00557f"/>
          <path id="Trazado_875159" data-name="Trazado 875159" d="M298.345,116.066s-7.438-8.108-25.3-8.108c-13.608,0-25.3,9.634-25.3,9.634l9.755,45.6L252.8,184.3h52.925l-5.05-23.927s5.415-31.592-2.331-44.309" fill="#ffd07f"/>
          <path id="Trazado_875160" data-name="Trazado 875160" d="M291.145,66.321s3.163,17.2,3.273,22.193-4.653,10.1-9.859,12.838-16.038-2.173-18.447-5.692-7.1-22.221-7.1-22.221,22.593-18.158,32.134-7.118" fill="#ffa78c"/>
          <path id="Trazado_875161" data-name="Trazado 875161" d="M282.543,99.993a35.409,35.409,0,0,0,2.3,11.138l-16.373-2.512-2.949-14.014Z" fill="#ffa78c"/>
          <path id="Trazado_875162" data-name="Trazado 875162" d="M264.289,82.883s-3.707-4.784-6.776-2.372-.136,9.035,2.506,10.981,5.534-.825,5.534-.825Z" fill="#ffa78c"/>
          <path id="Trazado_875163" data-name="Trazado 875163" d="M282.687,101.981s-7.1.117-11.941-2.723c0,0,6.453,7.836,12.782,7.777Z" fill="#d88471"/>
          <path id="Trazado_875164" data-name="Trazado 875164" d="M284.062,64.339s.866,6.082-7.671,10.109c-6.364,3-7.981,6.243-7.981,6.243s1.663,6.106-3.2,7.868c0,0-3-9.833-6.878-8.521s-.071,12.762,5.959,11.528a15.434,15.434,0,0,1,2.314,8.18s-13.877-6.672-17.771-18.65,3.954-17.2,3.954-17.2,1.922-6.554,11.741-10.28,20.912-1.466,26.284,2.833a10.16,10.16,0,0,1,4,9.91s3.959,3.023,3.5,7.544-4.83,6.349-4.83,6.349-3.048-11.9-5.569-14.831-3.847-1.085-3.847-1.085" fill="#00557f"/>
          <path id="Trazado_875165" data-name="Trazado 875165" d="M284.521,78.616s.318,3.542,2.1,5.439-.995,3.434-.995,3.434" fill="none" stroke="#bf6d60" stroke-linecap="round" stroke-linejoin="round" stroke-width="1"/>
          <path id="Trazado_875166" data-name="Trazado 875166" d="M290.907,73.22s-2.475-2.061-4.458.167" fill="none" stroke="#00557f" stroke-linecap="round" stroke-linejoin="round" stroke-width="1"/>
          <path id="Trazado_875167" data-name="Trazado 875167" d="M278.8,75.5a14.593,14.593,0,0,1-4.822,2.38" fill="none" stroke="#00557f" stroke-linecap="round" stroke-linejoin="round" stroke-width="1"/>
          <path id="Trazado_875168" data-name="Trazado 875168" d="M258.8,83.125a6.9,6.9,0,0,1,4.38,4.9" fill="none" stroke="#bf6d60" stroke-linecap="round" stroke-linejoin="round" stroke-width="1"/>
          <path id="Trazado_875169" data-name="Trazado 875169" d="M261.028,87.632a2.314,2.314,0,0,1,.529-2.335" fill="none" stroke="#bf6d60" stroke-linecap="round" stroke-linejoin="round" stroke-width="1"/>
          <path id="Trazado_875170" data-name="Trazado 875170" d="M276.825,81.9c.225.956.846,1.625,1.388,1.5s.8-1.005.573-1.959-.847-1.625-1.388-1.5-.8,1-.573,1.959" fill="#00557f"/>
          <path id="Trazado_875171" data-name="Trazado 875171" d="M287.895,79.288c.225.954.846,1.625,1.388,1.5s.8-1.005.572-1.959-.846-1.625-1.387-1.5-.8,1-.573,1.96" fill="#00557f"/>
          <path id="Trazado_875172" data-name="Trazado 875172" d="M286.693,91.807a5.079,5.079,0,0,0-4.206,1.529" fill="none" stroke="#bf6d60" stroke-linecap="round" stroke-linejoin="round" stroke-width="1"/>
          <path id="Trazado_875173" data-name="Trazado 875173" d="M332.7,110.367c-2.336-7.487-17.164-35.411-17.164-35.411a31.264,31.264,0,0,0-5.062-8.144s-4.131-3.683-5.849-4.162a12.73,12.73,0,0,0-3.392-2.023c-1.821-.56-6.161,1.312-6.527,2.065s.678,1.029,2.4.574,2.3-.624,2.3-.624l1.32,1.638a9.271,9.271,0,0,0-2.707,2.467c-.233.839.906,2.093.906,2.093s.692,2.634,1.661,2.924l.97.289s2.115,3.762,4.683,4c0,0,1.167,3.984,3.828,4.642.579,4.94,2.837,23.367,4.982,29.9l-9.322,1.911c.545,3.726,4.9,18,4.9,18,4.3-.618,25.367-9.588,22.075-20.139" fill="#ffa78c"/>
          <path id="Trazado_875174" data-name="Trazado 875174" d="M321.4,292.566s-2.783-76.791-15.675-108.264H252.8s-5.427,14.8-4.248,45.655c.948,24.794,7.123,52.211,9.513,62.026-.259,9.69-.2,36.78,7.092,61.112h15.426l-.908-57.353,4.438-71.671,13.5,64.217-.062-.011s2.091,39.5,14.34,64.818H325.5Z" fill="#00557f"/>
          <path id="Trazado_875175" data-name="Trazado 875175" d="M313.24,80.334a2.855,2.855,0,0,1-3.174.363" fill="none" stroke="#bf6d60" stroke-linecap="round" stroke-linejoin="round" stroke-width="1"/>
          <path id="Trazado_875176" data-name="Trazado 875176" d="M258.066,185.853s-6.367,25.709-4.25,50.814a446.111,446.111,0,0,0,7.41,49.6" fill="none" stroke="#004560" stroke-linecap="round" stroke-linejoin="round" stroke-width="1"/>
          <path id="Trazado_875177" data-name="Trazado 875177" d="M306.237,76.053a1.223,1.223,0,0,0,.3-1.61l-1.062-1.6" fill="none" stroke="#bf6d60" stroke-linecap="round" stroke-linejoin="round" stroke-width="1"/>
          <path id="Trazado_875178" data-name="Trazado 875178" d="M304.254,69.844s-2.47,1.046-2.7,2.209" fill="none" stroke="#bf6d60" stroke-linecap="round" stroke-linejoin="round" stroke-width="1"/>
          <path id="Trazado_875179" data-name="Trazado 875179" d="M302.428,67a5.578,5.578,0,0,0-3.5,1.84" fill="none" stroke="#bf6d60" stroke-linecap="round" stroke-linejoin="round" stroke-width="1"/>
          <path id="Trazado_875180" data-name="Trazado 875180" d="M288.875,110.514l18.109.617,4.669,19.375s-7.4,4.326-13.667,4.175c-9.336-.225-9.111-24.167-9.111-24.167" fill="#ffd07f"/>
          <path id="Trazado_875181" data-name="Trazado 875181" d="M269.512,191.065s1.312.477,2.446.775,2.446.358,1.909-.894-3.58-2.806-6.682-2.327-4.116.76-4.117.76l-5.53.6L241,166.726l5.773-15.142-14.84-10.6a167.139,167.139,0,0,0-8.59,24.553c-3.1,12.408,27.043,31.815,27.043,31.815a11.749,11.749,0,0,0,5.727,3.023,24.215,24.215,0,0,0,7.482.113c.019,0,.037.005.056,0l.273-.045c.293-.041.461-.07.461-.07v-.007l3.605-.6s1.312.478,2.446.776,2.445.358,1.909-.9c-.467-1.089-2.829-2.4-5.476-2.412l1.876-.31s1.313.477,2.446.776,2.446.358,1.909-.895c-.527-1.231-3.475-2.741-6.52-2.339l2.7-.445s1.313.477,2.446.776,2.446.358,1.909-.895-3.579-2.806-6.681-2.327c-1.109.172-1.941.316-2.565.433v-.1Z" fill="#ffa78c"/>
          <path id="Trazado_875182" data-name="Trazado 875182" d="M247.75,117.591s-12.2,9.037-16.959,24.236l17.763,11.342s7.751-11.079,10.25-19.32-5.778-18.149-11.054-16.258" fill="#ffd07f"/>
          <path id="Trazado_875183" data-name="Trazado 875183" d="M257.81,111.553s6.532,4.128,17.375,3.826,13.69-4.865,13.69-4.865l-4.895-1.807-15.81-1.527Z" fill="#ffa78c"/>
          <path id="Trazado_875184" data-name="Trazado 875184" d="M253.781,144.8a50.155,50.155,0,0,0,4.028-15.663" fill="none" stroke="#bf6d60" stroke-linecap="round" stroke-linejoin="round" stroke-width="1"/>
          <path id="Trazado_875185" data-name="Trazado 875185" d="M297.986,118.371s5.31,11.3,4.918,15.685" fill="none" stroke="#bf6d60" stroke-linecap="round" stroke-linejoin="round" stroke-width="1"/>
          <line id="Línea_711" data-name="Línea 711" x1="11.943" y2="2.722" transform="translate(284.52 158.631)" fill="none" stroke="#bf6d60" stroke-linecap="round" stroke-linejoin="round" stroke-width="1"/>
          <path id="Trazado_875186" data-name="Trazado 875186" d="M260.877,163.168l2.307,1.319-2.307,1.081" fill="none" stroke="#bf6d60" stroke-linecap="round" stroke-linejoin="round" stroke-width="1"/>
          <path id="Trazado_875187" data-name="Trazado 875187" d="M259.262,115.395s12.416,4.245,21.1,1.962,10.55-5.165,10.55-5.165" fill="none" stroke="#bf6d60" stroke-linecap="round" stroke-linejoin="round" stroke-width="1"/>
          <path id="Trazado_875188" data-name="Trazado 875188" d="M241,166.727a16.34,16.34,0,0,1-7.825,2.793" fill="none" stroke="#bf6d60" stroke-linecap="round" stroke-linejoin="round" stroke-width="1"/>
          <path id="Trazado_875189" data-name="Trazado 875189" d="M315.048,110.594a54.847,54.847,0,0,0,8.864,2.895" fill="none" stroke="#bf6d60" stroke-linecap="round" stroke-linejoin="round" stroke-width="1"/>
          <path id="Trazado_875190" data-name="Trazado 875190" d="M269.7,292.47a8.935,8.935,0,0,0,8.771,0" fill="none" stroke="#004560" stroke-linecap="round" stroke-linejoin="round" stroke-width="1"/>
          <path id="Trazado_875191" data-name="Trazado 875191" d="M319.45,290.958s-5.747.756-8.62-1.815" fill="none" stroke="#004560" stroke-linecap="round" stroke-linejoin="round" stroke-width="1"/>
          <line id="Línea_712" data-name="Línea 712" x2="5.054" y2="1.815" transform="translate(297.61 288.288)" fill="none" stroke="#004560" stroke-linecap="round" stroke-linejoin="round" stroke-width="1"/>
          <line id="Línea_713" data-name="Línea 713" x2="3.16" y2="2.907" transform="translate(258.066 291.983)" fill="none" stroke="#004560" stroke-linecap="round" stroke-linejoin="round" stroke-width="1"/>
          <path id="Trazado_875192" data-name="Trazado 875192" d="M284.115,224.071s1.157-11.6,4.484-15.836a16.494,16.494,0,0,1,7.864-5.445" fill="none" stroke="#004560" stroke-linecap="round" stroke-linejoin="round" stroke-width="1"/>
          <path id="Trazado_875193" data-name="Trazado 875193" d="M265.661,378.075s6.227.824,14.847,1.353a80.418,80.418,0,0,0,13.006,0" fill="none" stroke="#004560" stroke-linecap="round" stroke-linejoin="round" stroke-width="1"/>
          <path id="Trazado_875194" data-name="Trazado 875194" d="M313.7,377.689s14.745,1.3,20.34,1.18a52.04,52.04,0,0,0,9.982-1.18" fill="none" stroke="#004560" stroke-linecap="round" stroke-linejoin="round" stroke-width="1"/>
          <path id="Trazado_875195" data-name="Trazado 875195" d="M269.7,353.1s-10.737-37.789-8.469-53.517" fill="none" stroke="#004560" stroke-linecap="round" stroke-linejoin="round" stroke-width="1"/>
          <path id="Trazado_875196" data-name="Trazado 875196" d="M286.943,213.431s12.936,66.185,13.194,72.839" fill="none" stroke="#004560" stroke-linecap="round" stroke-linejoin="round" stroke-width="1"/>
          <path id="Trazado_875197" data-name="Trazado 875197" d="M302.664,293.613s1.512,41.92,12.477,59.482" fill="none" stroke="#004560" stroke-linecap="round" stroke-linejoin="round" stroke-width="1"/>
          <path id="Trazado_875198" data-name="Trazado 875198" d="M252.789,63.9a46.7,46.7,0,0,1,7.531,0" fill="none" stroke="#004560" stroke-linecap="round" stroke-linejoin="round" stroke-width="1"/>
          <path id="Trazado_875199" data-name="Trazado 875199" d="M283.457,62.07a8.888,8.888,0,0,1-1.664,8.878c-3.629,4.355-11.342,4.014-13.384,9.742,0,0,1.239,7.362-3.2,7.869" fill="none" stroke="#004560" stroke-linecap="round" stroke-linejoin="round" stroke-width="1"/>
          <path id="Trazado_875200" data-name="Trazado 875200" d="M266.52,79.057s.075-3.527,1.058-5.267" fill="none" stroke="#004560" stroke-linecap="round" stroke-linejoin="round" stroke-width="1"/>
          <line id="Línea_714" data-name="Línea 714" x2="2.353" y2="1.04" transform="translate(292.456 65.322)" fill="none" stroke="#004560" stroke-linecap="round" stroke-linejoin="round" stroke-width="1"/>
          <path id="Trazado_875201" data-name="Trazado 875201" d="M250.031,84.037a29.1,29.1,0,0,0,0,6.087" fill="none" stroke="#004560" stroke-linecap="round" stroke-linejoin="round" stroke-width="1"/>
          <path id="Trazado_875202" data-name="Trazado 875202" d="M254.194,95.515a19.785,19.785,0,0,0,0,3.742" fill="none" stroke="#004560" stroke-linecap="round" stroke-linejoin="round" stroke-width="1"/>
          <line id="Línea_715" data-name="Línea 715" y2="2.206" transform="translate(261.557 96.689)" fill="none" stroke="#004560" stroke-linecap="round" stroke-linejoin="round" stroke-width="1"/>
          <path id="Trazado_875203" data-name="Trazado 875203" d="M284.521,55.643s3.548,1.134,5.137,2.949" fill="none" stroke="#004560" stroke-linecap="round" stroke-linejoin="round" stroke-width="1"/>
          <line id="Línea_716" data-name="Línea 716" x2="0.214" y2="2.331" transform="translate(294.419 94.358)" fill="none" stroke="#004560" stroke-linecap="round" stroke-linejoin="round" stroke-width="1"/>
          <path id="Trazado_875204" data-name="Trazado 875204" d="M254.194,69.844a10.588,10.588,0,0,0-.529,4.627" fill="none" stroke="#004560" stroke-linecap="round" stroke-linejoin="round" stroke-width="1"/>
          <path id="Trazado_875205" data-name="Trazado 875205" d="M273.98,61.39a6.956,6.956,0,0,1-.933,3.1" fill="none" stroke="#004560" stroke-linecap="round" stroke-linejoin="round" stroke-width="1"/>
          <path id="Trazado_875206" data-name="Trazado 875206" d="M259.638,58.97a15.049,15.049,0,0,1,5.915-3.327" fill="none" stroke="#004560" stroke-linecap="round" stroke-linejoin="round" stroke-width="1"/>
          <path id="Trazado_875207" data-name="Trazado 875207" d="M343.186,6.417H303.034a8.4,8.4,0,0,0-8.4,8.4V45.654a8.4,8.4,0,0,0,8.4,8.4h13.23l-1.356,5.835a1.9,1.9,0,0,0,2.884,2.015l12-7.85h13.393a8.4,8.4,0,0,0,8.4-8.4V14.818a8.4,8.4,0,0,0-8.4-8.4" fill="#ff9400"/>
          <path id="Trazado_875208" data-name="Trazado 875208" d="M314.151,20.767a3.651,3.651,0,0,1-1.294-5.5c1.676-2.145,4.671-4.365,9.845-4.314,6.606.063,12.465,4.436,12.4,10.645-.042,4.316-3.283,6.925-7.527,8.691-1.5.646-1.56,1.879-1.574,3.332a2.466,2.466,0,0,1-2.49,2.442l-2.334-.023a2.467,2.467,0,0,1-2.442-2.491l.022-2.333c.019-1.937.123-3.521,2.117-4.78,2.7-1.69,5.214-1.8,5.244-4.926a3.507,3.507,0,0,0-3.532-3.644,4.842,4.842,0,0,0-3.942,1.889,3.682,3.682,0,0,1-4.5,1.012M327.318,43.63a5.042,5.042,0,1,1-5.015-5.113,5.028,5.028,0,0,1,5.015,5.113" fill="#fff"/>
        </g>
      </g>
    </g>
  </g>
</svg>
