<svg xmlns="http://www.w3.org/2000/svg" width="186" height="186" viewBox="0 0 186 186">
  <g id="_88" data-name="88" transform="translate(-1097.974 -765)">
    <circle id="Elipse_11529" data-name="Elipse 11529" cx="93" cy="93" r="93" transform="translate(1097.974 765)" fill="#fff"/>
    <g id="ignorar" transform="translate(1123.974 791)">
      <circle id="Elipse_11560" data-name="Elipse 11560" cx="36.5" cy="36.5" r="36.5" transform="translate(31 3)" fill="#e6e6e6"/>
      <path id="Trazado_875209" data-name="Trazado 875209" d="M41.006,31.741l2.7-21.15a4.592,4.592,0,0,0-9.138-.644l-8.58,41.1-7.475,4.983A36.549,36.549,0,0,0,31.562,66.674l6.612-3.487A12.874,12.874,0,0,0,45.3,51.668V36.031A4.3,4.3,0,0,0,41.006,31.741Z" transform="translate(20.056 5.725)" fill="#82abe3"/>
      <path id="Trazado_875210" data-name="Trazado 875210" d="M59.349,55.068l-6.044-4.029-8.58-41.1a4.593,4.593,0,0,0-9.138.644l2.7,21.15A4.3,4.3,0,0,0,34,36.024V51.661a12.875,12.875,0,0,0,7.123,11.519l5.587,2.947A36.6,36.6,0,0,0,59.349,55.068Z" transform="translate(37.787 5.732)" fill="#82abe3"/>
      <circle id="Elipse_11561" data-name="Elipse 11561" cx="8.5" cy="8.5" r="8.5" transform="translate(59 91)" fill="#82abe3"/>
      <path id="Trazado_875211" data-name="Trazado 875211" d="M71.771,59.58l-8.84-6.7A6.435,6.435,0,0,0,58.381,51H42.261a6.435,6.435,0,0,0-4.55,1.885l-8.84,6.7L16,57.435v8.58l15.015,4.29L39.6,63.87v12.87H61.046V63.87l8.58,6.435,15.015-4.29v-8.58Z" transform="translate(17.176 57.253)" fill="#82abe3"/>
      <path id="Trazado_875212" data-name="Trazado 875212" d="M34.176,36H4.145A2.145,2.145,0,0,0,2,38.145v23.6c0,1.185.96,4.29,2.145,4.29H34.176c1.185,0,2.145-3.105,2.145-4.29V55.305H47.046l-10.725-8.58v-8.58A2.145,2.145,0,0,0,34.176,36Z" transform="translate(1.145 40.077)" fill="#ccdbf0"/>
      <path id="Trazado_875213" data-name="Trazado 875213" d="M53.87,36H83.9a2.145,2.145,0,0,1,2.145,2.145v23.6c0,1.185-.96,4.29-2.145,4.29H53.87c-1.185,0-2.145-3.105-2.145-4.29V55.305H41l10.725-8.58v-8.58A2.145,2.145,0,0,1,53.87,36Z" transform="translate(45.802 40.077)" fill="#ccdbf0"/>
      <path id="Trazado_875214" data-name="Trazado 875214" d="M22.453,38.293,15.39,45.357,8.326,38.293,5.293,41.326l7.064,7.064L5.293,55.453l3.033,3.033,7.064-7.064,7.064,7.064,3.033-3.033L18.423,48.39l7.064-7.064Z" transform="translate(4.916 42.702)"/>
      <path id="Trazado_875215" data-name="Trazado 875215" d="M52.326,58.487l7.064-7.064,7.064,7.064,3.033-3.033L62.423,48.39l7.064-7.064-3.033-3.033L59.39,45.357l-7.064-7.064-3.033,3.033,7.064,7.064-7.064,7.064Z" transform="translate(55.298 42.702)"/>
      <path id="Trazado_875216" data-name="Trazado 875216" d="M52.611,1A38.611,38.611,0,1,0,91.222,39.611,38.611,38.611,0,0,0,52.611,1ZM27.1,62.491l5.344-4a2.144,2.144,0,0,0,.813-1.278l8.605-41.236a2.448,2.448,0,0,1,4.866.226L44.246,35.643a6.128,6.128,0,0,0-2.59,1.55,6.307,6.307,0,0,0-1.915,4.562v12.87h4.29V41.756a2.1,2.1,0,0,1,.658-1.529,2.058,2.058,0,0,1,1.487-.616,2.146,2.146,0,0,1,2.145,2.145V57.393a10.678,10.678,0,0,1-5.934,9.6l-5.854,2.918a34.493,34.493,0,0,1-9.43-7.421Zm42.578,6.852-4.7-2.349a10.676,10.676,0,0,1-5.937-9.6V41.756a2.146,2.146,0,0,1,2.145-2.145,2.1,2.1,0,0,1,1.529.658,2.058,2.058,0,0,1,.616,1.487v12.87h4.29V41.756a6.4,6.4,0,0,0-4.5-6.11L60.636,16.2a2.452,2.452,0,0,1,4.891-.09l8.58,41.1a2.125,2.125,0,0,0,.813,1.278l4.066,3.05a34.549,34.549,0,0,1-9.306,7.806ZM81.5,58.063,78.14,55.542,69.75,15.37a6.738,6.738,0,0,0-13.407.945,2.37,2.37,0,0,0,.017.272l2.453,19.2a6.435,6.435,0,0,0-4.058,5.968V57.393a14.949,14.949,0,0,0,8.308,13.438l1.684.842a33.784,33.784,0,0,1-23.042.452l2.6-1.294a14.948,14.948,0,0,0,8.308-13.438V41.756a6.435,6.435,0,0,0-4.058-5.968l2.453-19.2a2.37,2.37,0,0,0,.017-.272,6.734,6.734,0,0,0-13.381-1.081L29.227,55.539l-4.8,3.6A34.328,34.328,0,1,1,81.5,58.063Z" transform="translate(14.886)"/>
      <path id="Trazado_875217" data-name="Trazado 875217" d="M85.435,65.625,73.476,67.617l-8-6.054A8.622,8.622,0,0,0,59.956,59.2a10.725,10.725,0,1,0-16.981,0,8.622,8.622,0,0,0-5.524,2.361l-8,6.054L17.5,65.625a2.168,2.168,0,0,0-1.739.48A2.139,2.139,0,0,0,15,67.741v8.58a2.147,2.147,0,0,0,1.556,2.063l15.015,4.29a2.152,2.152,0,0,0,1.875-.348L38.6,78.466v8.58h4.29V74.176a2.144,2.144,0,0,0-3.431-1.716l-7.73,5.8L19.29,74.7v-4.43L29.663,72A2.163,2.163,0,0,0,31.31,71.6L40.15,64.9a1.955,1.955,0,0,0,.222-.193,4.321,4.321,0,0,1,3.033-1.257H59.527a4.321,4.321,0,0,1,3.033,1.257,1.951,1.951,0,0,0,.222.193l8.84,6.695A2.158,2.158,0,0,0,73.268,72l10.373-1.728V74.7L71.207,78.256l-7.73-5.8a2.144,2.144,0,0,0-3.431,1.716v12.87h4.29v-8.58l5.149,3.861a2.152,2.152,0,0,0,1.875.348l15.015-4.29a2.147,2.147,0,0,0,1.556-2.063v-8.58a2.139,2.139,0,0,0-.758-1.636,2.166,2.166,0,0,0-1.739-.48ZM51.466,59.16A6.435,6.435,0,1,1,57.9,52.725a6.435,6.435,0,0,1-6.435,6.435Z" transform="translate(16.031 46.947)"/>
      <path id="Trazado_875218" data-name="Trazado 875218" d="M39.611,62.886V58.6h8.58a2.146,2.146,0,0,0,1.341-3.821L39.611,46.84V39.29A4.3,4.3,0,0,0,35.321,35H5.29A4.3,4.3,0,0,0,1,39.29v23.6c0,1.362,1.073,6.435,4.29,6.435H35.321C38.538,69.321,39.611,64.247,39.611,62.886ZM5.927,65.031a6.333,6.333,0,0,1-.637-2.145V39.29H35.321v8.58a2.148,2.148,0,0,0,.8,1.676l5.951,4.759H37.466a2.144,2.144,0,0,0-2.145,2.145v6.435a6.333,6.333,0,0,1-.637,2.145Z" transform="translate(0 38.932)"/>
      <path id="Trazado_875219" data-name="Trazado 875219" d="M85.046,35H55.015a4.3,4.3,0,0,0-4.29,4.29v7.55L40.8,54.775A2.146,2.146,0,0,0,42.145,58.6h8.58v4.29c0,1.362,1.073,6.435,4.29,6.435H85.046c3.218,0,4.29-5.074,4.29-6.435V39.29A4.3,4.3,0,0,0,85.046,35Zm0,27.886a6.334,6.334,0,0,1-.637,2.145H55.654a6.459,6.459,0,0,1-.639-2.145V56.451a2.144,2.144,0,0,0-2.145-2.145H48.26l5.951-4.759a2.148,2.148,0,0,0,.8-1.676l0-8.58H85.046Z" transform="translate(44.657 38.932)"/>
    </g>
  </g>
</svg>
