<svg xmlns="http://www.w3.org/2000/svg" width="186" height="186" viewBox="0 0 186 186">
  <g id="_89" data-name="89" transform="translate(-8144 10835)">
    <circle id="Elipse_11530" data-name="Elipse 11530" cx="93" cy="93" r="93" transform="translate(8144 -10835)" fill="#fff"/>
    <g id="factura_1_" data-name="factura (1)" transform="translate(8179 -10801)">
      <path id="Trazado_875220" data-name="Trazado 875220" d="M112.476,110.934H41.358V15.486A7.486,7.486,0,0,0,33.872,8H104.99a7.486,7.486,0,0,1,7.486,7.486Z" transform="translate(-24.514 -6.128)" fill="#ececec"/>
      <g id="Grupo_1100523" data-name="Grupo 1100523" transform="translate(1.872 1.872)">
        <path id="Trazado_875221" data-name="Trazado 875221" d="M72,398.972h78.6a7.486,7.486,0,0,0,7.486-7.486V384H86.972v7.486a7.486,7.486,0,0,1-7.486,7.486Z" transform="translate(-57.028 -296.038)" fill="#fea82f"/>
        <path id="Trazado_875222" data-name="Trazado 875222" d="M22.972,30.458H8V15.486A7.486,7.486,0,0,1,15.486,8h0a7.486,7.486,0,0,1,7.486,7.486Z" transform="translate(-8 -8)" fill="#fea82f"/>
      </g>
      <path id="Trazado_875223" data-name="Trazado 875223" d="M333.1,155.672a18.719,18.719,0,0,0,0,35.713Z" transform="translate(-245.139 -119.254)" fill="#b6c1ce"/>
      <circle id="Elipse_11562" data-name="Elipse 11562" cx="18.644" cy="18.644" r="18.644" transform="translate(77.061 29.859)" fill="#fea82f"/>
      <path id="Trazado_875224" data-name="Trazado 875224" d="M346.715,216.844A18.718,18.718,0,0,1,328.094,200c-.06.616-.094,1.239-.094,1.872a18.715,18.715,0,0,0,37.431,0c0-.633-.034-1.256-.094-1.872A18.718,18.718,0,0,1,346.715,216.844Z" transform="translate(-251.267 -153.212)" fill="#ff8031"/>
      <g id="Grupo_1100524" data-name="Grupo 1100524" transform="translate(1.657 9.144)">
        <rect id="Rectángulo_401763" data-name="Rectángulo 401763" width="22.373" height="14.915" transform="translate(0 90.319)" fill="#92e0c0"/>
        <rect id="Rectángulo_401764" data-name="Rectángulo 401764" width="52.203" height="20.715" transform="translate(24.858 0)" fill="#92e0c0"/>
      </g>
      <rect id="Rectángulo_401765" data-name="Rectángulo 401765" width="14.915" height="4.972" transform="translate(1.657 19.087)" fill="#ff8031"/>
      <rect id="Rectángulo_401766" data-name="Rectángulo 401766" width="22.373" height="5.8" transform="translate(1.657 108.577)" fill="#48c397"/>
      <path id="Trazado_875225" data-name="Trazado 875225" d="M33.872,215.632l-1.814-14.51a7.316,7.316,0,0,1-.058-.928V184.282a7.315,7.315,0,0,1,.058-.928l1.559-12.466a4.966,4.966,0,0,1,1.52-3.251l10.7-13.765A3.255,3.255,0,0,1,48.816,152h0a3.771,3.771,0,0,1,3.771,3.771v.636a3.772,3.772,0,0,1-.7,2.192l-7.262,10.166a7.468,7.468,0,0,0-1.394,4.349v10.806a7.508,7.508,0,0,0,.79,3.348l2.953,5.9h0l8.2-8.2a3.967,3.967,0,0,1,2.807-1.162h0a3.97,3.97,0,0,1,3.97,3.97h0a3.967,3.967,0,0,1-1.162,2.807L46.972,204.4v11.229Z" transform="translate(-24.514 -116.441)" fill="#f9e0a6"/>
      <path id="Trazado_875226" data-name="Trazado 875226" d="M104,56.33h56.146V32H104Zm3.743-20.587H156.4V52.587h-48.66Z" transform="translate(-79.67 -24.514)"/>
      <rect id="Rectángulo_401767" data-name="Rectángulo 401767" width="37.288" height="4.143" transform="translate(33.973 58.032)"/>
      <rect id="Rectángulo_401768" data-name="Rectángulo 401768" width="11.601" height="3.314" transform="translate(37.288 43.117)"/>
      <rect id="Rectángulo_401769" data-name="Rectángulo 401769" width="10.772" height="3.314" transform="translate(56.346 43.117)"/>
      <rect id="Rectángulo_401770" data-name="Rectángulo 401770" width="11.601" height="3.314" transform="translate(37.288 50.574)"/>
      <rect id="Rectángulo_401771" data-name="Rectángulo 401771" width="10.772" height="3.314" transform="translate(56.346 50.574)"/>
      <rect id="Rectángulo_401772" data-name="Rectángulo 401772" width="29.83" height="4.143" transform="translate(50.545 72.947)"/>
      <rect id="Rectángulo_401773" data-name="Rectángulo 401773" width="10.772" height="4.143" transform="translate(69.604 80.404)"/>
      <rect id="Rectángulo_401774" data-name="Rectángulo 401774" width="11.601" height="4.143" transform="translate(50.545 80.404)"/>
      <path id="Trazado_875227" data-name="Trazado 875227" d="M389.615,159.486a1.873,1.873,0,0,1,1.872,1.872h3.743a5.607,5.607,0,0,0-3.743-5.27V152h-3.743v4.087a5.6,5.6,0,0,0,1.872,10.885,1.872,1.872,0,1,1-1.872,1.872H384a5.607,5.607,0,0,0,3.743,5.27V178.2h3.743v-4.087a5.6,5.6,0,0,0-1.872-10.885,1.872,1.872,0,1,1,0-3.743Z" transform="translate(-294.166 -116.441)"/>
      <rect id="Rectángulo_401775" data-name="Rectángulo 401775" width="4.143" height="4.143" transform="translate(104.405 46.431)"/>
      <rect id="Rectángulo_401776" data-name="Rectángulo 401776" width="4.143" height="4.143" transform="translate(82.033 46.431)"/>
      <path id="Trazado_875228" data-name="Trazado 875228" d="M112.668,59.947A20.559,20.559,0,0,0,89.834,28.87V9.358A9.368,9.368,0,0,0,80.476,0H9.358A9.368,9.368,0,0,0,0,9.358V26.2H14.972V40.146L7.393,49.89a6.916,6.916,0,0,0-2.019,4.323L3.816,66.681a9.634,9.634,0,0,0-.073,1.16V83.753a9.61,9.61,0,0,0,.073,1.16L5.366,97.32H0v18.715H26.2v-9.358H95.448a9.368,9.368,0,0,0,9.358-9.358V87.962H89.834V68.45a20.479,20.479,0,0,0,20.194-5.255l-2.65-2.643a16.812,16.812,0,1,1,2.162-2.659ZM3.743,22.458V9.358a5.615,5.615,0,1,1,11.229,0v13.1ZM7.529,84.451a5.825,5.825,0,0,1-.043-.7V67.841a5.77,5.77,0,0,1,.043-.7L9.086,54.679A3.291,3.291,0,0,1,9.9,52.667L20.933,38.58l.174-.268a1.391,1.391,0,0,1,1.323-.881,1.9,1.9,0,0,1,1.9,1.9v.636a1.9,1.9,0,0,1-.352,1.1L16.717,51.237a9.287,9.287,0,0,0-1.744,5.437V67.48a9.446,9.446,0,0,0,.986,4.185l1.6,3.2h-.715V78.6h4.518l8.744-8.744a2.1,2.1,0,0,1,3.582,1.484,2.082,2.082,0,0,1-.614,1.484L18.715,87.187V97.32H9.139Zm14.929,27.841H3.743V101.063H22.458Zm78.6-14.972a5.621,5.621,0,0,1-5.615,5.615H31.812a9.308,9.308,0,0,0,1.875-5.615V91.705h67.375Zm-26.2-48.66A20.6,20.6,0,0,0,86.091,66.975V87.962H29.945V97.32a5.607,5.607,0,0,1-3.743,5.27V97.32H22.458V88.737L35.72,75.475A5.841,5.841,0,0,0,31.59,65.5a5.88,5.88,0,0,0-4.13,1.711L21.1,73.574l-1.793-3.582a5.655,5.655,0,0,1-.591-2.512V56.674a5.584,5.584,0,0,1,1.046-3.264l7.262-10.166a5.6,5.6,0,0,0,1.05-3.279v-.636a5.65,5.65,0,0,0-5.643-5.641,5.017,5.017,0,0,0-3.715,1.6V9.358A9.261,9.261,0,0,0,16.8,3.743H80.476a5.621,5.621,0,0,1,5.615,5.615V30.345A20.6,20.6,0,0,0,74.861,48.66Z"/>
    </g>
  </g>
</svg>
