<svg xmlns="http://www.w3.org/2000/svg" width="190" height="190" viewBox="0 0 190 190">
  <g id="_9" data-name="9" transform="translate(-252.051 -1758)">
    <circle id="Elipse_11490" data-name="Elipse 11490" cx="95" cy="95" r="95" transform="translate(252.051 1758)" fill="#22cac5"/>
    <g id="bolsa-de-dinero" transform="translate(297.051 1802.13)">
      <g id="Grupo_1099808" data-name="Grupo 1099808" transform="translate(2.593 2.671)">
        <g id="Grupo_1099799" data-name="Grupo 1099799" transform="translate(44.618 6.82)">
          <path id="Trazado_873507" data-name="Trazado 873507" d="M39.179,6.28l5.163,15.489h-4.78L30,12.208a5.419,5.419,0,0,1,4.749-5.37l4.414-.558Z" transform="translate(-30 -6.28)" fill="#d3a06c"/>
        </g>
        <g id="Grupo_1099800" data-name="Grupo 1099800" transform="translate(52.585)">
          <path id="Trazado_873508" data-name="Trazado 873508" d="M57.309,3.593,55.715,8.772l-4.78,15.537H41.374L36.211,8.82,35,5.187l7.967-1.593,3.187,4.78L50.935,2Z" transform="translate(-35 -2)" fill="#d3a06c"/>
        </g>
        <g id="Grupo_1099801" data-name="Grupo 1099801" transform="translate(68.52 6.772)">
          <path id="Trazado_873509" data-name="Trazado 873509" d="M59.341,12.226,49.78,21.787H45L49.78,6.25l4.812.606A5.419,5.419,0,0,1,59.341,12.226Z" transform="translate(-45 -6.25)" fill="#d3a06c"/>
        </g>
        <g id="Grupo_1099802" data-name="Grupo 1099802" transform="translate(47.805 22.309)">
          <path id="Trazado_873510" data-name="Trazado 873510" d="M60.683,16a3.2,3.2,0,0,1,3.187,3.187,3.21,3.21,0,0,1-3.187,3.187h-25.5A3.2,3.2,0,0,1,32,19.187,3.21,3.21,0,0,1,35.187,16h25.5Z" transform="translate(-32 -16)" fill="#ccd1d9"/>
        </g>
        <g id="Grupo_1099803" data-name="Grupo 1099803" transform="translate(31.87 28.683)">
          <path id="Trazado_873511" data-name="Trazado 873511" d="M50.683,67.8V55.057H22.319a30.724,30.724,0,0,1-.319-4.4A29.924,29.924,0,0,1,35.72,25.513L44.309,20H63.431l8.589,5.513A29.9,29.9,0,0,1,55.846,80.553H51.894c-.414,0-.813-.016-1.211-.032Z" transform="translate(-22 -20)" fill="#cf9e76"/>
        </g>
        <g id="Grupo_1099804" data-name="Grupo 1099804" transform="translate(23.902 63.74)">
          <path id="Trazado_873512" data-name="Trazado 873512" d="M53.65,67.464V73.87H17A15.935,15.935,0,0,0,17,42H53.65V67.464Z" transform="translate(-17 -42)" fill="#b4dd7f"/>
        </g>
        <g id="Grupo_1099805" data-name="Grupo 1099805" transform="translate(7.967 63.74)">
          <circle id="Elipse_11497" data-name="Elipse 11497" cx="15.935" cy="15.935" r="15.935" fill="#fcd770"/>
        </g>
        <g id="Grupo_1099806" data-name="Grupo 1099806" transform="translate(0 57.366)">
          <path id="Trazado_873513" data-name="Trazado 873513" d="M17.935,44.374H25.9a15.935,15.935,0,0,0,0,31.87H8.374A6.372,6.372,0,0,1,2,69.87V38a6.372,6.372,0,0,0,6.374,6.374Z" transform="translate(-2 -38)" fill="#b4dd7f"/>
        </g>
        <g id="Grupo_1099807" data-name="Grupo 1099807" transform="translate(0 50.992)">
          <path id="Trazado_873514" data-name="Trazado 873514" d="M17.935,34V46.748H8.374A6.374,6.374,0,1,1,8.374,34Z" transform="translate(-2 -34)" fill="#a0d468"/>
        </g>
      </g>
      <g id="Grupo_1099809" data-name="Grupo 1099809" transform="translate(1 0.87)">
        <path id="Trazado_873515" data-name="Trazado 873515" d="M25,40.252l3.187.049a22.211,22.211,0,0,1,.249-2.977l-3.152-.476A25.4,25.4,0,0,0,25,40.252Z" transform="translate(13.245 20.483)"/>
        <path id="Trazado_873516" data-name="Trazado 873516" d="M36.14,26.471a25.079,25.079,0,0,0-10.479,13.9l3.053.911a21.9,21.9,0,0,1,9.15-12.128L39.9,27.846l-1.723-2.68Z" transform="translate(13.636 13.55)"/>
        <path id="Trazado_873517" data-name="Trazado 873517" d="M60.238,38.981l-3.187.059,0,.355a21.939,21.939,0,0,1-.145,2.526l3.166.365a25.385,25.385,0,0,0,.166-2.889Z" transform="translate(32.182 21.749)"/>
        <path id="Trazado_873518" data-name="Trazado 873518" d="M47.677,57.9l1.029,3.016A25.085,25.085,0,0,0,64.876,43.6l-3.08-.822A21.9,21.9,0,0,1,47.677,57.9Z" transform="translate(26.703 24.004)"/>
        <path id="Trazado_873519" data-name="Trazado 873519" d="M85.337,35.53,80.8,32.614a4.758,4.758,0,0,0-1.12-9.167l7.368-7.368v-.66a7.019,7.019,0,0,0-6.14-6.954L77.975,8.1l1.53-4.97L70.475.87,66.41,6.288l-2.53-3.8L53.095,4.65l1.168,3.5-2.507.312a7.019,7.019,0,0,0-6.138,6.954v.66l7.368,7.368a4.758,4.758,0,0,0-1.12,9.167L47.329,35.53A31.35,31.35,0,0,0,32.87,62.014c0,.935.056,1.871.137,2.8H20.122V52.069H8.967A7.977,7.977,0,0,0,1,60.037v31.87a7.977,7.977,0,0,0,7.967,7.967H64.74V93.5h3.571A31.485,31.485,0,0,0,85.337,35.53Zm-4.824-23.9a3.832,3.832,0,0,1,3.3,3.181l-8.578,8.579H73.271l3.753-12.2Zm-18.1-5.59L66.258,11.8l5.5-7.33,3.716.929L69.938,23.386H62.7L57.262,7.067Zm-10.261,5.59,3.138-.392,4.051,12.152H57.432l-8.578-8.579a3.832,3.832,0,0,1,3.3-3.181Zm1.433,14.947h25.5a1.593,1.593,0,1,1,0,3.187h-25.5a1.593,1.593,0,0,1,0-3.187ZM8.967,55.256h7.967v9.561H8.967a4.78,4.78,0,1,1,0-9.561Zm0,41.431a4.786,4.786,0,0,1-4.78-4.78v-25.5A7.925,7.925,0,0,0,8.967,68h7.481a17.487,17.487,0,0,0,0,28.683ZM26.5,68A14.341,14.341,0,1,1,12.154,82.345,14.358,14.358,0,0,1,26.5,68ZM61.553,96.687H36.543a17.487,17.487,0,0,0,0-28.683h25.01ZM64.74,67.328A7.888,7.888,0,0,0,67.927,68a4.78,4.78,0,1,1,0,9.561H64.74Zm3.571,22.985H64.74V80.752h3.187a7.967,7.967,0,1,0,0-15.935,4.78,4.78,0,1,1,0-9.561h4.78v4.78h3.187V52.069H69.52V48.882H66.333V52.23a7.981,7.981,0,0,0-6.374,7.807,7.885,7.885,0,0,0,1.635,4.78H36.211c-.091-.931-.155-1.866-.155-2.8a28.184,28.184,0,0,1,12.995-23.8l8.187-5.263H75.427l8.187,5.263a28.3,28.3,0,0,1-15.3,52.1Z" transform="translate(-1 -0.87)"/>
        <path id="Trazado_873520" data-name="Trazado 873520" d="M17.78,67.309h3.187V64.122a4.78,4.78,0,0,0,0-9.561H17.78a1.593,1.593,0,1,1,0-3.187h4.78v1.593h3.187v-4.78h-4.78V45H17.78v3.187a4.78,4.78,0,0,0,0,9.561h3.187a1.593,1.593,0,1,1,0,3.187h-4.78V59.341H13v4.78h4.78Z" transform="translate(6.122 25.321)"/>
        <path id="Trazado_873521" data-name="Trazado 873521" d="M36.78,52.967h3.187V45H32v3.187h4.78Z" transform="translate(17.398 25.321)"/>
        <path id="Trazado_873522" data-name="Trazado 873522" d="M39.967,54H36.78v4.78H32v3.187h7.967Z" transform="translate(17.398 30.662)"/>
      </g>
    </g>
  </g>
</svg>
