<svg xmlns="http://www.w3.org/2000/svg" width="96.762" height="96.762" viewBox="0 0 96.762 96.762">
  <g id="_94" data-name="94" transform="translate(-699.457 -547)">
    <g id="Grupo_1099174" data-name="Grupo 1099174" transform="translate(699.457 547)">
      <g id="Grupo_1099167" data-name="Grupo 1099167" transform="translate(0 0)">
        <path id="Trazado_873000" data-name="Trazado 873000" d="M48.381,0h0V22.476a25.9,25.9,0,1,0,25.905,25.9H96.762A48.381,48.381,0,1,1,48.381,0" transform="translate(0 96.762) rotate(-90)" fill="#201144"/>
      </g>
      <rect id="Rectángulo_401249" data-name="Rectángulo 401249" width="66.409" height="66.409" rx="33.204" transform="translate(15.157 15.157)" fill="#e8faf9"/>
    </g>
    <g id="filled_outline" data-name="filled outline" transform="translate(704.283 523)">
      <path id="Trazado_875292" data-name="Trazado 875292" d="M67.3,86.344a6.379,6.379,0,0,0-4.574-1.332l-.722-5.054.85-6.8h0a.875.875,0,0,0,.008-.107V61.823A13.824,13.824,0,0,0,49.042,48a22.93,22.93,0,0,0-10.207,2.41l-5.311,2.655a1.619,1.619,0,0,0-.9,1.45,4.927,4.927,0,0,0,2.589,4.336l.812,5.277-2.489,1.382a3.458,3.458,0,0,0-1.777,3.021v2.011l-3.689,2.3a.864.864,0,0,0-.276,1.19l3.965,6.357v.1L18.174,94.925l1.258,1.184L33.255,81.422a.864.864,0,0,0,.235-.592v-12.3a1.729,1.729,0,0,1,.888-1.51l2.756-1.531c.024-.014.049-.026.073-.038l.013-.006a1.62,1.62,0,0,1,2.317,1.462v11.33a.864.864,0,0,0,1.308.741l2.584-1.551a1.728,1.728,0,0,1,2.111.259.482.482,0,0,1-.074.742L39.059,82.7a.864.864,0,0,0-.2.186l-7.138,9.086-1.928.419a4.1,4.1,0,0,0-3.213,3.987h1.728a2.366,2.366,0,0,1,1.852-2.3L47.5,90.313l.014,0h0L62.2,86.854l.012,0a4.7,4.7,0,0,1,5.838,4.558v4.971h1.728V91.41A6.386,6.386,0,0,0,67.3,86.344ZM29.72,73.853l2.042-1.274v4.547Zm18.2,14.587-.549-1.918L60.8,83.694l.237,1.659Zm-8.31-36.484a21.2,21.2,0,0,1,9.433-2.227,12.1,12.1,0,0,1,12.1,12.094V72.456l-3.4,1.276A1.727,1.727,0,0,1,55.424,72.4l-.895-5.369.013-.06A2.807,2.807,0,0,0,51.8,63.551H49.551a2.233,2.233,0,0,0-1.412.5L46.925,62.1a.864.864,0,0,0-1.19-.276l-.667.416-2.154-4.669A.865.865,0,0,0,42,57.081l-3.976.6a3.2,3.2,0,0,1-3.672-3.1Zm12.76,16.835a3.23,3.23,0,0,1-.531,1.185l-2.747-4.4a.506.506,0,0,1,.461-.293H51.8a1.079,1.079,0,0,1,1.054,1.314ZM39.7,64.073a3.338,3.338,0,0,0-2.009-.508l-.638-4.152a4.926,4.926,0,0,0,1.231-.028l3.334-.5,1.974,4.278L40.663,64.99a3.349,3.349,0,0,0-.965-.917Zm1.567,12.639v-9.8c0-.084,0-.168-.01-.252l4.661-2.907,4.547,7.29Zm5.161,3.155a2.21,2.21,0,0,0,.337-3.4,3.466,3.466,0,0,0-.789-.591l5.134-3.2A4.955,4.955,0,0,0,53.4,70.75l.322,1.931a3.452,3.452,0,0,0,4.622,2.668l2.624-.984-.687,5.494a.862.862,0,0,0,0,.229l.27,1.892L46.893,84.855l-.477-1.671a.864.864,0,0,0-1.04-.6l-3.064.766a2.585,2.585,0,0,1-1.148.027ZM34.369,91.4l5.3-6.744a4.271,4.271,0,0,0,3.064.37l2.253-.563,1.245,4.359Z" transform="translate(0 0)" fill="#201144"/>
      <path id="Trazado_875293" data-name="Trazado 875293" d="M40,320h5.184v1.728H40Z" transform="translate(-19.469 -242.626)" fill="#201144"/>
      <path id="Trazado_875294" data-name="Trazado 875294" d="M0,0H1.728V5.8H0Z" transform="translate(20.132 72.96) rotate(-63.435)" fill="#201144"/>
      <path id="Trazado_875295" data-name="Trazado 875295" d="M0,0H5.8V1.728H0Z" transform="translate(20.135 83.497) rotate(-26.565)" fill="#201144"/>
    </g>
  </g>
</svg>
