<svg xmlns="http://www.w3.org/2000/svg" width="96.762" height="96.762" viewBox="0 0 96.762 96.762">
  <g id="_99" data-name="99" transform="translate(-206.008 -405)">
    <g id="Grupo_1099332" data-name="Grupo 1099332" transform="translate(-120.773 -3571)">
      <g id="Grupo_1099174" data-name="Grupo 1099174" transform="translate(326.781 3976)">
        <g id="Grupo_1099167" data-name="Grupo 1099167" transform="translate(0 0)">
          <path id="Trazado_873000" data-name="Trazado 873000" d="M48.381,0h0V22.476a25.9,25.9,0,1,0,25.905,25.9H96.762A48.381,48.381,0,1,1,48.381,0" transform="translate(0 96.762) rotate(-90)" fill="#201144"/>
        </g>
        <rect id="Rectángulo_401249" data-name="Rectángulo 401249" width="66.409" height="66.409" rx="33.204" transform="translate(15.157 15.157)" fill="#e8faf9"/>
      </g>
    </g>
    <g id="Page-1" transform="translate(231.33 429.94)">
      <g id="_059---Money-Bag" data-name="059---Money-Bag" transform="translate(0 -0.001)">
        <g id="Grupo_1100588" data-name="Grupo 1100588">
          <path id="Shape" d="M36.332,11.81c3.813.287,5.041,1.874,5.077,1.922a.769.769,0,0,0,1.273-.862c-.055-.083-1.123-1.608-4.228-2.306A3.526,3.526,0,0,0,39.74,7.918,3.947,3.947,0,0,0,36.8,4.337a14.02,14.02,0,0,0,.1-1.673,1.537,1.537,0,0,0-2.138-1.413,4.391,4.391,0,0,0-1.07.686,2.02,2.02,0,0,1-2.872,0,3.536,3.536,0,0,0-4.8,0,2.021,2.021,0,0,1-2.873,0,4.4,4.4,0,0,0-1.067-.686,1.537,1.537,0,0,0-2.135,1.413c0,1.912.378,5.324,2.773,7.614a21.206,21.206,0,0,0-3.507,2.668v-5.8c0-1.753-2.479-3.075-5.765-3.075S7.687,5.4,7.687,7.149v7.744c-2.7.269-4.612,1.48-4.612,3.017V37.461C1.218,37.96,0,38.972,0,40.2v3.843C0,45.8,2.479,47.12,5.765,47.12c2.939,0,5.227-1.058,5.678-2.537a8.634,8.634,0,0,0,4.315,1c3.286,0,5.765-1.322,5.765-3.075V32.515c0-1.753-2.479-3.075-5.765-3.075A11.406,11.406,0,0,0,14.6,29.5V17.91c0-1.683-2.288-2.965-5.381-3.065V9.278a8.754,8.754,0,0,0,4.228.946,8.754,8.754,0,0,0,4.228-.946V14.52c-.506.567-1.015,1.184-1.517,1.868A.769.769,0,0,0,17.4,17.3a23.3,23.3,0,0,1,1.585-1.922l.018-.02a20.207,20.207,0,0,1,5.1-4.089,4.878,4.878,0,0,0,1.186.394L23.31,13.509a.769.769,0,0,0,1.05,1.124l3.075-2.868h.245v2.306a.769.769,0,1,0,1.537,0v-2.31h.245l3.075,2.868a.769.769,0,0,0,1.05-1.124l-1.995-1.857a4.843,4.843,0,0,0,1.178-.4c2.032,1.1,8.71,5.442,11.211,16.058,1.088,4.621.7,8.156-1.165,10.5-2.38,3-6.509,3.155-7.312,3.155H24.6a.769.769,0,1,0,0,1.537H35.5c1.307,0,5.769-.27,8.517-3.738,2.166-2.736,2.657-6.71,1.456-11.811A26.8,26.8,0,0,0,36.332,11.81ZM5.765,38.664c2.542,0,4.228.922,4.228,1.537s-1.686,1.537-4.228,1.537S1.537,40.817,1.537,40.2,3.223,38.664,5.765,38.664Zm0,6.918c-2.542,0-4.228-.922-4.228-1.537V42.33a8.754,8.754,0,0,0,4.228.946,8.754,8.754,0,0,0,4.228-.946v1.715C9.993,44.66,8.307,45.582,5.765,45.582Zm9.993-1.537c-2.542,0-4.228-.922-4.228-1.537V34.643a8.754,8.754,0,0,0,4.228.946,8.754,8.754,0,0,0,4.228-.946v7.864C19.985,43.123,18.3,44.045,15.758,44.045Zm4.228-11.53c0,.615-1.686,1.537-4.228,1.537s-4.228-.922-4.228-1.537,1.686-1.537,4.228-1.537S19.985,31.9,19.985,32.515Zm-9.993,0v5.558a8.753,8.753,0,0,0-4.228-.946,11.406,11.406,0,0,0-1.153.058V20.039a8.754,8.754,0,0,0,4.228.946,8.754,8.754,0,0,0,4.228-.946v9.736C11.21,30.274,9.993,31.285,9.993,32.515Zm3.075-14.6c0,.615-1.686,1.537-4.228,1.537s-4.228-.922-4.228-1.537S6.3,16.373,8.84,16.373,13.067,17.3,13.067,17.91Zm.384-9.224c-2.542,0-4.228-.922-4.228-1.537s1.686-1.537,4.228-1.537,4.228.922,4.228,1.537S15.994,8.686,13.452,8.686ZM38.2,7.918c0,1.26-1.364,2.294-3.075,2.306a3.969,3.969,0,0,1-.85-.1,9.114,9.114,0,0,0,2.245-4.251A2.355,2.355,0,0,1,38.2,7.918ZM22.19,3.137a3.534,3.534,0,0,0,4.795,0,2.023,2.023,0,0,1,2.875,0,3.537,3.537,0,0,0,4.8,0,3.219,3.219,0,0,1,.7-.473c0,1.427-.265,4.956-2.742,6.891a3.3,3.3,0,0,1-1.929.66A16.625,16.625,0,0,0,32.26,6.586a.769.769,0,0,0-1.482-.412,14.1,14.1,0,0,1-1.939,4.05h-.79a14.234,14.234,0,0,1-1.939-4.05.769.769,0,1,0-1.481.413,16.637,16.637,0,0,0,1.57,3.632,3.305,3.305,0,0,1-1.969-.663c-2.477-1.934-2.742-5.463-2.742-6.886a3.006,3.006,0,0,1,.7.467Z" transform="translate(0 -0.999)" fill="#201144"/>
          <path id="Shape-2" data-name="Shape" d="M52.066,46.114A7.379,7.379,0,0,0,53.477,41.8a.769.769,0,0,0-.731-.8.777.777,0,0,0-.8.731,5.886,5.886,0,0,1-1.082,3.428c-1.5,1.894-4.345,1.99-4.9,1.99a.769.769,0,0,0,0,1.537C46.638,48.686,50.126,48.563,52.066,46.114Z" transform="translate(-10.454 -10.253)" fill="#201144"/>
          <path id="Shape-3" data-name="Shape" d="M33.537,32.224a.769.769,0,1,0-1.537,0A3.075,3.075,0,0,0,35.075,35.3v.769a.769.769,0,1,0,1.537,0V35.3a3.075,3.075,0,1,0,0-6.149V26.075a1.537,1.537,0,0,1,1.537,1.537.769.769,0,1,0,1.537,0,3.075,3.075,0,0,0-3.075-3.075v-.769a.769.769,0,1,0-1.537,0v.769a3.075,3.075,0,0,0,0,6.149v3.075A1.537,1.537,0,0,1,33.537,32.224Zm0-4.612a1.537,1.537,0,0,1,1.537-1.537v3.075A1.537,1.537,0,0,1,33.537,27.612Zm3.075,3.075a1.537,1.537,0,1,1,0,3.075Z" transform="translate(-7.403 -6.089)" fill="#201144"/>
        </g>
      </g>
    </g>
  </g>
</svg>
