<svg xmlns="http://www.w3.org/2000/svg" xmlns:xlink="http://www.w3.org/1999/xlink" width="178" height="178" viewBox="0 0 178 178">
  <defs>
    <filter id="Trazado_873048" x="0" y="0" width="178" height="178" filterUnits="userSpaceOnUse">
      <feOffset dy="8" input="SourceAlpha"/>
      <feGaussianBlur stdDeviation="13.5" result="blur"/>
      <feFlood flood-opacity="0.518"/>
      <feComposite operator="in" in2="blur"/>
      <feComposite in="SourceGraphic"/>
    </filter>
  </defs>
  <g id="a2" transform="translate(-944.833 -349.5)">
    <g transform="matrix(1, 0, 0, 1, 944.83, 349.5)" filter="url(#Trazado_873048)">
      <path id="Trazado_873048-2" data-name="Trazado 873048" d="M48.5,0A48.5,48.5,0,1,1,0,48.5,48.5,48.5,0,0,1,48.5,0Z" transform="translate(40.5 32.5)" fill="#fff"/>
    </g>
    <g id="dinero" transform="translate(996.03 396.334)">
      <path id="Trazado_873287" data-name="Trazado 873287" d="M306.669,190.822l-4.481,4.481-12.356,8.928-2.184-2.184.045-.056a6.161,6.161,0,1,0-6.767-6.688l-.011.011-3.931-3.932,15.123-15.123Z" transform="translate(-236.38 -152.737)" fill="#03aa6f"/>
      <path id="Trazado_873288" data-name="Trazado 873288" d="M70.289,323.43,46.765,343.593H40.044l-21.284-7.841H4.2V323.43H18.761l.784-.336,4.817-2.061,2.24-.963H44.525v6.721H31.082l14.563,6.721,7.808-5.635,12.356-8.928Z" transform="translate(0 -276.382)" fill="#f5d0c7"/>
      <path id="Trazado_873289" data-name="Trazado 873289" d="M318.756,282.9a6.153,6.153,0,0,1-5.534,6.127l-.045.056-6.183-6.183-.549-.549.011-.011a6.161,6.161,0,0,1,12.3.56Z" transform="translate(-261.909 -239.774)" fill="#79dca0"/>
      <path id="Trazado_873290" data-name="Trazado 873290" d="M228.01,331.513l-7.808,5.635-14.563-6.721h13.442v-6.721l.56-.56,6.184,6.184Z" transform="translate(-174.557 -280.018)" fill="#03aa6f"/>
      <path id="Trazado_873291" data-name="Trazado 873291" d="M215.722,57.088a3.716,3.716,0,0,0,2.375-.818,2.593,2.593,0,0,0,.986-1.983,1.679,1.679,0,0,0-1.243-1.535l-2.117-.706V47.006a3.716,3.716,0,0,0-2.375.818,2.593,2.593,0,0,0-.986,1.983,1.679,1.679,0,0,0,1.243,1.535l2.117.706Zm0-15.123A10.082,10.082,0,1,1,205.64,52.047,10.081,10.081,0,0,1,215.722,41.965Z" transform="translate(-174.557 -36.365)" fill="#ffdb6f"/>
      <path id="Trazado_873292" data-name="Trazado 873292" d="M81.451,188.59l-.56.56H74.08a6.721,6.721,0,0,0-13.353.963l-4.817,2.061-9.746-9.746,14.563-14.562L76.97,184.11l3.932,3.932Z" transform="translate(-36.366 -145.464)" fill="#03aa6f"/>
      <g id="Grupo_1099325" data-name="Grupo 1099325" transform="translate(37.804 10.641)">
        <path id="Trazado_873293" data-name="Trazado 873293" d="M284.543,119.746a2.594,2.594,0,0,1-.986,1.983,3.715,3.715,0,0,1-2.375.818v-5.041l2.117.706A1.68,1.68,0,0,1,284.543,119.746Z" transform="translate(-277.821 -112.465)" fill="#ffdb6f"/>
        <path id="Trazado_873294" data-name="Trazado 873294" d="M259.361,79.734v5.041l-2.117-.706A1.68,1.68,0,0,1,256,82.534a2.594,2.594,0,0,1,.986-1.983A3.718,3.718,0,0,1,259.361,79.734Z" transform="translate(-256 -79.734)" fill="#ffdb6f"/>
      </g>
      <path id="Trazado_873295" data-name="Trazado 873295" d="M168.633,290.757H157.52l-2.24.963a6.721,6.721,0,0,1,13.353-.963Z" transform="translate(-130.919 -247.07)" fill="#79dca0"/>
      <g id="Grupo_1099326" data-name="Grupo 1099326" transform="translate(25.482 0)">
        <path id="Trazado_873296" data-name="Trazado 873296" d="M233.57,4.358a13.627,13.627,0,0,0-14.471,0l-1.212-1.884a15.657,15.657,0,0,1,16.895,0Z" transform="translate(-210.652 0)" fill="#ffdb6f"/>
        <path id="Trazado_873297" data-name="Trazado 873297" d="M164.879,123.537a15.654,15.654,0,0,1-1.205-6.031h2.24a13.386,13.386,0,0,0,1.035,5.171Z" transform="translate(-163.674 -101.824)" fill="#ffdb6f"/>
        <path id="Trazado_873298" data-name="Trazado 873298" d="M281.181,213.747v-2.24a13.386,13.386,0,0,0,5.171-1.035l.86,2.07A15.652,15.652,0,0,1,281.181,213.747Z" transform="translate(-265.499 -182.381)" fill="#ffdb6f"/>
        <path id="Trazado_873299" data-name="Trazado 873299" d="M376.217,123.537l-2.07-.86a13.389,13.389,0,0,0,1.035-5.171h2.24A15.656,15.656,0,0,1,376.217,123.537Z" transform="translate(-346.057 -101.824)" fill="#ffdb6f"/>
      </g>
      <g id="Grupo_1099327" data-name="Grupo 1099327" transform="translate(29.962 4.48)">
        <path id="Trazado_873300" data-name="Trazado 873300" d="M208.449,55.977a11.2,11.2,0,1,1,11.2-11.2A11.2,11.2,0,0,1,208.449,55.977Zm0-20.163a8.962,8.962,0,1,0,8.962,8.962A8.962,8.962,0,0,0,208.449,35.813Z" transform="translate(-197.247 -33.573)" fill="#ff8030"/>
        <path id="Trazado_873301" data-name="Trazado 873301" d="M252.089,83.612A4.825,4.825,0,0,1,249,82.535a3.722,3.722,0,0,1-1.388-2.843h2.24a1.474,1.474,0,0,0,.583,1.12,2.841,2.841,0,0,0,3.315,0,1.473,1.473,0,0,0,.584-1.12c0-.157-.162-.368-.473-.47l-4.239-1.414a2.8,2.8,0,0,1-2.01-2.6A3.722,3.722,0,0,1,249,72.368a4.821,4.821,0,0,1,3.092-1.078,4.233,4.233,0,0,1,4.481,3.921h-2.24c0-.911-1.026-1.68-2.24-1.68a2.611,2.611,0,0,0-1.657.56,1.473,1.473,0,0,0-.584,1.12c0,.157.162.368.473.47l4.239,1.414a2.8,2.8,0,0,1,2.01,2.6,3.722,3.722,0,0,1-1.389,2.843A4.82,4.82,0,0,1,252.089,83.612Z" transform="translate(-240.887 -66.249)" fill="#ff8030"/>
        <rect id="Rectángulo_401299" data-name="Rectángulo 401299" width="2.24" height="13.442" transform="translate(10.082 4.481)" fill="#ff8030"/>
      </g>
      <path id="Trazado_873302" data-name="Trazado 873302" d="M219.1,4.363a13.631,13.631,0,0,1,14.47,0l1.21-1.886a15.657,15.657,0,0,0-16.889,0Z" transform="translate(-185.177 -0.003)"/>
      <path id="Trazado_873303" data-name="Trazado 873303" d="M163.673,117.505a15.579,15.579,0,0,0,1.208,6.037l2.068-.865a13.353,13.353,0,0,1-1.035-5.172h-2.24Z" transform="translate(-138.191 -101.823)"/>
      <path id="Trazado_873304" data-name="Trazado 873304" d="M281.18,213.754a15.54,15.54,0,0,0,6.033-1.206l-.867-2.068a13.3,13.3,0,0,1-5.166,1.034v2.24Z" transform="translate(-240.016 -182.39)"/>
      <path id="Trazado_873305" data-name="Trazado 873305" d="M376.224,123.539a15.562,15.562,0,0,0,1.206-6.033h-2.24a13.313,13.313,0,0,1-1.034,5.169Z" transform="translate(-320.583 -101.824)"/>
      <path id="Trazado_873306" data-name="Trazado 873306" d="M219.652,44.774a11.2,11.2,0,1,0-11.2,11.2A11.2,11.2,0,0,0,219.652,44.774Zm-11.2,8.962a8.962,8.962,0,1,1,8.962-8.962A8.962,8.962,0,0,1,208.45,53.735Z" transform="translate(-167.286 -29.092)"/>
      <path id="Trazado_873307" data-name="Trazado 873307" d="M254.329,71.626h2.24a4.055,4.055,0,0,0-3.361-3.782v-.7h-2.24v.7a4.055,4.055,0,0,0-3.361,3.782,2.814,2.814,0,0,0,2.016,2.6l1.344.448v2.872a1.68,1.68,0,0,1-1.12-1.437h-2.24a4.055,4.055,0,0,0,3.361,3.782v.7h2.24v-.7a4.055,4.055,0,0,0,3.361-3.782,2.814,2.814,0,0,0-2.016-2.6l-1.344-.448V70.186A1.68,1.68,0,0,1,254.329,71.626Zm-.482,4.007c.283.1.482.29.482.474a1.68,1.68,0,0,1-1.12,1.439V75.418ZM250.33,72.1c-.283-.1-.482-.29-.482-.474a1.68,1.68,0,0,1,1.12-1.44v2.128Z" transform="translate(-210.924 -58.184)"/>
      <path id="Trazado_873308" data-name="Trazado 873308" d="M56.519,160.926a1.121,1.121,0,0,0-1.584,0L40.6,175.257,25.153,159.806a1.121,1.121,0,0,0-1.584,0L9.007,174.368a1.121,1.121,0,0,0,0,1.584l8.17,8.169H4.2v2.24H18.761a1.1,1.1,0,0,0,.441-.091l7.63-3.27H43.4v4.481H31.082a1.12,1.12,0,0,0-.469,2.137l14.563,6.721a1.118,1.118,0,0,0,1.12-.112l19.4-14,2.949,2.949-22.3,19.107H40.245l-21.1-7.772a1.118,1.118,0,0,0-.388-.069H4.2v2.24H18.56l21.1,7.772a1.119,1.119,0,0,0,.388.069h6.721a1.113,1.113,0,0,0,.728-.27l23.524-20.163a1.121,1.121,0,0,0,.122-1.58c-.019-.021-.038-.043-.058-.063l-3.689-3.689,3.689-3.689a1.121,1.121,0,0,0,0-1.584Zm-32.157,1.256,18.58,18.58H38.593a7.808,7.808,0,0,0-7.511-5.6,7.891,7.891,0,0,0-7.784,6.918l-3.5,1.5-8.417-8.417ZM51.6,186.257,45.75,180.4a5.028,5.028,0,1,1,5.854,5.854Zm3.126,1.12-1.164.84-.145-.145a7.238,7.238,0,0,0,1.308-.693v0ZM26.6,180.761a1.1,1.1,0,0,0-.441.091l-.272.112a5.569,5.569,0,0,1,10.311-.2Zm18.919,13.271-9.338-4.309h8.342a1.121,1.121,0,0,0,1.12-1.12v-5.137l6.083,6.083ZM65.081,179.9l-9.871,7.13a7.281,7.281,0,1,0-11.278-8.447l-1.744-1.746L55.727,163.3,68.705,176.28Z" transform="translate(0 -138.194)"/>
    </g>
  </g>
</svg>
