<svg xmlns="http://www.w3.org/2000/svg" xmlns:xlink="http://www.w3.org/1999/xlink" width="178" height="178" viewBox="0 0 178 178">
  <defs>
    <filter id="Trazado_873048" x="0" y="0" width="178" height="178" filterUnits="userSpaceOnUse">
      <feOffset dy="8" input="SourceAlpha"/>
      <feGaussianBlur stdDeviation="13.5" result="blur"/>
      <feFlood flood-opacity="0.518"/>
      <feComposite operator="in" in2="blur"/>
      <feComposite in="SourceGraphic"/>
    </filter>
  </defs>
  <g id="a3" transform="translate(-944.833 -349.5)">
    <g transform="matrix(1, 0, 0, 1, 944.83, 349.5)" filter="url(#Trazado_873048)">
      <path id="Trazado_873048-2" data-name="Trazado 873048" d="M48.5,0A48.5,48.5,0,1,1,0,48.5,48.5,48.5,0,0,1,48.5,0Z" transform="translate(40.5 32.5)" fill="#fff"/>
    </g>
    <g id="Artboard_01" data-name="Artboard 01" transform="translate(998.336 397.407)">
      <path id="Trazado_873208" data-name="Trazado 873208" d="M8.477,62A23,23,0,0,1,37.909,26.962l4.933,4.523A22.993,22.993,0,0,1,45.718,36L44,58.965A23.087,23.087,0,0,1,41.523,62Z" fill="#2d9739"/>
      <path id="Trazado_873209" data-name="Trazado 873209" d="M45.718,36a22.993,22.993,0,0,0-2.876-4.515l-4.933-4.524-.087-.059a17.692,17.692,0,0,0-19.63,0A23,23,0,0,0,14.477,62H41.523A23.087,23.087,0,0,0,44,58.965Z" fill="#44bc59"/>
      <path id="Trazado_873210" data-name="Trazado 873210" d="M44.473,33.761a23.078,23.078,0,0,0-1.631-2.276l-2.207-2.024A14.871,14.871,0,0,1,37.208,31.2l-4.372,1.49A1.248,1.248,0,0,0,32,33.878v6.87a1.222,1.222,0,0,0,1.86,1.067l4.393-2.746a28.882,28.882,0,0,0,6.22-5.308Z" fill="#2d9739"/>
      <rect id="Rectángulo_401298" data-name="Rectángulo 401298" width="14" height="4" rx="2" transform="translate(18 19)" fill="#ffc239"/>
      <circle id="Elipse_11488" data-name="Elipse 11488" cx="12" cy="12" r="12" transform="translate(13 31)" fill="#abe4a3"/>
      <path id="Trazado_873211" data-name="Trazado 873211" d="M25,31a11.927,11.927,0,0,0-6.548,1.952,11.991,11.991,0,0,0,16.6,16.6A11.991,11.991,0,0,0,25,31Z" fill="#cdf8c8"/>
      <path id="Trazado_873212" data-name="Trazado 873212" d="M20,19l-2.78-5c-.685-1.662.249-4,1.78-4H31c1.531,0,2.465,2.338,1.78,4L30,19Z" fill="#2d9739"/>
      <path id="Trazado_873213" data-name="Trazado 873213" d="M25,42a2,2,0,1,1,2-2h2a4,4,0,0,0-3-3.858V35H24v1.142A3.992,3.992,0,0,0,25,44a2,2,0,1,1-2,2H21a4,4,0,0,0,3,3.858V51h2V49.858A3.992,3.992,0,0,0,25,42Z" fill="#2d9739"/>
      <path id="Trazado_873214" data-name="Trazado 873214" d="M37,43h4V59H37Z" fill="#ffc239"/>
      <path id="Trazado_873215" data-name="Trazado 873215" d="M44,36h4V59H44Z" fill="#ffc239"/>
      <path id="Trazado_873216" data-name="Trazado 873216" d="M51,29h4V59H51Z" fill="#ffc239"/>
      <path id="Trazado_873217" data-name="Trazado 873217" d="M36.628,40.084a11.99,11.99,0,0,0-4.5-6.724,1.246,1.246,0,0,0-.125.518v6.87a1.222,1.222,0,0,0,1.86,1.067Z" fill="#abe4a3"/>
      <path id="Trazado_873218" data-name="Trazado 873218" d="M58,23h4V59H58Z" fill="#ffc239"/>
      <path id="Trazado_873219" data-name="Trazado 873219" d="M30,47h4V59H30Z" fill="#ffc239"/>
      <path id="Trazado_873220" data-name="Trazado 873220" d="M20,19a1.979,1.979,0,0,0-.974.263A2,2,0,0,0,21,21H31a1.979,1.979,0,0,0,.974-.263A2,2,0,0,0,30,19Z" fill="#ffd55d"/>
      <path id="Trazado_873221" data-name="Trazado 873221" d="M32.78,14c.685-1.662-.249-4-1.78-4H20.637A1.49,1.49,0,0,0,19.2,11.981l.008.019,1.481,2.664A4.545,4.545,0,0,0,24.665,17h6.447Z" fill="#44bc59"/>
      <g id="Grupo_1099323" data-name="Grupo 1099323">
        <path id="Trazado_873222" data-name="Trazado 873222" d="M32,47v9a2,2,0,0,0,2,2V47Z" fill="#ffd55d"/>
        <path id="Trazado_873223" data-name="Trazado 873223" d="M39,43V56a2,2,0,0,0,2,2V43Z" fill="#ffd55d"/>
        <path id="Trazado_873224" data-name="Trazado 873224" d="M46,36V56a2,2,0,0,0,2,2V36Z" fill="#ffd55d"/>
        <path id="Trazado_873225" data-name="Trazado 873225" d="M53,29V56a2,2,0,0,0,2,2V29Z" fill="#ffd55d"/>
        <path id="Trazado_873226" data-name="Trazado 873226" d="M60,23V56a2,2,0,0,0,2,2V23Z" fill="#ffd55d"/>
      </g>
      <path id="Trazado_873227" data-name="Trazado 873227" d="M59.505,14.269A1,1,0,0,1,58.269,15.5L53,14c-2.52,8.377-7.434,16.522-14.747,21.092L33.86,37.838A1.222,1.222,0,0,1,32,36.771V29.9a1.248,1.248,0,0,1,.836-1.186l4.372-1.49C43.058,25.231,48.791,19.184,50,13l-4.459-2.229a1,1,0,0,1-.107-1.727L54.859,2.76a1,1,0,0,1,1.516.557Z" fill="#f3a606"/>
      <path id="Trazado_873228" data-name="Trazado 873228" d="M33.86,35.246,38.253,32.5c6.793-4.245,11.516-11.576,14.174-19.312a1.986,1.986,0,0,1,2.429-1.25l3.413.975a.982.982,0,0,0,.814-.124L56.375,3.317a1,1,0,0,0-1.516-.557L45.434,9.044a1,1,0,0,0,.107,1.727L50,13c-1.209,6.184-6.942,12.231-12.792,14.225l-4.372,1.49A1.248,1.248,0,0,0,32,29.9v4.28a1.222,1.222,0,0,0,1.86,1.066Z" fill="#ffc239"/>
      <path id="Trazado_873229" data-name="Trazado 873229" d="M25,38a2,2,0,0,1,2,2h2a4,4,0,0,0-3-3.858V35H24v1.142A3.992,3.992,0,0,0,25,44a2,2,0,1,1-2,2H21a4,4,0,0,0,3,3.858V51h2V49.858A3.992,3.992,0,0,0,25,42a2,2,0,0,1,0-4Z"/>
      <path id="Trazado_873230" data-name="Trazado 873230" d="M51,28a1,1,0,0,0-1,1V59a1,1,0,0,0,1,1h4a1,1,0,0,0,1-1V29a1,1,0,0,0-1-1Zm3,30H52V30h2Z"/>
      <path id="Trazado_873231" data-name="Trazado 873231" d="M62,22H58a1,1,0,0,0-1,1V59a1,1,0,0,0,1,1h4a1,1,0,0,0,1-1V23A1,1,0,0,0,62,22ZM61,58H59V24h2Z"/>
      <path id="Trazado_873232" data-name="Trazado 873232" d="M44.474,60H48a1,1,0,0,0,1-1V36a1,1,0,0,0-1-1H46.324a24.086,24.086,0,0,0-2.156-3.428,41.262,41.262,0,0,0,9.5-16.343L58,16.468A2,2,0,0,0,60.467,14L57.337,3.043a2,2,0,0,0-3.032-1.115L44.879,8.212a2,2,0,0,0,.215,3.453l3.758,1.879c-1.3,5.011-5.824,10.116-10.849,12.3a23.856,23.856,0,0,0-5.854-2.755,2.977,2.977,0,0,0-.673-4.682l2.178-3.918a1.017,1.017,0,0,0,.051-.1,4.5,4.5,0,0,0-.419-4.055A2.774,2.774,0,0,0,31,9H19a2.774,2.774,0,0,0-2.286,1.326,4.5,4.5,0,0,0-.419,4.055,1.017,1.017,0,0,0,.051.1L18.524,18.4a2.977,2.977,0,0,0-.672,4.683A24,24,0,0,0,6.267,61H2v2H62V61H43.726c.261-.325.505-.662.748-1ZM47,58H45V37h2Zm3.981-44.809a1,1,0,0,0-.534-1.086L45.988,9.876l9.425-6.284,3.13,10.952-5.269-1.506a1,1,0,0,0-1.232.674c-2.768,9.2-7.854,16.491-14.319,20.533L33.329,36.99a.187.187,0,0,1-.2.006A.244.244,0,0,1,33,36.771V29.9a.252.252,0,0,1,.158-.24l4.372-1.49c6.428-2.19,12.21-8.63,13.451-14.979ZM40,44V58H38V44Zm-4-1a10.984,10.984,0,0,1-1,4.564V47a1,1,0,0,0-1-1H30a1,1,0,0,0-1,1v6.234a11,11,0,1,1,2-19.446v2.983a2.253,2.253,0,0,0,1.155,1.974,2.178,2.178,0,0,0,2.235-.059l.554-.347A10.994,10.994,0,0,1,36,43Zm-3,5V58H31V48ZM18.376,11.439A.863.863,0,0,1,19,11H31a.863.863,0,0,1,.624.439,2.5,2.5,0,0,1,.251,2.132L29.412,18H20.588l-2.463-4.429a2.5,2.5,0,0,1,.251-2.132ZM20,22a1,1,0,0,1,0-2H30a1,1,0,0,1,0,2ZM3,46A21.988,21.988,0,0,1,35.585,26.722l-3.071,1.047A2.244,2.244,0,0,0,31,29.9v1.57a13,13,0,1,0-2,23.9V59a1,1,0,0,0,1,1h4a1,1,0,0,0,1-1V51.289a12.963,12.963,0,0,0,1-1.376V59a1,1,0,0,0,1,1h4a1,1,0,0,0,1-1V43a1,1,0,0,0-1-1H37.958a13,13,0,0,0-1.293-4.736l2.118-1.324a28.682,28.682,0,0,0,3.933-2.978A22.137,22.137,0,0,1,44.048,35H44a1,1,0,0,0-1,1V58.633A22.129,22.129,0,0,1,41.075,61H8.928A21.87,21.87,0,0,1,3,46Z"/>
    </g>
  </g>
</svg>
